<svg width="230" height="230" viewBox="0 0 230 230" fill="none" xmlns="http://www.w3.org/2000/svg">
<path fill-rule="evenodd" clip-rule="evenodd" d="M110.544 132.823C109.891 134.332 101.122 167.993 101.122 167.993C100.919 168.747 100.57 169.453 100.094 170.072C99.6181 170.69 99.0251 171.209 98.3487 171.599C96.9828 172.385 95.3603 172.597 93.8383 172.187C93.0846 171.985 92.3783 171.635 91.7597 171.159C91.141 170.684 90.6221 170.091 90.2326 169.414C89.4461 168.048 89.2343 166.426 89.644 164.904C89.644 164.904 100.1 131.314 100.1 124.149V106.694L76.8353 100.456C76.0702 100.266 75.3506 99.9246 74.7187 99.453C74.0867 98.9814 73.555 98.3886 73.1545 97.7094C72.754 97.0301 72.4927 96.278 72.3858 95.4967C72.279 94.7154 72.3288 93.9207 72.5322 93.1589C72.7357 92.397 73.0888 91.6833 73.571 91.0593C74.0531 90.4354 74.6546 89.9136 75.3405 89.5245C76.0263 89.1354 76.7828 88.8867 77.5658 88.793C78.3487 88.6993 79.1425 88.7623 79.9008 88.9785C79.9008 88.9785 99.5535 95.668 107.229 95.668H122.783C130.446 95.668 150.087 88.9785 150.087 88.9785C151.609 88.5689 153.232 88.7806 154.598 89.5672C155.964 90.3538 156.961 91.6508 157.371 93.1728C157.78 94.6949 157.569 96.3174 156.782 97.6833C155.996 99.0492 154.699 100.047 153.176 100.456L129.817 106.718V124.149C129.817 131.314 140.273 164.868 140.273 164.868C140.681 166.39 140.468 168.012 139.68 169.377C138.892 170.742 137.595 171.738 136.072 172.146C134.55 172.554 132.929 172.341 131.564 171.553C130.199 170.765 129.203 169.468 128.795 167.946C128.795 167.946 119.99 134.332 119.384 132.823C118.79 131.314 116.782 131.314 116.782 131.314H113.134C113.134 131.314 111.079 131.314 110.544 132.823ZM115 86.721C118.545 86.721 121.945 85.3126 124.452 82.8058C126.959 80.299 128.367 76.899 128.367 73.3538C128.367 69.8086 126.959 66.4087 124.452 63.9018C121.945 61.395 118.545 59.9867 115 59.9867C111.455 59.9867 108.055 61.395 105.548 63.9018C103.041 66.4087 101.633 69.8086 101.633 73.3538C101.633 76.899 103.041 80.299 105.548 82.8058C108.055 85.3126 111.455 86.721 115 86.721Z" fill="url(#paint0_linear_539_5137)"/>
<path fill-rule="evenodd" clip-rule="evenodd" d="M36.3062 115C36.3062 94.1291 44.5971 74.113 59.355 59.355C74.113 44.5971 94.1291 36.3062 115 36.3062C135.871 36.3062 155.887 44.5971 170.645 59.355C185.403 74.113 193.694 94.1291 193.694 115C193.694 135.871 185.403 155.887 170.645 170.645C155.887 185.403 135.871 193.694 115 193.694C94.1291 193.694 74.113 185.403 59.355 170.645C44.5971 155.887 36.3062 135.871 36.3062 115ZM115 47.594C97.1228 47.594 79.9778 54.6956 67.3367 67.3367C54.6956 79.9778 47.594 97.1228 47.594 115C47.594 132.877 54.6956 150.022 67.3367 162.663C79.9778 175.304 97.1228 182.406 115 182.406C132.877 182.406 150.022 175.304 162.663 162.663C175.304 150.022 182.406 132.877 182.406 115C182.406 97.1228 175.304 79.9778 162.663 67.3367C150.022 54.6956 132.877 47.594 115 47.594Z" fill="url(#paint1_linear_539_5137)"/>
<defs>
<linearGradient id="paint0_linear_539_5137" x1="87.7496" y1="165.747" x2="142.949" y2="58.3793" gradientUnits="userSpaceOnUse">
<stop offset="0.00022" stop-color="#E95420"/>
<stop offset="1" stop-color="#BB53AA"/>
</linearGradient>
<linearGradient id="paint1_linear_539_5137" x1="115" y1="36.3062" x2="115" y2="193.694" gradientUnits="userSpaceOnUse">
<stop stop-color="#414141"/>
<stop offset="1" stop-color="#838383"/>
</linearGradient>
</defs>
</svg>
