<svg width="230" height="231" viewBox="0 0 230 231" fill="none" xmlns="http://www.w3.org/2000/svg">
<path d="M210.939 125.111H124.53V211.52H210.939V125.111Z" fill="#E95420"/>
<path d="M144.429 176.35C149.398 176.35 153.425 172.38 153.425 167.483C153.425 162.586 149.398 158.616 144.429 158.616C139.461 158.616 135.433 162.586 135.433 167.483C135.433 172.38 139.461 176.35 144.429 176.35Z" fill="white"/>
<path d="M181.989 156.9C186.957 156.9 190.984 152.93 190.984 148.033C190.984 143.135 186.957 139.166 181.989 139.166C177.02 139.166 172.993 143.135 172.993 148.033C172.993 152.93 177.02 156.9 181.989 156.9Z" fill="white"/>
<path d="M164.743 190.366C158.234 188.976 152.845 184.89 149.777 179.129C147.373 180.191 144.678 180.518 142.066 180.068C145.756 189.017 153.591 195.474 163.209 197.517C165.323 197.966 167.479 198.17 169.593 198.17C167.935 196.046 167.023 193.43 166.94 190.734C166.194 190.652 165.447 190.529 164.743 190.366Z" fill="white"/>
<path d="M179.957 199.274C184.925 199.274 188.953 195.304 188.953 190.407C188.953 185.509 184.925 181.539 179.957 181.539C174.989 181.539 170.961 185.509 170.961 190.407C170.961 195.304 174.989 199.274 179.957 199.274Z" fill="white"/>
<path d="M192.477 187.138C195.296 183.664 197.244 179.537 198.198 175.165C199.856 167.524 198.322 159.515 193.928 153.018C192.891 155.429 191.109 157.472 188.87 158.861C191.316 163.397 192.062 168.586 190.943 173.612C190.404 176.064 189.451 178.393 188.124 180.477C190.238 182.193 191.731 184.482 192.435 187.097L192.477 187.138Z" fill="white"/>
<path d="M143.725 154.775C143.973 154.775 144.181 154.775 144.429 154.775C145.341 154.775 146.253 154.856 147.165 155.061C148.616 155.388 150.026 155.919 151.27 156.695C155.332 150.934 161.882 147.501 168.971 147.379C168.971 146.725 169.096 146.03 169.261 145.376C169.676 143.456 170.505 141.699 171.707 140.187C160.39 139.288 149.363 145.049 143.766 154.816L143.725 154.775Z" fill="white"/>
<path fill-rule="evenodd" clip-rule="evenodd" d="M71.4445 19.7517C62.1623 19.8378 54.982 20.4539 49.0397 24.0193C45.0781 26.3962 42.1403 30.3051 40.5233 35.1562C38.9062 40.0072 38.3333 45.8397 38.3333 53.2934V177.877C38.3333 185.33 38.9062 191.163 40.5233 196.014C42.1403 200.865 45.0781 204.774 49.0397 207.151C56.9628 211.905 67.0834 211.418 81.4583 211.418H115V201.835H81.4583C67.0834 201.835 58.0371 201.349 53.9811 198.915C51.9531 197.698 50.6982 196.216 49.6199 192.982C48.5417 189.747 47.9166 184.798 47.9166 177.877V53.2934C47.9166 46.3721 48.5417 41.4232 49.6199 38.1884C50.6982 34.9536 51.9531 33.4718 53.9811 32.255C58.0371 29.8214 67.0834 29.335 81.4583 29.335H148.542C162.917 29.335 171.963 29.8214 176.019 32.255C178.047 33.4718 179.302 34.9536 180.38 38.1884C181.458 41.4232 182.083 46.3721 182.083 53.2934V115.585H191.667V53.2934C191.667 45.8397 191.094 40.0072 189.477 35.1562C187.86 30.3051 184.922 26.3962 180.96 24.0193C173.037 19.2654 162.917 19.7517 148.542 19.7517H81.4583C77.8646 19.7517 74.5385 19.723 71.4445 19.7517ZM114.289 86.835C108.24 86.924 102.26 88.1631 96.6569 90.4849C74.4395 99.6879 62.4848 123.934 68.7117 147.161C74.3911 168.34 93.5847 182.632 115 182.612V173.048C97.8733 173.057 82.5196 161.61 77.9769 144.672C72.9986 126.094 82.5581 106.703 100.325 99.3383C115.317 93.1674 132.57 97.0946 143.413 109.146L136.974 115.585H150.526L156.721 109.39L150.17 102.389C141.577 93.0031 129.604 87.4205 116.89 86.8725C116.025 86.8383 115.153 86.8223 114.289 86.835ZM115 115.585C109.917 115.585 105.042 117.604 101.447 121.199C97.8527 124.793 95.8333 129.668 95.8333 134.752C95.8333 139.835 97.8527 144.71 101.447 148.305C105.042 151.899 109.917 153.918 115 153.918V144.335C112.458 144.335 110.021 143.325 108.224 141.528C106.426 139.731 105.417 137.293 105.417 134.752C105.417 132.21 106.426 129.772 108.224 127.975C110.021 126.178 112.458 125.168 115 125.168V115.585Z" fill="url(#paint0_linear_624_12991)"/>
<defs>
<linearGradient id="paint0_linear_624_12991" x1="115" y1="19.7377" x2="115" y2="211.432" gradientUnits="userSpaceOnUse">
<stop stop-color="#414141"/>
<stop offset="1" stop-color="#838383"/>
</linearGradient>
</defs>
</svg>
