<svg width="230" height="231" viewBox="0 0 230 231" fill="none" xmlns="http://www.w3.org/2000/svg">
<path d="M115 70.8336C110.513 70.8336 106.07 71.7174 101.925 73.4344C97.7796 75.1514 94.0131 77.6681 90.8404 80.8408C84.4329 87.2483 80.8333 95.9387 80.8333 105C80.8333 114.062 84.4329 122.752 90.8404 129.16C94.0131 132.332 97.7796 134.849 101.925 136.566C106.07 138.283 110.513 139.167 115 139.167C124.061 139.167 132.752 135.567 139.159 129.16C145.567 122.752 149.167 114.062 149.167 105C149.167 100.513 148.283 96.0706 146.566 91.9253C144.849 87.78 142.332 84.0135 139.159 80.8408C135.987 77.6681 132.22 75.1514 128.075 73.4344C123.93 71.7174 119.487 70.8336 115 70.8336ZM115 74.2503C123.155 74.2503 130.977 77.49 136.743 83.2568C142.51 89.0235 145.75 96.8449 145.75 105C145.75 113.156 142.51 120.977 136.743 126.744C130.977 132.511 123.155 135.75 115 135.75C106.845 135.75 99.0231 132.511 93.2564 126.744C87.4896 120.977 84.2499 113.156 84.2499 105C84.2499 96.8449 87.4896 89.0235 93.2564 83.2568C99.0231 77.49 106.845 74.2503 115 74.2503ZM133.118 86.8826C125.645 89.6035 116.912 94.0355 112.13 96.5587C111.149 97.0363 110.242 97.683 109.461 98.4606C109.291 98.6311 109.129 98.8087 108.974 98.9878C108.8 99.1397 108.627 99.2952 108.46 99.4615C107.683 100.242 107.036 101.149 106.558 102.131C104.035 106.913 99.6031 115.645 96.8822 123.118C104.521 120.337 113.589 115.724 118.29 113.235C119.112 112.784 119.871 112.207 120.539 111.54C120.707 111.372 120.866 111.196 121.019 111.019C121.196 110.866 121.371 110.707 121.54 110.539C122.207 109.871 122.784 109.119 123.235 108.297C125.723 103.596 130.336 94.521 133.118 86.8826ZM115 101.584C115.906 101.584 116.775 101.944 117.416 102.584C118.057 103.225 118.417 104.094 118.417 105C118.417 105.906 118.057 106.775 117.416 107.416C116.775 108.057 115.906 108.417 115 108.417C114.094 108.417 113.225 108.057 112.584 107.416C111.943 106.775 111.583 105.906 111.583 105C111.583 104.094 111.943 103.225 112.584 102.584C113.225 101.944 114.094 101.584 115 101.584Z" fill="url(#paint0_linear_539_5372)"/>
<path d="M28.75 158.705V43.7053H201.25V158.705H208.438V43.6334C208.438 39.6803 205.275 36.5178 201.322 36.5178H28.3906C24.5812 36.5178 21.5625 39.6084 21.5625 43.3459V158.705H28.75Z" fill="url(#paint1_linear_539_5372)"/>
<path d="M136.562 165.893V173.08H93.4375V165.893H0C0 173.799 6.46875 180.268 14.375 180.268H215.625C223.531 180.268 230 173.799 230 165.893H136.562Z" fill="url(#paint2_linear_539_5372)"/>
<defs>
<linearGradient id="paint0_linear_539_5372" x1="93.1931" y1="135.128" x2="121.122" y2="63.4936" gradientUnits="userSpaceOnUse">
<stop offset="0.00022" stop-color="#E95420"/>
<stop offset="1" stop-color="#BB53AA"/>
</linearGradient>
<linearGradient id="paint1_linear_539_5372" x1="115" y1="36.5178" x2="115" y2="180.268" gradientUnits="userSpaceOnUse">
<stop stop-color="#414141"/>
<stop offset="1" stop-color="#838383"/>
</linearGradient>
<linearGradient id="paint2_linear_539_5372" x1="115" y1="36.5178" x2="115" y2="180.268" gradientUnits="userSpaceOnUse">
<stop stop-color="#414141"/>
<stop offset="1" stop-color="#838383"/>
</linearGradient>
</defs>
</svg>
