<svg width="230" height="231" viewBox="0 0 230 231" fill="none" xmlns="http://www.w3.org/2000/svg">
<path d="M207.974 110.58C207.974 110.26 207.714 110 207.394 110C207.073 110 206.813 110.26 206.813 110.58H207.974ZM207.394 153.851L207.79 154.275C207.908 154.165 207.974 154.012 207.974 153.851H207.394ZM191.11 168.278C190.876 168.497 190.863 168.865 191.082 169.099C191.301 169.333 191.669 169.346 191.903 169.127L191.11 168.278ZM206.813 110.58V153.851H207.974V110.58H206.813ZM206.997 153.427L191.11 168.278L191.903 169.127L207.79 154.275L206.997 153.427Z" fill="black"/>
<path d="M184.959 163.811C184.722 164.028 184.706 164.395 184.922 164.632C185.138 164.868 185.506 164.885 185.742 164.669L184.959 163.811ZM200.054 150.81L200.445 151.239C200.566 151.129 200.634 150.973 200.634 150.81H200.054ZM200.054 106.244L199.884 105.688C199.64 105.763 199.473 105.988 199.473 106.244H200.054ZM213.335 102.179L213.505 102.734C213.722 102.668 213.881 102.48 213.911 102.255C213.94 102.029 213.835 101.807 213.643 101.687L213.335 102.179ZM207.138 97.6218C206.866 97.4518 206.508 97.5345 206.338 97.8065C206.168 98.0785 206.25 98.4367 206.522 98.6067L207.138 97.6218ZM185.742 164.669L200.445 151.239L199.662 150.381L184.959 163.811L185.742 164.669ZM200.634 150.81V106.244H199.473V150.81H200.634ZM200.224 106.799L213.505 102.734L213.165 101.624L199.884 105.688L200.224 106.799ZM213.643 101.687L207.138 97.6218L206.522 98.6067L213.027 102.671L213.643 101.687Z" fill="black"/>
<path d="M215.317 98.9466C215.317 98.6259 215.057 98.3659 214.736 98.3659C214.416 98.3659 214.156 98.6259 214.156 98.9466H215.317ZM214.156 156.891C214.156 157.212 214.416 157.472 214.736 157.472C215.057 157.472 215.317 157.212 215.317 156.891H214.156ZM214.156 98.9466V156.891H215.317V98.9466H214.156Z" fill="black"/>
<path d="M68.0141 1.57277C68.2415 1.34664 68.2425 0.978974 68.0164 0.751569C67.7903 0.524166 67.4226 0.523138 67.1952 0.749282L68.0141 1.57277ZM0.580678 162.973H0C0 163.127 0.0611783 163.275 0.170077 163.383L0.580678 162.973ZM67.6047 229.997L67.1941 230.407C67.303 230.516 67.4507 230.577 67.6047 230.577V229.997ZM125.959 230.577C126.279 230.577 126.539 230.318 126.539 229.997C126.539 229.676 126.279 229.416 125.959 229.416V230.577ZM67.6047 1.16102C67.1952 0.749265 67.1949 0.749526 67.1944 0.750032C67.1939 0.750605 67.1933 0.751175 67.1922 0.75232C67.1902 0.754322 67.1871 0.757382 67.183 0.761416C67.1749 0.769482 67.1627 0.781555 67.1466 0.797591C67.1144 0.829628 67.0663 0.877431 67.0029 0.940493C66.8761 1.06661 66.6879 1.25378 66.4425 1.49791C65.9516 1.98617 65.2316 2.70232 64.3152 3.61392C62.4825 5.43711 59.8643 8.0421 56.7225 11.1693C50.439 17.4236 42.0608 25.7665 33.6826 34.1213C25.3046 42.476 16.9261 50.8427 10.642 57.1444C7.50008 60.2951 4.88103 62.9302 3.04717 64.7897C2.13048 65.7192 1.40869 66.4562 0.915526 66.9673C0.669373 67.2224 0.477764 67.4237 0.346673 67.5654C0.281841 67.6355 0.227559 67.6956 0.187758 67.7422C0.168822 67.7644 0.146454 67.7913 0.126348 67.8184C0.117134 67.8308 0.100045 67.8545 0.082686 67.8841C0.0737767 67.8997 0.0548944 67.9371 0.0446867 67.9605C0.0302356 67.9991 0.00467803 68.1107 0 68.185H1.16136C1.15668 68.2578 1.13163 68.3674 1.1182 68.4036C1.10901 68.4245 1.09166 68.4589 1.08479 68.4711C1.07151 68.4937 1.06052 68.5084 1.05942 68.5099C1.05555 68.5151 1.05747 68.5122 1.07076 68.4966C1.09538 68.4677 1.13724 68.4211 1.19922 68.354C1.32176 68.2216 1.50651 68.0274 1.75125 67.7737C2.23988 67.2673 2.95806 66.534 3.87406 65.6052C5.70557 63.7481 8.32277 61.1148 11.4643 57.9644C17.7473 51.664 26.1248 43.2981 34.5027 34.9436C42.8805 26.5892 51.2584 18.2465 57.5418 11.9924C60.6835 8.86529 63.3016 6.26037 65.1343 4.43723C66.0506 3.52566 66.7706 2.80953 67.2614 2.32131C67.5069 2.07719 67.6951 1.89005 67.8219 1.76393C67.8853 1.70088 67.9333 1.65308 67.9655 1.62104C67.9816 1.60503 67.9938 1.59296 68.0019 1.58489C68.006 1.58085 68.009 1.57782 68.0111 1.57579C68.0122 1.57465 68.0128 1.57408 68.0133 1.5735C68.0139 1.57293 68.0142 1.57266 67.6047 1.16102ZM0 68.185V162.973H1.16136V68.185H0ZM0.170077 163.383L67.1941 230.407L68.0153 229.586L0.99128 162.562L0.170077 163.383ZM67.6047 230.577H125.959V229.416H67.6047V230.577Z" fill="black"/>
<path d="M153.871 216.681C154.177 216.587 154.349 216.262 154.254 215.955C154.16 215.649 153.835 215.477 153.528 215.571L153.871 216.681ZM132.529 222.657L132.358 222.102C132.083 222.187 131.912 222.459 131.955 222.743C131.998 223.027 132.242 223.237 132.529 223.237V222.657ZM159.352 222.657V223.237C159.506 223.237 159.653 223.176 159.762 223.067L159.352 222.657ZM222.076 159.932L222.487 160.343C222.596 160.234 222.657 160.086 222.657 159.932H222.076ZM222.076 71.2285H222.657C222.657 71.0745 222.596 70.9268 222.487 70.8179L222.076 71.2285ZM198.642 46.9701C198.415 46.7433 198.048 46.7433 197.821 46.97C197.594 47.1968 197.594 47.5645 197.821 47.7912L198.642 46.9701ZM153.528 215.571L132.358 222.102L132.7 223.212L153.871 216.681L153.528 215.571ZM132.529 223.237H159.352V222.076H132.529V223.237ZM159.762 223.067L222.487 160.343L221.666 159.521L158.941 222.246L159.762 223.067ZM222.657 159.932V71.2285H221.496V159.932H222.657ZM222.487 70.8179L198.642 46.9701L197.821 47.7912L221.666 71.6391L222.487 70.8179Z" fill="black"/>
<path d="M71.0573 206.936C71.0573 206.615 70.7973 206.355 70.4766 206.355C70.1559 206.355 69.8959 206.615 69.8959 206.936H71.0573ZM70.4766 212.322L70.0607 212.727C70.2256 212.896 70.4765 212.949 70.6954 212.86C70.9142 212.771 71.0573 212.558 71.0573 212.322H70.4766ZM64.0033 205.68L64.4192 205.275C64.4174 205.273 64.4158 205.271 64.4141 205.269L64.0033 205.68ZM15.2635 156.891L15.0414 156.355C14.8622 156.429 14.7319 156.588 14.6941 156.778C14.6562 156.968 14.7157 157.165 14.8527 157.302L15.2635 156.891ZM22.8286 154.387C23.1249 154.265 23.2656 153.925 23.1429 153.629C23.0202 153.332 22.6805 153.192 22.3842 153.314L22.8286 154.387ZM69.8959 206.936V212.322H71.0573V206.936H69.8959ZM70.8924 211.917L64.4192 205.275L63.5875 206.085L70.0607 212.727L70.8924 211.917ZM64.4141 205.269L15.6743 156.481L14.8527 157.302L63.5925 206.09L64.4141 205.269ZM15.4857 157.428L22.8286 154.387L22.3842 153.314L15.0414 156.355L15.4857 157.428Z" fill="black"/>
<path d="M34.1993 55.5653C34.4225 55.3351 34.4167 54.9674 34.1864 54.7442C33.9561 54.5211 33.5885 54.5268 33.3653 54.7571L34.1993 55.5653ZM15.2635 74.2692L14.8466 73.8651C14.7416 73.9735 14.6829 74.1184 14.6829 74.2692H15.2635ZM14.6829 147.174C14.6829 147.495 14.9428 147.755 15.2635 147.755C15.5842 147.755 15.8442 147.495 15.8442 147.174H14.6829ZM33.3653 54.7571L14.8466 73.8651L15.6805 74.6734L34.1993 55.5653L33.3653 54.7571ZM14.6829 74.2692V147.174H15.8442V74.2692H14.6829Z" fill="black"/>
<path d="M90.0823 23.7674C90.403 23.7674 90.663 23.5075 90.663 23.1867C90.663 22.866 90.403 22.6061 90.0823 22.6061V23.7674ZM76.7296 23.1867V22.6061C76.5789 22.6061 76.4342 22.6646 76.3259 22.7693L76.7296 23.1867ZM47.2205 50.9165C46.99 51.1394 46.9838 51.507 47.2068 51.7376C47.4297 51.9681 47.7973 51.9743 48.0278 51.7513L47.2205 50.9165ZM90.0823 22.6061H76.7296V23.7674H90.0823V22.6061ZM76.3259 22.7693L47.2205 50.9165L48.0278 51.7513L77.1333 23.6042L76.3259 22.7693Z" fill="black"/>
<path d="M174.256 44.9938C174.483 45.2205 174.851 45.2205 175.077 44.9938C175.304 44.767 175.304 44.3993 175.077 44.1726L174.256 44.9938ZM153.27 23.1867L153.681 22.7761C153.572 22.6672 153.424 22.6061 153.27 22.6061V23.1867ZM98.4035 22.6061C98.0828 22.6061 97.8228 22.866 97.8228 23.1867C97.8228 23.5074 98.0828 23.7674 98.4035 23.7674V22.6061ZM175.077 44.1726L153.681 22.7761L152.86 23.5973L174.256 44.9938L175.077 44.1726ZM153.27 22.6061H98.4035V23.7674H153.27V22.6061Z" fill="black"/>
<path d="M35.8945 168.363C36.1179 168.593 36.4855 168.599 36.7156 168.375C36.9456 168.152 36.9509 167.784 36.7275 167.554L35.8945 168.363ZM22.6064 153.851H22.0257C22.0257 154.002 22.0846 154.147 22.1899 154.255L22.6064 153.851ZM23.1871 102.313C23.1871 101.993 22.9271 101.733 22.6064 101.733C22.2857 101.733 22.0257 101.993 22.0257 102.313H23.1871ZM36.7275 167.554L23.0229 153.446L22.1899 154.255L35.8945 168.363L36.7275 167.554ZM23.1871 153.851V102.313H22.0257V153.851H23.1871Z" fill="black"/>
<path d="M175.935 57.0791C176.162 57.306 176.529 57.3062 176.756 57.0795C176.983 56.8528 176.983 56.4852 176.757 56.2583L175.935 57.0791ZM150.23 30.5296L150.641 30.1192C150.532 30.0102 150.384 29.9489 150.23 29.9489V30.5296ZM79.7703 30.5296V29.9489C79.6154 29.9489 79.467 30.0108 79.358 30.1207L79.7703 30.5296ZM56.108 53.5652C55.8822 53.793 55.8837 54.1606 56.1114 54.3864C56.3391 54.6123 56.7068 54.6107 56.9326 54.383L56.108 53.5652ZM176.757 56.2583L150.641 30.1192L149.819 30.94L175.935 57.0791L176.757 56.2583ZM150.23 29.9489H126.368V31.1103H150.23V29.9489ZM126.368 29.9489H79.7703V31.1103H126.368V29.9489ZM79.358 30.1207L56.108 53.5652L56.9326 54.383L80.1826 30.9385L79.358 30.1207Z" fill="black"/>
<path d="M30.5299 113.572C30.5299 113.252 30.27 112.992 29.9493 112.992C29.6286 112.992 29.3686 113.252 29.3686 113.572H30.5299ZM29.9493 150.81H29.3686C29.3686 150.966 29.4312 151.115 29.5424 151.224L29.9493 150.81ZM43.6681 164.28L43.2613 164.694C43.4777 164.907 43.8212 164.917 44.0497 164.718L43.6681 164.28ZM49.9223 159.597C50.164 159.387 50.1891 159.02 49.9784 158.778C49.7676 158.536 49.4008 158.511 49.1591 158.722L49.9223 159.597ZM29.3686 113.572V150.81H30.5299V113.572H29.3686ZM29.5424 151.224L43.2613 164.694L44.075 163.866L30.3561 150.396L29.5424 151.224ZM44.0497 164.718L49.9223 159.597L49.1591 158.722L43.2865 163.842L44.0497 164.718Z" fill="black"/>
<path d="M166.628 57.7695C166.857 57.9942 167.225 57.9909 167.449 57.762C167.674 57.5332 167.671 57.1655 167.442 56.9408L166.628 57.7695ZM147.189 37.8696L147.596 37.4552C147.487 37.3486 147.341 37.2889 147.189 37.2889V37.8696ZM82.811 37.8696V37.2889C82.657 37.2889 82.5093 37.3501 82.4004 37.459L82.811 37.8696ZM56.0611 63.7983C55.8343 64.0251 55.8343 64.3927 56.0611 64.6195C56.2878 64.8463 56.6555 64.8463 56.8823 64.6195L56.0611 63.7983ZM167.442 56.9408L147.596 37.4552L146.782 38.2839L166.628 57.7695L167.442 56.9408ZM147.189 37.2889H82.811V38.4503H147.189V37.2889ZM82.4004 37.459L56.0611 63.7983L56.8823 64.6195L83.2216 38.2802L82.4004 37.459Z" fill="black"/>
<path d="M48.9976 159.392C49.2331 159.609 49.6005 159.595 49.8182 159.36C50.036 159.124 50.0217 158.757 49.7863 158.539L48.9976 159.392ZM37.2893 147.769L36.7086 147.772C36.7093 147.933 36.7767 148.086 36.8949 148.196L37.2893 147.769ZM37.7097 109.291C37.7084 108.97 37.4474 108.711 37.1267 108.712C36.806 108.714 36.5471 108.975 36.5484 109.295L37.7097 109.291ZM49.7863 158.539L37.6836 147.343L36.8949 148.196L48.9976 159.392L49.7863 158.539ZM37.8699 147.767L37.7097 109.291L36.5484 109.295L36.7086 147.772L37.8699 147.767Z" fill="black"/>
<path d="M54.8655 155.208C55.0985 155.428 55.466 155.418 55.6864 155.185C55.9068 154.952 55.8966 154.585 55.6636 154.364L54.8655 155.208ZM44.6321 144.729H44.0514C44.0514 144.888 44.1171 145.041 44.2331 145.15L44.6321 144.729ZM45.2128 112.568C45.2128 112.248 44.9528 111.988 44.6321 111.988C44.3114 111.988 44.0514 112.248 44.0514 112.568H45.2128ZM55.6636 154.364L45.0312 144.307L44.2331 145.15L54.8655 155.208L55.6636 154.364ZM45.2128 144.729V112.568H44.0514V144.729H45.2128Z" fill="black"/>
<path d="M56.3461 146.711C56.577 146.934 56.9446 146.927 57.1672 146.696C57.3898 146.465 57.383 146.098 57.1521 145.875L56.3461 146.711ZM51.9721 141.688H51.3914C51.3914 141.846 51.4556 141.997 51.5691 142.106L51.9721 141.688ZM52.5528 120.477C52.5528 120.157 52.2928 119.897 51.9721 119.897C51.6514 119.897 51.3914 120.157 51.3914 120.477H52.5528ZM57.1521 145.875L52.3752 141.27L51.5691 142.106L56.3461 146.711L57.1521 145.875ZM52.5528 141.688V120.477H51.3914V141.688H52.5528Z" fill="black"/>
<path d="M94.1299 44.6318C93.8092 44.6318 93.5492 44.8918 93.5492 45.2125C93.5492 45.5332 93.8092 45.7931 94.1299 45.7931V44.6318ZM144.148 45.2125L144.559 44.8019C144.45 44.693 144.302 44.6318 144.148 44.6318V45.2125ZM163.205 64.269L162.794 64.6796C162.917 64.8024 163.088 64.8638 163.261 64.8469L163.205 64.269ZM172.141 63.3966L172.197 63.9745C172.372 63.9574 172.529 63.8624 172.626 63.716L172.141 63.3966ZM180.509 51.7477C180.686 51.4799 180.612 51.1198 180.344 50.9434C180.076 50.767 179.716 50.8411 179.54 51.1089L180.509 51.7477ZM94.1299 45.7931H144.148V44.6318H94.1299V45.7931ZM143.738 45.6231L162.794 64.6796L163.615 63.8584L144.559 44.8019L143.738 45.6231ZM163.261 64.8469L172.197 63.9745L172.085 62.8186L163.148 63.6911L163.261 64.8469ZM172.626 63.716L180.509 51.7477L179.54 51.1089L171.656 63.0771L172.626 63.716Z" fill="black"/>
<path d="M65.8754 64.3676C65.6486 64.5943 65.6486 64.962 65.8754 65.1888C66.1021 65.4155 66.4698 65.4155 66.6966 65.1888L65.8754 64.3676ZM86.2623 45.6231C86.4891 45.3963 86.4891 45.0286 86.2623 44.8019C86.0355 44.5751 85.6678 44.5751 85.4411 44.8019L86.2623 45.6231ZM66.6966 65.1888L86.2623 45.6231L85.4411 44.8019L65.8754 64.3676L66.6966 65.1888Z" fill="black"/>
<path d="M154.473 66.742C154.7 66.9688 155.067 66.9688 155.294 66.7421C155.521 66.5153 155.521 66.1477 155.294 65.9209L154.473 66.742ZM141.108 52.5525L141.518 52.1419C141.409 52.033 141.262 51.9718 141.108 51.9718V52.5525ZM88.8924 52.5525V51.9718C88.739 51.9718 88.5918 52.0325 88.483 52.1406L88.8924 52.5525ZM74.5954 65.9424C74.3679 66.1685 74.3668 66.5362 74.5928 66.7636C74.8189 66.9911 75.1866 66.9922 75.414 66.7662L74.5954 65.9424ZM155.294 65.9209L141.518 52.1419L140.697 52.963L154.473 66.742L155.294 65.9209ZM141.108 51.9718H88.8924V53.1332H141.108V51.9718ZM88.483 52.1406L74.5954 65.9424L75.414 66.7662L89.3017 52.9644L88.483 52.1406Z" fill="black"/>
<path d="M85.6066 65.4577C85.2931 65.5251 85.0936 65.8339 85.161 66.1474C85.2284 66.461 85.5372 66.6605 85.8508 66.5931L85.6066 65.4577ZM112.88 60.1871V59.6064C112.839 59.6064 112.798 59.6108 112.758 59.6194L112.88 60.1871ZM114.923 60.1871L115.041 59.6187C115.002 59.6105 114.963 59.6064 114.923 59.6064V60.1871ZM144.373 66.9228C144.687 66.9882 144.995 66.7868 145.06 66.4729C145.126 66.1589 144.924 65.8513 144.61 65.7859L144.373 66.9228ZM85.8508 66.5931L113.002 60.7548L112.758 59.6194L85.6066 65.4577L85.8508 66.5931ZM112.88 60.7678H114.923V59.6064L112.88 59.6064V60.7678ZM114.804 60.7556L144.373 66.9228L144.61 65.7859L115.041 59.6187L114.804 60.7556Z" fill="black"/>
<path d="M66.4 64.241C66.0844 64.1843 65.7826 64.3942 65.7259 64.7099C65.6692 65.0255 65.8791 65.3274 66.1948 65.384L66.4 64.241ZM74.8449 66.9373C75.1605 66.994 75.4624 66.784 75.5191 66.4684C75.5757 66.1527 75.3658 65.8509 75.0501 65.7942L74.8449 66.9373ZM66.1948 65.384L74.8449 66.9373L75.0501 65.7942L66.4 64.241L66.1948 65.384Z" fill="black"/>
<path d="M48.1056 51.0078C47.9239 50.7435 47.5624 50.6766 47.2981 50.8582C47.0338 51.0399 46.9669 51.4014 47.1485 51.6657L48.1056 51.0078ZM55.9788 64.5121C56.1605 64.7764 56.522 64.8434 56.7863 64.6617C57.0506 64.4801 57.1176 64.1185 56.9359 63.8543L55.9788 64.5121ZM47.1485 51.6657L55.9788 64.5121L56.9359 63.8543L48.1056 51.0078L47.1485 51.6657Z" fill="black"/>
<path d="M37.5018 108.787C37.2131 108.648 36.8659 108.769 36.7264 109.058C36.5868 109.346 36.7078 109.693 36.9966 109.833L37.5018 108.787ZM42.5239 111.859L42.2713 112.382C42.3206 112.406 42.373 112.422 42.4269 112.431L42.5239 111.859ZM59.7469 114.777L59.6499 115.349C59.7812 115.371 59.9162 115.348 60.0322 115.282L59.7469 114.777ZM71.1316 108.355L71.6792 108.548C71.7598 108.32 71.6903 108.066 71.5049 107.91C71.3195 107.754 71.0571 107.73 70.8464 107.849L71.1316 108.355ZM64.1263 128.207L64.6735 128.401L64.6739 128.4L64.1263 128.207ZM57.4614 146.977L57.0593 147.396C57.2015 147.532 57.4033 147.587 57.5951 147.542C57.7869 147.497 57.9426 147.357 58.0086 147.171L57.4614 146.977ZM57.1512 145.874C56.9199 145.652 56.5523 145.66 56.3302 145.891C56.1081 146.123 56.1156 146.49 56.347 146.712L57.1512 145.874ZM36.9966 109.833L42.2713 112.382L42.7766 111.336L37.5018 108.787L36.9966 109.833ZM42.4269 112.431L59.6499 115.349L59.8439 114.204L42.6209 111.286L42.4269 112.431ZM60.0322 115.282L71.4169 108.861L70.8464 107.849L59.4616 114.271L60.0322 115.282ZM70.5841 108.162L63.5787 128.013L64.6739 128.4L71.6792 108.548L70.5841 108.162ZM63.5791 128.012L56.9142 146.783L58.0086 147.171L64.6735 128.401L63.5791 128.012ZM57.8635 146.558L57.1512 145.874L56.347 146.712L57.0593 147.396L57.8635 146.558Z" fill="black"/>
<path d="M29.402 106.163C29.6908 106.303 30.038 106.182 30.1775 105.893C30.317 105.604 30.196 105.257 29.9073 105.117L29.402 106.163ZM16.5422 99.3042L16.4176 98.7371C16.1759 98.7902 15.9944 98.9906 15.9655 99.2365C15.9366 99.4823 16.0667 99.7194 16.2895 99.827L16.5422 99.3042ZM28.5104 96.6754L28.635 97.2426C28.697 97.229 28.7564 97.2053 28.8107 97.1724L28.5104 96.6754ZM42.524 88.2084L42.3999 87.6411C42.3377 87.6547 42.2782 87.6785 42.2237 87.7114L42.524 88.2084ZM51.8663 86.166L51.9577 85.5926C51.8862 85.5812 51.8131 85.5833 51.7423 85.5987L51.8663 86.166ZM72.0098 89.3783L71.9184 89.9518C72.1851 89.9943 72.4459 89.8473 72.5477 89.5972C72.6495 89.347 72.5653 89.0597 72.3447 88.904L72.0098 89.3783ZM67.0469 85.8742L67.3818 85.3999C67.3171 85.3542 67.2437 85.3222 67.1661 85.3059L67.0469 85.8742ZM43.3993 80.9113L42.9134 81.2293C42.9976 81.358 43.1295 81.448 43.28 81.4796L43.3993 80.9113ZM32.8898 64.8554L32.3119 64.7996C32.2992 64.931 32.3317 65.0629 32.404 65.1734L32.8898 64.8554ZM34.855 44.5174L34.4444 44.1068C34.3491 44.202 34.29 44.3275 34.277 44.4615L34.855 44.5174ZM49.7295 29.0765L49.5343 28.5296C49.4498 28.5598 49.3735 28.6091 49.3112 28.6737L49.7295 29.0765ZM53.8171 27.6177L54.38 27.7603C54.4327 27.5524 54.3665 27.3324 54.2079 27.1881C54.0492 27.0438 53.8239 26.9987 53.6219 27.0708L53.8171 27.6177ZM51.2541 37.7295L50.6913 37.5868C50.6363 37.8036 50.7107 38.0326 50.8826 38.1757C51.0545 38.3188 51.2932 38.3505 51.4964 38.2572L51.2541 37.7295ZM52.2696 37.2632L52.5119 37.7909C52.5745 37.7622 52.6315 37.7225 52.6802 37.6738L52.2696 37.2632ZM73.6889 15.8439V15.2632C73.5349 15.2632 73.3872 15.3244 73.2783 15.4333L73.6889 15.8439ZM148.067 15.8439V16.4246C148.388 16.4246 148.648 16.1646 148.648 15.8439H148.067ZM148.648 8.61832C148.648 8.29763 148.388 8.03765 148.067 8.03765C147.746 8.03765 147.487 8.29763 147.487 8.61832H148.648ZM29.9073 105.117L16.7948 98.7814L16.2895 99.827L29.402 106.163L29.9073 105.117ZM16.6668 99.8714L28.635 97.2426L28.3859 96.1083L16.4176 98.7371L16.6668 99.8714ZM28.8107 97.1724L42.8242 88.7054L42.2237 87.7114L28.2102 96.1784L28.8107 97.1724ZM42.648 88.7757L51.9903 86.7333L51.7423 85.5987L42.3999 87.6411L42.648 88.7757ZM51.7748 86.7394L71.9184 89.9518L72.1012 88.8049L51.9577 85.5926L51.7748 86.7394ZM72.3447 88.904L67.3818 85.3999L66.7119 86.3486L71.6749 89.8527L72.3447 88.904ZM67.1661 85.3059L43.5185 80.343L43.28 81.4796L66.9276 86.4425L67.1661 85.3059ZM43.8851 80.5933L33.3757 64.5374L32.404 65.1734L42.9134 81.2293L43.8851 80.5933ZM33.4678 64.9113L35.433 44.5732L34.277 44.4615L32.3119 64.7996L33.4678 64.9113ZM35.2656 44.928C35.3523 44.8413 39.0782 40.9734 42.7716 37.1386C44.6208 35.2187 46.4648 33.3039 47.8466 31.869C48.5374 31.1516 49.1128 30.5541 49.5153 30.1361C49.7166 29.927 49.8747 29.7628 49.9825 29.6509C50.0364 29.5949 50.0777 29.552 50.1056 29.5231C50.1195 29.5087 50.13 29.4977 50.1371 29.4904C50.1407 29.4867 50.1433 29.4839 50.1451 29.4821C50.146 29.4812 50.1465 29.4803 50.1471 29.4801L50.1477 29.4795C50.1477 29.4795 50.1478 29.4793 49.7295 29.0765C49.3112 28.6737 49.3112 28.6737 49.3112 28.6737L49.3106 28.6745C49.31 28.6751 49.3094 28.6756 49.3085 28.6765C49.3068 28.6782 49.3041 28.6811 49.3006 28.6848C49.2935 28.6922 49.2829 28.7031 49.269 28.7176C49.2412 28.7465 49.1999 28.7894 49.146 28.8453C49.0382 28.9573 48.8801 29.1215 48.6788 29.3305C48.2762 29.7486 47.7009 30.346 47.01 31.0634C45.6283 32.4983 43.7843 34.4131 41.9352 36.333C40.086 38.2529 38.2319 40.1779 36.8298 41.6331C36.1287 42.3607 35.5407 42.9708 35.1229 43.404C34.914 43.6207 34.7478 43.793 34.6312 43.9137C34.5729 43.9741 34.5272 44.0214 34.4948 44.0548C34.4786 44.0716 34.466 44.0846 34.4568 44.094C34.4463 44.1049 34.4434 44.1078 34.4444 44.1068L35.2656 44.928ZM49.9247 29.6234L54.0123 28.1646L53.6219 27.0708L49.5343 28.5296L49.9247 29.6234ZM53.2543 27.475L50.6913 37.5868L51.817 37.8721L54.38 27.7603L53.2543 27.475ZM51.4964 38.2572L52.5119 37.7909L52.0273 36.7355L51.0118 37.2017L51.4964 38.2572ZM52.6802 37.6738L74.0995 16.2545L73.2783 15.4333L51.859 36.8526L52.6802 37.6738ZM73.6889 16.4246H148.067V15.2632H73.6889V16.4246ZM148.648 15.8439V8.61832H147.487V15.8439H148.648Z" fill="black"/>
<path d="M179.303 29.3629C179.604 29.471 179.937 29.3138 180.045 29.0118C180.153 28.7099 179.996 28.3775 179.694 28.2695L179.303 29.3629ZM175.413 27.3545L175.609 26.8078C175.413 26.7375 175.194 26.7779 175.036 26.9134C174.877 27.049 174.804 27.259 174.843 27.4637L175.413 27.3545ZM177.161 36.4794L176.901 36.9988C177.099 37.0976 177.336 37.0757 177.512 36.9423C177.688 36.8089 177.773 36.5872 177.731 36.3702L177.161 36.4794ZM176.732 36.2649L176.321 36.6755C176.366 36.7196 176.417 36.7563 176.472 36.7843L176.732 36.2649ZM156.722 15.4333C156.495 15.2065 156.127 15.2065 155.9 15.4333C155.674 15.6601 155.674 16.0277 155.9 16.2545L156.722 15.4333ZM179.694 28.2695L175.609 26.8078L175.218 27.9012L179.303 29.3629L179.694 28.2695ZM174.843 27.4637L176.591 36.5887L177.731 36.3702L175.984 27.2452L174.843 27.4637ZM177.421 35.96L176.992 35.7455L176.472 36.7843L176.901 36.9988L177.421 35.96ZM177.143 35.8543L156.722 15.4333L155.9 16.2545L176.321 36.6755L177.143 35.8543Z" fill="black"/>
<path d="M168.999 140.421C168.898 140.117 168.57 139.952 168.265 140.053C167.961 140.154 167.796 140.482 167.897 140.787L168.999 140.421ZM172.913 154.057L172.362 154.24C172.393 154.331 172.445 154.413 172.515 154.479L172.913 154.057ZM178.766 159.572L178.368 159.994C178.583 160.197 178.916 160.206 179.141 160.015L178.766 159.572ZM192.711 147.769L193.086 148.213C193.216 148.102 193.291 147.94 193.291 147.769H192.711ZM192.711 108.804H193.291C193.291 108.61 193.195 108.429 193.034 108.321C192.873 108.214 192.669 108.193 192.49 108.267L192.711 108.804ZM185.279 111.859L185.058 111.322C184.841 111.411 184.699 111.623 184.699 111.859H185.279ZM185.279 144.185L185.665 144.619C185.789 144.509 185.86 144.351 185.86 144.185H185.279ZM179.244 148.783C179.004 148.996 178.983 149.363 179.196 149.603C179.409 149.842 179.776 149.864 180.016 149.65L179.244 148.783ZM167.897 140.787L172.362 154.24L173.464 153.874L168.999 140.421L167.897 140.787ZM172.515 154.479L178.368 159.994L179.164 159.149L173.312 153.634L172.515 154.479ZM179.141 160.015L193.086 148.213L192.336 147.326L178.391 159.128L179.141 160.015ZM193.291 147.769V108.804H192.13V147.769H193.291ZM192.49 108.267L185.058 111.322L185.5 112.396L192.932 109.341L192.49 108.267ZM184.699 111.859V144.185H185.86V111.859H184.699ZM184.893 143.752L179.244 148.783L180.016 149.65L185.665 144.619L184.893 143.752Z" fill="black"/>
<path d="M170.844 146.657C170.593 146.856 170.552 147.222 170.751 147.473C170.951 147.724 171.316 147.766 171.567 147.566L170.844 146.657ZM178.028 141.688L178.389 142.143C178.528 142.032 178.609 141.865 178.609 141.688H178.028ZM178.028 113.295H178.609C178.609 113.126 178.535 112.965 178.407 112.855C178.279 112.745 178.11 112.696 177.943 112.72L178.028 113.295ZM168.053 114.777L167.768 115.282C167.881 115.346 168.011 115.37 168.139 115.351L168.053 114.777ZM156.669 108.355L156.954 107.849C156.743 107.73 156.481 107.754 156.295 107.91C156.11 108.066 156.041 108.32 156.121 108.548L156.669 108.355ZM163.677 128.207L163.129 128.4C163.206 128.619 163.406 128.77 163.638 128.786L163.677 128.207ZM166.192 128.958C166.512 128.979 166.789 128.737 166.811 128.417C166.832 128.097 166.59 127.82 166.27 127.799L166.192 128.958ZM171.567 147.566L178.389 142.143L177.667 141.233L170.844 146.657L171.567 147.566ZM178.609 141.688V113.295H177.447V141.688H178.609ZM177.943 112.72L167.968 114.202L168.139 115.351L178.113 113.869L177.943 112.72ZM168.339 114.271L156.954 107.849L156.383 108.861L167.768 115.282L168.339 114.271ZM156.121 108.548L163.129 128.4L164.224 128.013L157.216 108.161L156.121 108.548ZM163.638 128.786L166.192 128.958L166.27 127.799L163.716 127.627L163.638 128.786Z" fill="black"/>
<path d="M169.894 19.8673C170.121 20.0941 170.488 20.0941 170.715 19.8673C170.942 19.6405 170.942 19.2729 170.715 19.0461L169.894 19.8673ZM159.352 8.50391L159.762 8.0933C159.653 7.98441 159.506 7.92323 159.352 7.92323V8.50391ZM70.6482 8.50391V7.92323C70.4942 7.92323 70.3466 7.98439 70.2377 8.09326L70.6482 8.50391ZM57.9033 20.4248C57.6765 20.6515 57.6764 21.0192 57.9032 21.246C58.1299 21.4728 58.4976 21.4728 58.7244 21.2461L57.9033 20.4248ZM170.715 19.0461L159.762 8.0933L158.941 8.91451L169.894 19.8673L170.715 19.0461ZM159.352 7.92323H70.6482V9.08458H159.352V7.92323ZM70.2377 8.09326L57.9033 20.4248L58.7244 21.2461L71.0588 8.91455L70.2377 8.09326Z" fill="black"/>
<path d="M192.467 52.668C192.52 52.9844 192.819 53.198 193.135 53.1453C193.452 53.0925 193.665 52.7933 193.612 52.477L192.467 52.668ZM190.994 40.3096L191.567 40.2141C191.547 40.0947 191.491 39.9845 191.405 39.899L190.994 40.3096ZM179.498 28.8162L179.909 28.4055C179.848 28.3448 179.775 28.2984 179.694 28.2695L179.498 28.8162ZM175.609 26.8078C175.307 26.6997 174.975 26.8569 174.867 27.1588C174.759 27.4608 174.916 27.7932 175.218 27.9012L175.609 26.8078ZM193.612 52.477L191.567 40.2141L190.422 40.4051L192.467 52.668L193.612 52.477ZM191.405 39.899L179.909 28.4055L179.088 29.2268L190.584 40.7203L191.405 39.899ZM179.694 28.2695L175.609 26.8078L175.218 27.9012L179.303 29.3629L179.694 28.2695Z" fill="black"/>
<path d="M138.046 72.2282C138.276 72.0045 138.281 71.6369 138.057 71.4071C137.833 71.1773 137.466 71.1723 137.236 71.396L138.046 72.2282ZM132.289 77.021L131.884 76.6049C131.703 76.7808 131.657 77.0531 131.769 77.279L132.289 77.021ZM139.557 91.6782L139.805 92.2034C139.946 92.1369 140.054 92.0164 140.106 91.869C140.157 91.7217 140.147 91.5599 140.077 91.4202L139.557 91.6782ZM130.65 95.8773L130.402 95.3521C130.359 95.3725 130.318 95.3981 130.281 95.4283L130.65 95.8773ZM113.81 109.688L113.442 109.239C113.307 109.349 113.229 109.514 113.229 109.688H113.81ZM113.229 149.171C113.229 149.492 113.489 149.752 113.81 149.752C114.131 149.752 114.391 149.492 114.391 149.171H113.229ZM188.531 63.7517C188.707 63.4834 188.632 63.1235 188.363 62.9479C188.095 62.7723 187.735 62.8474 187.559 63.1158L188.531 63.7517ZM180.422 75.0816L180.541 75.6499C180.692 75.6183 180.824 75.5283 180.908 75.3996L180.422 75.0816ZM158.096 79.7671L158.098 80.3478C158.137 80.3476 158.177 80.3435 158.215 80.3354L158.096 79.7671ZM142.99 79.8186L142.988 79.2379C142.762 79.2388 142.557 79.3702 142.463 79.5751C142.368 79.78 142.401 80.0212 142.546 80.1935L142.99 79.8186ZM149.191 87.1529L149.278 87.7271C149.486 87.6959 149.661 87.5544 149.735 87.3574C149.809 87.1604 149.771 86.9387 149.635 86.7779L149.191 87.1529ZM143.255 87.4568C142.938 87.5044 142.72 87.8001 142.767 88.1172C142.815 88.4344 143.111 88.6529 143.428 88.6053L143.255 87.4568ZM119.264 67.2025C118.951 67.1351 118.642 67.3346 118.574 67.6481C118.507 67.9617 118.706 68.2705 119.02 68.3379L119.264 67.2025ZM141.07 72.4872L140.948 73.0549C140.97 73.0595 140.992 73.063 141.014 73.0652L141.07 72.4872ZM151.351 73.4826L151.295 74.0606C151.346 74.0655 151.396 74.0637 151.446 74.0554L151.351 73.4826ZM176.028 69.3692L176.124 69.942C176.283 69.9155 176.424 69.8236 176.513 69.6887L176.028 69.3692ZM186.366 53.6738L186.851 53.9932C186.939 53.8605 186.968 53.6977 186.932 53.5429L186.366 53.6738ZM184.432 42.7388C184.36 42.4264 184.048 42.2317 183.735 42.304C183.423 42.3763 183.228 42.6882 183.3 43.0006L184.432 42.7388ZM98.8205 105.161C98.6236 105.414 98.6691 105.779 98.9222 105.975C99.1754 106.172 99.5402 106.127 99.7371 105.874L98.8205 105.161ZM103.258 100.403L103.716 100.759C103.822 100.622 103.862 100.445 103.825 100.276C103.787 100.107 103.676 99.964 103.521 99.8853L103.258 100.403ZM90.7088 94.0037L90.1782 93.7679C90.0528 94.05 90.17 94.3808 90.445 94.521L90.7088 94.0037ZM98.5837 76.2859L99.1143 76.5217C99.2034 76.3214 99.172 76.0879 99.0331 75.9182C98.8943 75.7485 98.6717 75.6715 98.4577 75.7191L98.5837 76.2859ZM94.1557 77.2699L94.0297 76.703C93.8985 76.7322 93.7815 76.806 93.6986 76.9117L94.1557 77.2699ZM85.723 88.031L85.6368 88.6053C85.8435 88.6363 86.051 88.5538 86.18 88.3892L85.723 88.031ZM79.8733 87.1529L79.4158 86.7952C79.2886 86.9579 79.2574 87.1759 79.3338 87.3678C79.4103 87.5596 79.5828 87.6964 79.7871 87.7271L79.8733 87.1529ZM86.4209 78.7774L86.8784 79.135C87.019 78.9552 87.0412 78.7097 86.9351 78.5076C86.8291 78.3054 86.6144 78.1842 86.3866 78.1977L86.4209 78.7774ZM69.7157 79.7671L69.5964 80.3354C69.6469 80.346 69.6986 80.3498 69.75 80.3467L69.7157 79.7671ZM47.3896 75.0816L46.9038 75.3996C46.988 75.5283 47.1198 75.6183 47.2704 75.6499L47.3896 75.0816ZM39.7664 63.4337L40.2523 63.1158C40.1216 62.9161 39.8821 62.8167 39.6485 62.8652L39.7664 63.4337ZM32.7805 64.2897C32.4665 64.3548 32.2647 64.6622 32.3298 64.9762C32.395 65.2902 32.7023 65.492 33.0163 65.4268L32.7805 64.2897ZM160.808 198.914C160.585 199.144 160.591 199.512 160.821 199.735C161.052 199.958 161.419 199.952 161.643 199.722L160.808 198.914ZM185.983 173.757L186.4 174.161C186.512 174.045 186.571 173.887 186.563 173.726C186.554 173.565 186.479 173.415 186.355 173.311L185.983 173.757ZM167.707 158.488L167.158 158.676C167.192 158.776 167.254 158.865 167.335 158.933L167.707 158.488ZM150.304 107.674L149.733 107.567C149.715 107.666 149.722 107.767 149.755 107.862L150.304 107.674ZM152.309 96.9529L152.208 96.3811C151.97 96.4232 151.783 96.6084 151.738 96.8461L152.309 96.9529ZM175.757 92.808L175.881 92.2408C175.807 92.2246 175.73 92.223 175.656 92.2362L175.757 92.808ZM182.839 94.3584L183.139 93.8614C183.085 93.8285 183.026 93.8048 182.963 93.7912L182.839 94.3584ZM193.36 100.714L193.613 101.237C193.805 101.145 193.93 100.954 193.94 100.741C193.95 100.529 193.843 100.328 193.66 100.217L193.36 100.714ZM183.285 105.583L183.382 106.155C183.436 106.146 183.489 106.13 183.538 106.106L183.285 105.583ZM169.258 107.96L168.987 108.474C169.1 108.533 169.229 108.554 169.355 108.533L169.258 107.96ZM159.684 102.926L159.554 102.36C159.317 102.414 159.139 102.61 159.108 102.851C159.076 103.092 159.198 103.326 159.413 103.44L159.684 102.926ZM175.145 99.3814L175.275 98.8156C175.189 98.7958 175.1 98.7958 175.015 98.8154L175.145 99.3814ZM179.202 100.914C179.514 100.986 179.826 100.791 179.898 100.479C179.97 100.166 179.775 99.8546 179.463 99.7825L179.202 100.914ZM48.1076 99.7814C47.7945 99.8509 47.5971 100.161 47.6666 100.474C47.7361 100.787 48.0462 100.985 48.3593 100.915L48.1076 99.7814ZM54.0317 99.0611L54.1835 98.5006C54.0928 98.476 53.9975 98.4738 53.9058 98.4942L54.0317 99.0611ZM69.4926 103.249L69.7225 103.782C69.9493 103.684 70.0894 103.454 70.0718 103.207C70.0542 102.961 69.8827 102.753 69.6444 102.688L69.4926 103.249ZM58.5684 107.96L58.4714 108.533C58.5819 108.551 58.6954 108.538 58.7983 108.493L58.5684 107.96ZM44.5406 105.583L44.2879 106.106C44.3372 106.13 44.3896 106.146 44.4436 106.155L44.5406 105.583ZM34.466 100.714L34.1657 100.217C33.9834 100.328 33.876 100.529 33.8859 100.741C33.8959 100.954 34.0215 101.145 34.2133 101.237L34.466 100.714ZM44.9868 94.3584L44.8626 93.7912C44.8005 93.8048 44.741 93.8285 44.6866 93.8614L44.9868 94.3584ZM52.0694 92.808L52.1692 92.236C52.0949 92.2231 52.0188 92.2247 51.9452 92.2408L52.0694 92.808ZM75.8228 96.9529L76.3882 96.8202C76.335 96.5938 76.1518 96.4208 75.9226 96.3808L75.8228 96.9529ZM78.4945 108.34L79.0387 108.543C79.0786 108.436 79.086 108.319 79.0598 108.208L78.4945 108.34ZM70.2935 130.378L69.7493 130.175L69.749 130.176L70.2935 130.378ZM64.4381 146.185L63.8936 145.983C63.8924 145.986 63.8913 145.989 63.8903 145.992L64.4381 146.185ZM60.1159 158.485L60.4858 158.932C60.5672 158.865 60.6287 158.777 60.6638 158.677L60.1159 158.485ZM41.9347 173.508L41.5648 173.06C41.4405 173.163 41.3645 173.313 41.355 173.474C41.3455 173.635 41.4035 173.793 41.5149 173.909L41.9347 173.508ZM66.5978 199.312L66.178 199.714C66.2431 199.782 66.3238 199.833 66.4132 199.863L66.5978 199.312ZM113.913 215.174L113.728 215.724C113.848 215.764 113.978 215.764 114.098 215.724L113.913 215.174ZM155.027 201.392L155.573 201.195C155.466 200.898 155.142 200.741 154.842 200.841L155.027 201.392ZM157.375 207.922L157.555 208.475C157.704 208.426 157.828 208.319 157.897 208.178C157.966 208.037 157.975 207.874 157.922 207.726L157.375 207.922ZM114.351 221.91V222.491C114.412 222.491 114.472 222.481 114.53 222.462L114.351 221.91ZM113.475 221.91L113.291 222.461C113.35 222.481 113.413 222.491 113.475 222.491V221.91ZM79.776 210.611L79.9606 210.061C79.7835 210.001 79.5886 210.031 79.4369 210.14C79.2852 210.249 79.1953 210.424 79.1953 210.611H79.776ZM79.776 216.138L80.3567 216.139V216.138H79.776ZM79.7703 218.091L79.1896 218.09C79.1888 218.347 79.3578 218.575 79.6046 218.648L79.7703 218.091ZM95.0796 222.648V223.229C95.368 223.229 95.6126 223.017 95.6542 222.732C95.6958 222.447 95.5216 222.174 95.2452 222.092L95.0796 222.648ZM70.6568 222.648L70.2462 223.059C70.3551 223.168 70.5028 223.229 70.6568 223.229V222.648ZM7.93212 159.924H7.35144C7.35144 160.078 7.41262 160.225 7.52152 160.334L7.93212 159.924ZM7.93212 71.2171L7.52152 70.8065C7.41262 70.9154 7.35144 71.0631 7.35144 71.2171H7.93212ZM28.8667 51.1038C29.0935 50.877 29.0935 50.5093 28.8667 50.2825C28.6399 50.0558 28.2723 50.0558 28.0455 50.2825L28.8667 51.1038ZM137.236 71.396L131.884 76.6049L132.694 77.4372L138.046 72.2282L137.236 71.396ZM131.769 77.279L139.037 91.9361L140.077 91.4202L132.809 76.7631L131.769 77.279ZM139.31 91.1529L130.402 95.3521L130.897 96.4026L139.805 92.2034L139.31 91.1529ZM130.281 95.4283L113.442 109.239L114.178 110.137L131.018 96.3263L130.281 95.4283ZM113.229 109.688V149.171H114.391V109.688H113.229ZM187.559 63.1158L179.936 74.7636L180.908 75.3996L188.531 63.7517L187.559 63.1158ZM180.303 74.5133L157.977 79.1988L158.215 80.3354L180.541 75.6499L180.303 74.5133ZM158.094 79.1864L142.988 79.2379L142.992 80.3993L158.098 80.3478L158.094 79.1864ZM142.546 80.1935L148.748 87.5278L149.635 86.7779L143.433 79.4437L142.546 80.1935ZM149.105 86.5786L143.255 87.4568L143.428 88.6053L149.278 87.7271L149.105 86.5786ZM119.02 68.3379L140.948 73.0549L141.193 71.9195L119.264 67.2025L119.02 68.3379ZM141.014 73.0652L151.295 74.0606L151.407 72.9046L141.126 71.9092L141.014 73.0652ZM151.446 74.0554L176.124 69.942L175.933 68.7965L151.256 72.9098L151.446 74.0554ZM176.513 69.6887L186.851 53.9932L185.881 53.3544L175.543 69.0498L176.513 69.6887ZM186.932 53.5429L184.432 42.7388L183.3 43.0006L185.8 53.8047L186.932 53.5429ZM99.7371 105.874L103.716 100.759L102.799 100.046L98.8205 105.161L99.7371 105.874ZM103.521 99.8853L90.9726 93.4864L90.445 94.521L102.994 100.92L103.521 99.8853ZM91.2394 94.2396L99.1143 76.5217L98.0531 76.0501L90.1782 93.7679L91.2394 94.2396ZM98.4577 75.7191L94.0297 76.703L94.2816 77.8367L98.7096 76.8527L98.4577 75.7191ZM93.6986 76.9117L85.2659 87.6729L86.18 88.3892L94.6127 77.6281L93.6986 76.9117ZM85.8092 87.4568L79.9595 86.5786L79.7871 87.7271L85.6368 88.6053L85.8092 87.4568ZM80.3307 87.5105L86.8784 79.135L85.9634 78.4197L79.4158 86.7952L80.3307 87.5105ZM86.3866 78.1977L69.6814 79.1874L69.75 80.3467L86.4553 79.357L86.3866 78.1977ZM69.835 79.1988L47.5089 74.5133L47.2704 75.6499L69.5964 80.3354L69.835 79.1988ZM47.8755 74.7636L40.2523 63.1158L39.2806 63.7517L46.9038 75.3996L47.8755 74.7636ZM39.6485 62.8652L32.7805 64.2897L33.0163 65.4268L39.8844 64.0023L39.6485 62.8652ZM161.643 199.722L186.4 174.161L185.566 173.353L160.808 198.914L161.643 199.722ZM186.355 173.311L168.08 158.042L167.335 158.933L185.611 174.202L186.355 173.311ZM168.257 158.299L150.853 107.486L149.755 107.862L167.158 158.676L168.257 158.299ZM150.875 107.781L152.88 97.0596L151.738 96.8461L149.733 107.567L150.875 107.781ZM152.41 97.5247L175.858 93.3799L175.656 92.2362L152.208 96.3811L152.41 97.5247ZM175.633 93.3753L182.715 94.9257L182.963 93.7912L175.881 92.2408L175.633 93.3753ZM182.539 94.8554L193.06 101.211L193.66 100.217L183.139 93.8614L182.539 94.8554ZM193.107 100.192L183.033 105.06L183.538 106.106L193.613 101.237L193.107 100.192ZM183.188 105.01L169.161 107.388L169.355 108.533L183.382 106.155L183.188 105.01ZM169.528 107.446L159.954 102.412L159.413 103.44L168.987 108.474L169.528 107.446ZM159.813 103.492L175.274 99.9474L175.015 98.8154L159.554 102.36L159.813 103.492ZM175.014 99.9472L179.202 100.914L179.463 99.7825L175.275 98.8156L175.014 99.9472ZM48.3593 100.915L54.1575 99.6279L53.9058 98.4942L48.1076 99.7814L48.3593 100.915ZM53.8799 99.6215L69.3408 103.809L69.6444 102.688L54.1835 98.5006L53.8799 99.6215ZM69.2626 102.716L58.3384 107.427L58.7983 108.493L69.7225 103.782L69.2626 102.716ZM58.6654 107.388L44.6376 105.01L44.4436 106.155L58.4714 108.533L58.6654 107.388ZM44.7932 105.06L34.7186 100.192L34.2133 101.237L44.2879 106.106L44.7932 105.06ZM34.7662 101.211L45.2871 94.8554L44.6866 93.8614L34.1657 100.217L34.7662 101.211ZM45.111 94.9257L52.1935 93.3753L51.9452 92.2408L44.8626 93.7912L45.111 94.9257ZM51.9696 93.3801L75.723 97.5249L75.9226 96.3808L52.1692 92.236L51.9696 93.3801ZM75.2575 97.0855L77.9292 108.473L79.0598 108.208L76.3882 96.8202L75.2575 97.0855ZM77.9503 108.138L69.7493 130.175L70.8377 130.58L79.0387 108.543L77.9503 108.138ZM69.749 130.176L63.8936 145.983L64.9826 146.386L70.838 130.579L69.749 130.176ZM63.8903 145.992L59.5681 158.292L60.6638 158.677L64.9859 146.377L63.8903 145.992ZM59.746 158.037L41.5648 173.06L42.3046 173.956L60.4858 158.932L59.746 158.037ZM41.5149 173.909L66.178 199.714L67.0175 198.911L42.3545 173.107L41.5149 173.909ZM66.4132 199.863L113.728 215.724L114.098 214.623L66.7823 198.762L66.4132 199.863ZM114.098 215.724L155.211 201.943L154.842 200.841L113.728 214.623L114.098 215.724ZM154.48 201.588L156.829 208.119L157.922 207.726L155.573 201.195L154.48 201.588ZM157.196 207.37L114.171 221.358L114.53 222.462L157.555 208.475L157.196 207.37ZM114.351 221.33H113.475V222.491H114.351V221.33ZM113.66 221.36L79.9606 210.061L79.5914 211.162L113.291 222.461L113.66 221.36ZM79.1953 210.611V216.138H80.3567V210.611H79.1953ZM79.1953 216.136L79.1896 218.09L80.351 218.093L80.3567 216.139L79.1953 216.136ZM79.6046 218.648L94.9139 223.205L95.2452 222.092L79.9359 217.535L79.6046 218.648ZM95.0796 222.068H70.6568L70.6568 223.229H95.0796V222.068ZM71.0674 222.238L8.34272 159.513L7.52152 160.334L70.2462 223.059L71.0674 222.238ZM8.5128 159.924V71.2171H7.35144V159.924H8.5128ZM8.34272 71.6277L28.8667 51.1038L28.0455 50.2825L7.52152 70.8065L8.34272 71.6277Z" fill="black"/>
<path d="M106.572 192.686C106.876 192.788 107.205 192.624 107.307 192.32C107.409 192.016 107.245 191.687 106.941 191.585L106.572 192.686ZM77.4676 182.318L77.045 182.716C77.1106 182.786 77.1924 182.838 77.2831 182.869L77.4676 182.318ZM70.7941 175.236L70.403 174.806C70.2879 174.911 70.2198 175.058 70.2138 175.214C70.2079 175.369 70.2647 175.521 70.3715 175.634L70.7941 175.236ZM76.9384 169.638L77.3295 170.067C77.4036 169.999 77.459 169.914 77.4903 169.818L76.9384 169.638ZM87.2304 138.21L87.7823 138.39C87.8153 138.289 87.8201 138.181 87.796 138.078L87.2304 138.21ZM84.5587 126.733L85.1243 126.602C85.0653 126.348 84.8447 126.165 84.5846 126.153C84.3245 126.142 84.0885 126.305 84.0071 126.552L84.5587 126.733ZM76.7038 150.618L77.2517 150.811C77.253 150.807 77.2542 150.803 77.2555 150.8L76.7038 150.618ZM71.3261 165.922L71.7172 166.351C71.7883 166.287 71.8421 166.205 71.874 166.114L71.3261 165.922ZM61.4918 174.881L61.1008 174.452C60.9857 174.557 60.9175 174.703 60.9115 174.859C60.9056 175.014 60.9624 175.166 61.0692 175.279L61.4918 174.881ZM73.8377 187.985L73.415 188.383C73.4806 188.453 73.5624 188.505 73.6531 188.535L73.8377 187.985ZM113.899 201.415L113.714 201.965C113.834 202.006 113.964 202.006 114.083 201.965L113.899 201.415ZM153.96 187.985L154.144 188.535C154.235 188.505 154.317 188.453 154.382 188.383L153.96 187.985ZM166.306 174.881L166.728 175.279C166.835 175.166 166.892 175.014 166.886 174.859C166.88 174.703 166.812 174.557 166.697 174.452L166.306 174.881ZM156.471 165.922L155.927 166.125C155.96 166.212 156.012 166.289 156.08 166.351L156.471 165.922ZM142.638 127.22C142.526 126.919 142.192 126.767 141.891 126.879C141.591 126.991 141.438 127.325 141.55 127.626L142.638 127.22ZM138.146 133.096C138.036 132.795 137.703 132.64 137.402 132.75C137.1 132.86 136.945 133.193 137.055 133.494L138.146 133.096ZM150.859 169.641L150.313 169.84C150.346 169.928 150.399 170.007 150.468 170.07L150.859 169.641ZM157.003 175.239L157.426 175.637C157.533 175.523 157.59 175.372 157.584 175.216C157.578 175.061 157.51 174.914 157.394 174.809L157.003 175.239ZM150.33 182.321L150.514 182.872C150.605 182.841 150.687 182.789 150.752 182.719L150.33 182.321ZM113.711 193.985C113.407 194.087 113.243 194.416 113.345 194.72C113.447 195.024 113.776 195.188 114.08 195.086L113.711 193.985ZM106.941 191.585L77.6522 181.768L77.2831 182.869L106.572 192.686L106.941 191.585ZM77.8902 181.92L71.2167 174.837L70.3715 175.634L77.045 182.716L77.8902 181.92ZM71.1852 175.665L77.3295 170.067L76.5473 169.208L70.403 174.806L71.1852 175.665ZM77.4903 169.818L87.7823 138.39L86.6786 138.029L76.3866 169.457L77.4903 169.818ZM87.796 138.078L85.1243 126.602L83.9932 126.865L86.6649 138.341L87.796 138.078ZM84.0071 126.552L76.1522 150.437L77.2555 150.8L85.1104 126.915L84.0071 126.552ZM76.156 150.426L70.7783 165.729L71.874 166.114L77.2517 150.811L76.156 150.426ZM70.9351 165.493L61.1008 174.452L61.8829 175.31L71.7172 166.351L70.9351 165.493ZM61.0692 175.279L73.415 188.383L74.2603 187.587L61.9145 174.483L61.0692 175.279ZM73.6531 188.535L113.714 201.965L114.083 200.864L74.0222 187.434L73.6531 188.535ZM114.083 201.965L154.144 188.535L153.775 187.434L113.714 200.864L114.083 201.965ZM154.382 188.383L166.728 175.279L165.883 174.483L153.537 187.587L154.382 188.383ZM166.697 174.452L156.862 165.493L156.08 166.351L165.915 175.31L166.697 174.452ZM157.015 165.719L142.638 127.22L141.55 127.626L155.927 166.125L157.015 165.719ZM137.055 133.494L150.313 169.84L151.405 169.442L138.146 133.096L137.055 133.494ZM150.468 170.07L156.612 175.668L157.394 174.809L151.25 169.211L150.468 170.07ZM156.581 174.84L149.907 181.923L150.752 182.719L157.426 175.637L156.581 174.84ZM150.145 181.771L113.711 193.985L114.08 195.086L150.514 182.872L150.145 181.771Z" fill="black"/>
<path d="M89.5289 155.239C89.6352 154.936 89.4761 154.605 89.1735 154.499C88.8709 154.392 88.5395 154.551 88.4332 154.854L89.5289 155.239ZM82.5507 173.351L82.9419 173.78C83.0129 173.715 83.0667 173.634 83.0985 173.543L82.5507 173.351ZM80.0935 175.59L79.7024 175.161C79.5873 175.266 79.5191 175.413 79.5133 175.569C79.5074 175.724 79.5643 175.876 79.6712 175.989L80.0935 175.59ZM81.0947 176.652L80.6723 177.05C80.7379 177.12 80.8196 177.172 80.9102 177.202L81.0947 176.652ZM113.902 187.647L113.717 188.198C113.837 188.238 113.966 188.238 114.086 188.198L113.902 187.647ZM146.708 176.652L146.893 177.202C146.984 177.172 147.066 177.119 147.131 177.05L146.708 176.652ZM147.707 175.59L148.13 175.988C148.236 175.875 148.293 175.724 148.287 175.568C148.281 175.413 148.213 175.266 148.098 175.161L147.707 175.59ZM145.252 173.351L144.707 173.551C144.739 173.638 144.792 173.717 144.861 173.78L145.252 173.351ZM140.024 159.103L140.569 158.903C140.48 158.662 140.244 158.507 139.988 158.523C139.732 158.539 139.516 158.721 139.458 158.971L140.024 159.103ZM138.387 166.125L138.877 166.437C138.912 166.382 138.938 166.321 138.953 166.257L138.387 166.125ZM133.47 173.851L133.664 174.399C133.786 174.356 133.89 174.273 133.96 174.163L133.47 173.851ZM113.902 180.765L113.717 181.316C113.84 181.357 113.973 181.356 114.095 181.313L113.902 180.765ZM89.7105 172.656L89.1591 172.473C89.0588 172.777 89.2228 173.105 89.5259 173.206L89.7105 172.656ZM91.7436 168.352C91.8442 168.048 91.6789 167.72 91.3744 167.619C91.0698 167.518 90.7414 167.684 90.6408 167.988L91.7436 168.352ZM88.4332 154.854L82.0028 173.158L83.0985 173.543L89.5289 155.239L88.4332 154.854ZM82.1595 172.922L79.7024 175.161L80.4847 176.02L82.9419 173.78L82.1595 172.922ZM79.6712 175.989L80.6723 177.05L81.5171 176.253L80.5159 175.192L79.6712 175.989ZM80.9102 177.202L113.717 188.198L114.086 187.097L81.2792 176.101L80.9102 177.202ZM114.086 188.198L146.893 177.202L146.524 176.101L113.717 187.097L114.086 188.198ZM147.131 177.05L148.13 175.988L147.284 175.193L146.286 176.254L147.131 177.05ZM148.098 175.161L145.644 172.922L144.861 173.78L147.315 176.019L148.098 175.161ZM145.798 173.151L140.569 158.903L139.478 159.303L144.707 173.551L145.798 173.151ZM139.458 158.971L137.822 165.993L138.953 166.257L140.589 159.234L139.458 158.971ZM137.897 165.813L132.98 173.539L133.96 174.163L138.877 166.437L137.897 165.813ZM133.277 173.304L113.708 180.218L114.095 181.313L133.664 174.399L133.277 173.304ZM114.086 180.214L89.895 172.105L89.5259 173.206L113.717 181.316L114.086 180.214ZM90.2618 172.838L91.7436 168.352L90.6408 167.988L89.1591 172.473L90.2618 172.838Z" fill="black"/>
<path d="M106.754 68.5668C106.829 68.255 106.637 67.9414 106.326 67.8664C106.014 67.7915 105.7 67.9834 105.625 68.2952L106.754 68.5668ZM100.632 91.5408L100.067 91.4051C100.004 91.6663 100.129 91.9365 100.368 92.0584L100.632 91.5408ZM107.58 95.7284C107.866 95.8738 108.215 95.76 108.361 95.4742C108.506 95.1884 108.392 94.8388 108.106 94.6933L107.58 95.7284ZM105.625 68.2952L100.067 91.4051L101.196 91.6766L106.754 68.5668L105.625 68.2952ZM100.368 92.0584L107.58 95.7284L108.106 94.6933L100.895 91.0233L100.368 92.0584Z" fill="black"/>
<path d="M128.694 152.599C128.439 152.792 128.389 153.157 128.582 153.412C128.776 153.668 129.14 153.718 129.396 153.524L128.694 152.599ZM133.507 149.677L134.055 149.484C133.993 149.309 133.852 149.174 133.674 149.121C133.497 149.068 133.304 149.103 133.156 149.215L133.507 149.677ZM134.566 152.675L135.146 152.707C135.15 152.63 135.139 152.554 135.113 152.482L134.566 152.675ZM133.979 163.499L134.39 163.91C134.491 163.809 134.551 163.674 134.559 163.531L133.979 163.499ZM128.713 168.765L128.895 169.317C128.981 169.288 129.06 169.24 129.124 169.176L128.713 168.765ZM114.179 173.551L113.989 174.1C114.109 174.141 114.24 174.142 114.361 174.102L114.179 173.551ZM100.34 168.765L99.9294 169.176C99.9916 169.238 100.067 169.285 100.15 169.314L100.34 168.765ZM95.0739 163.499L94.4947 163.541C94.5046 163.68 94.5645 163.811 94.6633 163.91L95.0739 163.499ZM94.353 153.407L93.7853 153.285C93.7738 153.339 93.7699 153.394 93.7738 153.449L94.353 153.407ZM95.1912 149.511L95.488 149.012C95.3273 148.917 95.1304 148.904 94.9591 148.979C94.7877 149.054 94.6628 149.207 94.6235 149.389L95.1912 149.511ZM98.9248 152.408C99.2004 152.572 99.5567 152.481 99.7207 152.205C99.8846 151.93 99.794 151.573 99.5184 151.409L98.9248 152.408ZM129.396 153.524L133.858 150.14L133.156 149.215L128.694 152.599L129.396 153.524ZM132.96 149.871L134.018 152.868L135.113 152.482L134.055 149.484L132.96 149.871ZM133.986 152.644L133.399 163.468L134.559 163.531L135.146 152.707L133.986 152.644ZM133.569 163.089L128.303 168.355L129.124 169.176L134.39 163.91L133.569 163.089ZM128.532 168.214L113.997 172.999L114.361 174.102L128.895 169.317L128.532 168.214ZM114.369 173.002L100.53 168.217L100.15 169.314L113.989 174.1L114.369 173.002ZM100.751 168.355L95.4845 163.089L94.6633 163.91L99.9294 169.176L100.751 168.355ZM95.6531 163.458L94.9322 153.366L93.7738 153.449L94.4947 163.541L95.6531 163.458ZM94.9207 153.53L95.7588 149.634L94.6235 149.389L93.7853 153.285L94.9207 153.53ZM94.8943 150.011L98.9248 152.408L99.5184 151.409L95.488 149.012L94.8943 150.011Z" fill="black"/>
<path d="M140.618 106.027C140.896 105.868 140.993 105.513 140.834 105.235C140.675 104.956 140.32 104.86 140.041 105.019L140.618 106.027ZM136.677 107.611L136.389 107.107C136.255 107.183 136.157 107.31 136.117 107.458L136.677 107.611ZM133.545 119.093L132.984 118.94C132.913 119.2 133.031 119.475 133.267 119.603C133.504 119.732 133.798 119.681 133.977 119.48L133.545 119.093ZM145.739 105.449L145.317 105.05C145.313 105.054 145.309 105.058 145.306 105.062L145.739 105.449ZM145.919 105.077L145.346 104.984C145.345 104.988 145.345 104.991 145.344 104.995L145.919 105.077ZM147.123 97.6137L146.55 97.5201L146.55 97.5212L147.123 97.6137ZM146.093 96.8642L145.829 96.3471L145.829 96.3474L146.093 96.8642ZM132.784 103.689L132.519 103.173L132.517 103.173L132.784 103.689ZM132.426 104.116L131.871 103.945L131.871 103.945L132.426 104.116ZM125.853 125.549L125.298 125.379L125.297 125.379L125.853 125.549ZM131.542 143.421L132.095 143.244L132.094 143.241L131.542 143.421ZM131.222 144.26L130.931 143.757L130.93 143.757L131.222 144.26ZM122.809 149.14L122.518 148.637L122.516 148.638L122.809 149.14ZM121.739 148.559L121.159 148.586L121.159 148.587L121.739 148.559ZM120.132 114.651L119.551 114.67C119.551 114.673 119.552 114.675 119.552 114.678L120.132 114.651ZM120.292 114.179L119.841 113.813L119.84 113.814L120.292 114.179ZM123.167 110.64L123.617 111.006C123.714 110.888 123.76 110.735 123.744 110.583L123.167 110.64ZM122.958 102.693C122.926 102.374 122.642 102.141 122.322 102.173C122.003 102.205 121.77 102.49 121.802 102.809L122.958 102.693ZM140.041 105.019L136.389 107.107L136.965 108.115L140.618 106.027L140.041 105.019ZM136.117 107.458L132.984 118.94L134.105 119.246L137.237 107.764L136.117 107.458ZM133.977 119.48L146.172 105.835L145.306 105.062L133.112 118.706L133.977 119.48ZM146.161 105.847C146.339 105.659 146.457 105.42 146.494 105.159L145.344 104.995C145.341 105.014 145.333 105.032 145.317 105.05L146.161 105.847ZM146.492 105.169L147.696 97.7062L146.55 97.5212L145.346 104.984L146.492 105.169ZM147.696 97.7073C147.868 96.6568 146.771 95.8658 145.829 96.3471L146.358 97.3813C146.457 97.3306 146.567 97.4149 146.55 97.5201L147.696 97.7073ZM145.829 96.3474L132.519 103.173L133.049 104.206L146.358 97.3809L145.829 96.3474ZM132.517 103.173C132.209 103.332 131.975 103.607 131.871 103.945L132.981 104.286C132.992 104.252 133.015 104.224 133.05 104.205L132.517 103.173ZM131.871 103.945L125.298 125.379L126.408 125.719L132.981 104.286L131.871 103.945ZM125.297 125.379C125.221 125.63 125.22 125.904 125.304 126.161L126.408 125.801C126.4 125.778 126.399 125.748 126.408 125.719L125.297 125.379ZM125.304 126.161L130.99 143.601L132.094 143.241L126.408 125.801L125.304 126.161ZM130.989 143.599C131.01 143.663 130.983 143.727 130.931 143.757L131.513 144.762C132.044 144.455 132.28 143.821 132.095 143.244L130.989 143.599ZM130.93 143.757L122.518 148.637L123.1 149.642L131.513 144.762L130.93 143.757ZM122.516 148.638C122.433 148.687 122.324 148.628 122.319 148.531L121.159 148.587C121.206 149.553 122.264 150.13 123.102 149.641L122.516 148.638ZM122.319 148.531L120.712 114.623L119.552 114.678L121.159 148.586L122.319 148.531ZM120.712 114.631C120.711 114.603 120.72 114.573 120.743 114.544L119.84 113.814C119.647 114.053 119.541 114.355 119.551 114.67L120.712 114.631ZM120.743 114.545L123.617 111.006L122.716 110.274L119.841 113.813L120.743 114.545ZM123.744 110.583L122.958 102.693L121.802 102.809L122.589 110.698L123.744 110.583Z" fill="black"/>
<path d="M135.245 126.493C135.031 126.733 135.053 127.1 135.292 127.313C135.532 127.526 135.899 127.505 136.112 127.265L135.245 126.493ZM144.801 116.627L144.457 116.159C144.424 116.183 144.394 116.211 144.367 116.241L144.801 116.627ZM145.885 116.939L146.431 116.743C146.429 116.738 146.427 116.732 146.425 116.726L145.885 116.939ZM162.026 162.035L161.48 162.23L161.48 162.231L162.026 162.035ZM162.218 162.326L161.822 162.751C161.824 162.753 161.825 162.754 161.827 162.756L162.218 162.326ZM175.07 174.037L175.462 173.608L175.461 173.608L175.07 174.037ZM175.11 175.056L175.533 175.454L175.535 175.451L175.11 175.056ZM157.71 193.523L157.287 193.125L157.285 193.127L157.71 193.523ZM157.418 193.709L157.234 193.158L157.234 193.158L157.418 193.709ZM114.128 208.223L114.311 208.774L114.312 208.773L114.128 208.223ZM113.673 208.223L113.488 208.773C113.49 208.774 113.491 208.774 113.492 208.775L113.673 208.223ZM77.2302 196.006L77.4148 195.455C77.1283 195.359 76.8162 195.499 76.6968 195.776L77.2302 196.006ZM74.1567 201.68C74.0299 201.975 74.166 202.316 74.4606 202.443C74.7552 202.57 75.0967 202.434 75.2235 202.139L74.1567 201.68ZM136.112 127.265L145.234 117.013L144.367 116.241L135.245 126.493L136.112 127.265ZM145.144 117.095C145.215 117.043 145.313 117.072 145.345 117.152L146.425 116.726C146.113 115.937 145.141 115.656 144.457 116.159L145.144 117.095ZM145.338 117.135L161.48 162.23L162.573 161.839L146.431 116.743L145.338 117.135ZM161.48 162.231C161.551 162.429 161.668 162.607 161.822 162.751L162.614 161.902C162.597 161.885 162.582 161.864 162.573 161.838L161.48 162.231ZM161.827 162.756L174.679 174.466L175.461 173.608L162.609 161.897L161.827 162.756ZM174.679 174.466C174.733 174.516 174.738 174.603 174.685 174.66L175.535 175.451C176.026 174.924 175.996 174.096 175.462 173.608L174.679 174.466ZM174.688 174.657L157.287 193.125L158.133 193.921L175.533 175.454L174.688 174.657ZM157.285 193.127C157.274 193.139 157.258 193.15 157.234 193.158L157.602 194.26C157.801 194.193 157.985 194.079 158.134 193.919L157.285 193.127ZM157.234 193.158L113.943 207.672L114.312 208.773L157.603 194.259L157.234 193.158ZM113.944 207.672C113.918 207.68 113.886 207.682 113.853 207.671L113.492 208.775C113.757 208.861 114.045 208.862 114.311 208.774L113.944 207.672ZM113.857 207.672L77.4148 195.455L77.0456 196.556L113.488 208.773L113.857 207.672ZM76.6968 195.776L74.1567 201.68L75.2235 202.139L77.7636 196.235L76.6968 195.776Z" fill="black"/>
<path d="M91.8383 129.03C91.9549 129.328 92.2915 129.476 92.5903 129.36C92.8891 129.243 93.0368 128.906 92.9203 128.608L91.8383 129.03ZM89.5789 121.639L89.0369 121.847L89.0378 121.85L89.5789 121.639ZM89.3729 121.353L88.9541 121.755C88.9681 121.77 88.983 121.784 88.9985 121.797L89.3729 121.353ZM84.061 115.821L84.4799 115.418C84.4659 115.404 84.4513 115.39 84.4359 115.377L84.061 115.821ZM83.0284 115.941L82.5634 115.593C82.5625 115.594 82.5616 115.595 82.5608 115.596L83.0284 115.941ZM82.934 116.115L83.474 116.329C83.476 116.324 83.4778 116.319 83.4797 116.314L82.934 116.115ZM76.435 132.546L75.895 132.332C75.8934 132.336 75.8919 132.34 75.8904 132.344L76.435 132.546ZM70.5653 148.396L70.0207 148.194C70.0196 148.197 70.0185 148.2 70.0174 148.203L70.5653 148.396ZM65.7739 162.029L66.3205 162.225L66.3218 162.221L65.7739 162.029ZM65.5823 162.321L65.9734 162.75C65.9751 162.748 65.9768 162.747 65.9785 162.745L65.5823 162.321ZM52.7301 174.031L52.339 173.602L52.3387 173.603L52.7301 174.031ZM52.6901 175.05L52.2652 175.446L52.2675 175.448L52.6901 175.05ZM70.0904 193.517L70.5149 193.121L70.513 193.119L70.0904 193.517ZM70.1986 194.254C70.5028 194.355 70.8316 194.191 70.9331 193.887C71.0345 193.582 70.87 193.254 70.5658 193.152L70.1986 194.254ZM92.9203 128.608L90.1199 121.428L89.0378 121.85L91.8383 129.03L92.9203 128.608ZM90.1209 121.43C90.0406 121.222 89.9087 121.045 89.7474 120.909L88.9985 121.797C89.0202 121.815 89.0314 121.833 89.0369 121.847L90.1209 121.43ZM89.7918 120.951L84.4799 115.418L83.6422 116.223L88.9541 121.755L89.7918 120.951ZM84.4359 115.377C83.8626 114.892 83.0069 115 82.5634 115.593L83.4934 116.289C83.5418 116.224 83.6301 116.217 83.6861 116.264L84.4359 115.377ZM82.5608 115.596C82.4905 115.692 82.4316 115.798 82.3883 115.917L83.4797 116.314C83.482 116.307 83.486 116.299 83.4959 116.285L82.5608 115.596ZM82.394 115.902L75.895 132.332L76.9749 132.759L83.474 116.329L82.394 115.902ZM75.8904 132.344L70.0207 148.194L71.1098 148.597L76.9795 132.748L75.8904 132.344ZM70.0174 148.203L65.2261 161.836L66.3218 162.221L71.1131 148.588L70.0174 148.203ZM65.2274 161.833C65.2183 161.858 65.2037 161.88 65.1861 161.896L65.9785 162.745C66.1325 162.601 66.2495 162.423 66.3205 162.225L65.2274 161.833ZM65.1912 161.891L52.339 173.602L53.1212 174.461L65.9734 162.75L65.1912 161.891ZM52.3387 173.603C51.804 174.091 51.7747 174.919 52.2652 175.446L53.115 174.654C53.062 174.597 53.067 174.51 53.1216 174.46L52.3387 173.603ZM52.2675 175.448L69.6678 193.915L70.513 193.119L53.1127 174.652L52.2675 175.448ZM69.6659 193.913C69.8149 194.073 69.9989 194.187 70.1986 194.254L70.5658 193.152C70.5423 193.144 70.5262 193.133 70.5149 193.121L69.6659 193.913Z" fill="black"/>
<path d="M87.6871 103.739C87.4225 103.558 87.0611 103.626 86.88 103.891C86.6988 104.155 86.7666 104.517 87.0312 104.698L87.6871 103.739ZM92.3164 107.611L92.8715 107.441C92.8329 107.315 92.7528 107.206 92.6443 107.132L92.3164 107.611ZM96.2181 120.317L95.7905 120.71C95.9741 120.91 96.2715 120.956 96.5069 120.821C96.7423 120.686 96.8528 120.406 96.7732 120.147L96.2181 120.317ZM82.5507 105.446L82.1226 105.838L82.1231 105.839L82.5507 105.446ZM82.3705 105.077L81.7972 105.169L81.7977 105.172L82.3705 105.077ZM81.1605 97.5794L80.5871 97.6711L80.5872 97.672L81.1605 97.5794ZM82.1788 96.8242L81.9237 97.3458L81.9243 97.3461L82.1788 96.8242ZM96.2581 103.689L96.0036 104.211L96.0052 104.212L96.2581 103.689ZM99.2731 105.511L99.8429 105.4C99.8392 105.381 99.8345 105.362 99.8288 105.343L99.2731 105.511ZM103.198 125.549L102.628 125.661C102.632 125.68 102.637 125.7 102.642 125.719L103.198 125.549ZM97.5625 143.253L97.0104 143.073L97.0102 143.073L97.5625 143.253ZM97.9 144.099L98.1786 143.59L98.175 143.588L97.9 144.099ZM106.047 148.553L106.327 148.044L106.325 148.044L106.047 148.553ZM107.102 147.972L107.682 148.011C107.682 148.007 107.682 148.003 107.682 147.999L107.102 147.972ZM108.641 114.84L109.221 114.866C109.231 114.645 109.115 114.438 108.922 114.331L108.641 114.84ZM105.383 112.38C105.102 112.225 104.749 112.327 104.594 112.608C104.439 112.889 104.542 113.242 104.822 113.397L105.383 112.38ZM87.0312 104.698L91.9884 108.09L92.6443 107.132L87.6871 103.739L87.0312 104.698ZM91.7613 107.782L95.663 120.488L96.7732 120.147L92.8715 107.441L91.7613 107.782ZM96.6456 119.924L82.9782 105.053L82.1231 105.839L95.7905 120.71L96.6456 119.924ZM82.9787 105.053C82.9598 105.033 82.9475 105.007 82.9433 104.981L81.7977 105.172C81.8392 105.421 81.9528 105.653 82.1226 105.838L82.9787 105.053ZM82.9437 104.984L81.7338 97.4868L80.5872 97.672L81.7972 105.169L82.9437 104.984ZM81.7339 97.4876C81.7164 97.3784 81.8274 97.2987 81.9237 97.3458L82.4339 96.3025C81.4891 95.8405 80.4215 96.6361 80.5871 97.6711L81.7339 97.4876ZM81.9243 97.3461L96.0036 104.211L96.5126 103.167L82.4333 96.3022L81.9243 97.3461ZM96.0052 104.212C96.0042 104.212 96.0156 104.217 96.0469 104.234C96.0748 104.249 96.1121 104.269 96.1577 104.294C96.2489 104.344 96.3706 104.411 96.5127 104.491C96.797 104.649 97.16 104.855 97.5188 105.064C97.8789 105.273 98.2293 105.482 98.4908 105.649C98.6228 105.733 98.7234 105.801 98.789 105.849C98.8048 105.861 98.8169 105.87 98.8258 105.877C98.835 105.885 98.8386 105.888 98.838 105.888C98.8376 105.887 98.835 105.885 98.8309 105.881C98.827 105.877 98.8198 105.869 98.8109 105.858C98.803 105.848 98.7491 105.785 98.7173 105.68L99.8288 105.343C99.7935 105.227 99.7307 105.148 99.7089 105.122C99.6787 105.085 99.6481 105.055 99.6255 105.034C99.5796 104.992 99.5276 104.951 99.4797 104.916C99.3816 104.843 99.2543 104.758 99.1148 104.669C98.8333 104.49 98.4669 104.272 98.1025 104.06C97.3833 103.642 96.6235 103.221 96.511 103.167L96.0052 104.212ZM98.7032 105.623L102.628 125.661L103.768 125.438L99.8429 105.4L98.7032 105.623ZM102.642 125.719C102.651 125.748 102.65 125.778 102.643 125.801L103.747 126.161C103.831 125.904 103.83 125.63 103.753 125.379L102.642 125.719ZM102.643 125.801L97.0104 143.073L98.1146 143.433L103.747 126.161L102.643 125.801ZM97.0102 143.073C96.819 143.663 97.0709 144.313 97.625 144.611L98.175 143.588C98.1227 143.56 98.0943 143.495 98.1148 143.432L97.0102 143.073ZM97.6215 144.609L105.768 149.063L106.325 148.044L98.1786 143.59L97.6215 144.609ZM105.767 149.062C106.6 149.52 107.62 148.951 107.682 148.011L106.523 147.934C106.516 148.035 106.408 148.089 106.327 148.044L105.767 149.062ZM107.682 147.999L109.221 114.866L108.061 114.813L106.522 147.946L107.682 147.999ZM108.922 114.331L105.383 112.38L104.822 113.397L108.361 115.348L108.922 114.331Z" fill="black"/>
<path d="M113.545 110.204C113.83 110.351 114.18 110.238 114.327 109.953C114.473 109.668 114.361 109.318 114.075 109.171L113.545 110.204ZM107.414 106.401L107.043 105.955C106.893 106.079 106.815 106.271 106.837 106.465C106.858 106.658 106.975 106.828 107.149 106.918L107.414 106.401ZM129.394 88.1054L129.765 88.5517C129.956 88.3932 130.025 88.1314 129.937 87.8997L129.394 88.1054ZM124.477 75.1246L125.02 74.9189C124.947 74.7273 124.779 74.5881 124.577 74.5527L124.477 75.1246ZM112.285 72.9821L112.386 72.4101C112.072 72.3549 111.772 72.5635 111.714 72.8773L112.285 72.9821ZM111.324 78.2196L111.227 78.792C111.54 78.8455 111.838 78.6371 111.895 78.3244L111.324 78.2196ZM104.488 76.463C104.172 76.409 103.872 76.6215 103.818 76.9376C103.764 77.2537 103.977 77.5538 104.293 77.6077L104.488 76.463ZM114.075 109.171L107.679 105.885L107.149 106.918L113.545 110.204L114.075 109.171ZM107.786 106.847L129.765 88.5517L129.022 87.6591L107.043 105.955L107.786 106.847ZM129.937 87.8997L125.02 74.9189L123.934 75.3303L128.851 88.3111L129.937 87.8997ZM124.577 74.5527L112.386 72.4101L112.185 73.554L124.376 75.6965L124.577 74.5527ZM111.714 72.8773L110.753 78.1148L111.895 78.3244L112.857 73.0869L111.714 72.8773ZM111.422 77.6472L104.488 76.463L104.293 77.6077L111.227 78.792L111.422 77.6472Z" fill="black"/>
<path d="M114.482 187.647C114.482 187.327 114.222 187.067 113.902 187.067C113.581 187.067 113.321 187.327 113.321 187.647H114.482ZM113.321 194.53C113.321 194.85 113.581 195.11 113.902 195.11C114.222 195.11 114.482 194.85 114.482 194.53H113.321ZM113.321 187.647V194.53H114.482V187.647H113.321Z" fill="black"/>
<path d="M150.825 182.005C150.652 181.735 150.293 181.656 150.023 181.829C149.752 182.002 149.674 182.361 149.846 182.631L150.825 182.005ZM153.474 188.298C153.646 188.568 154.006 188.647 154.276 188.474C154.546 188.301 154.625 187.942 154.452 187.672L153.474 188.298ZM149.846 182.631L153.474 188.298L154.452 187.672L150.825 182.005L149.846 182.631Z" fill="black"/>
<path d="M74.3375 188.285C74.5034 188.011 74.4153 187.654 74.1408 187.488C73.8663 187.322 73.5094 187.41 73.3435 187.685L74.3375 188.285ZM69.8852 193.408C69.7193 193.683 69.8074 194.04 70.0819 194.206C70.3564 194.372 70.7133 194.284 70.8792 194.009L69.8852 193.408ZM73.3435 187.685L69.8852 193.408L70.8792 194.009L74.3375 188.285L73.3435 187.685Z" fill="black"/>
<path d="M60.4125 157.995C60.1406 157.825 59.7823 157.908 59.6122 158.18C59.4421 158.451 59.5246 158.81 59.7965 158.98L60.4125 157.995ZM65.466 162.527C65.7378 162.697 66.0961 162.614 66.2662 162.343C66.4363 162.071 66.3538 161.712 66.0819 161.542L65.466 162.527ZM59.7965 158.98L65.466 162.527L66.0819 161.542L60.4125 157.995L59.7965 158.98Z" fill="black"/>
<path d="M113.458 60.1258C113.424 59.8069 113.138 59.5758 112.819 59.6097C112.5 59.6435 112.269 59.9295 112.303 60.2484L113.458 60.1258ZM113.573 66.7119L113.695 67.2796C113.985 67.2171 114.181 66.9458 114.15 66.6506L113.573 66.7119ZM86.7327 72.4843L86.7887 73.0623C86.8109 73.0601 86.833 73.0567 86.8548 73.052L86.7327 72.4843ZM76.455 73.4798L76.3595 74.0525C76.4096 74.0609 76.4605 74.0626 76.511 74.0577L76.455 73.4798ZM51.7776 69.3664L51.2927 69.6858C51.3816 69.8208 51.5227 69.9126 51.6821 69.9392L51.7776 69.3664ZM41.4398 53.6709L40.8815 53.5115C40.835 53.6742 40.8618 53.849 40.9549 53.9903L41.4398 53.6709ZM44.8615 43.8015C44.9496 43.4931 44.771 43.1717 44.4626 43.0837C44.1542 42.9956 43.8328 43.1743 43.7448 43.4826L44.8615 43.8015ZM112.303 60.2484L112.995 66.7731L114.15 66.6506L113.458 60.1258L112.303 60.2484ZM113.451 66.1442L86.6106 71.9166L86.8548 73.052L113.695 67.2796L113.451 66.1442ZM86.6767 71.9063L76.399 72.9018L76.511 74.0577L86.7887 73.0623L86.6767 71.9063ZM76.5505 72.907L51.8731 68.7936L51.6821 69.9392L76.3595 74.0525L76.5505 72.907ZM52.2626 69.047L41.9248 53.3515L40.9549 53.9903L51.2927 69.6858L52.2626 69.047ZM41.9982 53.8303L44.8615 43.8015L43.7448 43.4826L40.8815 53.5115L41.9982 53.8303Z" fill="black"/>
<path d="M148.481 143.672C148.182 143.788 148.033 144.125 148.149 144.424C148.265 144.723 148.602 144.871 148.901 144.755L148.481 143.672ZM154.258 142.679C154.557 142.563 154.706 142.226 154.59 141.927C154.474 141.628 154.138 141.48 153.839 141.596L154.258 142.679ZM148.901 144.755L154.258 142.679L153.839 141.596L148.481 143.672L148.901 144.755Z" fill="black"/>
<path d="M109.572 154.745C109.461 155.046 109.615 155.38 109.916 155.491C110.217 155.602 110.551 155.448 110.662 155.148L109.572 154.745ZM112.002 149.846L111.911 149.273C111.704 149.306 111.53 149.448 111.458 149.645L112.002 149.846ZM113.893 149.546L113.984 148.972C113.924 148.963 113.862 148.963 113.802 148.972L113.893 149.546ZM115.778 149.846L116.323 149.644C116.25 149.448 116.077 149.306 115.869 149.273L115.778 149.846ZM120.395 162.312L120.943 162.12C120.942 162.117 120.941 162.114 120.939 162.11L120.395 162.312ZM121.376 165.11L121.561 165.66C121.708 165.611 121.829 165.504 121.898 165.365C121.966 165.225 121.975 165.064 121.924 164.917L121.376 165.11ZM113.893 167.618L113.708 168.169C113.828 168.209 113.958 168.209 114.078 168.169L113.893 167.618ZM106.407 165.11L105.866 164.898C105.808 165.046 105.814 165.211 105.881 165.355C105.948 165.499 106.072 165.61 106.223 165.66L106.407 165.11ZM108.209 160.51L108.398 159.961C108.104 159.86 107.782 160.008 107.669 160.298L108.209 160.51ZM112.703 162.057L112.514 162.606C112.812 162.709 113.138 162.555 113.248 162.259L112.703 162.057ZM114.438 159.047C114.549 158.746 114.395 158.412 114.095 158.301C113.794 158.189 113.46 158.343 113.348 158.643L114.438 159.047ZM110.662 155.148L112.547 150.047L111.458 149.645L109.572 154.745L110.662 155.148ZM112.093 150.42L113.984 150.119L113.802 148.972L111.911 149.273L112.093 150.42ZM113.802 150.119L115.687 150.42L115.869 149.273L113.984 148.972L113.802 150.119ZM115.234 150.048L119.85 162.514L120.939 162.11L116.323 149.644L115.234 150.048ZM119.847 162.504L120.828 165.302L121.924 164.917L120.943 162.12L119.847 162.504ZM121.191 164.559L113.708 167.068L114.078 168.169L121.561 165.66L121.191 164.559ZM114.078 167.068L106.592 164.559L106.223 165.66L113.708 168.169L114.078 167.068ZM106.948 165.321L108.75 160.722L107.669 160.298L105.866 164.898L106.948 165.321ZM108.02 161.059L112.514 162.606L112.892 161.508L108.398 159.961L108.02 161.059ZM113.248 162.259L114.438 159.047L113.348 158.643L112.159 161.856L113.248 162.259Z" fill="black"/>
<path d="M200.042 80.9542C200.042 80.6335 199.782 80.3735 199.461 80.3735C199.141 80.3735 198.881 80.6335 198.881 80.9542H200.042ZM199.461 88.3056L199.133 88.7841C199.31 88.9063 199.541 88.9199 199.732 88.8195C199.923 88.7191 200.042 88.5213 200.042 88.3056H199.461ZM191.618 82.9136L191.123 82.6094C190.961 82.8728 191.034 83.2169 191.289 83.3921L191.618 82.9136ZM199.45 70.1816L199.861 69.771C199.735 69.6454 199.559 69.5842 199.382 69.6049C199.206 69.6256 199.049 69.726 198.955 69.8774L199.45 70.1816ZM207.394 78.1252H207.974C207.974 77.9712 207.913 77.8235 207.804 77.7146L207.394 78.1252ZM207.394 98.1114L207.973 98.1563C207.974 98.1414 207.974 98.1264 207.974 98.1114H207.394ZM207.371 98.406L207.249 98.9738C207.413 99.0089 207.584 98.9715 207.718 98.8713C207.852 98.7711 207.937 98.6179 207.95 98.451L207.371 98.406ZM199.29 96.6783L198.99 97.1752C199.045 97.2086 199.105 97.2326 199.168 97.2461L199.29 96.6783ZM185.279 88.2112L185.58 87.7143C185.525 87.6813 185.465 87.6576 185.403 87.644L185.279 88.2112ZM175.937 86.1688L176.061 85.6016C175.99 85.5861 175.917 85.584 175.846 85.5954L175.937 86.1688ZM155.793 89.3783L155.459 88.9038C155.238 89.0595 155.154 89.3468 155.255 89.597C155.357 89.8472 155.618 89.9943 155.885 89.9517L155.793 89.3783ZM160.756 85.8771L160.637 85.3088C160.56 85.325 160.486 85.357 160.422 85.4026L160.756 85.8771ZM184.404 80.9141L184.523 81.4824C184.674 81.4508 184.806 81.3608 184.89 81.2322L184.404 80.9141ZM194.913 64.8582L195.399 65.1763C195.478 65.0566 195.509 64.9121 195.487 64.7707L194.913 64.8582ZM193.04 52.5725L193.45 52.1619C193.273 51.9844 193.002 51.9411 192.778 52.0543C192.554 52.1676 192.428 52.4119 192.466 52.66L193.04 52.5725ZM214.736 74.2692H215.317C215.317 74.1152 215.256 73.9675 215.147 73.8586L214.736 74.2692ZM214.736 156.891L215.142 157.307C215.254 157.198 215.317 157.048 215.317 156.891H214.736ZM164.083 206.326L163.548 206.552C163.623 206.729 163.78 206.857 163.968 206.895C164.156 206.933 164.351 206.876 164.489 206.742L164.083 206.326ZM161.698 199.175C161.573 198.88 161.232 198.741 160.937 198.866C160.641 198.991 160.503 199.331 160.627 199.627L161.698 199.175ZM198.881 80.9542V88.3056H200.042V80.9542H198.881ZM199.79 87.8271L191.947 82.4351L191.289 83.3921L199.133 88.7841L199.79 87.8271ZM192.113 83.2179L199.945 70.4858L198.955 69.8774L191.123 82.6094L192.113 83.2179ZM199.039 70.5922L206.983 78.5358L207.804 77.7146L199.861 69.771L199.039 70.5922ZM206.813 78.1252V98.1114H207.974L207.974 78.1252H206.813ZM206.815 98.0664L206.792 98.361L207.95 98.451L207.973 98.1563L206.815 98.0664ZM207.492 97.8381L199.411 96.1104L199.168 97.2461L207.249 98.9738L207.492 97.8381ZM199.59 96.1813L185.58 87.7143L184.979 88.7082L198.99 97.1752L199.59 96.1813ZM185.403 87.644L176.061 85.6016L175.813 86.7361L185.155 88.7785L185.403 87.644ZM175.846 85.5954L155.702 88.8049L155.885 89.9517L176.028 86.7423L175.846 85.5954ZM156.128 89.8528L161.091 86.3516L160.422 85.4026L155.459 88.9038L156.128 89.8528ZM160.876 86.4454L184.523 81.4824L184.285 80.3458L160.637 85.3088L160.876 86.4454ZM184.89 81.2322L195.399 65.1763L194.427 64.5402L183.918 80.5961L184.89 81.2322ZM195.487 64.7707L193.614 52.4849L192.466 52.66L194.339 64.9458L195.487 64.7707ZM192.629 52.9831L214.326 74.6798L215.147 73.8586L193.45 52.1619L192.629 52.9831ZM214.156 74.2692V156.891H215.317L215.317 74.2692H214.156ZM214.331 156.476L163.677 205.911L164.489 206.742L215.142 157.307L214.331 156.476ZM164.618 206.101L161.698 199.175L160.627 199.627L163.548 206.552L164.618 206.101Z" fill="black"/>
<path d="M22.0257 97.7925C22.0266 98.1132 22.2872 98.3725 22.6079 98.3717C22.9286 98.3708 23.1879 98.1101 23.1871 97.7894L22.0257 97.7925ZM23.1327 77.3742C23.1319 77.0535 22.8712 76.7942 22.5505 76.795C22.2298 76.7959 21.9705 77.0566 21.9714 77.3773L23.1327 77.3742ZM23.1871 97.7894L23.1327 77.3742L21.9714 77.3773L22.0257 97.7925L23.1871 97.7894Z" fill="black"/>
<path d="M22.1643 76.9308C21.9376 77.1576 21.9376 77.5252 22.1643 77.752C22.3911 77.9788 22.7588 77.9788 22.9855 77.752L22.1643 76.9308ZM29.1026 70.8138L29.595 70.506C29.5012 70.3559 29.3441 70.2568 29.1682 70.2368C28.9924 70.2168 28.8171 70.278 28.692 70.4032L29.1026 70.8138ZM36.4855 82.6247L36.7918 83.118C36.9229 83.0366 37.0162 82.9064 37.0511 82.7561C37.086 82.6058 37.0597 82.4478 36.9779 82.3169L36.4855 82.6247ZM29.3543 87.0527L28.7772 87.1169C28.7992 87.315 28.9213 87.4879 29.1005 87.575C29.2798 87.6621 29.4913 87.6512 29.6606 87.5461L29.3543 87.0527ZM29.4394 82.5606C29.404 82.2419 29.1169 82.0122 28.7982 82.0476C28.4794 82.083 28.2497 82.3701 28.2852 82.6888L29.4394 82.5606ZM22.9855 77.752L29.5132 71.2244L28.692 70.4032L22.1643 76.9308L22.9855 77.752ZM28.6102 71.1216L35.9931 82.9325L36.9779 82.3169L29.595 70.506L28.6102 71.1216ZM36.1791 82.1314L29.048 86.5594L29.6606 87.5461L36.7918 83.118L36.1791 82.1314ZM29.9314 86.9886L29.4394 82.5606L28.2852 82.6888L28.7772 87.1169L29.9314 86.9886Z" fill="black"/>
<path d="M112.308 8.45833C112.308 8.77903 112.568 9.03891 112.889 9.03877C113.21 9.03865 113.47 8.77858 113.47 8.45788L112.308 8.45833ZM112.886 1.16101V0.580322C112.732 0.580322 112.584 0.641534 112.475 0.750495C112.367 0.85944 112.305 1.00719 112.305 1.16124L112.886 1.16101ZM162.395 1.16101L162.806 0.750408C162.697 0.641515 162.549 0.580322 162.395 0.580322V1.16101ZM229.419 68.185H230C230 68.031 229.939 67.8833 229.83 67.7744L229.419 68.185ZM229.419 162.976L229.83 163.386C229.939 163.277 230 163.13 230 162.976H229.419ZM162.395 230V230.58C162.549 230.58 162.697 230.519 162.806 230.41L162.395 230ZM125.959 229.419C125.638 229.419 125.378 229.679 125.378 230C125.378 230.32 125.638 230.58 125.959 230.58V229.419ZM113.47 8.45788L113.467 1.16078L112.305 1.16124L112.308 8.45833L113.47 8.45788ZM112.886 1.7417H162.395V0.580322H112.886V1.7417ZM161.985 1.57161L229.009 68.5956L229.83 67.7744L162.806 0.750408L161.985 1.57161ZM228.839 68.185V162.976H230V68.185H228.839ZM229.009 162.565L161.985 229.589L162.806 230.41L229.83 163.386L229.009 162.565ZM162.395 229.419H125.959V230.58H162.395V229.419Z" fill="black"/>
<path d="M98.987 16.2873C98.987 15.9666 98.727 15.7066 98.4063 15.7066C98.0856 15.7066 97.8257 15.9666 97.8257 16.2873H98.987ZM97.8257 23.1925C97.8257 23.5132 98.0856 23.7731 98.4063 23.7731C98.727 23.7731 98.987 23.5132 98.987 23.1925H97.8257ZM97.8257 16.2873V23.1925H98.987V16.2873H97.8257Z" fill="black"/>
<path d="M124.92 37.5635C124.92 37.8842 125.18 38.1442 125.501 38.1442C125.822 38.1442 126.082 37.8842 126.082 37.5635H124.92ZM126.082 30.5296C126.082 30.2089 125.822 29.9489 125.501 29.9489C125.18 29.9489 124.92 30.2089 124.92 30.5296H126.082ZM126.082 37.5635V30.5296H124.92V37.5635H126.082Z" fill="black"/>
<path d="M85.3181 65.6147C85.0913 65.8415 85.0913 66.2092 85.3181 66.4359C85.5449 66.6627 85.9125 66.6627 86.1393 66.4359L85.3181 65.6147ZM93.2432 58.5108V57.9302C93.0892 57.9302 92.9415 57.9913 92.8326 58.1002L93.2432 58.5108ZM136.714 58.5108L137.117 58.0925C137.008 57.9884 136.864 57.9302 136.714 57.9302V58.5108ZM144.243 66.5666C144.474 66.7891 144.842 66.7821 145.064 66.5511C145.287 66.3201 145.28 65.9525 145.049 65.73L144.243 66.5666ZM86.1393 66.4359L93.6538 58.9214L92.8326 58.1002L85.3181 65.6147L86.1393 66.4359ZM93.2432 59.0915H136.714V57.9302H93.2432V59.0915ZM136.311 58.9291L144.243 66.5666L145.049 65.73L137.117 58.0925L136.311 58.9291Z" fill="black"/>
<path d="M167.215 120.804C166.894 120.82 166.648 121.093 166.664 121.413C166.68 121.734 166.953 121.98 167.273 121.964L167.215 120.804ZM172.147 121.138H172.727C172.727 120.979 172.662 120.827 172.547 120.717C172.432 120.608 172.277 120.55 172.118 120.558L172.147 121.138ZM172.147 136.825L172.557 137.236C172.666 137.127 172.727 136.979 172.727 136.825H172.147ZM168.06 140.093C167.834 140.32 167.834 140.688 168.061 140.914C168.287 141.141 168.655 141.141 168.882 140.914L168.06 140.093ZM167.273 121.964L172.176 121.718L172.118 120.558L167.215 120.804L167.273 121.964ZM171.566 121.138V136.825H172.727V121.138H171.566ZM171.736 136.415L168.06 140.093L168.882 140.914L172.557 137.236L171.736 136.415Z" fill="black"/>
<path d="M59.9685 138.217C60.1952 138.444 60.5629 138.444 60.7897 138.217C61.0164 137.99 61.0164 137.622 60.7897 137.396L59.9685 138.217ZM58.0507 135.478H57.47C57.47 135.632 57.5312 135.78 57.64 135.888L58.0507 135.478ZM58.0507 120.895V120.314C57.73 120.314 57.47 120.574 57.47 120.895H58.0507ZM61.6062 121.476C61.9269 121.476 62.1869 121.216 62.1869 120.895C62.1869 120.574 61.9269 120.314 61.6062 120.314V121.476ZM60.7897 137.396L58.4613 135.067L57.64 135.888L59.9685 138.217L60.7897 137.396ZM58.6313 135.478V120.895H57.47V135.478H58.6313ZM58.0507 121.476H61.6062V120.314H58.0507V121.476Z" fill="black"/>
<path d="M207.616 153.314C207.319 153.192 206.98 153.332 206.857 153.629C206.734 153.925 206.875 154.265 207.171 154.387L207.616 153.314ZM214.514 157.428C214.811 157.551 215.15 157.41 215.273 157.114C215.396 156.817 215.255 156.478 214.959 156.355L214.514 157.428ZM207.171 154.387L214.514 157.428L214.959 156.355L207.616 153.314L207.171 154.387Z" fill="black"/>
<path d="M214.905 130.074C214.585 130.074 214.325 130.334 214.325 130.655C214.325 130.976 214.585 131.236 214.905 131.236V130.074ZM221.479 131.236C221.799 131.236 222.059 130.976 222.059 130.655C222.059 130.334 221.799 130.074 221.479 130.074V131.236ZM214.905 131.236H221.479V130.074H214.905V131.236Z" fill="black"/>
<path d="M88.3559 52.7747C88.4786 53.071 88.8183 53.2117 89.1146 53.0889C89.4109 52.9662 89.5516 52.6265 89.4288 52.3302L88.3559 52.7747ZM86.3881 44.9902C86.2654 44.6939 85.9257 44.5533 85.6294 44.676C85.3332 44.7987 85.1925 45.1384 85.3152 45.4347L86.3881 44.9902ZM89.4288 52.3302L86.3881 44.9902L85.3152 45.4347L88.3559 52.7747L89.4288 52.3302Z" fill="black"/>
<path d="M71.0573 206.936C71.0573 206.615 70.7973 206.355 70.4766 206.355C70.1559 206.355 69.8959 206.615 69.8959 206.936H71.0573ZM70.4766 212.322L70.0607 212.727C70.2256 212.896 70.4765 212.949 70.6954 212.86C70.9142 212.771 71.0573 212.558 71.0573 212.322H70.4766ZM64.0033 205.68L64.4192 205.275C64.4174 205.273 64.4158 205.271 64.4141 205.269L64.0033 205.68ZM15.2635 156.891L15.0414 156.355C14.8622 156.429 14.7319 156.588 14.6941 156.778C14.6562 156.968 14.7157 157.165 14.8527 157.302L15.2635 156.891ZM22.8286 154.387C23.1249 154.265 23.2656 153.925 23.1429 153.629C23.0202 153.332 22.6805 153.192 22.3842 153.314L22.8286 154.387ZM69.8959 206.936V212.322H71.0573V206.936H69.8959ZM70.8924 211.917L64.4192 205.275L63.5875 206.085L70.0607 212.727L70.8924 211.917ZM64.4141 205.269L15.6743 156.481L14.8527 157.302L63.5925 206.09L64.4141 205.269ZM15.4857 157.428L22.8286 154.387L22.3842 153.314L15.0414 156.355L15.4857 157.428Z" fill="black"/>
<path d="M35.8945 168.363C36.1179 168.593 36.4855 168.599 36.7156 168.375C36.9456 168.152 36.9509 167.784 36.7275 167.554L35.8945 168.363ZM22.6064 153.851H22.0257C22.0257 154.002 22.0846 154.147 22.1899 154.255L22.6064 153.851ZM23.1871 102.313C23.1871 101.993 22.9271 101.733 22.6064 101.733C22.2857 101.733 22.0257 101.993 22.0257 102.313H23.1871ZM36.7275 167.554L23.0229 153.446L22.1899 154.255L35.8945 168.363L36.7275 167.554ZM23.1871 153.851V102.313H22.0257V153.851H23.1871Z" fill="black"/>
<path d="M175.935 57.0791C176.162 57.306 176.529 57.3062 176.756 57.0795C176.983 56.8528 176.983 56.4852 176.757 56.2583L175.935 57.0791ZM150.23 30.5296L150.641 30.1192C150.532 30.0102 150.384 29.9489 150.23 29.9489V30.5296ZM79.7703 30.5296V29.9489C79.6154 29.9489 79.467 30.0108 79.358 30.1207L79.7703 30.5296ZM56.108 53.5652C55.8822 53.793 55.8837 54.1606 56.1114 54.3864C56.3391 54.6123 56.7068 54.6107 56.9326 54.383L56.108 53.5652ZM176.757 56.2583L150.641 30.1192L149.819 30.94L175.935 57.0791L176.757 56.2583ZM150.23 29.9489H126.368V31.1103H150.23V29.9489ZM126.368 29.9489H79.7703V31.1103H126.368V29.9489ZM79.358 30.1207L56.108 53.5652L56.9326 54.383L80.1826 30.9385L79.358 30.1207Z" fill="black"/>
<path d="M48.9976 159.392C49.2331 159.609 49.6005 159.595 49.8182 159.36C50.036 159.124 50.0217 158.757 49.7863 158.539L48.9976 159.392ZM37.6836 147.343C37.4482 147.125 37.0808 147.14 36.863 147.375C36.6452 147.61 36.6595 147.978 36.8949 148.196L37.6836 147.343ZM49.7863 158.539L37.6836 147.343L36.8949 148.196L48.9976 159.392L49.7863 158.539Z" fill="black"/>
<path d="M56.3461 146.711C56.577 146.934 56.9446 146.927 57.1672 146.696C57.3898 146.465 57.383 146.098 57.1521 145.875L56.3461 146.711ZM51.9721 141.688H51.3914C51.3914 141.846 51.4556 141.997 51.5691 142.106L51.9721 141.688ZM52.5528 120.477C52.5528 120.157 52.2928 119.897 51.9721 119.897C51.6514 119.897 51.3914 120.157 51.3914 120.477H52.5528ZM57.1521 145.875L52.3752 141.27L51.5691 142.106L56.3461 146.711L57.1521 145.875ZM52.5528 141.688V120.477H51.3914V141.688H52.5528Z" fill="black"/>
<path d="M108.482 127.027C108.2 126.874 107.847 126.978 107.694 127.259C107.54 127.541 107.644 127.893 107.925 128.047L108.482 127.027ZM113.069 130.853C113.35 131.007 113.703 130.903 113.856 130.621C114.01 130.34 113.906 129.987 113.625 129.834L113.069 130.853ZM107.925 128.047L113.069 130.853L113.625 129.834L108.482 127.027L107.925 128.047Z" fill="black"/>
<path d="M180.902 74.7542C180.721 74.4894 180.36 74.4212 180.095 74.6021C179.83 74.7829 179.762 75.1442 179.943 75.409L180.902 74.7542ZM183.924 81.2415C184.105 81.5064 184.466 81.5745 184.731 81.3937C184.996 81.2129 185.064 80.8516 184.883 80.5868L183.924 81.2415ZM179.943 75.409L183.924 81.2415L184.883 80.5868L180.902 74.7542L179.943 75.409Z" fill="black"/>
<path d="M114.253 208.22C114.253 207.899 113.993 207.639 113.673 207.639C113.352 207.639 113.092 207.899 113.092 208.22H114.253ZM113.092 215.179C113.092 215.5 113.352 215.76 113.673 215.76C113.993 215.76 114.253 215.5 114.253 215.179H113.092ZM113.092 208.22V215.179H114.253V208.22H113.092Z" fill="black"/>
<path d="M114.76 173.564C114.767 173.244 114.513 172.978 114.193 172.97C113.872 172.963 113.606 173.217 113.599 173.537L114.76 173.564ZM113.435 180.563C113.428 180.883 113.682 181.149 114.003 181.157C114.323 181.164 114.589 180.91 114.597 180.59L113.435 180.563ZM113.599 173.537L113.435 180.563L114.597 180.59L114.76 173.564L113.599 173.537Z" fill="black"/>
<path d="M98.638 58.179C98.638 58.4997 98.898 58.7597 99.2187 58.7597C99.5394 58.7597 99.7994 58.4997 99.7994 58.179H98.638ZM99.7994 52.5811C99.7994 52.2604 99.5394 52.0004 99.2187 52.0004C98.898 52.0004 98.638 52.2604 98.638 52.5811H99.7994ZM99.7994 58.179V52.5811H98.638V58.179H99.7994Z" fill="black"/>
<path d="M74.8153 56.3155C75.0531 56.5307 75.4203 56.5124 75.6355 56.2746C75.8507 56.0368 75.8324 55.6696 75.5946 55.4544L74.8153 56.3155ZM70.2998 50.6631C70.062 50.4479 69.6948 50.4662 69.4796 50.704C69.2645 50.9418 69.2828 51.309 69.5206 51.5242L70.2998 50.6631ZM75.5946 55.4544L70.2998 50.6631L69.5206 51.5242L74.8153 56.3155L75.5946 55.4544Z" fill="black"/>
<path d="M109.823 88.2656C110.709 88.2656 111.427 87.5471 111.427 86.6609C111.427 85.7746 110.709 85.0561 109.823 85.0561C108.936 85.0561 108.218 85.7746 108.218 86.6609C108.218 87.5471 108.936 88.2656 109.823 88.2656Z" fill="black"/>
<path d="M116.507 84.7443C117.394 84.7443 118.112 84.0259 118.112 83.1396C118.112 82.2533 117.394 81.5349 116.507 81.5349C115.621 81.5349 114.903 82.2533 114.903 83.1396C114.903 84.0259 115.621 84.7443 116.507 84.7443Z" fill="black"/>
<path d="M113.444 90.7943C112.288 90.5454 111.321 89.8074 110.778 88.7605C110.349 88.955 109.868 89.015 109.405 88.9292C110.063 90.5425 111.456 91.7153 113.166 92.0843C113.541 92.1644 113.924 92.2045 114.308 92.2016C114.013 91.8126 113.85 91.3463 113.839 90.86C113.707 90.8457 113.576 90.8229 113.444 90.7971V90.7943Z" fill="black"/>
<path d="M116.147 92.4076C117.033 92.4076 117.752 91.6891 117.752 90.8028C117.752 89.9166 117.033 89.1981 116.147 89.1981C115.261 89.1981 114.542 89.9166 114.542 90.8028C114.542 91.6891 115.261 92.4076 116.147 92.4076Z" fill="black"/>
<path d="M118.381 90.2107C118.882 89.5814 119.231 88.8377 119.402 88.0453C119.697 86.6666 119.422 85.2192 118.644 84.0464C118.458 84.4812 118.147 84.8502 117.74 85.1048C118.172 85.92 118.307 86.864 118.112 87.7707C118.018 88.2141 117.849 88.6317 117.612 89.015C117.989 89.324 118.255 89.7416 118.381 90.2107Z" fill="black"/>
<path d="M109.697 84.3582C109.737 84.3582 109.78 84.3553 109.82 84.3553C109.983 84.3553 110.143 84.3725 110.303 84.4068C110.563 84.464 110.812 84.5612 111.035 84.7014C111.759 83.6631 112.923 83.0366 114.188 83.0137C114.193 82.8936 114.211 82.7706 114.236 82.6533C114.311 82.3101 114.459 81.9868 114.674 81.7122C112.654 81.552 110.692 82.5932 109.694 84.3582H109.697Z" fill="black"/>
</svg>
