<svg width="230" height="230" viewBox="0 0 230 230" fill="none" xmlns="http://www.w3.org/2000/svg">
<path d="M204.845 57.5002C207.72 57.5002 210.451 58.6502 212.463 60.6627C214.476 62.6752 215.626 65.4065 215.626 68.2815C215.626 71.1565 214.476 73.8877 212.463 75.9002C210.451 77.9127 207.72 79.0627 204.845 79.0627C201.97 79.0627 199.238 77.9127 197.226 75.9002C195.213 73.8877 194.063 71.1565 194.063 68.2815C194.063 65.4065 195.213 62.6752 197.226 60.6627C199.238 58.6502 201.97 57.5002 204.845 57.5002ZM204.845 50.3127C200.245 50.3127 195.645 52.0377 192.123 55.5596C185.079 62.6033 185.079 73.9596 192.123 81.0033C195.645 84.5252 200.245 86.2502 204.845 86.2502C209.445 86.2502 214.045 84.5252 217.567 81.0033C224.61 73.9596 224.61 62.6033 217.567 55.5596C214.045 52.0377 209.445 50.3127 204.845 50.3127Z" fill="url(#paint0_linear_491_6935)"/>
<path d="M179.686 14.3755V28.8943C137.424 -2.87445 77.1923 0.288046 38.7392 38.7412C17.6798 59.8005 7.18604 87.4006 7.18604 115.001H14.9485C14.9485 89.3412 24.7235 63.7537 44.2017 44.2037C80.211 8.26617 136.849 5.6068 176.092 35.938H158.124V43.1255H186.874V14.3755H179.686Z" fill="url(#paint1_linear_491_6935)"/>
<path d="M115 93.4375C126.859 93.4375 136.562 103.141 136.562 115C136.562 126.859 126.859 136.562 115 136.562C103.141 136.562 93.4375 126.859 93.4375 115C93.4375 103.141 103.141 93.4375 115 93.4375ZM115 86.25C99.1156 86.25 86.25 99.1156 86.25 115C86.25 130.884 99.1156 143.75 115 143.75C130.884 143.75 143.75 130.884 143.75 115C143.75 99.1156 130.884 86.25 115 86.25Z" fill="url(#paint2_linear_491_6935)"/>
<path d="M25.1553 172.501C22.2803 172.501 19.5491 171.351 17.5366 169.338C15.5241 167.326 14.3741 164.594 14.3741 161.719C14.3741 158.844 15.5241 156.113 17.5366 154.101C19.5491 152.088 22.2803 150.938 25.1553 150.938C28.0303 150.938 30.7616 152.088 32.7741 154.101C34.7866 156.113 35.9366 158.844 35.9366 161.719C35.9366 164.594 34.7866 167.326 32.7741 169.338C30.7616 171.351 28.0303 172.501 25.1553 172.501ZM25.1553 179.688C29.7553 179.688 34.3553 177.963 37.8772 174.441C44.9209 167.397 44.9209 156.041 37.8772 148.997C34.3553 145.476 29.7553 143.751 25.1553 143.751C20.5553 143.751 15.9553 145.476 12.4334 148.997C5.3897 156.041 5.3897 167.397 12.4334 174.441C15.9553 177.963 20.5553 179.688 25.1553 179.688Z" fill="url(#paint3_linear_491_6935)"/>
<path d="M215.052 114.999C215.052 140.659 205.277 166.246 185.798 185.796C149.789 221.806 93.1515 224.393 53.9077 194.062H71.8765V186.874H43.1265V215.624H50.314V201.106C92.5765 232.874 152.808 229.712 191.261 191.259C212.32 170.199 222.814 142.599 222.814 114.999H215.052Z" fill="url(#paint4_linear_491_6935)"/>
<path d="M124.201 57.5002L128.873 71.444L129.879 74.4627L132.754 75.7565C135.341 76.9065 137.857 78.344 140.229 80.069L142.816 81.9377L145.907 81.2909L160.282 78.344L169.482 94.3002L159.779 105.225L157.695 107.597L157.982 110.76C158.126 112.197 158.198 113.706 158.198 115.072C158.198 116.438 158.126 117.947 157.982 119.385L157.695 122.547L159.779 124.919L169.482 135.844L160.282 151.8L145.907 148.853L142.816 148.206L140.229 150.075C137.857 151.8 135.341 153.238 132.754 154.388L129.879 155.681L128.873 158.7L124.201 172.644H105.801L101.129 158.7L100.123 155.681L97.2476 154.388C94.6601 153.238 92.1445 151.8 89.7726 150.075L87.1851 148.206L84.0945 148.853L69.7195 151.8L60.5195 135.844L70.2226 124.919L72.307 122.547L72.0195 119.385C71.8758 117.947 71.8039 116.438 71.8039 115.072C71.8039 113.706 71.8758 112.197 72.0195 110.76L72.307 107.597L70.2226 105.225L60.5195 94.3002L69.7195 78.344L84.0945 81.2909L87.1851 81.9377L89.7726 80.069C92.1445 78.344 94.6601 76.9065 97.2476 75.7565L100.123 74.4627L101.129 71.444L105.801 57.5002H124.201ZM129.376 50.3127H100.626L94.3726 69.144C91.282 70.5096 88.407 72.2346 85.6758 74.1752L66.1976 70.2221L51.8226 95.0909L64.9758 109.897C64.832 111.55 64.6883 113.275 64.6883 114.928C64.6883 116.581 64.7601 118.307 64.9758 119.96L51.8226 134.766L66.1976 159.635L85.6758 155.681C88.407 157.622 91.282 159.347 94.3726 160.713L100.626 179.544H129.376L135.629 160.713C138.72 159.347 141.595 157.622 144.326 155.681L163.804 159.635L178.179 134.766L165.026 119.96C165.17 118.307 165.313 116.581 165.313 114.928C165.313 113.275 165.241 111.55 165.026 109.897L178.179 95.0909L163.804 70.2221L144.326 74.1752C141.595 72.2346 138.72 70.5096 135.629 69.144L129.376 50.3127Z" fill="url(#paint5_linear_491_6935)"/>
<defs>
<linearGradient id="paint0_linear_491_6935" x1="46.1942" y1="108.632" x2="70.6119" y2="-16.7277" gradientUnits="userSpaceOnUse">
<stop offset="0.00022" stop-color="#E95420"/>
<stop offset="1" stop-color="#BB53AA"/>
</linearGradient>
<linearGradient id="paint1_linear_491_6935" x1="46.1942" y1="108.632" x2="70.6119" y2="-16.7277" gradientUnits="userSpaceOnUse">
<stop offset="0.00022" stop-color="#E95420"/>
<stop offset="1" stop-color="#BB53AA"/>
</linearGradient>
<linearGradient id="paint2_linear_491_6935" x1="115" y1="86.25" x2="115" y2="143.75" gradientUnits="userSpaceOnUse">
<stop stop-color="#414141"/>
<stop offset="1" stop-color="#838383"/>
</linearGradient>
<linearGradient id="paint3_linear_491_6935" x1="114.982" y1="50.3127" x2="114.982" y2="222.741" gradientUnits="userSpaceOnUse">
<stop stop-color="#414141"/>
<stop offset="1" stop-color="#838383"/>
</linearGradient>
<linearGradient id="paint4_linear_491_6935" x1="114.982" y1="50.3127" x2="114.982" y2="222.741" gradientUnits="userSpaceOnUse">
<stop stop-color="#414141"/>
<stop offset="1" stop-color="#838383"/>
</linearGradient>
<linearGradient id="paint5_linear_491_6935" x1="114.982" y1="50.3127" x2="114.982" y2="222.741" gradientUnits="userSpaceOnUse">
<stop stop-color="#414141"/>
<stop offset="1" stop-color="#838383"/>
</linearGradient>
</defs>
</svg>
