<svg xmlns="http://www.w3.org/2000/svg" xmlns:xlink="http://www.w3.org/1999/xlink" width="128" height="128" version="1.0" enable-background="new"><defs><linearGradient id="d"><stop offset="0" stop-color="#26a269"/><stop offset=".143" stop-color="#75dfae"/><stop offset=".332" stop-color="#26a269"/><stop offset=".869" stop-color="#2cbb79"/><stop offset="1" stop-color="#1c774d"/></linearGradient><linearGradient id="a"><stop offset="0" stop-color="#d5d3cf"/><stop offset="1" stop-color="#f6f5f4"/></linearGradient><linearGradient id="b"><stop offset="0" stop-color="#d5d3cf"/><stop offset="1" stop-color="#949390"/></linearGradient><linearGradient id="c"><stop offset="0" stop-color="#9a9996"/><stop offset="1" stop-color="#77767b"/></linearGradient><linearGradient xlink:href="#d" id="e" x1="13.25" y1="272" x2="118" y2="272" gradientUnits="userSpaceOnUse"/><filter id="g" color-interpolation-filters="sRGB"><feBlend mode="multiply" in2="BackgroundImage"/></filter><filter id="f" color-interpolation-filters="sRGB"><feBlend mode="multiply" in2="BackgroundImage"/></filter></defs><g transform="translate(0 -172)"><ellipse cy="237.761" cx="64" style="marker:none" rx="57.933" ry="56.383" fill="url(#e)"/><ellipse style="marker:none" cx="64" cy="233.14" rx="58.125" ry="57.269" fill="#2ec27e"/><path style="line-height:normal;font-variant-ligatures:normal;font-variant-position:normal;font-variant-caps:normal;font-variant-numeric:normal;font-variant-alternates:normal;font-feature-settings:normal;text-indent:0;text-align:start;text-decoration-line:none;text-decoration-style:solid;text-decoration-color:#000;text-transform:none;text-orientation:mixed;white-space:normal;shape-padding:0;isolation:auto;mix-blend-mode:normal;solid-color:#000;solid-opacity:1;marker:none" d="M111.592 192.047a8 8 0 00-5.498 2.422L60.563 240 45.28 224.719A8 8 0 1033.97 236.03l21.515 21.517c2.28 2.387 7.51 2.648 10.095.062l51.827-51.829c5.234-5.087 1.481-13.951-5.814-13.734z" color="#000" font-weight="400" font-family="sans-serif" overflow="visible" fill="#fff" enable-background="accumulate"/><path d="M-125.625 230.375l20.938 20.938 51.187-51.188" style="marker:none" fill="none" stroke="#a347ba" stroke-width="16" stroke-linecap="round"/><path style="line-height:normal;font-variant-ligatures:normal;font-variant-position:normal;font-variant-caps:normal;font-variant-numeric:normal;font-variant-alternates:normal;font-feature-settings:normal;text-indent:0;text-align:start;text-decoration-line:none;text-decoration-style:solid;text-decoration-color:#000;text-transform:none;text-orientation:mixed;white-space:normal;shape-padding:0;isolation:auto;mix-blend-mode:normal;solid-color:#000;solid-opacity:1;marker:none" d="M105.5 193.063L60.562 238l-15.28-15.281a8 8 0 00-13.704 6.572 8 8 0 0113.703-4.572L60.563 240l45.53-45.531a8 8 0 01.382-.354 58.125 57.269 0 00-.975-1.053z" color="#000" font-weight="400" font-family="sans-serif" overflow="visible" fill="#26a269" enable-background="accumulate"/><path style="marker:none" d="M-125.625 310.375l20.938 20.938 51.187-51.188" fill="none" stroke="#a347ba" stroke-width="16" stroke-linecap="round" stroke-linejoin="round"/></g></svg>