<svg width="96" height="97" viewBox="0 0 96 97" fill="none" xmlns="http://www.w3.org/2000/svg">
<path d="M85.5004 24.5C86.7004 24.5 87.8403 24.98 88.6803 25.82C89.5203 26.66 90.0003 27.8 90.0003 29C90.0003 30.2 89.5203 31.34 88.6803 32.18C87.8403 33.02 86.7004 33.5 85.5004 33.5C84.3004 33.5 83.1604 33.02 82.3204 32.18C81.4804 31.34 81.0004 30.2 81.0004 29C81.0004 27.8 81.4804 26.66 82.3204 25.82C83.1604 24.98 84.3004 24.5 85.5004 24.5ZM85.5004 21.5C83.5804 21.5 81.6604 22.22 80.1904 23.69C77.2504 26.63 77.2504 31.37 80.1904 34.31C81.6604 35.78 83.5804 36.5 85.5004 36.5C87.4204 36.5 89.3404 35.78 90.8104 34.31C93.7503 31.37 93.7503 26.63 90.8104 23.69C89.3404 22.22 87.4204 21.5 85.5004 21.5Z" fill="#6D6E70"/>
<path d="M75 6.49999V12.56C57.36 -0.700007 32.22 0.619993 16.17 16.67C7.38 25.46 3 36.98 3 48.5H6.24C6.24 37.79 10.32 27.11 18.45 18.95C33.48 3.94999 57.12 2.83999 73.5 15.5H66V18.5H78V6.49999H75Z" fill="#6D6E70"/>
<path d="M10.5004 72.5C9.30035 72.5 8.16035 72.02 7.32035 71.18C6.48035 70.34 6.00035 69.2 6.00035 68C6.00035 66.8 6.48035 65.66 7.32035 64.82C8.16035 63.98 9.30035 63.5 10.5004 63.5C11.7004 63.5 12.8404 63.98 13.6804 64.82C14.5204 65.66 15.0004 66.8 15.0004 68C15.0004 69.2 14.5204 70.34 13.6804 71.18C12.8404 72.02 11.7004 72.5 10.5004 72.5ZM10.5004 75.5C12.4204 75.5 14.3404 74.78 15.8104 73.31C18.7504 70.37 18.7504 65.63 15.8104 62.69C14.3404 61.22 12.4204 60.5 10.5004 60.5C8.58035 60.5 6.66035 61.22 5.19035 62.69C2.25035 65.63 2.25035 70.37 5.19035 73.31C6.66035 74.78 8.58035 75.5 10.5004 75.5Z" fill="#6D6E70"/>
<path d="M89.76 48.5C89.76 59.21 85.68 69.89 77.55 78.05C62.52 93.08 38.88 94.16 22.5 81.5H30V78.5H18V90.5H21V84.44C38.64 97.7 63.78 96.38 79.83 80.33C88.62 71.54 93 60.02 93 48.5H89.76Z" fill="#6D6E70"/>
<path d="M48.2 64.0068L48 64.203L47.78 64.0068C38.28 55.5512 32 49.9599 32 44.2902C32 40.3665 35 37.4237 39 37.4237C42.08 37.4237 45.08 39.3856 46.14 42.0537H49.86C50.92 39.3856 53.92 37.4237 57 37.4237C61 37.4237 64 40.3665 64 44.2902C64 49.9599 57.72 55.5512 48.2 64.0068ZM57 33.5C53.52 33.5 50.18 35.0891 48 37.5807C45.82 35.0891 42.48 33.5 39 33.5C32.84 33.5 28 38.2281 28 44.2902C28 51.6864 34.8 57.7485 45.1 66.9104L48 69.5L50.9 66.9104C61.2 57.7485 68 51.6864 68 44.2902C68 38.2281 63.16 33.5 57 33.5Z" fill="#E75421"/>
</svg>
