<svg width="154" height="96" viewBox="0 0 154 96" fill="none" xmlns="http://www.w3.org/2000/svg">
<path d="M43.4002 0H19.1602C16.6162 0 14.6002 2.064 14.6002 4.56V81.6H19.4002V4.8H43.4002V0Z" fill="#6D6E70"/>
<path d="M134.648 0H43.4002V4.8H134.6V81.6H139.4V4.752C139.4 2.112 137.288 0 134.648 0Z" fill="#6D6E70"/>
<path d="M91.4002 86.4V91.2H62.6002V86.4H0.200195C0.200195 91.68 4.5202 96 9.8002 96H144.2C149.48 96 153.8 91.68 153.8 86.4H91.4002Z" fill="#6D6E70"/>
<path d="M78.6 14.4C71.8546 14.3997 65.3816 17.0617 60.588 21.8074C55.7943 26.5531 53.0675 32.9989 53 39.744C53 57.28 75.56 76.8 76.52 77.632C77.0996 78.1278 77.8373 78.4002 78.6 78.4002C79.3627 78.4002 80.1004 78.1278 80.68 77.632C81.8 76.8 104.2 57.28 104.2 39.744C104.133 32.9989 101.406 26.5531 96.612 21.8074C91.8184 17.0617 85.3454 14.3997 78.6 14.4ZM78.6 70.88C73.256 65.792 59.4 51.68 59.4 39.744C59.4 34.6519 61.4229 29.7683 65.0236 26.1676C68.6243 22.5669 73.5078 20.544 78.6 20.544C83.6922 20.544 88.5758 22.5669 92.1765 26.1676C95.7771 29.7683 97.8 34.6519 97.8 39.744C97.8 51.584 83.944 65.792 78.6 70.88Z" fill="#E95420"/>
<path d="M78.6 27.2C76.3849 27.2 74.2194 27.8569 72.3776 29.0876C70.5358 30.3182 69.1003 32.0674 68.2525 34.114C67.4048 36.1605 67.1831 38.4124 67.6152 40.585C68.0474 42.7576 69.1141 44.7533 70.6804 46.3196C72.2468 47.886 74.2424 48.9527 76.415 49.3848C78.5876 49.817 80.8395 49.5952 82.8861 48.7475C84.9326 47.8998 86.6818 46.4642 87.9125 44.6224C89.1431 42.7806 89.8 40.6152 89.8 38.4C89.8 35.4296 88.62 32.5808 86.5196 30.4804C84.4192 28.38 81.5704 27.2 78.6 27.2ZM78.6 43.2C77.6507 43.2 76.7226 42.9185 75.9333 42.3911C75.1439 41.8636 74.5287 41.114 74.1654 40.2369C73.8021 39.3598 73.707 38.3947 73.8922 37.4636C74.0774 36.5325 74.5346 35.6772 75.2059 35.0059C75.8772 34.3346 76.7325 33.8775 77.6636 33.6923C78.5947 33.507 79.5598 33.6021 80.4369 33.9654C81.314 34.3287 82.0636 34.9439 82.5911 35.7333C83.1185 36.5226 83.4 37.4507 83.4 38.4C83.4 39.6731 82.8943 40.894 81.9941 41.7941C81.0939 42.6943 79.873 43.2 78.6 43.2Z" fill="#E95420"/>
</svg>
