<svg width="60" height="96" viewBox="0 0 60 96" fill="none" xmlns="http://www.w3.org/2000/svg">
<g clip-path="url(#clip0_624_24042)">
<path d="M59.5 0H0.5V90.3529H59.5V0Z" fill="#E95420"/>
<path d="M13.9853 65.8447C17.3524 65.8447 20.082 63.1015 20.082 59.7176C20.082 56.3338 17.3524 53.5906 13.9853 53.5906C10.6182 53.5906 7.88867 56.3338 7.88867 59.7176C7.88867 63.1015 10.6182 65.8447 13.9853 65.8447Z" fill="white"/>
<path d="M39.4404 52.4048C42.8075 52.4048 45.5371 49.6616 45.5371 46.2777C45.5371 42.8938 42.8075 40.1506 39.4404 40.1506C36.0733 40.1506 33.3438 42.8938 33.3438 46.2777C33.3438 49.6616 36.0733 52.4048 39.4404 52.4048Z" fill="white"/>
<path d="M27.7529 75.5294C23.3419 74.5694 19.6895 71.7458 17.6105 67.7646C15.981 68.4988 14.1548 68.7246 12.3848 68.4141C14.8852 74.5976 20.1952 79.0588 26.7133 80.4705C28.1462 80.7811 29.6071 80.9223 31.04 80.9223C29.9162 79.4541 29.2981 77.647 29.2419 75.7835C28.7362 75.727 28.2305 75.6423 27.7529 75.5294Z" fill="white"/>
<path d="M38.0635 81.6847C41.4306 81.6847 44.1601 78.9415 44.1601 75.5576C44.1601 72.1737 41.4306 69.4305 38.0635 69.4305C34.6964 69.4305 31.9668 72.1737 31.9668 75.5576C31.9668 78.9415 34.6964 81.6847 38.0635 81.6847Z" fill="white"/>
<path d="M46.5477 73.2989C48.4581 70.8989 49.7786 68.0471 50.4248 65.0259C51.5486 59.7459 50.5091 54.2118 47.531 49.7224C46.8286 51.3883 45.6205 52.8001 44.1034 53.7601C45.761 56.8942 46.2667 60.4801 45.5081 63.953C45.1429 65.6471 44.4967 67.2565 43.5977 68.6965C45.0305 69.8824 46.0419 71.4636 46.5196 73.2706L46.5477 73.2989Z" fill="white"/>
<path d="M13.5078 50.9364C13.6764 50.9364 13.8169 50.9364 13.9854 50.9364C14.6035 50.9364 15.2216 50.9929 15.8397 51.1341C16.8231 51.36 17.7783 51.727 18.6211 52.2635C21.3745 48.2823 25.8135 45.9105 30.6178 45.8258C30.6178 45.3741 30.7021 44.8941 30.8145 44.4423C31.0954 43.1152 31.6573 41.9011 32.4721 40.8564C24.8021 40.2352 17.3288 44.2164 13.5359 50.9647L13.5078 50.9364Z" fill="white"/>
</g>
<defs>
<clipPath id="clip0_624_24042">
<rect width="59" height="96" fill="white" transform="translate(0.5)"/>
</clipPath>
</defs>
</svg>
