<?xml version="1.0" encoding="UTF-8"?><svg id="a" xmlns="http://www.w3.org/2000/svg" viewBox="0 0 280 280"><path d="M233.01,152.1c15.64-9.03,24.25-21.03,24.25-33.8,0-12.77-8.61-24.77-24.25-33.8-15.64-9.03-36.43-14-58.54-14-22.11,0-42.9,4.97-58.54,14-15.64,9.03-24.25,21.03-24.25,33.8,0,12.02,7.64,23.37,21.59,32.19l-31.69,18.3,5.45,3.15,31.69-18.3c15.28,8.05,34.93,12.46,55.75,12.46,22.11,0,42.9-4.97,58.54-14ZM121.23,149.05c-29.36-16.95-29.36-44.53,0-61.49,29.36-16.95,77.13-16.95,106.5,0,29.36,16.95,29.36,44.53,0,61.49-29.36,16.95-77.13,16.95-106.5,0Z" style="fill:#e95420; opacity:.35; stroke-width:0px;"/><path d="M71.72,131.91s-1.79-1.2-1.82-1.22l-2.57.48s-.22,1.58-.22,1.6l-4.18-.19s.19-1.58.2-1.6l-2.41-.71s-2.08,1.02-2.12,1.04l-2.73-1.85s2.06-1.04,2.1-1.05l-.84-1.49s-2.72-.13-2.77-.13l.32-2.42s2.73.11,2.77.12l1.22-1.39c-.08-.05-1.77-1.21-1.8-1.23l3.18-1.58s1.79,1.2,1.82,1.22l2.57-.48s.22-1.58.22-1.6l4.18.19s-.19,1.58-.2,1.6l2.41.71s2.08-1.02,2.11-1.04l2.73,1.85s-2.06,1.04-2.1,1.05l.84,1.49s2.72.13,2.77.13l-.32,2.42s-2.73-.11-2.77-.12l-1.22,1.39c.08.05,1.77,1.21,1.8,1.23l-3.18,1.58ZM65.6,128.25c2.06.1,3.85-.79,4.01-1.98.09-.66-.34-1.27-1.09-1.7-.61-.35-1.42-.58-2.35-.63-2.06-.1-3.85.79-4.01,1.98-.09.66.34,1.27,1.09,1.7.61.35,1.42.58,2.35.63h0Z" style="fill:#e95420; stroke-width:0px;"/><path d="M154.2,197.03s-1.79-1.2-1.82-1.22l-2.57.48s-.22,1.58-.22,1.6l-4.18-.19s.19-1.58.2-1.6l-2.41-.71s-2.08,1.02-2.12,1.04l-2.73-1.85s2.06-1.04,2.1-1.05l-.84-1.49s-2.72-.13-2.77-.13l.32-2.42s2.73.11,2.77.12l1.22-1.39c-.08-.05-1.77-1.21-1.8-1.23l3.18-1.58s1.79,1.2,1.82,1.22l2.57-.48s.22-1.58.22-1.6l4.18.19s-.19,1.58-.2,1.6l2.41.71s2.08-1.02,2.11-1.04l2.73,1.85s-2.06,1.04-2.1,1.05l.84,1.49s2.72.13,2.77.13l-.32,2.42s-2.73-.11-2.77-.12l-1.22,1.39c.08.05,1.77,1.21,1.8,1.23l-3.18,1.58ZM148.09,193.38c2.06.1,3.85-.79,4.01-1.98.09-.66-.34-1.27-1.09-1.7-.61-.35-1.42-.58-2.35-.63-2.06-.1-3.85.79-4.01,1.98-.09.66.34,1.27,1.09,1.7.61.35,1.42.58,2.35.63h0Z" style="fill:#666; opacity:.2; stroke-width:0px;"/><polygon points="88.48 86.85 85.81 85.32 85.23 85.65 87.9 87.19 85.23 88.73 85.81 89.06 88.48 87.52 91.14 89.06 91.72 88.73 89.05 87.19 91.72 85.65 91.14 85.32 88.48 86.85" style="fill:#e95420; fill-rule:evenodd; stroke-width:0px;"/><polygon points="146.2 175.19 143.53 173.65 142.95 173.98 145.62 175.52 142.95 177.06 143.53 177.39 146.2 175.86 148.86 177.39 149.44 177.06 146.78 175.52 149.44 173.98 148.86 173.65 146.2 175.19" style="fill:#e95420; fill-rule:evenodd; stroke-width:0px;"/><polygon points="163.21 174.7 160.55 173.16 159.97 173.5 162.63 175.03 159.97 176.57 160.55 176.91 163.21 175.37 165.88 176.91 166.45 176.57 163.79 175.03 166.46 173.5 165.88 173.16 163.21 174.7" style="fill:#e95420; fill-rule:evenodd; stroke-width:0px;"/><polygon points="258.14 147.22 255.48 145.68 254.9 146.01 257.56 147.55 254.9 149.09 255.48 149.42 258.14 147.89 260.81 149.42 261.39 149.09 258.72 147.55 261.39 146.01 260.81 145.68 258.14 147.22" style="fill:#e95420; fill-rule:evenodd; stroke-width:0px;"/><polygon points="145.62 66.07 142.95 64.53 142.38 64.86 145.04 66.4 142.38 67.94 142.95 68.27 145.62 66.73 148.28 68.27 148.86 67.94 146.2 66.4 148.86 64.86 148.28 64.53 145.62 66.07" style="fill:#e95420; fill-rule:evenodd; stroke-width:0px;"/><path d="M198.25,181.41l-10.57-6.14c-1.06-.61-2.68-.68-3.6-.15l-11.26,6.55c-.52.3-.71.73-.58,1.16.1.33.38.66.84.92l10.57,6.14c1.06.61,2.68.68,3.6.15l11.26-6.55c.36-.21.56-.48.61-.77.07-.45-.22-.94-.87-1.31Z" style="fill:#666; opacity:.2; stroke-width:0px;"/><path d="M115.03,71.26l-10.57-6.14c-1.06-.61-2.68-.68-3.6-.15l-11.26,6.55c-.52.3-.71.73-.58,1.16.1.33.38.66.84.92l10.57,6.14c1.06.61,2.68.68,3.6.15l11.26-6.55c.36-.21.56-.48.61-.77.07-.45-.22-.94-.87-1.31Z" style="fill:#666; opacity:.2; stroke-width:0px;"/><path d="M54.11,106.93c.93.93-1.22,2.48-2.19,3.04l2.83,1.64c.97-.56,3.65-1.8,5.25-1.26.54.16,1.1.29,1.67.4,1.79.27,2.16,2.24,2.15,3.04h4.01c.06-.69.29-2.13,1.39-2.76.23-.13.5-.23.81-.27.57-.11,1.12-.24,1.67-.4,1.6-.54,4.27.7,5.24,1.26l2.85-1.64c-.97-.56-3.1-2.11-2.16-3.04.27-.32.51-.64.7-.97.08-.18.25-.33.48-.47,1.11-.64,3.63-.79,4.76-.79v-2.33c-1.45.06-4.76-.22-5.22-1.26-.19-.33-.42-.65-.69-.97-.93-.93,1.22-2.48,2.19-3.04l-2.83-1.64c-.97.56-3.66,1.8-5.25,1.26-.54-.15-1.1-.29-1.67-.4-1.79-.27-2.16-2.25-2.16-3.04h-4.02c0,.65-.27,2.12-1.38,2.76-.23.13-.5.23-.81.28-.57.11-1.13.24-1.67.4-1.85.4-4.27-.7-5.24-1.26l-2.85,1.64c.96.56,3.1,2.11,2.15,3.04-.27.31-.5.64-.7.97-.08.18-.25.33-.48.47-1.11.64-3.64.79-4.77.79v2.33c1.36,0,4.77.22,5.23,1.26.19.33.41.65.69.97ZM60.88,100.63c2.79-1.61,7.29-1.61,10.06,0,2.77,1.61,2.76,4.22-.03,5.83-2.79,1.61-7.29,1.61-10.06,0-2.77-1.61-2.76-4.22.03-5.83Z" style="fill:#666; opacity:.2; stroke-width:0px;"/><ellipse cx="175.49" cy="117.79" rx="67.26" ry="38.83" style="fill:#666; opacity:.2; stroke-width:0px;"/><ellipse cx="178.62" cy="120.52" rx="18.56" ry="10.71" style="fill:#fff; stroke-width:0px;"/><path d="M225.14,101.42c2.99-1.5,6.17-3.09,6.27-3.14l.03-10.83-15.01-10.17c-.21.1-11.48,5.6-11.63,5.72l-12.16-3.59.03-9.15-22.99-1.06c-.02.15-1.26,8.67-1.22,8.82h0s0,0,0,0l-14.12,2.65c-.12-.13-9.81-6.6-9.99-6.72l-17.5,8.66-.03,10.83c.07.05,1.91,1.31,3.97,2.73l-.76.87c-.24-.05-14.97-.66-15.24-.67l-1.76,13.31-.03,10.83c.23.01,11.74.6,14.59.72-2.99,1.5-6.17,3.09-6.27,3.14l-.03,10.83,15.01,10.16c.21-.1,11.48-5.6,11.63-5.71l12.16,3.59-.03,9.15,22.99,1.06c.02-.15,1.22-8.41,1.22-8.81h0s14.12-2.66,14.12-2.66c.12.13,9.81,6.6,9.99,6.72l17.5-8.66.03-10.83c-.07-.05-1.9-1.31-3.97-2.73l.76-.87c.24.05,14.97.66,15.24.68l1.76-13.31.03-10.83c-.23-.01-11.74-.59-14.59-.72ZM184.31,133.81s0,.04,0,.06c0-.04,0-.08,0-.09v.02ZM174.81,117.75c-5.06-.23-9.56-1.51-12.9-3.44-1.59-.92-2.92-1.99-3.92-3.16,5.97-6.87,22.82-8.62,32.82-2.84,1.54.89,2.84,1.92,3.83,3.05-3.66,4.12-11.34,6.78-19.84,6.39ZM196.89,105.41c0,.09,0,.19.01.28,0-.09,0-.19-.01-.28ZM194.28,100.11c-.08-.08-.15-.16-.23-.23.08.08.16.16.23.23ZM196.85,105.05c-.01-.09-.02-.18-.03-.27.01.09.02.18.03.27ZM196.74,104.39c-.02-.08-.03-.16-.05-.23.02.08.03.16.05.23ZM196.53,103.63s-.02-.06-.03-.09c.01.03.02.06.03.09ZM196.26,102.94c-.03-.07-.07-.14-.1-.21.03.07.07.14.1.21ZM195.96,102.35c-.04-.08-.09-.16-.14-.24.05.08.1.16.14.24ZM195.62,101.77c-.05-.08-.11-.16-.17-.24.06.08.11.16.17.24ZM195.22,101.2c-.06-.08-.13-.16-.19-.24.06.08.13.16.19.24ZM194.78,100.65c-.07-.08-.14-.16-.21-.24.07.08.14.16.21.24ZM193.74,99.58c-.08-.08-.16-.15-.25-.22.08.07.17.15.25.22ZM193.15,99.07c-.09-.07-.17-.14-.26-.21.09.07.17.14.26.21ZM192.52,98.58c-.09-.07-.18-.13-.27-.2.09.06.18.13.27.2ZM191.81,98.08c-.08-.05-.16-.11-.24-.16.08.05.16.11.24.16ZM175.89,94.01s-.06,0-.08,0c.03,0,.06,0,.08,0ZM174.61,94.06c-6.96.4-13.44,2.85-16.65,6.56,3.12-3.67,9.4-6.22,16.65-6.56ZM155.91,104.95s0,0,0-.01c-.04.27-.05.55-.06.83,0-.27.02-.54.06-.82ZM157.91,100.68c-.29.34-.54.68-.77,1.04.23-.36.48-.7.77-1.04ZM156.72,102.44c-.05.1-.1.2-.15.31.05-.1.1-.2.15-.31ZM156.24,103.58c-.03.08-.06.16-.08.24.02-.08.05-.16.08-.24ZM184.26,134.21c-.21,1.73-1.16,8.26-1.18,8.39.02-.13.97-6.64,1.18-8.39ZM184.3,133.93c0,.06-.02.14-.03.23.01-.09.02-.17.03-.23Z" style="fill:#fff; stroke:#606060; stroke-linecap:round; stroke-linejoin:round; stroke-width:2px;"/><path d="M168.46,78.01l-.03,10.83h0s.03-10.84.03-10.84h0s0,.01,0,.01Z" style="fill:#fff; stroke:#606060; stroke-linecap:round; stroke-linejoin:round; stroke-width:.5px;"/><path d="M136.75,89.36l-.03,10.83c-.46-.27-9.73-6.64-9.9-6.76l.03-10.83c.17.12,9.44,6.49,9.9,6.76h0Z" style="fill:#fff; stroke:#606060; stroke-linecap:round; stroke-linejoin:round; stroke-width:.5px;"/><path d="M190.85,97.48c-13.15-7.59-34.97-1.89-35,8.37l-.03,10.83c.03-11.2,22.7-15.47,35-8.37,3.77,2.18,6.08,5.19,6.07,8.46l.03-10.83c0-3.27-2.29-6.28-6.07-8.46Z" style="fill:#e95420; stroke:#606060; stroke-linecap:round; stroke-linejoin:round; stroke-width:.5px;"/><path d="M128.26,110.4l-.03,10.83c-.25.02-14.96-.72-15.23-.74l.03-10.83c.27.01,14.98.76,15.23.74h0Z" style="fill:#fff; stroke:#606060; stroke-linecap:round; stroke-linejoin:round; stroke-width:.5px;"/><polygon points="132.88 118.59 132.85 129.41 128.23 121.22 128.26 110.4 132.88 118.59" style="fill:#fff; stroke:#606060; stroke-linecap:round; stroke-linejoin:round; stroke-width:.5px;"/><polygon points="161.21 132.72 161.18 143.54 147.93 139.63 147.96 128.8 161.21 132.72" style="fill:#fff; stroke:#606060; stroke-linecap:round; stroke-linejoin:round; stroke-width:.5px;"/><polygon points="198.43 131.14 198.4 141.96 184.28 144.61 184.31 133.78 198.43 131.14" style="fill:#fff; stroke:#606060; stroke-linecap:round; stroke-linejoin:round; stroke-width:.5px;"/><path d="M147.96,128.8l-.03,10.83c-.15.12-11.43,5.61-11.63,5.71l.03-10.83c.2-.1,11.48-5.6,11.63-5.71h0Z" style="fill:#fff; stroke:#606060; stroke-linecap:round; stroke-linejoin:round; stroke-width:.5px;"/><polygon points="136.33 134.51 136.3 145.34 121.29 135.18 121.32 124.35 136.33 134.51" style="fill:#fff; stroke:#606060; stroke-linecap:round; stroke-linejoin:round; stroke-width:.5px;"/><polygon points="183.08 142.6 183.05 153.43 160.07 152.37 160.1 141.54 183.08 142.6" style="fill:#fff; stroke:#606060; stroke-linecap:round; stroke-linejoin:round; stroke-width:.5px;"/><path d="M208.41,137.85c-.18-.12-9.87-6.58-9.98-6.71l-14.12,2.65c.04.15-1.2,8.66-1.22,8.82l-22.99-1.06c.02-.15,1.04-8.68,1.12-8.82l-13.26-3.92c-.15.12-11.43,5.61-11.63,5.71l-15.01-10.17c.2-.1,11.34-5.69,11.56-5.76l-4.62-8.19c-.25.02-14.96-.72-15.23-.74l1.76-13.31c.27.01,14.99.63,15.24.67l6.72-7.66c-.46-.27-9.73-6.64-9.9-6.76l17.5-8.66c.18.12,9.87,6.58,9.99,6.72l14.12-2.65c-.04-.15,1.2-8.66,1.22-8.82l22.99,1.06c-.02.15-1.04,8.68-1.12,8.82l13.25,3.92c.15-.12,11.42-5.62,11.63-5.72l15.01,10.17c-.2.1-11.34,5.69-11.56,5.76l4.62,8.19c.25-.02,14.96.73,15.23.74l-1.76,13.31c-.27-.01-14.99-.63-15.24-.68l-6.72,7.66c.46.27,9.73,6.64,9.9,6.76l-17.5,8.66ZM174.81,117.75c11.31.52,21.18-4.36,22.04-10.91.48-3.61-1.89-6.98-6.01-9.36-3.34-1.93-7.83-3.21-12.9-3.44-11.31-.52-21.17,4.36-22.04,10.91-.48,3.62,1.89,6.98,6.01,9.36,3.34,1.93,7.83,3.21,12.9,3.44h0Z" style="fill:#fff; stroke:#606060; stroke-linecap:round; stroke-linejoin:round; stroke-width:.5px;"/><path d="M184.31,133.8l-.03,10.83c0,.39-1.2,8.65-1.22,8.81l.03-10.83c.02-.15,1.22-8.41,1.22-8.8h0Z" style="fill:#fff; stroke:#606060; stroke-linecap:round; stroke-linejoin:round; stroke-width:.5px;"/><path d="M202.55,89.3c-15.3-8.12-39.18-7.9-54.01.66l4.44,2.56c12.38-7.15,32.29-7.37,45.13-.66l-3.39,1.96h11.27s0-6.51,0-6.51l-3.45,1.99Z" style="fill:#e95420; stroke-width:0px;"/><path d="M153.48,119.55l3.41-1.97h-11.27s0,6.51,0,6.51l3.42-1.98c15.26,8.5,39.65,8.41,54.71-.28l-4.44-2.56c-12.61,7.28-33.02,7.37-45.83.28Z" style="fill:#e95420; stroke-width:0px;"/><path d="M62.55,213.96l-41.32-24.19c-3.89-2.24-3.39-6.2,1.09-8.79l46.08-26.84c4.49-2.59,11.34-2.88,15.23-.63l41.32,24.19c3.89,2.24,3.39,6.2-1.09,8.79l-46.08,26.84c-4.49,2.59-11.34,2.88-15.23.63Z" style="fill:#666; opacity:.2; stroke-width:0px;"/><path d="M121.89,167.71h0s0,0,0,0c0-.18,0-.35-.02-.53,0-.01,0-.03,0-.04-.02-.17-.05-.33-.1-.5,0-.02-.01-.04-.02-.06-.05-.16-.1-.32-.17-.47-.01-.02-.02-.05-.03-.07-.07-.15-.15-.3-.25-.45-.02-.02-.03-.05-.05-.07-.1-.15-.21-.29-.33-.44-.02-.02-.04-.04-.06-.07-.13-.14-.26-.28-.41-.42-.02-.02-.04-.03-.06-.05-.16-.14-.32-.28-.5-.41-.01-.01-.03-.02-.05-.03-.19-.14-.39-.27-.61-.4l-34.31-19.81c-3.93-2.27-10.86-1.98-15.4.64l-46.44,27.05c-.23.13-.45.27-.66.41-.03.02-.06.04-.09.06-.2.13-.38.27-.56.41-.03.03-.06.05-.1.08-.17.14-.34.28-.49.42-.03.02-.05.05-.07.07-.16.15-.31.3-.44.45,0,0-.01.02-.02.03-.13.15-.26.3-.37.46-.01.02-.03.04-.04.05-.11.15-.21.31-.3.46-.02.03-.03.05-.05.08-.09.15-.16.31-.23.46-.01.03-.02.05-.03.08-.06.16-.12.32-.17.47,0,0,0,0,0,.01,0,.03-.01.06-.02.09-.02.07-.04.14-.05.21,0,.04-.01.08-.02.13-.01.07-.02.13-.03.2,0,.04,0,.09-.01.13,0,.06,0,.13,0,.19,0,.04,0,.09,0,.13,0,.04,0,.09,0,.13h0v7.32h0c0,1.45.87,2.83,2.65,3.85l34.31,19.81c3.93,2.27,10.86,1.98,15.4-.64l46.44-27.05c2.5-1.44,3.77-3.3,3.75-5.06h0v-7.32h0Z" style="fill:#e95420; stroke:#606060; stroke-miterlimit:10; stroke-width:2px;"/><path d="M121.9,167.71h-7.06v.94l-29.91-17.27c-3.93-2.27-10.86-1.98-15.4.64l-43.14,25.14v-.37h-7.06v7.32h0c0,1.45.87,2.83,2.65,3.85l34.31,19.81c3.93,2.27,10.86,1.98,15.4-.64l46.44-27.05c2.5-1.44,3.77-3.3,3.75-5.06h0v-7.32Z" style="fill:#fff; stroke:#606060; stroke-linecap:round; stroke-linejoin:round; stroke-width:.5px;"/><path d="M26.39,177.17v-.37h-7.06v7.32h0c0,1.45.87,2.83,2.65,3.85l34.31,19.81c1.7.98,3.96,1.48,6.34,1.53v-53.26l-36.25,21.13Z" style="fill:#fff; stroke:#606060; stroke-linecap:round; stroke-linejoin:round; stroke-width:.5px;"/><path d="M71.69,207.14l46.44-27.05c2.5-1.44,3.77-3.3,3.75-5.06h0v-7.32h-7.06v.94l-29.91-17.27c-3.93-2.27-10.86-1.98-15.4.64l-6.89,4.02v53.26c3.13.06,6.48-.68,9.06-2.16Z" style="fill:#e95420; stroke:#606060; stroke-linecap:round; stroke-linejoin:round; stroke-width:.5px;"/><path d="M56.29,200.28l-34.31-19.81c-3.93-2.27-3.43-6.27,1.11-8.89l46.44-27.05c4.54-2.62,11.47-2.91,15.4-.64l34.31,19.81c3.93,2.27,3.43,6.27-1.11,8.89l-46.44,27.05c-4.54,2.62-11.47,2.91-15.4.64Z" style="fill:#fff; stroke:#606060; stroke-linecap:round; stroke-linejoin:round; stroke-width:.5px;"/><path d="M121.89,167.71c-.07,1.7-1.34,3.48-3.75,4.87l-46.44,27.05c-4.54,2.62-11.47,2.91-15.4.64l-34.31-19.81c-2.19-1.27-3.01-3.07-2.51-4.88" style="fill:#fff; stroke:#606060; stroke-linecap:round; stroke-linejoin:round; stroke-width:.5px;"/><path d="M19.47,175.58c.39-1.43,1.61-2.85,3.62-4.01l46.44-27.05c4.54-2.62,11.47-2.91,15.4-.64l34.31,19.81c1.84,1.06,2.71,2.51,2.65,4.02" style="fill:#fff; stroke:#606060; stroke-linecap:round; stroke-linejoin:round; stroke-width:.5px;"/><path d="M31.28,174.56c-.8.46-.69,1.27.22,1.8h0c.92.53,2.32.59,3.12.13l38.33-22.09-3.17-2.03-38.5,22.19Z" style="fill:#666; opacity:.2; stroke-width:0px;"/><polygon points="53.44 147.75 53.73 147.23 53.44 147.22 53.44 147.75" style="fill:#666; stroke-width:0px;"/><path d="M80.39,148.18c-.92-.53-2.32-.59-3.12-.13l-7.5,4.32,3.17,2.03,7.67-4.42c.8-.46.69-1.27-.22-1.8Z" style="fill:#666; stroke-width:0px;"/><ellipse cx="72.32" cy="155.07" rx="6.58" ry="3.8" style="fill:#666; opacity:.2; stroke-width:0px;"/><path d="M64.26,147.22v6.78c-.07.79.41,1.58,1.45,2.18.97.56,2.25.84,3.52.84v-9.81h-4.97Z" style="fill:#fff; stroke:#606060; stroke-linecap:round; stroke-linejoin:round; stroke-width:2px;"/><path d="M72.75,156.18c.95-.55,1.43-1.26,1.46-1.98,0-.04,0-.08,0-.12v-6.87h-4.98v9.81c1.27,0,2.55-.28,3.52-.84Z" style="fill:#fff; stroke:#606060; stroke-linecap:round; stroke-linejoin:round; stroke-width:2px;"/><ellipse cx="69.23" cy="147.37" rx="4.98" ry="2.88" style="fill:#fff; stroke:#606060; stroke-linecap:round; stroke-linejoin:round; stroke-width:2px;"/><path d="M64.26,147.22v6.78c-.07.79.41,1.58,1.45,2.18.97.56,2.25.84,3.52.84v-9.81h-4.97Z" style="fill:#fff; stroke:#606060; stroke-linecap:round; stroke-linejoin:round; stroke-width:.5px;"/><path d="M72.75,156.18c.95-.55,1.43-1.26,1.46-1.98,0-.04,0-.08,0-.12v-6.87h-4.98v9.81c1.27,0,2.55-.28,3.52-.84Z" style="fill:#e95420; stroke:#606060; stroke-linecap:round; stroke-linejoin:round; stroke-width:.5px;"/><ellipse cx="69.23" cy="147.37" rx="4.98" ry="2.88" style="fill:#fff; stroke:#606060; stroke-linecap:round; stroke-linejoin:round; stroke-width:.5px;"/><path d="M90.44,154.11c-.92-.53-2.32-.59-3.12-.13l-38.77,22.35,2.98,2.13,39.13-22.55c.8-.46.69-1.27-.22-1.8Z" style="fill:#666; stroke-width:0px;"/><path d="M41.33,180.49c-.8.46-.69,1.27.22,1.8.92.53,2.32.59,3.12.13l6.86-3.96-2.98-2.13-7.22,4.16Z" style="fill:#666; opacity:.2; stroke-width:0px;"/><ellipse cx="52.69" cy="178.47" rx="6.58" ry="3.8" style="fill:#666; opacity:.2; stroke-width:0px;"/><path d="M44.63,170.62v6.78c-.07.79.41,1.58,1.45,2.18.97.56,2.25.84,3.52.84v-9.81h-4.97Z" style="fill:#fff; stroke:#606060; stroke-linecap:round; stroke-linejoin:round; stroke-width:2px;"/><path d="M53.12,179.58c.95-.55,1.43-1.26,1.46-1.98,0-.04,0-.08,0-.12v-6.87h-4.98v9.81c1.27,0,2.55-.28,3.52-.84Z" style="fill:#fff; stroke:#606060; stroke-linecap:round; stroke-linejoin:round; stroke-width:2px;"/><ellipse cx="49.6" cy="170.77" rx="4.98" ry="2.88" style="fill:#fff; stroke:#606060; stroke-linecap:round; stroke-linejoin:round; stroke-width:2px;"/><path d="M44.63,170.62v6.78c-.07.79.41,1.58,1.45,2.18.97.56,2.25.84,3.52.84v-9.81h-4.97Z" style="fill:#fff; stroke:#606060; stroke-linecap:round; stroke-linejoin:round; stroke-width:.5px;"/><path d="M53.12,179.58c.95-.55,1.43-1.26,1.46-1.98,0-.04,0-.08,0-.12v-6.87h-4.98v9.81c1.27,0,2.55-.28,3.52-.84Z" style="fill:#e95420; stroke:#606060; stroke-linecap:round; stroke-linejoin:round; stroke-width:.5px;"/><ellipse cx="49.6" cy="170.77" rx="4.98" ry="2.88" style="fill:#fff; stroke:#606060; stroke-linecap:round; stroke-linejoin:round; stroke-width:.5px;"/><path d="M51.39,186.41c-.8.46-.69,1.27.22,1.8.92.53,2.32.59,3.12.13l19.69-11.35-3.3-1.95-19.74,11.38Z" style="fill:#666; opacity:.2; stroke-width:0px;"/><path d="M100.5,160.03c-.92-.53-2.32-.59-3.12-.13l-26.26,15.13,3.3,1.95,26.3-15.16c.8-.46.69-1.27-.22-1.8Z" style="fill:#666; stroke-width:0px;"/><ellipse cx="76.61" cy="176.52" rx="6.58" ry="3.8" style="fill:#666; opacity:.2; stroke-width:0px;"/><path d="M68.55,168.67v6.78c-.07.79.41,1.58,1.45,2.18.97.56,2.25.84,3.52.84v-9.81h-4.97Z" style="fill:#fff; stroke:#606060; stroke-linecap:round; stroke-linejoin:round; stroke-width:2px;"/><path d="M77.04,177.63c.95-.55,1.43-1.26,1.46-1.98,0-.04,0-.08,0-.12v-6.87h-4.98v9.81c1.27,0,2.55-.28,3.52-.84Z" style="fill:#fff; stroke:#606060; stroke-linecap:round; stroke-linejoin:round; stroke-width:2px;"/><ellipse cx="73.52" cy="168.82" rx="4.98" ry="2.88" style="fill:#fff; stroke:#606060; stroke-linecap:round; stroke-linejoin:round; stroke-width:2px;"/><path d="M68.55,168.67v6.78c-.07.79.41,1.58,1.45,2.18.97.56,2.25.84,3.52.84v-9.81h-4.97Z" style="fill:#fff; stroke:#606060; stroke-linecap:round; stroke-linejoin:round; stroke-width:.5px;"/><path d="M77.04,177.63c.95-.55,1.43-1.26,1.46-1.98,0-.04,0-.08,0-.12v-6.87h-4.98v9.81c1.27,0,2.55-.28,3.52-.84Z" style="fill:#e95420; stroke:#606060; stroke-linecap:round; stroke-linejoin:round; stroke-width:.5px;"/><ellipse cx="73.52" cy="168.82" rx="4.98" ry="2.88" style="fill:#fff; stroke:#606060; stroke-linecap:round; stroke-linejoin:round; stroke-width:.5px;"/><path d="M61.45,192.33c-.8.46-.69,1.27.22,1.8.92.53,2.32.59,3.12.13l36.4-20.98-3.25-1.98-36.5,21.04Z" style="fill:#666; opacity:.2; stroke-width:0px;"/><path d="M110.55,165.95h0c-.92-.53-2.32-.59-3.12-.13l-9.49,5.47,3.25,1.98,9.59-5.53c.8-.46.69-1.27-.22-1.8Z" style="fill:#666; stroke-width:0px;"/><ellipse cx="103.01" cy="173.13" rx="6.58" ry="3.8" style="fill:#666; opacity:.2; stroke-width:0px;"/><path d="M94.95,165.28v6.78c-.07.79.41,1.58,1.45,2.18.97.56,2.25.84,3.52.84v-9.81h-4.97Z" style="fill:#fff; stroke:#606060; stroke-linecap:round; stroke-linejoin:round; stroke-width:2px;"/><path d="M103.44,174.24c.95-.55,1.43-1.26,1.46-1.98,0-.04,0-.08,0-.12v-6.87h-4.98v9.81c1.27,0,2.55-.28,3.52-.84Z" style="fill:#fff; stroke:#606060; stroke-linecap:round; stroke-linejoin:round; stroke-width:2px;"/><ellipse cx="99.92" cy="165.43" rx="4.98" ry="2.88" style="fill:#fff; stroke:#606060; stroke-linecap:round; stroke-linejoin:round; stroke-width:2px;"/><path d="M94.95,165.28v6.78c-.07.79.41,1.58,1.45,2.18.97.56,2.25.84,3.52.84v-9.81h-4.97Z" style="fill:#fff; stroke:#606060; stroke-linecap:round; stroke-linejoin:round; stroke-width:.5px;"/><path d="M103.44,174.24c.95-.55,1.43-1.26,1.46-1.98,0-.04,0-.08,0-.12v-6.87h-4.98v9.81c1.27,0,2.55-.28,3.52-.84Z" style="fill:#e95420; stroke:#606060; stroke-linecap:round; stroke-linejoin:round; stroke-width:.5px;"/><ellipse cx="99.92" cy="165.43" rx="4.98" ry="2.88" style="fill:#fff; stroke:#606060; stroke-linecap:round; stroke-linejoin:round; stroke-width:.5px;"/></svg>