<?xml version="1.0" encoding="UTF-8" standalone="no"?>
<svg
   fill="none"
   viewBox="0 0.13 650.99999 480.12499"
   version="1.1"
   id="svg277"
   sodipodi:docname="mascot_no_background.svg"
   width="651"
   height="480.125"
   inkscape:version="1.2.2 (b0a8486541, 2022-12-01)"
   xmlns:inkscape="http://www.inkscape.org/namespaces/inkscape"
   xmlns:sodipodi="http://sodipodi.sourceforge.net/DTD/sodipodi-0.dtd"
   xmlns="http://www.w3.org/2000/svg"
   xmlns:svg="http://www.w3.org/2000/svg">
  <defs
     id="defs281" />
  <sodipodi:namedview
     id="namedview279"
     pagecolor="#ffffff"
     bordercolor="#000000"
     borderopacity="0.25"
     inkscape:showpageshadow="2"
     inkscape:pageopacity="0.0"
     inkscape:pagecheckerboard="0"
     inkscape:deskcolor="#d1d1d1"
     showgrid="false"
     inkscape:zoom="1.1410857"
     inkscape:cx="449.57183"
     inkscape:cy="450.44819"
     inkscape:window-width="5120"
     inkscape:window-height="1371"
     inkscape:window-x="26"
     inkscape:window-y="23"
     inkscape:window-maximized="0"
     inkscape:current-layer="svg277" />
  <circle
     cx="450"
     cy="450.25531"
     r="450"
     fill="url(#paint0_linear_3356_10970)"
     id="circle193" />
  <g
     style="mix-blend-mode:multiply"
     id="g197"
     transform="translate(-0.0039978,0.10530317)">
    <circle
       cx="450.004"
       cy="450.14999"
       r="450"
       fill="url(#paint1_radial_3356_10970)"
       fill-opacity="0.5"
       id="circle195" />
  </g>
  <path
     d="m 180.50286,130.99023 11.863,-1.022 c 0,0 -9.261,-9.463 -18.267,-4.554 0,0 4.674,3.485 6.404,5.576 z"
     fill="#e95420"
     id="path199" />
  <path
     d="m 227.18886,113.89223 c 0.57,0.372 1.34,0.209 1.713,-0.363 4.212,-6.484 12.916,-8.331 19.401,-4.119 6.485,4.213 8.332,12.916 4.119,19.401 -2.041,3.142 -5.183,5.3 -8.848,6.078 -1.48,0.314 -2.973,0.376 -4.435,0.218 l -2.14,2.143 c 0.424,0.096 0.847,0.194 1.277,0.257 1.908,0.277 3.871,0.217 5.813,-0.196 4.311,-0.915 8.008,-3.455 10.41,-7.15 4.957,-7.63 2.783,-17.87 -4.846,-22.828 -7.632,-4.96 -17.872,-2.783 -22.828,4.846 -0.373,0.574 -0.21,1.341 0.364,1.713 z"
     fill="#e95420"
     id="path201" />
  <path
     d="m 407.54186,137.31123 c 1.942,0.413 3.905,0.473 5.813,0.196 0.43,-0.063 0.853,-0.161 1.277,-0.257 l -2.14,-2.143 c -1.462,0.158 -2.955,0.096 -4.435,-0.218 -3.665,-0.778 -6.807,-2.936 -8.848,-6.078 -4.213,-6.485 -2.366,-15.188 4.119,-19.401 6.485,-4.212 15.189,-2.365 19.401,4.119 0.373,0.572 1.143,0.735 1.713,0.363 0.574,-0.372 0.736,-1.139 0.364,-1.713 -4.957,-7.629 -15.196,-9.806 -22.828,-4.846 -7.629,4.958 -9.803,15.198 -4.846,22.828 2.402,3.695 6.099,6.235 10.41,7.15 z"
     fill="#e95420"
     id="path203" />
  <path
     d="m 573.51386,317.20123 c 5.506,-4.719 10.194,-10.521 13.231,-17.642 0.661,-2.481 1.171,-4.897 1.57,-7.264 l -22.953,6.855 c -0.081,0.024 -0.161,0.027 -0.241,0.035 -0.881,2.122 -1.97,4.161 -3.287,6.074 -0.36,0.574 -9.043,14.163 -29.904,23.624 -6.694,3.035 -13.609,5.149 -20.607,6.542 28.577,-0.933 65.895,-6.352 91.087,-25.782 15.902,-12.267 25.264,-28.815 27.824,-49.184 5.646,-44.908 -23.192,-68.557 -30.329,-73.668 l -3.432,17.179 c 10.84,12.807 17.397,29.35 17.397,47.404 0,28.054 -13.823,50.337 -40.356,65.827 z"
     fill="#e95420"
     id="path205" />
  <path
     d="m 197.56686,160.35723 c 0.48,1.009 1.253,2.709 2.168,4.996 3.89,-4.164 7.688,-7.699 11.116,-10.594 -4.073,2.025 -8.557,3.973 -13.284,5.598 z"
     fill="#e95420"
     id="path207" />
  <path
     d="m 163.35586,159.81323 c 6.169,-4.598 13.57,-8.538 21.331,-11.87 -0.397,-2.509 0.866,-5.075 3.285,-6.192 2.641,-1.219 5.706,-0.279 7.268,2.069 22.63,-8.047 44.769,-11.368 45.108,-11.417 l 0.888,-0.13 c 0,-0.192 -0.007,-0.389 -0.046,-0.61 -0.499,-2.785 -2.273,-2.851 -4.524,-2.627 -10.731,1.064 -21.468,2.084 -32.201,3.129 -7.294,0.71 -17.432,0.846 -25.338,2.571 -0.823,-1.12 -1.729,-2.231 -2.725,-3.312 -7.583,-8.241 -24.222,-12.883 -21.405,-7.859 1.24,2.213 7.759,18.492 8.359,36.248 z m 11.743,-24.098 c -1.397,0.127 -7.068,1.209 -10.573,7.417 -1.354,-6.26 -3.847,-13.821 -5.072,-17.076 4.255,0.892 12.524,4.485 15.645,9.659 z"
     fill="#e95420"
     id="path209" />
  <path
     d="m 175.48686,280.70423 c 11.021,-11.264 20.46,-25.087 25.755,-41.805 7.462,-25.62 2.198,-49.672 -0.676,-63.722 -0.575,-1.874 -1.154,-3.611 -1.712,-5.167 -14.945,17.05 -30.266,43.741 -29.56,81.228 -0.009,0.262 -0.329,13.348 6.193,29.466 z"
     fill="#e95420"
     id="path211" />
  <path
     d="m 135.80086,311.18123 c 0.384,-0.287 0.76,-0.582 1.13,-0.885 7.187,-5.9 11.309,-14.61 11.309,-23.899 0,-17.039 -13.862,-30.901 -30.901,-30.901 -17.04,0 -30.901999,13.862 -30.901999,30.901 0,6.29 1.878,12.343 5.43,17.501 0.113,0.181 8.762999,13.665 29.009999,22.799 19.013,8.574 39.891,9.692 59.406,7.299 -8.186,-7.327 -16.836,-19.433 -37.667,-10.14 l -7.958,-11.894 c 0,0 0.375,-0.235 1.025,-0.65 0.042,-0.042 0.069,-0.094 0.118,-0.131 z"
     fill="#e95420"
     id="path213" />
  <path
     d="m 477.53186,125.41423 c -9.006,-4.909 -18.267,4.554 -18.267,4.554 l 11.863,1.022 c 1.73,-2.091 6.404,-5.576 6.404,-5.576 z"
     fill="#e95420"
     id="path215" />
  <path
     d="m 561.02386,266.49323 24.318,-7.261 c -1.558,-4.052 -3.511,-7.843 -5.771,-11.376 l -29.924,8.936 c 4.491,2.338 8.369,5.672 11.377,9.701 z"
     fill="#e95420"
     id="path217" />
  <path
     d="m 415.48786,135.62723 c 10.572,8.336 42.721,31.229 70.601,25.63 -5.842,-4.241 -12.779,-7.892 -20.036,-11.015 -1.56,2.355 -4.63,3.301 -7.274,2.08 -2.424,-1.119 -3.687,-3.693 -3.284,-6.206 -16.301,-5.788 -32.386,-9.104 -40.007,-10.489 z"
     fill="#e95420"
     id="path219" />
  <path
     d="m 567.09586,280.36323 21.821,-6.515 c -0.49,-4.331 -1.43,-8.422 -2.733,-12.282 l -23.681,7.071 c 2.226,3.523 3.814,7.481 4.593,11.726 z"
     fill="#e95420"
     id="path221" />
  <path
     d="m 477.07186,164.59623 c -7.012,0 -14.028,-1.383 -20.635,-3.459 -0.499,1.028 -1.491,3.174 -2.678,6.236 8.103,9.05 16.391,20.879 22.371,35.644 13.097,-1.64 24.814,-1.349 35.252,0.221 -17.706,-8.264 -22.955,-24.351 -23.145,-39.945 -3.678,0.886 -7.418,1.303 -11.165,1.303 z"
     fill="#e95420"
     id="path223" />
  <path
     d="m 477.04886,205.40823 c 4.952,13.036 8.095,28.251 7.764,45.807 0.009,0.234 0.377,14.291 -6.776,31.393 8.864,8.693 18.61,15.797 27.958,21.498 -3.287,-5.243 -5.081,-11.349 -5.081,-17.709 0,-18.405 14.973,-33.378 33.378,-33.378 4.19,0 8.185,0.809 11.883,2.225 l 31.448,-9.391 c -1.321,-1.991 -4.227,-6.033 -8.856,-10.845 l -16.742,4.429 c -0.106,0.029 -0.213,0.042 -0.317,0.042 -0.549,0 -1.05,-0.367 -1.197,-0.922 -0.175,-0.661 0.219,-1.339 0.881,-1.514 l 15.361,-4.064 c -1.701,-1.664 -3.605,-3.395 -5.7,-5.143 -8.012,-6.361 -16.467,-11.153 -23.549,-14.562 -15.32,-6.728 -35.275,-10.911 -60.455,-7.866 z"
     fill="#e95420"
     id="path225" />
  <path
     d="m 476.14386,280.70423 c 6.522,-16.118 6.202,-29.204 6.194,-29.466 0.705,-37.487 -14.616,-64.178 -29.561,-81.228 -0.557,1.556 -1.137,3.293 -1.712,5.167 -2.873,14.05 -8.138,38.102 -0.676,63.722 5.295,16.718 14.734,30.541 25.755,41.805 z"
     fill="#e95420"
     id="path227" />
  <path
     d="m 410.44186,131.66323 c -0.04,0.221 -0.047,0.418 -0.046,0.61 l 0.887,0.13 c 0.339,0.049 22.478,3.37 45.108,11.417 1.562,-2.348 4.628,-3.288 7.268,-2.069 2.42,1.117 3.682,3.683 3.285,6.192 7.761,3.332 15.162,7.272 21.331,11.87 0.6,-17.756 7.119,-34.035 8.359,-36.248 2.817,-5.024 -13.822,-0.382 -21.405,7.859 -0.996,1.081 -1.902,2.192 -2.725,3.312 -7.906,-1.725 -18.044,-1.861 -25.338,-2.571 -10.733,-1.045 -21.47,-2.065 -32.201,-3.129 -2.251,-0.224 -4.025,-0.158 -4.523,2.627 z m 81.735,-5.607 c -1.225,3.255 -3.718,10.816 -5.072,17.076 -3.505,-6.208 -9.175,-7.29 -10.572,-7.417 3.12,-5.174 11.389,-8.767 15.644,-9.659 z"
     fill="#e95420"
     id="path229" />
  <path
     d="m 471.34786,333.99623 c 19.515,2.393 40.393,1.275 59.406,-7.299 20.247,-9.134 28.897,-22.618 29.01,-22.799 3.553,-5.158 5.43,-11.211 5.43,-17.501 0,-17.039 -13.862,-30.901 -30.902,-30.901 -17.039,0 -30.901,13.862 -30.901,30.901 0,9.289 4.122,17.999 11.309,23.899 0.37,0.303 0.746,0.598 1.13,0.885 0.049,0.037 0.076,0.089 0.118,0.131 0.65,0.415 1.025,0.65 1.025,0.65 l -7.958,11.894 c -20.831,-9.293 -29.481,2.813 -37.667,10.14 z"
     fill="#e95420"
     id="path231" />
  <path
     d="m 567.67086,286.39723 c 0,3.405 -0.51,6.744 -1.497,9.925 l 22.55,-6.734 c 0.605,-4.629 0.727,-9.036 0.427,-13.225 l -21.677,6.472 c 0.125,1.171 0.197,2.358 0.197,3.562 z"
     fill="#e95420"
     id="path233" />
  <path
     d="m 451.89586,165.35323 c 0.915,-2.287 1.688,-3.987 2.168,-4.996 -4.727,-1.625 -9.211,-3.573 -13.284,-5.598 3.428,2.895 7.226,6.43 11.116,10.594 z"
     fill="#e95420"
     id="path235" />
  <path
     d="m 314.37286,158.32123 c 2.321,0 4.202,-1.881 4.202,-4.202 0,-2.32 -1.881,-4.202 -4.202,-4.202 -2.321,0 -4.202,1.882 -4.202,4.202 0,2.321 1.881,4.202 4.202,4.202 z"
     fill="#e95420"
     id="path237" />
  <path
     d="m 315.63686,148.22023 c 0.685,0.147 1.329,0.406 1.919,0.772 1.891,-2.721 4.945,-4.354 8.252,-4.414 0.018,-0.318 0.061,-0.635 0.126,-0.946 0.194,-0.9 0.587,-1.742 1.149,-2.463 -5.285,-0.418 -10.421,2.309 -13.035,6.924 0.108,-0.007 0.215,-0.008 0.32,-0.008 0.425,0 0.848,0.044 1.269,0.135 z"
     fill="#e95420"
     id="path239" />
  <path
     d="m 571.05786,389.30523 c 0.008,0.003 0.016,0.006 0.024,0.008 l -0.007,-0.003 z"
     fill="#e95420"
     id="path241" />
  <path
     d="m 324.88286,165.10123 c -0.347,-0.038 -0.692,-0.094 -1.031,-0.168 h -10e-4 v 0.002 c -3.028,-0.649 -5.557,-2.582 -6.979,-5.324 -1.12,0.51 -2.381,0.665 -3.594,0.441 1.721,4.226 5.371,7.295 9.851,8.256 0.982,0.211 1.984,0.313 2.984,0.306 -0.772,-1.014 -1.201,-2.238 -1.23,-3.513 z"
     fill="#e95420"
     id="path243" />
  <path
     d="m 492.13486,370.30323 c 0.033,0.006 0.065,0.012 0.098,0.018 l -0.056,-0.014 z"
     fill="#e95420"
     id="path245" />
  <path
     d="m 331.87486,149.10623 c 2.321,0 4.202,-1.882 4.202,-4.203 0,-2.32 -1.881,-4.202 -4.202,-4.202 -2.321,0 -4.202,1.882 -4.202,4.202 0,2.321 1.881,4.203 4.202,4.203 z"
     fill="#e95420"
     id="path247" />
  <path
     d="m 330.92886,169.16123 c 2.321,0 4.202,-1.882 4.202,-4.202 0,-2.321 -1.881,-4.202 -4.202,-4.202 -2.321,0 -4.202,1.881 -4.202,4.202 0,2.32 1.881,4.202 4.202,4.202 z"
     fill="#e95420"
     id="path249" />
  <path
     d="m 650.62186,251.37423 c 0,-36.727 -18.071,-69.295 -45.771,-89.339 l -4.415,22.098 c 2.555,1.702 10.64,7.56 18.253,18.149 8.292,11.534 17.452,31.044 14.002,58.486 -2.645,21.05 -12.327,38.154 -28.773,50.839 -28.751,22.173 -72.817,26.444 -102.505,26.444 -18.361,0 -31.225,-1.633 -31.558,-1.679 -0.134,-0.017 -0.253,-0.07 -0.368,-0.126 -14.922,-1.976 -28.99,-5.917 -40.794,-10.115 -0.644,-0.231 -0.981,-0.939 -0.752,-1.582 0.23,-0.647 0.939,-0.979 1.582,-0.753 11.17,3.974 24.391,7.725 38.428,9.749 l -21.151,-16.387 c 12.356,-10.524 19.487,-18.873 23.603,-24.874 1.825,-3.078 3.382,-6.132 4.692,-9.102 -7.766,-7.809 -14.796,-16.856 -20.265,-27.238 -0.006,0.17 -0.009,0.327 -0.017,0.503 1.081,4.038 1.666,8.279 1.666,12.658 0,26.97 -21.864,48.834 -48.834,48.834 -26.971,0 -48.834,-21.864 -48.834,-48.834 0,-21.753 14.226,-40.175 33.88,-46.492 -27.257,-74.639 -66.725,-222.27700778 -66.725,-222.27700778 -0.145,-0.464 -0.301,0 -0.301,0 0,0 -39.468,147.63800778 -66.725,222.27700778 19.654,6.317 33.88,24.739 33.88,46.492 0,26.97 -21.863,48.834 -48.834,48.834 -26.97,0 -48.834,-21.864 -48.834,-48.834 0,-4.379 0.585,-8.62 1.666,-12.658 -0.008,-0.176 -0.011,-0.333 -0.017,-0.503 -5.469,10.382 -12.499,19.429 -20.265,27.238 1.31,2.97 2.867,6.024 4.692,9.102 4.116,6.001 11.247,14.35 23.603,24.874 l -21.151,16.387 c 14.037,-2.024 27.258,-5.775 38.428,-9.749 0.643,-0.226 1.352,0.106 1.582,0.753 0.229,0.643 -0.108,1.351 -0.752,1.582 -11.804,4.198 -25.872,8.139 -40.794,10.115 -0.115,0.056 -0.234,0.109 -0.368,0.126 -0.332,0.046 -13.197,1.679 -31.558,1.679 -29.688,0 -73.753999,-4.271 -102.504999,-26.444 -16.446,-12.685 -26.128,-29.789 -28.773,-50.839 -3.45,-27.442 5.71,-46.952 14.002,-58.486 7.612,-10.589 15.698,-16.447 18.253,-18.149 l -4.415,-22.098 c -27.7,20.044 -45.7710003,52.612 -45.7710003,89.339 0,18.433 4.553,35.821 12.5860003,51.107 l -0.009,-0.003 47.278,90.559 c 20.65,-23.189 130.573999,-41.552 264.800999,-41.565 h 0.301 c 134.227,0.013 244.151,18.376 264.801,41.565 l 47.278,-90.559 -0.009,0.003 c 8.033,-15.286 12.586,-32.674 12.586,-51.107 z m -323.569,-74.978 v 133.587 c 5.54,0.613 9.87,5.327 9.87,11.063 0,6.113 -4.981,10.674 -11.094,10.674 -6.134,0 -11.121,-4.561 -11.121,-10.674 0,-5.728 4.324,-10.435 9.869,-11.059 v -133.591 c -11.405,-0.645 -20.461,-10.071 -20.461,-21.637 0,-11.984 9.715,-21.7 21.7,-21.7 11.984,0 21.699,9.716 21.699,21.7 0,11.567 -9.056,20.992 -20.462,21.637 z"
     fill="#e95420"
     id="path251" />
  <path
     d="m 335.10186,150.05223 c 1.135,2.137 1.48,4.604 0.972,6.977 -0.25,1.161 -0.689,2.256 -1.307,3.256 0.988,0.811 1.686,1.902 2.01,3.129 1.307,-1.647 2.227,-3.594 2.67,-5.663 0.773,-3.609 0.051,-7.396 -1.982,-10.467 -0.484,1.141 -1.305,2.104 -2.363,2.768 z"
     fill="#e95420"
     id="path253" />
  <path
     d="m 196.13586,146.11623 c 0.404,2.513 -0.86,5.087 -3.284,6.206 -2.644,1.221 -5.714,0.275 -7.274,-2.08 -7.257,3.123 -14.193,6.774 -20.036,11.015 27.881,5.599 60.029,-17.294 70.601,-25.63 -7.621,1.385 -23.706,4.701 -40.007,10.489 z"
     fill="#e95420"
     id="path255" />
  <path
     d="m 336.77686,163.41723 h 10e-4 l -10e-4,-0.003 v 0.001 z"
     fill="#e95420"
     id="path257" />
  <path
     d="m 117.33886,253.01923 c 18.405,0 33.378,14.973 33.378,33.378 0,6.36 -1.794,12.466 -5.081,17.709 9.348,-5.701 19.095,-12.805 27.958,-21.498 -7.153,-17.102 -6.785,-31.159 -6.776,-31.393 -0.331,-17.556 2.812,-32.771 7.764,-45.807 -25.18,-3.045 -45.135,1.138 -60.455,7.866 -7.082,3.409 -15.536999,8.201 -23.548999,14.562 -2.095,1.748 -3.999,3.479 -5.7,5.143 l 15.361999,4.064 c 0.661,0.175 1.055,0.853 0.88,1.514 -0.147,0.555 -0.648,0.922 -1.197003,0.922 -0.104,0 -0.211,-0.013 -0.317,-0.042 l -16.741996,-4.429 c -4.629,4.812 -7.535,8.854 -8.856,10.845 l 31.448999,9.391 c 3.697,-1.416 7.692,-2.225 11.882,-2.225 z"
     fill="#e95420"
     id="path259" />
  <path
     d="m 89.127861,268.63723 -23.681,-7.071 c -1.303,3.86 -2.243,7.951 -2.733,12.282 l 21.821,6.515 c 0.779,-4.245 2.367,-8.203 4.593,-11.726 z"
     fill="#e95420"
     id="path261" />
  <path
     d="m 101.98386,256.79223 -29.923999,-8.936 c -2.26,3.533 -4.213,7.324 -5.771,11.376 l 24.318,7.261 c 3.009,-4.029 6.886,-7.363 11.376999,-9.701 z"
     fill="#e95420"
     id="path263" />
  <path
     d="m 175.50086,203.01723 c 5.98,-14.765 14.268,-26.594 22.371,-35.644 -1.187,-3.062 -2.179,-5.208 -2.678,-6.236 -6.607,2.076 -13.623,3.459 -20.634,3.459 -3.748,0 -7.488,-0.417 -11.166,-1.303 -0.19,15.594 -5.439,31.681 -23.145,39.945 10.438,-1.57 22.155,-1.861 35.252,-0.221 z"
     fill="#e95420"
     id="path265" />
  <path
     d="m 325.96586,362.35123 h -0.301 c -142.622,0 -261.415999,21.684 -261.415999,48.465 v 9.676 c 0.01,-0.018 0.024,-0.034 0.034,-0.052 v 20.877 c 0.036,-0.055 0.076,-0.11 0.112,-0.166 -0.025,0.221 -0.112,0.439 -0.112,0.661 0,21.107 118.910999,38.22 261.532999,38.22 142.621,0 261.532,-17.113 261.532,-38.22 0,-0.222 -0.087,-0.44 -0.113,-0.661 0.037,0.056 0.077,0.111 0.113,0.166 v -20.877 c 0.01,0.018 0.024,0.034 0.034,0.052 v -9.676 c 0,-26.781 -118.794,-48.465 -261.416,-48.465 z m 206.791,32.794 c 6.133,0 11.12,4.981 11.12,11.134 0,6.114 -4.987,11.094 -11.12,11.094 -6.114,0 -11.094,-4.98 -11.094,-11.094 0,-6.153 4.98,-11.134 11.094,-11.134 z m -206.928,-16.742 c 6.113,0 11.094,4.981 11.094,11.134 0,6.114 -4.981,10.675 -11.094,10.675 -6.134,0 -11.121,-4.561 -11.121,-10.675 0,-6.153 4.987,-11.134 11.121,-11.134 z m -206.457,16.742 c 6.113,0 11.094,4.981 11.094,11.134 0,6.114 -4.981,11.094 -11.094,11.094 -6.134,0 -11.121,-4.98 -11.121,-11.094 0,-6.153 4.987,-11.134 11.121,-11.134 z m 206.692,72.751 c -131.725,0 -224.672,-14.503 -246.150999,-26.093 21.466999,-11.615 114.408999,-26.159 246.150999,-26.159 131.742,0 224.684,14.544 246.151,26.159 -21.479,11.59 -114.425,26.093 -246.151,26.093 z"
     fill="#e95420"
     id="path267" />
  <path
     d="m 80.548861,389.31323 c 0.008,-0.002 0.016,-0.005 0.024,-0.008 l -0.017,0.005 z"
     fill="#e95420"
     id="path269" />
  <path
     d="m 159.39786,370.32123 c 0.033,-0.006 0.065,-0.012 0.098,-0.018 l -0.042,0.004 z"
     fill="#e95420"
     id="path271" />
  <path
     d="m 85.457861,296.32223 c -0.988,-3.181 -1.498,-6.52 -1.498,-9.925 0,-1.204 0.072,-2.391 0.197,-3.562 l -21.677,-6.472 c -0.299,4.189 -0.177,8.596 0.427,13.225 z"
     fill="#e95420"
     id="path273" />
  <path
     d="m 21.396861,260.45923 c 2.56,20.369 11.922,36.917 27.824,49.184 25.192,19.43 62.509999,24.849 91.086999,25.782 -6.998,-1.393 -13.913,-3.507 -20.606,-6.542 -20.862003,-9.461 -29.544999,-23.05 -29.904999,-23.624 -1.317,-1.913 -2.405,-3.952 -3.286,-6.074 -0.081,-0.008 -0.161,-0.011 -0.242,-0.035 l -22.953,-6.855 c 0.399,2.367 0.909,4.783 1.57,7.264 3.037,7.121 7.725,12.923 13.231,17.642 -26.533,-15.49 -40.356,-37.774 -40.356,-65.827 0,-18.054 6.557,-34.597 17.398,-47.404 l -3.433,-17.179 c -7.137,5.111 -35.975,28.76 -30.329,73.668 z"
     fill="#e95420"
     id="path275" />
</svg>
