<svg width="900" height="901" viewBox="0 0 900 901" fill="none" xmlns="http://www.w3.org/2000/svg">
<circle cx="450.004" cy="450.15" r="450" fill="url(#paint0_linear_3356_10970)"/>
<g style="mix-blend-mode:multiply">
<circle cx="450.004" cy="450.15" r="450" fill="url(#paint1_radial_3356_10970)" fill-opacity="0.5"/>
</g>
<path d="M304.693 307.365L316.556 306.343C316.556 306.343 307.295 296.88 298.289 301.789C298.289 301.789 302.963 305.274 304.693 307.365Z" fill="#E95420"/>
<path d="M351.379 290.267C351.949 290.639 352.719 290.476 353.092 289.904C357.304 283.42 366.008 281.573 372.493 285.785C378.978 289.998 380.825 298.701 376.612 305.186C374.571 308.328 371.429 310.486 367.764 311.264C366.284 311.578 364.791 311.64 363.329 311.482L361.189 313.625C361.613 313.721 362.036 313.819 362.466 313.882C364.374 314.159 366.337 314.099 368.279 313.686C372.59 312.771 376.287 310.231 378.689 306.536C383.646 298.906 381.472 288.666 373.843 283.708C366.211 278.748 355.971 280.925 351.015 288.554C350.642 289.128 350.805 289.895 351.379 290.267Z" fill="#E95420"/>
<path d="M531.732 313.686C533.674 314.099 535.637 314.159 537.545 313.882C537.975 313.819 538.398 313.721 538.822 313.625L536.682 311.482C535.22 311.64 533.727 311.578 532.247 311.264C528.582 310.486 525.44 308.328 523.399 305.186C519.186 298.701 521.033 289.998 527.518 285.785C534.003 281.573 542.707 283.42 546.919 289.904C547.292 290.476 548.062 290.639 548.632 290.267C549.206 289.895 549.368 289.128 548.996 288.554C544.039 280.925 533.8 278.748 526.168 283.708C518.539 288.666 516.365 298.906 521.322 306.536C523.724 310.231 527.421 312.771 531.732 313.686Z" fill="#E95420"/>
<path d="M697.704 493.576C703.21 488.857 707.898 483.055 710.935 475.934C711.596 473.453 712.106 471.037 712.505 468.67L689.552 475.525C689.471 475.549 689.391 475.552 689.311 475.56C688.43 477.682 687.341 479.721 686.024 481.634C685.664 482.208 676.981 495.797 656.12 505.258C649.426 508.293 642.511 510.407 635.513 511.8C664.09 510.867 701.408 505.448 726.6 486.018C742.502 473.751 751.864 457.203 754.424 436.834C760.07 391.926 731.232 368.277 724.095 363.166L720.663 380.345C731.503 393.152 738.06 409.695 738.06 427.749C738.06 455.803 724.237 478.086 697.704 493.576Z" fill="#E95420"/>
<path d="M321.757 336.732C322.237 337.741 323.01 339.441 323.925 341.728C327.815 337.564 331.613 334.029 335.041 331.134C330.968 333.159 326.484 335.107 321.757 336.732Z" fill="#E95420"/>
<path d="M287.546 336.188C293.715 331.59 301.116 327.65 308.877 324.318C308.48 321.809 309.743 319.243 312.162 318.126C314.803 316.907 317.868 317.847 319.43 320.195C342.06 312.148 364.199 308.827 364.538 308.778L365.426 308.648C365.426 308.456 365.419 308.259 365.38 308.038C364.881 305.253 363.107 305.187 360.856 305.411C350.125 306.475 339.388 307.495 328.655 308.54C321.361 309.25 311.223 309.386 303.317 311.111C302.494 309.991 301.588 308.88 300.592 307.799C293.009 299.558 276.37 294.916 279.187 299.94C280.427 302.153 286.946 318.432 287.546 336.188ZM299.289 312.09C297.892 312.217 292.221 313.299 288.716 319.507C287.362 313.247 284.869 305.686 283.644 302.431C287.899 303.323 296.168 306.916 299.289 312.09Z" fill="#E95420"/>
<path d="M299.677 457.079C310.698 445.815 320.137 431.992 325.432 415.274C332.894 389.654 327.63 365.602 324.756 351.552C324.181 349.678 323.602 347.941 323.044 346.385C308.099 363.435 292.778 390.126 293.484 427.613C293.475 427.875 293.155 440.961 299.677 457.079Z" fill="#E95420"/>
<path d="M259.991 487.556C260.375 487.269 260.751 486.974 261.121 486.671C268.308 480.771 272.43 472.061 272.43 462.772C272.43 445.733 258.568 431.871 241.529 431.871C224.489 431.871 210.627 445.733 210.627 462.772C210.627 469.062 212.505 475.115 216.057 480.273C216.17 480.454 224.82 493.938 245.067 503.072C264.08 511.646 284.958 512.764 304.473 510.371C296.287 503.044 287.637 490.938 266.806 500.231L258.848 488.337C258.848 488.337 259.223 488.102 259.873 487.687C259.915 487.645 259.942 487.593 259.991 487.556Z" fill="#E95420"/>
<path d="M601.722 301.789C592.716 296.88 583.455 306.343 583.455 306.343L595.318 307.365C597.048 305.274 601.722 301.789 601.722 301.789Z" fill="#E95420"/>
<path d="M685.214 442.868L709.532 435.607C707.974 431.555 706.021 427.764 703.761 424.231L673.837 433.167C678.328 435.505 682.206 438.839 685.214 442.868Z" fill="#E95420"/>
<path d="M539.678 312.002C550.25 320.338 582.399 343.231 610.279 337.632C604.437 333.391 597.5 329.74 590.243 326.617C588.683 328.972 585.613 329.918 582.969 328.697C580.545 327.578 579.282 325.004 579.685 322.491C563.384 316.703 547.299 313.387 539.678 312.002Z" fill="#E95420"/>
<path d="M691.286 456.738L713.107 450.223C712.617 445.892 711.677 441.801 710.374 437.941L686.693 445.012C688.919 448.535 690.507 452.493 691.286 456.738Z" fill="#E95420"/>
<path d="M601.262 340.971C594.25 340.971 587.234 339.588 580.627 337.512C580.128 338.54 579.136 340.686 577.949 343.748C586.052 352.798 594.34 364.627 600.32 379.392C613.417 377.752 625.134 378.043 635.572 379.613C617.866 371.349 612.617 355.262 612.427 339.668C608.749 340.554 605.009 340.971 601.262 340.971Z" fill="#E95420"/>
<path d="M601.239 381.783C606.191 394.819 609.334 410.034 609.003 427.59C609.012 427.824 609.38 441.881 602.227 458.983C611.091 467.676 620.837 474.78 630.185 480.481C626.898 475.238 625.104 469.132 625.104 462.772C625.104 444.367 640.077 429.394 658.482 429.394C662.672 429.394 666.667 430.203 670.365 431.619L701.813 422.228C700.492 420.237 697.586 416.195 692.957 411.383L676.215 415.812C676.109 415.841 676.002 415.854 675.898 415.854C675.349 415.854 674.848 415.487 674.701 414.932C674.526 414.271 674.92 413.593 675.582 413.418L690.943 409.354C689.242 407.69 687.338 405.959 685.243 404.211C677.231 397.85 668.776 393.058 661.694 389.649C646.374 382.921 626.419 378.738 601.239 381.783Z" fill="#E95420"/>
<path d="M600.334 457.079C606.856 440.961 606.536 427.875 606.528 427.613C607.233 390.126 591.912 363.435 576.967 346.385C576.41 347.941 575.83 349.678 575.255 351.552C572.382 365.602 567.117 389.654 574.579 415.274C579.874 431.992 589.313 445.815 600.334 457.079Z" fill="#E95420"/>
<path d="M534.632 308.038C534.592 308.259 534.585 308.456 534.586 308.648L535.473 308.778C535.812 308.827 557.951 312.148 580.581 320.195C582.143 317.847 585.209 316.907 587.849 318.126C590.269 319.243 591.531 321.809 591.134 324.318C598.895 327.65 606.296 331.59 612.465 336.188C613.065 318.432 619.584 302.153 620.824 299.94C623.641 294.916 607.002 299.558 599.419 307.799C598.423 308.88 597.517 309.991 596.694 311.111C588.788 309.386 578.65 309.25 571.356 308.54C560.623 307.495 549.886 306.475 539.155 305.411C536.904 305.187 535.13 305.253 534.632 308.038ZM616.367 302.431C615.142 305.686 612.649 313.247 611.295 319.507C607.79 313.299 602.12 312.217 600.723 312.09C603.843 306.916 612.112 303.323 616.367 302.431Z" fill="#E95420"/>
<path d="M595.538 510.371C615.053 512.764 635.931 511.646 654.944 503.072C675.191 493.938 683.841 480.454 683.954 480.273C687.507 475.115 689.384 469.062 689.384 462.772C689.384 445.733 675.522 431.871 658.482 431.871C641.443 431.871 627.581 445.733 627.581 462.772C627.581 472.061 631.703 480.771 638.89 486.671C639.26 486.974 639.636 487.269 640.02 487.556C640.069 487.593 640.096 487.645 640.138 487.687C640.788 488.102 641.163 488.337 641.163 488.337L633.205 500.231C612.374 490.938 603.724 503.044 595.538 510.371Z" fill="#E95420"/>
<path d="M691.861 462.772C691.861 466.177 691.351 469.516 690.364 472.697L712.914 465.963C713.519 461.334 713.641 456.927 713.341 452.738L691.664 459.21C691.789 460.381 691.861 461.568 691.861 462.772Z" fill="#E95420"/>
<path d="M576.086 341.728C577.001 339.441 577.774 337.741 578.254 336.732C573.527 335.107 569.043 333.159 564.97 331.134C568.398 334.029 572.196 337.564 576.086 341.728Z" fill="#E95420"/>
<path d="M438.563 334.696C440.884 334.696 442.765 332.815 442.765 330.494C442.765 328.174 440.884 326.292 438.563 326.292C436.242 326.292 434.361 328.174 434.361 330.494C434.361 332.815 436.242 334.696 438.563 334.696Z" fill="#E95420"/>
<path d="M439.827 324.595C440.512 324.742 441.156 325.001 441.746 325.367C443.637 322.646 446.691 321.013 449.998 320.953C450.016 320.635 450.059 320.318 450.124 320.007C450.318 319.107 450.711 318.265 451.273 317.544C445.988 317.126 440.852 319.853 438.238 324.468C438.346 324.461 438.453 324.46 438.558 324.46C438.983 324.46 439.406 324.504 439.827 324.595Z" fill="#E95420"/>
<path d="M695.248 565.68C695.256 565.683 695.264 565.686 695.272 565.688L695.265 565.685L695.248 565.68Z" fill="#E95420"/>
<path d="M449.073 341.476C448.726 341.438 448.381 341.382 448.042 341.308H448.041V341.31C445.013 340.661 442.484 338.728 441.062 335.986C439.942 336.496 438.681 336.651 437.468 336.427C439.189 340.653 442.839 343.722 447.319 344.683C448.301 344.894 449.303 344.996 450.303 344.989C449.531 343.975 449.102 342.751 449.073 341.476Z" fill="#E95420"/>
<path d="M616.325 546.678C616.358 546.684 616.39 546.69 616.423 546.696L616.367 546.682L616.325 546.678Z" fill="#E95420"/>
<path d="M456.065 325.481C458.386 325.481 460.267 323.599 460.267 321.278C460.267 318.958 458.386 317.076 456.065 317.076C453.744 317.076 451.863 318.958 451.863 321.278C451.863 323.599 453.744 325.481 456.065 325.481Z" fill="#E95420"/>
<path d="M455.119 345.536C457.44 345.536 459.321 343.654 459.321 341.334C459.321 339.013 457.44 337.132 455.119 337.132C452.798 337.132 450.917 339.013 450.917 341.334C450.917 343.654 452.798 345.536 455.119 345.536Z" fill="#E95420"/>
<path d="M774.812 427.749C774.812 391.022 756.741 358.454 729.041 338.41L724.626 360.508C727.181 362.21 735.266 368.068 742.879 378.657C751.171 390.191 760.331 409.701 756.881 437.143C754.236 458.193 744.554 475.297 728.108 487.982C699.357 510.155 655.291 514.426 625.603 514.426C607.242 514.426 594.378 512.793 594.045 512.747C593.911 512.73 593.792 512.677 593.677 512.621C578.755 510.645 564.687 506.704 552.883 502.506C552.239 502.275 551.902 501.567 552.131 500.924C552.361 500.277 553.07 499.945 553.713 500.171C564.883 504.145 578.104 507.896 592.141 509.92L570.99 493.533C583.346 483.009 590.477 474.66 594.593 468.659C596.418 465.581 597.975 462.527 599.285 459.557C591.519 451.748 584.489 442.701 579.02 432.319C579.014 432.489 579.011 432.646 579.003 432.822C580.084 436.86 580.669 441.101 580.669 445.48C580.669 472.45 558.805 494.314 531.835 494.314C504.864 494.314 483.001 472.45 483.001 445.48C483.001 423.727 497.227 405.305 516.881 398.988C489.624 324.349 450.156 176.711 450.156 176.711C450.011 176.247 449.855 176.711 449.855 176.711C449.855 176.711 410.387 324.349 383.13 398.988C402.784 405.305 417.01 423.727 417.01 445.48C417.01 472.45 395.147 494.314 368.176 494.314C341.206 494.314 319.342 472.45 319.342 445.48C319.342 441.101 319.927 436.86 321.008 432.822C321 432.646 320.997 432.489 320.991 432.319C315.522 442.701 308.492 451.748 300.726 459.557C302.036 462.527 303.593 465.581 305.418 468.659C309.534 474.66 316.665 483.009 329.021 493.533L307.87 509.92C321.907 507.896 335.128 504.145 346.298 500.171C346.941 499.945 347.65 500.277 347.88 500.924C348.109 501.567 347.772 502.275 347.128 502.506C335.324 506.704 321.256 510.645 306.334 512.621C306.219 512.677 306.1 512.73 305.966 512.747C305.634 512.793 292.769 514.426 274.408 514.426C244.72 514.426 200.654 510.155 171.903 487.982C155.457 475.297 145.775 458.193 143.13 437.143C139.68 409.701 148.84 390.191 157.132 378.657C164.744 368.068 172.83 362.21 175.385 360.508L170.97 338.41C143.27 358.454 125.199 391.022 125.199 427.749C125.199 446.182 129.752 463.57 137.785 478.856L137.776 478.853L185.054 569.412C205.704 546.223 315.628 527.86 449.855 527.847H450.156C584.383 527.86 694.307 546.223 714.957 569.412L762.235 478.853L762.226 478.856C770.259 463.57 774.812 446.182 774.812 427.749ZM451.243 352.771V486.358C456.783 486.971 461.113 491.685 461.113 497.421C461.113 503.534 456.132 508.095 450.019 508.095C443.885 508.095 438.898 503.534 438.898 497.421C438.898 491.693 443.222 486.986 448.767 486.362V352.771C437.362 352.126 428.306 342.7 428.306 331.134C428.306 319.15 438.021 309.434 450.006 309.434C461.99 309.434 471.705 319.15 471.705 331.134C471.705 342.701 462.649 352.126 451.243 352.771Z" fill="#E95420"/>
<path d="M459.292 326.427C460.427 328.564 460.772 331.031 460.264 333.404C460.014 334.565 459.575 335.66 458.957 336.66C459.945 337.471 460.643 338.562 460.967 339.789C462.274 338.142 463.194 336.195 463.637 334.126C464.41 330.517 463.688 326.73 461.655 323.659C461.171 324.8 460.35 325.763 459.292 326.427Z" fill="#E95420"/>
<path d="M320.326 322.491C320.73 325.004 319.466 327.578 317.042 328.697C314.398 329.918 311.328 328.972 309.768 326.617C302.511 329.74 295.575 333.391 289.732 337.632C317.613 343.231 349.761 320.338 360.333 312.002C352.712 313.387 336.627 316.703 320.326 322.491Z" fill="#E95420"/>
<path d="M460.967 339.792H460.968L460.967 339.789L460.967 339.79V339.792Z" fill="#E95420"/>
<path d="M241.529 429.394C259.934 429.394 274.907 444.367 274.907 462.772C274.907 469.132 273.113 475.238 269.826 480.481C279.174 474.78 288.921 467.676 297.784 458.983C290.631 441.881 290.999 427.824 291.008 427.59C290.677 410.034 293.82 394.819 298.772 381.783C273.592 378.738 253.637 382.921 238.317 389.649C231.235 393.058 222.78 397.85 214.768 404.211C212.673 405.959 210.769 407.69 209.068 409.354L224.43 413.418C225.091 413.593 225.485 414.271 225.31 414.932C225.163 415.487 224.662 415.854 224.113 415.854C224.009 415.854 223.902 415.841 223.796 415.812L207.054 411.383C202.425 416.195 199.519 420.237 198.198 422.228L229.647 431.619C233.344 430.203 237.339 429.394 241.529 429.394Z" fill="#E95420"/>
<path d="M213.318 445.012L189.637 437.941C188.334 441.801 187.394 445.892 186.904 450.223L208.725 456.738C209.504 452.493 211.092 448.535 213.318 445.012Z" fill="#E95420"/>
<path d="M226.174 433.167L196.25 424.231C193.99 427.764 192.037 431.555 190.479 435.607L214.797 442.868C217.806 438.839 221.683 435.505 226.174 433.167Z" fill="#E95420"/>
<path d="M299.691 379.392C305.671 364.627 313.959 352.798 322.062 343.748C320.875 340.686 319.883 338.54 319.384 337.512C312.777 339.588 305.761 340.971 298.75 340.971C295.002 340.971 291.262 340.554 287.584 339.668C287.394 355.262 282.145 371.349 264.439 379.613C274.877 378.043 286.594 377.752 299.691 379.392Z" fill="#E95420"/>
<path d="M450.156 538.726H449.855C307.233 538.726 188.439 560.41 188.439 587.191V596.867C188.449 596.849 188.463 596.833 188.473 596.815V617.692C188.509 617.637 188.549 617.582 188.585 617.526C188.56 617.747 188.473 617.965 188.473 618.187C188.473 639.294 307.384 656.407 450.006 656.407C592.627 656.407 711.538 639.294 711.538 618.187C711.538 617.965 711.451 617.747 711.425 617.526C711.462 617.582 711.502 617.637 711.538 617.692V596.815C711.548 596.833 711.562 596.849 711.572 596.867V587.191C711.572 560.41 592.778 538.726 450.156 538.726ZM656.947 571.52C663.08 571.52 668.067 576.501 668.067 582.654C668.067 588.768 663.08 593.748 656.947 593.748C650.833 593.748 645.853 588.768 645.853 582.654C645.853 576.501 650.833 571.52 656.947 571.52ZM450.019 554.778C456.132 554.778 461.113 559.759 461.113 565.912C461.113 572.026 456.132 576.587 450.019 576.587C443.885 576.587 438.898 572.026 438.898 565.912C438.898 559.759 443.885 554.778 450.019 554.778ZM243.562 571.52C249.675 571.52 254.656 576.501 254.656 582.654C254.656 588.768 249.675 593.748 243.562 593.748C237.428 593.748 232.441 588.768 232.441 582.654C232.441 576.501 237.428 571.52 243.562 571.52ZM450.254 644.271C318.529 644.271 225.582 629.768 204.103 618.178C225.57 606.563 318.512 592.019 450.254 592.019C581.996 592.019 674.938 606.563 696.405 618.178C674.926 629.768 581.98 644.271 450.254 644.271Z" fill="#E95420"/>
<path d="M204.739 565.688C204.747 565.686 204.755 565.683 204.763 565.68L204.746 565.685L204.739 565.688Z" fill="#E95420"/>
<path d="M283.588 546.696C283.621 546.69 283.653 546.684 283.686 546.678L283.644 546.682L283.588 546.696Z" fill="#E95420"/>
<path d="M209.648 472.697C208.66 469.516 208.15 466.177 208.15 462.772C208.15 461.568 208.222 460.381 208.347 459.21L186.67 452.738C186.371 456.927 186.493 461.334 187.097 465.963L209.648 472.697Z" fill="#E95420"/>
<path d="M145.587 436.834C148.147 457.203 157.509 473.751 173.411 486.018C198.603 505.448 235.921 510.867 264.498 511.8C257.5 510.407 250.585 508.293 243.892 505.258C223.03 495.797 214.347 482.208 213.987 481.634C212.67 479.721 211.582 477.682 210.701 475.56C210.62 475.552 210.54 475.549 210.459 475.525L187.506 468.67C187.905 471.037 188.415 473.453 189.076 475.934C192.113 483.055 196.801 488.857 202.307 493.576C175.774 478.086 161.951 455.802 161.951 427.749C161.951 409.695 168.508 393.152 179.349 380.345L175.916 363.166C168.779 368.277 139.941 391.926 145.587 436.834Z" fill="#E95420"/>
<defs>
<linearGradient id="paint0_linear_3356_10970" x1="147.918" y1="127.611" x2="739.574" y2="795.223" gradientUnits="userSpaceOnUse">
<stop stop-color="#501737"/>
<stop offset="0.358002" stop-color="#581D3D"/>
<stop offset="0.68346" stop-color="#571D3D"/>
<stop offset="1" stop-color="#76293D"/>
</linearGradient>
<radialGradient id="paint1_radial_3356_10970" cx="0" cy="0" r="1" gradientUnits="userSpaceOnUse" gradientTransform="translate(771.128 135) rotate(137.417) scale(489.183 1834.65)">
<stop/>
<stop offset="0.591391" stop-color="white"/>
</radialGradient>
</defs>
</svg>
