<?xml version="1.0" encoding="UTF-8"?><svg xmlns="http://www.w3.org/2000/svg" xmlns:xlink="http://www.w3.org/1999/xlink" viewBox="0 0 280 280"><defs><mask id="b" x="102.11" y="82.45" width="100.7" height="103.61" maskUnits="userSpaceOnUse"><path d="M102.11,84.94v57.51c0,2.79,1.48,5.37,3.88,6.79l62.06,36.48c1.66.97,3.74-.22,3.74-2.14v-60.93c0-2.91-1.6-5.58-4.17-6.95l-61.86-32.95c-1.65-.88-3.65.32-3.65,2.19Z" style="fill:#fff; stroke-width:0px;"/></mask></defs><g style="isolation:isolate;"><g id="a"><g style="opacity:.35;"><polygon points="202.03 237.25 202.03 238.63 201.02 239.21 201.02 236.67 202.03 237.25" style="fill:#e95420; stroke-width:0px;"/><polygon points="199.5 235.79 199.5 240.09 198.5 240.67 198.5 235.21 199.5 235.79" style="fill:#e95420; stroke-width:0px;"/><polygon points="196.98 234.34 196.98 241.54 195.98 242.12 195.98 233.76 196.98 234.34" style="fill:#e95420; stroke-width:0px;"/><polygon points="194.46 232.88 194.46 243 193.45 243.58 193.45 232.3 194.46 232.88" style="fill:#e95420; stroke-width:0px;"/><polygon points="191.94 232.55 191.94 244.46 190.93 245.04 190.93 233.13 191.94 232.55" style="fill:#e95420; stroke-width:0px;"/><polygon points="189.42 234.01 189.42 245.91 188.41 246.49 188.41 234.59 189.42 234.01" style="fill:#e95420; stroke-width:0px;"/><polygon points="186.89 235.46 186.89 247.37 185.89 247.95 185.89 236.04 186.89 235.46" style="fill:#e95420; stroke-width:0px;"/><polygon points="184.37 236.92 184.37 248.82 183.37 249.41 183.37 237.5 184.37 236.92" style="fill:#e95420; stroke-width:0px;"/><polygon points="181.85 238.38 181.85 249.41 180.84 248.83 180.84 238.96 181.85 238.38" style="fill:#e95420; stroke-width:0px;"/><polygon points="179.33 239.83 179.33 247.95 178.32 247.37 178.32 240.41 179.33 239.83" style="fill:#e95420; stroke-width:0px;"/><polygon points="176.8 246.5 175.8 245.92 175.8 241.87 176.8 241.29 176.8 246.5" style="fill:#e95420; stroke-width:0px;"/><polygon points="173.28 244.46 173.28 243.33 174.28 242.75 174.28 245.04 173.28 244.46" style="fill:#e95420; stroke-width:0px;"/><path d="M169.96,243.89l12.64,7.29,22.95-13.25-12.64-7.29-22.95,13.25ZM171.45,243.89l21.47-12.4,11.16,6.44-21.47,12.4-11.16-6.44Z" style="fill:#e95420; stroke-width:0px;"/></g><g style="opacity:.2;"><path d="M149.48,171.54l-.81-.47-99.56,57.48c-1.35-.62-3.31-.58-4.55.14-1.34.77-1.34,2.03,0,2.8,1.34.77,3.51.77,4.86,0,1.16-.67,1.31-1.69.47-2.46l99.6-57.5ZM48.76,231.13c-.99.57-2.59.57-3.57,0-.99-.57-.99-1.49,0-2.06.99-.57,2.59-.57,3.57,0,.99.57.99,1.49,0,2.06Z" style="fill:#666; stroke-width:0px;"/><path d="M88.59,212.3l65.75-37.96-.82-.47-65.75,37.97-.81.47.81.47,14.7,8.49-16.39,9.45c-1.35-.61-3.29-.56-4.53.15-1.34.77-1.34,2.03,0,2.8,1.34.77,3.51.77,4.86,0,1.16-.67,1.31-1.7.46-2.47l16.42-9.47.81-.47-.81-.47-14.7-8.48ZM85.76,233.3c-.99.57-2.59.57-3.57,0-.99-.57-.99-1.49,0-2.06.99-.57,2.59-.57,3.57,0,.99.57.99,1.49,0,2.06Z" style="fill:#666; stroke-width:0px;"/><path d="M139.3,199.99l-.66.38,15.72,9.08c-.9.77-.77,1.83.42,2.51,1.34.77,3.51.77,4.86,0,1.34-.77,1.34-2.03,0-2.8-1.22-.71-3.13-.76-4.47-.18l-14.9-8.61,29.58-17.08-.81-.47-29.58,17.08-.15.09ZM158.99,209.53c.99.57.99,1.49,0,2.06-.99.57-2.59.57-3.57,0-.99-.57-.99-1.49,0-2.06.99-.57,2.59-.57,3.57,0Z" style="fill:#666; stroke-width:0px;"/><path d="M173.32,230.98c-1.22-.7-3.12-.76-4.47-.18l-45.81-26.45,41.64-24.04-.81-.47-41.63,24.04-.81.47.81.47,45.82,26.45c-.91.77-.77,1.83.41,2.51,1.34.77,3.51.77,4.86,0,1.34-.77,1.34-2.03,0-2.8ZM172.67,233.41c-.99.57-2.59.57-3.57,0-.99-.57-.99-1.49,0-2.06.99-.57,2.59-.57,3.57,0,.99.57.99,1.49,0,2.06Z" style="fill:#666; stroke-width:0px;"/><path d="M138.87,225.18c-1.17-.68-2.98-.76-4.31-.26l-28.75-16.6,53.69-31-.81-.47-53.69,31-.81.47.81.47,28.73,16.59c-1.03.78-.94,1.89.29,2.6,1.34.77,3.51.77,4.86,0,1.34-.77,1.34-2.03,0-2.8ZM138.23,227.61c-.99.57-2.59.57-3.57,0-.99-.57-.99-1.49,0-2.06.99-.57,2.59-.57,3.57,0,.98.57.98,1.49,0,2.06Z" style="fill:#666; stroke-width:0px;"/></g><path d="M122.77,239.96s-1.98-1.32-2.01-1.35l-2.84.53s-.24,1.74-.25,1.77l-4.62-.21s.21-1.74.22-1.77l-2.66-.79s-2.29,1.13-2.34,1.15l-3.01-2.04s2.28-1.14,2.32-1.16l-.93-1.64c-.05,0-3.01-.15-3.06-.15l.35-2.67c.05,0,3.01.13,3.06.14l1.35-1.54c-.09-.05-1.96-1.33-1.99-1.36l3.52-1.74s1.98,1.32,2.01,1.35l2.84-.53s.24-1.74.25-1.77l4.62.21s-.21,1.74-.22,1.77l2.66.79s2.29-1.13,2.34-1.15l3.01,2.04s-2.28,1.14-2.32,1.16l.93,1.64c.05,0,3.01.15,3.06.15l-.35,2.67c-.05,0-3.01-.13-3.06-.14l-1.35,1.54c.09.05,1.95,1.33,1.99,1.36l-3.52,1.74ZM116.02,235.92c2.27.11,4.25-.88,4.43-2.19.1-.73-.38-1.4-1.21-1.88-.67-.39-1.57-.64-2.59-.69-2.27-.11-4.25.88-4.43,2.19-.1.73.38,1.4,1.21,1.88.67.39,1.57.64,2.59.69h0Z" style="fill:#e95420; stroke-width:0px;"/><polygon points="154.81 234.26 151.87 232.56 151.23 232.93 154.17 234.63 151.23 236.33 151.87 236.7 154.81 235 157.75 236.7 158.39 236.33 155.45 234.63 158.39 232.93 157.75 232.56 154.81 234.26" style="fill:#e95420; fill-rule:evenodd; stroke-width:0px;"/><polygon points="230.63 204.3 227.69 202.6 227.05 202.97 229.99 204.67 227.05 206.37 227.69 206.74 230.63 205.04 233.57 206.74 234.21 206.37 231.27 204.67 234.21 202.97 233.57 202.6 230.63 204.3" style="fill:#e95420; fill-rule:evenodd; stroke-width:0px;"/><polygon points="243.09 217.48 240.14 215.78 239.51 216.15 242.45 217.85 239.51 219.55 240.14 219.91 243.09 218.21 246.03 219.91 246.67 219.54 243.73 217.85 246.67 216.15 246.03 215.78 243.09 217.48" style="fill:#e95420; fill-rule:evenodd; stroke-width:0px;"/><polygon points="89.05 185.14 86.11 183.44 85.47 183.81 88.41 185.51 85.47 187.21 86.11 187.58 89.05 185.88 91.99 187.58 92.63 187.21 89.69 185.51 92.63 183.81 91.99 183.44 89.05 185.14" style="fill:#e95420; fill-rule:evenodd; stroke-width:0px;"/><polygon points="75.14 225.43 72.2 223.73 71.56 224.1 74.5 225.8 71.56 227.5 72.2 227.87 75.14 226.17 78.08 227.87 78.72 227.5 75.78 225.8 78.72 224.1 78.08 223.73 75.14 225.43" style="fill:#e95420; fill-rule:evenodd; stroke-width:0px;"/><path d="M235.95,73.14l-79.06-43.9c-1.2-.67-2.54-.51-3.54.16h0s-58.33,32.62-58.33,32.62l86.4,143.58,58.79-32.93-.03-.05c.91-.59,1.55-1.6,1.55-2.84v-86.84c0-4.07-2.21-7.82-5.77-9.8Z" style="fill:#fff; stroke:#606060; stroke-linecap:round; stroke-linejoin:round; stroke-width:2px;"/><polygon points="156.15 124.58 99.05 157.23 99.05 167.55 176.39 212.21 233.48 179.55 233.48 169.23 156.15 124.58" style="fill:#fff; stroke:#606060; stroke-linecap:round; stroke-linejoin:round; stroke-width:2px;"/><polygon points="176.39 212.21 99.05 167.55 99.05 157.23 176.39 201.88 176.39 212.21" style="fill:#fff; stroke:#606060; stroke-linecap:round; stroke-linejoin:round; stroke-width:.5px;"/><polygon points="176.39 212.21 233.48 179.55 233.48 169.23 176.39 201.88 176.39 212.21" style="fill:#e95420; stroke:#606060; stroke-linecap:round; stroke-linejoin:round; stroke-width:.5px;"/><polygon points="176.39 201.88 99.05 157.23 156.15 124.58 233.48 169.23 176.39 201.88" style="fill:#fff; stroke:#606060; stroke-linecap:round; stroke-linejoin:round; stroke-width:.5px;"/><path d="M235.95,73.14l-79.06-43.9c-1.2-.67-2.54-.51-3.54.16h0s-58.33,32.62-58.33,32.62l44.38,73.76,100.02-59.63c-.92-1.21-2.09-2.24-3.47-3.01Z" style="fill:#fff; stroke:#606060; stroke-linecap:round; stroke-linejoin:round; stroke-width:.5px;"/><path d="M240.2,172.67l-.03-.05c.91-.59,1.55-1.6,1.55-2.84v-86.84c0-2.5-.84-4.87-2.3-6.79l-100.02,59.63,42.01,69.82,58.79-32.93Z" style="fill:#e95420; stroke:#606060; stroke-linecap:round; stroke-linejoin:round; stroke-width:.5px;"/><path d="M178.17,205.45l-79.25-46.9c-3.41-2.02-5.5-5.68-5.5-9.64v-83.95c0-2.59,2.78-4.23,5.05-2.97l79.06,43.9c3.56,1.98,5.77,5.73,5.77,9.8v86.84c0,2.63-2.86,4.27-5.13,2.92Z" style="fill:#fff; stroke:#606060; stroke-linecap:round; stroke-linejoin:round; stroke-width:2px;"/><path d="M178.17,205.45l-79.25-46.9c-3.41-2.02-5.5-5.68-5.5-9.64v-83.95c0-2.59,2.78-4.23,5.05-2.97l79.06,43.9c3.56,1.98,5.77,5.73,5.77,9.8v86.84c0,2.63-2.86,4.27-5.13,2.92Z" style="fill:#fff; stroke:#606060; stroke-linecap:round; stroke-linejoin:round; stroke-width:.5px;"/><path d="M167.73,115.61l-61.86-32.95c-1.65-.88-3.65.32-3.65,2.19v8.29l-1.61.99v-1c0-.15-.05-.29-.13-.4v-10.9s-3.07-1.75-3.07-1.75l-64.04,37.36-.03.02h0v64.36l3.07,1.73v.02l9.64-5.66c.2.29.59.41.93.21l51.28-30.14c.74-.44,1.34-1.06,1.74-1.78l.49-1.28h0c.08-.34.13-.7.13-1.06v-8.22l1.61-.99v7.71c0,.91.16,1.8.46,2.64-.29.27-.46.65-.46,1.05,0,.51.27.98.71,1.24l3.18,1.87s0,0,0,0l62.06,36.48c1.66.97,3.74-.22,3.74-2.14v-60.93c0-2.91-1.6-5.58-4.17-6.95ZM100.61,130.51v-31.24l1.61-.99v31.24l-1.61.99Z" style="fill:#fff; stroke:#606060; stroke-linecap:round; stroke-linejoin:round; stroke-width:2px;"/><path d="M102.22,84.86v57.51c0,2.79,1.48,5.37,3.88,6.79l62.06,36.48c1.66.97,3.74-.22,3.74-2.14v-60.93c0-2.91-1.6-5.58-4.17-6.95l-61.86-32.95c-1.65-.88-3.65.32-3.65,2.19Z" style="fill:#fff; stroke:#606060; stroke-linecap:round; stroke-linejoin:round; stroke-width:.5px;"/><polygon points="97.4 80.09 100.48 81.84 97.4 144.17 36.41 183.57 33.33 181.83 33.33 117.47 97.4 80.09" style="fill:#fff; stroke:#606060; stroke-linecap:round; stroke-linejoin:round; stroke-width:.5px;"/><polygon points="33.33 181.83 36.41 183.57 48.18 175.97 53.21 127.84 33.39 117.43 33.33 117.47 33.33 181.83" style="fill:#fff; stroke:#606060; stroke-linecap:round; stroke-linejoin:round; stroke-width:.5px;"/><polygon points="100.48 81.85 99.39 146.56 36.4 183.59 36.4 119.22 100.48 81.85" style="fill:#e95420; stroke:#606060; stroke-linecap:round; stroke-linejoin:round; stroke-width:.5px;"/><path d="M102.22,146.05h0c0,.51.27.98.71,1.24l65.29,38.38c1.63.96,3.69-.22,3.69-2.11v-59.66c.19-4.72-2.06-7.15-5.35-8.9l-6.03-3.2-57.59,33.01c-.45.26-.72.73-.72,1.25Z" style="fill:#fff; stroke:#606060; stroke-linecap:round; stroke-linejoin:round; stroke-width:.5px;"/><path d="M103.1,97.74l-6.5,4s-.06.02-.17.04c-.04,0-.11.02-.17.03-.04,0-.08,0-.12.01-.3.02-.71-.01-1.09-.26-.06-.04-.12-.08-.17-.13-.25-.21-.47-.53-.62-1.01-.45-1.39.6-2.77.6-2.77l7.81-4.77s.1-.12.26.03c.11.1.19,4.83.19,4.83Z" style="fill:#fff; stroke:#606060; stroke-linecap:round; stroke-linejoin:round; stroke-width:.5px;"/><path d="M103.1,134.12l-6.5,4s-.06.02-.17.04c-.04,0-.11.02-.17.03-.04,0-.08,0-.12.01-.3.02-.71-.01-1.09-.26-.06-.04-.12-.08-.17-.13-.25-.21-.47-.53-.62-1.01-.45-1.39.6-2.77.6-2.77l7.81-4.77s.1-.12.26.03c.11.1.19,4.83.19,4.83Z" style="fill:#fff; stroke:#606060; stroke-linecap:round; stroke-linejoin:round; stroke-width:.5px;"/><path d="M97.32,90.8l2.96,1.63-4.34,50.17c-.16,1.11-.69,2.13-1.51,2.88l-48.41,32.82-3-1.77c-.66-.39-1.07-1.1-1.07-1.87v-49.96c0-1.73.92-3.33,2.41-4.2l50.57-29.67c.74-.43,1.65-.44,2.39-.03Z" style="fill:#fff; stroke:#606060; stroke-linecap:round; stroke-linejoin:round; stroke-width:.5px;"/><path d="M100.61,93.13v50.74c0,1.69-.9,3.26-2.36,4.12l-51.28,30.14c-.47.27-1.05-.06-1.05-.6v-50.97c0-1.7.9-3.27,2.37-4.13l51.27-29.9c.47-.27,1.05.06,1.05.6Z" style="fill:#fff; stroke:#606060; stroke-linecap:round; stroke-linejoin:round; stroke-width:.5px;"/><g style="mask:url(#b);"><path d="M109.63,143l29.27-16.67s1.02.98,3.17,2.09c2.15,1.11,1.49,2.97,1.49,2.97l-26.68,15.68c-.97.57-2.18.56-3.15-.02-.67-.41-1.49-.92-2.35-1.46-.88-.56-1.48-1.03-1.88-1.38-.38-.34-.32-.95.13-1.21Z" style="fill:#666; opacity:.2; stroke-width:0px;"/><polygon points="110.92 143.25 116.01 146.16 117.34 145.64 126.34 139 123.33 134.84 110.34 142.35 110.92 143.25" style="fill:#fff; stroke:#606060; stroke-linecap:round; stroke-linejoin:round; stroke-width:.5px;"/><path d="M110.07,142l.28.36,37.62-21.77v-31.52c0-.93-1.01-1.51-1.81-1.04l-17.93,10.38-2.49-1.24c-.96-.48-2.1-.44-3.02.1l-10.53,6.13c-1.45.84-2.33,2.39-2.33,4.06v33.77l.21.79Z" style="fill:#e95420; stroke:#606060; stroke-linecap:round; stroke-linejoin:round; stroke-width:.5px;"/><polygon points="111.14 142.64 149.25 120.59 149.25 91.68 111.14 113.74 111.14 142.01 111.14 142.35 111.14 142.64" style="fill:#e6e6e6; mix-blend-mode:multiply; stroke-width:0px;"/><polygon points="111.99 142.64 150.1 120.59 150.1 91.68 111.99 113.74 111.99 142.01 111.99 142.35 111.99 142.64" style="fill:#fff; stroke-width:0px;"/><polygon points="113.06 143.71 151.17 121.66 151.17 92.75 113.06 114.81 113.06 143.08 113.06 143.43 113.06 143.71" style="fill:#e6e6e6; mix-blend-mode:multiply; stroke-width:0px;"/><polygon points="113.92 143.71 152.03 121.66 152.03 92.75 113.92 114.81 113.92 143.08 113.92 143.43 113.92 143.71" style="fill:#fff; stroke-width:0px;"/><polygon points="114.56 144.78 152.67 122.73 152.67 93.82 114.56 115.88 114.56 144.15 114.56 144.5 114.56 144.78" style="fill:#e6e6e6; mix-blend-mode:multiply; stroke-width:0px;"/><polygon points="115.42 144.78 153.53 122.73 153.53 93.82 115.42 115.88 115.42 144.15 115.42 144.5 115.42 144.78" style="fill:#fff; stroke-width:0px;"/><path d="M117.34,145.85l36.21-20.95c1.18-.68,1.9-1.94,1.9-3.29v-24.62c0-.93-1.01-1.51-1.81-1.04l-33.76,19.53c-1.57.91-2.54,2.59-2.54,4.41v25.96Z" style="fill:#e95420; stroke:#606060; stroke-linecap:round; stroke-linejoin:round; stroke-width:.5px;"/><path d="M116.29,146.37c-.22,0-.43-.06-.63-.17l-4.08-2.33c-1.19-.68-1.94-1.96-1.94-3.34v-32.85c0-1.89,1.01-3.66,2.65-4.61l10.24-5.96c1.03-.6,2.32-.61,3.36-.03l2.16,1.2c1.43-.83,16.84-9.79,17.87-10.43,1-.61,1.82.18,2.04,1.04-.21-.86-.9-1.23-1.82-.67-1.09.67-17.82,10.4-17.99,10.49l-.11.06-2.38-1.32c-.91-.51-2.04-.5-2.94.03l-10.24,5.96c-1.5.87-2.44,2.5-2.44,4.24v32.85c0,1.22.66,2.36,1.72,2.97l4.08,2.33c.26.15.58.15.84,0,.26-.15.42-.43.42-.73v-25.2c0-1.9,1.02-3.66,2.66-4.61.33-.19,32.6-18.89,33.63-19.5.95-.56,2.04.18,2.04,1.25,0-.86-.95-1.4-1.82-.89-1.03.61-33.3,19.32-33.63,19.5-1.51.87-2.45,2.5-2.45,4.24v25.2c0,.46-.24.87-.63,1.1-.2.12-.42.17-.64.17Z" style="fill:#e95420; stroke:#606060; stroke-linecap:round; stroke-linejoin:round; stroke-width:.5px;"/><path d="M121.14,149.57l29.27-16.67s1.02.98,3.17,2.09c2.15,1.11,1.49,2.97,1.49,2.97l-26.68,15.68c-.97.57-2.18.56-3.15-.02-.67-.41-1.49-.92-2.35-1.46-.88-.56-1.48-1.03-1.88-1.38-.38-.34-.32-.95.13-1.21Z" style="fill:#666; opacity:.2; stroke-width:0px;"/><polygon points="122.42 149.82 127.51 152.73 128.85 152.21 137.84 145.57 134.84 141.41 121.84 148.93 122.42 149.82" style="fill:#fff; stroke:#606060; stroke-linecap:round; stroke-linejoin:round; stroke-width:.5px;"/><path d="M121.57,148.57l.28.36,37.62-21.77v-31.52c0-.93-1.01-1.51-1.81-1.04l-17.93,10.38-2.49-1.24c-.96-.48-2.1-.44-3.02.1l-10.53,6.13c-1.45.84-2.33,2.39-2.33,4.06v33.77l.21.79Z" style="fill:#e95420; stroke:#606060; stroke-linecap:round; stroke-linejoin:round; stroke-width:.5px;"/><polygon points="122.64 149.21 160.75 127.16 160.75 98.26 122.64 120.31 122.64 148.58 122.64 148.93 122.64 149.21" style="fill:#e6e6e6; mix-blend-mode:multiply; stroke-width:0px;"/><polygon points="123.49 149.21 161.6 127.16 161.6 98.26 123.49 120.31 123.49 148.58 123.49 148.93 123.49 149.21" style="fill:#fff; stroke-width:0px;"/><polygon points="124.56 150.28 162.67 128.23 162.67 99.33 124.56 121.38 124.56 149.65 124.56 150 124.56 150.28" style="fill:#e6e6e6; mix-blend-mode:multiply; stroke-width:0px;"/><polygon points="125.42 150.28 163.53 128.23 163.53 99.33 125.42 121.38 125.42 149.65 125.42 150 125.42 150.28" style="fill:#fff; stroke-width:0px;"/><polygon points="126.06 151.35 164.17 129.3 164.17 100.4 126.06 122.45 126.06 150.72 126.06 151.07 126.06 151.35" style="fill:#e6e6e6; mix-blend-mode:multiply; stroke-width:0px;"/><polygon points="126.92 151.35 165.03 129.3 165.03 100.4 126.92 122.45 126.92 150.72 126.92 151.07 126.92 151.35" style="fill:#fff; stroke-width:0px;"/><path d="M128.85,152.42l36.21-20.95c1.18-.68,1.9-1.94,1.9-3.29v-24.62c0-.93-1.01-1.51-1.81-1.04l-33.76,19.53c-1.57.91-2.54,2.59-2.54,4.41v25.96Z" style="fill:#e95420; stroke:#606060; stroke-linecap:round; stroke-linejoin:round; stroke-width:.5px;"/><path d="M127.79,152.94c-.22,0-.43-.06-.63-.17l-4.08-2.33c-1.19-.68-1.94-1.96-1.94-3.34v-32.85c0-1.89,1.01-3.66,2.65-4.61l10.24-5.96c1.03-.6,2.32-.61,3.36-.03l2.16,1.2c1.43-.83,16.84-9.79,17.87-10.43,1-.61,1.82.18,2.04,1.04-.21-.86-.9-1.23-1.82-.67-1.09.67-17.82,10.4-17.99,10.49l-.11.06-2.38-1.32c-.91-.51-2.04-.5-2.94.03l-10.24,5.96c-1.5.87-2.44,2.5-2.44,4.24v32.85c0,1.22.66,2.36,1.72,2.97l4.08,2.33c.26.15.58.15.84,0,.26-.15.42-.43.42-.73v-25.2c0-1.9,1.02-3.66,2.66-4.61.33-.19,32.6-18.89,33.63-19.5.95-.56,2.04.18,2.04,1.25,0-.86-.95-1.4-1.82-.89-1.03.61-33.3,19.32-33.63,19.5-1.51.87-2.45,2.5-2.45,4.24v25.2c0,.46-.24.87-.63,1.1-.2.12-.42.17-.64.17Z" style="fill:#e95420; stroke:#606060; stroke-linecap:round; stroke-linejoin:round; stroke-width:.5px;"/><path d="M132.64,156.69l29.27-16.67s1.02.98,3.17,2.09c2.15,1.11,1.49,2.97,1.49,2.97l-26.68,15.68c-.97.57-2.18.56-3.15-.02-.67-.41-1.49-.92-2.35-1.46-.88-.56-1.48-1.03-1.88-1.38-.38-.34-.32-.95.13-1.21Z" style="fill:#666; opacity:.2; stroke-width:0px;"/><polygon points="133.92 156.94 139.01 159.85 140.35 159.33 149.34 152.69 146.34 148.53 133.34 156.05 133.92 156.94" style="fill:#fff; stroke:#606060; stroke-linecap:round; stroke-linejoin:round; stroke-width:.5px;"/><path d="M133.07,155.69l.28.36,37.62-21.77v-31.52c0-.93-1.01-1.51-1.81-1.04l-17.93,10.38-2.49-1.24c-.96-.48-2.1-.44-3.02.1l-10.53,6.13c-1.45.84-2.33,2.39-2.33,4.06v33.77l.21.79Z" style="fill:#e95420; stroke:#606060; stroke-linecap:round; stroke-linejoin:round; stroke-width:.5px;"/><polygon points="134.14 156.33 172.25 134.28 172.25 105.38 134.14 127.43 134.14 155.7 134.14 156.05 134.14 156.33" style="fill:#e6e6e6; mix-blend-mode:multiply; stroke-width:0px;"/><polygon points="134.99 156.33 173.1 134.28 173.1 105.38 134.99 127.43 134.99 155.7 134.99 156.05 134.99 156.33" style="fill:#fff; stroke-width:0px;"/><polygon points="136.07 157.4 174.17 135.35 174.17 106.45 136.07 128.5 136.07 156.77 136.07 157.12 136.07 157.4" style="fill:#e6e6e6; mix-blend-mode:multiply; stroke-width:0px;"/><polygon points="136.92 157.4 175.03 135.35 175.03 106.45 136.92 128.5 136.92 156.77 136.92 157.12 136.92 157.4" style="fill:#fff; stroke-width:0px;"/><polygon points="137.56 158.47 175.67 136.42 175.67 107.52 137.56 129.57 137.56 157.84 137.56 158.19 137.56 158.47" style="fill:#e6e6e6; mix-blend-mode:multiply; stroke-width:0px;"/><polygon points="138.42 158.47 176.53 136.42 176.53 107.52 138.42 129.57 138.42 157.84 138.42 158.19 138.42 158.47" style="fill:#fff; stroke-width:0px;"/><path d="M140.35,159.54l36.21-20.95c1.18-.68,1.9-1.94,1.9-3.29v-24.62c0-.93-1.01-1.51-1.81-1.04l-33.76,19.53c-1.57.91-2.54,2.59-2.54,4.41v25.96Z" style="fill:#e95420; stroke:#606060; stroke-linecap:round; stroke-linejoin:round; stroke-width:.5px;"/><path d="M139.29,160.06c-.22,0-.43-.06-.63-.17l-4.08-2.33c-1.19-.68-1.94-1.96-1.94-3.34v-32.85c0-1.89,1.01-3.66,2.65-4.61l10.24-5.96c1.03-.6,2.32-.61,3.36-.03l2.16,1.2c1.43-.83,16.84-9.79,17.87-10.43,1-.61,1.82.18,2.04,1.04-.21-.86-.9-1.23-1.82-.67-1.09.67-17.82,10.4-17.99,10.49l-.11.06-2.38-1.32c-.91-.51-2.04-.5-2.94.03l-10.24,5.96c-1.5.87-2.44,2.5-2.44,4.24v32.85c0,1.22.66,2.36,1.72,2.97l4.08,2.33c.26.15.58.15.84,0,.26-.15.42-.43.42-.73v-25.2c0-1.9,1.02-3.66,2.66-4.61.33-.19,32.6-18.89,33.63-19.5.95-.56,2.04.18,2.04,1.25,0-.86-.95-1.4-1.82-.89-1.03.61-33.3,19.32-33.63,19.5-1.51.87-2.45,2.5-2.45,4.24v25.2c0,.46-.24.87-.63,1.1-.2.12-.42.17-.64.17Z" style="fill:#e95420; stroke:#606060; stroke-linecap:round; stroke-linejoin:round; stroke-width:.5px;"/><path d="M144.69,163.81l29.27-16.67s1.02.98,3.17,2.09c2.15,1.11,1.49,2.97,1.49,2.97l-26.68,15.68c-.97.57-2.18.56-3.15-.02-.67-.41-1.49-.92-2.35-1.46-.88-.56-1.48-1.03-1.88-1.38-.38-.34-.32-.95.13-1.21Z" style="fill:#666; opacity:.2; stroke-width:0px;"/><polygon points="145.97 164.06 151.06 166.97 152.4 166.45 161.39 159.81 158.39 155.65 145.39 163.17 145.97 164.06" style="fill:#fff; stroke:#606060; stroke-linecap:round; stroke-linejoin:round; stroke-width:.5px;"/><path d="M145.12,162.81l.28.36,37.62-21.77v-31.52c0-.93-1.01-1.51-1.81-1.04l-17.93,10.38-2.49-1.24c-.96-.48-2.1-.44-3.02.1l-10.53,6.13c-1.45.84-2.33,2.39-2.33,4.06v33.77l.21.79Z" style="fill:#e95420; stroke:#606060; stroke-linecap:round; stroke-linejoin:round; stroke-width:.5px;"/><polygon points="146.19 163.45 184.3 141.4 184.3 112.5 146.19 134.55 146.19 162.82 146.19 163.17 146.19 163.45" style="fill:#e6e6e6; mix-blend-mode:multiply; stroke-width:0px;"/><polygon points="147.04 163.45 185.15 141.4 185.15 112.5 147.04 134.55 147.04 162.82 147.04 163.17 147.04 163.45" style="fill:#fff; stroke-width:0px;"/><polygon points="148.11 164.52 186.22 142.47 186.22 113.57 148.11 135.62 148.11 163.89 148.11 164.24 148.11 164.52" style="fill:#e6e6e6; mix-blend-mode:multiply; stroke-width:0px;"/><polygon points="148.97 164.52 187.08 142.47 187.08 113.57 148.97 135.62 148.97 163.89 148.97 164.24 148.97 164.52" style="fill:#fff; stroke-width:0px;"/><polygon points="149.61 165.59 187.72 143.54 187.72 114.64 149.61 136.69 149.61 164.96 149.61 165.31 149.61 165.59" style="fill:#e6e6e6; mix-blend-mode:multiply; stroke-width:0px;"/><polygon points="150.47 165.59 188.58 143.54 188.58 114.64 150.47 136.69 150.47 164.96 150.47 165.31 150.47 165.59" style="fill:#fff; stroke-width:0px;"/><path d="M152.4,166.66l36.21-20.95c1.18-.68,1.9-1.94,1.9-3.29v-24.62c0-.93-1.01-1.51-1.81-1.04l-33.76,19.53c-1.57.91-2.54,2.59-2.54,4.41v25.96Z" style="fill:#e95420; stroke:#606060; stroke-linecap:round; stroke-linejoin:round; stroke-width:.5px;"/><path d="M151.34,167.18c-.22,0-.43-.06-.63-.17l-4.08-2.33c-1.19-.68-1.94-1.96-1.94-3.34v-32.85c0-1.89,1.01-3.66,2.65-4.61l10.24-5.96c1.03-.6,2.32-.61,3.36-.03l2.16,1.2c1.43-.83,16.84-9.79,17.87-10.43,1-.61,1.82.18,2.04,1.04-.21-.86-.9-1.23-1.81-.67-1.09.67-17.82,10.4-17.99,10.49l-.11.06-2.38-1.32c-.91-.51-2.04-.5-2.94.03l-10.24,5.96c-1.5.87-2.44,2.5-2.44,4.24v32.85c0,1.22.66,2.36,1.72,2.97l4.08,2.33c.26.15.58.15.84,0,.26-.15.42-.43.42-.73v-25.2c0-1.9,1.02-3.66,2.66-4.61.33-.19,32.6-18.89,33.63-19.5.95-.56,2.04.18,2.04,1.25,0-.86-.95-1.4-1.82-.89-1.03.61-33.3,19.32-33.63,19.5-1.51.87-2.45,2.5-2.45,4.24v25.2c0,.46-.24.87-.63,1.1-.2.12-.42.17-.64.17Z" style="fill:#e95420; stroke:#606060; stroke-linecap:round; stroke-linejoin:round; stroke-width:.5px;"/><path d="M156.74,170.93l29.27-16.67s1.02.98,3.17,2.09c2.15,1.11,1.49,2.97,1.49,2.97l-26.68,15.68c-.97.57-2.18.56-3.15-.02-.67-.41-1.49-.92-2.35-1.46-.88-.56-1.48-1.03-1.88-1.38-.38-.34-.32-.95.13-1.21Z" style="fill:#666; opacity:.2; stroke-width:0px;"/><polygon points="158.02 171.18 163.11 174.09 164.45 173.57 173.44 166.93 170.43 162.77 157.44 170.29 158.02 171.18" style="fill:#fff; stroke:#606060; stroke-linecap:round; stroke-linejoin:round; stroke-width:.5px;"/><path d="M157.17,169.93l.28.36,37.62-21.77v-31.52c0-.93-1.01-1.51-1.81-1.04l-17.93,10.38-2.49-1.24c-.96-.48-2.1-.44-3.02.1l-10.53,6.13c-1.45.84-2.33,2.39-2.33,4.06v33.77l.21.79Z" style="fill:#e95420; stroke:#606060; stroke-linecap:round; stroke-linejoin:round; stroke-width:.5px;"/><polygon points="158.24 170.57 196.35 148.52 196.35 119.62 158.24 141.67 158.24 169.94 158.24 170.29 158.24 170.57" style="fill:#e6e6e6; mix-blend-mode:multiply; stroke-width:0px;"/><polygon points="159.09 170.57 197.2 148.52 197.2 119.62 159.09 141.67 159.09 169.94 159.09 170.29 159.09 170.57" style="fill:#fff; stroke-width:0px;"/><polygon points="160.16 171.64 198.27 149.59 198.27 120.69 160.16 142.74 160.16 171.01 160.16 171.36 160.16 171.64" style="fill:#e6e6e6; mix-blend-mode:multiply; stroke-width:0px;"/><polygon points="161.02 171.64 199.13 149.59 199.13 120.69 161.02 142.74 161.02 171.01 161.02 171.36 161.02 171.64" style="fill:#fff; stroke-width:0px;"/><polygon points="161.66 172.71 199.77 150.66 199.77 121.76 161.66 143.81 161.66 172.08 161.66 172.43 161.66 172.71" style="fill:#e6e6e6; mix-blend-mode:multiply; stroke-width:0px;"/><polygon points="162.52 172.71 200.63 150.66 200.63 121.76 162.52 143.81 162.52 172.08 162.52 172.43 162.52 172.71" style="fill:#fff; stroke-width:0px;"/><path d="M164.45,173.78l36.21-20.95c1.18-.68,1.9-1.94,1.9-3.29v-24.62c0-.93-1.01-1.51-1.81-1.04l-33.76,19.53c-1.57.91-2.54,2.59-2.54,4.41v25.96Z" style="fill:#e95420; stroke:#606060; stroke-linecap:round; stroke-linejoin:round; stroke-width:.5px;"/><path d="M163.39,174.3c-.22,0-.43-.06-.63-.17l-4.08-2.33c-1.19-.68-1.94-1.96-1.94-3.34v-32.85c0-1.89,1.01-3.66,2.65-4.61l10.24-5.96c1.03-.6,2.32-.61,3.36-.03l2.16,1.2c1.43-.83,16.84-9.79,17.87-10.43,1-.61,1.82.18,2.04,1.04-.21-.86-.9-1.23-1.82-.67-1.09.67-17.82,10.4-17.99,10.49l-.11.06-2.38-1.32c-.91-.51-2.04-.5-2.94.03l-10.24,5.96c-1.5.87-2.44,2.5-2.44,4.24v32.85c0,1.22.66,2.36,1.72,2.97l4.08,2.33c.26.15.58.15.84,0,.26-.15.42-.43.42-.73v-25.2c0-1.9,1.02-3.66,2.66-4.61.33-.19,32.6-18.89,33.63-19.5.95-.56,2.04.18,2.04,1.25,0-.86-.95-1.4-1.82-.89-1.03.61-33.3,19.32-33.63,19.5-1.51.87-2.45,2.5-2.45,4.24v25.2c0,.46-.24.87-.63,1.1-.2.12-.42.17-.64.17Z" style="fill:#e95420; stroke:#606060; stroke-linecap:round; stroke-linejoin:round; stroke-width:.5px;"/></g><path d="M44.83,129.53c0-.65-.45-1.44-1.02-1.76-.27-.16-.51-.17-.7-.08h0s-.02,0-.02,0c0,0,0,0,0,0l-3.77,2.18,1.56,2.39,3.62-2.06h0c.2-.1.32-.33.32-.67Z" style="fill:#fff; stroke:#606060; stroke-linecap:round; stroke-linejoin:round; stroke-width:.5px;"/><ellipse cx="40.05" cy="131.12" rx=".83" ry="1.44" transform="translate(-60.2 37.59) rotate(-30)" style="fill:#fff; stroke:#606060; stroke-linecap:round; stroke-linejoin:round; stroke-width:.5px;"/><path d="M44.83,138.1c0-.65-.45-1.44-1.02-1.76-.27-.16-.51-.17-.7-.08h0s-.02,0-.02,0c0,0,0,0,0,0l-3.77,2.18,1.56,2.39,3.62-2.06h0c.2-.1.32-.33.32-.67Z" style="fill:#fff; stroke:#606060; stroke-linecap:round; stroke-linejoin:round; stroke-width:.5px;"/><ellipse cx="40.05" cy="139.69" rx=".83" ry="1.44" transform="translate(-64.48 38.74) rotate(-30)" style="fill:#fff; stroke:#606060; stroke-linecap:round; stroke-linejoin:round; stroke-width:.5px;"/><path d="M44.83,155.03c0-.65-.45-1.44-1.02-1.76-.27-.16-.51-.17-.7-.08h0s-.02,0-.02,0c0,0,0,0,0,0l-3.77,2.18,1.56,2.39,3.62-2.06h0c.2-.1.32-.33.32-.67Z" style="fill:#fff; stroke:#606060; stroke-linecap:round; stroke-linejoin:round; stroke-width:.5px;"/><ellipse cx="40.05" cy="156.62" rx=".83" ry="1.44" transform="translate(-72.95 41.01) rotate(-30)" style="fill:#fff; stroke:#606060; stroke-linecap:round; stroke-linejoin:round; stroke-width:.5px;"/><path d="M44.83,163.6c0-.65-.45-1.44-1.02-1.76-.27-.16-.51-.17-.7-.08h0s-.02,0-.02,0c0,0,0,0,0,0l-3.77,2.18,1.56,2.39,3.62-2.06h0c.2-.1.32-.33.32-.67Z" style="fill:#fff; stroke:#606060; stroke-linecap:round; stroke-linejoin:round; stroke-width:.5px;"/><ellipse cx="40.05" cy="165.19" rx=".83" ry="1.44" transform="translate(-77.23 42.16) rotate(-30)" style="fill:#fff; stroke:#606060; stroke-linecap:round; stroke-linejoin:round; stroke-width:.5px;"/><path d="M44.83,172.17c0-.65-.45-1.44-1.02-1.76-.27-.16-.51-.17-.7-.08h0s-.02,0-.02,0c0,0,0,0,0,0l-3.77,2.18,1.56,2.39,3.62-2.06h0c.2-.1.32-.33.32-.67Z" style="fill:#fff; stroke:#606060; stroke-linecap:round; stroke-linejoin:round; stroke-width:.5px;"/><ellipse cx="40.05" cy="173.76" rx=".83" ry="1.44" transform="translate(-81.52 43.31) rotate(-30)" style="fill:#fff; stroke:#606060; stroke-linecap:round; stroke-linejoin:round; stroke-width:.5px;"/><path d="M71.28,136.03v-9.04c0-2.21,1.56-4.92,3.48-6.02s3.48-.21,3.48,2.01v6.95s1.99-1.15,1.99-1.15v-6.95c0-3.48-2.45-4.9-5.47-3.16s-5.47,5.99-5.47,9.47v9.04s-4.29,2.48-4.29,2.48v17.21s19.51-11.27,19.51-11.27v-17.21s-13.23,7.64-13.23,7.64ZM75.78,141.26v6.23s-2.04,1.18-2.04,1.18v-6.23c-.65-.04-1.1-.59-1.1-1.51,0-1.35.95-2.99,2.12-3.67,1.17-.68,2.12-.13,2.12,1.22,0,.92-.44,1.98-1.1,2.78Z" style="fill:#666; opacity:.2; stroke-width:0px;"/></g></g></svg>