<svg xmlns="http://www.w3.org/2000/svg" width="1290.4" height="360.27" data-name="Layer 1"><path fill="#e95420" d="M0 0h233.93v360.27H0z"/><g fill="#fff"><circle cx="51.02" cy="237.8" r="24.55" class="cls-2"/><circle cx="153.26" cy="183.97" r="24.55" class="cls-2"/><path d="M106.39 301a59.81 59.81 0 0 1-40.77-31.1 35.3 35.3 0 0 1-21 2.58 80.36 80.36 0 0 0 75 50 35.14 35.14 0 0 1-7.21-20.48 60.85 60.85 0 0 1-6.02-1z" class="cls-2"/><circle cx="147.73" cy="301.11" r="24.55" class="cls-2"/><path d="M181.89 292.1a80.32 80.32 0 0 0 4-94.24A35.44 35.44 0 0 1 172.11 214a60.23 60.23 0 0 1-2 59.78 35.17 35.17 0 0 1 11.78 18.32zM49.13 202.59c.62 0 1.24-.05 1.87-.05a35.43 35.43 0 0 1 18.61 5.3 59.89 59.89 0 0 1 48.22-25.78 35.62 35.62 0 0 1 7.44-19.91 80.66 80.66 0 0 0-76.14 40.44z" class="cls-2"/></g><g stroke-width=".49"><path d="M318.71 118.82q-7.973 0-13.579-2.45a23.384 23.384 0 0 1-9.075-6.704 26.859 26.859 0 0 1-5.028-10.002 46.661 46.661 0 0 1-1.563-12.31v-50.37h7.84v49.355a36.978 36.978 0 0 0 1.563 11.384 21.944 21.944 0 0 0 4.332 7.92 16.931 16.931 0 0 0 6.704 4.625 26.491 26.491 0 0 0 17.573 0 16.931 16.931 0 0 0 6.704-4.626 21.944 21.944 0 0 0 4.332-7.919 36.978 36.978 0 0 0 1.563-11.384V36.983h7.84v50.395a46.661 46.661 0 0 1-1.563 12.31 26.859 26.859 0 0 1-4.993 10.002 23.404 23.404 0 0 1-9.07 6.704q-5.602 2.425-13.58 2.425zM373.97 60.911q1.96-1.5 6.297-3.18a28.422 28.422 0 0 1 10.232-1.676A27.295 27.295 0 0 1 402 58.368a23.894 23.894 0 0 1 8.492 6.473 28.559 28.559 0 0 1 5.263 9.884 41.893 41.893 0 0 1 1.789 12.54 37.439 37.439 0 0 1-2.137 13.064 28.054 28.054 0 0 1-6.012 9.8 25.844 25.844 0 0 1-9.233 6.205 32.087 32.087 0 0 1-11.976 2.126q-7.978 0-13.177-1.039a67.228 67.228 0 0 1-8.55-2.195V28.784l7.511-1.387zm0 49.126a33.734 33.734 0 0 0 5.12 1.098 62.406 62.406 0 0 0 8.959.52q9.707 0 15.608-6.303 5.9-6.301 5.88-18.087a41.197 41.197 0 0 0-1.044-9.423 21.988 21.988 0 0 0-3.351-7.743 16.784 16.784 0 0 0-6.067-5.258q-3.759-1.96-9.31-1.96a24.164 24.164 0 0 0-5.087.52 30.171 30.171 0 0 0-4.504 1.328 24.757 24.757 0 0 0-6.243 3.469zM478.35 115.03q-3.352.926-9.017 2.078a70.751 70.751 0 0 1-13.868 1.156q-6.703 0-11.212-1.96a18.166 18.166 0 0 1-7.281-5.547 22.483 22.483 0 0 1-3.98-8.698 48.337 48.337 0 0 1-1.21-11.212V57.329h7.512v31.093a53.046 53.046 0 0 0 .921 10.746q.927 4.41 3.01 7.11a11.702 11.702 0 0 0 5.39 3.92 23.394 23.394 0 0 0 8.036 1.216 64.925 64.925 0 0 0 9.247-.578q3.92-.579 4.97-1.044V57.329h7.511zM496.34 59.407q3.352-.916 9.017-2.078a70.751 70.751 0 0 1 13.868-1.156q6.82 0 11.388 1.96a17.509 17.509 0 0 1 7.281 5.606 22.953 22.953 0 0 1 3.872 8.727 50.689 50.689 0 0 1 1.156 11.202v33.401h-7.507V86.12a56.638 56.638 0 0 0-.872-10.782 17.94 17.94 0 0 0-2.891-7.164 11.271 11.271 0 0 0-5.317-3.989q-3.293-1.21-8.267-1.21a62.965 62.965 0 0 0-9.188.603q-3.872.573-5.028 1.038v52.468h-7.512zM567.46 57.329h23.821v6.37H567.46v31.79a32.239 32.239 0 0 0 .867 8.271 11.447 11.447 0 0 0 2.485 4.9 7.84 7.84 0 0 0 3.92 2.314 20.841 20.841 0 0 0 5.087.578q4.733 0 7.625-1.098a32.832 32.832 0 0 0 4.508-2.024l1.852 6.243q-1.622 1.044-5.664 2.367a27.986 27.986 0 0 1-8.787 1.333q-5.547 0-9.31-1.47a13.466 13.466 0 0 1-6.008-4.41 17.994 17.994 0 0 1-3.18-7.35 51.062 51.062 0 0 1-.922-10.404V39.762l7.512-1.386zM649.75 115.03q-3.362.926-9.017 2.078a70.805 70.805 0 0 1-13.873 1.156q-6.703 0-11.212-1.96a18.2 18.2 0 0 1-7.282-5.547 22.478 22.478 0 0 1-3.984-8.669 48.327 48.327 0 0 1-1.215-11.212V57.358h7.512v31.063a53.007 53.007 0 0 0 .927 10.746q.926 4.41 3.003 7.11a11.717 11.717 0 0 0 5.39 3.92 23.345 23.345 0 0 0 8.028 1.226 64.925 64.925 0 0 0 9.247-.578q3.92-.578 4.969-1.044V57.328h7.517z" class="cls-3"/></g><g stroke-width="1.045"><path d="M327.37 326.41q-9.652 0-20.452-.92-10.801-.918-19.303-3.216v-153.51q8.503-2.298 19.303-3.218 11.03-1.149 20.682-1.149 25.968 0 45.731 8.963 19.763 8.732 30.793 26.657 11.26 17.925 11.26 45.27 0 27.118-11.26 45.272-11.03 17.925-30.793 26.887-19.763 8.962-45.96 8.962zm1.838-15.397q33.551 0 50.327-17.465 17.005-17.695 17.005-48.258t-16.776-48.029q-16.776-17.465-50.327-17.465-11.26 0-16.776.69-5.515.689-7.123.919v128q1.608.23 6.894.919t16.776.69zM448.71 325.03V205.99h17.235v119.04zm8.732-144.55q-5.055 0-8.732-3.447-3.447-3.447-3.447-9.192 0-5.515 3.447-8.962 3.677-3.447 8.732-3.447t8.503 3.447q3.677 3.447 3.677 8.962 0 5.745-3.677 9.192-3.447 3.447-8.502 3.447zM530.06 327.79q-15.397 0-24.129-2.758-8.503-2.527-11.49-3.906l4.136-15.167q2.528.919 10.341 3.906 7.814 2.988 21.142 2.988 12.64 0 20.452-3.907 7.814-3.906 7.814-13.558 0-6.204-2.758-9.881-2.758-3.907-8.962-7.124-5.975-3.217-16.546-7.354-8.963-3.677-16.546-7.813-7.584-4.137-12.41-10.571-4.595-6.435-4.595-16.546 0-9.882 5.055-17.235 5.056-7.354 14.248-11.49 9.422-4.137 22.291-4.137 11.95 0 20.223 2.069 8.273 2.068 11.72 3.676l-3.906 14.937q-2.988-1.608-9.652-3.676-6.664-2.298-18.844-2.298-9.652 0-16.776 4.136-7.124 3.907-7.124 12.64 0 6.204 2.988 10.11 2.987 3.677 8.962 6.664t14.707 6.435q9.881 3.906 17.695 8.273 8.043 4.136 12.869 10.8 4.826 6.665 4.826 17.696 0 10.8-5.516 18.384-5.515 7.353-15.856 11.03-10.11 3.676-24.359 3.676zM654.38 327.56q-18.844 0-31.483-7.583-12.639-7.814-19.074-21.831t-6.434-32.403q0-18.614 6.664-32.632t19.074-21.83q12.639-8.044 29.874-8.044 9.422 0 17.925 1.609t13.328 4.136l-4.366 14.478q-4.596-2.068-10.341-3.447-5.745-1.378-15.167-1.378-19.074 0-29.185 12.409-9.882 12.409-9.882 34.7 0 13.788 4.137 24.359 4.136 10.34 13.328 16.316 9.192 5.745 24.359 5.745 8.962 0 15.627-2.069 6.894-2.068 10.11-3.676l3.447 14.707q-4.366 2.298-13.329 4.366-8.962 2.068-18.613 2.068zM758.25 327.79q-15.856 0-28.266-7.583-12.409-7.814-19.533-21.831-6.894-14.018-6.894-32.862t6.894-32.633q7.124-14.018 19.533-21.83 12.409-7.814 28.266-7.814 16.086 0 28.495 7.813 12.409 7.814 19.303 21.831 7.124 13.788 7.124 32.632t-7.124 32.862q-6.894 14.018-19.303 21.831-12.179 7.584-28.495 7.584zm0-15.397q11.49 0 19.763-5.745t12.639-16.316q4.596-10.571 4.596-24.819t-4.596-24.819q-4.366-10.571-12.639-16.316t-19.763-5.745q-11.26 0-19.533 5.745t-12.869 16.316q-4.366 10.571-4.366 24.819t4.366 24.819q4.596 10.571 12.869 16.316t19.533 5.745zM891.31 327.33q-17.925 0-28.495-6.664-10.341-6.894-14.937-19.303-4.366-12.41-4.366-28.725v-66.643h17.235v62.046q0 16.086 3.217 25.738t10.341 14.018q7.354 4.136 19.303 4.136 9.652 0 17.005-.92 7.583-1.148 9.881-1.837v-103.18H937.5v114.9q-6.894 1.838-18.614 4.136-11.49 2.298-27.576 2.298zM976.1 325.03V211.51q5.975-2.528 16.316-5.056 10.571-2.757 25.278-2.757 4.826 0 9.422.69 4.826.459 8.503 1.378 3.906.69 5.745 1.379l-3.447 14.707q-2.069-.92-7.814-1.839-5.745-1.149-14.707-1.149-8.732 0-14.478 1.38-5.745 1.148-7.583 2.067v102.72zM1088.7 327.79q-15.397 0-24.129-2.758-8.503-2.527-11.49-3.906l4.136-15.167q2.528.919 10.341 3.906 7.814 2.988 21.142 2.988 12.64 0 20.452-3.907t7.814-13.558q0-6.204-2.758-9.881-2.758-3.907-8.962-7.124-5.975-3.217-16.546-7.354-8.962-3.677-16.546-7.813-7.584-4.137-12.41-10.571-4.595-6.435-4.595-16.546 0-9.882 5.055-17.235 5.056-7.354 14.248-11.49 9.422-4.137 22.291-4.137 11.95 0 20.223 2.069 8.273 2.068 11.72 3.676l-3.906 14.937q-2.988-1.608-9.652-3.676-6.664-2.298-18.844-2.298-9.652 0-16.776 4.136-7.124 3.907-7.124 12.64 0 6.204 2.988 10.11 2.987 3.677 8.962 6.664 5.975 2.988 14.707 6.435 9.881 3.906 17.695 8.273 8.043 4.136 12.869 10.8 4.826 6.665 4.826 17.696 0 10.8-5.516 18.384-5.515 7.353-15.856 11.03-10.11 3.676-24.359 3.676zM1215.1 327.56q-20.912 0-34.011-8.043-12.869-8.043-19.074-22.061-5.975-14.018-5.975-31.942 0-20.912 7.584-34.7 7.583-13.788 19.533-20.682 12.18-6.894 25.508-6.894 14.937 0 25.738 6.434 11.03 6.205 17.005 19.303 5.975 12.87 5.975 32.862 0 1.609-.23 3.907 0 2.068-.23 3.907h-82.958q.92 20.223 10.8 31.483 10.112 11.03 31.254 11.03 11.72 0 19.074-2.069 7.583-2.298 10.8-3.906l2.988 14.478q-3.217 1.838-12.639 4.366-9.192 2.528-21.142 2.528zm-40.675-71.928h65.494q-.23-11.72-3.907-19.993-3.677-8.503-10.57-12.869-6.665-4.596-16.547-4.596-10.11 0-17.695 5.285-7.583 5.286-11.95 13.788-4.136 8.503-4.826 18.384z" style="white-space:pre"/></g></svg>