<?xml version="1.0" encoding="UTF-8" standalone="no"?>
<svg
   id="Layer_1"
   data-name="Layer 1"
   viewBox="0 0 1290.35 360.27"
   version="1.1"
   width="1290.35"
   height="360.26999"
   xmlns="http://www.w3.org/2000/svg"
   xmlns:svg="http://www.w3.org/2000/svg">
  <defs
     id="defs4">
    <rect
       x="272.10593"
       y="158.49173"
       width="1016.0157"
       height="301.69598"
       id="rect316" />
    <style
       id="style2">.cls-1{fill:#e95420;}.cls-2{fill:#fff;}.cls-3{fill:#111;}</style>
  </defs>
  <rect
     class="cls-1"
     width="233.92999"
     height="360.26999"
     id="rect6"
     x="0"
     y="0" />
  <circle
     class="cls-2"
     cx="51.02"
     cy="237.8"
     r="24.549999"
     id="circle8" />
  <circle
     class="cls-2"
     cx="153.25999"
     cy="183.97"
     r="24.549999"
     id="circle10" />
  <path
     class="cls-2"
     d="m 106.39,301 a 59.81,59.81 0 0 1 -40.77,-31.1 35.3,35.3 0 0 1 -21,2.58 80.36,80.36 0 0 0 75,50 35.14,35.14 0 0 1 -7.21,-20.48 60.85,60.85 0 0 1 -6.02,-1 z"
     id="path12" />
  <circle
     class="cls-2"
     cx="147.73"
     cy="301.10999"
     r="24.549999"
     id="circle14" />
  <path
     class="cls-2"
     d="m 181.89,292.1 a 80.32,80.32 0 0 0 4,-94.24 35.44,35.44 0 0 1 -13.78,16.14 60.23,60.23 0 0 1 -2,59.78 35.17,35.17 0 0 1 11.78,18.32 z"
     id="path16" />
  <path
     class="cls-2"
     d="m 49.13,202.59 c 0.62,0 1.24,-0.05 1.87,-0.05 a 35.43,35.43 0 0 1 18.61,5.3 59.89,59.89 0 0 1 48.22,-25.78 35.62,35.62 0 0 1 7.44,-19.91 80.66,80.66 0 0 0 -76.14,40.44 z"
     id="path18" />
  <path
     class="cls-3"
     d="m 318.70973,118.81882 q -7.97287,0 -13.57887,-2.45016 a 23.384461,23.384461 0 0 1 -9.07544,-6.70369 26.858808,26.858808 0 0 1 -5.02776,-10.001605 46.661115,46.661115 0 0 1 -1.56321,-12.309674 V 36.983013 h 7.84056 v 49.356306 a 36.978027,36.978027 0 0 0 1.56321,11.383506 21.943759,21.943759 0 0 0 4.3319,7.918975 16.930703,16.930703 0 0 0 6.70368,4.62591 26.491282,26.491282 0 0 0 17.57265,0 16.930703,16.930703 0 0 0 6.70368,-4.62591 21.943759,21.943759 0 0 0 4.3319,-7.918975 36.978027,36.978027 0 0 0 1.56321,-11.383506 V 36.983013 h 7.84056 v 50.39518 a 46.661115,46.661115 0 0 1 -1.56321,12.309672 26.858808,26.858808 0 0 1 -4.99345,10.001615 23.404063,23.404063 0 0 1 -9.07055,6.70367 q -5.6011,2.42567 -13.57886,2.42567 z"
     id="path20"
     style="stroke-width:0.490035" />
  <path
     class="cls-3"
     d="m 373.97095,60.911413 q 1.96014,-1.499506 6.29695,-3.180326 a 28.422019,28.422019 0 0 1 10.23193,-1.675919 27.294939,27.294939 0 0 1 11.50111,2.312964 23.894097,23.894097 0 0 1 8.49231,6.47336 28.559229,28.559229 0 0 1 5.26297,9.884002 41.893076,41.893076 0 0 1 1.78863,12.539991 37.438659,37.438659 0 0 1 -2.13655,13.064325 28.054493,28.054493 0 0 1 -6.01273,9.8007 25.844436,25.844436 0 0 1 -9.23226,6.20385 32.087479,32.087479 0 0 1 -11.97645,2.12674 q -7.97777,0 -13.17703,-1.03888 a 67.227876,67.227876 0 0 1 -8.55111,-2.19535 V 28.784731 l 7.51223,-1.386799 z m 0,49.125987 a 33.733996,33.733996 0 0 0 5.12087,1.09768 62.405933,62.405933 0 0 0 8.95783,0.51943 q 9.70759,0 15.60761,-6.30185 5.90002,-6.301835 5.88042,-18.087175 a 41.197226,41.197226 0 0 0 -1.04378,-9.423369 21.987862,21.987862 0 0 0 -3.35183,-7.74255 16.783692,16.783692 0 0 0 -6.06663,-5.258074 q -3.75857,-1.960139 -9.31067,-1.960139 a 24.163616,24.163616 0 0 0 -5.08656,0.519437 30.171443,30.171443 0 0 0 -4.50342,1.327994 24.756559,24.756559 0 0 0 -6.24304,3.469447 z"
     id="path22"
     style="stroke-width:0.490035" />
  <path
     class="cls-3"
     d="m 478.35327,115.03086 q -3.35184,0.92617 -9.01664,2.07774 a 70.751226,70.751226 0 0 1 -13.86799,1.15648 q -6.70368,0 -11.212,-1.96014 a 18.16559,18.16559 0 0 1 -7.28191,-5.54719 22.482797,22.482797 0 0 1 -3.97909,-8.69812 48.337034,48.337034 0 0 1 -1.21038,-11.211995 V 57.329259 h 7.51223 v 31.092706 a 53.046268,53.046268 0 0 0 0.92127,10.74647 q 0.92616,4.410305 3.00881,7.110395 a 11.702031,11.702031 0 0 0 5.39038,3.92028 23.394262,23.394262 0 0 0 8.03658,1.21529 64.924712,64.924712 0 0 0 9.24695,-0.57825 q 3.92028,-0.57824 4.96896,-1.04377 V 57.329259 h 7.51223 z"
     id="path24"
     style="stroke-width:0.490035" />
  <path
     class="cls-3"
     d="m 496.33754,59.407006 q 3.35184,-0.916365 9.01664,-2.077747 a 70.751226,70.751226 0 0 1 13.86799,-1.156483 q 6.82128,0 11.38841,1.96014 a 17.508944,17.508944 0 0 1 7.28192,5.605998 22.953231,22.953231 0 0 1 3.87127,8.72752 50.689201,50.689201 0 0 1 1.15648,11.202196 v 33.40078 h -7.50733 V 86.118804 a 56.638223,56.638223 0 0 0 -0.87226,-10.780766 17.940174,17.940174 0 0 0 -2.89121,-7.164309 11.270801,11.270801 0 0 0 -5.31688,-3.988883 q -3.29303,-1.210386 -8.26688,-1.210386 a 62.964573,62.964573 0 0 0 -9.18816,0.602742 q -3.87127,0.573341 -5.02775,1.038874 v 52.468034 h -7.51224 z"
     id="path26"
     style="stroke-width:0.490035" />
  <path
     class="cls-3"
     d="m 567.4563,57.329259 h 23.82059 v 6.370452 H 567.4563 v 31.788554 a 32.23939,32.23939 0 0 0 0.86736,8.271785 11.447213,11.447213 0 0 0 2.48447,4.90035 7.840557,7.840557 0 0 0 3.92028,2.31297 20.84118,20.84118 0 0 0 5.08656,0.57824 q 4.73374,0 7.62495,-1.09767 a 32.832332,32.832332 0 0 0 4.50832,-2.02385 l 1.85233,6.24305 q -1.62202,1.04376 -5.6648,2.36686 a 27.985888,27.985888 0 0 1 -8.78633,1.33289 q -5.54719,0 -9.31066,-1.4701 a 13.466157,13.466157 0 0 1 -6.00783,-4.41032 17.994078,17.994078 0 0 1 -3.18032,-7.35052 51.061627,51.061627 0 0 1 -0.92127,-10.403435 V 39.761511 l 7.51224,-1.386799 z"
     id="path28"
     style="stroke-width:0.490035" />
  <path
     class="cls-3"
     d="m 649.75274,115.03086 q -3.36164,0.92617 -9.01664,2.07774 a 70.80513,70.80513 0 0 1 -13.87288,1.15648 q -6.70368,0 -11.212,-1.96014 a 18.199893,18.199893 0 0 1 -7.28192,-5.54719 22.477897,22.477897 0 0 1 -3.98398,-8.66872 48.327233,48.327233 0 0 1 -1.21529,-11.211985 V 57.358661 h 7.51224 v 31.063304 a 53.007065,53.007065 0 0 0 0.92616,10.74647 q 0.92617,4.410305 3.00392,7.110405 a 11.716732,11.716732 0 0 0 5.39038,3.92028 23.345258,23.345258 0 0 0 8.02677,1.22509 64.924712,64.924712 0 0 0 9.24696,-0.57824 q 3.92027,-0.57825 4.96895,-1.04378 V 57.329259 h 7.51713 z"
     id="path30"
     style="stroke-width:0.490035" />
  <path
     d="m 327.37366,326.40926 q -9.65168,0 -20.45236,-0.91921 -10.80069,-0.91921 -19.30336,-3.21722 V 168.7652 q 8.50267,-2.29802 19.30336,-3.21723 11.03048,-1.14901 20.68216,-1.14901 25.96761,0 45.73057,8.96228 19.76295,8.73247 30.79344,26.65701 11.26029,17.92454 11.26029,45.27096 0,27.11662 -11.26029,45.27096 -11.03049,17.92455 -30.79344,26.88682 -19.76296,8.96227 -45.96037,8.96227 z m 1.83841,-15.39672 q 33.55107,0 50.32661,-17.46494 17.00533,-17.69475 17.00533,-48.25839 0,-30.56364 -16.77553,-48.02858 -16.77554,-17.46494 -50.3266,-17.46494 -11.26029,0 -16.77554,0.6894 -5.51524,0.68941 -7.12385,0.91921 v 127.99962 q 1.60861,0.2298 6.89405,0.91921 5.28544,0.68941 16.77553,0.68941 z"
     style="font-size:220px;line-height:1.25;font-family:Ubuntu;-inkscape-font-specification:Ubuntu;white-space:pre;display:inline;stroke-width:1.04455"
     id="path432" />
  <path
     d="M 448.70887,325.03045 V 205.9931 h 17.23514 v 119.03735 z m 8.73247,-144.54536 q -5.05564,0 -8.73247,-3.44702 -3.44703,-3.44703 -3.44703,-9.19208 0,-5.51524 3.44703,-8.96227 3.67683,-3.44703 8.73247,-3.44703 5.05564,0 8.50267,3.44703 3.67683,3.44703 3.67683,8.96227 0,5.74505 -3.67683,9.19208 -3.44703,3.44702 -8.50267,3.44702 z"
     style="font-size:220px;line-height:1.25;font-family:Ubuntu;-inkscape-font-specification:Ubuntu;white-space:pre;display:inline;stroke-width:1.04455"
     id="path434" />
  <path
     d="m 530.05873,327.78807 q -15.39672,0 -24.12919,-2.75762 -8.50267,-2.52782 -11.49009,-3.90663 l 4.13643,-15.16692 q 2.52782,0.9192 10.34108,3.90663 7.81327,2.98742 21.14177,2.98742 12.6391,0 20.45237,-3.90663 7.81326,-3.90663 7.81326,-13.55831 0,-6.20465 -2.75762,-9.88148 -2.75763,-3.90663 -8.96227,-7.12386 -5.97485,-3.21722 -16.54574,-7.35365 -8.96227,-3.67683 -16.54573,-7.81327 -7.58346,-4.13643 -12.4093,-10.57088 -4.59604,-6.43445 -4.59604,-16.54573 0,-9.88148 5.05565,-17.23514 5.05564,-7.35366 14.24771,-11.49009 9.42187,-4.13644 22.29078,-4.13644 11.94969,0 20.22256,2.06822 8.27286,2.06822 11.71989,3.67683 l -3.90663,14.93712 q -2.98742,-1.60861 -9.65168,-3.67683 -6.66425,-2.29802 -18.84375,-2.29802 -9.65167,0 -16.77553,4.13644 -7.12386,3.90663 -7.12386,12.6391 0,6.20465 2.98743,10.11128 2.98742,3.67683 8.96227,6.66425 5.97485,2.98742 14.70732,6.43445 9.88147,3.90663 17.69474,8.27287 8.04306,4.13643 12.8689,10.80068 4.82584,6.66426 4.82584,17.69475 0,10.80068 -5.51525,18.38414 -5.51524,7.35366 -15.85632,11.03049 -10.11128,3.67683 -24.359,3.67683 z"
     style="font-size:220px;line-height:1.25;font-family:Ubuntu;-inkscape-font-specification:Ubuntu;white-space:pre;display:inline;stroke-width:1.04455"
     id="path436" />
  <path
     d="m 654.38153,327.55827 q -18.84375,0 -31.48286,-7.58346 -12.6391,-7.81327 -19.07355,-21.83118 -6.43445,-14.01791 -6.43445,-32.40206 0,-18.61394 6.66425,-32.63186 6.66426,-14.01791 19.07356,-21.83117 12.6391,-8.04307 29.87424,-8.04307 9.42187,0 17.92454,1.60862 8.50267,1.60861 13.3285,4.13643 l -4.36623,14.47752 q -4.59604,-2.06822 -10.34108,-3.44703 -5.74505,-1.37881 -15.16692,-1.37881 -19.07356,0 -29.18484,12.4093 -9.88148,12.4093 -9.88148,34.70007 0,13.78811 4.13644,24.359 4.13643,10.34108 13.3285,16.31593 9.19208,5.74504 24.359,5.74504 8.96227,0 15.62652,-2.06821 6.89406,-2.06822 10.11128,-3.67683 l 3.44703,14.70732 q -4.36623,2.29801 -13.32851,4.36623 -8.96227,2.06822 -18.61394,2.06822 z"
     style="font-size:220px;line-height:1.25;font-family:Ubuntu;-inkscape-font-specification:Ubuntu;white-space:pre;display:inline;stroke-width:1.04455"
     id="path438" />
  <path
     d="m 758.25194,327.78807 q -15.85633,0 -28.26563,-7.58346 -12.4093,-7.81326 -19.53316,-21.83118 -6.89405,-14.01791 -6.89405,-32.86166 0,-18.84375 6.89405,-32.63186 7.12386,-14.01791 19.53316,-21.83117 12.4093,-7.81327 28.26563,-7.81327 16.08612,0 28.49542,7.81327 12.4093,7.81326 19.30336,21.83117 7.12385,13.78811 7.12385,32.63186 0,18.84375 -7.12385,32.86166 -6.89406,14.01792 -19.30336,21.83118 -12.17949,7.58346 -28.49542,7.58346 z m 0,-15.39672 q 11.49009,0 19.76295,-5.74505 8.27287,-5.74505 12.6391,-16.31593 4.59604,-10.57088 4.59604,-24.8186 0,-14.24771 -4.59604,-24.8186 -4.36623,-10.57088 -12.6391,-16.31593 -8.27286,-5.74504 -19.76295,-5.74504 -11.26029,0 -19.53316,5.74504 -8.27287,5.74505 -12.8689,16.31593 -4.36624,10.57089 -4.36624,24.8186 0,14.24772 4.36624,24.8186 4.59603,10.57088 12.8689,16.31593 8.27287,5.74505 19.53316,5.74505 z"
     style="font-size:220px;line-height:1.25;font-family:Ubuntu;-inkscape-font-specification:Ubuntu;white-space:pre;display:inline;stroke-width:1.04455"
     id="path440" />
  <path
     d="m 891.30696,327.32847 q -17.92455,0 -28.49543,-6.66426 -10.34108,-6.89405 -14.93712,-19.30335 -4.36623,-12.4093 -4.36623,-28.72523 V 205.9931 h 17.23513 v 62.04649 q 0,16.08613 3.21723,25.73781 3.21723,9.65168 10.34108,14.01791 7.35366,4.13643 19.30336,4.13643 9.65167,0 17.00533,-0.9192 7.58346,-1.14901 9.88148,-1.83842 V 205.9931 h 17.00534 v 114.90091 q -6.89406,1.83842 -18.61395,4.13644 -11.49009,2.29802 -27.57622,2.29802 z"
     style="font-size:220px;line-height:1.25;font-family:Ubuntu;-inkscape-font-specification:Ubuntu;white-space:pre;display:inline;stroke-width:1.04455"
     id="path442" />
  <path
     d="M 976.1037,325.03045 V 211.50834 q 5.97485,-2.52782 16.31593,-5.05564 10.57087,-2.75762 25.27817,-2.75762 4.8259,0 9.4219,0.6894 4.8259,0.45961 8.5027,1.37881 3.9067,0.68941 5.7451,1.37882 l -3.4471,14.70731 q -2.0682,-0.9192 -7.8132,-1.83841 -5.7451,-1.14901 -14.7074,-1.14901 -8.7325,0 -14.4775,1.37881 -5.74505,1.14901 -7.58346,2.06822 v 102.72142 z"
     style="font-size:220px;line-height:1.25;font-family:Ubuntu;-inkscape-font-specification:Ubuntu;white-space:pre;display:inline;stroke-width:1.04455"
     id="path444" />
  <path
     d="m 1088.7064,327.78807 q -15.3967,0 -24.1292,-2.75762 -8.5026,-2.52782 -11.49,-3.90663 l 4.1364,-15.16692 q 2.5278,0.9192 10.3411,3.90663 7.8132,2.98742 21.1417,2.98742 12.6391,0 20.4524,-3.90663 7.8133,-3.90663 7.8133,-13.55831 0,-6.20465 -2.7577,-9.88148 -2.7576,-3.90663 -8.9622,-7.12386 -5.9749,-3.21722 -16.5458,-7.35365 -8.9622,-3.67683 -16.5457,-7.81327 -7.5835,-4.13643 -12.4093,-10.57088 -4.596,-6.43445 -4.596,-16.54573 0,-9.88148 5.0556,-17.23514 5.0557,-7.35366 14.2477,-11.49009 9.4219,-4.13644 22.2908,-4.13644 11.9497,0 20.2226,2.06822 8.2728,2.06822 11.7199,3.67683 l -3.9067,14.93712 q -2.9874,-1.60861 -9.6516,-3.67683 -6.6643,-2.29802 -18.8438,-2.29802 -9.6517,0 -16.7755,4.13644 -7.1239,3.90663 -7.1239,12.6391 0,6.20465 2.9874,10.11128 2.9875,3.67683 8.9623,6.66425 5.9749,2.98742 14.7073,6.43445 9.8815,3.90663 17.6948,8.27287 8.043,4.13643 12.8689,10.80068 4.8258,6.66426 4.8258,17.69475 0,10.80068 -5.5152,18.38414 -5.5153,7.35366 -15.8564,11.03049 -10.1112,3.67683 -24.359,3.67683 z"
     style="font-size:220px;line-height:1.25;font-family:Ubuntu;-inkscape-font-specification:Ubuntu;white-space:pre;display:inline;stroke-width:1.04455"
     id="path446" />
  <path
     d="m 1215.0976,327.55827 q -20.912,0 -34.0107,-8.04307 -12.8689,-8.04306 -19.0736,-22.06097 -5.9748,-14.01791 -5.9748,-31.94246 0,-20.91196 7.5834,-34.70008 7.5835,-13.78811 19.5332,-20.68216 12.1795,-6.89406 25.508,-6.89406 14.9371,0 25.7378,6.43446 11.0305,6.20465 17.0053,19.30335 5.9749,12.8689 5.9749,32.86166 0,1.60862 -0.2298,3.90663 0,2.06822 -0.2298,3.90664 h -82.9585 q 0.9192,20.22256 10.8007,31.48285 10.1113,11.03048 31.2531,11.03048 11.7199,0 19.0735,-2.06821 7.5835,-2.29802 10.8007,-3.90663 l 2.9874,14.47751 q -3.2172,1.83842 -12.6391,4.36624 -9.192,2.52782 -21.1417,2.52782 z m -40.675,-71.92798 h 65.4936 q -0.2298,-11.71989 -3.9067,-19.99276 -3.6768,-8.50266 -10.5709,-12.8689 -6.6642,-4.59604 -16.5457,-4.59604 -10.1113,0 -17.6947,5.28545 -7.5835,5.28544 -11.9497,13.78811 -4.1365,8.50266 -4.8259,18.38414 z"
     style="font-size:220px;line-height:1.25;font-family:Ubuntu;-inkscape-font-specification:Ubuntu;white-space:pre;display:inline;stroke-width:1.04455"
     id="path448" />
</svg>
