<?xml version="1.0" encoding="UTF-8"?><svg id="a" xmlns="http://www.w3.org/2000/svg" viewBox="0 0 280 280"><polygon points="115.27 250.68 112.31 248.97 111.67 249.34 114.63 251.05 111.67 252.76 112.31 253.13 115.27 251.42 118.24 253.13 118.88 252.76 115.92 251.05 118.88 249.34 118.24 248.97 115.27 250.68" style="fill:#e95420; fill-rule:evenodd; stroke-width:0px;"/><polygon points="31.45 177.68 28.48 175.97 27.84 176.34 30.8 178.05 27.84 179.77 28.48 180.14 31.45 178.43 34.41 180.14 35.05 179.77 32.09 178.05 35.05 176.34 34.41 175.97 31.45 177.68" style="fill:#e95420; fill-rule:evenodd; stroke-width:0px;"/><polygon points="232.27 128.73 229.31 127.02 228.66 127.39 231.63 129.1 228.66 130.81 229.31 131.18 232.27 129.47 235.23 131.18 235.88 130.81 232.91 129.1 235.88 127.39 235.23 127.02 232.27 128.73" style="fill:#e95420; fill-rule:evenodd; stroke-width:0px;"/><polygon points="248.55 147.44 245.59 145.73 244.95 146.1 247.91 147.81 244.95 149.52 245.59 149.9 248.55 148.18 251.52 149.9 252.16 149.52 249.2 147.81 252.16 146.1 251.52 145.73 248.55 147.44" style="fill:#e95420; fill-rule:evenodd; stroke-width:0px;"/><polygon points="44.07 209.18 41.11 207.47 40.47 207.84 43.43 209.55 40.47 211.26 41.11 211.63 44.07 209.92 47.04 211.63 47.68 211.26 44.72 209.55 47.68 207.84 47.04 207.47 44.07 209.18" style="fill:#e95420; fill-rule:evenodd; stroke-width:0px;"/><path d="M63.16,242.68s-2.48-1.65-2.51-1.69l-3.55.67s-.3,2.18-.31,2.21l-5.77-.27s.26-2.18.28-2.22l-3.33-.98s-2.87,1.41-2.92,1.44l-3.77-2.55c.05-.03,2.85-1.43,2.9-1.45l-1.16-2.06c-.06,0-3.76-.18-3.82-.19l.44-3.34c.07,0,3.77.16,3.83.17l1.69-1.93c-.12-.07-2.44-1.67-2.49-1.7l4.4-2.18s2.48,1.65,2.51,1.69l3.55-.67s.3-2.18.31-2.21l5.77.27s-.26,2.18-.28,2.22l3.33.98s2.87-1.41,2.92-1.44l3.77,2.55c-.05.03-2.85,1.43-2.9,1.45l1.16,2.06c.06,0,3.76.18,3.82.19l-.44,3.34c-.07,0-3.77-.16-3.83-.17l-1.69,1.93c.12.07,2.44,1.67,2.49,1.7l-4.4,2.18ZM54.72,237.63c2.84.13,5.32-1.09,5.54-2.74.12-.91-.47-1.75-1.51-2.35-.84-.48-1.97-.81-3.24-.86-2.84-.13-5.32,1.09-5.54,2.74-.12.91.47,1.75,1.51,2.35.84.48,1.97.81,3.24.86h0Z" style="fill:#666; opacity:.2; stroke-width:0px;"/><path d="M241.11,242.82s-1.79-1.2-1.82-1.22l-2.57.48s-.22,1.58-.22,1.6l-4.18-.19s.19-1.58.2-1.61l-2.41-.71s-2.08,1.02-2.12,1.04l-2.73-1.85s2.06-1.04,2.1-1.05l-.84-1.49s-2.72-.13-2.77-.13l.32-2.42s2.73.11,2.77.12l1.22-1.39c-.08-.05-1.77-1.21-1.8-1.23l3.18-1.58s1.8,1.2,1.82,1.22l2.57-.48s.22-1.58.22-1.6l4.18.19s-.19,1.58-.2,1.61l2.41.71s2.08-1.02,2.12-1.04l2.73,1.85s-2.06,1.04-2.1,1.05l.84,1.49s2.72.13,2.77.13l-.32,2.42s-2.73-.11-2.77-.12l-1.22,1.39c.08.05,1.77,1.21,1.8,1.23l-3.18,1.58ZM235,239.16c2.06.1,3.85-.79,4.01-1.98.09-.66-.34-1.27-1.09-1.7-.61-.35-1.43-.58-2.35-.63-2.06-.1-3.85.79-4.01,1.98-.09.66.34,1.27,1.09,1.7.61.35,1.43.58,2.35.63h0Z" style="fill:#666; opacity:.2; stroke-width:0px;"/><ellipse cx="152.93" cy="188.09" rx="95.17" ry="54.94" style="fill:#666; opacity:.2; stroke-width:0px;"/><path d="M78.05,143.37c-11.04,6.37-18.71,13.95-23.03,22h-4.18v15.93h0c0,.72.02,1.44.07,2.16.9,13,9.94,25.85,27.13,35.78,17.41,10.05,40,15.27,62.81,15.68v-107.23c-22.8.41-45.4,5.63-62.8,15.68Z" style="fill:#fff; stroke:#606060; stroke-linecap:round; stroke-linejoin:round; stroke-width:2px;"/><path d="M209.45,219.23c17.19-9.93,26.24-22.78,27.13-35.78.05-.72.07-1.43.07-2.15h.01v-15.93h-4.18c-4.32-8.05-11.99-15.63-23.03-22-18.88-10.9-43.86-16.13-68.6-15.68v107.23c24.73.44,49.72-4.78,68.6-15.68Z" style="fill:#fff; stroke:#606060; stroke-linecap:round; stroke-linejoin:round; stroke-width:2px;"/><path d="M209.46,127.44c-36.28-20.95-95.12-20.95-131.4,0-19.09,11.02-28.13,25.65-27.13,40.09.9,13,9.94,25.85,27.13,35.78,36.28,20.95,95.12,20.95,131.4,0,17.19-9.93,26.24-22.78,27.13-35.78,1-14.44-8.04-29.06-27.13-40.09Z" style="fill:#fff; stroke:#606060; stroke-linecap:round; stroke-linejoin:round; stroke-width:2px;"/><ellipse cx="143.75" cy="165.37" rx="82.59" ry="47.69" style="fill:#fff; stroke:#606060; stroke-linecap:round; stroke-linejoin:round; stroke-width:2px;"/><ellipse cx="143.36" cy="166.03" rx="83.78" ry="48.37" style="fill:#fff; stroke:#606060; stroke-linecap:round; stroke-linejoin:round; stroke-width:2px;"/><path d="M87.15,198.05c15.12,8.73,35.22,13.54,56.61,13.54,21.38,0,41.49-4.81,56.61-13.54,14.24-8.22,22.45-18.99,23.36-30.53-.91-11.54-9.12-22.31-23.36-30.53-15.12-8.73-35.22-13.54-56.61-13.54-21.38,0-41.49,4.81-56.61,13.54-14.24,8.22-22.45,18.99-23.36,30.53.91,11.54,9.12,22.31,23.36,30.53Z" style="fill:#fff; stroke:#606060; stroke-linecap:round; stroke-linejoin:round; stroke-width:2px;"/><path d="M87.15,137c15.12-8.73,35.22-13.54,56.61-13.54,21.38,0,41.49,4.81,56.61,13.54,14.24,8.22,22.45,18.99,23.36,30.53.06-.72.09-1.43.09-2.15,0-12.35-8.33-23.95-23.45-32.68-15.12-8.73-35.22-13.54-56.61-13.54-21.38,0-41.49,4.81-56.61,13.54-15.12,8.73-23.45,20.34-23.45,32.68,0,.72.03,1.44.09,2.16.91-11.54,9.12-22.31,23.36-30.53Z" style="fill:#fff; stroke:#606060; stroke-linecap:round; stroke-linejoin:round; stroke-width:2px;"/><path d="M209.46,127.44c-36.28-20.95-95.12-20.95-131.4,0-19.09,11.02-28.13,25.65-27.13,40.09.9,13,9.94,25.85,27.13,35.78,36.28,20.95,95.12,20.95,131.4,0,17.19-9.93,26.24-22.78,27.13-35.78,1-14.44-8.04-29.06-27.13-40.09ZM223.72,167.52c-.91,11.54-9.12,22.31-23.36,30.53-15.12,8.73-35.22,13.54-56.61,13.54-21.38,0-41.49-4.81-56.61-13.54-14.24-8.22-22.45-18.99-23.36-30.53-.06-.72-.09-1.43-.09-2.16,0-12.35,8.33-23.95,23.45-32.68,15.12-8.73,35.22-13.54,56.61-13.54,21.38,0,41.49,4.81,56.61,13.54,15.12,8.73,23.45,20.34,23.45,32.68,0,.72-.03,1.44-.09,2.15Z" style="fill:#fff; stroke:#606060; stroke-linecap:round; stroke-linejoin:round; stroke-width:2px;"/><path d="M78.05,143.37c-11.04,6.37-18.71,13.95-23.03,22h-4.18v15.93h0c0,.72.02,1.44.07,2.16.9,13,9.94,25.85,27.13,35.78,17.41,10.05,40,15.27,62.81,15.68v-107.23c-22.8.41-45.4,5.63-62.8,15.68Z" style="fill:#fff; stroke:#606060; stroke-linecap:round; stroke-linejoin:round; stroke-width:.5px;"/><path d="M209.45,219.23c17.19-9.93,26.24-22.78,27.13-35.78.05-.72.07-1.43.07-2.15h.01v-15.93h-4.18c-4.32-8.05-11.99-15.63-23.03-22-18.88-10.9-43.86-16.13-68.6-15.68v107.23c24.73.44,49.72-4.78,68.6-15.68Z" style="fill:#e95420; stroke:#606060; stroke-linecap:round; stroke-linejoin:round; stroke-width:.5px;"/><path d="M209.46,127.44c-36.28-20.95-95.12-20.95-131.4,0-19.09,11.02-28.13,25.65-27.13,40.09.9,13,9.94,25.85,27.13,35.78,36.28,20.95,95.12,20.95,131.4,0,17.19-9.93,26.24-22.78,27.13-35.78,1-14.44-8.04-29.06-27.13-40.09Z" style="fill:#fff; stroke:#606060; stroke-linecap:round; stroke-linejoin:round; stroke-width:.5px;"/><ellipse cx="143.75" cy="165.37" rx="82.59" ry="47.69" style="fill:#fff; stroke:#606060; stroke-linecap:round; stroke-linejoin:round; stroke-width:.5px;"/><g style="opacity:.2;"><path d="M92.35,140.06c32.72-18.89,85.76-18.89,118.48,0,3.3,1.9,6.25,3.93,8.88,6.04-4.05-5.17-9.75-10.02-17.11-14.27-32.72-18.89-85.76-18.89-118.48,0-29.42,16.99-32.38,43.46-8.89,62.36-13.94-17.81-8.24-39.49,17.11-54.13Z" style="fill:#666; stroke-width:0px;"/></g><path d="M87.15,198.05c15.12,8.73,35.22,13.54,56.61,13.54,21.38,0,41.49-4.81,56.61-13.54,14.24-8.22,22.45-18.99,23.36-30.53-.91-11.54-9.12-22.31-23.36-30.53-15.12-8.73-35.22-13.54-56.61-13.54-21.38,0-41.49,4.81-56.61,13.54-14.24,8.22-22.45,18.99-23.36,30.53.91,11.54,9.12,22.31,23.36,30.53Z" style="fill:none; stroke-width:0px;"/><path d="M87.15,137c15.12-8.73,35.22-13.54,56.61-13.54,21.38,0,41.49,4.81,56.61,13.54,14.24,8.22,22.45,18.99,23.36,30.53.06-.72.09-1.43.09-2.15,0-12.35-8.33-23.95-23.45-32.68-15.12-8.73-35.22-13.54-56.61-13.54-21.38,0-41.49,4.81-56.61,13.54-15.12,8.73-23.45,20.34-23.45,32.68,0,.72.03,1.44.09,2.16.91-11.54,9.12-22.31,23.36-30.53Z" style="fill:#fff; stroke:#606060; stroke-linecap:round; stroke-linejoin:round; stroke-width:.5px;"/><path d="M87.15,137c15.12-8.73,35.22-13.54,56.61-13.54,21.38,0,41.49,4.81,56.61,13.54,14.24,8.22,22.45,18.99,23.36,30.53.06-.72.09-1.43.09-2.15,0-12.35-8.33-23.95-23.45-32.68-15.12-8.73-35.22-13.54-56.61-13.54-21.38,0-41.49,4.81-56.61,13.54-15.12,8.73-23.45,20.34-23.45,32.68,0,.72.03,1.44.09,2.16.91-11.54,9.12-22.31,23.36-30.53Z" style="fill:#e95420; stroke:#606060; stroke-linecap:round; stroke-linejoin:round; stroke-width:.5px;"/><path d="M209.46,127.44c-36.28-20.95-95.12-20.95-131.4,0-19.09,11.02-28.13,25.65-27.13,40.09.9,13,9.94,25.85,27.13,35.78,36.28,20.95,95.12,20.95,131.4,0,17.19-9.93,26.24-22.78,27.13-35.78,1-14.44-8.04-29.06-27.13-40.09ZM223.72,167.52c-.91,11.54-9.12,22.31-23.36,30.53-15.12,8.73-35.22,13.54-56.61,13.54-21.38,0-41.49-4.81-56.61-13.54-14.24-8.22-22.45-18.99-23.36-30.53-.06-.72-.09-1.43-.09-2.16,0-12.35,8.33-23.95,23.45-32.68,15.12-8.73,35.22-13.54,56.61-13.54,21.38,0,41.49,4.81,56.61,13.54,15.12,8.73,23.45,20.34,23.45,32.68,0,.72-.03,1.44-.09,2.15Z" style="fill:#fff; stroke:#606060; stroke-linecap:round; stroke-linejoin:round; stroke-width:.5px;"/><ellipse cx="143.7" cy="166.9" rx="56.62" ry="32.69" style="fill:#666; opacity:.2; stroke-width:0px;"/><path d="M197.25,35.27h0s-7.62-4.41-7.62-4.41h0c-1.12-.68-2.61-.72-4.27.02-1.03.46-2.03,1.16-2.94,2.01v-.02c-8.76,7.85-17.05,14.58-23.95,19.91,1.89-3.79,3.03-7.88,3.03-11.63,0-4.46-1.61-7.55-4.2-8.92h0s-7.66-4.44-7.66-4.44c-.02-.01-.05-.03-.07-.04l-.08-.05h0c-2.46-1.35-5.81-1.12-9.52,1.02-7.52,4.34-13.62,14.91-13.62,23.6,0,4.24,1.46,7.24,3.82,8.7l-.02.03,8.14,4.69h0c.45.24.93.42,1.44.57-2.53,1.24-21.06,10.14-42.32,15.63v.02c-.92.2-1.92.66-2.95,1.39-3.43,2.43-6.15,7.39-6.3,11.46-.09,2.38.67,4.06,1.94,4.89v.03s8.13,4.69,8.13,4.69h0c.65.34,1.41.47,2.26.38,1.69,0,9.5-.2,23.66-3.34-.02.24-.04.49-.08.74l-10.7,74.13h.03c-.08.55-.13,1.11-.13,1.65,0,2.54.9,4.32,2.36,5.13h0s7.82,4.52,7.82,4.52c.02.01.04.02.06.03l.06.04h0c1.42.76,3.35.63,5.49-.6,3.64-2.1,6.69-6.71,7.61-11.1h.03s8.03-45.76,8.03-45.76l6.25,28.38.03-.03c.35,1.29,1.03,2.24,1.94,2.8h0s7.95,4.59,7.95,4.59h0c1.43.85,3.42.75,5.62-.52,4.36-2.52,7.9-8.64,7.9-13.68,0-.54-.05-1.04-.13-1.51l.03-.02-10.7-61.77c-.59-3.51,1.42-8.43,4.67-11.42,16.17-14.83,25-24.81,26.81-26.9,2.7-2.83,4.58-7.03,4.44-10.56-.08-2.16-.96-3.68-2.31-4.34Z" style="fill:#fff; stroke:#606060; stroke-linecap:round; stroke-linejoin:round; stroke-width:2px;"/><path d="M130.16,61.02l-.02.03,8.14,4.69,4.09-7.2c5.71-4.47,10.18-12.33,11.05-19.49l3.88-6.84-7.66-4.42s-.05-.03-.07-.04l-.08-.05h0c-2.46-1.35-5.81-1.12-9.52,1.02-7.52,4.34-13.62,14.91-13.62,23.6,0,4.24,1.46,7.24,3.82,8.7Z" style="fill:#fff; stroke:#606060; stroke-linecap:round; stroke-linejoin:round; stroke-width:.5px;"/><path d="M189.63,30.86h0c-1.12-.67-2.61-.72-4.27.02-1.03.46-2.03,1.16-2.94,2.01v-.02c-21.86,19.59-40.84,32.26-42.5,33.35-1.66.82-20.65,10.07-42.5,15.72v.02c-.92.2-1.92.66-2.95,1.39-3.43,2.43-6.15,7.39-6.3,11.46-.09,2.38.67,4.06,1.94,4.89v.03s8.13,4.69,8.13,4.69l2.05-4.73c4.48-.52,10.83-1.54,19.13-3.51,3.25-.77,5.26,1.83,4.67,6.02l-10.7,74.13h.03c-.08.55-.13,1.11-.13,1.65,0,2.54.9,4.32,2.36,5.13h0s7.95,4.59,7.95,4.59l3.42-7.89-1.72-.99c1.69-2.17,2.96-4.82,3.5-7.39h.03s8.2-46.7,8.2-46.7c.7-3.96,5.09-6.5,5.78-3.34l8.2,37.22.03-.03c.35,1.29,1.03,2.24,1.94,2.8h0s7.95,4.59,7.95,4.59l3.42-7.88-1.58-.91c2.27-2.91,3.78-6.66,3.78-9.96,0-.54-.05-1.04-.13-1.51l.03-.02-10.7-61.77c-.59-3.51,1.42-8.43,4.67-11.42,16.17-14.83,25-24.8,26.81-26.9,1.23-1.29,2.27-2.86,3.05-4.53l3.56,2.06,3.42-7.89-7.62-4.4Z" style="fill:#fff; stroke:#606060; stroke-linecap:round; stroke-linejoin:round; stroke-width:.5px;"/><ellipse cx="147.87" cy="49.01" rx="19.27" ry="11.12" transform="translate(31.48 152.56) rotate(-60)" style="fill:#e95420; stroke:#606060; stroke-linecap:round; stroke-linejoin:round; stroke-width:.5px;"/><path d="M193.25,35.43c-1.03.46-2.03,1.16-2.94,2.01v-.02c-21.86,19.59-40.84,32.26-42.5,33.35-1.66.82-20.65,10.07-42.5,15.72v.02c-.92.2-1.92.66-2.95,1.39-3.43,2.43-6.15,7.39-6.3,11.46-.13,3.68,1.74,5.72,4.44,5.43,1.81,0,10.64-.23,26.81-4.06,3.25-.77,5.26,1.83,4.67,6.02l-10.7,74.13h.03c-.08.55-.13,1.11-.13,1.65,0,5.04,3.53,7.08,7.9,4.56,3.64-2.1,6.69-6.71,7.61-11.1h.03s8.2-46.7,8.2-46.7c.7-3.96,5.09-6.5,5.78-3.34l8.2,37.22.03-.03c.92,3.34,3.97,4.42,7.61,2.32,4.36-2.52,7.9-8.64,7.9-13.68,0-.54-.05-1.04-.13-1.51l.03-.02-10.7-61.77c-.59-3.51,1.42-8.43,4.67-11.42,16.17-14.83,25-24.81,26.81-26.9,2.7-2.83,4.58-7.03,4.44-10.56-.15-3.89-2.87-5.71-6.3-4.18Z" style="fill:#e95420; stroke:#606060; stroke-linecap:round; stroke-linejoin:round; stroke-width:.5px;"/></svg>