<svg width="154" height="172" viewBox="0 0 154 172" fill="none" xmlns="http://www.w3.org/2000/svg">
<path d="M1.57368 171.333C1.33799 171.333 1.19658 171.286 1.05516 171.215C0.890177 171.098 0.819468 170.956 0.795898 170.791C0.795898 170.744 0.913744 165.747 2.91712 165.3C3.50635 165.158 4.28414 165.158 5.03835 165.135C6.12253 165.111 7.44241 165.064 7.56026 164.592C7.60739 164.38 7.60739 164.145 7.63096 163.909C7.70167 163.108 7.77238 162.165 8.99797 161.741C9.98788 161.411 10.7421 159.619 11.8263 157.074C12.1562 156.296 12.5334 155.448 12.934 154.528C14.7489 150.522 16.5401 144.111 17.0115 141.424C17.4593 138.666 18.6849 136.474 20.6176 134.801C18.9442 130.464 17.6243 127.023 18.3785 125.68C19.1799 124.218 20.6647 123.747 29.8096 124.148C30.1631 123.205 30.4931 122.239 30.7052 121.202C31.0823 119.316 31.153 116.865 31.2237 114.225C31.2709 112.34 31.3416 110.313 31.483 108.309C31.0587 107.531 30.7052 106.895 30.4931 106.424C29.9274 105.269 29.7153 104.939 29.2675 104.939C29.0082 104.939 28.7018 105.481 28.4661 105.999C28.0183 106.872 27.4291 107.932 26.2978 107.979C26.0385 107.979 25.8028 107.814 25.7321 107.484C25.4257 106.518 26.2742 103.808 27.7119 100.932C28.4897 99.3294 30.6345 95.4876 33.2271 93.9085C34.6884 93.0129 36.9039 92.4472 39.3787 92.188C41.547 90.4674 44.0453 89.0768 46.6615 88.2519C48.5942 87.6391 51.2339 86.9556 53.9444 86.225C58.7289 84.9758 64.1263 83.5852 67.0017 82.1475C69.1937 81.0633 71.197 79.2956 73.5304 77.2451C75.9344 75.1239 78.6685 72.6727 82.2981 70.4336C83.9715 69.3966 86.2577 68.2181 88.8739 67.1575C89.0625 65.4841 89.6517 64.1406 90.6652 63.1272C92.1972 61.5952 94.5777 60.9588 97.7359 61.3123C98.8437 61.4302 99.8572 61.713 100.776 62.1608C102.52 61.4302 104.689 60.7231 106.928 60.0396C110.204 58.979 113.574 57.9184 116.191 56.5749C117.817 55.7736 119.137 55.0665 120.315 54.3594C118.265 53.9587 116.638 53.3224 115.531 52.8746L115.271 52.7567C115.083 52.686 110.44 50.8476 110.699 49.1506C110.864 48.2079 112.49 47.6893 115.672 47.5479C119.042 47.4065 120.904 47.3829 125.925 48.4907C127.197 48.75 128.258 48.8678 129.13 48.8207C132.335 46.4637 132.689 44.3661 130.733 40.7836C129.012 37.6017 124.346 36.8475 118.925 35.9519C116.591 35.5748 114.234 35.1741 111.925 34.5377C103.275 32.2044 100.659 27.6084 99.1501 22.9181C97.8067 18.8171 92.645 14.6925 90.1702 12.6891C88.7325 11.5578 88.4968 11.3457 88.6382 11.0628C88.7561 10.8978 88.9682 10.8978 89.0154 10.8978C90.4766 10.945 98.8201 13.9147 101.978 21.2447C104.547 27.1842 107.776 29.0226 114.588 31.0966C116.662 31.7094 118.925 32.1808 121.164 32.6286C126.608 33.7128 131.746 34.7499 133.773 38.2381C135.187 40.6422 135.659 43.0698 135.706 45.0496C135.753 45.0025 135.824 44.9318 135.871 44.9082C137.497 43.4705 138.346 40.6657 138.157 37.531C137.898 33.1943 135.8 29.329 132.359 26.9249C130.356 25.5107 128.093 24.3794 125.901 23.2717C121.824 21.2212 117.958 19.2649 116.473 16.0124C114.234 11.1335 109.002 6.27829 101.696 2.2951C101.201 2.03584 101.13 1.96513 101.177 1.75301L101.248 1.56445L101.46 1.61159C101.578 1.63516 113.904 4.62845 117.11 10.0258C117.84 11.2514 118.241 12.1234 118.571 12.8305C119.372 14.5275 119.797 15.3996 122.884 17.7329C124.77 19.1706 127.032 20.302 129.46 21.5511C134.716 24.2144 140.208 26.9956 141.386 32.6522C142.847 39.5344 140.75 43.2112 139.336 45.6388C138.699 46.7466 138.228 47.5479 138.346 48.255C138.676 50.5176 142.117 52.7331 144.969 54.1944C146.595 54.9958 147.773 55.3258 148.787 55.6086C149.753 55.8678 150.46 56.0328 150.979 56.5985C151.874 57.5648 153.453 60.0867 153.171 61.3123C153.006 62.0194 152.794 62.1137 152.275 62.3729C151.945 62.5144 151.497 62.7265 150.814 63.245C149.117 64.5177 147.703 64.942 144.049 64.1642C140.325 63.3864 136.484 63.1743 133.538 63.5985C127.622 64.4706 121.824 69.1609 119.137 73.3326C118.807 73.8747 118.359 74.5582 117.864 75.2653C116.191 77.8579 113.834 81.3933 112.113 84.528C111.995 84.693 111.948 84.8579 111.854 84.9758C111.854 85.9421 111.83 86.8613 111.807 87.7569C111.783 88.794 111.76 89.7839 111.783 90.6088C114.729 89.9017 120.127 87.2384 122.507 86.0364C123.591 85.4943 124.369 85.1172 124.676 84.9994C126.867 84.2216 128.564 85.0701 129.531 87.427C130.309 89.3125 133.373 105.622 132.878 108.569C132.312 112.033 128.211 117.548 126.019 119.08C125.477 119.434 125.076 119.599 124.746 119.505C124.416 119.434 123.968 119.175 123.756 118.279C123.403 116.723 124.086 113.942 124.982 113.235C125.312 113 125.595 112.811 125.878 112.67C126.679 112.175 127.009 111.939 126.726 111.208C126.137 109.747 126.867 109.417 128.211 108.828L128.376 108.757C129.366 108.309 129.342 107.531 129.083 105.387C129.036 104.986 128.965 104.515 128.918 104.02C128.894 103.76 128.871 103.454 128.8 103.1C128.612 100.979 128.282 97.4203 127.268 94.9927C126.42 97.4203 124.44 100.696 122.106 104.255C119.75 107.861 117.157 110.925 114.847 113.659C113.904 114.767 113.009 115.828 112.207 116.818C109.285 120.471 103.157 120.235 101.696 119.67C101.248 119.505 101.059 119.057 101.177 118.444C101.531 116.936 103.793 114.532 105.584 114.697C107.494 114.862 109.238 114.532 109.45 114.107C109.473 114.084 109.497 113.989 109.379 113.848C109.238 113.659 109.191 113.447 109.238 113.212C109.568 111.609 114.187 109.134 114.376 109.016C116.191 108.05 122.059 98.9995 122.248 97.5853C121.376 97.7267 117.275 100.414 114.517 102.205C112.632 103.43 110.864 104.585 109.827 105.198C108.295 106.07 106.999 106.329 105.914 105.952C104.948 105.622 104.194 104.727 103.652 103.383L103.534 103.077C102.992 101.733 102.403 100.178 100.965 99.6123C99.7393 99.1173 98.113 99.4237 95.9447 100.484C95.049 100.909 94.0827 101.451 93.0928 101.993C87.0827 105.269 78.8099 109.771 67.5438 106.801C66.6482 106.565 65.8704 106.259 65.1869 105.929C64.0084 106.047 62.83 106.07 61.6751 106.047C59.6953 105.976 58.0926 105.905 56.7256 105.905C56.1363 108.427 55.0757 111.138 53.6851 114.06C55.17 116.841 56.7727 120.165 56.702 123.229C56.5134 130.346 53.6851 134.047 48.0521 134.518C43.5975 134.872 38.7659 134.188 35.2069 133.34C34.217 133.764 33.1328 134.141 32.0722 134.565C30.2102 135.272 28.3954 135.909 26.887 136.757C27.5941 140.434 28.5604 145.831 28.7725 148.377C28.8432 149.296 28.9846 150.215 29.1261 151.158C29.5503 154.01 30.0217 156.956 28.8904 159.902C27.5469 163.39 25.4257 167.138 23.8937 167.162C23.3045 167.162 22.8567 166.407 22.621 165.747C22.0553 164.286 21.7725 161.67 22.7859 160.774C23.0452 160.539 23.3516 160.279 23.5873 160.067C24.3651 159.431 25.3314 158.606 25.3314 158.182C25.3314 158.135 25.3078 158.064 25.2136 157.97C24.2237 157.192 23.9644 156.72 24.6479 154.481C25.2371 152.478 24.3415 146.491 22.7152 141.118C21.5603 143.357 20.6176 145.902 19.557 148.73C18.7556 150.969 17.8836 153.256 16.7994 155.73L16.3987 156.697C13.9239 162.448 12.1091 166.643 7.48955 168.882C3.9306 170.909 2.30433 171.333 1.57368 171.333ZM20.8297 135.272C19.0384 136.899 17.9307 138.949 17.5065 141.518C17.0586 144.229 15.2202 150.734 13.4054 154.741C13.0047 155.66 12.6276 156.485 12.2977 157.286C11.1428 160.044 10.3886 161.858 9.16296 162.236C8.22019 162.566 8.17305 163.202 8.10234 163.98C8.07878 164.215 8.05521 164.475 7.9845 164.71C7.81951 165.559 6.47607 165.606 5.01478 165.63C4.28414 165.653 3.55349 165.677 2.98783 165.795C1.62082 166.124 1.19658 170.037 1.24372 170.815C1.24372 170.838 1.24371 170.862 1.26728 170.862C1.43227 170.98 2.3986 171.098 7.46598 168.646C11.9206 166.478 13.7118 162.377 16.1394 156.72L16.5401 155.754C17.6007 153.326 18.4256 150.993 19.2977 148.778C20.429 145.761 21.4189 143.05 22.6917 140.67C22.621 140.434 22.5267 140.151 22.456 139.916C21.9846 138.336 21.3954 136.781 20.8297 135.272ZM23.2809 140.67C25.0957 146.303 26.0385 152.596 25.3786 154.764C24.7422 156.885 25.0014 157.121 25.7792 157.757C26.0149 157.946 26.1092 158.182 26.1092 158.347C26.1092 159.03 25.1664 159.808 24.2001 160.633C23.9408 160.869 23.6344 161.081 23.3987 161.34C22.6445 161.976 22.7859 164.263 23.3752 165.771C23.7051 166.549 24.0115 166.855 24.1765 166.855C25.0722 166.855 27.0755 164.192 28.7018 159.926C29.786 157.121 29.3382 154.222 28.9139 151.417C28.7725 150.427 28.6075 149.532 28.5604 148.589C28.3483 146.138 27.4055 140.858 26.6984 137.205C25.4493 137.959 24.4122 138.831 23.7523 139.939C23.5873 140.128 23.4223 140.411 23.2809 140.67ZM21.2068 134.942C21.796 136.498 22.4324 138.124 22.9509 139.727C22.9981 139.845 23.0216 139.939 23.0688 140.057C23.1395 139.916 23.2338 139.751 23.3045 139.633C24.0351 138.407 25.19 137.464 26.5334 136.663C26.3685 135.767 26.2035 134.99 26.1092 134.4L25.9442 133.552C25.8264 132.915 25.9914 132.326 26.4863 131.926C27.5941 130.983 29.951 131.195 31.7187 131.878C32.6143 132.208 33.8399 132.633 35.3719 132.986C36.5504 132.468 37.6581 131.926 38.6009 131.289C39.1901 130.889 39.7558 130.511 40.2978 130.158C43.9746 127.754 46.9208 125.845 51.8703 117.006C52.4124 116.064 52.8602 115.121 53.3316 114.225C53.2138 113.989 53.0959 113.777 52.9781 113.542C51.7289 111.208 50.7626 109.417 50.9276 108.191C51.2575 106.094 52.7424 105.599 56.537 105.575C57.6448 100.626 56.9848 96.8782 54.4629 95.1341C51.4461 93.0364 44.7524 92.1408 39.4258 92.6593C37.5638 94.1442 35.9611 95.9354 34.8062 97.8681C32.9207 100.956 32.1901 104.585 31.8601 108.239C32.0015 108.474 32.1665 108.757 32.3079 109.016C33.2742 110.572 34.382 111.727 35.5369 112.929C36.7625 114.178 37.9881 115.474 39.0958 117.266C40.3214 119.245 40.3921 121.602 39.3551 123.323C38.648 124.478 37.5403 125.114 36.3147 125.02C33.887 124.878 31.7894 124.761 29.9981 124.666C28.254 128.956 25.1429 132.35 22.3853 134.023C22.0317 134.306 21.6075 134.612 21.2068 134.942ZM28.7961 131.808C27.9947 131.808 27.2641 131.973 26.8634 132.35C26.5334 132.656 26.4156 133.033 26.5099 133.505L26.6749 134.353C26.7927 134.919 26.9106 135.626 27.0755 136.451C28.6075 135.65 30.4224 134.966 32.1665 134.33C33.015 134 33.8399 133.717 34.6884 133.363C33.4628 133.033 32.4022 132.727 31.648 132.397C30.6345 131.973 29.621 131.808 28.7961 131.808ZM24.6243 124.478C20.1698 124.478 19.3213 124.996 18.8028 125.915C18.19 127.047 19.5334 130.629 21.0183 134.471C21.3954 134.141 21.796 133.882 22.2439 133.599C24.86 131.949 27.8533 128.744 29.5974 124.619C27.5705 124.525 25.9442 124.478 24.6243 124.478ZM36.1497 133.175C39.6143 133.953 44.0925 134.542 48.2407 134.212C53.5673 133.788 56.2542 130.252 56.4192 123.394C56.4899 120.542 55.0522 117.431 53.638 114.791C53.2373 115.592 52.7895 116.464 52.3181 117.266C47.2979 126.222 44.3282 128.155 40.5807 130.582C40.015 130.936 39.4729 131.313 38.9073 131.713C38.0823 132.279 37.1631 132.727 36.1497 133.175ZM30.3045 124.171C32.0486 124.289 34.1227 124.36 36.4561 124.525C37.5167 124.596 38.4595 124.077 39.0487 123.064C39.9915 121.532 39.85 119.34 38.7894 117.525C37.7288 115.781 36.4561 114.508 35.3012 113.259C34.1699 112.08 32.9678 110.878 32.0015 109.252C31.9544 109.181 31.9308 109.134 31.8836 109.063C31.7658 110.808 31.7187 112.575 31.6951 114.272C31.648 116.888 31.5773 119.41 31.153 121.296C30.9409 122.286 30.6581 123.252 30.3045 124.171ZM105.632 115.309C104.147 115.309 102.167 117.431 101.884 118.68C101.766 119.245 102.002 119.316 102.073 119.363C103.44 119.905 109.261 120.094 112.019 116.629C112.82 115.639 113.716 114.555 114.659 113.447C116.992 110.737 119.561 107.696 121.894 104.114C124.228 100.555 126.42 96.9254 127.127 94.4742C126.561 93.3664 125.783 92.5886 124.77 92.4472C122.837 92.188 117.157 96.454 113.433 99.2587C113.103 99.518 112.75 99.7772 112.443 100.013C108.436 103.006 106.81 101.333 102.261 95.5583C100.588 93.4371 98.3487 89.996 96.2039 86.2957C94.4127 86.6492 92.5507 87.0263 90.6888 87.3798C89.6989 91.0331 88.2611 94.6156 85.645 97.326C81.3554 101.757 73.6482 105.127 66.3654 105.999C66.8132 106.188 67.3553 106.329 67.8738 106.494C78.9042 109.441 87.1062 105.01 93.0457 101.733C94.0827 101.168 95.049 100.649 95.9447 100.201C98.2309 99.0702 100.022 98.7638 101.366 99.3058C102.992 99.9186 103.652 101.663 104.17 103.03L104.288 103.336C104.783 104.562 105.443 105.34 106.268 105.622C107.211 105.952 108.389 105.74 109.78 104.892C110.84 104.303 112.585 103.148 114.446 101.922C120.174 98.1745 122.177 96.9489 122.743 97.2553C122.814 97.3025 122.931 97.3732 122.931 97.6089C122.931 98.5045 120.834 101.875 119.608 103.713C117.958 106.141 115.861 108.946 114.8 109.535C112.585 110.76 110.11 112.505 109.921 113.4C109.898 113.542 109.921 113.612 109.968 113.659C110.275 114.013 110.157 114.296 110.086 114.437C109.638 115.286 107.187 115.404 105.749 115.286C105.726 115.309 105.679 115.309 105.632 115.309ZM127.645 94.4742C128.894 97.0432 129.248 100.932 129.46 103.218C129.484 103.548 129.507 103.855 129.578 104.138C129.625 104.632 129.696 105.08 129.743 105.481C130.002 107.508 130.144 108.71 128.753 109.37L128.588 109.441C127.15 110.077 126.938 110.218 127.362 111.185C127.81 112.316 127.103 112.74 126.325 113.212C126.066 113.377 125.76 113.542 125.477 113.777C124.77 114.343 124.063 116.865 124.416 118.373C124.534 118.892 124.746 119.151 125.029 119.222C125.147 119.245 125.383 119.222 125.925 118.868C128.046 117.407 132.053 111.939 132.595 108.686C133.043 105.905 130.026 89.5953 129.271 87.8277C128.376 85.6593 126.985 84.9758 125.029 85.6593C124.77 85.7771 123.945 86.1778 122.931 86.6492C118.901 88.6526 114.611 90.7031 112.019 91.2452C112.066 92.4944 112.255 93.3664 112.726 93.6021C114.258 94.3563 118.995 92.1408 121.517 90.9624C122.059 90.7267 122.507 90.5145 122.884 90.3496C123.968 89.8546 125.005 89.7839 125.878 90.161C126.679 90.491 127.339 91.2216 127.716 92.2351C127.928 92.7536 127.881 93.555 127.645 94.4742ZM56.4663 106.094C53.0488 106.117 51.6818 106.589 51.4461 108.309C51.3047 109.37 52.2946 111.208 53.4494 113.33C53.5202 113.447 53.5909 113.565 53.6616 113.707C54.9579 110.973 55.9006 108.38 56.4663 106.094ZM38.6244 92.7772C36.5032 93.0364 34.6648 93.555 33.3921 94.3092C29.3146 96.8311 25.6378 105.74 26.1328 107.367C26.1799 107.508 26.2035 107.508 26.2506 107.508C27.0991 107.508 27.5705 106.589 27.9712 105.811C28.3247 105.104 28.6782 104.515 29.2203 104.515C29.9745 104.515 30.2574 105.08 30.8702 106.259C31.0352 106.612 31.2473 107.037 31.5537 107.531C31.9072 104.067 32.685 100.649 34.4998 97.6796C35.5604 95.8647 36.9746 94.2149 38.6244 92.7772ZM57.0555 105.599C58.399 105.599 60.0017 105.67 61.8872 105.74C62.7828 105.764 63.6785 105.764 64.5977 105.693C62.9007 104.656 62.0051 103.242 62.0286 101.592C62.0993 99.2587 64.0556 96.5718 67.3788 94.2385C70.8671 91.7637 75.6045 89.831 80.6954 88.794C83.3587 88.2283 85.9985 87.757 88.544 87.3091C89.1096 87.1913 89.6753 87.097 90.241 86.9792C90.6888 85.2822 91.0423 83.5616 91.3958 81.9354C91.6315 80.8276 91.8436 79.7434 92.1029 78.7064C90.3588 75.0296 89.0625 71.777 88.8268 69.8208C88.709 69.043 88.7089 68.3359 88.7561 67.6524C86.2342 68.6895 84.0658 69.8208 82.4395 70.8107C78.857 73.0498 76.123 75.4538 73.7425 77.5751C71.3856 79.6492 69.4058 81.464 67.1196 82.5717C64.197 84.033 58.7525 85.4236 53.968 86.6728C51.2104 87.4034 48.6178 88.0869 46.7087 88.6761C44.3517 89.4304 42.1127 90.5852 40.1564 92.0937C45.4595 91.7166 51.6818 92.6593 54.7458 94.7334C56.9848 96.289 57.9276 99.3058 57.4091 103.383C57.3619 104.114 57.2441 104.845 57.0555 105.599ZM90.1467 87.5213C89.6517 87.6391 89.1568 87.7098 88.6854 87.7805C86.1163 88.2283 83.5002 88.7468 80.8604 89.2654C69.7122 91.5516 62.6886 97.4439 62.5472 101.592C62.5 103.265 63.5135 104.609 65.4933 105.622C72.894 104.939 80.9076 101.545 85.2914 97.0196C87.7662 94.427 89.1803 90.9859 90.1467 87.5213ZM96.7225 86.225C98.8437 89.9017 101.012 93.2486 102.638 95.2991C107.14 101.026 108.507 102.393 112.137 99.6358C112.467 99.4001 112.773 99.1409 113.127 98.8816C117.157 95.8647 122.672 91.693 124.841 91.9758C125.878 92.1172 126.702 92.7772 127.292 93.8142C127.41 93.225 127.41 92.7065 127.245 92.3058C126.915 91.4102 126.373 90.8209 125.689 90.5145C124.958 90.1846 124.039 90.2788 123.096 90.7031C122.743 90.8681 122.295 91.0802 121.753 91.3159C118.783 92.73 114.282 94.8041 112.537 93.9556C111.901 93.6257 111.642 92.6829 111.571 91.2216C110.793 91.3395 110.204 91.2923 109.874 91.0095C109.073 90.3024 109.921 87.9926 111.618 84.8815C111.618 83.4674 111.571 82.0532 111.406 80.5919C110.487 81.3697 109.379 82.0532 108.083 82.6896C105.019 84.2451 101.059 85.3057 96.7225 86.225ZM111.571 85.9657C109.662 89.6425 109.898 90.5381 110.11 90.7267C110.345 90.9152 110.84 90.9388 111.477 90.8445C111.453 89.9725 111.477 88.959 111.5 87.8512C111.524 87.2384 111.571 86.6256 111.571 85.9657ZM92.5036 79.3899C92.315 80.2384 92.1265 81.1104 91.9379 82.0061C91.6079 83.6088 91.2544 85.235 90.8302 86.8613C92.5743 86.5313 94.3184 86.225 95.9683 85.8714C94.7427 83.7502 93.5171 81.5111 92.5036 79.3899ZM92.6686 78.6592C93.2342 79.8141 93.847 81.0162 94.5305 82.3125C95.1433 83.4909 95.8033 84.6694 96.4396 85.8007C102.827 84.4573 108.154 82.8546 111.288 80.097C111.147 79.1071 110.958 78.1171 110.699 77.1744C108.79 70.5986 105.867 66.4033 102.921 64.1171C101.083 64.2349 99.1737 64.4942 97.2174 64.9656C95.8033 66.5211 95.3083 68.6895 94.6248 71.4706C94.2948 72.9084 93.8706 74.4875 93.3285 76.2552C93.0928 76.9858 92.8807 77.7872 92.6686 78.6592ZM111.807 80.2619C111.972 81.5347 112.019 82.831 112.042 84.1037C113.551 81.4404 115.578 78.235 117.675 75.0532C118.17 74.2989 118.595 73.639 118.925 73.1205C121.682 68.8309 127.622 64.0464 133.655 63.1507C136.649 62.7265 140.538 62.9386 144.309 63.74C147.797 64.4942 149.07 64.0935 150.672 62.8915C151.427 62.3258 151.898 62.1137 152.228 61.9723C152.652 61.7837 152.746 61.7366 152.841 61.2416C153.053 60.3224 151.733 58.0126 150.767 56.952C150.342 56.5042 149.73 56.3392 148.787 56.08C147.844 55.8443 146.548 55.5143 144.874 54.6187C141.928 53.1103 138.346 50.7533 137.992 48.3021C137.874 47.4301 138.369 46.5109 139.053 45.356C140.396 42.9991 142.447 39.4166 141.033 32.7229C139.878 27.2784 134.527 24.568 129.342 21.9518C126.891 20.7026 124.558 19.5477 122.672 18.0865C119.49 15.6824 119.066 14.7868 118.218 13.0191C117.888 12.312 117.463 11.4164 116.756 10.2379C114.399 6.27829 106.81 3.5914 103.251 2.55436C109.921 6.44327 114.753 11.0864 116.921 15.7531C118.359 18.8642 122.13 20.7733 126.137 22.7767C128.329 23.8845 130.615 25.0394 132.642 26.4535C136.177 28.9283 138.369 32.935 138.628 37.4367C138.817 40.6657 137.874 43.6354 136.177 45.1674C136.012 45.3089 135.847 45.4738 135.682 45.5917C135.659 47.1001 135.423 48.3257 135.187 48.9149C135.07 49.292 134.103 50.9419 132.948 51.8375C131.322 53.0867 129.036 54.1002 127.056 54.4066C124.77 54.7837 122.743 54.713 120.952 54.4301C119.608 55.2079 118.147 55.9857 116.285 56.952C113.669 58.2719 110.275 59.3797 106.975 60.4403C104.901 61.1238 102.898 61.7366 101.248 62.4201C101.884 62.75 102.497 63.1743 103.086 63.6457C105.608 63.5278 107.894 63.8342 109.803 64.7063C112.443 65.9319 114.046 68.0767 114.564 71.1878C115.248 74.9589 114.376 77.9286 111.807 80.2619ZM103.723 64.0699C108.13 67.9117 110.393 74.5111 111.147 77.033C111.382 77.905 111.571 78.7535 111.712 79.6727C113.81 77.5986 114.729 74.8882 114.164 71.2114C113.669 68.2652 112.184 66.2147 109.709 65.0834C107.989 64.3528 105.962 64.0463 103.723 64.0699ZM89.3217 67.4874C89.251 68.2181 89.2746 68.9723 89.3689 69.8208C89.5574 71.4942 90.6181 74.3932 92.3622 77.9993C92.5272 77.3629 92.6921 76.703 92.9043 76.1138C93.4699 74.3932 93.847 72.7669 94.2006 71.3528C94.8134 68.7838 95.3319 66.7332 96.4868 65.1541C93.9884 65.7198 91.5372 66.5683 89.3217 67.4874ZM96.0861 61.713C93.8706 61.713 92.15 62.3022 90.9952 63.4571C90.1231 64.3292 89.581 65.5076 89.3689 66.9218C91.7258 65.979 94.342 65.107 96.9582 64.5177C97.3117 64.1406 97.7359 63.7635 98.2309 63.4336C98.773 63.1036 99.3858 62.75 100.116 62.4436C99.2679 62.0901 98.443 61.878 97.6652 61.8073C97.1232 61.713 96.5811 61.713 96.0861 61.713ZM100.706 62.7029C99.8336 63.0564 99.0794 63.4571 98.4902 63.8342C98.2545 63.9756 98.0659 64.1642 97.8538 64.3292C99.3622 63.9992 100.871 63.7635 102.332 63.6928C101.79 63.2686 101.248 62.9622 100.706 62.7029ZM121.753 54.1002C123.308 54.2887 125.123 54.3123 127.08 53.9823C128.965 53.6523 131.181 52.7096 132.76 51.5075C133.844 50.7062 134.74 49.1271 134.857 48.8442C135.046 48.3021 135.234 47.3594 135.305 46.1102C133.184 47.9957 131.628 49.1271 129.389 49.292C129.059 49.5042 128.777 49.7399 128.399 49.9756L127.645 50.4705C125.406 51.8611 123.709 52.9688 121.753 54.1002ZM118.218 47.925C117.44 47.925 116.662 47.9486 115.743 47.9957C111.83 48.1607 111.288 48.8914 111.241 49.2213C111.1 50.0227 113.292 51.4368 115.507 52.3089L115.766 52.4267C116.992 52.9217 118.76 53.6052 120.999 53.9823C123.167 52.7331 124.958 51.5783 127.362 50.0463L128.117 49.5513C128.234 49.4806 128.376 49.3863 128.494 49.3156C127.716 49.292 126.844 49.1978 125.878 48.9856C122.248 48.1136 120.268 47.925 118.218 47.925ZM89.4396 11.4164C89.6989 11.6521 90.1231 11.982 90.5238 12.312C93.0692 14.339 98.278 18.5578 99.6686 22.7767C101.13 27.302 103.675 31.8273 112.09 34.0664C114.376 34.6556 116.733 35.0563 119.019 35.4805C124.322 36.3761 129.295 37.1775 131.157 40.5479C133.09 44.1068 132.878 46.3459 130.073 48.7028C131.888 48.3493 133.255 47.2415 135.258 45.4738C135.258 43.494 134.834 40.9721 133.373 38.4738C131.463 35.1505 126.396 34.1606 121.093 33.0764C118.877 32.6522 116.591 32.1572 114.47 31.5445C107.541 29.4232 104.217 27.5377 101.601 21.4097C98.7258 14.7632 91.4194 11.817 89.4396 11.4164Z" fill="white" stroke="url(#paint0_linear_491_6072)" stroke-width="1.06221" stroke-miterlimit="10"/>
<defs>
<linearGradient id="paint0_linear_491_6072" x1="0.583776" y1="86.4842" x2="153.543" y2="86.4842" gradientUnits="userSpaceOnUse">
<stop offset="0.00022" stop-color="#FF9164"/>
<stop offset="1" stop-color="#BB53AA"/>
</linearGradient>
</defs>
</svg>
