<?xml version="1.0" encoding="UTF-8"?><svg xmlns="http://www.w3.org/2000/svg" viewBox="0 0 280 280"><g style="isolation:isolate;"><g id="a"><polygon points="236.89 162.22 233.83 160.45 233.16 160.84 236.23 162.6 233.16 164.37 233.83 164.75 236.89 162.99 239.95 164.75 240.62 164.37 237.56 162.6 240.62 160.84 239.95 160.45 236.89 162.22" style="fill:#e95420; fill-rule:evenodd; stroke-width:0px;"/><polygon points="39.55 109.86 36.49 108.09 35.82 108.48 38.88 110.25 35.82 112.01 36.49 112.4 39.55 110.63 42.61 112.4 43.28 112.01 40.21 110.25 43.28 108.48 42.61 108.09 39.55 109.86" style="fill:#e95420; fill-rule:evenodd; stroke-width:0px;"/><polygon points="56.43 237.89 53.36 236.12 52.7 236.51 55.76 238.27 52.7 240.04 53.36 240.43 56.43 238.66 59.49 240.43 60.15 240.04 57.09 238.27 60.15 236.51 59.49 236.12 56.43 237.89" style="fill:#e95420; fill-rule:evenodd; stroke-width:0px;"/><polygon points="75.87 236.84 72.81 235.07 72.15 235.46 75.21 237.22 72.15 238.99 72.81 239.38 75.87 237.61 78.93 239.38 79.6 238.99 76.54 237.22 79.6 235.46 78.93 235.07 75.87 236.84" style="fill:#e95420; fill-rule:evenodd; stroke-width:0px;"/><g style="opacity:.35;"><polygon points="31.06 173.46 36.2 176.42 39.19 174.69 34.06 171.73 31.06 173.46" style="fill:#e95420; stroke-width:0px;"/><polygon points="33.34 170.06 35.15 171.1 35.15 171.1 40.28 174.07 43.28 172.34 36.33 168.33 33.34 170.06" style="fill:#e95420; stroke-width:0px;"/><polygon points="42.22 167.02 35.04 162.87 32.04 164.59 44.37 171.71 47.36 169.98 42.22 167.02 42.22 167.02" style="fill:#e95420; stroke-width:0px;"/><polygon points="41.43 161.84 38.43 163.57 48.45 169.35 51.44 167.62 41.43 161.84" style="fill:#e95420; stroke-width:0px;"/></g><g style="opacity:.35;"><polygon points="231.35 134.89 247.9 144.44 246.81 145.08 230.26 135.52 231.35 134.89" style="fill:#e95420; mix-blend-mode:multiply; stroke-width:0px;"/><polygon points="229.16 136.16 245.71 145.71 244.62 146.34 228.07 136.79 229.16 136.16" style="fill:#e95420; mix-blend-mode:multiply; stroke-width:0px;"/><polygon points="226.97 137.42 243.52 146.97 242.43 147.61 225.88 138.05 226.97 137.42" style="fill:#e95420; mix-blend-mode:multiply; stroke-width:0px;"/><polygon points="224.78 138.68 241.33 148.24 240.24 148.87 223.69 139.32 224.78 138.68" style="fill:#e95420; mix-blend-mode:multiply; stroke-width:0px;"/><polygon points="222.59 139.95 239.14 149.5 238.05 150.13 221.5 140.58 222.59 139.95" style="fill:#e95420; mix-blend-mode:multiply; stroke-width:0px;"/><polygon points="220.4 141.21 236.95 150.77 235.85 151.4 219.31 141.85 220.4 141.21" style="fill:#e95420; mix-blend-mode:multiply; stroke-width:0px;"/><polygon points="218.21 142.48 234.76 152.03 233.66 152.66 217.12 143.11 218.21 142.48" style="fill:#e95420; mix-blend-mode:multiply; stroke-width:0px;"/></g><g style="opacity:.35;"><polygon points="62.97 129.49 62.97 130.75 62.05 131.28 62.05 128.96 62.97 129.49" style="fill:#e95420; stroke-width:0px;"/><polygon points="60.67 128.16 60.67 132.07 59.76 132.6 59.76 127.63 60.67 128.16" style="fill:#e95420; stroke-width:0px;"/><polygon points="58.38 126.84 58.38 133.4 57.46 133.93 57.46 126.31 58.38 126.84" style="fill:#e95420; stroke-width:0px;"/><polygon points="56.08 125.51 56.08 134.72 55.17 135.25 55.17 124.99 56.08 125.51" style="fill:#e95420; stroke-width:0px;"/><polygon points="53.78 125.21 53.78 136.05 52.87 136.58 52.87 125.74 53.78 125.21" style="fill:#e95420; stroke-width:0px;"/><polygon points="51.49 126.54 51.49 137.38 50.57 137.9 50.57 127.07 51.49 126.54" style="fill:#e95420; stroke-width:0px;"/><polygon points="49.19 127.86 49.19 138.7 48.28 139.23 48.28 128.39 49.19 127.86" style="fill:#e95420; stroke-width:0px;"/><polygon points="46.9 129.19 46.9 140.03 45.98 140.56 45.98 129.72 46.9 129.19" style="fill:#e95420; stroke-width:0px;"/><polygon points="44.6 130.52 44.6 140.56 43.68 140.03 43.68 131.04 44.6 130.52" style="fill:#e95420; stroke-width:0px;"/><polygon points="42.3 131.84 42.3 139.23 41.39 138.71 41.39 132.37 42.3 131.84" style="fill:#e95420; stroke-width:0px;"/><polygon points="40.01 137.91 39.09 137.38 39.09 133.7 40.01 133.17 40.01 137.91" style="fill:#e95420; stroke-width:0px;"/><polygon points="36.8 136.06 36.8 135.02 37.71 134.49 37.71 136.59 36.8 136.06" style="fill:#e95420; stroke-width:0px;"/><path d="M33.78,135.54l11.51,6.64,20.89-12.06-11.51-6.64-20.89,12.06ZM35.13,135.54l19.54-11.28,10.16,5.86-19.54,11.28-10.16-5.86Z" style="fill:#e95420; stroke-width:0px;"/></g><path d="M179.72,94.42c-4.73-2.63-12.39-2.64-17.09-.03-4.7,2.61-4.68,6.86.05,9.49,4.73,2.63,12.39,2.64,17.09.03,4.7-2.61,4.68-6.86-.05-9.49ZM164.38,102.93c-3.79-2.1-3.81-5.5-.04-7.59,3.76-2.09,9.89-2.08,13.67.02,3.79,2.1,3.81,5.5.04,7.59-3.76,2.09-9.89,2.08-13.67-.02ZM176.31,96.31c-2.84-1.58-7.43-1.58-10.26-.02-2.82,1.57-2.81,4.12.03,5.69,2.84,1.58,7.43,1.58,10.26.02,2.82-1.57,2.81-4.12-.03-5.69ZM167.79,101.04c-1.89-1.05-1.9-2.75-.02-3.79,1.88-1.04,4.94-1.04,6.84.01,1.89,1.05,1.9,2.75.02,3.79-1.88,1.04-4.94,1.04-6.84-.01ZM172.9,98.2c-.95-.53-2.48-.53-3.42,0-.94.52-.94,1.37.01,1.9.95.53,2.48.53,3.42,0,.94-.52.94-1.37-.01-1.9Z" style="fill:#e95420; opacity:.35; stroke-width:0px;"/><g style="opacity:.35;"><path d="M69.17,193.92l-9.02,4.57-1.13-6.9c-2.68.15-5.3.81-7.35,2-4.69,2.71-4.69,7.09,0,9.8,4.69,2.71,12.28,2.71,16.97,0,4.5-2.6,4.68-6.74.53-9.47Z" style="fill:#e95420; stroke-width:0px;"/><path d="M70.24,191.98c-.17-.11-.35-.22-.53-.33-2.63-1.52-6.18-2.19-9.62-2l1.13,6.9,9.02-4.57Z" style="fill:#e95420; stroke-width:0px;"/></g><path d="M235.96,119.28l-24.36-14.3c-1.99-1.15-5.03-1.28-6.75-.28l-24.69,14.34c-.98.56-1.33,1.37-1.09,2.17.18.62.71,1.23,1.58,1.73l24.36,14.3c1.99,1.15,5.03,1.28,6.75.28l24.69-14.34c.68-.39,1.05-.9,1.14-1.45.13-.84-.42-1.76-1.62-2.45Z" style="fill:#666; opacity:.2; stroke-width:0px;"/><path d="M228.62,112.18c-.08.52-.44,1-1.08,1.37l-20.07,11.68c-1.64.95-4.52.83-6.41-.27l-18.84-10.94c-.82-.47-1.32-1.06-1.5-1.64h-.07v7.65h0c.05.7.57,1.42,1.56,1.99l18.84,10.94c1.89,1.09,4.78,1.21,6.41.27l20.07-11.68c.79-.45,1.14-1.08,1.1-1.72h0v-7.65h-.02Z" style="fill:#fff; stroke:#606060; stroke-linecap:round; stroke-linejoin:round; stroke-width:2px;"/><path d="M227.08,109.85l-18.84-10.94c-1.89-1.09-4.78-1.21-6.41-.27l-20.07,11.68c-.93.53-1.26,1.3-1.04,2.06.17.58.68,1.17,1.5,1.64l18.84,10.94c1.89,1.09,4.78,1.21,6.41.27l20.07-11.68c.65-.37,1-.86,1.08-1.37.13-.8-.4-1.67-1.54-2.33Z" style="fill:#fff; stroke:#606060; stroke-linecap:round; stroke-linejoin:round; stroke-width:2px;"/><path d="M228.62,112.18c-.08.52-.44,1-1.08,1.37l-20.07,11.68c-1.64.95-4.52.83-6.41-.27l-18.84-10.94c-.82-.47-1.32-1.06-1.5-1.64h-.07v7.65h0c.05.7.57,1.42,1.56,1.99l18.84,10.94c1.89,1.09,4.78,1.21,6.41.27l20.07-11.68c.79-.45,1.14-1.08,1.1-1.72h0v-7.65h-.02Z" style="fill:#fff; stroke:#606060; stroke-linecap:round; stroke-linejoin:round; stroke-width:.5px;"/><path d="M227.08,109.85l-18.84-10.94c-1.89-1.09-4.78-1.21-6.41-.27l-20.07,11.68c-.93.53-1.26,1.3-1.04,2.06.17.58.68,1.17,1.5,1.64l18.84,10.94c1.89,1.09,4.78,1.21,6.41.27l20.07-11.68c.65-.37,1-.86,1.08-1.37.13-.8-.4-1.67-1.54-2.33Z" style="fill:#fff; stroke:#606060; stroke-linecap:round; stroke-linejoin:round; stroke-width:.5px;"/><path d="M201.05,124.97l-18.84-10.94c-.82-.47-1.32-1.06-1.5-1.64h-.07v7.65h0c.05.7.57,1.42,1.56,1.99l18.84,10.94c.98.57,2.23.87,3.44.9v-7.99c-1.21-.03-2.46-.33-3.44-.9Z" style="fill:#fff; stroke:#606060; stroke-linecap:round; stroke-linejoin:round; stroke-width:.5px;"/><path d="M207.47,133.22l20.07-11.68c.79-.45,1.14-1.08,1.1-1.72h0v-7.65h-.02c-.08.52-.44,1-1.08,1.37l-20.07,11.68c-.79.45-1.86.66-2.98.63v7.99c1.11.03,2.19-.18,2.98-.63Z" style="fill:#bfbfbf; stroke:#606060; stroke-miterlimit:10; stroke-width:.5px;"/><path d="M135.58,224.88l-24.36-14.3c-1.99-1.15-5.03-1.28-6.75-.28l-24.69,14.34c-.98.56-1.33,1.37-1.09,2.17.18.62.71,1.23,1.58,1.73l24.36,14.3c1.99,1.15,5.03,1.28,6.75.28l24.69-14.34c.68-.39,1.05-.9,1.14-1.45.13-.84-.42-1.76-1.62-2.45Z" style="fill:#666; opacity:.2; stroke-width:0px;"/><path d="M128.24,217.78c-.08.52-.44,1-1.08,1.37l-20.07,11.68c-1.64.95-4.52.83-6.41-.27l-18.84-10.94c-.82-.47-1.32-1.06-1.5-1.64h-.07v7.65h0c.05.7.57,1.42,1.56,1.99l18.84,10.94c1.89,1.09,4.78,1.21,6.41.27l20.07-11.68c.79-.45,1.14-1.08,1.1-1.72h0v-7.65h-.02Z" style="fill:#fff; stroke:#606060; stroke-linecap:round; stroke-linejoin:round; stroke-width:2px;"/><path d="M126.7,215.45l-18.84-10.94c-1.89-1.09-4.78-1.21-6.41-.27l-20.07,11.68c-.93.53-1.26,1.3-1.04,2.06.17.58.68,1.17,1.5,1.64l18.84,10.94c1.89,1.09,4.78,1.21,6.41.27l20.07-11.68c.65-.37,1-.86,1.08-1.37.13-.8-.4-1.67-1.54-2.33Z" style="fill:#fff; stroke:#606060; stroke-linecap:round; stroke-linejoin:round; stroke-width:2px;"/><path d="M128.24,217.78c-.08.52-.44,1-1.08,1.37l-20.07,11.68c-1.64.95-4.52.83-6.41-.27l-18.84-10.94c-.82-.47-1.32-1.06-1.5-1.64h-.07v7.65h0c.05.7.57,1.42,1.56,1.99l18.84,10.94c1.89,1.09,4.78,1.21,6.41.27l20.07-11.68c.79-.45,1.14-1.08,1.1-1.72h0v-7.65h-.02Z" style="fill:#fff; stroke:#606060; stroke-linecap:round; stroke-linejoin:round; stroke-width:.5px;"/><path d="M126.7,215.45l-18.84-10.94c-1.89-1.09-4.78-1.21-6.41-.27l-20.07,11.68c-.93.53-1.26,1.3-1.04,2.06.17.58.68,1.17,1.5,1.64l18.84,10.94c1.89,1.09,4.78,1.21,6.41.27l20.07-11.68c.65-.37,1-.86,1.08-1.37.13-.8-.4-1.67-1.54-2.33Z" style="fill:#fff; stroke:#606060; stroke-linecap:round; stroke-linejoin:round; stroke-width:.5px;"/><path d="M100.67,230.57l-18.84-10.94c-.82-.47-1.32-1.06-1.5-1.64h-.07v7.65h0c.05.7.57,1.42,1.56,1.99l18.84,10.94c.98.57,2.23.87,3.44.9v-7.99c-1.21-.03-2.46-.33-3.44-.9Z" style="fill:#fff; stroke:#606060; stroke-linecap:round; stroke-linejoin:round; stroke-width:.5px;"/><path d="M90.19,89.04l20.07-11.68c.79-.45,1.14-1.08,1.1-1.72h0v-7.65h-.02c-.08.52-.44,1-1.08,1.37l-20.07,11.68c-.79.45-1.86.66-2.98.63v7.99c1.11.03,2.19-.18,2.98-.63Z" style="fill:#bfbfbf; stroke:#606060; stroke-miterlimit:10; stroke-width:.5px;"/><path d="M246.97,190.8l-24.36-14.3c-1.99-1.15-5.03-1.28-6.75-.28l-24.69,14.34c-.98.56-1.33,1.37-1.09,2.17.18.62.71,1.23,1.58,1.73l24.36,14.3c1.99,1.15,5.03,1.28,6.75.28l24.69-14.34c.68-.39,1.05-.9,1.14-1.45.13-.84-.42-1.76-1.62-2.45Z" style="fill:#666; opacity:.2; stroke-width:0px;"/><path d="M239.63,183.7c-.08.52-.44,1-1.08,1.37l-20.07,11.68c-1.64.95-4.52.83-6.41-.27l-18.84-10.94c-.82-.47-1.32-1.06-1.5-1.64h-.07v7.65h0c.05.7.57,1.42,1.56,1.99l18.84,10.94c1.89,1.09,4.78,1.21,6.41.27l20.07-11.68c.79-.45,1.14-1.08,1.1-1.72h0v-7.65h-.02Z" style="fill:#fff; stroke:#606060; stroke-linecap:round; stroke-linejoin:round; stroke-width:2px;"/><path d="M238.09,181.37l-18.84-10.94c-1.89-1.09-4.78-1.21-6.41-.27l-20.07,11.68c-.93.53-1.26,1.3-1.04,2.06.17.58.68,1.17,1.5,1.64l18.84,10.94c1.89,1.09,4.78,1.21,6.41.27l20.07-11.68c.65-.37,1-.86,1.08-1.37.13-.8-.4-1.67-1.54-2.33Z" style="fill:#fff; stroke:#606060; stroke-linecap:round; stroke-linejoin:round; stroke-width:2px;"/><path d="M239.63,183.7c-.08.52-.44,1-1.08,1.37l-20.07,11.68c-1.64.95-4.52.83-6.41-.27l-18.84-10.94c-.82-.47-1.32-1.06-1.5-1.64h-.07v7.65h0c.05.7.57,1.42,1.56,1.99l18.84,10.94c1.89,1.09,4.78,1.21,6.41.27l20.07-11.68c.79-.45,1.14-1.08,1.1-1.72h0v-7.65h-.02Z" style="fill:#fff; stroke:#606060; stroke-linecap:round; stroke-linejoin:round; stroke-width:.5px;"/><path d="M238.09,181.37l-18.84-10.94c-1.89-1.09-4.78-1.21-6.41-.27l-20.07,11.68c-.93.53-1.26,1.3-1.04,2.06.17.58.68,1.17,1.5,1.64l18.84,10.94c1.89,1.09,4.78,1.21,6.41.27l20.07-11.68c.65-.37,1-.86,1.08-1.37.13-.8-.4-1.67-1.54-2.33Z" style="fill:#fff; stroke:#606060; stroke-linecap:round; stroke-linejoin:round; stroke-width:.5px;"/><path d="M212.06,196.49l-18.84-10.94c-.82-.47-1.32-1.06-1.5-1.64h-.07v7.65h0c.05.7.57,1.42,1.56,1.99l18.84,10.94c.98.57,2.23.87,3.44.9v-7.99c-1.21-.03-2.46-.33-3.44-.9Z" style="fill:#fff; stroke:#606060; stroke-linecap:round; stroke-linejoin:round; stroke-width:.5px;"/><path d="M218.48,204.74l20.07-11.68c.79-.45,1.14-1.08,1.1-1.72h0v-7.65h-.02c-.08.52-.44,1-1.08,1.37l-20.07,11.68c-.79.45-1.86.66-2.98.63v7.99c1.11.03,2.19-.18,2.98-.63Z" style="fill:#bfbfbf; stroke:#606060; stroke-miterlimit:10; stroke-width:.5px;"/><path d="M209.03,217.1l-24.36-14.3c-1.99-1.15-5.03-1.28-6.75-.28l-24.69,14.34c-.98.56-1.33,1.37-1.09,2.17.18.62.71,1.23,1.58,1.73l24.36,14.3c1.99,1.15,5.03,1.28,6.75.28l24.69-14.34c.68-.39,1.05-.9,1.14-1.45.13-.84-.42-1.76-1.62-2.45Z" style="fill:#666; opacity:.2; stroke-width:0px;"/><path d="M201.7,210.01c-.08.52-.44,1-1.08,1.37l-20.07,11.68c-1.64.95-4.52.83-6.41-.27l-18.84-10.94c-.82-.47-1.32-1.06-1.5-1.64h-.07v7.65h0c.05.7.57,1.42,1.56,1.99l18.84,10.94c1.89,1.09,4.78,1.21,6.41.27l20.07-11.68c.79-.45,1.14-1.08,1.1-1.72h0v-7.65h-.02Z" style="fill:#fff; stroke:#606060; stroke-linecap:round; stroke-linejoin:round; stroke-width:2px;"/><path d="M200.15,207.68l-18.84-10.94c-1.89-1.09-4.78-1.21-6.41-.27l-20.07,11.68c-.93.53-1.26,1.3-1.04,2.06.17.58.68,1.17,1.5,1.64l18.84,10.94c1.89,1.09,4.78,1.21,6.41.27l20.07-11.68c.65-.37,1-.86,1.08-1.37.13-.8-.4-1.67-1.54-2.33Z" style="fill:#fff; stroke:#606060; stroke-linecap:round; stroke-linejoin:round; stroke-width:2px;"/><path d="M201.7,210.01c-.08.52-.44,1-1.08,1.37l-20.07,11.68c-1.64.95-4.52.83-6.41-.27l-18.84-10.94c-.82-.47-1.32-1.06-1.5-1.64h-.07v7.65h0c.05.7.57,1.42,1.56,1.99l18.84,10.94c1.89,1.09,4.78,1.21,6.41.27l20.07-11.68c.79-.45,1.14-1.08,1.1-1.72h0v-7.65h-.02Z" style="fill:#fff; stroke:#606060; stroke-linecap:round; stroke-linejoin:round; stroke-width:.5px;"/><path d="M200.15,207.68l-18.84-10.94c-1.89-1.09-4.78-1.21-6.41-.27l-20.07,11.68c-.93.53-1.26,1.3-1.04,2.06.17.58.68,1.17,1.5,1.64l18.84,10.94c1.89,1.09,4.78,1.21,6.41.27l20.07-11.68c.65-.37,1-.86,1.08-1.37.13-.8-.4-1.67-1.54-2.33Z" style="fill:#fff; stroke:#606060; stroke-linecap:round; stroke-linejoin:round; stroke-width:.5px;"/><path d="M174.13,222.79l-18.84-10.94c-.82-.47-1.32-1.06-1.5-1.64h-.07v7.65h0c.05.7.57,1.42,1.56,1.99l18.84,10.94c.98.57,2.23.87,3.44.9v-7.99c-1.21-.03-2.46-.33-3.44-.9Z" style="fill:#fff; stroke:#606060; stroke-linecap:round; stroke-linejoin:round; stroke-width:.5px;"/><path d="M180.54,231.05l20.07-11.68c.79-.45,1.14-1.08,1.1-1.72h0v-7.65h-.02c-.08.52-.44,1-1.08,1.37l-20.07,11.68c-.79.45-1.86.66-2.98.63v7.99c1.11.03,2.19-.18,2.98-.63Z" style="fill:#bfbfbf; stroke:#606060; stroke-miterlimit:10; stroke-width:.5px;"/><path d="M130.37,208.34c.92,0,1.76-.19,2.37-.55l85.32-49.21c.48-.28.75-.62.75-.95,0-.37-.32-.76-.88-1.08l-58.28-33.68c-.69-.4-1.64-.62-2.62-.62-.92,0-1.76.19-2.37.55l-85.32,49.21c-.48.28-.75.62-.75.95,0,.36.32.76.88,1.08l58.28,33.68c.69.4,1.64.63,2.62.63Z" style="fill:#666; opacity:.2; stroke-width:0px;"/><path d="M210.45,148.95c0-.37-.32-.76-.88-1.09l-58.28-33.68c-.69-.4-1.64-.63-2.62-.63-.92,0-1.76.19-2.37.55l-78.67,45.37,76.32-44.06c1.56-.9,2.88-3.14,2.88-4.88V42.97c0-1.16-.43-1.91-1.12-2.01l.03-.02-2.62-1.12c-.54-.19-1.21-.1-1.93.31l-81.11,46.32c-1.82,1.05-3.31,3.8-3.31,6.12l.02,67.57c0,1.06.4,1.78,1.05,2.08l2.19,1.02h0c.15.07.33.1.53.08.29-.02.61-.13.95-.32l-.54.31c-.4.23-.64.5-.72.78l-.03-.05v.22s0,0,0,0,0,0,0,0v2.79c-.07.66.35,1.35,1.25,1.87l57.54,33.68c1.62.93,4.18.97,5.73.08l84.59-49.33c1.12-.56,1.12-1.48,1.12-1.48v-2.92ZM61.02,165.29s.05.04.08.05l-.03.02-.04-.07Z" style="fill:#fff; stroke:#606060; stroke-linecap:round; stroke-linejoin:round; stroke-width:2px;"/><path d="M61.06,165.36l-.84-1.32v3.01c-.06.66.35,1.35,1.25,1.87l57.54,33.68c.66.38,1.47.6,2.3.68v-72.68l-60.26,34.76Z" style="fill:#fff; stroke:#606060; stroke-linecap:round; stroke-linejoin:round; stroke-width:.5px;"/><path d="M124.74,202.68l84.59-49.33c1.12-.56,1.12-1.48,1.12-1.48v-2.92s-58.8-32.46-58.8-32.46c-1.62-.93-4.18-.97-5.72-.08l-24.61,14.19v72.68c1.22.12,2.5-.08,3.42-.61Z" style="fill:#e95420; stroke:#606060; stroke-miterlimit:10; stroke-width:.5px;"/><g id="b"><path d="M122,199.65c.92,0,1.76-.19,2.37-.55l85.32-49.21c.48-.28.75-.62.75-.95,0-.37-.32-.76-.88-1.08l-58.28-33.68c-.69-.4-1.64-.62-2.62-.62-.92,0-1.76.19-2.37.55l-85.32,49.21c-.48.28-.75.62-.75.95,0,.36.32.76.88,1.08l58.28,33.68c.69.4,1.64.63,2.62.63Z" style="fill:#fff; stroke:#606060; stroke-linecap:round; stroke-linejoin:round; stroke-width:.5px;"/><polygon points="75.93 161.12 143.97 121.87 141.21 120.27 73.16 159.52 75.93 161.12" style="fill:#e95420; stroke-width:0px;"/><polygon points="101.69 183.37 181.37 137.41 151.78 120.31 72.1 166.27 101.69 183.37" style="fill:#fff; stroke:#606060; stroke-linecap:round; stroke-linejoin:round; stroke-width:.5px;"/><path d="M120.04,163.91l37.12-21.4c.26-.15.76-.11,1.09.08l3.09,1.79c.34.2.4.48.14.63l-37.12,21.4c-.26.15-.75.11-1.09-.08l-3.09-1.79c-.34-.2-.4-.48-.14-.63Z" style="fill:#666; opacity:.2; stroke-width:0px;"/><path d="M105.72,172.09l2.86-1.65c.26-.15.75-.11,1.1.08l3.09,1.79c.34.2.4.48.14.63l-2.85,1.65c-.26.15-.76.11-1.1-.08l-3.09-1.79c-.34-.2-.4-.48-.14-.63Z" style="fill:#666; opacity:.2; stroke-width:0px;"/><path d="M100.96,174.83l2.85-1.65c.26-.15.75-.11,1.09.08l3.09,1.79c.34.2.4.48.14.63l-2.85,1.65c-.26.15-.76.11-1.1-.08l-3.09-1.79c-.34-.19-.4-.48-.14-.63Z" style="fill:#666; opacity:.2; stroke-width:0px;"/><path d="M96.2,177.58l2.86-1.65c.26-.15.75-.11,1.09.08l3.09,1.79c.34.2.4.48.14.63l-2.86,1.65c-.26.15-.75.11-1.09-.08l-3.09-1.79c-.34-.2-.4-.48-.14-.63Z" style="fill:#666; opacity:.2; stroke-width:0px;"/><path d="M158.6,134.54l2.86-1.65c.26-.15.69-.4.95-.55l2.85-1.65c.26-.15.75-.11,1.09.08l3.09,1.79c.34.2.4.48.14.63l-2.85,1.65c-.26.15-.69.4-.95.55l-2.86,1.65c-.26.15-.75.11-1.09-.08l-3.09-1.79c-.34-.2-.4-.48-.14-.63Z" style="fill:#666; opacity:.2; stroke-width:0px;"/><path d="M153.84,137.29l2.85-1.65c.26-.15.75-.11,1.09.08l3.09,1.79c.34.2.4.48.14.63l-2.86,1.65c-.26.15-.75.11-1.09-.08l-3.09-1.79c-.34-.2-.41-.48-.14-.63Z" style="fill:#666; opacity:.2; stroke-width:0px;"/><path d="M154.32,129.87l.95-.55c.26-.15.69-.4.95-.55l2.86-1.65c.26-.15.75-.11,1.09.08l3.09,1.79c.34.2.4.48.14.63l-2.86,1.65c-.26.15-.69.4-.95.55l-.95.55c-.26.15-.75.11-1.09-.08l-3.09-1.79c-.34-.2-.4-.48-.14-.63Z" style="fill:#666; opacity:.2; stroke-width:0px;"/><path d="M149.56,132.61l2.85-1.65c.26-.15.75-.11,1.09.08l3.09,1.79c.34.2.4.48.14.63l-2.85,1.65c-.26.15-.75.11-1.09-.08l-3.09-1.79c-.34-.2-.41-.48-.14-.63Z" style="fill:#666; opacity:.2; stroke-width:0px;"/><path d="M150.04,125.2l2.85-1.64c.26-.15.75-.11,1.1.08l3.09,1.79c.34.2.4.48.14.63l-2.86,1.65c-.26.15-.75.11-1.09-.08l-3.09-1.79c-.34-.2-.4-.48-.14-.63Z" style="fill:#666; opacity:.2; stroke-width:0px;"/><path d="M145.28,127.94l2.85-1.65c.26-.15.75-.11,1.1.08l3.09,1.79c.34.2.4.48.14.63l-2.85,1.65c-.26.15-.76.11-1.1-.08l-3.09-1.79c-.34-.2-.4-.48-.14-.63Z" style="fill:#666; opacity:.2; stroke-width:0px;"/><path d="M140.52,130.68l2.86-1.65c.26-.15.75-.11,1.09.08l3.09,1.79c.34.2.4.48.14.63l-2.86,1.65c-.26.15-.75.11-1.09-.08l-3.09-1.79c-.34-.2-.4-.48-.14-.63Z" style="fill:#666; opacity:.2; stroke-width:0px;"/><path d="M149.08,140.03l2.85-1.65c.26-.15.75-.11,1.09.08l3.09,1.79c.34.2.4.48.14.63l-2.86,1.65c-.26.15-.75.11-1.09-.08l-3.09-1.79c-.34-.2-.4-.48-.14-.63Z" style="fill:#666; opacity:.2; stroke-width:0px;"/><path d="M144.32,142.77l2.85-1.65c.26-.15.76-.11,1.1.08l3.09,1.79c.34.2.4.48.14.63l-2.86,1.65c-.26.15-.75.11-1.09-.08l-3.09-1.79c-.34-.2-.4-.48-.14-.63Z" style="fill:#666; opacity:.2; stroke-width:0px;"/><path d="M139.56,145.52l2.86-1.65c.26-.15.75-.11,1.09.08l3.09,1.79c.34.2.4.48.14.63l-2.86,1.65c-.26.15-.76.11-1.1-.08l-3.09-1.79c-.34-.2-.4-.48-.14-.63Z" style="fill:#666; opacity:.2; stroke-width:0px;"/><path d="M144.8,135.36l2.86-1.65c.26-.15.76-.11,1.09.08l3.09,1.79c.34.2.4.48.14.63l-2.86,1.65c-.26.15-.76.11-1.1-.08l-3.09-1.79c-.34-.2-.4-.48-.14-.63Z" style="fill:#666; opacity:.2; stroke-width:0px;"/><path d="M140.04,138.1l2.86-1.65c.26-.15.76-.11,1.1.08l3.09,1.79c.34.2.41.48.14.63l-2.86,1.65c-.26.15-.75.11-1.09-.08l-3.09-1.79c-.34-.2-.41-.48-.14-.63Z" style="fill:#666; opacity:.2; stroke-width:0px;"/><path d="M135.28,140.84l2.86-1.65c.26-.15.75-.11,1.09.08l3.09,1.79c.34.2.4.48.14.63l-2.86,1.65c-.26.15-.75.11-1.09-.08l-3.09-1.79c-.34-.2-.4-.48-.14-.63Z" style="fill:#666; opacity:.2; stroke-width:0px;"/><path d="M135.76,133.43l2.86-1.64c.26-.15.75-.11,1.09.08l3.09,1.79c.34.2.4.48.14.63l-2.86,1.65c-.26.15-.76.11-1.09-.08l-3.09-1.79c-.34-.2-.4-.48-.14-.63Z" style="fill:#666; opacity:.2; stroke-width:0px;"/><path d="M131,136.17l2.86-1.65c.26-.15.75-.11,1.09.08l3.09,1.79c.34.2.4.48.14.63l-2.85,1.65c-.26.15-.76.11-1.1-.08l-3.09-1.79c-.34-.2-.41-.48-.14-.63Z" style="fill:#666; opacity:.2; stroke-width:0px;"/><path d="M126.24,138.92l2.86-1.65c.26-.15.75-.11,1.09.08l3.09,1.79c.34.2.4.48.14.63l-2.86,1.65c-.26.15-.75.11-1.09-.08l-3.09-1.79c-.34-.2-.41-.48-.15-.63Z" style="fill:#666; opacity:.2; stroke-width:0px;"/><path d="M134.8,148.26l2.86-1.65c.26-.15.75-.11,1.09.08l3.09,1.79c.34.2.4.48.14.63l-2.86,1.65c-.26.15-.75.11-1.09-.08l-3.09-1.79c-.34-.2-.4-.48-.14-.63Z" style="fill:#666; opacity:.2; stroke-width:0px;"/><path d="M130.04,151l2.86-1.65c.26-.15.75-.11,1.09.08l3.09,1.79c.34.2.4.48.14.63l-2.86,1.65c-.26.15-.75.11-1.09-.08l-3.09-1.79c-.34-.2-.4-.48-.14-.63Z" style="fill:#666; opacity:.2; stroke-width:0px;"/><path d="M125.28,153.75l2.85-1.65c.26-.15.76-.11,1.1.08l3.09,1.79c.34.2.4.48.14.63l-2.86,1.65c-.26.15-.75.11-1.09-.08l-3.09-1.79c-.34-.2-.4-.48-.14-.63Z" style="fill:#666; opacity:.2; stroke-width:0px;"/><path d="M130.52,143.59l2.85-1.65c.26-.15.76-.11,1.09.08l3.09,1.79c.34.2.4.48.14.63l-2.86,1.65c-.26.15-.75.11-1.09-.08l-3.09-1.79c-.34-.2-.4-.48-.14-.63Z" style="fill:#666; opacity:.2; stroke-width:0px;"/><path d="M125.76,146.33l2.85-1.65c.26-.15.76-.11,1.1.08l3.09,1.79c.34.2.4.48.14.63l-2.85,1.65c-.26.15-.75.11-1.09-.08l-3.09-1.79c-.34-.2-.4-.48-.14-.63Z" style="fill:#666; opacity:.2; stroke-width:0px;"/><path d="M121,149.07l2.86-1.65c.26-.15.75-.11,1.09.08l3.09,1.79c.34.2.4.48.14.63l-2.86,1.65c-.26.15-.75.11-1.09-.08l-3.09-1.79c-.34-.2-.4-.48-.14-.63Z" style="fill:#666; opacity:.2; stroke-width:0px;"/><path d="M121.48,141.66l2.86-1.65c.26-.15.75-.11,1.09.08l3.09,1.79c.34.2.4.48.14.63l-2.86,1.65c-.26.15-.75.11-1.09-.08l-3.09-1.79c-.34-.2-.41-.48-.14-.63Z" style="fill:#666; opacity:.2; stroke-width:0px;"/><path d="M116.72,144.4l2.85-1.65c.26-.15.76-.11,1.09.08l3.09,1.79c.34.2.41.48.14.63l-2.86,1.65c-.26.15-.75.11-1.1-.08l-3.09-1.79c-.34-.2-.4-.48-.14-.63Z" style="fill:#666; opacity:.2; stroke-width:0px;"/><path d="M111.97,147.15l2.86-1.65c.26-.15.75-.11,1.09.08l3.09,1.79c.34.2.4.48.14.63l-2.86,1.65c-.26.15-.76.11-1.09-.08l-3.09-1.79c-.34-.2-.4-.48-.14-.63Z" style="fill:#666; opacity:.2; stroke-width:0px;"/><path d="M120.52,156.49l2.86-1.65c.26-.15.75-.11,1.1.08l3.09,1.79c.34.2.4.48.14.63l-2.86,1.65c-.26.15-.75.11-1.09-.08l-3.09-1.79c-.34-.2-.41-.48-.14-.63Z" style="fill:#666; opacity:.2; stroke-width:0px;"/><path d="M115.76,159.23l2.86-1.65c.26-.15.75-.11,1.09.08l3.09,1.79c.34.2.41.48.14.63l-2.86,1.65c-.26.15-.75.11-1.09-.08l-3.09-1.79c-.34-.2-.4-.48-.14-.63Z" style="fill:#666; opacity:.2; stroke-width:0px;"/><path d="M111,161.98l2.86-1.65c.26-.15.76-.11,1.1.08l3.09,1.79c.34.2.4.48.14.63l-2.85,1.65c-.26.15-.76.11-1.09-.08l-3.09-1.79c-.34-.2-.4-.48-.14-.63Z" style="fill:#666; opacity:.2; stroke-width:0px;"/><path d="M116.24,151.82l2.86-1.65c.26-.15.75-.11,1.09.08l3.09,1.79c.34.2.4.48.14.63l-2.86,1.65c-.26.15-.75.11-1.09-.08l-3.09-1.79c-.34-.2-.4-.48-.14-.63Z" style="fill:#666; opacity:.2; stroke-width:0px;"/><path d="M111.48,154.56l2.86-1.65c.26-.15.75-.11,1.09.08l3.09,1.79c.34.2.4.48.14.63l-2.85,1.65c-.26.15-.76.11-1.09-.08l-3.09-1.79c-.34-.2-.41-.48-.14-.63Z" style="fill:#666; opacity:.2; stroke-width:0px;"/><path d="M106.73,157.31l2.86-1.65c.26-.15.76-.11,1.09.08l3.09,1.79c.34.2.4.48.14.63l-2.86,1.65c-.26.15-.75.11-1.09-.08l-3.09-1.79c-.34-.2-.4-.48-.14-.63Z" style="fill:#666; opacity:.2; stroke-width:0px;"/><path d="M107.21,149.89l2.86-1.65c.26-.15.75-.11,1.09.08l3.09,1.79c.34.2.4.48.14.63l-2.86,1.65c-.26.15-.75.11-1.09-.08l-3.09-1.79c-.34-.2-.41-.48-.14-.63Z" style="fill:#666; opacity:.2; stroke-width:0px;"/><path d="M102.45,152.63l2.86-1.65c.26-.15.75-.11,1.09.08l3.09,1.79c.34.2.4.48.14.63l-2.86,1.65c-.26.15-.75.11-1.09-.08l-3.09-1.79c-.34-.2-.4-.48-.14-.63Z" style="fill:#666; opacity:.2; stroke-width:0px;"/><path d="M97.69,155.38l2.86-1.65c.26-.15.75-.11,1.09.08l3.09,1.79c.34.2.4.48.14.63l-2.86,1.65c-.26.15-.75.11-1.09-.08l-3.09-1.79c-.34-.2-.4-.48-.14-.63Z" style="fill:#666; opacity:.2; stroke-width:0px;"/><path d="M106.25,164.72l2.85-1.65c.26-.15.75-.11,1.09.08l3.09,1.79c.34.2.4.48.14.63l-2.86,1.65c-.26.15-.75.11-1.09-.08l-3.09-1.79c-.34-.2-.4-.48-.14-.63Z" style="fill:#666; opacity:.2; stroke-width:0px;"/><path d="M97.68,169.66l2.85-1.65c.26-.15.69-.4.95-.55l2.86-1.65c.26-.15.75-.11,1.09.08l3.09,1.79c.34.2.4.48.14.63l-2.86,1.65c-.26.15-.69.4-.95.55l-2.86,1.64c-.26.15-.75.12-1.09-.08l-3.09-1.79c-.34-.2-.4-.48-.14-.63Z" style="fill:#666; opacity:.2; stroke-width:0px;"/><path d="M101.97,160.05l2.86-1.65c.26-.15.75-.11,1.09.08l3.09,1.79c.34.2.4.48.14.63l-2.86,1.65c-.26.15-.75.11-1.09-.08l-3.09-1.79c-.34-.2-.4-.48-.14-.63Z" style="fill:#666; opacity:.2; stroke-width:0px;"/><path d="M97.21,162.79l2.86-1.65c.26-.15.75-.11,1.09.08l3.09,1.79c.34.2.4.48.14.63l-2.85,1.65c-.26.15-.75.11-1.09-.08l-3.09-1.79c-.34-.2-.4-.48-.14-.63Z" style="fill:#666; opacity:.2; stroke-width:0px;"/><path d="M92.45,165.54l2.85-1.65c.26-.15.75-.11,1.1.08l3.09,1.79c.34.2.4.48.14.63l-2.86,1.65c-.26.15-.75.11-1.09-.08l-3.09-1.79c-.34-.2-.4-.48-.14-.63Z" style="fill:#666; opacity:.2; stroke-width:0px;"/><path d="M92.93,158.12l2.85-1.65c.26-.15.76-.11,1.1.08l3.09,1.79c.34.2.4.48.14.63l-2.86,1.65c-.26.15-.76.11-1.1-.08l-3.09-1.79c-.34-.2-.4-.48-.14-.63Z" style="fill:#666; opacity:.2; stroke-width:0px;"/><path d="M88.17,160.87l2.86-1.65c.26-.15.75-.11,1.1.08l3.09,1.79c.34.2.4.48.14.63l-2.86,1.65c-.26.15-.76.11-1.09-.08l-3.09-1.79c-.34-.2-.4-.48-.14-.63Z" style="fill:#666; opacity:.2; stroke-width:0px;"/><path d="M83.41,163.61l2.85-1.65c.26-.15.75-.11,1.09.08l3.09,1.79c.34.2.4.48.14.63l-2.85,1.64c-.26.15-.76.11-1.1-.08l-3.09-1.79c-.34-.2-.4-.48-.14-.63Z" style="fill:#666; opacity:.2; stroke-width:0px;"/><path d="M77.7,166.9l3.81-2.2c.26-.15.76-.11,1.09.08l3.09,1.79c.34.2.41.48.15.63l-3.81,2.19c-.26.15-.75.11-1.09-.08l-3.09-1.79c-.34-.2-.41-.48-.14-.63Z" style="fill:#666; opacity:.2; stroke-width:0px;"/><path d="M115.28,166.65l2.85-1.65c.26-.15.76-.11,1.09.08l3.09,1.79c.34.2.41.48.14.63l-2.85,1.65c-.26.15-.76.11-1.09-.08l-3.09-1.79c-.34-.2-.4-.48-.14-.63Z" style="fill:#666; opacity:.2; stroke-width:0px;"/><path d="M110.52,169.39l2.86-1.65c.26-.15.75-.11,1.09.08l3.09,1.79c.34.2.4.48.14.63l-2.86,1.65c-.26.15-.76.11-1.09-.08l-3.09-1.79c-.34-.2-.4-.48-.14-.63Z" style="fill:#666; opacity:.2; stroke-width:0px;"/><path d="M90.06,174.05l5.71-3.29c.26-.15.76-.11,1.09.08l3.09,1.79c.34.2.4.48.14.63l-5.71,3.29c-.26.15-.75.11-1.09-.08l-3.09-1.79c-.34-.2-.4-.48-.14-.63Z" style="fill:#666; opacity:.2; stroke-width:0px;"/><path d="M83.88,170.47l6.66-3.84c.26-.15.75-.11,1.09.08l3.09,1.79c.34.2.4.48.14.63l-6.66,3.84c-.26.15-.75.11-1.09-.08l-3.09-1.79c-.34-.2-.4-.48-.14-.63Z" style="fill:#666; opacity:.2; stroke-width:0px;"/><path d="M171.67,138.73c.18.11.47.11.65.01l3.38-1.94c.17-.1.17-.27-.01-.37l-1.28-.74c-.18-.1-.47-.11-.65-.01l-3.38,1.94c-.18.1-.17.27.02.37l1.28.74Z" style="fill:#666; opacity:.2; stroke-width:0px;"/><path d="M166.99,141.4c.18.11.47.11.65.01l3.38-1.94c.18-.1.17-.27-.01-.37l-1.28-.74c-.18-.11-.48-.11-.65,0l-3.38,1.93c-.18.1-.17.27.01.37l1.28.74Z" style="fill:#666; opacity:.2; stroke-width:0px;"/><path d="M162.32,144.07c.19.11.48.11.65,0l3.38-1.93c.17-.1.17-.27-.01-.37l-1.28-.74c-.18-.11-.47-.11-.64,0l-3.38,1.93c-.18.1-.17.27.01.37l1.28.74Z" style="fill:#666; opacity:.2; stroke-width:0px;"/><path d="M164.57,139.99c.18.11.48.11.65,0l3.38-1.93c.17-.1.17-.27-.01-.37l-1.28-.75c-.18-.1-.47-.11-.65,0l-3.38,1.93c-.17.1-.17.27.01.37l1.28.74Z" style="fill:#666; opacity:.2; stroke-width:0px;"/><path d="M135.7,171.02c-1.29-.75-1.34-1.93-.1-2.64l19.79-11.41c1.23-.71,3.28-.69,4.57.06l12.96,7.49c1.29.75,1.34,1.93.1,2.64l-19.79,11.41c-1.23.71-3.28.68-4.57-.06l-12.96-7.49Z" style="fill:#666; opacity:.2; stroke-width:0px;"/></g><g id="c"><path d="M145.74,40.94l-2.62-1.12c-.54-.19-1.21-.1-1.93.31l-81.11,46.32c-1.82,1.05-3.31,3.8-3.31,6.12l.02,67.57c0,1.06.4,1.78,1.05,2.08l2.19,1.02-.12-.34s.1-.05.15-.08l81.47-47.02c1.82-1.05,3.29-3.54,3.29-5.57V41.76c0-.11,0-.21-.01-.31l.93-.5Z" style="fill:#fff; stroke:#606060; stroke-linecap:round; stroke-linejoin:round; stroke-width:.5px;"/><path d="M60.57,163.33c.3-.02.65-.15,1.01-.35l82.37-47.56c1.56-.9,2.88-3.14,2.88-4.88V42.97c0-1.29-.54-2.09-1.37-2.02-.27.02-.56.12-.87.3l-82.34,47.54c-1.57.91-2.9,3.39-2.9,5.43v67.56c0,.55.13.98.37,1.25.2.23.49.33.84.3h0Z" style="fill:#fff; stroke:#606060; stroke-linecap:round; stroke-linejoin:round; stroke-width:.5px;"/><path d="M103.09,66.62c-.48.28-.88,1.01-.88,1.62s.39.89.88.61c.48-.28.88-1.01.88-1.62s-.39-.89-.88-.61Z" style="fill:#fff; stroke:#606060; stroke-linecap:round; stroke-linejoin:round; stroke-width:.5px;"/><polyline points="63.2 93.46 63.2 158.31 142.98 112.25 142.98 47.4 63.2 93.46" style="fill:#fff; stroke:#606060; stroke-linecap:round; stroke-linejoin:round; stroke-width:.5px;"/></g><path d="M72.91,100.49l-6.14,3.55c-.38.22-.86-.06-.86-.5v-7.09c0-.6.32-1.16.84-1.46l6.14-3.55c.38-.22.86.06.86.5v7.09c0,.6-.32,1.16-.84,1.46Z" style="fill:#e95420; stroke-width:0px;"/><path d="M72.91,112.74l-6.14,3.55c-.38.22-.86-.06-.86-.5v-7.09c0-.6.32-1.16.84-1.46l6.14-3.55c.38-.22.86.06.86.5v7.09c0,.6-.32,1.16-.84,1.46Z" style="fill:#666; opacity:.2; stroke-width:0px;"/><path d="M72.91,124.99l-6.14,3.55c-.38.22-.86-.06-.86-.5v-7.09c0-.6.32-1.16.84-1.46l6.14-3.55c.38-.22.86.06.86.5v7.09c0,.6-.32,1.16-.84,1.46Z" style="fill:#666; opacity:.2; stroke-width:0px;"/><path d="M72.91,137.24l-6.14,3.55c-.38.22-.86-.06-.86-.5v-7.09c0-.6.32-1.16.84-1.46l6.14-3.55c.38-.22.86.06.86.5v7.09c0,.6-.32,1.16-.84,1.46Z" style="fill:#e95420; stroke-width:0px;"/><path d="M72.91,149.49l-6.14,3.55c-.38.22-.86-.06-.86-.5v-7.09c0-.6.32-1.16.84-1.46l6.14-3.55c.38-.22.86.06.86.5v7.09c0,.6-.32,1.16-.84,1.46Z" style="fill:#e95420; stroke-width:0px;"/><path d="M140,61.38l-6.14,3.55c-.38.22-.86-.06-.86-.5v-7.09c0-.6.32-1.16.84-1.46l6.14-3.55c.38-.22.86.06.86.5v7.09c0,.6-.32,1.16-.84,1.46Z" style="fill:#e95420; stroke-width:0px;"/><path d="M140,73.63l-6.14,3.55c-.38.22-.86-.06-.86-.5v-7.09c0-.6.32-1.16.84-1.46l6.14-3.55c.38-.22.86.06.86.5v7.09c0,.6-.32,1.16-.84,1.46Z" style="fill:#666; opacity:.2; stroke-width:0px;"/><path d="M140,85.88l-6.14,3.55c-.38.22-.86-.06-.86-.5v-7.09c0-.6.32-1.16.84-1.46l6.14-3.55c.38-.22.86.06.86.5v7.09c0,.6-.32,1.16-.84,1.46Z" style="fill:#e95420; stroke-width:0px;"/><path d="M140,98.13l-6.14,3.55c-.38.22-.86-.06-.86-.5v-7.09c0-.6.32-1.16.84-1.46l6.14-3.55c.38-.22.86.06.86.5v7.09c0,.6-.32,1.16-.84,1.46Z" style="fill:#666; opacity:.2; stroke-width:0px;"/><path d="M140,110.38l-6.14,3.55c-.38.22-.86-.06-.86-.5v-7.09c0-.6.32-1.16.84-1.46l6.14-3.55c.38-.22.86.06.86.5v7.09c0,.6-.32,1.16-.84,1.46Z" style="fill:#e95420; stroke-width:0px;"/><polygon points="105.08 86.98 86.33 97.8 86.33 96.47 105.08 85.64 105.08 86.98" style="fill:#666; opacity:.5; stroke-width:0px;"/><polygon points="101.32 91.77 86.33 100.43 86.33 99.1 101.32 90.44 101.32 91.77" style="fill:#666; opacity:.5; stroke-width:0px;"/><polygon points="106.24 91.55 86.33 103.05 86.33 101.72 106.24 90.22 106.24 91.55" style="fill:#666; opacity:.5; stroke-width:0px;"/><polygon points="118.75 86.95 84.88 106.51 84.88 105.17 118.75 85.62 118.75 86.95" style="fill:#666; opacity:.5; stroke-width:0px;"/><polygon points="102.9 98.72 82.98 110.22 82.98 108.89 102.9 97.39 102.9 98.72" style="fill:#666; opacity:.5; stroke-width:0px;"/><polygon points="92.47 107.37 81.41 113.75 81.41 112.42 92.47 106.04 92.47 107.37" style="fill:#666; opacity:.5; stroke-width:0px;"/><polygon points="101.32 104.88 81.41 116.38 81.41 115.04 101.32 103.55 101.32 104.88" style="fill:#666; opacity:.5; stroke-width:0px;"/><polygon points="101.32 120.61 81.41 132.11 81.41 130.78 101.32 119.28 101.32 120.61" style="fill:#666; opacity:.5; stroke-width:0px;"/><polygon points="117.37 111.35 103.09 119.59 103.09 118.26 117.37 110.02 117.37 111.35" style="fill:#666; opacity:.5; stroke-width:0px;"/><polygon points="112.43 111.58 106.7 114.89 106.7 113.55 112.43 110.25 112.43 111.58" style="fill:#666; opacity:.5; stroke-width:0px;"/><polygon points="100.12 102.95 94.39 106.26 94.39 104.93 100.12 101.62 100.12 102.95" style="fill:#666; opacity:.5; stroke-width:0px;"/><polygon points="93.83 127.56 81.41 134.73 81.41 133.4 93.83 126.23 93.83 127.56" style="fill:#666; opacity:.5; stroke-width:0px;"/><polygon points="107.92 119.43 95.5 126.6 95.5 125.26 107.92 118.1 107.92 119.43" style="fill:#666; opacity:.5; stroke-width:0px;"/><polygon points="104.8 105.5 84.88 116.99 84.88 115.66 104.8 104.16 104.8 105.5" style="fill:#666; opacity:.5; stroke-width:0px;"/><polygon points="104.8 115.98 84.88 127.48 84.88 126.15 104.8 114.65 104.8 115.98" style="fill:#666; opacity:.5; stroke-width:0px;"/><polygon points="125.43 96.2 88.49 117.53 88.49 116.2 125.43 94.87 125.43 96.2" style="fill:#666; opacity:.5; stroke-width:0px;"/><polygon points="127.69 97.52 90.75 118.85 90.75 117.52 127.69 96.19 127.69 97.52" style="fill:#666; opacity:.5; stroke-width:0px;"/><polygon points="113.93 108.09 88.49 122.77 88.49 121.44 113.93 106.76 113.93 108.09" style="fill:#666; opacity:.5; stroke-width:0px;"/><polygon points="89.35 91.77 86.71 90.24 89.41 85.56 89.76 85.75 87.39 89.85 89.69 91.17 89.35 91.77" style="fill:#e95420; stroke-width:0px;"/><polygon points="95.52 88.2 95.18 88 97.54 83.91 95.25 82.59 95.59 81.99 98.23 83.51 95.52 88.2" style="fill:#e95420; stroke-width:0px;"/><polygon points="90.82 91.99 90.4 91.96 94.02 82.49 94.45 82.53 90.82 91.99" style="fill:#e95420; stroke-width:0px;"/><polygon points="111.13 125.89 108.49 124.37 111.2 119.68 111.54 119.88 109.18 123.97 111.47 125.29 111.13 125.89" style="fill:#e95420; stroke-width:0px;"/><polygon points="117.3 122.32 116.96 122.13 119.32 118.03 117.03 116.71 117.37 116.11 120.01 117.64 117.3 122.32" style="fill:#e95420; stroke-width:0px;"/><polygon points="112.6 126.11 112.18 126.08 115.81 116.61 116.23 116.65 112.6 126.11" style="fill:#e95420; stroke-width:0px;"/><path d="M196.73,106.01c-3.81,2.2-3.81,5.77,0,7.97,3.81,2.2,18.69,2.82,18.69,2.82,0,0-1.07-8.59-4.89-10.79-3.81-2.2-10-2.2-13.81,0ZM206.48,111.64c-1.57.91-4.13.91-5.7,0s-1.57-2.38,0-3.29c1.57-.91,4.13-.91,5.7,0s1.57,2.38,0,3.29Z" style="fill:#e95420; stroke-width:0px;"/><path d="M117.98,212.46h0s-7.4-3.41-7.4-3.41c-.02,0-.03-.02-.05-.02l-.09-.04h0c-2.1-.93-5.12-.84-7.05.27-.98.57-1.5,1.3-1.56,2.05l-7.19,4.15c-1.29.03-2.56.33-3.54.9-1.92,1.11-2.07,2.86-.46,4.07h0s.07.05.07.05c.01,0,.03.02.04.03l5.91,4.27h0c.12.1.25.19.4.28,1.48.85,3.88.85,5.36,0,1.12-.65,1.39-1.6.81-2.39h0s-1.4-2.19-1.4-2.19c.8.06,1.64-.09,2.25-.44.9-.52,1.03-1.32.39-1.92l1.95-1.13c1.04.37,2.43.3,3.33-.22.61-.35.87-.84.77-1.3l3.8.81h0c1.38.33,3.02.18,4.14-.47,1.48-.85,1.48-2.24,0-3.09-.15-.09-.31-.16-.48-.23ZM96.59,218.18l-1.19.69,1.19.69-.99.57-1.19-.69-1.19.69-.99-.57,1.19-.69-1.19-.69.99-.57,1.19.69,1.19-.69.99.57ZM103.55,219.71c-.76.44-2,.44-2.76,0s-.76-1.15,0-1.59c.76-.44,2-.44,2.76,0,.76.44.76,1.15,0,1.59ZM103.99,215.86l-1.35.78-.64-.37,1.35-.78.64.37ZM105.45,210.07c.49-.28,1.29-.28,1.78,0s.49.74,0,1.03-1.29.28-1.78,0-.49-.74,0-1.03ZM109.22,216.44c-.76.44-2,.44-2.76,0s-.76-1.15,0-1.59,2-.44,2.76,0,.76,1.15,0,1.59ZM107.23,212.8c-.49.28-1.29.28-1.78,0s-.49-.74,0-1.03,1.29-.28,1.78,0,.49.74,0,1.03ZM110.19,212.8c-.49.28-1.29.28-1.78,0s-.49-.74,0-1.03,1.29-.28,1.78,0,.49.74,0,1.03ZM110.19,211.1c-.49.28-1.29.28-1.78,0s-.49-.74,0-1.03,1.29-.28,1.78,0,.49.74,0,1.03Z" style="fill:#e95420; stroke-width:0px;"/><path d="M178.96,200.73l-14.57,8.41c-.7.41-.7,1.07,0,1.47l9.23,5.33c.7.41,1.85.41,2.55,0l4.23-2.44h6.1s0-3.52,0-3.52l4.23-2.44c.7-.41.7-1.07,0-1.47l-9.23-5.33c-.7-.41-1.85-.41-2.55,0ZM180.7,206.28h0c.07.16.11.32.1.48l.77,3.52c.05.22-.27.4-.65.38l-6.09-.44c-.28,0-.55-.02-.82-.06h0s0,0,0,0c-.93-.15-1.76-.56-2.11-1.26-.12-.24-.12-.51,0-.75.48-.92,1.8-1.35,3.07-1.3-.08-.74.66-1.5,2.25-1.77.42-.07.88-.07,1.3,0,1.21.2,1.93.68,2.18,1.22h0Z" style="fill:#e95420; stroke-width:0px;"/><path d="M218.04,175.97l-2.89,1.67-1.05-.61c-.46-.27-1.21-.27-1.67,0l-6.45,3.73c-.46.27-.46.7,0,.96l1.05.61-2.62,1.51c-.97.56-.97,1.47,0,2.03l8.28,4.78c.97.56,2.55.56,3.52,0l13.63-7.87c.97-.56.97-1.47,0-2.03l-8.28-4.78c-.97-.56-2.55-.56-3.52,0ZM207.04,185.18c-.43.25-1.13.25-1.57,0s-.43-.66,0-.91,1.13-.25,1.57,0,.43.66,0,.91ZM208.31,184.01c-.22.13-.59.13-.81,0s-.22-.34,0-.47.59-.13.81,0,.22.34,0,.47ZM221.46,185.82c-2.4,1.38-6.29,1.38-8.68,0s-2.4-3.63,0-5.01c2.4-1.38,6.28-1.38,8.68,0s2.4,3.63,0,5.01Z" style="fill:#e95420; stroke-width:0px;"/><path d="M214.16,181.6c-1.63.94-1.63,2.47,0,3.42,1.63.94,4.28.94,5.92,0,1.63-.94,1.63-2.47,0-3.42-1.63-.94-4.28-.94-5.92,0Z" style="fill:#e95420; stroke-width:0px;"/></g></g></svg>