<?xml version="1.0" encoding="UTF-8"?><svg xmlns="http://www.w3.org/2000/svg" viewBox="0 0 280 280"><g style="isolation:isolate;"><g id="a"><path d="M239.39,93.13l-9.88-5.7-6.01,3.47-5.89-3.4-14.8,8.54v8.28l1.22.7-.82.47-1.14.66c-.21.12-.41.26-.6.41-.29.23-.56.5-.81.8-.17.2-.32.41-.47.63-.14.22-.28.45-.4.68-.41.82-.66,1.72-.66,2.55,0,1.32-.75,2.87-1.77,3.84-.16.15-.32.28-.49.4-.08.06-.17.11-.26.17l-31.68,18.53,4.44,2.57,1.19.69h0l31.28-18.3c.41-.24.79-.55,1.14-.93.35-.37.66-.8.92-1.26.2-.34.36-.71.5-1.07.04-.12.08-.25.12-.37.07-.25.13-.5.17-.74.04-.25.06-.49.06-.73,0-.12,0-.24.02-.37.04-.38.14-.78.29-1.19.12-.33.28-.65.46-.96.12-.21.25-.4.39-.58.07-.09.14-.18.21-.27.36-.43.76-.78,1.17-1.02l2.35-1.36,7.95,4.59,14.8-8.54v-5.13l6.98-4.03v-2.03Z" style="fill:#fff; stroke:#606060; stroke-linecap:round; stroke-linejoin:round; stroke-width:2px;"/><polygon points="229.51 98.83 239.39 93.13 229.51 87.43 219.64 93.13 229.51 98.83" style="fill:#fff; stroke:#606060; stroke-linecap:round; stroke-linejoin:round; stroke-width:.5px;"/><polygon points="229.51 100.87 239.39 95.17 239.39 93.13 229.51 98.83 229.51 100.87" style="fill:#e95420; stroke:#606060; stroke-linecap:round; stroke-linejoin:round; stroke-width:.5px;"/><polygon points="229.51 100.87 219.64 95.17 219.64 93.13 229.51 98.83 229.51 100.87" style="fill:#fff; stroke:#606060; stroke-linecap:round; stroke-linejoin:round; stroke-width:.5px;"/><path d="M196.63,115.65c1.39-.81,2.52-2.79,2.52-4.41,0-1.9,1.29-4.13,2.93-5.08l1.95-1.13-1.22-.7v-8.28s14.8-8.54,14.8-8.54l14.8,8.54v8.28s-14.8,8.54-14.8,8.54l-7.95-4.59-2.35,1.36c-.66.38-1.29,1.04-1.77,1.87-.18.31-.34.63-.46.96-.2.54-.31,1.08-.31,1.56,0,1.92-1.28,4.16-2.91,5.1l-31.28,18.3-5.63-3.25,31.68-18.53Z" style="fill:#fff; stroke:#606060; stroke-linecap:round; stroke-linejoin:round; stroke-width:.5px;"/><polygon points="217.61 104.59 232.41 96.04 217.61 87.5 202.81 96.04 217.61 104.59" style="fill:#fff; stroke:#606060; stroke-linecap:round; stroke-linejoin:round; stroke-width:.5px;"/><polygon points="217.61 112.87 232.41 104.33 232.41 96.04 217.61 104.59 217.61 112.87" style="fill:#e95420; stroke:#606060; stroke-linecap:round; stroke-linejoin:round; stroke-width:.5px;"/><polygon points="217.61 112.87 202.81 104.33 202.81 96.04 217.61 104.59 217.61 112.87" style="fill:#fff; stroke:#606060; stroke-linecap:round; stroke-linejoin:round; stroke-width:.5px;"/><polygon points="229.86 104.43 231.17 103.68 231.17 98.42 229.86 99.17 229.86 104.43" style="fill:#fff; stroke-width:0px;"/><polygon points="227.23 105.94 228.54 105.18 228.54 99.93 227.23 100.68 227.23 105.94" style="fill:#fff; stroke-width:0px;"/><polygon points="224.6 107.45 225.91 106.69 225.91 101.44 224.6 102.19 224.6 107.45" style="fill:#fff; stroke-width:0px;"/><polygon points="221.98 108.96 223.28 108.2 223.28 102.95 221.98 103.7 221.98 108.96" style="fill:#fff; stroke-width:0px;"/><polygon points="219.35 110.47 220.65 109.71 220.65 104.45 219.35 105.21 219.35 110.47" style="fill:#fff; stroke-width:0px;"/><path d="M201.86,119.13c1.63-.94,2.91-3.18,2.91-5.1,0-.48.11-1.02.31-1.56.12-.33.28-.65.46-.96.48-.82,1.11-1.48,1.77-1.87l6.07-3.52-5.63-3.25-5.67,3.29c-1.64.95-2.93,3.18-2.93,5.08,0,1.62-1.13,3.6-2.52,4.41l-31.68,18.53,5.63,3.25,31.28-18.3Z" style="fill:#fff; stroke:#606060; stroke-linecap:round; stroke-linejoin:round; stroke-width:.5px;"/><path d="M70.07,133.99s-1.86-1.24-1.89-1.27l-2.67.5s-.23,1.64-.23,1.67l-4.34-.2s.2-1.64.21-1.67l-2.51-.74s-2.16,1.06-2.2,1.08l-2.84-1.92s2.14-1.08,2.19-1.09l-.87-1.55s-2.83-.14-2.88-.14l.33-2.52c.05,0,2.83.12,2.88.13l1.27-1.45c-.09-.05-1.84-1.25-1.87-1.28l3.31-1.64s1.86,1.24,1.89,1.27l2.67-.5s.23-1.64.23-1.67l4.35.2s-.2,1.64-.21,1.67l2.51.74s2.16-1.06,2.2-1.08l2.84,1.92s-2.14,1.08-2.19,1.09l.87,1.55s2.83.14,2.88.14l-.33,2.52c-.05,0-2.83-.12-2.88-.13l-1.27,1.45c.09.05,1.84,1.25,1.87,1.28l-3.31,1.64ZM63.72,130.19c2.14.1,4-.82,4.17-2.06.09-.68-.36-1.32-1.14-1.77-.63-.36-1.48-.61-2.44-.65-2.14-.1-4,.82-4.17,2.06-.09.68.36,1.32,1.14,1.77.63.36,1.48.61,2.44.65h0Z" style="fill:#e95420; stroke-width:0px;"/><polygon points="238.34 129.45 235.57 127.85 234.97 128.19 237.74 129.79 234.97 131.39 235.57 131.74 238.34 130.14 241.11 131.74 241.72 131.39 238.95 129.79 241.72 128.19 241.11 127.85 238.34 129.45" style="fill:#e95420; fill-rule:evenodd; stroke-width:0px;"/><polygon points="36.21 138.96 33.44 137.36 32.84 137.71 35.61 139.31 32.84 140.91 33.44 141.26 36.21 139.66 38.98 141.26 39.59 140.91 36.82 139.31 39.59 137.71 38.98 137.36 36.21 138.96" style="fill:#e95420; fill-rule:evenodd; stroke-width:0px;"/><polygon points="22.21 159.47 19.44 157.87 18.83 158.22 21.6 159.81 18.83 161.41 19.44 161.76 22.21 160.16 24.97 161.76 25.58 161.41 22.81 159.81 25.58 158.22 24.97 157.87 22.21 159.47" style="fill:#e95420; fill-rule:evenodd; stroke-width:0px;"/><polygon points="208.41 214.89 205.64 213.29 205.04 213.64 207.81 215.23 205.04 216.83 205.64 217.18 208.41 215.58 211.18 217.18 211.78 216.83 209.01 215.23 211.78 213.63 211.18 213.29 208.41 214.89" style="fill:#e95420; fill-rule:evenodd; stroke-width:0px;"/><polygon points="256.6 153.01 253.83 151.41 253.23 151.76 256 153.36 253.23 154.96 253.83 155.31 256.6 153.71 259.37 155.31 259.97 154.96 257.2 153.36 259.97 151.76 259.37 151.41 256.6 153.01" style="fill:#e95420; fill-rule:evenodd; stroke-width:0px;"/><polygon points="127.8 240.88 29.62 184.19 152.74 113.11 250.92 169.79 127.8 240.88" style="fill:#666; opacity:.2; stroke-width:0px;"/><path d="M225.69,137.77c-.28-.55-.66-1.02-1.1-1.27l-72.77-42.02c-.6-.35-1.52-.49-2.16-.1l-109.9,63.46c-.18.03-.34.12-.46.27h0s0,0,0,0c-.2.23-.31.58-.31,1.04v21.44c0,1.11.68,2.4,1.51,2.88l73.57,42.48c.42.24.8.23,1.07.02l.02.02,110.37-63.93s.06-.03.09-.05h0s0,0,0,0c.29-.2.47-.61.47-1.19v-21.44c0-.53-.16-1.1-.41-1.61Z" style="fill:#fff; stroke:#606060; stroke-linecap:round; stroke-linejoin:round; stroke-width:2px;"/><path d="M224.59,136.5l-72.77-42.02c-.6-.35-1.44-.5-2.16-.1l-110.36,63.72,58.9,52.7,127.49-73.04c-.28-.55-.66-1.02-1.1-1.27Z" style="fill:#fff; stroke:#606060; stroke-linecap:round; stroke-linejoin:round; stroke-width:.5px;"/><path d="M225.53,162.06s.06-.03.09-.05h0s0,0,0,0c.29-.2.47-.61.47-1.19v-21.44c0-.53-.16-1.1-.41-1.61l-127.49,73.04,16.96,15.18,110.37-63.93Z" style="fill:#e95420; stroke:#606060; stroke-miterlimit:10; stroke-width:.5px;"/><path d="M114.07,225.95l-73.57-42.48c-.83-.48-1.51-1.77-1.51-2.88v-21.44c0-1.11.68-1.62,1.51-1.14l73.57,42.48c.83.48,1.51,1.77,1.51,2.88v21.44c0,1.11-.68,1.62-1.51,1.14Z" style="fill:#fff; stroke:#606060; stroke-linecap:round; stroke-linejoin:round; stroke-width:.5px;"/><polygon points="112.72 221.62 42.33 180.29 42.33 162.56 112.72 203.89 112.72 221.62" style="fill:#666; opacity:.2; stroke-width:0px;"/><ellipse cx="56.59" cy="156.96" rx="4.49" ry="2.59" style="fill:#fff; stroke:#606060; stroke-linecap:round; stroke-linejoin:round; stroke-width:.5px;"/><ellipse cx="150.39" cy="102.08" rx="4.49" ry="2.59" style="fill:#fff; stroke:#606060; stroke-linecap:round; stroke-linejoin:round; stroke-width:.5px;"/><ellipse cx="116.32" cy="191.98" rx="4.49" ry="2.59" style="fill:#fff; stroke:#606060; stroke-linecap:round; stroke-linejoin:round; stroke-width:.5px;"/><ellipse cx="210.11" cy="137.1" rx="4.49" ry="2.59" style="fill:#fff; stroke:#606060; stroke-linecap:round; stroke-linejoin:round; stroke-width:.5px;"/><path d="M100.02,183.95l-32.64-18.85c-.91-.52-.79-1.44.25-2.04h0c1.05-.6,2.63-.67,3.54-.15l32.64,18.85c.91.52.79,1.44-.25,2.04h0c-1.05.6-2.63.67-3.54.15Z" style="fill:#666; opacity:.2; stroke-width:0px;"/><g style="opacity:.2;"><path d="M151.89,135.35c-15.37-8.87-40.28-8.87-55.65,0-15.37,8.87-15.37,23.26,0,32.13,15.37,8.87,40.28,8.87,55.65,0,15.37-8.87,15.37-23.26,0-32.13ZM118.53,154.61c-3.06-1.77-3.06-4.63,0-6.4,3.06-1.77,8.02-1.77,11.08,0,3.06,1.77,3.06,4.63,0,6.4-3.06,1.77-8.02,1.77-11.08,0Z" style="fill:#666; stroke-width:0px;"/></g><path d="M60.54,180.77l-12.16-7.02c-.84-.49-1.52-1.79-1.52-2.91h0c0-1.12.68-1.64,1.52-1.15l12.16,7.02c.84.49,1.52,1.79,1.52,2.91h0c0,1.12-.68,1.64-1.52,1.15Z" style="fill:#bfbfbf; stroke-width:0px;"/><path d="M60.54,187.66l-12.16-7.02c-.84-.49-1.52-1.79-1.52-2.91h0c0-1.12.68-1.64,1.52-1.15l12.16,7.02c.84.49,1.52,1.79,1.52,2.91h0c0,1.12-.68,1.64-1.52,1.15Z" style="fill:#bfbfbf; stroke-width:0px;"/><ellipse cx="96.12" cy="203.79" rx="1.91" ry="3.31" transform="translate(-89.02 75.37) rotate(-30)" style="fill:#bfbfbf; stroke-width:0px;"/><ellipse cx="103.33" cy="207.95" rx="1.26" ry="2.18" transform="translate(-90.14 79.53) rotate(-30)" style="fill:#bfbfbf; stroke-width:0px;"/><g style="opacity:.35;"><polygon points="57.03 208.21 77.85 220.23 76.47 221.02 55.65 209 57.03 208.21" style="fill:#e95420; mix-blend-mode:multiply; stroke-width:0px;"/><polygon points="54.27 209.8 75.1 221.82 73.72 222.62 52.89 210.59 54.27 209.8" style="fill:#e95420; mix-blend-mode:multiply; stroke-width:0px;"/><polygon points="51.52 211.39 72.34 223.41 70.96 224.21 50.14 212.18 51.52 211.39" style="fill:#e95420; mix-blend-mode:multiply; stroke-width:0px;"/><polygon points="48.76 212.98 69.58 225 68.21 225.8 47.38 213.78 48.76 212.98" style="fill:#e95420; mix-blend-mode:multiply; stroke-width:0px;"/><polygon points="46 214.57 66.83 226.59 65.45 227.39 44.62 215.37 46 214.57" style="fill:#e95420; mix-blend-mode:multiply; stroke-width:0px;"/><polygon points="43.25 216.16 64.07 228.19 62.69 228.98 41.87 216.96 43.25 216.16" style="fill:#e95420; mix-blend-mode:multiply; stroke-width:0px;"/><polygon points="40.49 217.75 61.31 229.78 59.94 230.57 39.11 218.55 40.49 217.75" style="fill:#e95420; mix-blend-mode:multiply; stroke-width:0px;"/></g><g style="opacity:.35;"><polygon points="256.97 194.29 256.97 195.93 255.78 196.62 255.78 193.6 256.97 194.29" style="fill:#e95420; stroke-width:0px;"/><polygon points="253.97 192.56 253.97 197.67 252.78 198.36 252.78 191.87 253.97 192.56" style="fill:#e95420; stroke-width:0px;"/><polygon points="250.98 190.83 250.98 199.4 249.78 200.09 249.78 190.14 250.98 190.83" style="fill:#e95420; stroke-width:0px;"/><polygon points="247.98 189.1 247.98 201.13 246.78 201.82 246.78 188.41 247.98 189.1" style="fill:#e95420; stroke-width:0px;"/><polygon points="244.98 188.71 244.98 202.86 243.79 203.55 243.79 189.4 244.98 188.71" style="fill:#e95420; stroke-width:0px;"/><polygon points="241.98 190.44 241.98 204.59 240.79 205.28 240.79 191.13 241.98 190.44" style="fill:#e95420; stroke-width:0px;"/><polygon points="238.98 192.17 238.98 206.32 237.79 207.01 237.79 192.86 238.98 192.17" style="fill:#e95420; stroke-width:0px;"/><polygon points="235.99 193.9 235.99 208.05 234.79 208.74 234.79 194.59 235.99 193.9" style="fill:#e95420; stroke-width:0px;"/><polygon points="232.99 195.63 232.99 208.75 231.79 208.06 231.79 196.32 232.99 195.63" style="fill:#e95420; stroke-width:0px;"/><polygon points="229.99 197.36 229.99 207.02 228.8 206.33 228.8 198.05 229.99 197.36" style="fill:#e95420; stroke-width:0px;"/><polygon points="226.99 205.29 225.8 204.6 225.8 199.79 226.99 199.1 226.99 205.29" style="fill:#e95420; stroke-width:0px;"/><polygon points="222.8 202.87 222.8 201.52 223.99 200.83 223.99 203.56 222.8 202.87" style="fill:#e95420; stroke-width:0px;"/><path d="M218.86,202.19l15.03,8.67,27.28-15.75-15.03-8.67-27.28,15.75ZM220.62,202.19l25.52-14.73,13.27,7.65-25.52,14.73-13.27-7.65Z" style="fill:#e95420; stroke-width:0px;"/></g><ellipse cx="148.96" cy="135.34" rx="14.5" ry="8.37" style="fill:#666; opacity:.2; stroke-width:0px;"/><polygon points="168 112.56 168 55.46 139.7 39.12 132.78 43.19 132.78 92.23 128.6 89.82 121.68 93.89 146.93 133.9 172.17 123.04 179.1 118.97 168 112.56" style="fill:#fff; stroke:#606060; stroke-linecap:round; stroke-linejoin:round; stroke-width:2px;"/><polygon points="121.68 93.89 128.6 89.82 139.7 96.22 132.78 100.29 121.68 93.89" style="fill:#fff; stroke:#606060; stroke-linecap:round; stroke-linejoin:round; stroke-width:.5px;"/><polygon points="161.08 116.63 161.08 59.53 132.78 43.19 132.78 100.29 121.68 93.89 146.93 133.9 172.17 123.04 161.08 116.63" style="fill:#fff; stroke:#606060; stroke-linecap:round; stroke-linejoin:round; stroke-width:.5px;"/><polygon points="132.78 43.19 139.7 39.12 168 55.46 161.08 59.53 132.78 43.19" style="fill:#fff; stroke:#606060; stroke-linecap:round; stroke-linejoin:round; stroke-width:.5px;"/><polygon points="161.08 116.63 168 112.56 168 55.46 161.08 59.53 161.08 116.63" style="fill:#e95420; stroke:#606060; stroke-miterlimit:10; stroke-width:.5px;"/><polygon points="161.08 116.63 168 112.56 179.1 118.97 172.17 123.04 161.08 116.63" style="fill:#fff; stroke:#606060; stroke-linecap:round; stroke-linejoin:round; stroke-width:.5px;"/><polygon points="154.66 114.25 139.19 105.31 139.19 96.84 154.66 105.77 154.66 114.25" style="fill:#666; opacity:.2; stroke-width:0px;"/><polygon points="154.66 103.45 139.19 94.52 139.19 87.94 154.66 96.87 154.66 103.45" style="fill:#666; opacity:.2; stroke-width:0px;"/><polygon points="154.66 94.67 139.19 85.74 139.19 81.08 154.66 90.01 154.66 94.67" style="fill:#666; opacity:.2; stroke-width:0px;"/><polygon points="154.66 84.46 139.19 75.53 139.19 72.5 154.66 81.43 154.66 84.46" style="fill:#666; opacity:.2; stroke-width:0px;"/><polygon points="154.66 74.3 139.19 65.37 139.19 63.85 154.66 72.78 154.66 74.3" style="fill:#666; opacity:.2; stroke-width:0px;"/><polygon points="154.66 63.09 139.19 54.16 139.19 53.4 154.66 62.33 154.66 63.09" style="fill:#666; opacity:.2; stroke-width:0px;"/></g></g></svg>