<?xml version="1.0" encoding="UTF-8"?><svg id="a" xmlns="http://www.w3.org/2000/svg" xmlns:xlink="http://www.w3.org/1999/xlink" viewBox="0 0 280 280"><defs><clipPath id="d"><path d="M204.46,130.03l.14-10.85-5.74-3.35s-4.58,2.7-4.32,10.33l7.67,4.58,2.25-.71Z" style="fill:none; stroke-width:0px;"/></clipPath><clipPath id="e"><path d="M210.6,133.56l.12-10.83-5.72-3.36s-4.58,2.7-4.32,10.33l7.67,4.58,2.25-.71Z" style="fill:none; stroke-width:0px;"/></clipPath><clipPath id="f"><path d="M216.58,137.05l.13-10.82-5.73-3.38s-4.58,2.7-4.32,10.33l7.67,4.58,2.25-.71Z" style="fill:none; stroke-width:0px;"/></clipPath></defs><polygon points="44.43 211.85 41.66 210.25 41.05 210.6 43.83 212.2 41.05 213.8 41.66 214.15 44.43 212.55 47.2 214.15 47.81 213.8 45.03 212.2 47.81 210.6 47.21 210.25 44.43 211.85" style="fill:#e95420; fill-rule:evenodd; stroke-width:0px;"/><polygon points="29.59 197.47 26.82 195.87 26.21 196.22 28.99 197.82 26.21 199.42 26.82 199.77 29.59 198.17 32.37 199.77 32.97 199.42 30.19 197.82 32.97 196.22 32.37 195.87 29.59 197.47" style="fill:#e95420; fill-rule:evenodd; stroke-width:0px;"/><polygon points="172.43 237.51 169.65 235.91 169.05 236.26 171.83 237.86 169.05 239.46 169.65 239.81 172.43 238.21 175.2 239.81 175.81 239.46 173.03 237.86 175.81 236.26 175.2 235.91 172.43 237.51" style="fill:#e95420; fill-rule:evenodd; stroke-width:0px;"/><polygon points="240.62 201.21 237.84 199.61 237.24 199.96 240.01 201.56 237.24 203.16 237.84 203.51 240.62 201.91 243.39 203.51 243.99 203.16 241.22 201.56 243.99 199.96 243.39 199.61 240.62 201.21" style="fill:#e95420; fill-rule:evenodd; stroke-width:0px;"/><polygon points="37.51 170.18 34.73 168.58 34.13 168.93 36.91 170.53 34.13 172.13 34.73 172.48 37.51 170.88 40.28 172.48 40.89 172.13 38.11 170.53 40.89 168.93 40.28 168.58 37.51 170.18" style="fill:#e95420; fill-rule:evenodd; stroke-width:0px;"/><polygon points="103.32 241.14 100.55 239.54 99.94 239.88 102.72 241.49 99.94 243.09 100.55 243.44 103.32 241.83 106.09 243.44 106.7 243.09 103.92 241.49 106.7 239.88 106.09 239.54 103.32 241.14" style="fill:#e95420; fill-rule:evenodd; stroke-width:0px;"/><g style="opacity:.2;"><polygon points="156.52 138.76 156.52 168.63 157.29 168.19 157.29 138.32 156.52 138.76" style="fill:#666; stroke-width:0px;"/><polygon points="151.65 141.58 151.65 171.44 152.41 171 152.41 141.14 151.65 141.58" style="fill:#666; stroke-width:0px;"/><polygon points="146.77 144.39 146.77 174.25 147.54 173.81 147.54 143.95 146.77 144.39" style="fill:#666; stroke-width:0px;"/><polygon points="141.9 147.21 141.9 177.07 142.66 176.63 142.66 146.76 141.9 147.21" style="fill:#666; stroke-width:0px;"/><polygon points="137.02 150.02 137.02 179.88 137.79 179.44 137.79 149.58 137.02 150.02" style="fill:#666; stroke-width:0px;"/><polygon points="132.45 152.66 132.45 182.52 133.22 182.08 133.22 152.22 132.45 152.66" style="fill:#666; stroke-width:0px;"/><polygon points="127.58 155.47 127.58 185.33 128.34 184.89 128.34 155.03 127.58 155.47" style="fill:#666; stroke-width:0px;"/><polygon points="122.7 158.29 122.7 188.15 123.47 187.71 123.47 157.85 122.7 158.29" style="fill:#666; stroke-width:0px;"/><polygon points="117.83 161.1 117.83 190.96 118.59 190.52 118.59 160.66 117.83 161.1" style="fill:#666; stroke-width:0px;"/><path d="M230.93,234.11c-.79.72-.64,1.69.44,2.32,1.26.73,3.31.73,4.58,0,1.26-.73,1.26-1.91,0-2.64-1.18-.68-3.02-.72-4.29-.13l-93.87-54.19-.76.44,93.9,54.21ZM231.98,234.13c.93-.54,2.44-.54,3.37,0,.93.54.93,1.41,0,1.95-.93.54-2.44.54-3.37,0-.93-.54-.93-1.41,0-1.95Z" style="fill:#666; stroke-width:0px;"/><path d="M198.16,203.06l-50.62-29.23-.76.44,50.62,29.22.76.44.76-.44,27.08-15.63c1.26.5,2.99.42,4.11-.22,1.26-.73,1.26-1.91,0-2.64-1.26-.73-3.31-.73-4.58,0-1.15.66-1.24,1.7-.3,2.43l-27.07,15.63ZM226.14,187.29c-.93-.54-.93-1.41,0-1.94.93-.54,2.44-.54,3.37,0,.93.54.93,1.41,0,1.94-.93.54-2.44.54-3.37,0Z" style="fill:#666; stroke-width:0px;"/><path d="M180.58,226.32l-.76.45.76.44,15.48,8.93c-.81.72-.66,1.7.43,2.33,1.26.73,3.31.73,4.58,0,1.26-.73,1.26-1.91,0-2.64-1.17-.68-3.01-.72-4.28-.14l-15.45-8.91,13.86-8,.76-.44-.76-.44-61.99-35.8-.77.45,61.99,35.79-13.85,8ZM197.1,236.18c.93-.54,2.44-.54,3.37,0,.93.54.93,1.41,0,1.94-.93.54-2.44.54-3.37,0-.93-.54-.93-1.41,0-1.94Z" style="fill:#666; stroke-width:0px;"/><path d="M146.48,206.64l-27.89-16.1-.76.44,27.89,16.1-14.05,8.11c-1.27-.55-3.06-.49-4.21.17-1.26.73-1.26,1.91,0,2.64,1.26.73,3.31.73,4.58,0,1.11-.64,1.24-1.64.39-2.37l14.82-8.56-.62-.36-.14-.08ZM131.42,215.71c.93.54.93,1.41,0,1.94-.93.54-2.44.54-3.37,0-.93-.54-.93-1.41,0-1.94.93-.54,2.44-.54,3.37,0Z" style="fill:#666; stroke-width:0px;"/><path d="M114.55,238.58c1.26.73,3.31.73,4.58,0,1.12-.65,1.24-1.64.39-2.37l43.2-24.94.76-.44-.76-.44-39.25-22.67-.76.44,39.25,22.67-43.19,24.94c-1.27-.54-3.06-.49-4.21.17-1.26.73-1.26,1.91,0,2.64ZM115.16,236.29c.93-.54,2.44-.54,3.37,0,.93.54.93,1.41,0,1.94-.93.54-2.44.54-3.37,0-.93-.54-.93-1.41,0-1.94Z" style="fill:#666; stroke-width:0px;"/><path d="M147.03,233.11c1.26.73,3.31.73,4.58,0,1.16-.67,1.24-1.72.27-2.45l27.08-15.64.76-.44-.76-.44-50.62-29.23-.76.44,50.62,29.23-27.11,15.65c-1.26-.48-2.96-.4-4.06.24-1.26.73-1.26,1.91,0,2.64ZM147.63,230.82c.93-.54,2.44-.54,3.37,0,.93.54.93,1.41,0,1.94-.93.54-2.44.54-3.37,0-.93-.54-.93-1.41,0-1.94Z" style="fill:#666; stroke-width:0px;"/><path d="M235.06,216.34c1.26.73,3.31.73,4.58,0,1.26-.73,1.26-1.91,0-2.64-1.09-.63-2.75-.71-4-.26l-15.6-9.01-.77-.44-.76.44-13.85,8-61.99-35.79-.76.44,61.99,35.79.76.44.76-.44,13.85-8,15.56,8.98c-1.02.73-.95,1.8.22,2.48ZM235.66,214.04c.93-.54,2.44-.54,3.37,0,.93.54.93,1.41,0,1.95-.93.54-2.44.54-3.37,0-.93-.54-.93-1.41,0-1.95Z" style="fill:#666; stroke-width:0px;"/><path d="M239.65,166.43c-1.26-.73-3.31-.73-4.58,0-1.13.65-1.24,1.66-.36,2.39l-43.05,24.85-39.26-22.66-.76.44,39.26,22.66.76.44.76-.44,43.05-24.85c1.26.53,3.03.47,4.17-.19,1.26-.73,1.26-1.91,0-2.64ZM239.05,168.72c-.93.54-2.44.54-3.37,0-.93-.54-.93-1.41,0-1.94.93-.54,2.44-.54,3.37,0,.93.54.93,1.41,0,1.94Z" style="fill:#666; stroke-width:0px;"/><path d="M204.12,173.66c-1.26-.73-3.31-.73-4.58,0-1.18.68-1.24,1.75-.23,2.48l-14.14,8.16-27.89-16.1-.77.44,27.89,16.1.15.08.62.36,14.94-8.63c1.25.46,2.92.37,4.01-.26,1.26-.73,1.26-1.91,0-2.64ZM203.52,175.95c-.93.54-2.44.54-3.37,0-.93-.54-.93-1.41,0-1.94.93-.54,2.44-.54,3.37,0,.93.54.93,1.41,0,1.94Z" style="fill:#666; stroke-width:0px;"/></g><ellipse cx="70.94" cy="230.05" rx="17.18" ry="9.92" style="fill:#666; opacity:.2; stroke-width:0px;"/><path d="M83.24,225.02c.74-.37,1.53-.77,1.55-.78v-2.68s-3.71-2.52-3.71-2.52c-.05.02-2.84,1.39-2.88,1.42l-3.01-.89v-2.27s-5.69-.26-5.69-.26c0,.04-.31,2.15-.3,2.18h0s0,0,0,0l-3.5.66s-2.43-1.63-2.47-1.66l-4.33,2.15v2.68s.46.32.98.68l-.19.21c-.06-.01-3.71-.16-3.77-.17l-.44,3.3v2.68c.05,0,2.9.15,3.61.18-.74.37-1.53.77-1.55.78v2.68s3.71,2.52,3.71,2.52c.05-.02,2.84-1.39,2.88-1.42l3.01.89v2.27s5.69.26,5.69.26c0-.04.3-2.08.3-2.18h0s3.5-.66,3.5-.66c.03.03,2.43,1.63,2.47,1.66l4.33-2.15v-2.68s-.46-.32-.98-.68l.19-.21c.06.01,3.71.16,3.77.17l.44-3.3v-2.68c-.05,0-2.9-.15-3.61-.18ZM73.12,233.04s0,.01,0,.02c0,0,0-.02,0-.02h0ZM70.77,229.07c-1.25-.06-2.37-.37-3.19-.85-.39-.23-.72-.49-.97-.78,1.48-1.7,5.65-2.13,8.13-.7.38.22.7.48.95.76-.91,1.02-2.81,1.68-4.91,1.58ZM76.24,226.01s0,.05,0,.07c0-.02,0-.05,0-.07ZM75.59,224.7s-.04-.04-.06-.06c.02.02.04.04.06.06ZM76.23,225.92s0-.04,0-.07c0,.02,0,.04,0,.07ZM76.2,225.76s0-.04-.01-.06c0,.02,0,.04.01.06ZM76.15,225.57s0-.01,0-.02c0,0,0,.01,0,.02ZM76.08,225.4s-.02-.03-.03-.05c0,.02.02.03.03.05ZM76.01,225.25s-.02-.04-.03-.06c.01.02.02.04.03.06ZM75.92,225.11s-.03-.04-.04-.06c.01.02.03.04.04.06ZM75.83,224.97s-.03-.04-.05-.06c.02.02.03.04.05.06ZM75.72,224.83s-.03-.04-.05-.06c.02.02.04.04.05.06ZM75.46,224.57s-.04-.04-.06-.06c.02.02.04.04.06.06ZM75.31,224.44s-.04-.04-.06-.05c.02.02.04.04.06.05ZM75.16,224.32s-.04-.03-.07-.05c.02.02.04.03.07.05ZM74.98,224.19s-.04-.03-.06-.04c.02.01.04.03.06.04ZM71.04,223.18s-.01,0-.02,0c0,0,.01,0,.02,0ZM70.72,223.2c-1.72.1-3.33.71-4.12,1.63.77-.91,2.33-1.54,4.12-1.63ZM66.09,225.89s0,0,0,0c0,.07-.01.14-.01.21,0-.07,0-.13.01-.2ZM66.59,224.84c-.07.08-.13.17-.19.26.06-.09.12-.17.19-.26ZM66.29,225.27s-.02.05-.04.08c.01-.03.02-.05.04-.08ZM66.17,225.56s-.01.04-.02.06c0-.02.01-.04.02-.06ZM73.11,233.14c-.05.43-.29,2.04-.29,2.08,0-.03.24-1.65.29-2.08ZM73.12,233.07s0,.03,0,.06c0-.02,0-.04,0-.06Z" style="fill:#fff; stroke:#606060; stroke-linecap:round; stroke-linejoin:round; stroke-width:2px;"/><polygon points="69.2 219.22 69.19 221.9 69.19 221.9 69.2 219.22 69.2 219.22 69.2 219.22" style="fill:#fff; stroke:#606060; stroke-linecap:round; stroke-linejoin:round; stroke-width:.5px;"/><path d="M75.19,217.3v2.68s-.27,2.15-.28,2.19v-2.68s.28-2.15.28-2.19h0Z" style="fill:#fff; stroke:#606060; stroke-linecap:round; stroke-linejoin:round; stroke-width:.5px;"/><path d="M61.34,222.03v2.68c-.12-.07-2.42-1.64-2.46-1.67v-2.68s2.35,1.61,2.46,1.67h0Z" style="fill:#fff; stroke:#606060; stroke-linecap:round; stroke-linejoin:round; stroke-width:.5px;"/><path d="M84.8,221.56v2.68c-.06.03-2.82,1.41-2.87,1.43v-2.68c.06-.02,2.82-1.4,2.87-1.43h0Z" style="fill:#fff; stroke:#606060; stroke-linecap:round; stroke-linejoin:round; stroke-width:.5px;"/><path d="M74.74,224.05c-3.26-1.88-8.66-.47-8.67,2.07v2.68c0-2.78,5.61-3.83,8.66-2.07.93.54,1.5,1.28,1.5,2.09v-2.68c0-.81-.56-1.55-1.5-2.09Z" style="fill:#fff; stroke:#606060; stroke-linecap:round; stroke-linejoin:round; stroke-width:.5px;"/><path d="M59.24,227.24v2.68c-.07,0-3.71-.18-3.78-.18v-2.68c.07,0,3.72.19,3.78.18h0Z" style="fill:#fff; stroke:#606060; stroke-linecap:round; stroke-linejoin:round; stroke-width:.5px;"/><polygon points="86.85 225.2 86.84 227.88 86.41 231.18 86.41 228.49 86.85 225.2" style="fill:#fff; stroke:#606060; stroke-linecap:round; stroke-linejoin:round; stroke-width:.5px;"/><path d="M86.41,228.49v2.68c-.07,0-3.72-.16-3.78-.17v-2.68c.07.01,3.72.16,3.78.17h0Z" style="fill:#fff; stroke:#606060; stroke-linecap:round; stroke-linejoin:round; stroke-width:.5px;"/><polygon points="60.38 229.27 60.38 231.95 59.23 229.93 59.24 227.24 60.38 229.27" style="fill:#fff; stroke:#606060; stroke-linecap:round; stroke-linejoin:round; stroke-width:.5px;"/><polygon points="82.64 228.33 82.63 231.01 80.97 232.91 80.98 230.23 82.64 228.33" style="fill:#fff; stroke:#606060; stroke-linecap:round; stroke-linejoin:round; stroke-width:.5px;"/><polygon points="67.4 232.77 67.4 235.45 64.11 234.48 64.12 231.8 67.4 232.77" style="fill:#fff; stroke:#606060; stroke-linecap:round; stroke-linejoin:round; stroke-width:.5px;"/><polygon points="76.62 232.38 76.61 235.06 73.12 235.72 73.12 233.04 76.62 232.38" style="fill:#fff; stroke:#606060; stroke-linecap:round; stroke-linejoin:round; stroke-width:.5px;"/><path d="M64.12,231.8v2.68s-2.84,1.39-2.89,1.42v-2.68c.06-.02,2.85-1.39,2.89-1.42h0Z" style="fill:#fff; stroke:#606060; stroke-linecap:round; stroke-linejoin:round; stroke-width:.5px;"/><polygon points="61.24 233.22 61.23 235.9 57.51 233.38 57.52 230.7 61.24 233.22" style="fill:#fff; stroke:#606060; stroke-linecap:round; stroke-linejoin:round; stroke-width:.5px;"/><polygon points="83.43 231.9 83.42 234.58 79.09 236.73 79.09 234.04 83.43 231.9" style="fill:#fff; stroke:#606060; stroke-linecap:round; stroke-linejoin:round; stroke-width:.5px;"/><path d="M79.09,234.04v2.68c-.05-.03-2.45-1.63-2.48-1.66v-2.68s2.44,1.63,2.48,1.66h0Z" style="fill:#fff; stroke:#606060; stroke-linecap:round; stroke-linejoin:round; stroke-width:.5px;"/><polygon points="72.82 235.22 72.81 237.9 67.12 237.64 67.13 234.96 72.82 235.22" style="fill:#fff; stroke:#606060; stroke-linecap:round; stroke-linejoin:round; stroke-width:.5px;"/><path d="M79.09,234.04s-2.44-1.63-2.47-1.66l-3.5.66s-.3,2.15-.3,2.18l-5.69-.26s.26-2.15.28-2.19l-3.28-.97s-2.83,1.39-2.88,1.42l-3.72-2.52c.05-.02,2.81-1.41,2.86-1.43l-1.14-2.03c-.06,0-3.71-.18-3.77-.18l.44-3.3c.07,0,3.71.16,3.77.17l1.66-1.9c-.12-.07-2.41-1.64-2.45-1.67l4.33-2.15s2.44,1.63,2.47,1.66l3.5-.66s.3-2.15.3-2.18l5.69.26s-.26,2.15-.28,2.19l3.28.97s2.83-1.39,2.88-1.42l3.72,2.52c-.05.03-2.81,1.41-2.86,1.43l1.14,2.03c.06,0,3.71.18,3.77.18l-.44,3.3c-.07,0-3.71-.16-3.77-.17l-1.66,1.9c.12.07,2.41,1.64,2.45,1.67l-4.33,2.15ZM70.77,229.07c2.8.13,5.24-1.08,5.46-2.7.12-.9-.47-1.73-1.49-2.32-.83-.48-1.94-.79-3.19-.85-2.8-.13-5.24,1.08-5.46,2.7-.12.9.47,1.73,1.49,2.32.83.48,1.94.79,3.19.85h0Z" style="fill:#fff; stroke:#606060; stroke-linecap:round; stroke-linejoin:round; stroke-width:.5px;"/><path d="M73.12,233.04v2.68c0,.1-.31,2.14-.31,2.18v-2.68s.31-2.08.31-2.18h0Z" style="fill:#fff; stroke:#606060; stroke-linecap:round; stroke-linejoin:round; stroke-width:.5px;"/><path d="M139.89,241.83c1.08,0,2.07-.23,2.78-.64l100.09-57.73c.56-.32.88-.73.88-1.11,0-.43-.38-.89-1.04-1.27l-68.37-39.51c-.81-.47-1.92-.73-3.07-.73-1.08,0-2.06.23-2.78.64l-100.09,57.73c-.56.32-.88.73-.88,1.11,0,.43.38.89,1.04,1.27l68.37,39.51c.81.47,1.93.73,3.07.73Z" style="fill:#666; opacity:.2; stroke-width:0px;"/><path d="M233.83,172.16c0-.43-.38-.89-1.04-1.27l-68.37-39.51c-.81-.47-1.92-.73-3.07-.73-1.08,0-2.06.23-2.78.64l-92.29,53.23,89.54-51.69c1.83-1.06,3.38-3.68,3.38-5.73V47.84c0-1.36-.51-2.24-1.31-2.36l.04-.02-3.08-1.31c-.64-.22-1.42-.12-2.26.37l-95.15,54.34c-2.13,1.23-3.88,4.46-3.88,7.18l.02,79.27c0,1.24.47,2.09,1.23,2.44l2.57,1.2h0c.18.08.39.11.62.09.33-.03.72-.16,1.11-.37l-.63.36c-.46.27-.75.59-.84.91l-.04-.06v.26s0,0,0,0,0,0,0,0v3.27c-.08.78.41,1.59,1.47,2.2l67.5,39.51c1.9,1.1,4.9,1.14,6.72.09l99.23-57.87c1.31-.65,1.31-1.74,1.31-1.74v-3.43ZM58.54,191.33s.06.04.09.06l-.04.02-.05-.08Z" style="fill:#fff; stroke:#606060; stroke-linecap:round; stroke-linejoin:round; stroke-width:2px;"/><path d="M58.59,191.41l-.99-1.55v3.54c-.08.78.41,1.59,1.47,2.2l67.5,39.51c.77.44,1.72.71,2.7.8v-85.27s-70.69,40.77-70.69,40.77Z" style="fill:#fff; stroke:#606060; stroke-linecap:round; stroke-linejoin:round; stroke-width:.5px;"/><path d="M133.29,235.19l99.23-57.87c1.31-.65,1.31-1.74,1.31-1.74v-3.43s-68.97-38.08-68.97-38.08c-1.9-1.1-4.9-1.14-6.71-.09l-28.87,16.65v85.27c1.44.14,2.93-.09,4.01-.71Z" style="fill:#e95420; stroke:#606060; stroke-miterlimit:10; stroke-width:.5px;"/><g id="b"><path d="M130.08,231.64c1.08,0,2.07-.23,2.78-.64l100.09-57.73c.56-.32.88-.73.88-1.11,0-.43-.38-.89-1.04-1.27l-68.37-39.51c-.81-.47-1.92-.73-3.07-.73-1.08,0-2.06.23-2.78.64l-100.09,57.73c-.56.32-.88.73-.88,1.11,0,.43.38.89,1.04,1.27l68.37,39.51c.81.47,1.93.73,3.07.73Z" style="fill:#fff; stroke:#606060; stroke-linecap:round; stroke-linejoin:round; stroke-width:.5px;"/><polygon points="76.02 186.43 155.85 140.39 152.61 138.52 72.78 184.56 76.02 186.43" style="fill:#e95420; stroke-width:0px;"/><polygon points="106.25 212.54 199.73 158.62 165.01 138.56 71.53 192.48 106.25 212.54" style="fill:#fff; stroke:#606060; stroke-linecap:round; stroke-linejoin:round; stroke-width:.5px;"/><path d="M127.78,189.71l43.55-25.11c.31-.18.89-.13,1.28.1l3.63,2.1c.4.23.47.56.17.74l-43.55,25.1c-.31.18-.88.13-1.28-.1l-3.63-2.1c-.4-.23-.47-.56-.17-.74Z" style="fill:#666; opacity:.2; stroke-width:0px;"/><path d="M110.97,199.44l3.35-1.93c.31-.18.88-.13,1.28.1l3.63,2.1c.4.23.48.56.17.74l-3.35,1.93c-.31.18-.89.13-1.29-.1l-3.62-2.1c-.4-.23-.47-.56-.17-.74Z" style="fill:#666; opacity:.2; stroke-width:0px;"/><path d="M105.39,202.66l3.35-1.93c.31-.18.88-.13,1.28.1l3.63,2.1c.4.23.47.56.17.74l-3.35,1.93c-.31.18-.89.13-1.28-.1l-3.63-2.1c-.4-.23-.47-.56-.17-.74Z" style="fill:#666; opacity:.2; stroke-width:0px;"/><path d="M99.81,205.88l3.35-1.93c.31-.18.89-.13,1.28.1l3.63,2.1c.4.23.47.56.17.74l-3.35,1.93c-.3.18-.88.13-1.28-.1l-3.63-2.1c-.4-.23-.47-.56-.17-.74Z" style="fill:#666; opacity:.2; stroke-width:0px;"/><path d="M173.01,155.26l3.35-1.93c.31-.18.81-.47,1.12-.64l3.35-1.93c.31-.18.89-.13,1.28.1l3.63,2.1c.4.23.47.56.17.74l-3.35,1.93c-.31.18-.81.47-1.12.64l-3.35,1.93c-.31.18-.88.13-1.28-.1l-3.63-2.1c-.4-.23-.47-.56-.17-.74Z" style="fill:#666; opacity:.2; stroke-width:0px;"/><path d="M167.43,158.48l3.35-1.93c.31-.18.89-.13,1.28.1l3.63,2.1c.4.23.47.56.17.74l-3.35,1.93c-.31.17-.89.13-1.28-.1l-3.63-2.1c-.4-.23-.48-.56-.17-.74Z" style="fill:#666; opacity:.2; stroke-width:0px;"/><path d="M167.99,149.78l1.12-.64c.31-.18.81-.47,1.12-.64l3.35-1.93c.31-.18.88-.13,1.28.1l3.63,2.09c.4.23.47.57.17.74l-3.35,1.93c-.31.18-.81.47-1.12.64l-1.12.64c-.31.18-.88.13-1.28-.1l-3.63-2.1c-.4-.23-.47-.56-.17-.74Z" style="fill:#666; opacity:.2; stroke-width:0px;"/><path d="M162.41,153l3.35-1.93c.31-.18.89-.13,1.28.1l3.63,2.1c.4.23.47.56.16.74l-3.35,1.93c-.31.18-.88.13-1.28-.1l-3.62-2.1c-.4-.23-.48-.56-.17-.74Z" style="fill:#666; opacity:.2; stroke-width:0px;"/><path d="M162.97,144.3l3.35-1.93c.31-.18.88-.13,1.29.1l3.62,2.1c.4.23.47.57.17.74l-3.35,1.93c-.3.18-.88.13-1.28-.1l-3.63-2.1c-.4-.23-.47-.56-.17-.74Z" style="fill:#666; opacity:.2; stroke-width:0px;"/><path d="M157.39,147.52l3.35-1.93c.31-.18.88-.13,1.29.1l3.63,2.1c.4.23.47.56.17.74l-3.35,1.93c-.31.18-.89.13-1.29-.1l-3.63-2.1c-.4-.23-.47-.56-.17-.74Z" style="fill:#666; opacity:.2; stroke-width:0px;"/><path d="M151.8,150.73l3.35-1.93c.31-.18.89-.13,1.28.1l3.63,2.1c.4.23.47.57.17.74l-3.35,1.93c-.31.18-.88.13-1.28-.1l-3.63-2.1c-.4-.23-.47-.56-.17-.74Z" style="fill:#666; opacity:.2; stroke-width:0px;"/><path d="M161.84,161.7l3.35-1.93c.31-.18.89-.13,1.28.1l3.63,2.1c.4.23.47.56.17.74l-3.35,1.93c-.31.18-.88.13-1.28-.1l-3.63-2.1c-.4-.23-.47-.56-.17-.74Z" style="fill:#666; opacity:.2; stroke-width:0px;"/><path d="M156.26,164.91l3.35-1.93c.31-.18.89-.13,1.29.1l3.63,2.1c.4.23.47.56.17.74l-3.35,1.93c-.31.18-.89.13-1.28-.1l-3.63-2.1c-.39-.23-.47-.56-.17-.74Z" style="fill:#666; opacity:.2; stroke-width:0px;"/><path d="M150.68,168.13l3.35-1.93c.31-.18.89-.13,1.28.1l3.63,2.1c.4.23.47.56.17.74l-3.35,1.93c-.31.18-.89.13-1.29-.1l-3.63-2.1c-.4-.23-.48-.56-.17-.74Z" style="fill:#666; opacity:.2; stroke-width:0px;"/><path d="M156.82,156.21l3.35-1.93c.31-.18.89-.13,1.28.1l3.63,2.1c.4.23.47.56.17.74l-3.35,1.93c-.31.18-.89.13-1.28-.1l-3.63-2.1c-.4-.23-.47-.56-.17-.74Z" style="fill:#666; opacity:.2; stroke-width:0px;"/><path d="M151.24,159.44l3.35-1.93c.31-.18.89-.13,1.29.1l3.62,2.1c.4.23.48.56.17.74l-3.35,1.93c-.31.18-.89.13-1.28-.1l-3.63-2.1c-.4-.23-.48-.56-.17-.74Z" style="fill:#666; opacity:.2; stroke-width:0px;"/><path d="M145.66,162.65l3.35-1.93c.31-.18.88-.13,1.28.1l3.63,2.09c.4.23.48.57.17.74l-3.35,1.93c-.31.18-.88.13-1.28-.1l-3.63-2.1c-.4-.23-.47-.56-.17-.74Z" style="fill:#666; opacity:.2; stroke-width:0px;"/><path d="M146.22,153.95l3.35-1.93c.31-.18.88-.13,1.28.1l3.63,2.1c.4.23.47.56.17.74l-3.35,1.93c-.31.18-.89.13-1.28-.1l-3.63-2.1c-.4-.23-.47-.56-.17-.74Z" style="fill:#666; opacity:.2; stroke-width:0px;"/><path d="M140.64,157.17l3.35-1.93c.31-.18.89-.13,1.28.1l3.63,2.1c.4.23.47.57.17.74l-3.35,1.93c-.31.18-.89.13-1.29-.1l-3.62-2.1c-.4-.23-.48-.56-.17-.74Z" style="fill:#666; opacity:.2; stroke-width:0px;"/><path d="M135.05,160.39l3.35-1.93c.31-.18.88-.13,1.28.1l3.63,2.1c.4.23.48.57.17.74l-3.35,1.93c-.31.18-.88.13-1.28-.1l-3.63-2.1c-.4-.23-.48-.56-.17-.74Z" style="fill:#666; opacity:.2; stroke-width:0px;"/><path d="M145.09,171.35l3.35-1.93c.31-.18.88-.13,1.28.1l3.63,2.1c.4.23.47.56.17.74l-3.35,1.93c-.31.18-.88.13-1.28-.1l-3.63-2.1c-.4-.23-.47-.56-.17-.74Z" style="fill:#666; opacity:.2; stroke-width:0px;"/><path d="M139.51,174.57l3.35-1.93c.31-.18.88-.13,1.28.1l3.63,2.1c.4.23.47.57.17.74l-3.35,1.93c-.31.18-.88.13-1.28-.1l-3.63-2.1c-.4-.23-.47-.56-.17-.74Z" style="fill:#666; opacity:.2; stroke-width:0px;"/><path d="M133.92,177.79l3.35-1.93c.31-.18.89-.13,1.29.1l3.63,2.1c.4.23.47.56.17.74l-3.35,1.93c-.31.18-.88.13-1.28-.1l-3.63-2.1c-.4-.23-.47-.56-.17-.74Z" style="fill:#666; opacity:.2; stroke-width:0px;"/><path d="M140.07,165.87l3.35-1.93c.31-.18.89-.13,1.28.1l3.63,2.1c.4.23.47.56.17.74l-3.35,1.93c-.31.18-.88.13-1.28-.1l-3.63-2.1c-.4-.23-.48-.56-.17-.74Z" style="fill:#666; opacity:.2; stroke-width:0px;"/><path d="M134.49,169.09l3.35-1.93c.31-.18.89-.13,1.29.1l3.63,2.1c.4.23.47.56.17.74l-3.35,1.93c-.31.18-.89.13-1.28-.1l-3.63-2.1c-.4-.23-.47-.56-.17-.74Z" style="fill:#666; opacity:.2; stroke-width:0px;"/><path d="M128.91,172.31l3.35-1.93c.3-.18.88-.13,1.28.1l3.63,2.1c.4.23.47.56.17.74l-3.35,1.93c-.31.18-.88.13-1.28-.1l-3.63-2.1c-.4-.23-.47-.56-.17-.74Z" style="fill:#666; opacity:.2; stroke-width:0px;"/><path d="M129.47,163.61l3.35-1.93c.31-.18.88-.13,1.28.1l3.63,2.1c.4.23.48.56.17.74l-3.35,1.93c-.31.18-.88.13-1.28-.1l-3.63-2.1c-.4-.23-.48-.56-.17-.74Z" style="fill:#666; opacity:.2; stroke-width:0px;"/><path d="M123.89,166.83l3.35-1.93c.31-.18.89-.13,1.28.1l3.63,2.1c.4.23.48.56.17.74l-3.35,1.93c-.31.18-.89.13-1.29-.1l-3.63-2.1c-.4-.23-.47-.56-.17-.74Z" style="fill:#666; opacity:.2; stroke-width:0px;"/><path d="M118.3,170.05l3.35-1.93c.31-.18.88-.13,1.28.1l3.63,2.1c.4.23.47.56.17.74l-3.35,1.93c-.31.18-.89.13-1.28-.1l-3.63-2.1c-.4-.23-.47-.56-.17-.74Z" style="fill:#666; opacity:.2; stroke-width:0px;"/><path d="M128.34,181.01l3.35-1.93c.31-.18.88-.13,1.29.1l3.63,2.1c.4.23.47.56.17.74l-3.35,1.93c-.31.18-.89.13-1.28-.1l-3.63-2.1c-.4-.23-.48-.56-.17-.74Z" style="fill:#666; opacity:.2; stroke-width:0px;"/><path d="M122.76,184.23l3.35-1.93c.31-.18.88-.13,1.28.1l3.63,2.1c.4.23.48.57.17.74l-3.35,1.93c-.31.18-.88.13-1.28-.1l-3.63-2.1c-.4-.23-.48-.56-.17-.74Z" style="fill:#666; opacity:.2; stroke-width:0px;"/><path d="M117.17,187.44l3.35-1.93c.31-.18.89-.13,1.29.1l3.63,2.1c.4.23.47.57.17.74l-3.35,1.93c-.31.18-.89.13-1.28-.1l-3.63-2.1c-.4-.23-.47-.56-.17-.74Z" style="fill:#666; opacity:.2; stroke-width:0px;"/><path d="M123.32,175.53l3.35-1.93c.31-.18.88-.13,1.28.1l3.63,2.1c.4.23.47.57.17.74l-3.35,1.93c-.31.18-.88.13-1.28-.1l-3.63-2.1c-.4-.23-.47-.56-.17-.74Z" style="fill:#666; opacity:.2; stroke-width:0px;"/><path d="M117.74,178.75l3.35-1.93c.31-.18.88-.13,1.28.1l3.63,2.1c.4.23.47.56.17.74l-3.35,1.93c-.31.18-.89.13-1.28-.1l-3.63-2.1c-.4-.23-.48-.56-.17-.74Z" style="fill:#666; opacity:.2; stroke-width:0px;"/><path d="M112.16,181.96l3.35-1.93c.31-.18.89-.13,1.28.1l3.63,2.1c.4.23.47.56.17.74l-3.35,1.93c-.31.18-.89.13-1.28-.1l-3.63-2.1c-.4-.23-.47-.56-.17-.74Z" style="fill:#666; opacity:.2; stroke-width:0px;"/><path d="M112.72,173.26l3.35-1.93c.31-.18.88-.13,1.28.1l3.63,2.1c.4.23.47.57.17.74l-3.35,1.93c-.31.18-.88.13-1.28-.1l-3.63-2.1c-.4-.23-.48-.56-.17-.74Z" style="fill:#666; opacity:.2; stroke-width:0px;"/><path d="M107.14,176.48l3.35-1.93c.3-.17.88-.13,1.28.1l3.63,2.1c.4.23.47.57.17.74l-3.35,1.93c-.31.18-.88.13-1.28-.1l-3.62-2.1c-.4-.23-.47-.57-.17-.74Z" style="fill:#666; opacity:.2; stroke-width:0px;"/><path d="M101.55,179.7l3.35-1.93c.31-.18.88-.13,1.28.1l3.63,2.1c.4.23.47.56.17.74l-3.35,1.93c-.31.18-.89.13-1.28-.1l-3.63-2.1c-.4-.23-.47-.57-.17-.74Z" style="fill:#666; opacity:.2; stroke-width:0px;"/><path d="M111.59,190.66l3.35-1.93c.3-.18.88-.13,1.28.1l3.63,2.1c.4.23.47.56.17.74l-3.35,1.93c-.31.18-.89.13-1.28-.1l-3.62-2.1c-.4-.23-.47-.56-.17-.74Z" style="fill:#666; opacity:.2; stroke-width:0px;"/><path d="M101.54,196.46l3.35-1.93c.31-.18.81-.47,1.12-.64l3.35-1.93c.3-.18.89-.13,1.28.1l3.63,2.1c.4.23.47.57.17.74l-3.35,1.93c-.31.18-.81.47-1.12.64l-3.35,1.93c-.31.18-.88.14-1.28-.1l-3.63-2.1c-.4-.23-.47-.56-.17-.74Z" style="fill:#666; opacity:.2; stroke-width:0px;"/><path d="M106.57,185.18l3.35-1.93c.3-.18.88-.13,1.28.1l3.63,2.1c.4.23.47.56.17.74l-3.35,1.93c-.31.18-.89.13-1.28-.1l-3.62-2.1c-.4-.23-.47-.57-.17-.74Z" style="fill:#666; opacity:.2; stroke-width:0px;"/><path d="M100.99,188.4l3.35-1.93c.31-.18.88-.13,1.28.1l3.63,2.1c.4.23.47.56.16.74l-3.35,1.93c-.31.18-.88.13-1.28-.1l-3.63-2.1c-.4-.23-.48-.56-.17-.74Z" style="fill:#666; opacity:.2; stroke-width:0px;"/><path d="M95.41,191.62l3.35-1.93c.31-.18.89-.13,1.28.1l3.62,2.1c.4.23.48.57.17.74l-3.35,1.93c-.3.18-.88.13-1.28-.1l-3.62-2.1c-.4-.23-.47-.57-.17-.74Z" style="fill:#666; opacity:.2; stroke-width:0px;"/><path d="M95.97,182.92l3.35-1.93c.31-.18.89-.13,1.29.1l3.62,2.1c.4.23.48.56.17.74l-3.35,1.93c-.31.18-.89.13-1.29-.1l-3.63-2.1c-.4-.23-.47-.56-.17-.74Z" style="fill:#666; opacity:.2; stroke-width:0px;"/><path d="M90.39,186.14l3.35-1.93c.31-.18.88-.13,1.28.1l3.62,2.1c.4.23.48.56.17.74l-3.35,1.93c-.31.18-.89.13-1.28-.1l-3.63-2.09c-.4-.23-.47-.57-.17-.74Z" style="fill:#666; opacity:.2; stroke-width:0px;"/><path d="M84.81,189.36l3.35-1.93c.31-.18.88-.13,1.28.1l3.63,2.1c.4.23.47.57.17.74l-3.35,1.93c-.31.18-.89.13-1.29-.1l-3.63-2.1c-.4-.23-.48-.56-.17-.74Z" style="fill:#666; opacity:.2; stroke-width:0px;"/><path d="M78.1,193.22l4.47-2.58c.31-.18.89-.13,1.28.1l3.62,2.09c.4.23.48.57.17.74l-4.47,2.57c-.31.18-.89.13-1.28-.1l-3.63-2.1c-.4-.23-.48-.56-.17-.74Z" style="fill:#666; opacity:.2; stroke-width:0px;"/><path d="M122.2,192.93l3.35-1.93c.31-.18.89-.13,1.28.1l3.62,2.1c.4.23.48.56.17.74l-3.35,1.93c-.31.18-.89.13-1.28-.1l-3.63-2.1c-.4-.23-.47-.56-.16-.74Z" style="fill:#666; opacity:.2; stroke-width:0px;"/><path d="M116.61,196.14l3.35-1.93c.3-.18.88-.13,1.28.1l3.63,2.1c.4.23.47.56.17.74l-3.35,1.93c-.31.18-.89.13-1.28-.1l-3.63-2.1c-.4-.23-.47-.56-.17-.74Z" style="fill:#666; opacity:.2; stroke-width:0px;"/><path d="M92.61,201.61l6.7-3.86c.31-.18.89-.13,1.28.1l3.63,2.1c.4.23.47.56.17.74l-6.7,3.86c-.31.18-.89.13-1.28-.1l-3.63-2.1c-.4-.23-.47-.56-.17-.74Z" style="fill:#666; opacity:.2; stroke-width:0px;"/><path d="M85.36,197.41l7.82-4.51c.31-.18.88-.13,1.28.1l3.63,2.1c.4.23.47.56.17.74l-7.82,4.5c-.31.18-.88.13-1.28-.1l-3.63-2.1c-.4-.23-.47-.56-.17-.74Z" style="fill:#666; opacity:.2; stroke-width:0px;"/><path d="M188.58,159.54c.21.12.55.13.76.01l3.97-2.27c.2-.12.2-.31-.01-.44l-1.5-.87c-.21-.12-.55-.13-.76-.01l-3.97,2.27c-.21.12-.2.32.02.44l1.5.87Z" style="fill:#666; opacity:.2; stroke-width:0px;"/><path d="M183.1,162.68c.21.13.55.13.76.02l3.96-2.27c.21-.12.2-.31-.02-.44l-1.5-.87c-.22-.12-.56-.13-.76-.01l-3.96,2.27c-.21.12-.2.32.02.44l1.5.87Z" style="fill:#666; opacity:.2; stroke-width:0px;"/><path d="M177.62,165.82c.22.12.56.13.76.01l3.96-2.27c.2-.12.2-.31-.02-.44l-1.5-.87c-.21-.12-.55-.13-.76-.01l-3.96,2.27c-.21.11-.2.31.02.44l1.5.87Z" style="fill:#666; opacity:.2; stroke-width:0px;"/><path d="M180.26,161.02c.21.13.56.13.76.01l3.97-2.27c.2-.12.2-.31-.02-.44l-1.5-.87c-.21-.12-.55-.13-.76,0l-3.96,2.27c-.2.12-.2.31.01.44l1.5.87Z" style="fill:#666; opacity:.2; stroke-width:0px;"/><path d="M146.14,198.06c-1.52-.87-1.57-2.26-.12-3.1l23.21-13.39c1.45-.84,3.85-.8,5.37.07l15.2,8.79c1.51.88,1.57,2.26.12,3.1l-23.22,13.39c-1.45.84-3.85.8-5.37-.07l-15.2-8.79Z" style="fill:#666; opacity:.2; stroke-width:0px;"/></g><g id="c"><path d="M157.93,45.46l-3.08-1.31c-.64-.22-1.42-.12-2.26.37l-95.15,54.34c-2.13,1.23-3.88,4.46-3.88,7.18l.03,79.27c0,1.24.47,2.09,1.23,2.44l2.57,1.2-.14-.4c.06-.03.11-.06.17-.09l95.58-55.16c2.13-1.23,3.86-4.16,3.86-6.54V46.41c0-.13,0-.24-.01-.36l1.09-.59Z" style="fill:#fff; stroke:#606060; stroke-linecap:round; stroke-linejoin:round; stroke-width:.5px;"/><path d="M58,189.03c.36-.03.77-.17,1.19-.41l96.63-55.79c1.83-1.06,3.38-3.68,3.38-5.73V47.84c0-1.52-.63-2.45-1.61-2.38-.31.02-.66.14-1.02.35l-96.59,55.77c-1.84,1.06-3.4,3.98-3.4,6.37v79.25c0,.64.15,1.15.44,1.47.24.27.57.39.99.36h0Z" style="fill:#fff; stroke:#606060; stroke-linecap:round; stroke-linejoin:round; stroke-width:.5px;"/><path d="M107.9,75.58c-.57.33-1.03,1.18-1.03,1.9s.46,1.04,1.03.71c.57-.33,1.03-1.18,1.03-1.9s-.46-1.04-1.03-.72Z" style="fill:#fff; stroke:#606060; stroke-linecap:round; stroke-linejoin:round; stroke-width:.5px;"/><polyline points="61.1 107.06 61.1 183.14 154.69 129.11 154.69 53.03 61.1 107.06" style="fill:#fff; stroke:#606060; stroke-linecap:round; stroke-linejoin:round; stroke-width:.5px;"/></g><polygon points="150.87 61.47 133.29 72.16 133.29 70.18 150.87 59.49 150.87 61.47" style="fill:#e95420; stroke-width:0px;"/><polygon points="101.98 89.62 67.15 109.96 67.15 107.99 101.98 87.65 101.98 89.62" style="fill:#e95420; stroke-width:0px;"/><polygon points="150.87 66.06 133.29 76.75 133.29 74.77 150.87 64.09 150.87 66.06" style="fill:#666; opacity:.2; stroke-width:0px;"/><polygon points="85 104.7 67.42 115.38 67.42 113.41 85 102.72 85 104.7" style="fill:#666; opacity:.2; stroke-width:0px;"/><polygon points="150.87 75.24 133.29 85.93 133.29 83.96 150.87 73.27 150.87 75.24" style="fill:#666; opacity:.2; stroke-width:0px;"/><polygon points="124.54 139.47 106.96 150.16 106.96 148.19 124.54 137.5 124.54 139.47" style="fill:#666; opacity:.2; stroke-width:0px;"/><path d="M128.84,121.49l-29.7,17.15c-1.53.88-2.77-.05-2.77-2.09h0c0-2.04,1.24-4.41,2.77-5.29l29.7-17.15c1.53-.88,2.77.05,2.77,2.09h0c0,2.04-1.24,4.41-2.77,5.29Z" style="fill:#e95420; stroke-width:0px;"/><path d="M128.84,131.37l-29.7,17.15c-1.53.88-2.77-.05-2.77-2.09h0c0-2.04,1.24-4.41,2.77-5.29l29.7-17.15c1.53-.88,2.77.05,2.77,2.09h0c0,2.04-1.24,4.41-2.77,5.29Z" style="fill:#e95420; stroke-width:0px;"/><polygon points="120.25 123.27 100.42 134.72 100.42 133.69 120.25 122.24 120.25 123.27" style="fill:#fff; stroke-width:0px;"/><path d="M101.75,142.52l-.53,1.11h0s.84-.6.84-.6v.44l-.84.37h0s.54.48.54.48l-.35.44-.34-.71h-.01s-.36,1.13-.36,1.13l-.32-.05.53-1.09h0s-.83.59-.83.59v-.44l.82-.35h0s-.53-.5-.53-.5l.34-.42.35.7h.01s.34-1.11.34-1.11l.34.03Z" style="fill:#fff; stroke-width:0px;"/><path d="M104.07,141.18l-.53,1.11h0s.84-.6.84-.6v.44l-.84.37h0s.54.48.54.48l-.35.44-.34-.71h-.01s-.36,1.13-.36,1.13l-.32-.05.53-1.09h0s-.83.59-.83.59v-.44l.82-.35h0s-.53-.5-.53-.5l.34-.42.35.7h.01s.34-1.11.34-1.11l.34.03Z" style="fill:#fff; stroke-width:0px;"/><path d="M106.38,139.84l-.53,1.11h0s.84-.6.84-.6v.44l-.84.37h0s.54.48.54.48l-.35.44-.34-.71h-.01s-.36,1.13-.36,1.13l-.32-.05.53-1.09h0s-.83.59-.83.59v-.44l.82-.35h0s-.53-.5-.53-.5l.34-.42.35.7h.01s.34-1.11.34-1.11l.34.03Z" style="fill:#fff; stroke-width:0px;"/><path d="M108.7,138.5l-.53,1.11h0s.84-.6.84-.6v.44l-.84.37h0s.54.48.54.48l-.35.44-.34-.71h-.01s-.36,1.13-.36,1.13l-.32-.05.53-1.09h0s-.83.59-.83.59v-.44l.82-.35h0s-.53-.5-.53-.5l.34-.42.35.7h.01s.34-1.11.34-1.11l.34.03Z" style="fill:#fff; stroke-width:0px;"/><path d="M111.02,137.16l-.53,1.11h0s.84-.6.84-.6v.44l-.84.37h0s.54.48.54.48l-.35.44-.34-.71h-.01s-.36,1.13-.36,1.13l-.32-.05.53-1.09h0s-.83.59-.83.59v-.44l.82-.35h0s-.53-.5-.53-.5l.34-.42.35.7h.01s.34-1.11.34-1.11l.34.03Z" style="fill:#fff; stroke-width:0px;"/><path d="M113.34,135.83l-.53,1.11h0s.84-.6.84-.6v.44l-.84.37h0s.54.48.54.48l-.35.44-.34-.71h-.01s-.36,1.13-.36,1.13l-.32-.05.53-1.09h0s-.83.59-.83.59v-.44l.82-.35h0s-.53-.5-.53-.5l.34-.42.35.7h.01s.34-1.11.34-1.11l.34.03Z" style="fill:#fff; stroke-width:0px;"/><path d="M115.66,134.49l-.53,1.11h0s.84-.6.84-.6v.44l-.84.37h0s.54.48.54.48l-.35.44-.34-.71h-.01s-.36,1.13-.36,1.13l-.32-.05.53-1.09h0s-.83.59-.83.59v-.44l.82-.35h0s-.53-.5-.53-.5l.34-.42.35.7h.01s.34-1.11.34-1.11l.34.03Z" style="fill:#fff; stroke-width:0px;"/><path d="M117.98,133.15l-.53,1.11h0s.84-.6.84-.6v.44l-.84.37h0s.54.48.54.48l-.35.44-.34-.71h-.01s-.36,1.13-.36,1.13l-.32-.05.53-1.09h0s-.83.59-.83.59v-.44l.82-.35h0s-.53-.5-.53-.5l.34-.42.35.7h.01s.34-1.11.34-1.11l.34.03Z" style="fill:#fff; stroke-width:0px;"/><path d="M120.3,131.81l-.53,1.11h0s.84-.6.84-.6v.44l-.84.37h0s.54.48.54.48l-.35.44-.34-.71h-.01s-.36,1.13-.36,1.13l-.32-.05.53-1.09h0s-.83.59-.83.59v-.44l.82-.35h0s-.53-.5-.53-.5l.34-.42.35.7h.01s.34-1.11.34-1.11l.34.03Z" style="fill:#fff; stroke-width:0px;"/><path d="M122.61,130.47l-.53,1.11h0s.84-.6.84-.6v.44l-.84.37h0s.54.48.54.48l-.35.44-.34-.71h-.01s-.36,1.13-.36,1.13l-.32-.05.53-1.09h0s-.83.59-.83.59v-.44l.82-.35h0s-.53-.5-.53-.5l.34-.42.35.7h.01s.34-1.11.34-1.11l.34.03Z" style="fill:#fff; stroke-width:0px;"/><path d="M124.93,129.13l-.53,1.11h0s.84-.6.84-.6v.44l-.84.37h0s.54.48.54.48l-.35.44-.34-.71h-.01s-.36,1.13-.36,1.13l-.32-.05.53-1.09h0s-.83.59-.83.59v-.44l.82-.35h0s-.53-.5-.53-.5l.34-.42.35.7h.01s.34-1.11.34-1.11l.34.03Z" style="fill:#fff; stroke-width:0px;"/><path d="M146.66,192.25l20.47-11.82c1.05-.61,1.05-2.12,0-2.73l-8.55-4.94-23.24,13.41c-1.05.61-1.05,2.12,0,2.73l5.79,3.34c1.71.99,3.82.99,5.53,0Z" style="fill:#666; opacity:.2; stroke-width:0px;"/><path d="M128.28,157.19c1.98,9.45,5.87,15.83,11.61,19.08l5.27,2.99c-.14-.08-.27-.16-.4-.24,3.28,1.97,7.17,2.9,11.68,2.77,12.38-13.65,20.55-29.99,24.29-48.59,2.33-11.6,2.13-20.54,1.97-23.43h0,0s0,0,0,0l-5.27-2.99c-.28.17-.57.33-.85.49-1.65.95-3.22,1.73-4.7,2.37-1.51.66-2.93,1.16-4.27,1.55-1.08.31-2.1.55-3.07.71-.89.15-1.72.25-2.51.3-.77.05-1.5.05-2.18.02-.69-.03-1.33-.1-1.93-.19-.63-.1-1.21-.22-1.74-.37-.57-.16-1.09-.33-1.55-.51-.34-.13-.64-.27-.92-.41l-1.17-.67c-.26.46-.6,1.02-.99,1.66-.45.72-.98,1.55-1.59,2.45-.6.88-1.27,1.83-2.03,2.84-.78,1.04-1.64,2.13-2.59,3.26-1.09,1.3-2.3,2.65-3.62,4-3.64,3.73-8.13,7.53-13.48,10.62-.06.04-.13.08-.2.11-.27.16-.56.32-.84.47-.27,3.13-.85,12.53,1.07,21.7ZM178.81,116.41c-4.47,2.21-8.32,3.29-11.57,3.7,3.25-.41,7.1-1.49,11.57-3.7h0ZM158.41,113.44s.07.04.11.06c-.04-.02-.08-.04-.11-.06ZM157.68,119.24c-.25.37-.52.76-.8,1.16-2.23,3.17-5.24,6.98-9.02,10.8,3.78-3.82,6.79-7.63,9.02-10.8.28-.4.55-.78.8-1.16ZM157.5,113.6s.05-.09.08-.13c-.02.04-.05.09-.08.13ZM157.21,114.08c.03-.06.07-.11.1-.17-.03.05-.07.11-.1.17ZM156.91,114.59c.04-.06.08-.13.12-.19-.04.06-.08.13-.12.19ZM156.55,115.16c.06-.09.11-.18.16-.26-.05.09-.11.17-.16.26ZM156.17,115.76c.06-.09.12-.19.18-.28-.06.09-.12.19-.18.28ZM155.76,116.39c.07-.1.13-.2.2-.3-.06.1-.13.2-.2.3ZM155.31,117.06c.07-.11.14-.21.22-.32-.07.11-.14.21-.22.32ZM154.84,117.75c.08-.11.15-.22.22-.32-.07.11-.15.21-.22.32ZM154.34,118.46c.08-.11.16-.23.24-.34-.08.11-.16.22-.24.34ZM153.81,119.2c.08-.11.16-.22.24-.34-.08.11-.16.22-.24.34ZM153.24,119.97c.08-.11.17-.22.25-.34-.08.11-.16.22-.25.34ZM146.49,127.8c.09-.09.17-.17.26-.26-.09.09-.17.17-.26.26ZM145.66,128.63c.06-.06.12-.12.19-.18-.06.06-.12.12-.19.18ZM144.6,129.63c.06-.06.13-.12.2-.18-.06.06-.13.12-.2.18ZM143.62,130.53c.1-.09.2-.18.29-.26-.1.09-.19.18-.29.26ZM142.68,131.35c.09-.08.19-.16.28-.25-.09.08-.19.16-.28.25ZM141.73,132.16s0,0,0,0c0,0,0,0,0,0ZM140.46,133.19c.1-.08.2-.16.3-.24-.1.08-.2.16-.3.24ZM139.4,134c.11-.09.23-.17.34-.26-.11.09-.23.17-.34.26ZM138.36,134.77c.08-.06.17-.12.25-.18-.08.06-.17.12-.25.18ZM137.04,135.69c.09-.06.17-.12.26-.17-.08.06-.17.12-.26.17ZM163.67,115.1c.14.02.28.03.42.05-.14-.01-.28-.03-.42-.05ZM163.24,115.04c.11.02.22.03.33.05-.11-.01-.22-.03-.33-.05ZM163.99,120.31c.4,0,.82,0,1.24-.02s.87-.05,1.32-.09c-.45.04-.89.08-1.32.09-.43.02-.84.03-1.24.02ZM165.11,115.22c.33.01.67.02,1.02.02-.35,0-.69,0-1.02-.02ZM166.19,115.24c.34,0,.7-.02,1.06-.04-.36.02-.72.04-1.06.04ZM135.82,136.49c.12-.08.25-.16.37-.24-.12.08-.25.16-.37.24ZM136.18,140.86c-.02.55-.03,1.14-.03,1.76,0-.62.02-1.21.03-1.76ZM135.02,137c-.12.07-.23.15-.35.22.12-.07.23-.14.35-.22ZM147.75,126.49c-.18.19-.36.37-.54.56.18-.19.36-.38.54-.56ZM150.48,123.44c-.21.25-.43.5-.65.76.22-.25.44-.51.65-.76ZM148.66,125.51c-.18.19-.35.39-.53.58.18-.19.36-.39.53-.58ZM149.55,124.52c-.18.21-.36.41-.55.62.19-.21.37-.41.55-.62ZM151.62,122.05c-.1.12-.19.24-.29.36.1-.12.19-.24.29-.36ZM150.92,122.91c-.1.12-.19.24-.29.35.1-.12.2-.24.29-.35ZM152.64,120.76c.1-.13.19-.26.29-.38-.1.13-.19.26-.29.38ZM152,121.58c.1-.13.2-.25.29-.38-.1.13-.19.25-.29.38ZM159.87,114.14c-.11-.05-.22-.09-.33-.14.11.05.22.09.33.14ZM158.83,113.67c-.09-.04-.17-.09-.25-.13.08.04.17.09.25.13ZM159.16,113.83c-.1-.05-.19-.09-.28-.13.09.04.18.09.28.13ZM159.51,113.99c-.11-.05-.21-.09-.31-.14.1.05.2.09.31.14ZM160.98,114.53c-.11-.03-.22-.07-.32-.1.1.03.21.07.32.1ZM160.21,114.27c-.11-.04-.21-.08-.31-.12.1.04.2.08.31.12ZM160.61,114.41c-.11-.04-.22-.08-.33-.11.11.04.22.08.33.11ZM161.05,114.55c.12.04.24.07.36.1-.12-.03-.24-.07-.36-.1ZM162.24,114.86c-.13-.03-.25-.05-.37-.08.12.03.24.06.37.08ZM161.8,114.75c-.1-.02-.2-.05-.3-.08.1.03.2.05.3.08ZM162.74,114.96c.13.02.27.05.41.07-.14-.02-.27-.04-.41-.07ZM162.33,114.88c.11.02.22.04.33.07-.11-.02-.22-.04-.33-.07ZM164.54,115.18c-.12,0-.25-.02-.37-.03.12.01.24.02.37.03ZM164.66,115.19c.14,0,.29.02.43.03-.15,0-.29-.02-.43-.03ZM167.89,115.15c-.18.02-.36.03-.54.04.18-.01.35-.02.54-.04ZM169.17,115c.19-.03.38-.06.57-.09-.19.03-.38.06-.57.09ZM168.59,115.07c.16-.02.32-.04.48-.06-.16.02-.32.04-.48.06ZM167.91,115.15c.17-.02.35-.03.52-.05-.18.02-.35.04-.52.05ZM172.06,114.41c-.23.06-.46.12-.69.17.23-.05.45-.11.69-.17ZM170.48,114.77c-.2.04-.4.08-.59.11.19-.03.39-.07.59-.11ZM171.22,114.61c-.22.05-.44.1-.66.14.22-.04.44-.09.66-.14ZM172.11,114.39c.22-.06.44-.12.67-.18-.22.06-.45.13-.67.18ZM177.08,112.66c-.33.14-.65.28-.98.41.32-.13.65-.26.98-.41ZM173.82,113.89c-.3.1-.6.19-.89.27.29-.08.59-.18.89-.27ZM174.87,113.53c-.31.11-.61.22-.91.31.3-.1.6-.2.91-.31ZM175.96,113.12c-.32.13-.63.24-.94.36.31-.11.62-.23.94-.36ZM178.22,112.15c-.33.16-.66.3-.99.45.33-.14.66-.29.99-.45ZM178.36,112.08c.34-.16.69-.33,1.03-.5-.35.18-.69.34-1.03.5ZM180.67,110.91c.39-.21.77-.42,1.17-.65-.39.23-.78.44-1.17.65ZM180.6,110.95c-.37.2-.73.39-1.09.57.36-.18.72-.37,1.09-.57ZM176.16,137.63c.23-.98.45-1.98.65-2.98-.2,1-.42,1.99-.65,2.98ZM166.57,162.37c4.06-7.18,7.15-14.95,9.23-23.26-2.09,8.31-5.18,16.08-9.23,23.26ZM163.55,167.34c.53-.81,1.05-1.63,1.55-2.46-.5.83-1.02,1.65-1.55,2.46ZM153.83,176.4c.58.1,1.17.17,1.78.21-.61-.05-1.2-.12-1.78-.21ZM152.97,176.24c-7.93-1.68-13.13-8.07-15.49-19.08-1.04-4.86-1.33-9.81-1.34-13.72,0,3.92.29,8.86,1.34,13.72,2.36,11.01,7.56,17.41,15.49,19.08ZM144.66,178.97c-.24-.15-.48-.3-.71-.46.23.16.47.31.71.46ZM140.98,176.02c.18.19.37.38.56.56-.19-.18-.38-.37-.56-.56ZM143.09,177.9c.23.17.46.34.69.5-.23-.16-.47-.33-.69-.5ZM142.42,177.35c.22.19.44.37.67.54-.23-.17-.45-.36-.67-.54ZM141.62,176.65c.21.2.42.39.64.57-.22-.19-.43-.38-.64-.57ZM139.65,174.49c.16.21.33.41.5.61-.17-.2-.34-.4-.5-.61ZM140.26,175.23c.19.22.39.44.59.65-.2-.21-.4-.42-.59-.65ZM137.72,171.67c-.16-.28-.32-.56-.48-.85.16.29.32.57.48.85ZM138.33,172.67c-.17-.26-.34-.53-.5-.8.16.27.33.54.5.8ZM138.88,173.47c-.16-.23-.32-.46-.48-.7.16.24.31.47.48.7ZM139.54,174.36c-.18-.24-.36-.48-.54-.72.18.25.36.49.54.72ZM135.82,167.8c.12.3.24.59.37.87-.13-.29-.25-.58-.37-.87ZM136.77,169.92c.15.3.3.6.46.89-.16-.29-.31-.59-.46-.89ZM136.24,168.79c.14.31.28.62.43.92-.15-.3-.29-.61-.43-.92ZM133.55,160.18c.09.41.18.81.27,1.21-.09-.4-.18-.8-.27-1.21ZM135.35,166.59c.12.34.25.67.38.99-.13-.32-.26-.65-.38-.99ZM134.96,165.48c.1.31.21.62.32.92-.11-.3-.21-.61-.32-.92ZM134.56,164.21c.11.36.22.72.33,1.07-.11-.35-.23-.71-.33-1.07ZM134.21,162.95c.09.34.19.68.29,1.02-.1-.33-.19-.67-.29-1.02ZM133.88,161.66c.09.39.19.77.29,1.15-.1-.38-.2-.76-.29-1.15Z" style="fill:#fff; stroke:#606060; stroke-linecap:round; stroke-linejoin:round; stroke-width:2px;"/><path d="M177.42,106.78c-.28.17-.57.33-.85.5-1.65.95-3.22,1.73-4.7,2.37-1.51.66-2.93,1.16-4.27,1.55-1.08.31-2.1.55-3.07.71-.89.15-1.72.25-2.51.3-.77.05-1.5.05-2.18.02-.69-.03-1.33-.1-1.93-.19-.63-.1-1.21-.22-1.74-.37-.57-.16-1.09-.33-1.55-.51-.52-.21-.96-.42-1.33-.62-.06-.03-.12-.07-.18-.1l5.27,2.99c.06.03.12.07.18.1.37.2.82.42,1.33.62.46.18.98.36,1.55.51.53.14,1.11.27,1.74.37.6.09,1.24.16,1.93.19.68.03,1.41.03,2.18-.02.79-.05,1.63-.15,2.51-.3.97-.17,1.99-.4,3.07-.71,1.34-.39,2.76-.9,4.27-1.55,1.48-.64,3.05-1.42,4.7-2.37.28-.16.56-.33.85-.5l-5.27-2.99Z" style="fill:#fff; stroke:#606060; stroke-linecap:round; stroke-linejoin:round; stroke-width:.5px;"/><path d="M133.55,160.18c3.08,14.7,10.78,21.96,22.88,21.61,12.38-13.65,20.55-29.99,24.29-48.59,2.33-11.6,2.13-20.54,1.97-23.43-.28.17-.57.33-.85.5-13.91,7.95-21.69,4.36-24.04,2.82-2.46,4.28-10.52,16.88-24.29,24.83-.07.04-.13.08-.2.11-.27.16-.56.32-.84.47-.27,3.13-.85,12.53,1.07,21.7ZM136.15,142.66c0-.66.02-1.28.04-1.87,10.24-6.66,17.42-15.56,21.5-21.56,3.92,1.41,10.91,2.22,21.12-2.82-.04,4.11-.42,10.57-1.99,18.24-3.27,16-10.09,30.12-20.28,42.01-9.95-.37-16.36-6.93-19.06-19.51-1.11-5.19-1.37-10.47-1.33-14.49Z" style="fill:#fff; stroke:#606060; stroke-linecap:round; stroke-linejoin:round; stroke-width:.5px;"/><path d="M133.55,160.18c-1.92-9.17-1.34-18.56-1.07-21.7l-5.27-2.99c-.27,3.13-.85,12.53,1.07,21.7,1.98,9.45,5.87,15.83,11.61,19.08l5.27,2.99c-5.74-3.26-9.63-9.63-11.61-19.08Z" style="fill:#fff; stroke:#606060; stroke-linecap:round; stroke-linejoin:round; stroke-width:.5px;"/><path d="M152.53,110.09c-.26.46-.6,1.02-.99,1.66-.45.72-.98,1.55-1.59,2.45-.6.88-1.27,1.83-2.03,2.84-.78,1.04-1.64,2.13-2.59,3.26-1.09,1.3-2.3,2.65-3.62,4-3.64,3.73-8.13,7.53-13.48,10.62-.06.04-.13.08-.2.11-.27.16-.56.32-.84.47l5.27,2.99c.28-.15.56-.31.84-.47.07-.04.13-.08.2-.11,5.36-3.09,9.85-6.89,13.48-10.62,1.32-1.35,2.52-2.7,3.62-4,.95-1.13,1.81-2.22,2.59-3.26.75-1.01,1.43-1.96,2.03-2.84.61-.9,1.14-1.73,1.59-2.45.4-.64.73-1.2.99-1.66l-5.27-2.99Z" style="fill:#fff; stroke:#606060; stroke-linecap:round; stroke-linejoin:round; stroke-width:.5px;"/><path d="M157.68,119.24c3.92,1.41,10.91,2.22,21.12-2.82-.04,4.11-.42,10.57-1.99,18.24-3.27,16-10.09,30.12-20.28,42.01-9.95-.37-16.36-6.93-19.06-19.51-1.11-5.19-1.37-10.47-1.33-14.49,0-.66.02-1.28.04-1.87,10.24-6.66,17.42-15.56,21.5-21.56Z" style="fill:#ef7150; stroke:#606060; stroke-linecap:round; stroke-linejoin:round; stroke-width:.5px;"/><path d="M136.31,140.83c-.02.58-.04,1.2-.04,1.86-.04,4,.22,9.25,1.33,14.41,2.68,12.52,9.05,19.03,18.95,19.4.2-.23.39-.46.58-.69l6.21-25.54-26.99-9.48-.12-.04s.07.04.1.06c0,0-.01,0-.02.01Z" style="fill:#e95420; stroke:#606060; stroke-linecap:round; stroke-linejoin:round; stroke-width:.5px;"/><path d="M157.51,119.66l5.83,30.62s13.05-14.5,15.35-33.42c0-.1,0-.18,0-.28-10.16,5.02-17.1,4.21-21,2.81-.06.09-.12.18-.18.26Z" style="fill:#f48771; stroke:#606060; stroke-linecap:round; stroke-linejoin:round; stroke-width:.5px;"/><path d="M136.23,140.75s.07.04.1.06c12.43,8.01,27.01,9.46,27.01,9.46l-5.83-30.62c-4.08,5.94-11.14,14.62-21.16,21.14l-.12-.04Z" style="fill:#ef7150; stroke:#606060; stroke-linecap:round; stroke-linejoin:round; stroke-width:.5px;"/><g style="opacity:.2;"><path d="M168.82,200.54c.09.05.22.07.34.04.16-.04.23-.14.16-.23-1.39-1.87-2.51-4.58-1.48-6.55.05-.09-.04-.19-.2-.22-.16-.03-.33.02-.38.12-1.08,2.06.07,4.86,1.5,6.79.02.02.04.04.06.06Z" style="fill:#666; stroke-width:0px;"/><path d="M165.86,200.45c.07.04.17.06.27.05.17-.02.28-.11.25-.2-.04-.15-.1-.33-.16-.52-.37-1.21-.99-3.23-.72-4.66.29-1.51.95-2.6,1.77-2.92.25-.1.52-.12.81-.07,1.46.24,1.4,1.53,1.14,3.32-.21,1.48,1.82,3.73,2.69,4.69.08.09.26.12.41.07.15-.05.21-.15.13-.24-.77-.85-2.82-3.12-2.62-4.5.23-1.65.48-3.35-1.58-3.69-.47-.08-.92-.04-1.32.12-1.35.52-1.85,2.21-2.04,3.18-.28,1.47.35,3.53.73,4.76.06.2.11.37.16.52.01.04.04.07.09.1Z" style="fill:#666; stroke-width:0px;"/><path d="M162.67,199.53c.07.04.17.06.27.05.17-.02.28-.11.25-.2-.76-2.68-1.22-5.3,1.51-7.79.09-.08.05-.19-.1-.24-.14-.05-.33-.03-.42.05-2.85,2.6-2.38,5.28-1.6,8.03.01.04.04.07.09.1Z" style="fill:#666; stroke-width:0px;"/><path d="M171.45,195.19c.06.04.15.06.25.05.17,0,.29-.1.27-.19-.04-.25-.07-.5-.11-.76-.12-.97-.25-1.98-1.05-2.85-.6-.65-1.84-1.33-3.25-1.4-.91-.05-1.72.17-2.35.64-.1.08-.08.19.05.25.13.06.33.05.43-.03.5-.37,1.11-.54,1.82-.5,1.01.05,2.15.55,2.76,1.22.75.81.87,1.77.98,2.71.03.26.06.52.11.77,0,.04.04.08.09.11Z" style="fill:#666; stroke-width:0px;"/><path d="M173.97,198.75c.22.13.46.24.71.34.14.05.33.03.42-.05.09-.08.05-.19-.08-.25-1.4-.54-2.43-1.81-2.78-2.76-.04-.1-.2-.16-.36-.14-.17.02-.27.11-.23.21.33.88,1.15,1.96,2.33,2.64Z" style="fill:#666; stroke-width:0px;"/><path d="M159.88,197.92c.06.04.15.06.24.05.17,0,.29-.09.28-.19-.19-1.31-.17-2.44.04-3.47.02-.1-.1-.18-.27-.2-.17-.01-.32.06-.34.15-.22,1.05-.23,2.21-.04,3.54,0,.04.04.08.09.11Z" style="fill:#666; stroke-width:0px;"/><path d="M160.25,193.29s.09.04.15.05c.16.02.33-.04.37-.13.42-1.05,1.54-2.96,4.41-3.9,2.27-.74,4.71-.56,6.2.45.11.07.3.08.43.02.13-.06.14-.17.03-.25-1.67-1.14-4.48-1.35-6.97-.53-2.28.75-3.95,2.21-4.7,4.13-.02.06.01.12.08.16Z" style="fill:#666; stroke-width:0px;"/><path d="M175.54,196.79c.23.13.49.25.77.36.14.05.33.03.42-.05.09-.08.06-.19-.09-.24-2.02-.77-2.37-2.3-2.7-3.77-.21-.93-.43-1.9-1.08-2.66-.07-.09-.26-.12-.41-.08-.15.04-.22.15-.14.24.6.71.81,1.61,1.03,2.55.31,1.35.63,2.74,2.2,3.65Z" style="fill:#666; stroke-width:0px;"/><path d="M157.47,195.63c.07.04.17.06.28.05.17-.02.27-.11.24-.21-.62-1.8.9-4.99,4.17-6.87,1.43-.82,3.79-1.73,6.96-1.36,6.48.75,7.31,4.2,7.59,7.37,0,.1.15.17.32.17.17,0,.3-.09.29-.19-.31-3.55-1.5-6.94-8.08-7.7-2.72-.31-5.32.19-7.52,1.46-3.4,1.96-4.99,5.3-4.34,7.19.01.04.04.07.08.09Z" style="fill:#666; stroke-width:0px;"/></g><path d="M118.51,108.55c-.35.13-1.2.45-2.14.81,0,0,0,0,0,0-.13.05-.25.1-.38.15-.6.23-1.06.35-1.36.08.17-.66.29-1.27.37-1.84.14-.14.28-.27.41-.36.35-.24.49-1.34.41-1.98-.05-.41-.42-.32-.67-.19,0,0,.69-2.79.42-3.11s-.6-.16-.6-.16c0,0-.03-.97-1.41-.17-1.38.8-3.37,1.94-3.59,3.72-.14,1.12.32,2.45.32,2.45h0s0,.06,0,.09c-.26.17-.62.5-.67.97-.08.74.05,1.68.41,1.51.13-.06.27-.09.41-.11.08.47.2.95.37,1.41-.31.63-.76,1.02-1.36,1.49-.13.1-.25.2-.38.29,0,0,0,0,0,0-.94.73-1.79,1.38-2.14,1.66-.86.67-1.71,2.63-2.42,4.53-.7-1.09-1.09-2.57-1.09-4.38,0-5.83,4.1-12.93,9.15-15.85,5.05-2.92,9.15-.55,9.15,5.28,0,1.67-.33,3.43-.93,5.18-.67-.97-1.46-1.76-2.24-1.47Z" style="fill:#e95420; stroke-width:0px;"/><path d="M219.6,155.52l-31.5-18.18c-1.22-.71-1.22-2.47,0-3.18l8.47-4.89c1.42-.82,3.16-.82,4.58,0l33.31,19.23c1.22.71,1.22,2.47,0,3.18l-6.66,3.84c-2.54,1.47-5.67,1.47-8.21,0Z" style="fill:#666; opacity:.2; stroke-width:0px;"/><path d="M229.17,146.03l.02-27.11h-.02c.04-1.56-.71-3.13-2.25-4.02l-4.32-2.54v-8.6c0-7.26-4.93-15.8-11.22-19.43-3.43-1.98-6.78-2.23-9.43-.7-2.65,1.53-4.11,4.55-4.11,8.52v7.01c-1.49,0-2.98.39-4.31,1.16-1.41.82-2.15,2.2-2.24,3.63h0s0,.19,0,.19c0,.06,0,.12,0,.17l-.02,28.54h.01c-.08,1.6.66,3.24,2.24,4.15l24.78,14.59c1.32.76,2.78,1.14,4.25,1.15,1.5,0,3.01-.38,4.35-1.16,1.94-1.13,2.43-3.21,2.26-5.54ZM204.27,87.65c1.13-.65,2.88-.4,4.79.7,4.82,2.78,8.9,9.84,8.9,15.41v5.86l-15.47-9.1v-8.37c0-2.2.65-3.84,1.78-4.5Z" style="fill:#fff; stroke:#606060; stroke-linecap:round; stroke-linejoin:round; stroke-width:2px;"/><path d="M191.29,103.95l-.02,28.9h.01c-.08,1.6.66,3.24,2.24,4.15l24.78,14.59c1.31.76,2.78,1.14,4.25,1.15v-35.34l-31.27-13.44Z" style="fill:#fff; stroke:#606060; stroke-linecap:round; stroke-linejoin:round; stroke-width:.5px;"/><path d="M226.91,151.57c1.94-1.13,2.43-3.21,2.26-5.54l.02-27.11-6.63-1.53v35.34c1.5,0,3.01-.38,4.35-1.16Z" style="fill:#e95420; stroke:#606060; stroke-linecap:round; stroke-linejoin:round; stroke-width:.5px;"/><path d="M218.33,122.72l-24.78-14.59c-3-1.74-3.01-6.07,0-7.81h0c2.66-1.54,5.94-1.55,8.6,0l24.78,14.59c3,1.74,3.01,6.07,0,7.81h0c-2.66,1.54-5.94,1.55-8.6,0Z" style="fill:#fff; stroke:#606060; stroke-linecap:round; stroke-linejoin:round; stroke-width:.5px;"/><polygon points="217.73 137.47 217.73 141.13 194.89 127.92 194.89 127.92 198.09 126.12 217.73 137.47" style="fill:#fff; stroke:#606060; stroke-linecap:round; stroke-linejoin:round; stroke-width:.5px;"/><polygon points="198.09 126.12 217.73 137.47 217.68 126.74 198.1 115.33 198.09 126.12" style="fill:#fff; stroke:#606060; stroke-linecap:round; stroke-linejoin:round; stroke-width:.5px;"/><polygon points="198.09 126.12 217.73 137.47 217.68 126.74 198.1 115.33 198.09 126.12" style="fill:#666; opacity:.2; stroke-width:0px;"/><polygon points="194.89 113.47 194.89 127.92 194.9 127.93 198.09 126.12 198.1 115.33 194.89 113.47" style="fill:#fff; stroke:#606060; stroke-linecap:round; stroke-linejoin:round; stroke-width:.5px;"/><polygon points="217.73 137.47 217.73 141.13 194.89 127.92 194.89 127.92 198.09 126.12 217.73 137.47" style="fill:#666; opacity:.2; stroke-width:0px;"/><polygon points="194.89 113.47 194.89 127.92 194.9 127.93 198.09 126.12 198.1 115.33 194.89 113.47" style="fill:#666; opacity:.2; stroke-width:0px;"/><path d="M207.88,125.2l.16.09s-.05-.04-.16-.09Z" style="fill:#fff; stroke:#606060; stroke-linecap:round; stroke-linejoin:round; stroke-width:.5px;"/><g style="clip-path:url(#d);"><path d="M203.3,116.7h0c-.78-.53-1.9-.5-3.15.22-2.36,1.36-4.27,4.67-4.27,7.39,0,1.36.48,2.32,1.25,2.77h0s4.25,2.45,4.25,2.45l6.06-10.44-4.15-2.39Z" style="fill:#fff; stroke:#606060; stroke-linecap:round; stroke-linejoin:round; stroke-width:.5px;"/><ellipse cx="204.37" cy="124.28" rx="6.04" ry="3.49" transform="translate(-5.45 239.12) rotate(-60)" style="fill:#e95420; stroke:#606060; stroke-linecap:round; stroke-linejoin:round; stroke-width:.5px;"/><path d="M198.05,127.55c.08-.18.18-.36.28-.5.12-.18.24-.32.35-.41l-1.53-.88v-.42s2,1.16,2,1.16v.4c-.1.08-.21.19-.33.36-.11.15-.24.36-.34.56l-.43-.25Z" style="opacity:.3; stroke-width:0px;"/><g style="opacity:.3;"><path d="M201.96,119.22c-.13.07-.27.13-.42.17-.15.04-.31.05-.48.05-.17,0-.34-.03-.51-.08-.17-.05-.35-.12-.52-.22-.2-.11-.33-.22-.41-.33s-.11-.21-.1-.3c0-.09.04-.18.11-.26.07-.08.15-.14.24-.2s.19-.09.3-.12c.11-.03.22-.05.34-.06.12-.01.23-.02.35-.01.12,0,.23.01.35.03-.13-.27-.03-.5.3-.69.12-.07.25-.12.4-.15.15-.03.31-.05.47-.05.16,0,.33.02.49.07.17.04.32.1.47.19.17.1.29.2.36.3.07.1.1.19.1.29,0,.09-.04.17-.1.25-.06.08-.14.14-.23.19s-.18.09-.29.12-.21.05-.32.06c-.11.01-.22.02-.33.02-.11,0-.21-.01-.31-.02.19.3.1.56-.26.78ZM200.3,118.29c-.05.03-.1.07-.14.12s-.06.1-.06.15.02.12.06.18c.04.06.12.13.24.19.1.06.21.1.32.13.11.03.21.04.3.04.1,0,.19,0,.27-.03.08-.02.16-.05.22-.09.1-.06.16-.12.2-.18s.05-.13.03-.2c-.01-.07-.05-.14-.11-.22-.06-.08-.13-.16-.23-.24-.21-.03-.41-.04-.6-.02-.19.02-.36.08-.51.17ZM203.05,118.02s.09-.06.12-.1c.03-.04.05-.09.06-.14,0-.05-.01-.11-.05-.16-.03-.06-.1-.11-.2-.17s-.19-.09-.29-.12c-.1-.02-.19-.03-.28-.03-.09,0-.17.01-.25.04-.08.02-.14.05-.2.08-.07.04-.12.08-.16.14-.04.05-.07.11-.07.17,0,.06,0,.13.05.21.04.07.1.15.19.23.2.03.39.04.57.02.18-.01.35-.07.51-.16Z" style="stroke-width:0px;"/></g><path d="M198.39,121.8c.56.33.93.67,1.11,1.02.18.35.2.7.06,1.05-.06.16-.15.28-.26.39-.11.1-.24.17-.4.2-.16.03-.34.02-.54-.02s-.43-.13-.67-.27c-.1-.05-.19-.12-.29-.18-.1-.07-.18-.14-.26-.21s-.15-.13-.21-.19c-.06-.06-.1-.1-.13-.13l.27-.36c.05.06.14.16.27.28.13.12.29.24.5.36.17.09.32.15.44.18.13.03.24.03.33.02.09-.02.17-.06.24-.12.06-.06.11-.13.15-.22.05-.13.07-.26.07-.38,0-.13-.06-.26-.16-.39-.1-.14-.24-.28-.43-.43-.19-.15-.44-.31-.76-.48.09-.15.17-.3.24-.44.07-.14.14-.27.21-.41.07-.13.13-.27.2-.4.06-.13.13-.27.2-.42l1.87,1.03-.16.4-1.42-.78s-.06.11-.1.2-.09.17-.13.26c-.05.09-.09.18-.13.26-.04.08-.08.15-.11.2Z" style="opacity:.3; stroke-width:0px;"/></g><g style="clip-path:url(#e);"><path d="M209.43,120.24h0c-.78-.53-1.9-.5-3.15.22-2.36,1.36-4.27,4.67-4.27,7.39,0,1.36.48,2.32,1.25,2.77h0s4.25,2.45,4.25,2.45l6.06-10.44-4.15-2.39Z" style="fill:#fff; stroke:#606060; stroke-linecap:round; stroke-linejoin:round; stroke-width:.5px;"/><ellipse cx="210.5" cy="127.82" rx="6.04" ry="3.49" transform="translate(-5.45 246.2) rotate(-60)" style="fill:#e95420; stroke:#606060; stroke-linecap:round; stroke-linejoin:round; stroke-width:.5px;"/><g style="opacity:.3;"><path d="M207.16,121.26c.53-.3,1.03-.48,1.5-.54.47-.06.87.01,1.2.2s.45.42.35.69c-.1.27-.41.56-.94.86s-1.03.48-1.5.54c-.47.06-.87-.01-1.2-.2s-.45-.42-.35-.69c.1-.27.41-.56.94-.86ZM208.83,122.22c.17-.1.33-.2.46-.3.13-.1.24-.2.3-.29.07-.09.1-.18.09-.27-.01-.08-.07-.16-.19-.23s-.25-.1-.39-.11c-.15,0-.3.01-.46.05-.16.04-.33.1-.5.18s-.35.17-.52.27-.33.2-.46.3c-.13.1-.24.2-.3.29-.07.09-.1.18-.09.27.01.08.07.16.19.23s.25.1.39.11c.15,0,.3-.01.46-.05.16-.04.33-.1.5-.18.17-.08.35-.17.52-.27Z" style="stroke-width:0px;"/></g><g style="opacity:.3;"><path d="M205.64,127.42c-.08.17-.18.31-.3.42-.12.11-.25.2-.4.25-.15.05-.31.07-.49.05-.18-.02-.36-.08-.55-.18-.22-.12-.39-.25-.5-.41s-.18-.31-.22-.47c-.03-.16-.04-.31,0-.47.03-.15.07-.29.13-.41s.13-.22.21-.3c.08-.09.18-.16.27-.23.1-.06.2-.11.31-.15.11-.04.21-.06.32-.07-.22-.4-.23-.82-.01-1.25.07-.15.17-.28.29-.39.12-.11.25-.19.4-.24.14-.05.3-.07.46-.07.16,0,.33.06.49.15.19.1.34.22.44.36.1.14.17.29.21.44.04.15.04.3.02.45-.02.15-.07.28-.12.4s-.13.22-.2.3-.17.16-.26.22c-.09.06-.19.11-.28.14-.1.03-.19.06-.29.07.29.44.32.9.09,1.38ZM203.78,126.47c-.04.07-.06.15-.08.24s-.01.18,0,.28.07.19.13.28c.06.09.16.17.29.24.12.06.23.1.33.1.11,0,.2,0,.29-.04.08-.03.16-.08.23-.15.07-.06.12-.14.16-.22.06-.13.1-.25.1-.37s-.01-.23-.05-.34c-.04-.11-.1-.22-.19-.33-.08-.11-.18-.21-.3-.32-.2.02-.38.08-.54.18-.16.1-.28.25-.39.46ZM206.11,125.05c.03-.06.05-.13.06-.21.01-.08.01-.17,0-.25-.02-.09-.05-.17-.11-.25-.05-.08-.14-.15-.25-.21s-.21-.09-.31-.09c-.1,0-.18.02-.26.05-.08.04-.15.08-.21.15-.06.06-.11.13-.14.2-.04.09-.07.18-.09.28-.02.1-.01.21,0,.31.02.11.06.21.13.32.06.11.15.22.26.32.19-.02.36-.08.52-.16.15-.09.28-.24.39-.45Z" style="stroke-width:0px;"/></g><path d="M204.35,131.17s.11-.06.14-.09c.07-.04.13-.09.18-.14.05-.05.1-.11.13-.18.03-.07.05-.15.05-.25,0-.1-.01-.2-.04-.29-.03-.09-.07-.17-.12-.25-.05-.08-.11-.15-.17-.21-.07-.06-.13-.11-.21-.15-.09-.05-.17-.08-.24-.1-.07-.01-.14-.02-.2-.02s-.11.01-.15.03c-.04.02-.07.03-.09.04l-.21-.47s.07-.04.12-.06c.05-.02.12-.03.2-.03.08,0,.16,0,.25.03s.2.07.3.13c.33.19.58.42.74.69.16.27.25.57.25.89,0,.13-.02.23-.07.33-.04.09-.1.17-.17.25-.05.05-.13.1-.19.14l-.52-.3Z" style="opacity:.3; stroke-width:0px;"/></g><g style="clip-path:url(#f);"><path d="M215.42,123.72h0c-.78-.53-1.9-.5-3.15.22-2.36,1.36-4.27,4.67-4.27,7.39,0,1.36.48,2.32,1.25,2.77h0s4.25,2.45,4.25,2.45l6.06-10.44-4.15-2.39Z" style="fill:#fff; stroke:#606060; stroke-linecap:round; stroke-linejoin:round; stroke-width:.5px;"/><ellipse cx="216.49" cy="131.31" rx="6.04" ry="3.49" transform="translate(-5.47 253.13) rotate(-60)" style="fill:#e95420; stroke:#606060; stroke-linecap:round; stroke-linejoin:round; stroke-width:.5px;"/><path d="M210.22,130.78c.35.16.63.22.83.18.2-.04.34-.16.42-.35.05-.12.06-.24.03-.36-.03-.11-.08-.22-.17-.32-.08-.1-.19-.19-.32-.27-.13-.08-.26-.16-.41-.22l-.14-.07.15-.37.2.09c.1.05.21.08.32.12.11.03.22.05.33.04.1,0,.2-.03.29-.08.09-.05.15-.13.2-.24.04-.09.05-.18.04-.26-.01-.08-.04-.16-.09-.23-.05-.07-.11-.14-.19-.19-.08-.06-.17-.11-.26-.15-.19-.09-.36-.14-.51-.15-.15-.02-.28-.02-.4-.01l-.07-.44c.06,0,.13,0,.22,0,.09,0,.18.01.28.03.1.02.21.04.32.07.11.03.23.07.34.12.22.1.4.21.54.32.14.12.25.24.32.37.07.13.11.26.12.39,0,.13-.02.26-.07.39-.07.18-.2.3-.37.37-.17.07-.36.1-.57.08.1.08.18.16.26.25.08.09.14.2.18.3.04.11.07.22.07.34,0,.12-.02.24-.07.36-.06.15-.15.27-.26.37-.11.1-.25.16-.42.19-.17.03-.36.03-.57,0-.22-.04-.46-.12-.72-.24-.1-.05-.21-.1-.31-.17-.1-.06-.2-.13-.29-.19-.09-.06-.16-.12-.23-.17-.06-.05-.11-.09-.14-.12l.27-.35c.06.06.16.14.3.26.14.11.32.22.55.33Z" style="opacity:.3; stroke-width:0px;"/><path d="M215.87,125.51c-.11.06-.24.11-.38.14-.15.03-.3.06-.47.07-.17.01-.35.02-.54.03-.19,0-.37,0-.55,0-.1,0-.22,0-.36,0-.14,0-.27,0-.41.01-.14,0-.26.02-.37.04-.11.02-.19.04-.24.07l1.45.84-.36.21-1.91-1.1s.03-.02.05-.03l.05-.03c.14-.08.3-.15.47-.19.17-.04.35-.08.53-.09s.37-.03.56-.03c.19,0,.38,0,.56,0,.15,0,.29,0,.43,0,.14,0,.27,0,.4-.02.12-.01.24-.03.35-.05.11-.03.2-.06.29-.11.09-.05.15-.11.19-.16.03-.05.05-.11.04-.16,0-.05-.03-.1-.08-.15-.05-.05-.1-.09-.18-.14-.09-.05-.18-.09-.28-.12-.1-.03-.19-.05-.28-.06s-.17-.02-.25-.03c-.07,0-.13,0-.17,0l.09-.29c.06,0,.14,0,.23,0,.1,0,.21.02.32.04.11.02.23.05.35.09s.24.09.35.15c.33.19.5.38.51.56.01.18-.12.36-.4.52Z" style="opacity:.3; stroke-width:0px;"/><path d="M210.88,133.71c-.02-.08-.06-.17-.11-.26-.05-.09-.11-.18-.19-.26-.08-.09-.17-.16-.28-.22-.11-.06-.2-.1-.28-.1-.08,0-.14,0-.19.04-.05.03-.08.08-.11.14-.02.06-.03.13-.03.2,0,.09.01.18.04.29.03.1.07.21.13.32s.13.22.23.33c.09.11.21.23.34.34.14-.02.26-.07.34-.15.09-.08.13-.23.13-.45,0-.06-.01-.13-.03-.22Z" style="fill:none; stroke-width:0px;"/><path d="M210.86,134.87c.07-.01.13-.03.2-.06.06-.03.12-.08.17-.13.05-.06.09-.13.12-.21.03-.08.04-.18.04-.3s-.02-.25-.06-.4c-.04-.15-.1-.3-.19-.46-.09-.16-.2-.31-.34-.45-.14-.15-.3-.28-.49-.39-.16-.1-.31-.15-.45-.17-.13-.02-.25,0-.34.05-.09.05-.17.13-.22.23-.05.11-.08.24-.08.39,0,.43.17.86.5,1.27-.04,0-.08.01-.12.02l1.42.82c-.05-.07-.11-.14-.17-.21ZM210.44,134.48c-.13-.11-.24-.22-.34-.34-.09-.11-.17-.23-.23-.33s-.1-.21-.13-.32c-.03-.1-.04-.2-.04-.29,0-.07.01-.14.03-.2.02-.06.06-.11.11-.14.05-.03.11-.05.19-.04.08,0,.17.04.28.1.11.06.2.14.28.22.08.09.14.17.19.26.05.09.08.18.11.26.02.08.03.16.03.22,0,.21-.04.36-.13.45-.09.08-.2.13-.34.15Z" style="opacity:.3; stroke-width:0px;"/></g><line x1="216.59" y1="136.17" x2="216.71" y2="126.26" style="fill:#fff; stroke:#606060; stroke-linecap:round; stroke-linejoin:round; stroke-width:.5px;"/><line x1="210.71" y1="125.18" x2="210.74" y2="122.76" style="fill:#fff; stroke:#606060; stroke-linecap:round; stroke-linejoin:round; stroke-width:.5px;"/><line x1="204.57" y1="121.82" x2="204.6" y2="119.22" style="fill:#fff; stroke:#606060; stroke-linecap:round; stroke-linejoin:round; stroke-width:.5px;"/><path d="M206.12,107.07h0s-3.93-2.32-3.93-2.32l-3.71,2.14,3.75,2.22c.05.04.1.07.16.1,1.03.59,2.69.59,3.71,0,1.02-.59,1.03-1.55,0-2.14Z" style="fill:#666; opacity:.2; stroke-width:0px;"/><path d="M225.89,118.46h0s-3.93-2.32-3.93-2.32l-3.71,2.14,3.75,2.22c.05.04.1.07.16.1,1.03.59,2.69.59,3.71,0,1.02-.59,1.03-1.55,0-2.14Z" style="fill:#666; opacity:.2; stroke-width:0px;"/><path d="M222.6,117.55h0v-13.78c0-7.26-4.93-15.8-11.22-19.43-3.43-1.98-6.78-2.23-9.43-.7-2.65,1.53-4.11,4.55-4.11,8.52v13.64c-.08.39.14.81.67,1.11.91.53,2.39.53,3.3,0,.46-.26.68-.61.68-.95h0v-13.8c0-2.2.65-3.84,1.78-4.5,1.13-.65,2.88-.4,4.79.7,4.82,2.78,8.9,9.84,8.9,15.41v13.78h0v.02h0c0,.34.23.68.68.94.91.53,2.38.53,3.28,0,.45-.26.67-.6.68-.94h0Z" style="fill:#fff; stroke:#606060; stroke-linecap:round; stroke-linejoin:round; stroke-width:.5px;"/></svg>