<?xml version="1.0" encoding="UTF-8"?><svg id="a" xmlns="http://www.w3.org/2000/svg" viewBox="0 0 280 280"><polygon points="202.01 150.76 178.62 164.26 155.24 150.76 178.62 137.26 202.01 150.76" style="fill:#666; opacity:.2; stroke-width:0px;"/><polygon points="204.87 92.92 196.54 88.12 170.17 133.6 165.73 131.04 157.41 126.24 152.13 135.6 160.45 140.39 181.12 152.33 212.78 97.49 204.87 92.92" style="fill:#fff; stroke:#606060; stroke-linecap:round; stroke-linejoin:round; stroke-width:2px;"/><path d="M90.58,237.25s-2.37-1.58-2.39-1.61l-3.39.64s-.29,2.08-.29,2.11l-5.51-.25s.25-2.08.27-2.12l-3.18-.94s-2.74,1.35-2.79,1.37l-3.6-2.44s2.72-1.36,2.77-1.38l-1.11-1.96c-.06,0-3.59-.17-3.65-.18l.42-3.19c.06,0,3.6.15,3.65.16l1.61-1.84c-.11-.06-2.33-1.59-2.37-1.62l4.2-2.08s2.37,1.58,2.39,1.61l3.39-.64s.29-2.08.29-2.11l5.51.26s-.25,2.08-.27,2.12l3.18.94s2.74-1.35,2.79-1.37l3.6,2.44s-2.72,1.37-2.77,1.38l1.11,1.96c.06,0,3.59.17,3.65.18l-.42,3.19c-.06,0-3.6-.15-3.65-.16l-1.61,1.84c.11.06,2.33,1.59,2.37,1.62l-4.2,2.08ZM82.52,232.43c2.71.13,5.08-1.05,5.29-2.62.11-.87-.45-1.67-1.44-2.24-.8-.46-1.88-.77-3.09-.83-2.71-.13-5.08,1.05-5.29,2.62-.11.87.45,1.67,1.44,2.24.8.46,1.88.77,3.09.83h0Z" style="fill:#e95420; stroke-width:0px;"/><polygon points="49.63 219.01 46.12 216.98 45.35 217.42 48.87 219.45 45.35 221.48 46.12 221.92 49.63 219.89 53.14 221.92 53.91 221.48 50.39 219.45 53.91 217.42 53.14 216.98 49.63 219.01" style="fill:#e95420; fill-rule:evenodd; stroke-width:0px;"/><polygon points="55.39 232.53 51.88 230.51 51.12 230.95 54.63 232.97 51.12 235 51.88 235.44 55.39 233.41 58.91 235.44 59.67 235 56.16 232.97 59.67 230.95 58.91 230.51 55.39 232.53" style="fill:#e95420; fill-rule:evenodd; stroke-width:0px;"/><polygon points="120.44 232.05 117.52 230.37 116.89 230.74 119.81 232.42 116.89 234.1 117.52 234.47 120.44 232.79 123.36 234.47 123.99 234.1 121.07 232.42 123.99 230.74 123.36 230.37 120.44 232.05" style="fill:#e95420; fill-rule:evenodd; stroke-width:0px;"/><polygon points="34.75 233.28 31.23 231.26 30.47 231.7 33.98 233.73 30.47 235.75 31.23 236.19 34.75 234.17 38.26 236.19 39.02 235.75 35.51 233.73 39.02 231.7 38.26 231.26 34.75 233.28" style="fill:#e95420; fill-rule:evenodd; stroke-width:0px;"/><polygon points="181.45 169.31 177.94 167.28 177.17 167.72 180.69 169.75 177.17 171.78 177.94 172.22 181.45 170.19 184.96 172.22 185.73 171.78 182.21 169.75 185.73 167.72 184.96 167.28 181.45 169.31" style="fill:#e95420; fill-rule:evenodd; stroke-width:0px;"/><path d="M233.26,211.18l-13.58-7.88c-1.36-.79-3.44-.87-4.62-.19l-14.46,8.41c-.67.39-.91.94-.75,1.49.12.42.49.84,1.08,1.18l13.58,7.88c1.36.79,3.44.87,4.62.19l14.46-8.41c.46-.27.72-.62.78-.99.09-.57-.29-1.2-1.11-1.68Z" style="fill:#666; opacity:.2; stroke-width:0px;"/><path d="M182.42,88.33l-13.58-7.88c-1.36-.79-3.44-.87-4.62-.19l-14.46,8.41c-.67.39-.91.94-.75,1.49.12.42.49.84,1.08,1.18l13.58,7.88c1.36.79,3.44.87,4.62.19l14.46-8.41c.46-.27.72-.62.78-.99.09-.57-.29-1.2-1.11-1.68Z" style="fill:#666; opacity:.2; stroke-width:0px;"/><path d="M109.6,64.41c-4.67-8.09-11.13-15.16-18.26-19.27-7.13-4.12-13.58-4.51-18.26-1.81l-12.04,7.17c-4.67,2.7-7.56,8.48-7.56,16.71l14.29,8.25,11.35-6.76c.06.03.12.07.18.1,3.18,1.84,6.07,4.99,8.15,8.61,2.09,3.61,3.38,7.69,3.38,11.37l14.29,8.25,12.1-6.99c0-8.23-2.95-17.54-7.62-25.63Z" style="fill:#fff; stroke:#606060; stroke-linecap:round; stroke-linejoin:round; stroke-width:2px;"/><path d="M160.43,180.27l-58.25,33.63c-5.48,3.16-15.14,2.76-21.46-.89l-55.16-31.85c-6.33-3.65-7.02-9.23-1.54-12.39l58.25-33.63c5.48-3.16,15.14-2.76,21.46.89l55.16,31.85c6.33,3.65,7.02,9.23,1.54,12.39Z" style="fill:#666; opacity:.2; stroke-width:0px;"/><path d="M189.19,205.85l-47,29.32c-4.87,2.81-13.46,2.46-19.09-.79l-11.92-6.67c-5.63-3.25-6.24-8.21-1.37-11.02l47.62-29.13c4.87-2.81,13.46-2.46,19.09.79l11.29,6.48c5.63,3.25,6.24,8.21,1.37,11.02Z" style="fill:#666; opacity:.2; stroke-width:0px;"/><path d="M180.2,194.52c.07-.46-.23-.97-.9-1.35l-10.95-6.36c-1.1-.64-2.78-.7-3.73-.16l-6.8,3.95-6.3-3.68c-.44-.26-.85-.71-1.14-1.22s-.47-1.09-.47-1.61v-4.13c0-.91-.46-1.94-1.14-2.66-.22-.24-.47-.44-.74-.59l-1.25-.72.78-.45h0v-5.3l-4.33-2.5v-18.98h0c0-.07,0-.14,0-.21,0-.12,0-.23-.01-.35-.01-.14-.03-.28-.05-.41-.02-.11-.04-.23-.07-.34-.03-.14-.08-.27-.12-.41-.04-.11-.07-.22-.12-.33-.06-.13-.13-.27-.2-.4-.06-.11-.11-.21-.17-.32-.08-.13-.18-.26-.28-.39-.07-.1-.14-.2-.22-.29-.11-.13-.24-.26-.37-.39-.09-.09-.16-.18-.26-.26-.15-.14-.32-.27-.49-.41-.09-.07-.16-.14-.25-.2-.27-.2-.56-.39-.88-.57l-.07-.04-.11-.06c.22-.16.42-.32.62-.48.19-.16.38-.32.55-.48.16-.15.33-.3.48-.46.11-.12.21-.24.31-.35.13-.14.25-.29.36-.44.09-.12.17-.24.25-.36.1-.15.2-.3.28-.45.07-.12.13-.24.19-.36.08-.16.15-.32.21-.48.04-.11.09-.22.13-.33.06-.18.1-.36.14-.54.02-.09.05-.18.06-.28.04-.27.07-.55.07-.82h0v-23.06h0c0-.07,0-.14,0-.21,0-.12,0-.23-.01-.35-.01-.14-.03-.27-.05-.41-.02-.12-.04-.23-.07-.35-.03-.14-.08-.27-.12-.4-.04-.11-.07-.22-.12-.33-.06-.13-.13-.27-.2-.4-.06-.11-.11-.21-.17-.32-.08-.13-.18-.26-.27-.39-.07-.1-.14-.2-.22-.29-.11-.13-.24-.26-.36-.39-.09-.09-.16-.18-.26-.26-.15-.14-.32-.27-.49-.41-.09-.07-.16-.14-.26-.21-.27-.2-.56-.39-.88-.57l-.07-.04-.11-.06c.22-.16.42-.32.62-.48.2-.16.38-.32.56-.48.16-.15.33-.3.48-.46.11-.12.21-.24.31-.35.12-.14.25-.29.36-.43.09-.12.17-.24.25-.36.1-.15.2-.3.28-.45.07-.12.13-.24.19-.36.08-.16.15-.32.21-.48.04-.11.09-.22.13-.33.06-.18.1-.36.14-.54.02-.09.05-.18.06-.28.04-.27.07-.55.07-.82h0v-23.06h0s0,0,0,0c0-.07,0-.14,0-.21,0-.12,0-.23-.01-.35-.01-.14-.03-.27-.05-.41-.02-.12-.04-.23-.07-.34-.03-.14-.08-.27-.12-.41-.04-.11-.07-.22-.12-.33-.06-.13-.13-.27-.2-.4-.06-.11-.11-.21-.17-.31-.08-.13-.18-.26-.28-.39-.07-.1-.14-.2-.22-.29-.11-.13-.24-.26-.36-.39-.09-.09-.16-.18-.26-.26-.15-.14-.32-.27-.49-.4-.09-.07-.17-.14-.26-.21-.26-.19-.54-.37-.85-.55,0,0-.02-.01-.03-.02l-35.63-20.57-9.55-5.51s-.04-.02-.07-.03l-.14-.08c-5.2-3-14.34-2.65-20.31.78l-42.28,24.24c-2.65,1.52-4.25,3.4-4.76,5.29-.43,1.13-.52,2.27-.23,3.34v21.64h0c0,.71.21,1.42.59,2.09.25.45.58.88.98,1.29.6.62,1.35,1.19,2.23,1.7l.17.1c-.09.06-.16.13-.24.19-.2.15-.4.3-.59.46-.09.08-.18.16-.27.24-.18.16-.35.32-.51.49-.08.08-.15.16-.22.25-.15.17-.3.33-.43.5-.07.08-.12.17-.18.25-.12.17-.25.34-.35.51-.05.09-.1.18-.14.27-.09.17-.19.34-.26.51-.04.09-.07.19-.1.28-.06.17-.13.34-.18.51-.03.09-.04.19-.06.28-.04.17-.08.34-.1.51-.01.09,0,.18-.01.27,0,.17-.02.34-.01.51,0,0,0,.01,0,.01h0v23.06h0c0,.48.07.95.22,1.41.43,1.38,1.51,2.65,3.27,3.67l.17.1c-.09.06-.16.13-.24.19-.2.15-.4.3-.59.46-.09.08-.17.16-.26.24-.18.16-.36.32-.52.49-.08.08-.15.16-.22.24-.15.17-.3.34-.44.51-.07.08-.12.17-.18.25-.12.17-.25.34-.35.52-.05.09-.09.17-.14.26-.09.17-.19.34-.26.52-.04.09-.07.18-.1.27-.06.17-.13.34-.18.51-.03.09-.04.18-.06.28-.04.17-.08.34-.1.51-.01.09,0,.18-.01.27-.01.17-.02.34-.01.51,0,0,0,0,0,.01h0v23.06h0c0,.95.29,1.88.87,2.74.14.21.31.43.49.63.54.62,1.25,1.19,2.13,1.7l45.17,26.08c4.2,2.43,11.02,2.63,16.63.77.43-.14.86-.3,1.27-.47.83-.33,1.63-.72,2.37-1.15l12.24-7.07v10.84c0,.31.05.63.14.94.14.47.37.94.67,1.35.3.41.66.75,1.05.97l6.08,3.55,2.86,1.67-1.79,1.04c-.54.31-.73.76-.6,1.2h-.04v4.45h0c.03.4.33.82.91,1.15l10.96,6.36c.28.16.6.29.94.37.09.02.18.02.27.04.25.05.5.1.76.1.01,0,.02,0,.03,0,.18,0,.34-.03.51-.04.14-.01.28,0,.41-.03.3-.06.58-.16.81-.29l11.67-6.79c.46-.26.66-.63.64-1h0v-4.45h-.01c.04-.24-.03-.48-.18-.72l2.49,1.45c.28.16.6.29.94.37.09.02.18.02.28.04.25.05.5.1.75.1.01,0,.02,0,.03,0,.18,0,.35-.03.52-.04.13-.01.27,0,.4-.03.3-.06.58-.16.81-.29l11.67-6.79c.46-.26.66-.63.64-1h0v-4.45h-.01s0-.05,0-.07l1.3.75c.28.16.6.29.94.37.09.02.18.02.27.04.25.05.5.1.76.1.01,0,.02,0,.03,0,.18,0,.34-.03.51-.04.14-.01.28,0,.41-.03.3-.06.58-.16.81-.29l11.67-6.79c.46-.26.66-.63.64-1h0v-4.45h-.01ZM132.68,209.55c-1.1-.63-2.78-.7-3.73-.15l-6.29,3.66-1.95-1.14-7.23-4.22c-.44-.26-.85-.71-1.14-1.22-.15-.26-.26-.53-.35-.8-.08-.27-.13-.55-.13-.81v-11.14l5.28-3.05,10.21-5.9v10.42c0,.92.46,1.95,1.13,2.67.11.12.23.23.35.33.12.1.25.19.38.26l8.64,5.04-2.25,1.31c-.54.31-.73.76-.6,1.2h-.04v4.45h0c.01.18.09.35.2.53l-2.51-1.46ZM151.02,198.2c-1.1-.63-2.78-.7-3.73-.15l-5.82,3.39-8.88-5.18c-.38-.22-.72-.6-1-1.03-.36-.56-.61-1.21-.61-1.8v-10.72l5.03-2.91,2.09,1.2,5.09-2.94.34.19,1.17.68c.21.12.42.29.61.49.19.2.37.44.52.7.12.2.21.41.29.62.06.17.11.35.15.51s.05.33.05.48v4.13c0,.61.2,1.28.54,1.86.34.59.8,1.1,1.32,1.4l6.06,3.54-1.28.75c-.54.31-.73.76-.6,1.2h-.04v4.31l-1.28-.74Z" style="fill:#fff; stroke:#606060; stroke-linecap:round; stroke-linejoin:round; stroke-width:2px;"/><path d="M143.23,103.27h0v-23.06h0c.09-1.98-1.06-3.89-3.49-5.29l-45.17-26.08c-2.32-1.34-5.43-2-8.69-2.01-4.11-.07-8.5.9-11.89,2.85l-42.26,24.4c-4.08,2.35-5.67,5.55-4.94,8.3v21.64h0c0,1.9,1.46,3.72,3.8,5.07l.17.1c-2.53,1.82-3.77,3.99-3.66,6.05h0v23.06h0c0,1.9,1.15,3.72,3.49,5.07l.17.1c-2.53,1.82-3.77,3.99-3.66,6.05h0v23.06h0c0,1.9,1.15,3.72,3.49,5.07l45.17,26.08c5.17,2.99,14.3,2.61,20.27-.84l42.26-24.4c3.29-1.9,4.96-4.34,4.94-6.66h0v-23.06h0c.09-1.98-1.06-3.89-3.49-5.29l-.17-.1c2.44-1.75,3.68-3.84,3.66-5.83h0v-23.06h0c.09-1.98-1.06-3.89-3.49-5.29l-.17-.1c2.44-1.75,3.68-3.84,3.66-5.83Z" style="fill:#fff; stroke:#606060; stroke-linecap:round; stroke-linejoin:round; stroke-width:.5px;"/><path d="M143.23,148.78h-9.29v1.24l-39.37-22.73c-5.17-2.99-14.3-2.61-20.27.84l-37.91,21.89v-.49h-9.29v23.06h0c0,1.9,1.15,3.72,3.49,5.07l45.17,26.08c5.17,2.99,14.3,2.61,20.27-.84l42.26-24.4c3.29-1.9,4.96-4.34,4.94-6.66h0v-23.06Z" style="fill:#fff; stroke:#606060; stroke-linecap:round; stroke-linejoin:round; stroke-width:.5px;"/><path d="M75.75,180.43l-45.17-26.08c-5.17-2.99-4.52-8.25,1.46-11.7l42.26-24.4c5.98-3.45,15.1-3.83,20.27-.84l45.17,26.08c5.17,2.99,4.52,8.25-1.46,11.7l-42.26,24.4c-5.98,3.45-15.1,3.83-20.27.84Z" style="fill:#fff; stroke:#606060; stroke-linecap:round; stroke-linejoin:round; stroke-width:.5px;"/><path d="M137.18,138.48h-8.32v1.11l-35.28-20.37c-4.64-2.68-12.81-2.34-18.17.75l-33.97,19.61v-.44h-8.33v8.63h0c0,1.71,1.03,3.34,3.12,4.55l40.48,23.37c4.64,2.68,12.81,2.34,18.17-.75l37.87-21.86c2.94-1.7,4.44-3.89,4.43-5.97h0v-8.63Z" style="fill:#e95420; stroke:#606060; stroke-miterlimit:10; stroke-width:.5px;"/><path d="M76.42,166.85l-40.48-23.37c-4.64-2.68-4.05-7.4,1.3-10.49l37.87-21.86c5.35-3.09,13.53-3.43,18.17-.75l40.48,23.37c4.64,2.68,4.05,7.4-1.3,10.49l-37.87,21.86c-5.35,3.09-13.53,3.43-18.17.75Z" style="fill:#fff; stroke:#606060; stroke-linecap:round; stroke-linejoin:round; stroke-width:.5px;"/><path d="M143.23,114.49h-9.29v1.24l-39.37-22.73c-5.17-2.99-14.3-2.61-20.27.84l-37.91,21.89v-.49h-9.29v23.06h0c0,1.9,1.15,3.72,3.49,5.07l45.17,26.08c5.17,2.99,14.3,2.61,20.27-.84l42.26-24.4c3.29-1.9,4.96-4.34,4.94-6.66h0v-23.06Z" style="fill:#fff; stroke:#606060; stroke-linecap:round; stroke-linejoin:round; stroke-width:.5px;"/><path d="M75.75,146.15l-45.17-26.08c-5.17-2.99-4.52-8.25,1.46-11.7l42.26-24.4c5.98-3.45,15.1-3.83,20.27-.84l45.17,26.08c5.17,2.99,4.52,8.25-1.46,11.7l-42.26,24.4c-5.98,3.45-15.1,3.83-20.27.84Z" style="fill:#fff; stroke:#606060; stroke-linecap:round; stroke-linejoin:round; stroke-width:.5px;"/><path d="M137.18,104.2h-8.32v1.11l-35.28-20.37c-4.64-2.68-12.81-2.34-18.17.75l-33.97,19.61v-.44h-8.33v8.63h0c0,1.71,1.03,3.34,3.12,4.55l40.48,23.37c4.64,2.68,12.81,2.34,18.17-.75l37.87-21.86c2.94-1.7,4.44-3.89,4.43-5.97h0v-8.63Z" style="fill:#e95420; stroke:#606060; stroke-miterlimit:10; stroke-width:.5px;"/><path d="M76.42,132.56l-40.48-23.37c-4.64-2.68-4.05-7.4,1.3-10.49l37.87-21.86c5.35-3.09,13.53-3.43,18.17-.75l40.48,23.37c4.64,2.68,4.05,7.4-1.3,10.49l-37.87,21.86c-5.35,3.09-13.53,3.43-18.17.75Z" style="fill:#fff; stroke:#606060; stroke-linecap:round; stroke-linejoin:round; stroke-width:.5px;"/><path d="M143.23,80.21h-9.29v1.24l-39.37-22.73c-5.17-2.99-14.3-2.61-20.27.84l-37.91,21.89v-.49h-9.6v23.06h0c0,1.9,1.46,3.72,3.8,5.07l45.17,26.08c5.17,2.99,14.3,2.61,20.27-.84l42.26-24.4c3.29-1.9,4.96-4.34,4.94-6.66h0v-23.06Z" style="fill:#fff; stroke:#606060; stroke-linecap:round; stroke-linejoin:round; stroke-width:.5px;"/><path d="M75.75,111.87l-45.17-26.08c-5.17-2.99-4.52-8.25,1.46-11.7l42.26-24.4c5.98-3.45,15.1-3.83,20.27-.84l45.17,26.08c5.17,2.99,4.52,8.25-1.46,11.7l-42.26,24.4c-5.98,3.45-15.1,3.83-20.27.84Z" style="fill:#fff; stroke:#606060; stroke-linecap:round; stroke-linejoin:round; stroke-width:.5px;"/><path d="M75.7,111.61l-45.35-26.18c-5.2-3-4.55-8.26,1.42-11.69l42.28-24.24c5.98-3.43,15.12-3.78,20.31-.78l45.35,26.18c5.2,3,4.55,8.26-1.42,11.69l-42.28,24.24c-5.98,3.43-15.12,3.78-20.31.78Z" style="fill:#fff; stroke:#606060; stroke-linecap:round; stroke-linejoin:round; stroke-width:.5px;"/><polygon points="37.96 107.34 33.85 104.96 33.85 94.63 37.96 97 37.96 107.34" style="fill:#e95420; stroke-width:0px;"/><polygon points="45.39 111.62 41.28 109.25 41.28 98.92 45.39 101.29 45.39 111.62" style="fill:#e95420; stroke-width:0px;"/><polygon points="52.82 115.91 48.71 113.54 48.71 103.21 52.82 105.58 52.82 115.91" style="fill:#e95420; stroke-width:0px;"/><polygon points="60.25 120.2 56.14 117.83 56.14 107.5 60.25 109.87 60.25 120.2" style="fill:#e95420; stroke-width:0px;"/><polygon points="67.68 124.49 63.57 122.12 63.57 111.78 67.68 114.16 67.68 124.49" style="fill:#e95420; stroke-width:0px;"/><polygon points="75.1 128.78 70.99 126.4 70.99 116.07 75.1 118.45 75.1 128.78" style="fill:#e95420; stroke-width:0px;"/><polygon points="58.98 143.48 35.91 130.16 35.91 127.6 58.98 140.92 58.98 143.48" style="fill:#e95420; stroke-width:0px;"/><polygon points="72.38 156.42 35.91 135.36 35.91 132.8 72.38 153.86 72.38 156.42" style="fill:#e95420; stroke-width:0px;"/><polygon points="70.45 157.22 70.45 160.2 67.04 158.23 67.04 155.25 65.52 154.38 65.52 157.36 62.11 155.39 62.11 152.41 60.6 151.54 60.6 154.52 57.19 152.55 57.19 149.57 55.67 148.69 55.67 151.67 52.26 149.7 52.26 146.72 50.75 145.85 50.75 148.83 47.34 146.86 47.34 143.88 45.82 143.01 45.82 145.99 42.41 144.02 42.41 141.04 40.9 140.16 40.9 143.14 37.49 141.17 37.49 138.19 35.97 137.32 35.97 140.3 35.97 142.05 37.49 142.92 40.9 144.89 42.41 145.76 45.82 147.73 47.34 148.61 50.75 150.58 52.26 151.45 55.67 153.42 57.19 154.29 60.6 156.26 62.11 157.14 65.52 159.11 67.04 159.98 70.45 161.95 71.96 162.82 71.96 161.08 71.96 158.1 70.45 157.22" style="fill:#e95420; stroke-width:0px;"/><polygon points="66.01 194.64 35.46 177.01 35.46 160.76 66.01 178.39 66.01 194.64" style="fill:#e95420; stroke-width:0px;"/><polyline points="37.18 175.74 40.11 172.18 40.86 175.74 44.74 175.68 47.24 171.47 47.8 177.5 51.01 172.38 53.42 183.11 56.17 179.24 58.98 187.79 64.16 179.99" style="fill:none; stroke:#fff; stroke-linecap:round; stroke-linejoin:round; stroke-width:.5px;"/><polygon points="130.09 172.8 130.09 182.95 135.58 179.88 135.56 174.92 130.09 172.8" style="fill:#666; opacity:.15; stroke-width:0px;"/><path d="M151.52,186.93c-.89-.52-1.61-1.78-1.61-2.82v-4.13c0-1.21-.82-2.64-1.88-3.25l-1.25-.72.78-.45v-5.3l-9.47-5.47-9.47,5.47v5.3l9.47,5.47,5.09-2.94,1.5.87c.42.24.83.67,1.13,1.19.12.2.21.41.29.62.13.35.2.69.2,1v4.13c0,1.23.82,2.66,1.86,3.26l9.63,5.62,3.6-2.08-9.89-5.77Z" style="fill:#fff; stroke:#606060; stroke-linecap:round; stroke-linejoin:round; stroke-width:.5px;"/><polygon points="138.1 175.72 128.63 170.25 138.1 164.79 147.56 170.25 138.1 175.72" style="fill:#fff; stroke:#606060; stroke-linecap:round; stroke-linejoin:round; stroke-width:.5px;"/><polygon points="138.1 181.02 128.63 175.55 128.63 170.25 138.1 175.72 138.1 181.02" style="fill:#fff; stroke:#606060; stroke-linecap:round; stroke-linejoin:round; stroke-width:.5px;"/><polygon points="138.1 181.02 147.56 175.55 147.56 170.25 138.1 175.72 138.1 181.02" style="fill:#fff; stroke:#606060; stroke-linecap:round; stroke-linejoin:round; stroke-width:.5px;"/><polygon points="130.26 175.62 129.42 175.14 129.42 171.77 130.26 172.26 130.26 175.62" style="fill:#fff; stroke:#606060; stroke-linecap:round; stroke-linejoin:round; stroke-width:.5px;"/><polygon points="131.94 176.58 131.11 176.1 131.11 172.74 131.94 173.22 131.94 176.58" style="fill:#666; opacity:.2; stroke-width:0px;"/><polygon points="133.62 177.55 132.79 177.07 132.79 173.7 133.62 174.19 133.62 177.55" style="fill:#666; opacity:.2; stroke-width:0px;"/><polygon points="135.3 178.51 134.47 178.03 134.47 174.67 135.3 175.15 135.3 178.51" style="fill:#666; opacity:.2; stroke-width:0px;"/><polygon points="136.99 179.48 136.15 179 136.15 175.63 136.99 176.12 136.99 179.48" style="fill:#666; opacity:.2; stroke-width:0px;"/><path d="M148.17,189.16c-1.05-.6-1.86-2.04-1.86-3.26v-4.13c0-.31-.07-.65-.2-1-.08-.21-.18-.42-.29-.62-.31-.53-.71-.95-1.13-1.19l-3.89-2.25,3.6-2.08,3.63,2.1c1.05.61,1.88,2.03,1.88,3.25v4.13c0,1.04.72,2.3,1.61,2.82l9.89,5.77-3.6,2.08-9.63-5.62Z" style="fill:#fff; stroke:#606060; stroke-linecap:round; stroke-linejoin:round; stroke-width:.5px;"/><path d="M90.59,129.52v6.94s1.48-.17,3.4-1.12c2.04-1.01,3.4-1.8,3.4-1.8l-6.8-4.02Z" style="fill:#666; opacity:.15; stroke-width:0px;"/><polygon points="109.33 152.15 109.33 160.99 117.05 156.39 109.33 152.15" style="fill:#666; opacity:.15; stroke-width:0px;"/><polygon points="119.16 152.25 109.7 146.79 119.16 141.32 128.63 146.79 119.16 152.25" style="fill:#fff; stroke:#606060; stroke-linecap:round; stroke-linejoin:round; stroke-width:.5px;"/><polygon points="119.16 157.55 109.7 152.09 109.7 146.79 119.16 152.25 119.16 157.55" style="fill:#fff; stroke:#606060; stroke-linecap:round; stroke-linejoin:round; stroke-width:.5px;"/><polygon points="119.16 157.55 128.63 152.09 128.63 146.79 119.16 152.25 119.16 157.55" style="fill:#fff; stroke:#606060; stroke-linecap:round; stroke-linejoin:round; stroke-width:.5px;"/><polygon points="111.33 152.15 110.49 151.67 110.49 148.31 111.33 148.79 111.33 152.15" style="fill:#fff; stroke:#606060; stroke-linecap:round; stroke-linejoin:round; stroke-width:.5px;"/><polygon points="113.01 153.12 112.17 152.64 112.17 149.27 113.01 149.76 113.01 153.12" style="fill:#fff; stroke:#606060; stroke-linecap:round; stroke-linejoin:round; stroke-width:.5px;"/><polygon points="114.69 154.08 113.85 153.6 113.85 150.24 114.69 150.72 114.69 154.08" style="fill:#fff; stroke:#606060; stroke-linecap:round; stroke-linejoin:round; stroke-width:.5px;"/><polygon points="116.37 155.05 115.53 154.57 115.53 151.2 116.37 151.69 116.37 155.05" style="fill:#fff; stroke:#606060; stroke-linecap:round; stroke-linejoin:round; stroke-width:.5px;"/><polygon points="118.05 156.02 117.22 155.53 117.22 152.17 118.05 152.65 118.05 156.02" style="fill:#fff; stroke:#606060; stroke-linecap:round; stroke-linejoin:round; stroke-width:.5px;"/><path d="M129.24,198.48c-1.05-.6-1.86-2.04-1.86-3.26v-36.93c0-.31-.07-.65-.2-1-.08-.21-.18-.42-.29-.62-.31-.53-.71-.95-1.13-1.19l-3.89-2.25,3.6-2.08,3.63,2.1c1.05.61,1.88,2.03,1.88,3.25v36.93c0,1.04.72,2.3,1.61,2.82l9.89,5.77-3.6,2.08-9.63-5.62Z" style="fill:#fff; stroke:#606060; stroke-linecap:round; stroke-linejoin:round; stroke-width:.5px;"/><path d="M132.59,196.26c-.89-.52-1.61-1.78-1.61-2.82v-36.93c0-1.21-.82-2.64-1.88-3.25l-1.25-.72.78-.45v-5.3l-9.47-5.47-9.47,5.47v5.3l9.47,5.47,5.09-2.94,1.5.87c.42.24.83.67,1.13,1.19.12.2.21.41.29.62.13.35.2.69.2,1v36.93c0,1.23.82,2.66,1.86,3.26l9.63,5.62,3.6-2.08-9.89-5.77Z" style="fill:#fff; stroke:#606060; stroke-linecap:round; stroke-linejoin:round; stroke-width:.5px;"/><polygon points="119.16 152.25 109.7 146.79 119.16 141.32 128.63 146.79 119.16 152.25" style="fill:#fff; stroke:#606060; stroke-linecap:round; stroke-linejoin:round; stroke-width:.5px;"/><polygon points="119.16 157.55 109.7 152.09 109.7 146.79 119.16 152.25 119.16 157.55" style="fill:#fff; stroke:#606060; stroke-linecap:round; stroke-linejoin:round; stroke-width:.5px;"/><polygon points="119.16 157.55 128.63 152.09 128.63 146.79 119.16 152.25 119.16 157.55" style="fill:#fff; stroke:#606060; stroke-linecap:round; stroke-linejoin:round; stroke-width:.5px;"/><polygon points="111.33 152.15 110.49 151.67 110.49 148.31 111.33 148.79 111.33 152.15" style="fill:#fff; stroke:#606060; stroke-linecap:round; stroke-linejoin:round; stroke-width:.5px;"/><polygon points="113.01 153.12 112.17 152.64 112.17 149.27 113.01 149.76 113.01 153.12" style="fill:#666; opacity:.2; stroke-width:0px;"/><polygon points="114.69 154.08 113.85 153.6 113.85 150.24 114.69 150.72 114.69 154.08" style="fill:#666; opacity:.2; stroke-width:0px;"/><polygon points="116.37 155.05 115.53 154.57 115.53 151.2 116.37 151.69 116.37 155.05" style="fill:#666; opacity:.2; stroke-width:0px;"/><polygon points="118.05 156.02 117.22 155.53 117.22 152.17 118.05 152.65 118.05 156.02" style="fill:#666; opacity:.2; stroke-width:0px;"/><path d="M129.24,198.48c-1.05-.6-1.86-2.04-1.86-3.26v-36.93c0-.31-.07-.65-.2-1-.08-.21-.18-.42-.29-.62-.31-.53-.71-.95-1.13-1.19l-3.89-2.25,3.6-2.08,3.63,2.1c1.05.61,1.88,2.03,1.88,3.25v36.93c0,1.04.72,2.3,1.61,2.82l9.89,5.77-3.6,2.08-9.63-5.62Z" style="fill:#fff; stroke:#606060; stroke-linecap:round; stroke-linejoin:round; stroke-width:.5px;"/><path d="M113.48,207.7c-.89-.52-1.61-1.78-1.61-2.82v-70.91c0-1.21-.82-2.64-1.88-3.25l-1.25-.72.78-.45v-5.3l-9.47-5.47-9.47,5.47v5.3l9.47,5.47,5.09-2.94,1.5.87c.42.24.83.67,1.13,1.19.12.2.21.41.29.62.13.35.2.69.2,1v70.91c0,1.23.82,2.66,1.86,3.26l9.63,5.62,3.6-2.08-9.89-5.77Z" style="fill:#fff; stroke:#606060; stroke-linecap:round; stroke-linejoin:round; stroke-width:.5px;"/><polygon points="100.06 129.71 90.59 124.25 100.06 118.78 109.53 124.25 100.06 129.71" style="fill:#fff; stroke:#606060; stroke-linecap:round; stroke-linejoin:round; stroke-width:.5px;"/><polygon points="100.06 135.01 90.59 129.55 90.59 124.25 100.06 129.71 100.06 135.01" style="fill:#fff; stroke:#606060; stroke-linecap:round; stroke-linejoin:round; stroke-width:.5px;"/><polygon points="100.06 135.01 109.53 129.55 109.53 124.25 100.06 129.71 100.06 135.01" style="fill:#fff; stroke:#606060; stroke-linecap:round; stroke-linejoin:round; stroke-width:.5px;"/><polygon points="92.22 129.61 91.39 129.13 91.39 125.77 92.22 126.25 92.22 129.61" style="fill:#666; opacity:.2; stroke-width:0px;"/><polygon points="93.9 130.58 93.07 130.1 93.07 126.73 93.9 127.22 93.9 130.58" style="fill:#666; opacity:.2; stroke-width:0px;"/><polygon points="95.59 131.55 94.75 131.06 94.75 127.7 95.59 128.18 95.59 131.55" style="fill:#666; opacity:.2; stroke-width:0px;"/><polygon points="97.27 132.51 96.43 132.03 96.43 128.67 97.27 129.15 97.27 132.51" style="fill:#666; opacity:.2; stroke-width:0px;"/><polygon points="98.95 133.48 98.11 132.99 98.11 129.63 98.95 130.11 98.95 133.48" style="fill:#666; opacity:.2; stroke-width:0px;"/><path d="M110.13,209.93c-1.05-.6-1.86-2.04-1.86-3.26v-70.91c0-.31-.07-.65-.2-1-.08-.21-.18-.42-.29-.62-.31-.53-.71-.95-1.13-1.19l-3.89-2.25,3.6-2.08,3.63,2.1c1.05.61,1.88,2.03,1.88,3.25v70.91c0,1.04.72,2.3,1.61,2.82l9.89,5.77-3.6,2.08-9.63-5.62Z" style="fill:#fff; stroke:#606060; stroke-linecap:round; stroke-linejoin:round; stroke-width:.5px;"/><path d="M180.2,194.52c-.05.3-.25.58-.63.8l-11.67,6.79c-.95.55-2.63.48-3.73-.15l-10.95-6.36c-.48-.28-.77-.61-.87-.95h-.04v4.45h0c.03.4.33.82.91,1.15l10.95,6.36c1.1.63,2.78.7,3.73.15l11.67-6.79c.46-.26.66-.63.64-1h0v-4.45h-.01Z" style="fill:#fff; stroke:#606060; stroke-linecap:round; stroke-linejoin:round; stroke-width:.5px;"/><path d="M179.3,193.17l-10.95-6.36c-1.1-.63-2.78-.7-3.73-.15l-11.67,6.79c-.54.31-.73.76-.6,1.2.1.34.39.68.87.95l10.95,6.36c1.1.63,2.78.7,3.73.15l11.67-6.79c.38-.22.58-.5.63-.8.07-.46-.23-.97-.9-1.35Z" style="fill:#fff; stroke:#606060; stroke-linecap:round; stroke-linejoin:round; stroke-width:.5px;"/><path d="M180.2,194.52c-.05.3-.25.58-.63.8l-11.67,6.79c-.95.55-2.63.48-3.73-.15l-10.95-6.36c-.48-.28-.77-.61-.87-.95h-.04v4.45h0c.03.4.33.82.91,1.15l10.95,6.36c1.1.63,2.78.7,3.73.15l11.67-6.79c.46-.26.66-.63.64-1h0v-4.45h-.01Z" style="fill:#fff; stroke:#606060; stroke-linecap:round; stroke-linejoin:round; stroke-width:.5px;"/><path d="M179.3,193.17l-10.95-6.36c-1.1-.63-2.78-.7-3.73-.15l-11.67,6.79c-.54.31-.73.76-.6,1.2.1.34.39.68.87.95l10.95,6.36c1.1.63,2.78.7,3.73.15l11.67-6.79c.38-.22.58-.5.63-.8.07-.46-.23-.97-.9-1.35Z" style="fill:#fff; stroke:#606060; stroke-linecap:round; stroke-linejoin:round; stroke-width:.5px;"/><path d="M164.17,201.95l-10.95-6.36c-.48-.28-.77-.61-.87-.95h-.04v4.45h0c.03.4.33.82.91,1.15l10.95,6.36c.57.33,1.3.51,2,.52v-4.65c-.7-.02-1.43-.19-2-.52Z" style="fill:#fff; stroke:#606060; stroke-linecap:round; stroke-linejoin:round; stroke-width:.5px;"/><path d="M167.9,206.75l11.67-6.79c.46-.26.66-.63.64-1h0v-4.45h-.01c-.05.3-.25.58-.63.8l-11.67,6.79c-.46.26-1.08.38-1.73.37v4.65c.65.02,1.27-.1,1.73-.37Z" style="fill:#fff; stroke:#606060; stroke-linecap:round; stroke-linejoin:round; stroke-width:.5px;"/><polygon points="166.3 188.42 166.3 197.01 160.9 197.01 160.9 198.29 166.3 198.29 168.51 198.29 168.51 197.01 168.51 188.42 166.3 188.42" style="fill:#e95420; stroke-width:0px;"/><path d="M162.87,205.92c-.05.3-.25.58-.63.8l-11.67,6.79c-.95.55-2.63.48-3.73-.15l-10.95-6.36c-.48-.28-.77-.61-.87-.95h-.04v4.45h0c.03.4.33.82.91,1.15l10.95,6.36c1.1.63,2.78.7,3.73.15l11.67-6.79c.46-.26.66-.63.64-1h0v-4.45h-.01Z" style="fill:#fff; stroke:#606060; stroke-linecap:round; stroke-linejoin:round; stroke-width:.5px;"/><path d="M161.98,204.56l-10.95-6.36c-1.1-.63-2.78-.7-3.73-.15l-11.67,6.79c-.54.31-.73.76-.6,1.2.1.34.39.68.87.95l10.95,6.36c1.1.63,2.78.7,3.73.15l11.67-6.79c.38-.22.58-.5.63-.8.07-.46-.23-.97-.9-1.35Z" style="fill:#fff; stroke:#606060; stroke-linecap:round; stroke-linejoin:round; stroke-width:.5px;"/><path d="M162.87,205.92c-.05.3-.25.58-.63.8l-11.67,6.79c-.95.55-2.63.48-3.73-.15l-10.95-6.36c-.48-.28-.77-.61-.87-.95h-.04v4.45h0c.03.4.33.82.91,1.15l10.95,6.36c1.1.63,2.78.7,3.73.15l11.67-6.79c.46-.26.66-.63.64-1h0v-4.45h-.01Z" style="fill:#fff; stroke:#606060; stroke-linecap:round; stroke-linejoin:round; stroke-width:.5px;"/><path d="M161.98,204.56l-10.95-6.36c-1.1-.63-2.78-.7-3.73-.15l-11.67,6.79c-.54.31-.73.76-.6,1.2.1.34.39.68.87.95l10.95,6.36c1.1.63,2.78.7,3.73.15l11.67-6.79c.38-.22.58-.5.63-.8.07-.46-.23-.97-.9-1.35Z" style="fill:#fff; stroke:#606060; stroke-linecap:round; stroke-linejoin:round; stroke-width:.5px;"/><path d="M146.85,213.35l-10.95-6.36c-.48-.28-.77-.61-.87-.95h-.04v4.45h0c.03.4.33.82.91,1.15l10.95,6.36c.57.33,1.3.51,2,.52v-4.65c-.7-.02-1.43-.19-2-.52Z" style="fill:#fff; stroke:#606060; stroke-linecap:round; stroke-linejoin:round; stroke-width:.5px;"/><path d="M150.58,218.15l11.67-6.79c.46-.26.66-.63.64-1h0v-4.45h-.01c-.05.3-.25.58-.63.8l-11.67,6.79c-.46.26-1.08.38-1.73.37v4.65c.65.02,1.27-.1,1.73-.37Z" style="fill:#fff; stroke:#606060; stroke-linecap:round; stroke-linejoin:round; stroke-width:.5px;"/><polygon points="148.99 200.14 148.99 208.74 143.59 208.74 143.59 210.02 148.99 210.02 151.2 210.02 151.2 208.74 151.2 200.14 148.99 200.14" style="fill:#e95420; stroke-width:0px;"/><path d="M144.53,217.27c-.05.3-.25.58-.63.8l-11.67,6.79c-.95.55-2.63.48-3.73-.15l-10.95-6.36c-.48-.28-.77-.61-.87-.95h-.04v4.45h0c.03.4.33.82.91,1.15l10.95,6.36c1.1.63,2.78.7,3.73.15l11.67-6.79c.46-.26.66-.63.64-1h0v-4.45h-.01Z" style="fill:#fff; stroke:#606060; stroke-linecap:round; stroke-linejoin:round; stroke-width:.5px;"/><path d="M143.64,215.91l-10.95-6.36c-1.1-.63-2.78-.7-3.73-.15l-11.67,6.79c-.54.31-.73.76-.6,1.2.1.34.39.68.87.95l10.95,6.36c1.1.63,2.78.7,3.73.15l11.67-6.79c.38-.22.58-.5.63-.8.07-.46-.23-.97-.9-1.35Z" style="fill:#fff; stroke:#606060; stroke-linecap:round; stroke-linejoin:round; stroke-width:.5px;"/><path d="M144.53,217.27c-.05.3-.25.58-.63.8l-11.67,6.79c-.95.55-2.63.48-3.73-.15l-10.95-6.36c-.48-.28-.77-.61-.87-.95h-.04v4.45h0c.03.4.33.82.91,1.15l10.95,6.36c1.1.63,2.78.7,3.73.15l11.67-6.79c.46-.26.66-.63.64-1h0v-4.45h-.01Z" style="fill:#fff; stroke:#606060; stroke-linecap:round; stroke-linejoin:round; stroke-width:.5px;"/><path d="M143.64,215.91l-10.95-6.36c-1.1-.63-2.78-.7-3.73-.15l-11.67,6.79c-.54.31-.73.76-.6,1.2.1.34.39.68.87.95l10.95,6.36c1.1.63,2.78.7,3.73.15l11.67-6.79c.38-.22.58-.5.63-.8.07-.46-.23-.97-.9-1.35Z" style="fill:#fff; stroke:#606060; stroke-linecap:round; stroke-linejoin:round; stroke-width:.5px;"/><path d="M128.51,224.7l-10.95-6.36c-.48-.28-.77-.61-.87-.95h-.04v4.45h0c.03.4.33.82.91,1.15l10.95,6.36c.57.33,1.3.51,2,.52v-4.65c-.7-.02-1.43-.19-2-.52Z" style="fill:#fff; stroke:#606060; stroke-linecap:round; stroke-linejoin:round; stroke-width:.5px;"/><path d="M132.24,229.5l11.67-6.79c.46-.26.66-.63.64-1h0v-4.45h-.01c-.05.3-.25.58-.63.8l-11.67,6.79c-.46.26-1.08.38-1.73.37v4.65c.65.02,1.27-.1,1.73-.37Z" style="fill:#fff; stroke:#606060; stroke-linecap:round; stroke-linejoin:round; stroke-width:.5px;"/><polygon points="130.76 211.51 130.76 220.1 125.37 220.1 125.37 221.38 130.76 221.38 132.98 221.38 132.98 220.1 132.98 211.51 130.76 211.51" style="fill:#e95420; stroke-width:0px;"/><polygon points="101.97 103.52 41.91 70.07 68.07 54.76 128.13 88.21 101.97 103.52" style="fill:#666; opacity:.2; stroke-width:0px;"/><path d="M97.56,71.58c.04.07.08.15.13.22h0s-.13-.22-.13-.22h0,0Z" style="fill:#fff; stroke:#606060; stroke-linecap:round; stroke-linejoin:round; stroke-width:.5px;"/><polygon points="99.58 70.38 99.58 70.38 97.56 71.58 99.58 70.38" style="fill:#fff; stroke:#606060; stroke-linecap:round; stroke-linejoin:round; stroke-width:.5px;"/><path d="M79.31,52.31h0,0l12.04-7.17c-7.13-4.12-13.58-4.51-18.26-1.81l-12.04,7.17h0c4.67-2.7,11.13-2.31,18.26,1.81Z" style="fill:#fff; stroke:#606060; stroke-linecap:round; stroke-linejoin:round; stroke-width:.5px;"/><path d="M71.15,68c-2.09,1.2-3.38,3.79-3.38,7.47l11.35-6.76c-3.11-1.74-5.92-1.89-7.97-.7Z" style="fill:#fff; stroke:#606060; stroke-linecap:round; stroke-linejoin:round; stroke-width:.5px;"/><path d="M117.22,90.04c0-8.23-2.95-17.54-7.62-25.63h0s-10.02,5.97-10.02,5.97h0l-2.02,1.2.13.22h0c4.6,8.04,7.44,17.07,7.44,25.23h0l12.1-6.99Z" style="fill:#fff; stroke:#606060; stroke-linecap:round; stroke-linejoin:round; stroke-width:.5px;"/><path d="M97.69,71.8c-.04-.07-.08-.15-.13-.22l-10.1,5.83c2.09,3.61,3.38,7.69,3.38,11.37l14.29,8.25c0-8.16-2.84-17.19-7.44-25.22Z" style="fill:#fff; stroke:#606060; stroke-linecap:round; stroke-linejoin:round; stroke-width:.5px;"/><path d="M109.6,64.41h0c-4.67-8.09-11.13-15.16-18.26-19.27l-12.04,7.17h0c3.69,2.13,7.2,5.05,10.38,8.5,2.96,3.21,5.63,6.87,7.88,10.77h0s2.02-1.2,2.02-1.2l10.02-5.97h0s0,0,0,0Z" style="fill:#fff; stroke:#606060; stroke-linecap:round; stroke-linejoin:round; stroke-width:.5px;"/><path d="M97.56,71.58c-2.25-3.9-4.92-7.56-7.88-10.77-3.18-3.44-6.68-6.37-10.38-8.5h0v1.78s0,13.34,0,13.34v1.38c3.18,1.84,6.07,4.99,8.15,8.61l10.1-5.83s0,0,0,0Z" style="fill:#fff; stroke:#606060; stroke-linecap:round; stroke-linejoin:round; stroke-width:.5px;"/><path d="M68.57,63.53l-7.52-13.03c-4.67,2.7-7.56,8.48-7.56,16.71l14.29,8.25c0-3.68,1.29-6.26,3.38-7.47l-2.58-4.47Z" style="fill:#fff; stroke:#606060; stroke-linecap:round; stroke-linejoin:round; stroke-width:.5px;"/><path d="M79.12,68.7c.06.03.12.07.18.1v-.21l-.18.11Z" style="fill:#fff; stroke:#606060; stroke-linecap:round; stroke-linejoin:round; stroke-width:.5px;"/><path d="M61.05,50.5h0l7.52,13.03,2.58,4.47c2.05-1.18,4.86-1.04,7.97.7l.18-.11v-16.28c-7.13-4.12-13.58-4.51-18.26-1.81Z" style="fill:#fff; stroke:#606060; stroke-linecap:round; stroke-linejoin:round; stroke-width:.5px;"/><path d="M97.56,71.58c.04.07.08.15.13.22h0s-.13-.22-.13-.22h0,0Z" style="fill:#fff; stroke:#606060; stroke-linecap:round; stroke-linejoin:round; stroke-width:.5px;"/><polygon points="99.58 70.38 99.58 70.38 97.56 71.58 99.58 70.38" style="fill:#fff; stroke:#606060; stroke-linecap:round; stroke-linejoin:round; stroke-width:.5px;"/><path d="M79.31,52.31h0,0l12.04-7.17c-7.13-4.12-13.58-4.51-18.26-1.81l-12.04,7.17h0c4.67-2.7,11.13-2.31,18.26,1.81Z" style="fill:#fff; stroke:#606060; stroke-linecap:round; stroke-linejoin:round; stroke-width:.5px;"/><path d="M71.15,68c-2.09,1.2-3.38,3.79-3.38,7.47l11.35-6.76c-3.11-1.74-5.92-1.89-7.97-.7Z" style="fill:#fff; stroke:#606060; stroke-linecap:round; stroke-linejoin:round; stroke-width:.5px;"/><path d="M117.22,90.04c0-8.23-2.95-17.54-7.62-25.63h0s-10.02,5.97-10.02,5.97h0l-2.02,1.2.13.22h0c4.6,8.04,7.44,17.07,7.44,25.23h0l12.1-6.99Z" style="fill:#fff; stroke:#606060; stroke-linecap:round; stroke-linejoin:round; stroke-width:.5px;"/><path d="M97.69,71.8c-.04-.07-.08-.15-.13-.22l-10.1,5.83c2.09,3.61,3.38,7.69,3.38,11.37l14.29,8.25c0-8.16-2.84-17.19-7.44-25.22Z" style="fill:#fff; stroke:#606060; stroke-linecap:round; stroke-linejoin:round; stroke-width:.5px;"/><path d="M109.6,64.41h0c-4.67-8.09-11.13-15.16-18.26-19.27l-12.04,7.17h0c3.69,2.13,7.2,5.05,10.38,8.5,2.96,3.21,5.63,6.87,7.88,10.77h0s2.02-1.2,2.02-1.2l10.02-5.97h0s0,0,0,0Z" style="fill:#e95420; stroke:#606060; stroke-miterlimit:10; stroke-width:.5px;"/><path d="M91.35,45.14c7.13,4.12,13.58,11.18,18.26,19.27" style="fill:none; stroke:#606060; stroke-linecap:round; stroke-linejoin:round; stroke-width:.5px;"/><path d="M97.56,71.58c-2.25-3.9-4.92-7.56-7.88-10.77-3.18-3.44-6.68-6.37-10.38-8.5h0v1.78s0,13.34,0,13.34v1.38c3.18,1.84,6.07,4.99,8.15,8.61l10.1-5.83s0,0,0,0Z" style="fill:#e95420; stroke:#606060; stroke-miterlimit:10; stroke-width:.5px;"/><path d="M97.56,71.58c-2.25-3.9-4.92-7.56-7.88-10.77" style="fill:none; stroke:#606060; stroke-linecap:round; stroke-linejoin:round; stroke-width:.5px;"/><path d="M89.68,60.81c-3.18-3.44-6.68-6.37-10.38-8.5" style="fill:none; stroke:#606060; stroke-linecap:round; stroke-linejoin:round; stroke-width:.5px;"/><path d="M68.57,63.53l-7.52-13.03c-4.67,2.7-7.56,8.48-7.56,16.71l14.29,8.25c0-3.68,1.29-6.26,3.38-7.47l-2.58-4.47Z" style="fill:#fff; stroke:#606060; stroke-linecap:round; stroke-linejoin:round; stroke-width:.5px;"/><path d="M79.12,68.7c.06.03.12.07.18.1v-.21l-.18.11Z" style="fill:#fff; stroke:#606060; stroke-linecap:round; stroke-linejoin:round; stroke-width:.5px;"/><path d="M61.05,50.5h0l7.52,13.03,2.58,4.47c2.05-1.18,4.86-1.04,7.97.7l.18-.11v-16.28c-7.13-4.12-13.58-4.51-18.26-1.81Z" style="fill:#fff; stroke:#606060; stroke-linecap:round; stroke-linejoin:round; stroke-width:.5px;"/><path d="M88,63.88c-.23-.24-.49-.28-.59-.07l-3.96,8.3-3.49,7.31c-.11-.08-.23-.16-.35-.22-1.77-1.02-3.2-.19-3.2,1.85l6.41,3.7c0-1.54-.82-3.33-1.98-4.56l3.43-7.18,3.96-8.31c.1-.21,0-.57-.23-.82Z" style="fill:#fff; stroke:#606060; stroke-linecap:round; stroke-linejoin:round; stroke-width:.5px;"/><polygon points="204.87 92.92 178.49 138.4 165.73 131.04 160.45 140.39 181.12 152.33 212.78 97.49 204.87 92.92" style="fill:#fff; stroke:#606060; stroke-linecap:round; stroke-linejoin:round; stroke-width:.5px;"/><polygon points="165.73 131.04 160.45 140.39 152.13 135.6 157.41 126.24 165.73 131.04" style="fill:#fff; stroke:#606060; stroke-linecap:round; stroke-linejoin:round; stroke-width:.5px;"/><polygon points="204.87 92.92 178.49 138.4 170.17 133.6 196.54 88.12 204.87 92.92" style="fill:#fff; stroke:#606060; stroke-linecap:round; stroke-linejoin:round; stroke-width:.5px;"/><polygon points="204.87 92.92 178.49 138.4 165.73 131.04 160.45 140.39 181.12 152.33 212.78 97.49 204.87 92.92" style="fill:#e95420; stroke:#606060; stroke-miterlimit:10; stroke-width:.5px;"/><polygon points="165.73 131.04 160.45 140.39 152.13 135.6 157.41 126.24 165.73 131.04" style="fill:#fff; stroke:#606060; stroke-linecap:round; stroke-linejoin:round; stroke-width:.5px;"/><polygon points="204.87 92.92 178.49 138.4 170.17 133.6 196.54 88.12 204.87 92.92" style="fill:#fff; stroke:#606060; stroke-linecap:round; stroke-linejoin:round; stroke-width:.5px;"/><ellipse cx="231.4" cy="173.3" rx="28.28" ry="16.33" style="fill:#666; opacity:.2; stroke-width:0px;"/><path d="M248.56,164.09c1.22-.61,2.51-1.26,2.56-1.28v-4.42s-6.11-4.14-6.11-4.14c-.08.04-4.68,2.28-4.74,2.33l-4.96-1.47v-3.73s-9.36-.43-9.36-.43c0,.06-.51,3.54-.5,3.6h0s0,0,0,0l-5.76,1.08c-.05-.05-4-2.69-4.07-2.74l-7.14,3.53v4.42s.76.53,1.61,1.11l-.31.35c-.1-.02-6.1-.27-6.21-.28l-.72,5.43v4.41c.08,0,4.77.24,5.94.29-1.22.61-2.51,1.26-2.56,1.28v4.42s6.11,4.14,6.11,4.14c.08-.04,4.68-2.28,4.74-2.33l4.96,1.47v3.73s9.36.43,9.36.43c0-.06.5-3.43.5-3.59h0s5.76-1.09,5.76-1.09c.05.05,4,2.69,4.07,2.74l7.14-3.53v-4.42s-.76-.53-1.61-1.11l.31-.35c.1.02,6.1.27,6.21.28l.72-5.43v-4.42c-.08,0-4.77-.24-5.94-.29ZM231.91,177.29s0,.02,0,.02c0-.02,0-.03,0-.03h0ZM228.04,170.75c-2.06-.1-3.9-.62-5.26-1.4-.65-.37-1.19-.81-1.6-1.29,2.43-2.8,9.3-3.51,13.38-1.16.63.36,1.16.78,1.56,1.25-1.49,1.68-4.63,2.76-8.09,2.6ZM237.04,165.72s0,.08,0,.12c0-.04,0-.08,0-.12ZM235.98,163.55s-.06-.06-.09-.1c.03.03.06.06.09.1ZM237.03,165.57s0-.07-.01-.11c0,.04,0,.07.01.11ZM236.98,165.3s-.01-.06-.02-.1c0,.03.01.06.02.1ZM236.89,164.99s0-.02-.01-.04c0,.01,0,.02.01.04ZM236.78,164.71s-.03-.06-.04-.08c.01.03.03.06.04.08ZM236.66,164.47s-.04-.06-.06-.1c.02.03.04.06.06.1ZM236.52,164.23s-.04-.07-.07-.1c.02.03.05.07.07.1ZM236.36,164s-.05-.07-.08-.1c.03.03.05.07.08.1ZM236.18,163.77s-.06-.07-.09-.1c.03.03.06.06.09.1ZM235.76,163.34s-.07-.06-.1-.09c.03.03.07.06.1.09ZM235.52,163.13s-.07-.06-.11-.09c.04.03.07.06.11.09ZM235.26,162.93s-.07-.05-.11-.08c.04.03.07.05.11.08ZM234.97,162.73s-.06-.04-.1-.07c.03.02.06.04.1.07ZM228.48,161.06s-.02,0-.03,0c.01,0,.02,0,.03,0ZM227.96,161.09c-2.84.16-5.48,1.16-6.79,2.68,1.27-1.5,3.83-2.53,6.79-2.68ZM220.33,165.53s0,0,0,0c-.01.11-.02.22-.02.34,0-.11,0-.22.02-.33ZM221.15,163.79c-.12.14-.22.28-.31.42.09-.14.2-.29.31-.42ZM220.66,164.51s-.04.08-.06.12c.02-.04.04-.08.06-.12ZM220.47,164.97s-.02.06-.03.1c0-.03.02-.06.03-.1ZM231.89,177.46c-.09.71-.47,3.37-.48,3.42,0-.05.39-2.71.48-3.42ZM231.91,177.34s0,.06-.01.1c0-.04,0-.07.01-.1Z" style="fill:#fff; stroke:#606060; stroke-linecap:round; stroke-linejoin:round; stroke-width:2px;"/><polygon points="225.45 154.54 225.43 158.96 225.43 158.95 225.45 154.54 225.45 154.54 225.45 154.54" style="fill:#fff; stroke:#606060; stroke-linecap:round; stroke-linejoin:round; stroke-width:.5px;"/><path d="M235.32,151.38v4.42c-.02.06-.44,3.54-.47,3.6v-4.42c.04-.06.46-3.53.47-3.6h0Z" style="fill:#fff; stroke:#606060; stroke-linecap:round; stroke-linejoin:round; stroke-width:.5px;"/><path d="M212.52,159.17v4.42c-.2-.11-3.98-2.71-4.05-2.75v-4.42c.08.05,3.86,2.65,4.05,2.75h0Z" style="fill:#fff; stroke:#606060; stroke-linecap:round; stroke-linejoin:round; stroke-width:.5px;"/><path d="M251.13,158.39v4.42c-.1.04-4.63,2.32-4.73,2.35v-4.41c.1-.03,4.64-2.31,4.73-2.35h0Z" style="fill:#fff; stroke:#606060; stroke-linecap:round; stroke-linejoin:round; stroke-width:.5px;"/><path d="M234.58,162.48c-5.36-3.09-14.26-.77-14.27,3.41v4.42c0-4.57,9.24-6.31,14.26-3.41,1.54.89,2.48,2.11,2.47,3.45v-4.41c.02-1.33-.92-2.56-2.46-3.45Z" style="fill:#fff; stroke:#606060; stroke-linecap:round; stroke-linejoin:round; stroke-width:.5px;"/><path d="M209.06,167.75v4.42c-.11,0-6.11-.3-6.22-.3v-4.41c.12,0,6.12.31,6.22.3h0Z" style="fill:#fff; stroke:#606060; stroke-linecap:round; stroke-linejoin:round; stroke-width:.5px;"/><polygon points="254.51 164.38 254.49 168.79 253.78 174.22 253.79 169.81 254.51 164.38" style="fill:#fff; stroke:#606060; stroke-linecap:round; stroke-linejoin:round; stroke-width:.5px;"/><path d="M253.79,169.81v4.42c-.12,0-6.13-.26-6.22-.28v-4.42c.11.02,6.12.27,6.22.28h0Z" style="fill:#fff; stroke:#606060; stroke-linecap:round; stroke-linejoin:round; stroke-width:.5px;"/><polygon points="210.94 171.09 210.93 175.5 209.05 172.16 209.06 167.75 210.94 171.09" style="fill:#fff; stroke:#606060; stroke-linecap:round; stroke-linejoin:round; stroke-width:.5px;"/><polygon points="247.58 169.53 247.56 173.95 244.82 177.07 244.84 172.66 247.58 169.53" style="fill:#fff; stroke:#606060; stroke-linecap:round; stroke-linejoin:round; stroke-width:.5px;"/><polygon points="222.49 176.85 222.48 181.26 217.08 179.67 217.09 175.25 222.49 176.85" style="fill:#fff; stroke:#606060; stroke-linecap:round; stroke-linejoin:round; stroke-width:.5px;"/><polygon points="237.67 176.2 237.66 180.62 231.9 181.7 231.91 177.28 237.67 176.2" style="fill:#fff; stroke:#606060; stroke-linecap:round; stroke-linejoin:round; stroke-width:.5px;"/><path d="M217.09,175.25v4.42c-.07.05-4.67,2.29-4.75,2.33v-4.42c.1-.04,4.69-2.28,4.75-2.33h0Z" style="fill:#fff; stroke:#606060; stroke-linecap:round; stroke-linejoin:round; stroke-width:.5px;"/><polygon points="212.35 177.58 212.34 182 206.22 177.85 206.23 173.44 212.35 177.58" style="fill:#fff; stroke:#606060; stroke-linecap:round; stroke-linejoin:round; stroke-width:.5px;"/><polygon points="248.88 175.41 248.86 179.82 241.73 183.36 241.74 178.94 248.88 175.41" style="fill:#fff; stroke:#606060; stroke-linecap:round; stroke-linejoin:round; stroke-width:.5px;"/><path d="M241.74,178.94v4.42c-.08-.05-4.04-2.68-4.08-2.74v-4.41c.06.05,4.01,2.69,4.08,2.74h0Z" style="fill:#fff; stroke:#606060; stroke-linecap:round; stroke-linejoin:round; stroke-width:.5px;"/><polygon points="231.41 180.88 231.4 185.29 222.03 184.86 222.04 180.45 231.41 180.88" style="fill:#fff; stroke:#606060; stroke-linecap:round; stroke-linejoin:round; stroke-width:.5px;"/><path d="M241.74,178.94c-.07-.05-4.02-2.68-4.07-2.74l-5.76,1.08c.02.06-.49,3.53-.5,3.6l-9.37-.43c0-.06.42-3.54.46-3.6l-5.4-1.6c-.06.05-4.66,2.29-4.74,2.33l-6.12-4.14c.08-.04,4.62-2.32,4.71-2.35l-1.88-3.34c-.1,0-6.1-.3-6.21-.3l.72-5.43c.11,0,6.11.26,6.21.28l2.74-3.13c-.19-.11-3.97-2.71-4.04-2.75l7.14-3.53c.07.05,4.02,2.68,4.07,2.74l5.76-1.08c-.02-.06.49-3.53.5-3.6l9.37.43c0,.06-.43,3.54-.46,3.6l5.4,1.6c.06-.05,4.66-2.29,4.74-2.33l6.12,4.14c-.08.04-4.62,2.32-4.71,2.35l1.88,3.34c.1,0,6.1.3,6.21.3l-.72,5.43c-.11,0-6.11-.26-6.21-.28l-2.74,3.13c.19.11,3.97,2.71,4.04,2.75l-7.14,3.53ZM228.04,170.75c4.61.21,8.63-1.78,8.99-4.45.2-1.47-.77-2.85-2.45-3.82-1.36-.79-3.19-1.31-5.26-1.4-4.61-.21-8.63,1.78-8.99,4.45-.2,1.47.77,2.85,2.45,3.82,1.36.79,3.19,1.31,5.26,1.4h0Z" style="fill:#fff; stroke:#606060; stroke-linecap:round; stroke-linejoin:round; stroke-width:.5px;"/><path d="M231.91,177.29v4.41c-.01.16-.5,3.53-.51,3.59v-4.42c.02-.06.51-3.43.51-3.59h0Z" style="fill:#fff; stroke:#606060; stroke-linecap:round; stroke-linejoin:round; stroke-width:.5px;"/></svg>