<?xml version="1.0" encoding="UTF-8"?><svg xmlns="http://www.w3.org/2000/svg" viewBox="0 0 280 280"><g style="isolation:isolate;"><g id="a"><g style="opacity:.2;"><polygon points="195.83 99.05 217.96 111.83 216.5 112.67 194.37 99.89 195.83 99.05" style="fill:#666; mix-blend-mode:multiply; stroke-width:0px;"/><polygon points="192.9 100.74 215.03 113.52 213.57 114.36 191.44 101.59 192.9 100.74" style="fill:#666; mix-blend-mode:multiply; stroke-width:0px;"/><polygon points="189.97 102.43 212.11 115.21 210.64 116.05 188.51 103.28 189.97 102.43" style="fill:#666; mix-blend-mode:multiply; stroke-width:0px;"/><polygon points="187.04 104.12 209.18 116.9 207.71 117.75 185.58 104.97 187.04 104.12" style="fill:#666; mix-blend-mode:multiply; stroke-width:0px;"/><polygon points="184.11 105.81 206.25 118.59 204.78 119.44 182.65 106.66 184.11 105.81" style="fill:#666; mix-blend-mode:multiply; stroke-width:0px;"/><polygon points="181.18 107.51 203.32 120.28 201.85 121.13 179.72 108.35 181.18 107.51" style="fill:#666; mix-blend-mode:multiply; stroke-width:0px;"/><polygon points="178.26 109.2 200.39 121.97 198.92 122.82 176.79 110.04 178.26 109.2" style="fill:#666; mix-blend-mode:multiply; stroke-width:0px;"/></g><polygon points="185.8 140.99 80.49 201.8 61.98 190.82 167.3 130.02 185.8 140.99" style="fill:#666; opacity:.2; stroke-width:0px;"/><g id="b"><path d="M168.92,39.74l-3.26-1.39c-.68-.23-1.5-.13-2.4.39l-100.86,57.6c-2.26,1.31-4.11,4.73-4.11,7.61l.03,84.03c0,1.32.5,2.21,1.3,2.59l2.72,1.27-.14-.42c.06-.03.12-.06.18-.1l101.32-58.48c2.26-1.3,4.09-4.41,4.09-6.93V40.75c0-.13,0-.26-.02-.38l1.15-.63Z" style="fill:#fff; stroke:#606060; stroke-linecap:round; stroke-linejoin:round; stroke-width:2px;"/><path d="M62.99,191.93c.38-.03.81-.18,1.26-.44l102.44-59.14c1.94-1.12,3.58-3.9,3.58-6.07V42.26c0-1.61-.67-2.6-1.71-2.52-.33.03-.7.15-1.08.37l-102.39,59.12c-1.96,1.13-3.61,4.22-3.61,6.75v84.02c0,.68.16,1.22.46,1.56.25.28.61.41,1.05.38h0Z" style="fill:#fff; stroke:#606060; stroke-linecap:round; stroke-linejoin:round; stroke-width:2px;"/><path d="M115.88,71.67c-.6.35-1.09,1.25-1.09,2.02s.49,1.11,1.09.76c.6-.35,1.09-1.25,1.09-2.02s-.49-1.11-1.09-.76Z" style="fill:#fff; stroke:#606060; stroke-linecap:round; stroke-linejoin:round; stroke-width:2px;"/><polyline points="66.28 105.04 66.28 185.69 165.49 128.42 165.49 47.77 66.28 105.04" style="fill:#fff; stroke:#606060; stroke-linecap:round; stroke-linejoin:round; stroke-width:2px;"/></g><polygon points="109.61 86.56 72.69 108.12 72.69 106.02 109.61 84.47 109.61 86.56" style="fill:#fff; stroke:#606060; stroke-linecap:round; stroke-linejoin:round; stroke-width:2px;"/><polygon points="158.73 74.65 121.81 96.21 121.81 94.12 158.73 72.56 158.73 74.65" style="fill:#fff; stroke:#606060; stroke-linecap:round; stroke-linejoin:round; stroke-width:2px;"/><polygon points="158.73 80.61 121.81 102.16 121.81 100.07 158.73 78.51 158.73 80.61" style="fill:#fff; stroke:#606060; stroke-linecap:round; stroke-linejoin:round; stroke-width:2px;"/><polygon points="158.73 91.23 135.3 104.98 135.3 102.88 158.73 89.14 158.73 91.23" style="fill:#fff; stroke:#606060; stroke-linecap:round; stroke-linejoin:round; stroke-width:2px;"/><polygon points="91.61 102.54 72.97 113.87 72.97 111.77 91.61 100.44 91.61 102.54" style="fill:#fff; stroke:#606060; stroke-linecap:round; stroke-linejoin:round; stroke-width:2px;"/><path d="M113.06,154.67l-38.27,22.18c-.97.56-2.19-.14-2.19-1.26v-53.54c0-1.93,1.03-3.71,2.69-4.67l38.27-22.18c.97-.56,2.19.14,2.19,1.26v53.54c0,1.93-1.03,3.71-2.69,4.67Z" style="fill:#fff; stroke:#606060; stroke-linecap:round; stroke-linejoin:round; stroke-width:2px;"/><polygon points="106.49 151.5 87.85 162.83 87.85 160.74 106.49 149.41 106.49 151.5" style="fill:#fff; stroke:#606060; stroke-linecap:round; stroke-linejoin:round; stroke-width:2px;"/><path d="M107.11,135.18l-21.65,12.5c-1.62.94-2.94-.06-2.94-2.22h0c0-2.16,1.31-4.67,2.94-5.61l21.65-12.5c1.62-.94,2.94.06,2.94,2.22h0c0,2.16-1.31,4.67-2.94,5.61Z" style="fill:#fff; stroke:#606060; stroke-linecap:round; stroke-linejoin:round; stroke-width:2px;"/><path d="M107.11,145.66l-21.65,12.5c-1.62.94-2.94-.06-2.94-2.22h0c0-2.16,1.31-4.67,2.94-5.61l21.65-12.5c1.62-.94,2.94.06,2.94,2.22h0c0,2.16-1.31,4.67-2.94,5.61Z" style="fill:#fff; stroke:#606060; stroke-linecap:round; stroke-linejoin:round; stroke-width:2px;"/><polygon points="107.17 131.98 86.82 143.53 86.82 142.44 107.17 130.89 107.17 131.98" style="fill:#fff; stroke:#606060; stroke-linecap:round; stroke-linejoin:round; stroke-width:2px;"/><path d="M89.11,151.3l-.56,1.18h0s.89-.64.89-.64v.47l-.89.39h0s.57.51.57.51l-.37.46-.36-.75h-.01s-.38,1.19-.38,1.19l-.34-.05.56-1.16h0s-.88.62-.88.62v-.47l.87-.37h0s-.56-.53-.56-.53l.36-.45.37.74h.01s.36-1.17.36-1.17l.36.03Z" style="fill:#fff; stroke:#606060; stroke-linecap:round; stroke-linejoin:round; stroke-width:2px;"/><path d="M91.57,149.88l-.56,1.18h0s.89-.64.89-.64v.47l-.89.39h0s.57.51.57.51l-.37.46-.36-.75h-.01s-.38,1.19-.38,1.19l-.34-.05.56-1.16h0s-.88.62-.88.62v-.47l.87-.37h0s-.56-.53-.56-.53l.36-.45.37.74h.01s.36-1.17.36-1.17l.36.03Z" style="fill:#fff; stroke:#606060; stroke-linecap:round; stroke-linejoin:round; stroke-width:2px;"/><path d="M94.03,148.46l-.56,1.18h0s.89-.64.89-.64v.47l-.89.39h0s.57.51.57.51l-.37.46-.36-.75h-.01s-.38,1.19-.38,1.19l-.34-.05.56-1.16h0s-.88.62-.88.62v-.47l.87-.37h0s-.56-.53-.56-.53l.36-.45.37.74h.01s.36-1.17.36-1.17l.36.03Z" style="fill:#fff; stroke:#606060; stroke-linecap:round; stroke-linejoin:round; stroke-width:2px;"/><path d="M96.49,147.04l-.56,1.18h0s.89-.64.89-.64v.47l-.89.39h0s.57.51.57.51l-.37.46-.36-.75h-.01s-.38,1.19-.38,1.19l-.34-.05.56-1.16h0s-.88.62-.88.62v-.47l.87-.37h0s-.56-.53-.56-.53l.36-.45.37.74h.01s.36-1.17.36-1.17l.36.03Z" style="fill:#fff; stroke:#606060; stroke-linecap:round; stroke-linejoin:round; stroke-width:2px;"/><path d="M98.94,145.62l-.56,1.18h0s.89-.64.89-.64v.47l-.89.39h0s.57.51.57.51l-.37.46-.36-.75h-.01s-.38,1.19-.38,1.19l-.34-.05.56-1.16h0s-.88.62-.88.62v-.47l.87-.37h0s-.56-.53-.56-.53l.36-.45.37.74h.01s.36-1.17.36-1.17l.36.03Z" style="fill:#fff; stroke:#606060; stroke-linecap:round; stroke-linejoin:round; stroke-width:2px;"/><path d="M101.4,144.2l-.56,1.18h0s.89-.64.89-.64v.47l-.89.39h0s.57.51.57.51l-.37.46-.36-.75h-.01s-.38,1.19-.38,1.19l-.34-.05.56-1.16h0s-.88.62-.88.62v-.47l.87-.37h0s-.56-.53-.56-.53l.36-.45.37.74h.01s.36-1.17.36-1.17l.36.03Z" style="fill:#fff; stroke:#606060; stroke-linecap:round; stroke-linejoin:round; stroke-width:2px;"/><path d="M103.86,142.78l-.56,1.18h0s.89-.64.89-.64v.47l-.89.39h0s.57.51.57.51l-.37.46-.36-.75h-.01s-.38,1.19-.38,1.19l-.34-.05.56-1.16h0s-.88.62-.88.62v-.47l.87-.37h0s-.56-.53-.56-.53l.36-.45.37.74h.01s.36-1.17.36-1.17l.36.03Z" style="fill:#fff; stroke:#606060; stroke-linecap:round; stroke-linejoin:round; stroke-width:2px;"/><path d="M106.32,141.36l-.56,1.18h0s.89-.64.89-.64v.47l-.89.39h0s.57.51.57.51l-.37.46-.36-.75h-.01s-.38,1.19-.38,1.19l-.34-.05.56-1.16h0s-.88.62-.88.62v-.47l.87-.37h0s-.56-.53-.56-.53l.36-.45.37.74h.01s.36-1.17.36-1.17l.36.03Z" style="fill:#fff; stroke:#606060; stroke-linecap:round; stroke-linejoin:round; stroke-width:2px;"/><path d="M99.81,120.8c-.37.14-1.27.48-2.27.86,0,0,0,0,0,0-.13.05-.27.1-.4.15-.64.24-1.12.37-1.44.08.18-.7.31-1.34.39-1.95.14-.15.3-.29.43-.38.37-.25.52-1.42.43-2.1-.06-.44-.44-.33-.71-.2,0,0,.73-2.96.44-3.3s-.64-.17-.64-.17c0,0-.03-1.03-1.5-.18-1.47.85-3.57,2.06-3.81,3.95-.15,1.18.34,2.6.34,2.6h0s0,.06,0,.09c-.27.18-.66.53-.71,1.03-.09.78.06,1.78.43,1.6.13-.06.29-.1.43-.12.09.5.21,1.01.39,1.49-.32.66-.81,1.09-1.44,1.58-.14.1-.27.21-.4.31,0,0,0,0,0,0-1,.77-1.9,1.47-2.27,1.76-.91.71-1.82,2.79-2.56,4.81-.74-1.15-1.16-2.72-1.16-4.64,0-6.18,4.34-13.71,9.7-16.8,5.36-3.09,9.7-.59,9.7,5.6,0,1.77-.36,3.64-.99,5.49-.71-1.03-1.54-1.87-2.38-1.56Z" style="fill:#fff; stroke:#606060; stroke-linecap:round; stroke-linejoin:round; stroke-width:2px;"/><path d="M130.41,103.82c-1.58.91-2.87,3.14-2.87,4.97,0,1.83,1.28,2.57,2.87,1.66,1.58-.91,2.87-3.14,2.87-4.97,0-1.83-1.28-2.57-2.87-1.66ZM130.41,108.85c-.82.47-1.49.09-1.49-.86,0-.95.67-2.1,1.49-2.57s1.49-.09,1.49.86c0,.95-.67,2.1-1.49,2.57Z" style="fill:#fff; stroke:#606060; stroke-linecap:round; stroke-linejoin:round; stroke-width:2px;"/><polygon points="158.73 100.54 135.3 114.28 135.3 112.19 158.73 98.44 158.73 100.54" style="fill:#fff; stroke:#606060; stroke-linecap:round; stroke-linejoin:round; stroke-width:2px;"/><path d="M130.41,113.12c-1.58.91-2.87,3.14-2.87,4.97,0,1.83,1.28,2.57,2.87,1.66s2.87-3.14,2.87-4.97c0-1.83-1.28-2.57-2.87-1.66ZM130.41,118.15c-.82.47-1.49.09-1.49-.86,0-.95.67-2.1,1.49-2.57s1.49-.09,1.49.86c0,.95-.67,2.1-1.49,2.57Z" style="fill:#fff; stroke:#606060; stroke-linecap:round; stroke-linejoin:round; stroke-width:2px;"/><polygon points="158.73 109.84 135.3 123.58 135.3 121.49 158.73 107.75 158.73 109.84" style="fill:#fff; stroke:#606060; stroke-linecap:round; stroke-linejoin:round; stroke-width:2px;"/><path d="M130.41,122.43c-1.58.91-2.87,3.14-2.87,4.97,0,1.83,1.28,2.57,2.87,1.66,1.58-.91,2.87-3.14,2.87-4.97,0-1.83-1.28-2.57-2.87-1.66ZM130.41,127.45c-.82.47-1.49.09-1.49-.86,0-.95.67-2.1,1.49-2.57s1.49-.09,1.49.86c0,.95-.67,2.1-1.49,2.57Z" style="fill:#fff; stroke:#606060; stroke-linecap:round; stroke-linejoin:round; stroke-width:2px;"/><polygon points="158.73 119.14 135.3 132.88 135.3 130.79 158.73 117.05 158.73 119.14" style="fill:#fff; stroke:#606060; stroke-linecap:round; stroke-linejoin:round; stroke-width:2px;"/><path d="M130.41,131.73c-1.58.91-2.87,3.14-2.87,4.97,0,1.83,1.28,2.57,2.87,1.66,1.58-.91,2.87-3.14,2.87-4.97,0-1.83-1.28-2.57-2.87-1.66ZM130.41,136.76c-.82.47-1.49.09-1.49-.86,0-.95.67-2.1,1.49-2.57s1.49-.09,1.49.86c0,.95-.67,2.1-1.49,2.57Z" style="fill:#fff; stroke:#606060; stroke-linecap:round; stroke-linejoin:round; stroke-width:2px;"/><polygon points="209.44 186.12 206.86 184.63 206.3 184.96 208.88 186.44 206.3 187.93 206.86 188.25 209.44 186.77 212.01 188.25 212.57 187.93 210 186.44 212.57 184.96 212.01 184.63 209.44 186.12" style="fill:#e95420; fill-rule:evenodd; stroke-width:0px;"/><polygon points="46.27 187.01 43.7 185.52 43.14 185.84 45.71 187.33 43.14 188.82 43.7 189.14 46.27 187.65 48.85 189.14 49.41 188.82 46.83 187.33 49.41 185.84 48.85 185.52 46.27 187.01" style="fill:#e95420; fill-rule:evenodd; stroke-width:0px;"/><polygon points="40.32 172.4 37.74 170.91 37.19 171.23 39.76 172.72 37.19 174.21 37.74 174.53 40.32 173.04 42.89 174.53 43.45 174.21 40.88 172.72 43.45 171.23 42.89 170.91 40.32 172.4" style="fill:#e95420; fill-rule:evenodd; stroke-width:0px;"/><polygon points="234.36 121.47 231.79 119.98 231.23 120.31 233.81 121.79 231.23 123.28 231.79 123.6 234.36 122.11 236.94 123.6 237.5 123.28 234.92 121.79 237.5 120.31 236.94 119.98 234.36 121.47" style="fill:#e95420; fill-rule:evenodd; stroke-width:0px;"/><polygon points="63.57 200.63 61 199.15 60.44 199.47 63.02 200.95 60.44 202.44 61 202.76 63.57 201.28 66.15 202.76 66.71 202.44 64.13 200.95 66.71 199.47 66.15 199.15 63.57 200.63" style="fill:#e95420; fill-rule:evenodd; stroke-width:0px;"/><polygon points="193.02 189.42 190.45 187.93 189.89 188.25 192.46 189.74 189.89 191.23 190.45 191.55 193.02 190.06 195.6 191.55 196.16 191.23 193.58 189.74 196.16 188.25 195.6 187.93 193.02 189.42" style="fill:#e95420; fill-rule:evenodd; stroke-width:0px;"/><path d="M66.23,228.91s-2.15-1.44-2.18-1.47l-3.08.58s-.26,1.89-.27,1.92l-5.02-.23s.23-1.89.24-1.93l-2.89-.85s-2.49,1.23-2.54,1.25l-3.28-2.22s2.47-1.24,2.52-1.26l-1.01-1.79c-.05,0-3.26-.16-3.32-.16l.38-2.9c.06,0,3.27.14,3.33.15l1.47-1.67c-.1-.06-2.12-1.45-2.16-1.47l3.82-1.89s2.15,1.44,2.18,1.47l3.08-.58s.26-1.89.27-1.92l5.02.23s-.23,1.89-.24,1.93l2.89.85s2.49-1.23,2.54-1.25l3.28,2.22s-2.47,1.24-2.52,1.26l1.01,1.79c.06,0,3.26.16,3.32.16l-.38,2.9c-.06,0-3.27-.14-3.32-.15l-1.47,1.67c.1.06,2.12,1.45,2.16,1.47l-3.82,1.89ZM58.9,224.53c2.47.11,4.62-.95,4.81-2.38.1-.79-.41-1.52-1.31-2.04-.73-.42-1.71-.7-2.81-.75-2.47-.11-4.62.95-4.81,2.38-.1.79.41,1.52,1.31,2.04.73.42,1.71.7,2.81.75h0Z" style="fill:#666; opacity:.2; stroke-width:0px;"/><g id="c"><path d="M168.92,39.74l-3.26-1.39c-.68-.23-1.5-.13-2.4.39l-100.86,57.6c-2.26,1.31-4.11,4.73-4.11,7.61l.03,84.03c0,1.32.5,2.21,1.3,2.59l2.72,1.27-.14-.42c.06-.03.12-.06.18-.1l101.32-58.48c2.26-1.3,4.09-4.41,4.09-6.93V40.75c0-.13,0-.26-.02-.38l1.15-.63Z" style="fill:#fff; stroke:#606060; stroke-linecap:round; stroke-linejoin:round; stroke-width:.5px;"/><path d="M62.99,191.93c.38-.03.81-.18,1.26-.44l102.44-59.14c1.94-1.12,3.58-3.9,3.58-6.07V42.26c0-1.61-.67-2.6-1.71-2.52-.33.03-.7.15-1.08.37l-102.39,59.12c-1.96,1.13-3.61,4.22-3.61,6.75v84.02c0,.68.16,1.22.46,1.56.25.28.61.41,1.05.38h0Z" style="fill:#fff; stroke:#606060; stroke-linecap:round; stroke-linejoin:round; stroke-width:.5px;"/><path d="M115.88,71.67c-.6.35-1.09,1.25-1.09,2.02s.49,1.11,1.09.76c.6-.35,1.09-1.25,1.09-2.02s-.49-1.11-1.09-.76Z" style="fill:#fff; stroke:#606060; stroke-linecap:round; stroke-linejoin:round; stroke-width:.5px;"/><polyline points="66.28 105.04 66.28 185.69 165.49 128.42 165.49 47.77 66.28 105.04" style="fill:#fff; stroke:#606060; stroke-linecap:round; stroke-linejoin:round; stroke-width:.5px;"/></g><polygon points="109.61 86.56 72.69 108.12 72.69 106.02 109.61 84.47 109.61 86.56" style="fill:#e95420; stroke-width:0px;"/><polygon points="158.73 74.65 121.81 96.21 121.81 94.12 158.73 72.56 158.73 74.65" style="fill:#e95420; stroke-width:0px;"/><polygon points="158.73 80.61 121.81 102.16 121.81 100.07 158.73 78.51 158.73 80.61" style="fill:#e95420; stroke-width:0px;"/><polygon points="158.73 91.23 135.3 104.98 135.3 102.88 158.73 89.14 158.73 91.23" style="fill:#666; opacity:.2; stroke-width:0px;"/><polygon points="91.61 102.54 72.97 113.87 72.97 111.77 91.61 100.44 91.61 102.54" style="fill:#666; opacity:.2; stroke-width:0px;"/><path d="M113.06,154.67l-38.27,22.18c-.97.56-2.19-.14-2.19-1.26v-53.54c0-1.93,1.03-3.71,2.69-4.67l38.27-22.18c.97-.56,2.19.14,2.19,1.26v53.54c0,1.93-1.03,3.71-2.69,4.67Z" style="fill:#e95420; stroke-width:0px;"/><polygon points="106.49 151.5 87.85 162.83 87.85 160.74 106.49 149.41 106.49 151.5" style="fill:#fff; stroke-width:0px;"/><path d="M107.11,135.18l-21.65,12.5c-1.62.94-2.94-.06-2.94-2.22h0c0-2.16,1.31-4.67,2.94-5.61l21.65-12.5c1.62-.94,2.94.06,2.94,2.22h0c0,2.16-1.31,4.67-2.94,5.61Z" style="fill:#fff; stroke-width:0px;"/><path d="M107.11,145.66l-21.65,12.5c-1.62.94-2.94-.06-2.94-2.22h0c0-2.16,1.31-4.67,2.94-5.61l21.65-12.5c1.62-.94,2.94.06,2.94,2.22h0c0,2.16-1.31,4.67-2.94,5.61Z" style="fill:#fff; stroke-width:0px;"/><polygon points="107.17 131.98 86.82 143.53 86.82 142.44 107.17 130.89 107.17 131.98" style="fill:#e95420; stroke-width:0px;"/><path d="M89.11,151.3l-.56,1.18h0s.89-.64.89-.64v.47l-.89.39h0s.57.51.57.51l-.37.46-.36-.75h-.01s-.38,1.19-.38,1.19l-.34-.05.56-1.16h0s-.88.62-.88.62v-.47l.87-.37h0s-.56-.53-.56-.53l.36-.45.37.74h.01s.36-1.17.36-1.17l.36.03Z" style="fill:#e95420; stroke-width:0px;"/><path d="M91.57,149.88l-.56,1.18h0s.89-.64.89-.64v.47l-.89.39h0s.57.51.57.51l-.37.46-.36-.75h-.01s-.38,1.19-.38,1.19l-.34-.05.56-1.16h0s-.88.62-.88.62v-.47l.87-.37h0s-.56-.53-.56-.53l.36-.45.37.74h.01s.36-1.17.36-1.17l.36.03Z" style="fill:#e95420; stroke-width:0px;"/><path d="M94.03,148.46l-.56,1.18h0s.89-.64.89-.64v.47l-.89.39h0s.57.51.57.51l-.37.46-.36-.75h-.01s-.38,1.19-.38,1.19l-.34-.05.56-1.16h0s-.88.62-.88.62v-.47l.87-.37h0s-.56-.53-.56-.53l.36-.45.37.74h.01s.36-1.17.36-1.17l.36.03Z" style="fill:#e95420; stroke-width:0px;"/><path d="M96.49,147.04l-.56,1.18h0s.89-.64.89-.64v.47l-.89.39h0s.57.51.57.51l-.37.46-.36-.75h-.01s-.38,1.19-.38,1.19l-.34-.05.56-1.16h0s-.88.62-.88.62v-.47l.87-.37h0s-.56-.53-.56-.53l.36-.45.37.74h.01s.36-1.17.36-1.17l.36.03Z" style="fill:#e95420; stroke-width:0px;"/><path d="M98.94,145.62l-.56,1.18h0s.89-.64.89-.64v.47l-.89.39h0s.57.51.57.51l-.37.46-.36-.75h-.01s-.38,1.19-.38,1.19l-.34-.05.56-1.16h0s-.88.62-.88.62v-.47l.87-.37h0s-.56-.53-.56-.53l.36-.45.37.74h.01s.36-1.17.36-1.17l.36.03Z" style="fill:#e95420; stroke-width:0px;"/><path d="M101.4,144.2l-.56,1.18h0s.89-.64.89-.64v.47l-.89.39h0s.57.51.57.51l-.37.46-.36-.75h-.01s-.38,1.19-.38,1.19l-.34-.05.56-1.16h0s-.88.62-.88.62v-.47l.87-.37h0s-.56-.53-.56-.53l.36-.45.37.74h.01s.36-1.17.36-1.17l.36.03Z" style="fill:#e95420; stroke-width:0px;"/><path d="M103.86,142.78l-.56,1.18h0s.89-.64.89-.64v.47l-.89.39h0s.57.51.57.51l-.37.46-.36-.75h-.01s-.38,1.19-.38,1.19l-.34-.05.56-1.16h0s-.88.62-.88.62v-.47l.87-.37h0s-.56-.53-.56-.53l.36-.45.37.74h.01s.36-1.17.36-1.17l.36.03Z" style="fill:#e95420; stroke-width:0px;"/><path d="M106.32,141.36l-.56,1.18h0s.89-.64.89-.64v.47l-.89.39h0s.57.51.57.51l-.37.46-.36-.75h-.01s-.38,1.19-.38,1.19l-.34-.05.56-1.16h0s-.88.62-.88.62v-.47l.87-.37h0s-.56-.53-.56-.53l.36-.45.37.74h.01s.36-1.17.36-1.17l.36.03Z" style="fill:#e95420; stroke-width:0px;"/><path d="M99.81,120.8c-.37.14-1.27.48-2.27.86,0,0,0,0,0,0-.13.05-.27.1-.4.15-.64.24-1.12.37-1.44.08.18-.7.31-1.34.39-1.95.14-.15.3-.29.43-.38.37-.25.52-1.42.43-2.1-.06-.44-.44-.33-.71-.2,0,0,.73-2.96.44-3.3s-.64-.17-.64-.17c0,0-.03-1.03-1.5-.18-1.47.85-3.57,2.06-3.81,3.95-.15,1.18.34,2.6.34,2.6h0s0,.06,0,.09c-.27.18-.66.53-.71,1.03-.09.78.06,1.78.43,1.6.13-.06.29-.1.43-.12.09.5.21,1.01.39,1.49-.32.66-.81,1.09-1.44,1.58-.14.1-.27.21-.4.31,0,0,0,0,0,0-1,.77-1.9,1.47-2.27,1.76-.91.71-1.82,2.79-2.56,4.81-.74-1.15-1.16-2.72-1.16-4.64,0-6.18,4.34-13.71,9.7-16.8,5.36-3.09,9.7-.59,9.7,5.6,0,1.77-.36,3.64-.99,5.49-.71-1.03-1.54-1.87-2.38-1.56Z" style="fill:#fff; stroke-width:0px;"/><g style="opacity:.2;"><path d="M130.41,103.82c-1.58.91-2.87,3.14-2.87,4.97,0,1.83,1.28,2.57,2.87,1.66,1.58-.91,2.87-3.14,2.87-4.97,0-1.83-1.28-2.57-2.87-1.66ZM130.41,108.85c-.82.47-1.49.09-1.49-.86,0-.95.67-2.1,1.49-2.57s1.49-.09,1.49.86c0,.95-.67,2.1-1.49,2.57Z" style="fill:#666; stroke-width:0px;"/></g><polygon points="158.73 100.54 135.3 114.28 135.3 112.19 158.73 98.44 158.73 100.54" style="fill:#666; opacity:.2; stroke-width:0px;"/><g style="opacity:.2;"><path d="M130.41,113.12c-1.58.91-2.87,3.14-2.87,4.97,0,1.83,1.28,2.57,2.87,1.66s2.87-3.14,2.87-4.97c0-1.83-1.28-2.57-2.87-1.66ZM130.41,118.15c-.82.47-1.49.09-1.49-.86,0-.95.67-2.1,1.49-2.57s1.49-.09,1.49.86c0,.95-.67,2.1-1.49,2.57Z" style="fill:#666; stroke-width:0px;"/></g><polygon points="158.73 109.84 135.3 123.58 135.3 121.49 158.73 107.75 158.73 109.84" style="fill:#666; opacity:.2; stroke-width:0px;"/><g style="opacity:.2;"><path d="M130.41,122.43c-1.58.91-2.87,3.14-2.87,4.97,0,1.83,1.28,2.57,2.87,1.66,1.58-.91,2.87-3.14,2.87-4.97,0-1.83-1.28-2.57-2.87-1.66ZM130.41,127.45c-.82.47-1.49.09-1.49-.86,0-.95.67-2.1,1.49-2.57s1.49-.09,1.49.86c0,.95-.67,2.1-1.49,2.57Z" style="fill:#666; stroke-width:0px;"/></g><polygon points="158.73 119.14 135.3 132.88 135.3 130.79 158.73 117.05 158.73 119.14" style="fill:#666; opacity:.2; stroke-width:0px;"/><g style="opacity:.2;"><path d="M130.41,131.73c-1.58.91-2.87,3.14-2.87,4.97,0,1.83,1.28,2.57,2.87,1.66,1.58-.91,2.87-3.14,2.87-4.97,0-1.83-1.28-2.57-2.87-1.66ZM130.41,136.76c-.82.47-1.49.09-1.49-.86,0-.95.67-2.1,1.49-2.57s1.49-.09,1.49.86c0,.95-.67,2.1-1.49,2.57Z" style="fill:#666; stroke-width:0px;"/></g><g style="opacity:.2;"><path d="M149.29,91.63c.42,15.82,8.12,20.74,21.08,13.68v-56.88c-12.32,9.75-21.48,28.08-21.08,43.19Z" style="fill:#666; stroke-width:0px;"/></g><path d="M170.41,115.02l-1.24-.93c3.94,3.48,10.18,2.85,18.28-2.12,14.18-8.7,25.31-29.23,24.87-45.86-.25-9.5-3.13-15.07-8.19-16.48l1.66.67h0s-3.14-1.71-3.14-1.71h0c-1.18-.69-2.46-1.19-3.84-1.48-.3-.06-.6-.11-.91-.16-.19-.03-.39-.05-.59-.07-1.11-.11-2.27-.09-3.48.05-.13.02-.26.03-.4.05-.32.05-.63.1-.96.16-.65.13-1.32.29-2,.49-.67.2-1.36.44-2.05.72-1.48.6-3.01,1.36-4.56,2.31-.44.27-.88.55-1.32.85-.18.12-.35.25-.52.37-.26.18-.52.36-.77.54-.24.17-.47.36-.7.54-.19.15-.38.29-.57.43-.27.22-.54.44-.81.67-.15.12-.29.24-.44.36-.3.26-.6.53-.89.79-.11.1-.22.2-.33.3-.32.3-.64.6-.96.91-.08.08-.16.15-.24.23-.34.33-.67.68-1.01,1.02-.05.06-.11.11-.17.17-.35.37-.7.75-1.04,1.13-.03.04-.07.08-.11.12-.36.4-.71.81-1.06,1.22-.02.02-.04.04-.05.06-.36.43-.72.87-1.07,1.31,0,0-.01.01-.02.02-2.13,2.7-4.07,5.64-5.75,8.72,0,0,0,0,0,.01h0c-1.42,2.61-2.66,5.31-3.69,8.05,0,0,0,0,0,.01-.2.53-.39,1.07-.57,1.6,0,.02-.01.04-.02.05-.18.52-.35,1.04-.51,1.56-.01.03-.02.07-.03.1-.15.5-.3,1-.44,1.51-.01.05-.03.11-.05.16-.13.48-.26.97-.37,1.45-.02.07-.04.14-.06.21-.11.46-.21.92-.31,1.38-.02.09-.04.19-.06.28-.09.43-.17.86-.25,1.3-.02.12-.05.24-.07.36-.07.41-.13.82-.19,1.23-.02.14-.04.28-.06.42-.05.39-.09.77-.13,1.16-.02.16-.04.31-.05.47-.04.37-.06.73-.09,1.1-.01.17-.03.34-.04.51-.02.37-.03.74-.04,1.11,0,.16-.02.32-.02.49,0,.52,0,1.04,0,1.55,0,0,0,.01,0,.02.11,4.11.92,7.6,2.29,10.39.41.83.86,1.6,1.37,2.3.03.05.07.09.1.14.1.14.2.27.31.41,1.24,1.58,2.73,2.8,4.42,3.64v.02s0,0,0,0h0l2.93,1.59Z" style="fill:#fff; fill-rule:evenodd; stroke:#606060; stroke-linecap:round; stroke-linejoin:round; stroke-width:2px;"/><path d="M167.49,113.42v.02s2.92,1.59,2.92,1.59l.68-4.47c2.42-.6,4.98-1.7,7.62-3.32,14.18-8.7,25.31-29.23,24.87-45.86-.08-3.1-.56-5.84-1.38-8.2l3.59-2.88-3.14-1.71h0c-4.82-2.84-11.49-2.37-18.77,2.09-14.18,8.7-25.31,29.23-24.87,45.86.23,8.54,3.47,14.38,8.49,16.87Z" style="fill:#fff; fill-rule:evenodd; stroke:#606060; stroke-linecap:round; stroke-linejoin:round; stroke-width:.5px;"/><ellipse cx="188.34" cy="82.78" rx="35.69" ry="19.24" transform="translate(25.78 208.87) rotate(-61.53)" style="fill:#fff; stroke:#606060; stroke-linecap:round; stroke-linejoin:round; stroke-width:.5px;"/><path d="M202.21,53.17l3.59-2.88-3.14-1.71h0c-4.82-2.84-11.49-2.37-18.77,2.09-7.04,4.32-13.33,11.56-17.82,19.78-4.56,8.34-7.27,17.7-7.05,26.08.23,8.54,3.47,14.38,8.49,16.87v.02s2.92,1.59,2.92,1.59l.68-4.47c2.42-.6,4.98-1.7,7.62-3.32,7.14-4.38,13.5-11.76,18.01-20.13,4.44-8.25,7.08-17.47,6.86-25.73-.08-3.1-.56-5.84-1.38-8.2Z" style="fill:#fff; stroke:#606060; stroke-linecap:round; stroke-linejoin:round; stroke-width:.5px;"/><ellipse cx="188.34" cy="82.78" rx="35.69" ry="19.24" transform="translate(25.78 208.87) rotate(-61.53)" style="fill:#e95420; stroke:#606060; stroke-linecap:round; stroke-linejoin:round; stroke-width:.5px;"/><path d="M204.6,70.87l-10.42,6.02c-.51.3-.93.06-.93-.54v-12.03c0-.59-.41-.83-.93-.54l-4.37,2.52c-.51.3-.93,1.01-.93,1.61v12.03c0,.59-.41,1.31-.93,1.61l-10.42,6.02c-.51.3-.93,1.01-.93,1.61v5.04c0,.59.41.83.93.54l10.42-6.02c.51-.3.93-.06.93.54v12.03c0,.59.41.83.93.54l4.37-2.52c.51-.3.93-1.01.93-1.61v-12.03c0-.59.41-1.31.93-1.61l10.42-6.02c.51-.3.93-1.01.93-1.61v-5.04c0-.59-.41-.83-.93-.54Z" style="fill:#fff; stroke-width:0px;"/><ellipse cx="208.44" cy="155.78" rx="34.38" ry="19.85" style="fill:#666; opacity:.2; stroke-width:0px;"/><path d="M229.29,144.58c1.48-.74,3.06-1.53,3.11-1.56l.02-5.37-7.44-5.04c-.1.05-5.69,2.77-5.76,2.83l-6.03-1.78v-4.53s-11.38-.53-11.38-.53c-.01.08-.63,4.3-.61,4.37h0s0,0,0,0l-7,1.31c-.06-.06-4.86-3.27-4.95-3.33l-8.67,4.29-.02,5.37s.94.65,1.97,1.35l-.38.43c-.12-.02-7.42-.33-7.55-.33l-.87,6.6-.02,5.37c.12,0,5.82.29,7.23.35-1.48.74-3.06,1.53-3.11,1.56l-.02,5.37,7.44,5.04c.1-.05,5.69-2.77,5.76-2.83l6.03,1.78v4.53s11.38.53,11.38.53c.01-.07.61-4.17.61-4.36h0s7-1.32,7-1.32c.06.06,4.86,3.27,4.95,3.33l8.67-4.29.02-5.37s-.94-.65-1.97-1.35l.38-.43c.12.02,7.42.33,7.55.33l.87-6.6.02-5.37c-.12,0-5.82-.29-7.23-.35ZM209.06,160.63s0,.02,0,.03c0-.02,0-.04,0-.04h0ZM204.35,152.67c-2.51-.12-4.74-.75-6.39-1.71-.79-.46-1.45-.98-1.94-1.56,2.96-3.41,11.31-4.27,16.27-1.41.77.44,1.41.95,1.9,1.51-1.82,2.04-5.62,3.36-9.83,3.16ZM215.3,146.56s0,.09,0,.14c0-.05,0-.09,0-.14ZM214,143.93s-.08-.08-.11-.12c.04.04.08.08.11.12ZM215.28,146.38s0-.09-.02-.13c0,.04.01.09.02.13ZM215.22,146.05s-.02-.08-.03-.12c0,.04.02.08.03.12ZM215.12,145.68s0-.03-.01-.04c0,.01,0,.03.01.04ZM214.98,145.34s-.03-.07-.05-.1c.02.03.03.07.05.1ZM214.84,145.04s-.05-.08-.07-.12c.02.04.05.08.07.12ZM214.66,144.75s-.05-.08-.08-.12c.03.04.06.08.08.12ZM214.47,144.47s-.06-.08-.09-.12c.03.04.06.08.09.12ZM214.25,144.2s-.07-.08-.1-.12c.04.04.07.08.1.12ZM213.73,143.67s-.08-.07-.12-.11c.04.04.08.07.12.11ZM213.44,143.42s-.09-.07-.13-.11c.04.03.09.07.13.11ZM213.13,143.17s-.09-.07-.13-.1c.05.03.09.06.13.1ZM212.78,142.93s-.08-.05-.12-.08c.04.03.08.05.12.08ZM204.89,140.91s-.03,0-.04,0c.01,0,.03,0,.04,0ZM204.25,140.93c-3.45.2-6.66,1.41-8.25,3.25,1.55-1.82,4.66-3.08,8.25-3.25ZM194.99,146.33s0,0,0,0c-.02.14-.03.27-.03.41,0-.13,0-.27.03-.41ZM195.98,144.21c-.14.17-.27.34-.38.51.11-.18.24-.35.38-.51ZM195.39,145.09s-.05.1-.07.15c.02-.05.05-.1.07-.15ZM195.15,145.65s-.03.08-.04.12c.01-.04.03-.08.04-.12ZM209.04,160.83c-.11.86-.58,4.09-.59,4.16,0-.07.48-3.29.59-4.16ZM209.05,160.69s0,.07-.01.12c0-.05.01-.09.01-.12Z" style="fill:#fff; stroke:#606060; stroke-linecap:round; stroke-linejoin:round; stroke-width:2px;"/><polygon points="201.2 132.98 201.19 138.35 201.19 138.34 201.2 132.97 201.2 132.98 201.2 132.98" style="fill:#fff; stroke:#606060; stroke-linecap:round; stroke-linejoin:round; stroke-width:.5px;"/><path d="M213.2,129.14l-.02,5.37c-.01.08-.52,4.3-.55,4.37l.02-5.37c.04-.07.54-4.3.55-4.37h0Z" style="fill:#fff; stroke:#606060; stroke-linecap:round; stroke-linejoin:round; stroke-width:.5px;"/><path d="M185.49,138.6l-.02,5.37c-.23-.13-4.82-3.29-4.91-3.35l.02-5.37c.08.06,4.68,3.22,4.91,3.35h0Z" style="fill:#fff; stroke:#606060; stroke-linecap:round; stroke-linejoin:round; stroke-width:.5px;"/><path d="M232.42,137.66l-.02,5.37c-.1.05-5.62,2.82-5.73,2.86l.02-5.37c.11-.03,5.63-2.81,5.73-2.86h0Z" style="fill:#fff; stroke:#606060; stroke-linecap:round; stroke-linejoin:round; stroke-width:.5px;"/><path d="M212.3,142.63c-6.52-3.76-17.33-.94-17.34,4.15l-.02,5.37c.01-5.55,11.25-7.67,17.34-4.15,1.87,1.08,3.01,2.57,3.01,4.19l.02-5.37c0-1.62-1.14-3.11-3.01-4.19Z" style="fill:#fff; stroke:#606060; stroke-linecap:round; stroke-linejoin:round; stroke-width:.5px;"/><path d="M181.28,149.03l-.02,5.37c-.12.01-7.41-.36-7.55-.37l.02-5.37c.13,0,7.42.38,7.55.37h0Z" style="fill:#fff; stroke:#606060; stroke-linecap:round; stroke-linejoin:round; stroke-width:.5px;"/><polygon points="236.52 144.93 236.51 150.3 235.64 156.9 235.65 151.53 236.52 144.93" style="fill:#fff; stroke:#606060; stroke-linecap:round; stroke-linejoin:round; stroke-width:.5px;"/><path d="M235.65,151.53l-.02,5.37c-.13,0-7.43-.31-7.55-.33l.02-5.37c.12.02,7.42.33,7.55.33h0Z" style="fill:#fff; stroke:#606060; stroke-linecap:round; stroke-linejoin:round; stroke-width:.5px;"/><polygon points="183.57 153.09 183.56 158.45 181.27 154.4 181.28 149.03 183.57 153.09" style="fill:#fff; stroke:#606060; stroke-linecap:round; stroke-linejoin:round; stroke-width:.5px;"/><polygon points="228.1 151.2 228.09 156.56 224.76 160.36 224.77 154.99 228.1 151.2" style="fill:#fff; stroke:#606060; stroke-linecap:round; stroke-linejoin:round; stroke-width:.5px;"/><polygon points="197.61 160.09 197.6 165.46 191.03 163.52 191.05 158.15 197.61 160.09" style="fill:#fff; stroke:#606060; stroke-linecap:round; stroke-linejoin:round; stroke-width:.5px;"/><polygon points="216.06 159.31 216.04 164.67 209.04 165.99 209.06 160.62 216.06 159.31" style="fill:#fff; stroke:#606060; stroke-linecap:round; stroke-linejoin:round; stroke-width:.5px;"/><path d="M191.05,158.15l-.02,5.37c-.07.06-5.66,2.78-5.76,2.83l.02-5.37c.1-.05,5.69-2.77,5.76-2.83h0Z" style="fill:#fff; stroke:#606060; stroke-linecap:round; stroke-linejoin:round; stroke-width:.5px;"/><polygon points="185.28 160.98 185.27 166.35 177.83 161.31 177.84 155.94 185.28 160.98" style="fill:#fff; stroke:#606060; stroke-linecap:round; stroke-linejoin:round; stroke-width:.5px;"/><polygon points="229.68 158.34 229.66 163.71 220.99 168 221.01 162.63 229.68 158.34" style="fill:#fff; stroke:#606060; stroke-linecap:round; stroke-linejoin:round; stroke-width:.5px;"/><path d="M221.01,162.63l-.02,5.37c-.09-.06-4.89-3.26-4.95-3.33l.02-5.37c.06.06,4.86,3.27,4.95,3.33h0Z" style="fill:#fff; stroke:#606060; stroke-linecap:round; stroke-linejoin:round; stroke-width:.5px;"/><polygon points="208.45 164.99 208.44 170.36 197.05 169.83 197.06 164.46 208.45 164.99" style="fill:#fff; stroke:#606060; stroke-linecap:round; stroke-linejoin:round; stroke-width:.5px;"/><path d="M221.01,162.63c-.09-.06-4.89-3.26-4.95-3.33l-7,1.31c.02.07-.6,4.29-.61,4.37l-11.39-.53c0-.08.51-4.3.55-4.37l-6.57-1.94c-.07.06-5.66,2.78-5.76,2.83l-7.44-5.04c.1-.05,5.62-2.82,5.73-2.86l-2.29-4.06c-.12.01-7.41-.36-7.55-.37l.87-6.6c.13,0,7.43.31,7.55.33l3.33-3.8c-.23-.13-4.82-3.29-4.91-3.35l8.67-4.29c.09.06,4.89,3.26,4.95,3.33l7-1.31c-.02-.07.6-4.29.61-4.37l11.39.53c-.01.08-.52,4.3-.55,4.37l6.57,1.94c.07-.06,5.66-2.78,5.76-2.83l7.44,5.04c-.1.05-5.62,2.82-5.73,2.86l2.29,4.06c.13,0,7.41.36,7.55.37l-.87,6.6c-.13,0-7.43-.31-7.55-.33l-3.33,3.8c.23.13,4.82,3.29,4.91,3.35l-8.67,4.29ZM204.35,152.67c5.6.26,10.49-2.16,10.92-5.41.24-1.79-.93-3.46-2.98-4.64-1.66-.96-3.88-1.59-6.39-1.71-5.6-.26-10.49,2.16-10.92,5.41-.24,1.79.94,3.46,2.98,4.64,1.66.96,3.88,1.59,6.39,1.71h0Z" style="fill:#fff; stroke:#606060; stroke-linecap:round; stroke-linejoin:round; stroke-width:.5px;"/><path d="M209.06,160.63l-.02,5.37c0,.19-.6,4.29-.61,4.36l.02-5.37c.01-.07.61-4.17.61-4.36h0Z" style="fill:#fff; stroke:#606060; stroke-linecap:round; stroke-linejoin:round; stroke-width:.5px;"/><path d="M179.25,197.98l-32.14,18.44c-.24.14-.24.48,0,.62l.31.18c.5.29,1.12.29,1.62,0l32.14-18.44c.24-.14.24-.48,0-.62l-.31-.18c-.5-.29-1.12-.29-1.62,0Z" style="fill:#bfbfbf; stroke-width:0px;"/><path d="M152.32,197.23l7.94-4.56c.75-.43.41-1.17-.61-1.33h-.02c-.48-.08-.98,0-1.33.2l-7.94,4.56c-.75.43-.41,1.17.61,1.33h.02c.47.08.98,0,1.33-.2Z" style="fill:#e95420; stroke-width:0px;"/><path d="M133.11,208.26l13.35-7.67c.75-.43.41-1.17-.61-1.33h-.02c-.48-.08-.98,0-1.33.2l-13.35,7.67c-.75.43-.41,1.17.61,1.33h.02c.48.08.98,0,1.33-.2Z" style="fill:#e95420; stroke-width:0px;"/><path d="M168.98,195.88l4.96-2.85c.75-.43.41-1.17-.61-1.33h-.03c-.48-.08-.98,0-1.33.2l-4.96,2.85c-.75.43-.41,1.17.61,1.33h.03c.48.08.98,0,1.33-.2Z" style="fill:#e95420; stroke-width:0px;"/><path d="M156.33,203.16l2.98-1.71c.75-.43.41-1.17-.61-1.33h-.03c-.48-.08-.98,0-1.33.2l-2.98,1.71c-.75.43-.41,1.17.61,1.33h.03c.48.08.98,0,1.33-.2Z" style="fill:#bfbfbf; stroke-width:0px;"/><path d="M148.65,207.57l2.98-1.71c.75-.43.41-1.17-.61-1.33h-.03c-.48-.08-.98,0-1.33.2l-2.98,1.71c-.75.43-.41,1.17.61,1.33h.03c.48.08.98,0,1.33-.2Z" style="fill:#bfbfbf; stroke-width:0px;"/><path d="M134.65,215.62l8.97-5.15c.75-.43.41-1.17-.61-1.33h-.03c-.48-.08-.98,0-1.33.2l-8.97,5.15c-.75.43-.41,1.17.61,1.33h.03c.48.08.98,0,1.33-.2Z" style="fill:#bfbfbf; stroke-width:0px;"/><g style="opacity:.2;"><path d="M96.1,203.35c.95.55,1.77,1.12,2.47,1.72.7.6,1.42,1.22,2.16,1.85.36-.73.72-1.44,1.08-2.15.36-.7.84-1.41,1.45-2.13l.14-.16,3.79,1.09-.17.21c-.56.72-1.25,1.36-2.04,1.94-.8.58-1.64,1.16-2.52,1.75,1.37-.06,2.69-.11,3.94-.15,1.25-.03,2.55.02,3.9.15l.41.04-.74,2.42-.34-.04c-1.35-.16-2.63-.35-3.82-.59-1.19-.23-2.42-.48-3.68-.74.45.73.88,1.44,1.28,2.13.41.69.74,1.42,1.01,2.2l.07.2-4.19.43-.07-.23c-.23-.78-.31-1.53-.25-2.25.06-.72.14-1.48.25-2.27-1.01.51-2.02.99-3.02,1.45-1,.46-2.12.86-3.36,1.18l-.37.1-1.89-2.19.27-.08c1.24-.35,2.47-.63,3.68-.84,1.22-.21,2.46-.42,3.72-.62-1.1-.43-2.17-.85-3.21-1.25-1.04-.4-2.03-.88-2.97-1.42l-.27-.16,3.04-1.76.27.16Z" style="fill:#666; stroke-width:0px;"/></g><g style="opacity:.2;"><path d="M111.32,194.53c.95.55,1.77,1.12,2.47,1.72.7.6,1.42,1.22,2.16,1.85.36-.73.72-1.44,1.08-2.15.36-.7.84-1.41,1.45-2.13l.14-.16,3.79,1.09-.17.21c-.56.72-1.25,1.36-2.04,1.94-.8.58-1.64,1.16-2.52,1.75,1.37-.06,2.69-.11,3.94-.15,1.25-.03,2.55.02,3.9.15l.41.04-.74,2.42-.34-.04c-1.35-.16-2.63-.35-3.82-.59-1.19-.23-2.42-.48-3.68-.74.45.73.88,1.44,1.28,2.13.41.69.74,1.42,1.01,2.2l.07.2-4.19.43-.07-.23c-.23-.78-.31-1.53-.25-2.25.06-.72.14-1.48.25-2.27-1.01.51-2.02.99-3.02,1.45-1,.46-2.12.86-3.36,1.18l-.37.1-1.89-2.19.27-.08c1.24-.35,2.47-.63,3.68-.84,1.22-.21,2.46-.42,3.72-.62-1.1-.43-2.17-.85-3.21-1.25-1.04-.4-2.03-.88-2.97-1.42l-.27-.16,3.04-1.76.27.16Z" style="fill:#666; stroke-width:0px;"/></g><g style="opacity:.2;"><path d="M126.53,185.71c.95.55,1.77,1.12,2.47,1.72.7.6,1.42,1.22,2.16,1.85.36-.73.72-1.44,1.08-2.15.36-.7.84-1.41,1.45-2.13l.14-.16,3.79,1.09-.17.21c-.56.72-1.25,1.36-2.04,1.94-.8.58-1.64,1.16-2.52,1.75,1.37-.06,2.69-.11,3.94-.15,1.25-.03,2.55.02,3.9.15l.41.04-.74,2.42-.34-.04c-1.35-.16-2.63-.35-3.82-.59-1.19-.23-2.42-.48-3.68-.74.45.73.88,1.44,1.28,2.13.41.69.74,1.42,1.01,2.2l.07.2-4.19.43-.07-.23c-.23-.78-.31-1.53-.25-2.25.06-.72.14-1.48.25-2.27-1.01.51-2.02.99-3.02,1.45-1,.46-2.12.86-3.36,1.18l-.37.1-1.89-2.19.27-.08c1.24-.35,2.47-.63,3.68-.84,1.22-.21,2.46-.42,3.72-.62-1.1-.43-2.17-.85-3.21-1.25-1.04-.4-2.03-.88-2.97-1.42l-.27-.16,3.04-1.76.27.16Z" style="fill:#666; stroke-width:0px;"/></g><g style="opacity:.2;"><path d="M141.74,176.88c.95.55,1.77,1.12,2.47,1.72.7.6,1.42,1.22,2.16,1.85.36-.73.72-1.44,1.08-2.15.36-.7.84-1.41,1.45-2.13l.14-.16,3.79,1.09-.17.21c-.56.72-1.25,1.36-2.04,1.94-.8.58-1.64,1.16-2.52,1.75,1.37-.06,2.69-.11,3.94-.15,1.25-.03,2.55.02,3.9.15l.41.04-.74,2.42-.34-.04c-1.35-.16-2.63-.35-3.82-.59-1.19-.23-2.42-.48-3.68-.74.45.73.88,1.44,1.28,2.13.41.69.74,1.42,1.01,2.2l.07.2-4.19.43-.07-.23c-.23-.78-.31-1.53-.25-2.25.06-.72.14-1.48.25-2.27-1.01.51-2.02.99-3.02,1.45-1,.46-2.12.86-3.36,1.18l-.37.1-1.89-2.19.27-.08c1.24-.35,2.47-.63,3.68-.84,1.22-.21,2.46-.42,3.72-.62-1.1-.43-2.17-.85-3.21-1.25-1.04-.4-2.03-.88-2.97-1.42l-.27-.16,3.04-1.76.27.16Z" style="fill:#666; stroke-width:0px;"/></g><g style="opacity:.2;"><path d="M156.96,168.06c.95.55,1.77,1.12,2.47,1.72.7.6,1.42,1.22,2.16,1.85.36-.73.72-1.44,1.08-2.15.36-.7.84-1.41,1.45-2.13l.14-.16,3.79,1.09-.17.21c-.56.72-1.25,1.36-2.04,1.94-.8.58-1.64,1.16-2.52,1.75,1.37-.06,2.69-.11,3.94-.15,1.25-.03,2.55.02,3.9.15l.41.04-.74,2.42-.34-.04c-1.35-.16-2.63-.35-3.82-.59-1.19-.23-2.42-.48-3.68-.74.45.73.88,1.44,1.28,2.13.41.69.74,1.42,1.01,2.2l.07.2-4.19.43-.07-.23c-.23-.78-.31-1.53-.25-2.25.06-.72.14-1.48.25-2.27-1.01.51-2.02.99-3.02,1.45-1,.46-2.12.86-3.36,1.18l-.37.1-1.89-2.19.27-.08c1.24-.35,2.47-.63,3.68-.84,1.22-.21,2.46-.42,3.72-.62-1.1-.43-2.17-.85-3.21-1.25-1.04-.4-2.03-.88-2.97-1.42l-.27-.16,3.04-1.76.27.16Z" style="fill:#666; stroke-width:0px;"/></g><path d="M96.21,240.82l27.31-15.77c1.06-.61,1.06-2.14,0-2.75l-7.35-4.24c-1.23-.71-2.74-.71-3.97,0l-28.88,16.68c-1.06.61-1.06,2.14,0,2.75l5.77,3.33c2.2,1.27,4.92,1.27,7.12,0Z" style="fill:#666; opacity:.2; stroke-width:0px;"/><path d="M86.53,236.42c1.17.68,2.47,1.01,3.77,1.01,1.27,0,2.54-.34,3.68-1l21.49-12.65c1.37-.79,2.01-2.21,1.94-3.59h.01s-.01-24.75-.01-24.75c0-.05,0-.1,0-.15v-.17s0,0,0,0c-.07-1.23-.72-2.44-1.94-3.14-1.15-.67-2.45-1.01-3.74-1.01v-6.08c0-3.44-1.26-6.06-3.56-7.39-2.3-1.33-5.2-1.11-8.18.61-5.45,3.15-9.73,10.55-9.73,16.85v7.45s-3.75,2.2-3.75,2.2c-1.33.77-1.98,2.13-1.95,3.48h-.02s.01,23.51.01,23.51c-.15,2.02.28,3.83,1.96,4.8ZM107.71,184.89v7.26s-13.41,7.89-13.41,7.89v-5.08c0-4.83,3.53-10.94,7.71-13.36,1.66-.96,3.17-1.18,4.15-.61.98.57,1.55,1.99,1.55,3.9Z" style="fill:#fff; stroke:#606060; stroke-linecap:round; stroke-linejoin:round; stroke-width:2px;"/><path d="M117.41,195.12l.02,25.06h-.01c.07,1.39-.57,2.81-1.94,3.6l-21.49,12.65c-1.14.66-2.41.99-3.68,1v-30.64s27.11-11.66,27.11-11.66Z" style="fill:#fff; stroke:#606060; stroke-linecap:round; stroke-linejoin:round; stroke-width:.5px;"/><path d="M86.53,236.42c-1.68-.98-2.11-2.78-1.96-4.8v-23.51s5.74-1.33,5.74-1.33v30.64c-1.3,0-2.61-.33-3.77-1.01Z" style="fill:#e95420; stroke:#606060; stroke-linecap:round; stroke-linejoin:round; stroke-width:.5px;"/><path d="M93.97,211.4l21.49-12.65c2.6-1.5,2.61-5.26,0-6.77h0c-2.3-1.34-5.15-1.34-7.46,0l-21.49,12.65c-2.6,1.5-2.61,5.26,0,6.77h0c2.3,1.34,5.15,1.34,7.46,0Z" style="fill:#fff; stroke:#606060; stroke-linecap:round; stroke-linejoin:round; stroke-width:.5px;"/><path d="M104.55,197.83h0s3.41-2.01,3.41-2.01l3.22,1.86-3.25,1.92s-.09.06-.14.09c-.89.51-2.33.51-3.22,0-.89-.51-.89-1.34,0-1.86Z" style="fill:#666; opacity:.2; stroke-width:0px;"/><path d="M87.41,207.71h0s3.41-2.01,3.41-2.01l3.22,1.86-3.25,1.92s-.09.06-.14.09c-.89.51-2.33.51-3.22,0-.89-.51-.89-1.34,0-1.86Z" style="fill:#666; opacity:.2; stroke-width:0px;"/><path d="M90.27,206.91h0v-11.95c0-6.3,4.27-13.7,9.73-16.85,2.98-1.72,5.88-1.94,8.18-.61,2.3,1.33,3.56,3.95,3.56,7.39v11.83c.07.34-.12.7-.58.96-.79.46-2.07.46-2.86,0-.39-.23-.59-.53-.59-.83h0v-11.96c0-1.91-.56-3.33-1.55-3.9-.98-.57-2.5-.35-4.15.61-4.18,2.41-7.71,8.53-7.71,13.36v11.95h0v.02h0c0,.29-.2.59-.59.81-.79.46-2.06.46-2.85,0-.39-.22-.58-.52-.59-.81h0,0Z" style="fill:#fff; stroke:#606060; stroke-linecap:round; stroke-linejoin:round; stroke-width:.5px;"/></g></g></svg>