<?xml version="1.0" encoding="UTF-8"?><svg id="a" xmlns="http://www.w3.org/2000/svg" viewBox="0 0 280 280"><path d="M253.36,142.28l-148.96,85.19c-1.4.81-3.85.71-5.47-.23l-73.7-41.73c-1.62-.93-1.8-2.35-.39-3.16l148.96-85.19c1.4-.81,3.85-.71,5.47.23l73.7,41.73c1.62.93,1.8,2.35.39,3.16Z" style="fill:#666; opacity:.2; stroke-width:0px;"/><path d="M243.31,135.98v-4.43c.01-.1.01-.2,0-.29h0s0,0,0,0c-.07-.57-.52-1.15-1.33-1.62l-62.06-35.83c-1.62-.93-4.07-1.04-5.47-.23L31.13,176.32c-.62.36-.93.84-.94,1.34h0s0,4.81,0,4.81h0c.03.6.47,1.24,1.33,1.73l62.06,35.83c.68.39,1.51.64,2.35.73,1.15.13,2.31-.04,3.12-.5l143.32-82.75c.7-.41,1.01-.96.94-1.54h0Z" style="fill:#fff; stroke:#606060; stroke-linecap:round; stroke-linejoin:round; stroke-width:2px;"/><path d="M34.36,179.18v-.03l-4.18-1.49v4.81h0c.03.6.47,1.24,1.33,1.73l62.06,35.83c.68.39,1.51.64,2.35.73v-77.13l-61.57,35.55Z" style="fill:#fff; stroke:#606060; stroke-linecap:round; stroke-linejoin:round; stroke-width:.5px;"/><path d="M99.05,220.26l143.32-82.75c.7-.41,1.01-.96.94-1.54h0v-4.73l-2.9,1.53v.67l-60.48-34.92c-1.62-.93-4.07-1.04-5.47-.23l-78.52,45.33v77.13c1.15.13,2.31-.04,3.12-.5Z" style="fill:#e95420; stroke:#606060; stroke-linecap:round; stroke-linejoin:round; stroke-width:.5px;"/><path d="M242.37,132.79l-143.32,82.75c-1.4.81-3.85.71-5.47-.23l-62.06-35.83c-1.62-.93-1.8-2.35-.39-3.16l143.32-82.75c1.4-.81,3.85-.71,5.47.23l62.06,35.83c1.62.93,1.8,2.35.39,3.16Z" style="fill:#fff; stroke:#606060; stroke-linecap:round; stroke-linejoin:round; stroke-width:.5px;"/><path d="M229.17,130.96l-49.97-29.69c-1.33-.77-3.35-.85-4.5-.19L46.37,175.31c-.65.38-.88.91-.73,1.45.12.41.47.82,1.05,1.15l49.97,29.69c1.33.77,3.35.85,4.5.19l128.33-74.23c.45-.26.7-.6.76-.96.09-.56-.28-1.17-1.08-1.63Z" style="fill:#666; opacity:.2; stroke-width:0px;"/><path d="M185.6,105.73l-7.49-4.35c-.75-.43-1.9-.48-2.55-.11l-7.98,4.64c-.37.21-.5.52-.41.82.07.23.27.46.59.65l7.49,4.35c.75.43,1.9.48,2.55.11l7.98-4.64c.26-.15.4-.34.43-.55.05-.32-.16-.66-.61-.93Z" style="fill:#fff; stroke:#606060; stroke-linecap:round; stroke-linejoin:round; stroke-width:.5px;"/><path d="M175.25,111.73l-7.49-4.35c-.33-.19-.53-.42-.59-.65h-.03s0,1.85,0,1.85h0c.02.28.23.56.62.79l7.49,4.35c.39.23.89.35,1.37.36v-1.99c-.48-.01-.98-.13-1.37-.36Z" style="fill:#fff; stroke:#606060; stroke-linecap:round; stroke-linejoin:round; stroke-width:.5px;"/><path d="M177.8,113.83l7.98-4.64c.31-.18.45-.43.44-.68h0s0-1.85,0-1.85h0c-.03.21-.17.4-.43.55l-7.98,4.64c-.31.18-.74.26-1.18.25v1.99c.44.01.87-.07,1.18-.25Z" style="fill:#bfbfbf; stroke:#606060; stroke-miterlimit:10; stroke-width:.5px;"/><path d="M172.44,113.35l-7.49-4.35c-.75-.43-1.9-.48-2.55-.11l-7.98,4.64c-.37.21-.5.52-.41.82.07.23.27.46.59.65l7.49,4.35c.75.43,1.9.48,2.55.11l7.98-4.64c.26-.15.4-.34.43-.55.05-.32-.16-.66-.61-.93Z" style="fill:#fff; stroke:#606060; stroke-linecap:round; stroke-linejoin:round; stroke-width:.5px;"/><path d="M162.1,119.35l-7.49-4.35c-.33-.19-.53-.42-.59-.65h-.03s0,1.85,0,1.85h0c.02.28.23.56.62.79l7.49,4.35c.39.23.89.35,1.37.36v-1.99c-.48-.01-.98-.13-1.37-.36Z" style="fill:#fff; stroke:#606060; stroke-linecap:round; stroke-linejoin:round; stroke-width:.5px;"/><path d="M164.65,121.45l7.98-4.64c.31-.18.45-.43.44-.68h0s0-1.85,0-1.85h0c-.03.21-.17.4-.43.55l-7.98,4.64c-.31.18-.74.26-1.18.25v1.99c.44.01.87-.07,1.18-.25Z" style="fill:#bfbfbf; stroke:#606060; stroke-miterlimit:10; stroke-width:.5px;"/><path d="M159.29,120.97l-7.49-4.35c-.75-.43-1.9-.48-2.55-.11l-7.98,4.64c-.37.21-.5.52-.41.82.07.23.27.46.59.65l7.49,4.35c.75.43,1.9.48,2.55.11l7.98-4.64c.26-.15.4-.34.43-.55.05-.32-.16-.66-.61-.93Z" style="fill:#fff; stroke:#606060; stroke-linecap:round; stroke-linejoin:round; stroke-width:.5px;"/><path d="M148.95,126.97l-7.49-4.35c-.33-.19-.53-.42-.59-.65h-.03s0,1.85,0,1.85h0c.02.28.23.56.62.79l7.49,4.35c.39.23.89.35,1.37.36v-1.99c-.48-.01-.98-.13-1.37-.36Z" style="fill:#fff; stroke:#606060; stroke-linecap:round; stroke-linejoin:round; stroke-width:.5px;"/><path d="M151.5,129.07l7.98-4.64c.31-.18.45-.43.44-.68h0s0-1.85,0-1.85h0c-.03.21-.17.4-.43.55l-7.98,4.64c-.31.18-.74.26-1.18.25v1.99c.44.01.87-.07,1.18-.25Z" style="fill:#bfbfbf; stroke:#606060; stroke-miterlimit:10; stroke-width:.5px;"/><path d="M146.14,128.59l-7.49-4.35c-.75-.43-1.9-.48-2.55-.11l-7.98,4.64c-.37.21-.5.52-.41.82.07.23.27.46.59.65l7.49,4.35c.75.43,1.9.48,2.55.11l7.98-4.64c.26-.15.4-.34.43-.55.05-.32-.16-.66-.61-.93Z" style="fill:#fff; stroke:#606060; stroke-linecap:round; stroke-linejoin:round; stroke-width:.5px;"/><path d="M135.79,134.6l-7.49-4.35c-.33-.19-.53-.42-.59-.65h-.03s0,1.85,0,1.85h0c.02.28.23.56.62.79l7.49,4.35c.39.23.89.35,1.37.36v-1.99c-.48-.01-.98-.13-1.37-.36Z" style="fill:#fff; stroke:#606060; stroke-linecap:round; stroke-linejoin:round; stroke-width:.5px;"/><path d="M138.34,136.69l7.98-4.64c.31-.18.45-.43.44-.68h0s0-1.85,0-1.85h0c-.03.21-.17.4-.43.55l-7.98,4.64c-.31.18-.74.26-1.18.25v1.99c.44.01.87-.07,1.18-.25Z" style="fill:#bfbfbf; stroke:#606060; stroke-miterlimit:10; stroke-width:.5px;"/><path d="M132.99,136.21l-7.49-4.35c-.75-.43-1.9-.48-2.55-.11l-7.98,4.64c-.37.21-.5.52-.41.82.07.23.27.46.59.65l7.49,4.35c.75.43,1.9.48,2.55.11l7.98-4.64c.26-.15.4-.34.43-.55.05-.32-.16-.66-.61-.93Z" style="fill:#fff; stroke:#606060; stroke-linecap:round; stroke-linejoin:round; stroke-width:.5px;"/><path d="M122.64,142.22l-7.49-4.35c-.33-.19-.53-.42-.59-.65h-.03s0,1.85,0,1.85h0c.02.28.23.56.62.79l7.49,4.35c.39.23.89.35,1.37.36v-1.99c-.48-.01-.98-.13-1.37-.36Z" style="fill:#fff; stroke:#606060; stroke-linecap:round; stroke-linejoin:round; stroke-width:.5px;"/><path d="M125.19,144.31l7.98-4.64c.31-.18.45-.43.44-.68h0s0-1.85,0-1.85h0c-.03.21-.17.4-.43.55l-7.98,4.64c-.31.18-.74.26-1.18.25v1.99c.44.01.87-.07,1.18-.25Z" style="fill:#bfbfbf; stroke:#606060; stroke-miterlimit:10; stroke-width:.5px;"/><path d="M119.84,143.83l-7.49-4.35c-.75-.43-1.9-.48-2.55-.11l-7.98,4.64c-.37.21-.5.52-.41.82.07.23.27.46.59.65l7.49,4.35c.75.43,1.9.48,2.55.11l7.98-4.64c.26-.15.4-.34.43-.55.05-.32-.16-.66-.61-.93Z" style="fill:#fff; stroke:#606060; stroke-linecap:round; stroke-linejoin:round; stroke-width:.5px;"/><path d="M109.49,149.84l-7.49-4.35c-.33-.19-.53-.42-.59-.65h-.03s0,1.85,0,1.85h0c.02.28.23.56.62.79l7.49,4.35c.39.23.89.35,1.37.36v-1.99c-.48-.01-.98-.13-1.37-.36Z" style="fill:#fff; stroke:#606060; stroke-linecap:round; stroke-linejoin:round; stroke-width:.5px;"/><path d="M112.04,151.93l7.98-4.64c.31-.18.45-.43.44-.68h0s0-1.85,0-1.85h0c-.03.21-.17.4-.43.55l-7.98,4.64c-.31.18-.74.26-1.18.25v1.99c.44.01.87-.07,1.18-.25Z" style="fill:#bfbfbf; stroke:#606060; stroke-miterlimit:10; stroke-width:.5px;"/><path d="M106.69,151.45l-7.49-4.35c-.75-.43-1.9-.48-2.55-.11l-7.98,4.64c-.37.21-.5.52-.41.82.07.23.27.46.59.65l7.49,4.35c.75.43,1.9.48,2.55.11l7.98-4.64c.26-.15.4-.34.43-.55.05-.32-.16-.66-.61-.93Z" style="fill:#fff; stroke:#606060; stroke-linecap:round; stroke-linejoin:round; stroke-width:.5px;"/><path d="M96.34,157.46l-7.49-4.35c-.33-.19-.53-.42-.59-.65h-.03s0,1.85,0,1.85h0c.02.28.23.56.62.79l7.49,4.35c.39.23.89.35,1.37.36v-1.99c-.48-.01-.98-.13-1.37-.36Z" style="fill:#fff; stroke:#606060; stroke-linecap:round; stroke-linejoin:round; stroke-width:.5px;"/><path d="M98.89,159.55l7.98-4.64c.31-.18.45-.43.44-.68h0s0-1.85,0-1.85h0c-.03.21-.17.4-.43.55l-7.98,4.64c-.31.18-.74.26-1.18.25v1.99c.44.01.87-.07,1.18-.25Z" style="fill:#bfbfbf; stroke:#606060; stroke-miterlimit:10; stroke-width:.5px;"/><path d="M93.53,159.07l-7.49-4.35c-.75-.43-1.9-.48-2.55-.11l-7.98,4.64c-.37.21-.5.52-.41.82.07.23.27.46.59.65l7.49,4.35c.75.43,1.9.48,2.55.11l7.98-4.64c.26-.15.4-.34.43-.55.05-.32-.16-.66-.61-.93Z" style="fill:#fff; stroke:#606060; stroke-linecap:round; stroke-linejoin:round; stroke-width:.5px;"/><path d="M83.19,165.08l-7.49-4.35c-.33-.19-.53-.42-.59-.65h-.03s0,1.85,0,1.85h0c.02.28.23.56.62.79l7.49,4.35c.39.23.89.35,1.37.36v-1.99c-.48-.01-.98-.13-1.37-.36Z" style="fill:#fff; stroke:#606060; stroke-linecap:round; stroke-linejoin:round; stroke-width:.5px;"/><path d="M85.74,167.17l7.98-4.64c.31-.18.45-.43.44-.68h0s0-1.85,0-1.85h0c-.03.21-.17.4-.43.55l-7.98,4.64c-.31.18-.74.26-1.18.25v1.99c.44.01.87-.07,1.18-.25Z" style="fill:#bfbfbf; stroke:#606060; stroke-miterlimit:10; stroke-width:.5px;"/><path d="M80.38,166.69l-7.49-4.35c-.75-.43-1.9-.48-2.55-.11l-7.98,4.64c-.37.21-.5.52-.41.82.07.23.27.46.59.65l7.49,4.35c.75.43,1.9.48,2.55.11l7.98-4.64c.26-.15.4-.34.43-.55.05-.32-.16-.66-.61-.93Z" style="fill:#fff; stroke:#606060; stroke-linecap:round; stroke-linejoin:round; stroke-width:.5px;"/><path d="M70.04,172.7l-7.49-4.35c-.33-.19-.53-.42-.59-.65h-.03s0,1.85,0,1.85h0c.02.28.23.56.62.79l7.49,4.35c.39.23.89.35,1.37.36v-1.99c-.48-.01-.98-.13-1.37-.36Z" style="fill:#fff; stroke:#606060; stroke-linecap:round; stroke-linejoin:round; stroke-width:.5px;"/><path d="M72.59,174.79l7.98-4.64c.31-.18.45-.43.44-.68h0s0-1.85,0-1.85h0c-.03.21-.17.4-.43.55l-7.98,4.64c-.31.18-.74.26-1.18.25v1.99c.44.01.87-.07,1.18-.25Z" style="fill:#bfbfbf; stroke:#606060; stroke-miterlimit:10; stroke-width:.5px;"/><path d="M67.23,174.31l-7.49-4.35c-.75-.43-1.9-.48-2.55-.11l-7.98,4.64c-.37.21-.5.52-.41.82.07.23.27.46.59.65l7.49,4.35c.75.43,1.9.48,2.55.11l7.98-4.64c.26-.15.4-.34.43-.55.05-.32-.16-.66-.61-.93Z" style="fill:#fff; stroke:#606060; stroke-linecap:round; stroke-linejoin:round; stroke-width:.5px;"/><path d="M56.88,180.32l-7.49-4.35c-.33-.19-.53-.42-.59-.65h-.03s0,1.85,0,1.85h0c.02.28.23.56.62.79l7.49,4.35c.39.23.89.35,1.37.36v-1.99c-.48-.01-.98-.13-1.37-.36Z" style="fill:#fff; stroke:#606060; stroke-linecap:round; stroke-linejoin:round; stroke-width:.5px;"/><path d="M59.43,182.41l7.98-4.64c.31-.18.45-.43.44-.68h0s0-1.85,0-1.85h0c-.03.21-.17.4-.43.55l-7.98,4.64c-.31.18-.74.26-1.18.25v1.99c.44.01.87-.07,1.18-.25Z" style="fill:#bfbfbf; stroke:#606060; stroke-miterlimit:10; stroke-width:.5px;"/><path d="M198.59,112.54l-7.49-4.35c-.75-.43-1.9-.48-2.55-.11l-15.39,8.92c-.37.21-.5.52-.41.82.07.23.27.46.59.65l7.49,4.35c.75.43,1.9.48,2.55.11l15.39-8.92c.26-.15.4-.34.43-.55.05-.32-.16-.66-.61-.93Z" style="fill:#fff; stroke:#606060; stroke-linecap:round; stroke-linejoin:round; stroke-width:.5px;"/><path d="M180.84,122.83l-7.49-4.35c-.33-.19-.53-.42-.59-.65h-.03s0,1.85,0,1.85h0c.02.28.23.56.62.79l7.49,4.35c.39.23.89.35,1.37.36v-1.99c-.48-.01-.98-.13-1.37-.36Z" style="fill:#fff; stroke:#606060; stroke-linecap:round; stroke-linejoin:round; stroke-width:.5px;"/><path d="M183.39,124.93l15.39-8.92c.31-.18.45-.43.44-.68h0s0-1.85,0-1.85h0c-.03.21-.17.4-.43.55l-15.39,8.92c-.31.18-.74.26-1.18.25v1.99c.44.01.87-.07,1.18-.25Z" style="fill:#bfbfbf; stroke:#606060; stroke-miterlimit:10; stroke-width:.5px;"/><path d="M178.03,124.44l-7.49-4.35c-.75-.43-1.9-.48-2.55-.11l-7.98,4.64c-.37.21-.5.52-.41.82.07.23.27.46.59.65l7.49,4.35c.75.43,1.9.48,2.55.11l7.98-4.64c.26-.15.4-.34.43-.55.05-.32-.16-.66-.61-.93Z" style="fill:#fff; stroke:#606060; stroke-linecap:round; stroke-linejoin:round; stroke-width:.5px;"/><path d="M167.69,130.45l-7.49-4.35c-.33-.19-.53-.42-.59-.65h-.03s0,1.85,0,1.85h0c.02.28.23.56.62.79l7.49,4.35c.39.23.89.35,1.37.36v-1.99c-.48-.01-.98-.13-1.37-.36Z" style="fill:#fff; stroke:#606060; stroke-linecap:round; stroke-linejoin:round; stroke-width:.5px;"/><path d="M170.24,132.55l7.98-4.64c.31-.18.45-.43.44-.68h0s0-1.85,0-1.85h0c-.03.21-.17.4-.43.55l-7.98,4.64c-.31.18-.74.26-1.18.25v1.99c.44.01.87-.07,1.18-.25Z" style="fill:#bfbfbf; stroke:#606060; stroke-miterlimit:10; stroke-width:.5px;"/><path d="M164.88,132.06l-7.49-4.35c-.75-.43-1.9-.48-2.55-.11l-7.98,4.64c-.37.21-.5.52-.41.82.07.23.27.46.59.65l7.49,4.35c.75.43,1.9.48,2.55.11l7.98-4.64c.26-.15.4-.34.43-.55.05-.32-.16-.66-.61-.93Z" style="fill:#fff; stroke:#606060; stroke-linecap:round; stroke-linejoin:round; stroke-width:.5px;"/><path d="M154.54,138.07l-7.49-4.35c-.33-.19-.53-.42-.59-.65h-.03s0,1.85,0,1.85h0c.02.28.23.56.62.79l7.49,4.35c.39.23.89.35,1.37.36v-1.99c-.48-.01-.98-.13-1.37-.36Z" style="fill:#fff; stroke:#606060; stroke-linecap:round; stroke-linejoin:round; stroke-width:.5px;"/><path d="M157.09,140.17l7.98-4.64c.31-.18.45-.43.44-.68h0s0-1.85,0-1.85h0c-.03.21-.17.4-.43.55l-7.98,4.64c-.31.18-.74.26-1.18.25v1.99c.44.01.87-.07,1.18-.25Z" style="fill:#bfbfbf; stroke:#606060; stroke-miterlimit:10; stroke-width:.5px;"/><path d="M151.73,139.68l-7.49-4.35c-.75-.43-1.9-.48-2.55-.11l-7.98,4.64c-.37.21-.5.52-.41.82.07.23.27.46.59.65l7.49,4.35c.75.43,1.9.48,2.55.11l7.98-4.64c.26-.15.4-.34.43-.55.05-.32-.16-.66-.61-.93Z" style="fill:#fff; stroke:#606060; stroke-linecap:round; stroke-linejoin:round; stroke-width:.5px;"/><path d="M141.38,145.69l-7.49-4.35c-.33-.19-.53-.42-.59-.65h-.03s0,1.85,0,1.85h0c.02.28.23.56.62.79l7.49,4.35c.39.23.89.35,1.37.36v-1.99c-.48-.01-.98-.13-1.37-.36Z" style="fill:#fff; stroke:#606060; stroke-linecap:round; stroke-linejoin:round; stroke-width:.5px;"/><path d="M143.93,147.79l7.98-4.64c.31-.18.45-.43.44-.68h0s0-1.85,0-1.85h0c-.03.21-.17.4-.43.55l-7.98,4.64c-.31.18-.74.26-1.18.25v1.99c.44.01.87-.07,1.18-.25Z" style="fill:#bfbfbf; stroke:#606060; stroke-miterlimit:10; stroke-width:.5px;"/><path d="M138.58,147.3l-7.49-4.35c-.75-.43-1.9-.48-2.55-.11l-7.98,4.64c-.37.21-.5.52-.41.82.07.23.27.46.59.65l7.49,4.35c.75.43,1.9.48,2.55.11l7.98-4.64c.26-.15.4-.34.43-.55.05-.32-.16-.66-.61-.93Z" style="fill:#fff; stroke:#606060; stroke-linecap:round; stroke-linejoin:round; stroke-width:.5px;"/><path d="M128.23,153.31l-7.49-4.35c-.33-.19-.53-.42-.59-.65h-.03s0,1.85,0,1.85h0c.02.28.23.56.62.79l7.49,4.35c.39.23.89.35,1.37.36v-1.99c-.48-.01-.98-.13-1.37-.36Z" style="fill:#fff; stroke:#606060; stroke-linecap:round; stroke-linejoin:round; stroke-width:.5px;"/><path d="M130.78,155.41l7.98-4.64c.31-.18.45-.43.44-.68h0s0-1.85,0-1.85h0c-.03.21-.17.4-.43.55l-7.98,4.64c-.31.18-.74.26-1.18.25v1.99c.44.01.87-.07,1.18-.25Z" style="fill:#bfbfbf; stroke:#606060; stroke-miterlimit:10; stroke-width:.5px;"/><path d="M125.43,154.92l-7.49-4.35c-.75-.43-1.9-.48-2.55-.11l-7.98,4.64c-.37.21-.5.52-.41.82.07.23.27.46.59.65l7.49,4.35c.75.43,1.9.48,2.55.11l7.98-4.64c.26-.15.4-.34.43-.55.05-.32-.16-.66-.61-.93Z" style="fill:#fff; stroke:#606060; stroke-linecap:round; stroke-linejoin:round; stroke-width:.5px;"/><path d="M115.08,160.93l-7.49-4.35c-.33-.19-.53-.42-.59-.65h-.03s0,1.85,0,1.85h0c.02.28.23.56.62.79l7.49,4.35c.39.23.89.35,1.37.36v-1.99c-.48-.01-.98-.13-1.37-.36Z" style="fill:#fff; stroke:#606060; stroke-linecap:round; stroke-linejoin:round; stroke-width:.5px;"/><path d="M117.63,163.03l7.98-4.64c.31-.18.45-.43.44-.68h0s0-1.85,0-1.85h0c-.03.21-.17.4-.43.55l-7.98,4.64c-.31.18-.74.26-1.18.25v1.99c.44.01.87-.07,1.18-.25Z" style="fill:#bfbfbf; stroke:#606060; stroke-miterlimit:10; stroke-width:.5px;"/><path d="M112.27,162.54l-7.49-4.35c-.75-.43-1.9-.48-2.55-.11l-7.98,4.64c-.37.21-.5.52-.41.82.07.23.27.46.59.65l7.49,4.35c.75.43,1.9.48,2.55.11l7.98-4.64c.26-.15.4-.34.43-.55.05-.32-.16-.66-.61-.93Z" style="fill:#fff; stroke:#606060; stroke-linecap:round; stroke-linejoin:round; stroke-width:.5px;"/><path d="M101.93,168.55l-7.49-4.35c-.33-.19-.53-.42-.59-.65h-.03s0,1.85,0,1.85h0c.02.28.23.56.62.79l7.49,4.35c.39.23.89.35,1.37.36v-1.99c-.48-.01-.98-.13-1.37-.36Z" style="fill:#fff; stroke:#606060; stroke-linecap:round; stroke-linejoin:round; stroke-width:.5px;"/><path d="M104.48,170.65l7.98-4.64c.31-.18.45-.43.44-.68h0s0-1.85,0-1.85h0c-.03.21-.17.4-.43.55l-7.98,4.64c-.31.18-.74.26-1.18.25v1.99c.44.01.87-.07,1.18-.25Z" style="fill:#bfbfbf; stroke:#606060; stroke-miterlimit:10; stroke-width:.5px;"/><path d="M99.12,170.16l-7.49-4.35c-.75-.43-1.9-.48-2.55-.11l-7.98,4.64c-.37.21-.5.52-.41.82.07.23.27.46.59.65l7.49,4.35c.75.43,1.9.48,2.55.11l7.98-4.64c.26-.15.4-.34.43-.55.05-.32-.16-.66-.61-.93Z" style="fill:#fff; stroke:#606060; stroke-linecap:round; stroke-linejoin:round; stroke-width:.5px;"/><path d="M88.78,176.17l-7.49-4.35c-.33-.19-.53-.42-.59-.65h-.03s0,1.85,0,1.85h0c.02.28.23.56.62.79l7.49,4.35c.39.23.89.35,1.37.36v-1.99c-.48-.01-.98-.13-1.37-.36Z" style="fill:#fff; stroke:#606060; stroke-linecap:round; stroke-linejoin:round; stroke-width:.5px;"/><path d="M91.33,178.27l7.98-4.64c.31-.18.45-.43.44-.68h0s0-1.85,0-1.85h0c-.03.21-.17.4-.43.55l-7.98,4.64c-.31.18-.74.26-1.18.25v1.99c.44.01.87-.07,1.18-.25Z" style="fill:#bfbfbf; stroke:#606060; stroke-miterlimit:10; stroke-width:.5px;"/><path d="M85.97,177.78l-7.49-4.35c-.75-.43-1.9-.48-2.55-.11l-14.45,8.36c-.37.21-.5.52-.41.82.07.23.27.46.59.65l7.49,4.35c.75.43,1.9.48,2.55.11l14.45-8.36c.26-.15.4-.34.43-.55.05-.32-.16-.66-.61-.93Z" style="fill:#fff; stroke:#606060; stroke-linecap:round; stroke-linejoin:round; stroke-width:.5px;"/><path d="M69.16,187.51l-7.49-4.35c-.33-.19-.53-.42-.59-.65h-.03s0,1.85,0,1.85h0c.02.28.23.56.62.79l7.49,4.35c.39.23.89.35,1.37.36v-1.99c-.48-.01-.98-.13-1.37-.36Z" style="fill:#fff; stroke:#606060; stroke-linecap:round; stroke-linejoin:round; stroke-width:.5px;"/><path d="M71.71,189.61l14.45-8.36c.31-.18.45-.43.44-.68h0s0-1.85,0-1.85h0c-.03.21-.17.4-.43.55l-14.45,8.36c-.31.18-.74.26-1.18.25v1.99c.44.01.87-.07,1.18-.25Z" style="fill:#bfbfbf; stroke:#606060; stroke-miterlimit:10; stroke-width:.5px;"/><path d="M211.07,119.7l-7.49-4.35c-.75-.43-1.9-.48-2.55-.11l-22.05,12.81c-.37.21-.5.52-.41.82.07.23.27.46.59.65l7.49,4.35c.75.43,1.9.48,2.55.11l22.05-12.81c.26-.15.4-.34.43-.55.05-.32-.16-.66-.61-.93Z" style="fill:#fff; stroke:#606060; stroke-linecap:round; stroke-linejoin:round; stroke-width:.5px;"/><path d="M186.65,133.88l-7.49-4.35c-.33-.19-.53-.42-.59-.65h-.03s0,1.85,0,1.85h0c.02.28.23.56.62.79l7.49,4.35c.39.23.89.35,1.37.36v-1.99c-.48-.01-.98-.13-1.37-.36Z" style="fill:#fff; stroke:#606060; stroke-linecap:round; stroke-linejoin:round; stroke-width:.5px;"/><path d="M189.2,135.98l22.05-12.81c.31-.18.45-.43.44-.68h0s0-1.85,0-1.85h0c-.03.21-.17.4-.43.55l-22.05,12.81c-.31.18-.74.26-1.18.25v1.99c.44.01.87-.07,1.18-.25Z" style="fill:#bfbfbf; stroke:#606060; stroke-miterlimit:10; stroke-width:.5px;"/><path d="M183.85,135.49l-7.49-4.35c-.75-.43-1.9-.48-2.55-.11l-7.98,4.64c-.37.21-.5.52-.41.82.07.23.27.46.59.65l7.49,4.35c.75.43,1.9.48,2.55.11l7.98-4.64c.26-.15.4-.34.43-.55.05-.32-.16-.66-.61-.93Z" style="fill:#fff; stroke:#606060; stroke-linecap:round; stroke-linejoin:round; stroke-width:.5px;"/><path d="M173.5,141.5l-7.49-4.35c-.33-.19-.53-.42-.59-.65h-.03s0,1.85,0,1.85h0c.02.28.23.56.62.79l7.49,4.35c.39.23.89.35,1.37.36v-1.99c-.48-.01-.98-.13-1.37-.36Z" style="fill:#fff; stroke:#606060; stroke-linecap:round; stroke-linejoin:round; stroke-width:.5px;"/><path d="M176.05,143.6l7.98-4.64c.31-.18.45-.43.44-.68h0s0-1.85,0-1.85h0c-.03.21-.17.4-.43.55l-7.98,4.64c-.31.18-.74.26-1.18.25v1.99c.44.01.87-.07,1.18-.25Z" style="fill:#bfbfbf; stroke:#606060; stroke-miterlimit:10; stroke-width:.5px;"/><path d="M170.69,143.11l-7.49-4.35c-.75-.43-1.9-.48-2.55-.11l-7.98,4.64c-.37.21-.5.52-.41.82.07.23.27.46.59.65l7.49,4.35c.75.43,1.9.48,2.55.11l7.98-4.64c.26-.15.4-.34.43-.55.05-.32-.16-.66-.61-.93Z" style="fill:#fff; stroke:#606060; stroke-linecap:round; stroke-linejoin:round; stroke-width:.5px;"/><path d="M160.35,149.12l-7.49-4.35c-.33-.19-.53-.42-.59-.65h-.03s0,1.85,0,1.85h0c.02.28.23.56.62.79l7.49,4.35c.39.23.89.35,1.37.36v-1.99c-.48-.01-.98-.13-1.37-.36Z" style="fill:#fff; stroke:#606060; stroke-linecap:round; stroke-linejoin:round; stroke-width:.5px;"/><path d="M162.9,151.22l7.98-4.64c.31-.18.45-.43.44-.68h0s0-1.85,0-1.85h0c-.03.21-.17.4-.43.55l-7.98,4.64c-.31.18-.74.26-1.18.25v1.99c.44.01.87-.07,1.18-.25Z" style="fill:#bfbfbf; stroke:#606060; stroke-miterlimit:10; stroke-width:.5px;"/><path d="M157.54,150.73l-7.49-4.35c-.75-.43-1.9-.48-2.55-.11l-7.98,4.64c-.37.21-.5.52-.41.82.07.23.27.46.59.65l7.49,4.35c.75.43,1.9.48,2.55.11l7.98-4.64c.26-.15.4-.34.43-.55.05-.32-.16-.66-.61-.93Z" style="fill:#fff; stroke:#606060; stroke-linecap:round; stroke-linejoin:round; stroke-width:.5px;"/><path d="M147.2,156.74l-7.49-4.35c-.33-.19-.53-.42-.59-.65h-.03s0,1.85,0,1.85h0c.02.28.23.56.62.79l7.49,4.35c.39.23.89.35,1.37.36v-1.99c-.48-.01-.98-.13-1.37-.36Z" style="fill:#fff; stroke:#606060; stroke-linecap:round; stroke-linejoin:round; stroke-width:.5px;"/><path d="M149.75,158.84l7.98-4.64c.31-.18.45-.43.44-.68h0s0-1.85,0-1.85h0c-.03.21-.17.4-.43.55l-7.98,4.64c-.31.18-.74.26-1.18.25v1.99c.44.01.87-.07,1.18-.25Z" style="fill:#bfbfbf; stroke:#606060; stroke-miterlimit:10; stroke-width:.5px;"/><path d="M144.39,158.35l-7.49-4.35c-.75-.43-1.9-.48-2.55-.11l-7.98,4.64c-.37.21-.5.52-.41.82.07.23.27.46.59.65l7.49,4.35c.75.43,1.9.48,2.55.11l7.98-4.64c.26-.15.4-.34.43-.55.05-.32-.16-.66-.61-.93Z" style="fill:#fff; stroke:#606060; stroke-linecap:round; stroke-linejoin:round; stroke-width:.5px;"/><path d="M134.04,164.36l-7.49-4.35c-.33-.19-.53-.42-.59-.65h-.03s0,1.85,0,1.85h0c.02.28.23.56.62.79l7.49,4.35c.39.23.89.35,1.37.36v-1.99c-.48-.01-.98-.13-1.37-.36Z" style="fill:#fff; stroke:#606060; stroke-linecap:round; stroke-linejoin:round; stroke-width:.5px;"/><path d="M136.59,166.46l7.98-4.64c.31-.18.45-.43.44-.68h0s0-1.85,0-1.85h0c-.03.21-.17.4-.43.55l-7.98,4.64c-.31.18-.74.26-1.18.25v1.99c.44.01.87-.07,1.18-.25Z" style="fill:#bfbfbf; stroke:#606060; stroke-miterlimit:10; stroke-width:.5px;"/><path d="M131.24,165.97l-7.49-4.35c-.75-.43-1.9-.48-2.55-.11l-7.98,4.64c-.37.21-.5.52-.41.82.07.23.27.46.59.65l7.49,4.35c.75.43,1.9.48,2.55.11l7.98-4.64c.26-.15.4-.34.43-.55.05-.32-.16-.66-.61-.93Z" style="fill:#fff; stroke:#606060; stroke-linecap:round; stroke-linejoin:round; stroke-width:.5px;"/><path d="M120.89,171.98l-7.49-4.35c-.33-.19-.53-.42-.59-.65h-.03s0,1.85,0,1.85h0c.02.28.23.56.62.79l7.49,4.35c.39.23.89.35,1.37.36v-1.99c-.48-.01-.98-.13-1.37-.36Z" style="fill:#fff; stroke:#606060; stroke-linecap:round; stroke-linejoin:round; stroke-width:.5px;"/><path d="M123.44,174.08l7.98-4.64c.31-.18.45-.43.44-.68h0s0-1.85,0-1.85h0c-.03.21-.17.4-.43.55l-7.98,4.64c-.31.18-.74.26-1.18.25v1.99c.44.01.87-.07,1.18-.25Z" style="fill:#bfbfbf; stroke:#606060; stroke-miterlimit:10; stroke-width:.5px;"/><path d="M118.09,173.59l-7.49-4.35c-.75-.43-1.9-.48-2.55-.11l-7.98,4.64c-.37.21-.5.52-.41.82.07.23.27.46.59.65l7.49,4.35c.75.43,1.9.48,2.55.11l7.98-4.64c.26-.15.4-.34.43-.55.05-.32-.16-.66-.61-.93Z" style="fill:#fff; stroke:#606060; stroke-linecap:round; stroke-linejoin:round; stroke-width:.5px;"/><path d="M107.74,179.6l-7.49-4.35c-.33-.19-.53-.42-.59-.65h-.03s0,1.85,0,1.85h0c.02.28.23.56.62.79l7.49,4.35c.39.23.89.35,1.37.36v-1.99c-.48-.01-.98-.13-1.37-.36Z" style="fill:#fff; stroke:#606060; stroke-linecap:round; stroke-linejoin:round; stroke-width:.5px;"/><path d="M110.29,181.7l7.98-4.64c.31-.18.45-.43.44-.68h0s0-1.85,0-1.85h0c-.03.21-.17.4-.43.55l-7.98,4.64c-.31.18-.74.26-1.18.25v1.99c.44.01.87-.07,1.18-.25Z" style="fill:#bfbfbf; stroke:#606060; stroke-miterlimit:10; stroke-width:.5px;"/><path d="M104.94,181.22l-7.49-4.35c-.75-.43-1.9-.48-2.55-.11l-20.88,12.1c-.37.21-.5.52-.41.82.07.23.27.46.59.65l7.49,4.35c.75.43,1.9.48,2.55.11l20.88-12.1c.26-.15.4-.34.43-.55.05-.32-.16-.66-.61-.93Z" style="fill:#fff; stroke:#606060; stroke-linecap:round; stroke-linejoin:round; stroke-width:.5px;"/><path d="M81.69,194.68l-7.49-4.35c-.33-.19-.53-.42-.59-.65h-.03s0,1.85,0,1.85h0c.02.28.23.56.62.79l7.49,4.35c.39.23.89.35,1.37.36v-1.99c-.48-.01-.98-.13-1.37-.36Z" style="fill:#fff; stroke:#606060; stroke-linecap:round; stroke-linejoin:round; stroke-width:.5px;"/><path d="M84.24,196.77l20.88-12.1c.31-.18.45-.43.44-.68h0s0-1.85,0-1.85h0c-.03.21-.17.4-.43.55l-20.88,12.1c-.31.18-.74.26-1.18.25v1.99c.44.01.87-.07,1.18-.25Z" style="fill:#bfbfbf; stroke:#606060; stroke-miterlimit:10; stroke-width:.5px;"/><path d="M223.22,127.32l-7.49-4.35c-.75-.43-1.9-.48-2.55-.11l-7.98,4.64c-.37.21-.5.52-.41.82.07.23.27.46.59.65l7.49,4.35c.75.43,1.9.48,2.55.11l7.98-4.64c.26-.15.4-.34.43-.55.05-.32-.16-.66-.61-.93Z" style="fill:#fff; stroke:#606060; stroke-linecap:round; stroke-linejoin:round; stroke-width:.5px;"/><path d="M212.87,133.33l-7.49-4.35c-.33-.19-.53-.42-.59-.65h-.03s0,1.85,0,1.85h0c.02.28.23.56.62.79l7.49,4.35c.39.23.89.35,1.37.36v-1.99c-.48-.01-.98-.13-1.37-.36Z" style="fill:#fff; stroke:#606060; stroke-linecap:round; stroke-linejoin:round; stroke-width:.5px;"/><path d="M215.42,135.43l7.98-4.64c.31-.18.45-.43.44-.68h0s0-1.85,0-1.85h0c-.03.21-.17.4-.43.55l-7.98,4.64c-.31.18-.74.26-1.18.25v1.99c.44.01.87-.07,1.18-.25Z" style="fill:#bfbfbf; stroke:#606060; stroke-miterlimit:10; stroke-width:.5px;"/><path d="M210.06,134.94l-7.49-4.35c-.75-.43-1.9-.48-2.55-.11l-7.98,4.64c-.37.21-.5.52-.41.82.07.23.27.46.59.65l7.49,4.35c.75.43,1.9.48,2.55.11l7.98-4.64c.26-.15.4-.34.43-.55.05-.32-.16-.66-.61-.93Z" style="fill:#fff; stroke:#606060; stroke-linecap:round; stroke-linejoin:round; stroke-width:.5px;"/><path d="M199.72,140.95l-7.49-4.35c-.33-.19-.53-.42-.59-.65h-.03s0,1.85,0,1.85h0c.02.28.23.56.62.79l7.49,4.35c.39.23.89.35,1.37.36v-1.99c-.48-.01-.98-.13-1.37-.36Z" style="fill:#fff; stroke:#606060; stroke-linecap:round; stroke-linejoin:round; stroke-width:.5px;"/><path d="M202.27,143.05l7.98-4.64c.31-.18.45-.43.44-.68h0s0-1.85,0-1.85h0c-.03.21-.17.4-.43.55l-7.98,4.64c-.31.18-.74.26-1.18.25v1.99c.44.01.87-.07,1.18-.25Z" style="fill:#bfbfbf; stroke:#606060; stroke-miterlimit:10; stroke-width:.5px;"/><path d="M196.44,142.81l-7.49-4.35c-.75-.43-1.9-.48-2.55-.11l-73.65,42.37c-.37.21-.5.52-.41.82.07.23.27.46.59.65l7.49,4.35c.75.43,1.9.48,2.55.11l73.65-42.37c.26-.15.4-.34.43-.55.05-.32-.16-.66-.61-.93Z" style="fill:#fff; stroke:#606060; stroke-linecap:round; stroke-linejoin:round; stroke-width:.5px;"/><path d="M120.42,186.55l-7.49-4.35c-.33-.19-.53-.42-.59-.65h-.03s0,1.85,0,1.85h0c.02.28.23.56.62.79l7.49,4.35c.39.23.89.35,1.37.36v-1.99c-.48-.01-.98-.13-1.37-.36Z" style="fill:#fff; stroke:#606060; stroke-linecap:round; stroke-linejoin:round; stroke-width:.5px;"/><path d="M122.97,188.64l73.65-42.37c.31-.18.45-.43.44-.68h0s0-1.85,0-1.85h0c-.03.21-.17.4-.43.55l-73.65,42.37c-.31.18-.74.26-1.18.25v1.99c.44.01.87-.07,1.18-.25Z" style="fill:#bfbfbf; stroke:#606060; stroke-miterlimit:10; stroke-width:.5px;"/><path d="M118,188.28l-7.49-4.35c-.75-.43-1.9-.48-2.55-.11l-7.98,4.64c-.37.21-.5.52-.41.82.07.23.27.46.59.65l7.49,4.35c.75.43,1.9.48,2.55.11l7.98-4.64c.26-.15.4-.34.43-.55.05-.32-.16-.66-.61-.93Z" style="fill:#fff; stroke:#606060; stroke-linecap:round; stroke-linejoin:round; stroke-width:.5px;"/><path d="M107.65,194.29l-7.49-4.35c-.33-.19-.53-.42-.59-.65h-.03s0,1.85,0,1.85h0c.02.28.23.56.62.79l7.49,4.35c.39.23.89.35,1.37.36v-1.99c-.48-.01-.98-.13-1.37-.36Z" style="fill:#fff; stroke:#606060; stroke-linecap:round; stroke-linejoin:round; stroke-width:.5px;"/><path d="M110.2,196.39l7.98-4.64c.31-.18.45-.43.44-.68h0s0-1.85,0-1.85h0c-.03.21-.17.4-.43.55l-7.98,4.64c-.31.18-.74.26-1.18.25v1.99c.44.01.87-.07,1.18-.25Z" style="fill:#bfbfbf; stroke:#606060; stroke-miterlimit:10; stroke-width:.5px;"/><path d="M104.85,195.9l-7.49-4.35c-.75-.43-1.9-.48-2.55-.11l-7.98,4.64c-.37.21-.5.52-.41.82.07.23.27.46.59.65l7.49,4.35c.75.43,1.9.48,2.55.11l7.98-4.64c.26-.15.4-.34.43-.55.05-.32-.16-.66-.61-.93Z" style="fill:#fff; stroke:#606060; stroke-linecap:round; stroke-linejoin:round; stroke-width:.5px;"/><path d="M94.5,201.91l-7.49-4.35c-.33-.19-.53-.42-.59-.65h-.03s0,1.85,0,1.85h0c.02.28.23.56.62.79l7.49,4.35c.39.23.89.35,1.37.36v-1.99c-.48-.01-.98-.13-1.37-.36Z" style="fill:#fff; stroke:#606060; stroke-linecap:round; stroke-linejoin:round; stroke-width:.5px;"/><path d="M97.05,204.01l7.98-4.64c.31-.18.45-.43.44-.68h0s0-1.85,0-1.85h0c-.03.21-.17.4-.43.55l-7.98,4.64c-.31.18-.74.26-1.18.25v1.99c.44.01.87-.07,1.18-.25Z" style="fill:#bfbfbf; stroke:#606060; stroke-miterlimit:10; stroke-width:.5px;"/><path d="M165.22,134.42l-72.51,41.86c-1.4.81-3.85.71-5.47-.23l-60.21-34.76c-1.62-.93-1.8-2.35-.39-3.16l72.51-41.86c1.4-.81,3.85-.71,5.47.23l60.21,34.76c1.62.93,1.8,2.35.39,3.16Z" style="fill:#666; opacity:.2; stroke-width:0px;"/><path d="M166.16,111.67c-.06-.58-.51-1.18-1.33-1.66l-60.21-34.76c-1.62-.93-4.07-1.04-5.47-.23L26.64,116.88c-.66.38-.97.9-.94,1.44h0v5.32h.01c.07.57.52,1.16,1.33,1.62l60.21,34.76c1.62.94,4.07,1.04,5.47.23l72.51-41.86c.65-.37.95-.88.94-1.4h0v-5.32h0Z" style="fill:#fff; stroke:#606060; stroke-linecap:round; stroke-linejoin:round; stroke-width:2px;"/><path d="M33.87,117.93l-8.18.39v5.32h.01c.07.57.52,1.16,1.33,1.62l60.21,34.76c.63.36,1.39.6,2.16.71v-74.87l-55.53,32.06Z" style="fill:#fff; stroke:#606060; stroke-linecap:round; stroke-linejoin:round; stroke-width:.5px;"/><path d="M92.72,160.25l72.51-41.86c.65-.37.95-.88.94-1.4h0v-5.32l-6.95.33-54.6-31.53c-1.62-.93-4.07-1.04-5.47-.23l-9.74,5.63v74.87c1.21.17,2.46.01,3.31-.48Z" style="fill:#e95420; stroke:#606060; stroke-linecap:round; stroke-linejoin:round; stroke-width:.5px;"/><path d="M165.22,113.16l-72.51,41.86c-1.4.81-3.85.71-5.47-.23l-60.21-34.76c-1.62-.93-1.8-2.35-.39-3.16l72.51-41.86c1.4-.81,3.85-.71,5.47.23l60.21,34.76c1.62.93,1.8,2.35.39,3.16Z" style="fill:#fff; stroke:#606060; stroke-linecap:round; stroke-linejoin:round; stroke-width:.5px;"/><path d="M60.12,119.05l-8.99,5.19c-.5.29-1.37.25-1.94-.08l-8.71-5.03c-.57-.33-.64-.83-.14-1.12l8.99-5.19c.5-.29,1.37-.25,1.94.08l8.71,5.03c.57.33.64.83.14,1.12Z" style="fill:#666; opacity:.2; stroke-width:0px;"/><path d="M73.14,111.54l-8.99,5.19c-.5.29-1.37.25-1.94-.08l-8.71-5.03c-.57-.33-.64-.83-.14-1.12l8.99-5.19c.5-.29,1.37-.25,1.94.08l8.71,5.03c.57.33.64.83.14,1.12Z" style="fill:#666; opacity:.2; stroke-width:0px;"/><path d="M86.15,104.03l-8.99,5.19c-.5.29-1.37.25-1.94-.08l-8.71-5.03c-.57-.33-.64-.83-.14-1.12l8.99-5.19c.5-.29,1.37-.25,1.94.08l8.71,5.03c.57.33.64.83.14,1.12Z" style="fill:#666; opacity:.2; stroke-width:0px;"/><path d="M73.27,126.64l-8.99,5.19c-.5.29-1.37.25-1.94-.08l-8.71-5.03c-.57-.33-.64-.83-.14-1.12l8.99-5.19c.5-.29,1.37-.25,1.94.08l8.71,5.03c.57.33.64.83.14,1.12Z" style="fill:#666; opacity:.2; stroke-width:0px;"/><path d="M86.28,119.13l-8.99,5.19c-.5.29-1.37.25-1.94-.08l-8.71-5.03c-.57-.33-.64-.83-.14-1.12l8.99-5.19c.5-.29,1.37-.25,1.94.08l8.71,5.03c.57.33.64.83.14,1.12Z" style="fill:#666; opacity:.2; stroke-width:0px;"/><path d="M99.3,111.62l-8.99,5.19c-.5.29-1.37.25-1.94-.08l-8.71-5.03c-.57-.33-.64-.83-.14-1.12l8.99-5.19c.5-.29,1.37-.25,1.94.08l8.71,5.03c.57.33.64.83.14,1.12Z" style="fill:#666; opacity:.2; stroke-width:0px;"/><path d="M112.31,104.1l-8.99,5.19c-.5.29-1.37.25-1.94-.08l-8.71-5.03c-.57-.33-.64-.83-.14-1.12l8.99-5.19c.5-.29,1.37-.25,1.94.08l8.71,5.03c.57.33.64.83.14,1.12Z" style="fill:#666; opacity:.2; stroke-width:0px;"/><path d="M125.32,96.59l-8.99,5.19c-.5.29-1.37.25-1.94-.08l-8.71-5.03c-.57-.33-.64-.83-.14-1.12l8.99-5.19c.5-.29,1.37-.25,1.94.08l8.71,5.03c.57.33.64.83.14,1.12Z" style="fill:#666; opacity:.2; stroke-width:0px;"/><path d="M86.41,134.24l-8.99,5.19c-.5.29-1.37.25-1.94-.08l-8.71-5.03c-.57-.33-.64-.83-.14-1.12l8.99-5.19c.5-.29,1.37-.25,1.94.08l8.71,5.03c.57.33.64.83.14,1.12Z" style="fill:#666; opacity:.2; stroke-width:0px;"/><path d="M99.43,126.72l-8.99,5.19c-.5.29-1.37.25-1.94-.08l-8.71-5.03c-.57-.33-.64-.83-.14-1.12l8.99-5.19c.5-.29,1.37-.25,1.94.08l8.71,5.03c.57.33.64.83.14,1.12Z" style="fill:#666; opacity:.2; stroke-width:0px;"/><path d="M112.44,119.21l-8.99,5.19c-.5.29-1.37.25-1.94-.08l-8.71-5.03c-.57-.33-.64-.83-.14-1.12l8.99-5.19c.5-.29,1.37-.25,1.94.08l8.71,5.03c.57.33.64.83.14,1.12Z" style="fill:#666; opacity:.2; stroke-width:0px;"/><path d="M125.46,111.69l-8.99,5.19c-.5.29-1.37.25-1.94-.08l-8.71-5.03c-.57-.33-.64-.83-.14-1.12l8.99-5.19c.5-.29,1.37-.25,1.94.08l8.71,5.03c.57.33.64.83.14,1.12Z" style="fill:#666; opacity:.2; stroke-width:0px;"/><path d="M99.56,141.83l-8.99,5.19c-.5.29-1.37.25-1.94-.08l-8.71-5.03c-.57-.33-.64-.83-.14-1.12l8.99-5.19c.5-.29,1.37-.25,1.94.08l8.71,5.03c.57.33.64.83.14,1.12Z" style="fill:#666; opacity:.2; stroke-width:0px;"/><path d="M127.61,97.99l-8.86,5.11c-.53.31-.53.81,0,1.12l4.84,2.8,4.02,2.32,4.29,2.48,5.54,3.2,3.32,1.92c.53.31,1.4.31,1.93,0l8.86-5.11c.53-.31.53-.81,0-1.12l-3.32-1.92-5.54-3.2-4.29-2.48-4.02-2.32-4.84-2.8c-.53-.31-1.4-.31-1.93,0Z" style="fill:#666; opacity:.2; stroke-width:0px;"/><path d="M127.74,113.09l-4.43,2.56-4.43,2.56-4.16,2.4-8.86,5.11-4.16,2.4-6.87,3.97-1.99,1.15c-.53.31-.53.81,0,1.12l8.86,5.11c.53.31,1.4.31,1.93,0l1.99-1.15,6.87-3.97,4.16-2.4,8.86-5.11,4.16-2.4,4.43-2.56,4.43-2.56c.53-.31.53-.81,0-1.12l-8.86-5.11c-.53-.31-1.4-.31-1.93,0Z" style="fill:#666; opacity:.2; stroke-width:0px;"/><path d="M101.32,82.81l-4.43,2.56-4.43,2.56-4.16,2.4-4.43,2.56-4.43,2.56c-.53.31-.53.81,0,1.12l8.86,5.11c.53.31,1.4.31,1.93,0l4.43-2.56,4.43-2.56,4.16-2.4,4.43-2.56,4.43-2.56c.53-.31.53-.81,0-1.12l-8.86-5.11c-.53-.31-1.4-.31-1.93,0Z" style="fill:#666; opacity:.2; stroke-width:0px;"/><path d="M221.58,95.14l-8.99,5.19c-.5.29-1.37.25-1.94-.08l-8.71-5.03c-.57-.33-.64-.83-.14-1.12l8.99-5.19c.5-.29,1.37-.25,1.94.08l8.71,5.03c.57.33.64.83.14,1.12Z" style="fill:#666; opacity:.2; stroke-width:0px;"/><path d="M214.65,191.14l-8.99,5.19c-.5.29-1.37.25-1.94-.08l-8.71-5.03c-.57-.33-.64-.83-.14-1.12l8.99-5.19c.5-.29,1.37-.25,1.94.08l8.71,5.03c.57.33.64.83.14,1.12Z" style="fill:#666; opacity:.2; stroke-width:0px;"/><path d="M35.58,161.81l-8.99,5.19c-.5.29-1.37.25-1.94-.08l-8.71-5.03c-.57-.33-.64-.83-.14-1.12l8.99-5.19c.5-.29,1.37-.25,1.94.08l8.71,5.03c.57.33.64.83.14,1.12Z" style="fill:#666; opacity:.2; stroke-width:0px;"/><path d="M81.36,231.86l-8.99,5.19c-.5.29-1.37.25-1.94-.08l-8.71-5.03c-.57-.33-.64-.83-.14-1.12l8.99-5.19c.5-.29,1.37-.25,1.94.08l8.71,5.03c.57.33.64.83.14,1.12Z" style="fill:#666; opacity:.2; stroke-width:0px;"/><path d="M264.2,122.02l-8.99,5.19c-.5.29-1.37.25-1.94-.08l-8.71-5.03c-.57-.33-.64-.83-.14-1.12l8.99-5.19c.5-.29,1.37-.25,1.94.08l8.71,5.03c.57.33.64.83.14,1.12Z" style="fill:#666; opacity:.2; stroke-width:0px;"/><path d="M212.35,210.22l-8.99,5.19c-.5.29-1.37.25-1.94-.08l-8.71-5.03c-.57-.33-.64-.83-.14-1.12l8.99-5.19c.5-.29,1.37-.25,1.94.08l8.71,5.03c.57.33.64.83.14,1.12Z" style="fill:#666; opacity:.2; stroke-width:0px;"/><path d="M157.44,221.28l-8.99,5.19c-.5.29-1.37.25-1.94-.08l-8.71-5.03c-.57-.33-.64-.83-.14-1.12l8.99-5.19c.5-.29,1.37-.25,1.94.08l8.71,5.03c.57.33.64.83.14,1.12Z" style="fill:#666; opacity:.2; stroke-width:0px;"/><path d="M130.04,62.03l-20.84,12.03c-1.51.87-1.51,2.28,0,3.15l21.76,12.56-21.76,12.57c-1.51.87-1.51,2.28,0,3.15l20.84,12.03c1.51.87,3.95.87,5.46,0l24.49-14.14,20.83-12.03h0c1.51-.87,1.51-2.28,0-3.15l-45.32-26.17c-1.51-.87-3.95-.87-5.46,0Z" style="fill:#666; opacity:.2; stroke-width:0px;"/><path d="M181.93,71.4h0c.12-.65-.24-1.32-1.1-1.82l-45.32-26.17c-1.51-.87-3.95-.87-5.46,0l-20.84,12.03c-.87.5-1.23,1.18-1.1,1.83h-.03s0,5.43,0,5.43h0c-.01.58.36,1.16,1.13,1.6l16.81,9.71-16.82,9.71c-.91.53-1.27,1.25-1.08,1.94l-.05.03v5.67h.05c.12.44.48.88,1.08,1.23l20.84,12.03c.77.45,1.79.66,2.8.65.96-.01,1.92-.22,2.66-.65l24.49-14.14,20.83-12.03h0c.86-.5,1.23-1.18,1.1-1.82v-5.22Z" style="fill:#fff; stroke:#606060; stroke-linecap:round; stroke-linejoin:round; stroke-width:2px;"/><path d="M130.04,49.12l-16.07,9.28-5.91-1.13v5.43h0c-.01.58.36,1.16,1.13,1.6l18.61,10.74-19.74,10.64v5.67h.05c.12.44.48.88,1.08,1.23l20.84,12.03c.77.45,1.79.66,2.8.65v-56.79c-1.01-.01-2.03.2-2.8.65Z" style="fill:#fff; stroke:#606060; stroke-linecap:round; stroke-linejoin:round; stroke-width:.5px;"/><path d="M159.99,90.47l20.83-12.03h0c.86-.5,1.23-1.18,1.1-1.82v-5.22l-11.73-2.24-34.7-20.03c-.74-.43-1.7-.64-2.66-.65v56.79c.96-.01,1.92-.22,2.66-.65l24.49-14.14Z" style="fill:#e95420; stroke:#606060; stroke-linecap:round; stroke-linejoin:round; stroke-width:.5px;"/><path d="M130.04,43.41l-20.84,12.03c-1.51.87-1.51,2.28,0,3.15l21.76,12.56-21.76,12.57c-1.51.87-1.51,2.28,0,3.15l20.84,12.03c1.51.87,3.95.87,5.46,0l24.49-14.14,20.83-12.03h0c1.51-.87,1.51-2.28,0-3.15l-45.32-26.17c-1.51-.87-3.95-.87-5.46,0Z" style="fill:#fff; stroke:#606060; stroke-linecap:round; stroke-linejoin:round; stroke-width:.5px;"/><polyline points="132.39 46.25 138.56 49.81 132.29 53.43" style="fill:none; stroke:#606060; stroke-linecap:round; stroke-linejoin:round; stroke-width:.5px;"/><polyline points="138.02 53.43 132.29 53.43 132.29 50.13" style="fill:none; stroke:#606060; stroke-linecap:round; stroke-linejoin:round; stroke-width:.5px;"/><polygon points="225.7 183.89 222.59 182.1 221.92 182.49 225.02 184.28 221.92 186.08 222.59 186.47 225.7 184.67 228.81 186.47 229.48 186.08 226.37 184.28 229.48 182.49 228.81 182.1 225.7 183.89" style="fill:#e95420; fill-rule:evenodd; stroke-width:0px;"/><polygon points="174.87 200.19 171.76 198.4 171.08 198.79 174.19 200.58 171.08 202.38 171.76 202.77 174.87 200.97 177.97 202.77 178.65 202.38 175.54 200.58 178.65 198.79 177.97 198.4 174.87 200.19" style="fill:#e95420; fill-rule:evenodd; stroke-width:0px;"/><polygon points="23.88 207.85 20.78 206.05 20.1 206.44 23.21 208.24 20.1 210.03 20.78 210.42 23.88 208.63 26.99 210.42 27.67 210.03 24.56 208.24 27.67 206.44 26.99 206.05 23.88 207.85" style="fill:#e95420; fill-rule:evenodd; stroke-width:0px;"/><polygon points="234.05 103.77 230.94 101.98 230.26 102.37 233.37 104.16 230.26 105.95 230.94 106.34 234.05 104.55 237.15 106.34 237.83 105.95 234.72 104.16 237.83 102.37 237.15 101.98 234.05 103.77" style="fill:#e95420; fill-rule:evenodd; stroke-width:0px;"/></svg>