<?xml version="1.0" encoding="UTF-8" standalone="no"?>
<svg
   id="Logos_-_Light_Theme"
   data-name="Logos - Light Theme"
   width="1900"
   height="400"
   viewBox="0 0 1900 400"
   version="1.1"
   sodipodi:docname="landscape.svg"
   inkscape:version="1.2.2 (b0a8486541, 2022-12-01)"
   xmlns:inkscape="http://www.inkscape.org/namespaces/inkscape"
   xmlns:sodipodi="http://sodipodi.sourceforge.net/DTD/sodipodi-0.dtd"
   xmlns="http://www.w3.org/2000/svg"
   xmlns:svg="http://www.w3.org/2000/svg">
  <defs
     id="defs11" />
  <sodipodi:namedview
     id="namedview11"
     pagecolor="#ffffff"
     bordercolor="#000000"
     borderopacity="0.25"
     inkscape:showpageshadow="2"
     inkscape:pageopacity="0.0"
     inkscape:pagecheckerboard="0"
     inkscape:deskcolor="#d1d1d1"
     showgrid="false"
     inkscape:zoom="0.50314368"
     inkscape:cx="928.1643"
     inkscape:cy="382.59449"
     inkscape:window-width="1868"
     inkscape:window-height="1014"
     inkscape:window-x="0"
     inkscape:window-y="0"
     inkscape:window-maximized="1"
     inkscape:current-layer="Logos_-_Light_Theme" />
  <g
     id="g4151"
     transform="translate(270.5)">
    <g
       id="Tags-3"
       data-name="Tags">
      <g
         id="g3">
        <rect
           stroke-width="0"
           fill="#e95420"
           width="233"
           height="400"
           id="rect1"
           x="0"
           y="0" />
        <g
           id="g2">
          <path
             stroke-width="0"
             fill="#ffffff"
             d="m 176.36833,317.25558 h -69.99462 c -0.20079,0 -0.39378,0.0807 -0.53512,0.22279 -0.14133,0.14301 -0.2198,0.33564 -0.21785,0.53702 l 0.11355,11.38738 c 0.004,0.41152 0.34017,0.74424 0.75297,0.74424 h 56.5353 V 341.9284 H 94.14203 V 198.76264 c 0,-0.41493 -0.33725,-0.75154 -0.75297,-0.75154 h -36.7574 c -0.41572,0 -0.75297,0.33661 -0.75297,0.75154 V 354.0143 c 0,0.41541 0.33725,0.75202 0.75297,0.75202 h 11.92415 c 0.19982,0 0.39135,-0.0798 0.53268,-0.22084 0.14133,-0.14107 0.22077,-0.33272 0.22029,-0.53216 L 69.15867,210.38788 81.31285,210.25362 80.87618,353.3829 c -4.9e-4,0.19944 0.07846,0.39109 0.2198,0.53216 0.14133,0.14204 0.33286,0.22181 0.53317,0.22181 h 94.73917 c 0.41572,0 0.75297,-0.33661 0.75297,-0.75202 v -35.37724 c 0,-0.41541 -0.33725,-0.75202 -0.75297,-0.75202 z"
             id="path1" />
          <rect
             fill="none"
             stroke-width="0"
             x="27.745041"
             y="188.84427"
             width="177.56824"
             height="177.23149"
             id="rect2" />
        </g>
      </g>
    </g>
    <g
       id="Wordmark_Curves-3"
       data-name="Wordmark Curves"
       style="fill:#000000">
      <g
         id="g11"
         style="fill:#000000">
        <path
           stroke-width="0"
           fill="#fff"
           d="M 291.55209,354.41043 V 192.94168 h 18.17582 v 145.625 h 75.49793 v 15.84375 H 291.5521 Z"
           id="path3"
           style="fill:#000000" />
        <path
           stroke-width="0"
           fill="#fff"
           d="m 445.80603,356.97391 c -8.7014,0 -16.46767,-1.24512 -23.30173,-3.72852 -6.83748,-2.48242 -12.1973,-6.52441 -16.07847,-12.11621 -3.8846,-5.5918 -5.82519,-12.96777 -5.82519,-22.13477 0,-8.85352 2.17352,-16.03711 6.52446,-21.55273 4.34704,-5.51172 10.36902,-9.5127 18.05911,-11.99902 7.6896,-2.4834 16.34754,-3.72852 25.98164,-3.72852 4.34704,0 8.93091,0.38965 13.74772,1.16504 4.81339,0.7793 7.84293,1.47852 9.08815,2.09766 v -6.99023 c 0,-5.2793 -0.66265,-10.36914 -1.98063,-15.26172 -1.32189,-4.89258 -4.00179,-8.89062 -8.03924,-11.99902 -4.04135,-3.10547 -10.17662,-4.66016 -18.40874,-4.66016 -8.54514,0 -15.0696,0.62207 -19.57339,1.86328 -4.5077,1.24512 -7.84635,2.25391 -10.01987,3.0293 l -2.33027,-14.91211 c 2.79613,-1.24121 7.06699,-2.40625 12.816,-3.49512 5.74559,-1.08496 12.50298,-1.63086 20.27267,-1.63086 11.02825,0 19.76677,1.94434 26.21456,5.8252 6.44438,3.88477 11.10492,9.20312 13.98113,15.96094 2.8728,6.75684 4.3109,14.48535 4.3109,23.18262 v 75.72559 c -3.26199,0.7793 -9.08766,1.86426 -17.47654,3.26172 -8.38839,1.39844 -17.70947,2.09766 -27.96227,2.09766 z m 2.5632,-14.91211 c 5.436,0 10.32947,-0.19336 14.68041,-0.58301 4.34704,-0.38574 7.99919,-0.8916 10.95208,-1.51465 v -40.54199 c -1.55482,-0.77539 -4.19468,-1.55078 -7.92302,-2.33008 -3.72833,-0.77539 -8.54514,-1.16504 -14.44699,-1.16504 -4.97355,0 -10.01987,0.54688 -15.14627,1.63184 -5.1264,1.08789 -9.4373,3.26172 -12.93271,6.52344 -3.49492,3.26172 -5.24262,8.15527 -5.24262,14.67871 0,8.70117 2.71604,14.75977 8.15546,18.1748 5.436,3.41797 12.73591,5.12598 21.90366,5.12598 z"
           id="path4"
           style="fill:#000000" />
        <path
           stroke-width="0"
           fill="#fff"
           d="m 528.99209,354.41043 v -116.5 c 4.81339,-1.24121 11.10492,-2.63965 18.8746,-4.19434 7.76627,-1.55078 17.08686,-2.33008 27.96227,-2.33008 12.58307,0 22.37001,2.33008 29.36082,6.99023 6.99032,4.66016 11.92042,11.14746 14.79663,19.45605 2.8728,8.31152 4.3109,17.98047 4.3109,29.00781 v 67.57031 h -17.47654 v -62.67676 c 0,-11.02734 -1.01229,-19.80566 -3.02906,-26.3291 -2.02116,-6.52441 -5.4399,-11.26074 -10.25329,-14.21289 -4.8168,-2.94922 -11.49802,-4.42773 -20.03925,-4.42773 -6.52495,0 -12.27396,0.38965 -17.24361,1.16504 -4.97355,0.7793 -8.23554,1.39844 -9.78694,1.86426 v 104.61719 h -17.47654 z"
           id="path5"
           style="fill:#000000" />
        <path
           stroke-width="0"
           fill="#fff"
           d="m 714.70809,357.20633 c -11.80761,0 -22.21668,-2.52637 -31.22474,-7.57227 -9.011,-5.0459 -16.00181,-12.26855 -20.97146,-21.66895 -4.97355,-9.39648 -7.45667,-20.62109 -7.45667,-33.66895 0,-12.4248 2.13348,-23.37598 6.40776,-32.85254 4.27086,-9.47266 10.48622,-16.89258 18.64167,-22.25195 8.15595,-5.3584 17.97902,-8.03809 29.47704,-8.03809 7.45667,0 14.01776,1.04785 19.6901,3.14551 5.66892,2.09668 9.90316,4.15723 12.69978,6.1748 v -63.84277 l 17.24312,-3.02832 v 177.08008 c -2.95288,0.93164 -6.60455,1.90332 -10.95159,2.91211 -4.35094,1.00879 -9.28446,1.86426 -14.79712,2.5625 -5.51559,0.69922 -11.76708,1.04883 -18.75789,1.04883 z m 0.23293,-15.61133 c 6.83406,0 12.46685,-0.34863 16.89397,-1.04785 4.42761,-0.69922 7.80631,-1.3584 10.13658,-1.98047 v -81.7832 c -2.64328,-2.17383 -6.68122,-4.38672 -12.11721,-6.64062 -5.43941,-2.25 -11.57469,-3.37891 -18.40874,-3.37891 -6.99032,0 -12.93222,1.20508 -17.82569,3.6123 -4.89347,2.41016 -8.85473,5.78809 -11.88379,10.13477 -3.02955,4.35059 -5.20697,9.40039 -6.52495,15.14551 -1.3214,5.74805 -1.98063,11.88281 -1.98063,18.40723 0,10.09863 1.7477,18.67969 5.24311,25.74609 3.49541,7.07031 8.38888,12.46582 14.68041,16.19336 6.29105,3.72852 13.55141,5.5918 21.78695,5.5918 z"
           id="path6"
           style="fill:#000000" />
        <path
           stroke-width="0"
           fill="#fff"
           d="m 824.22542,357.20633 c -10.40955,0 -18.52497,-0.89551 -24.35064,-2.67969 -5.82519,-1.7832 -9.75032,-3.14551 -11.76757,-4.07715 l 4.19468,-15.37793 c 1.70766,0.62207 5.20258,1.94434 10.48573,3.96094 5.27924,2.02051 12.42632,3.0293 21.4378,3.0293 8.54172,0 15.45586,-1.31836 20.73853,-3.96094 5.27924,-2.63965 7.92302,-7.22363 7.92302,-13.74707 0,-4.19434 -0.93221,-7.57324 -2.79662,-10.13574 -1.86392,-2.56348 -4.85685,-4.92969 -8.97095,-7.10645 -4.11802,-2.17383 -9.75032,-4.66016 -16.89397,-7.45605 -6.05861,-2.4834 -11.65086,-5.12598 -16.77726,-7.92188 -5.1264,-2.7959 -9.28446,-6.36816 -12.46685,-10.71777 -3.18581,-4.34766 -4.77676,-9.93945 -4.77676,-16.77637 0,-6.67676 1.70766,-12.50195 5.1264,-17.47559 3.41532,-4.96875 8.27217,-8.85352 14.5637,-11.64941 6.29153,-2.79589 13.78434,-4.19434 22.48623,-4.19434 8.07586,0 14.91334,0.69922 20.50609,2.09766 5.59226,1.39746 9.55352,2.64258 11.88379,3.72754 l -3.96126,15.14551 c -2.02067,-1.08496 -5.28315,-2.36719 -9.78694,-3.84473 -4.50721,-1.47461 -10.87541,-2.21387 -19.10753,-2.21387 -6.52446,0 -12.1973,1.36133 -17.01019,4.07715 -4.81729,2.71973 -7.22374,7.03027 -7.22374,12.93164 0,4.19434 1.00838,7.57324 3.02906,10.13574 2.01726,2.56348 5.04631,4.85645 9.08766,6.87402 4.03793,2.02051 9.00807,4.19336 14.91334,6.52344 6.67731,2.64355 12.69978,5.39941 18.05911,8.27148 5.35933,2.87598 9.67023,6.56445 12.93271,11.06738 3.26199,4.50781 4.89298,10.48535 4.89298,17.94141 0,7.30273 -1.86392,13.47754 -5.59226,18.52344 -3.72833,5.0498 -9.05153,8.81738 -15.96177,11.30078 -6.91414,2.48242 -15.18631,3.72754 -24.8165,3.72754 z"
           id="path7"
           style="fill:#000000" />
        <path
           stroke-width="0"
           fill="#fff"
           d="m 950.2866,356.97391 c -12.73982,0 -23.3823,-2.59961 -31.92402,-7.80566 -8.54514,-5.20312 -14.99294,-12.54199 -19.34046,-22.01855 -4.35094,-9.47363 -6.52446,-20.42383 -6.52446,-32.85352 0,-12.58203 2.25019,-23.60938 6.75739,-33.08594 4.50379,-9.47266 10.98821,-16.89258 19.45717,-22.25098 8.46505,-5.35938 18.52497,-8.03906 30.17583,-8.03906 6.3682,0 12.42681,0.5459 18.17582,1.63086 5.7451,1.08887 10.2528,2.4873 13.51479,4.19434 l -4.42712,14.67871 c -3.10914,-1.39746 -6.60455,-2.5625 -10.48573,-3.49512 -3.88509,-0.93164 -9.01149,-1.39746 -15.3792,-1.39746 -12.89657,0 -22.71965,4.19434 -29.47704,12.58203 -6.75788,8.3877 -10.13658,20.11816 -10.13658,35.18262 0,9.32031 1.39806,17.51562 4.19468,24.58203 2.79613,7.06934 7.29992,12.58203 13.51479,16.54297 6.21145,3.96094 14.44748,5.94141 24.70028,5.94141 6.05861,0 11.37789,-0.69922 15.96177,-2.09668 4.58046,-1.39844 7.95915,-2.63965 10.13609,-3.72852 l 3.49541,14.91211 c -2.95288,1.55469 -7.45667,3.0293 -13.51527,4.42676 -6.05812,1.39844 -12.34965,2.09766 -18.87412,2.09766 z"
           id="path8"
           style="fill:#000000" />
        <path
           stroke-width="0"
           fill="#fff"
           d="m 1043.7284,356.97391 c -8.7014,0 -16.4677,-1.24512 -23.3017,-3.72852 -6.8375,-2.48242 -12.1973,-6.52441 -16.0785,-12.11621 -3.8846,-5.5918 -5.8252,-12.96777 -5.8252,-22.13477 0,-8.85352 2.1735,-16.03711 6.5245,-21.55273 4.347,-5.51172 10.369,-9.5127 18.0591,-11.99902 7.6896,-2.4834 16.3475,-3.72852 25.9816,-3.72852 4.3471,0 8.9309,0.38965 13.7477,1.16504 4.8134,0.7793 7.843,1.47852 9.0882,2.09766 v -6.99023 c 0,-5.2793 -0.6627,-10.36914 -1.9806,-15.26172 -1.3219,-4.89258 -4.0018,-8.89062 -8.0393,-11.99902 -4.0413,-3.10547 -10.1766,-4.66016 -18.4087,-4.66016 -8.5452,0 -15.0696,0.62207 -19.5734,1.86328 -4.5077,1.24512 -7.8464,2.25391 -10.0199,3.0293 l -2.3303,-14.91211 c 2.7962,-1.24121 7.067,-2.40625 12.816,-3.49512 5.7456,-1.08496 12.503,-1.63086 20.2727,-1.63086 11.0283,0 19.7668,1.94434 26.2146,5.8252 6.4443,3.88477 11.1049,9.20312 13.9811,15.96094 2.8728,6.75684 4.3109,14.48535 4.3109,23.18262 v 75.72559 c -3.262,0.7793 -9.0877,1.86426 -17.4765,3.26172 -8.3884,1.39844 -17.7095,2.09766 -27.9623,2.09766 z m 2.5632,-14.91211 c 5.436,0 10.3295,-0.19336 14.6804,-0.58301 4.347,-0.38574 7.9992,-0.8916 10.9521,-1.51465 v -40.54199 c -1.5548,-0.77539 -4.1947,-1.55078 -7.923,-2.33008 -3.7284,-0.77539 -8.5452,-1.16504 -14.447,-1.16504 -4.9736,0 -10.0199,0.54688 -15.1463,1.63184 -5.1264,1.08789 -9.4373,3.26172 -12.9327,6.52344 -3.4949,3.26172 -5.2426,8.15527 -5.2426,14.67871 0,8.70117 2.716,14.75977 8.1554,18.1748 5.436,3.41797 12.7359,5.12598 21.9037,5.12598 z"
           id="path9"
           style="fill:#000000" />
        <path
           stroke-width="0"
           fill="#fff"
           d="M 1126.9145,397.5159 V 237.91043 c 3.1057,-1.08496 6.794,-2.09668 11.0687,-3.0293 4.2709,-0.93164 9.2039,-1.74707 14.7967,-2.44629 5.5922,-0.69922 11.8037,-1.04883 18.6416,-1.04883 11.9605,0 22.4462,2.52734 31.4572,7.57324 9.0081,5.04883 15.9984,12.27246 20.972,21.66895 4.9696,9.39941 7.4566,20.62012 7.4566,33.66797 0,12.27246 -2.1374,23.14746 -6.4082,32.62012 -4.2743,9.47656 -10.4491,16.89258 -18.525,22.25195 -8.0793,5.3584 -17.9424,8.03809 -29.5932,8.03809 -7.4567,0 -14.0212,-1.04883 -19.6901,-3.14551 -5.6729,-2.09668 -9.9037,-4.1543 -12.6998,-6.1748 v 49.62988 h -17.4766 z m 47.769,-55.9209 c 6.9908,0 12.9327,-1.20117 17.8262,-3.61133 4.8935,-2.40625 8.8547,-5.78516 11.8838,-10.13477 3.0296,-4.34766 5.2031,-9.35645 6.5245,-15.0293 1.3179,-5.66797 1.9806,-11.7666 1.9806,-18.29004 0,-10.0957 -1.7111,-18.7168 -5.1264,-25.86328 -3.4187,-7.14258 -8.2722,-12.58203 -14.5637,-16.30957 -6.2915,-3.72852 -13.6315,-5.59277 -22.0204,-5.59277 -6.8375,0 -12.4663,0.34961 -16.8935,1.04883 -4.4276,0.69922 -7.7301,1.36133 -9.9036,1.98047 v 81.7832 c 2.6399,2.02051 6.6778,4.19434 12.1172,6.52441 5.436,2.3291 11.4941,3.49414 18.1753,3.49414 z"
           id="path10"
           style="fill:#000000" />
        <path
           stroke-width="0"
           fill="#fff"
           d="m 1316.1244,356.97391 c -14.1374,0 -25.5954,-2.7168 -34.37,-8.15527 -8.7786,-5.43555 -15.2264,-12.8916 -19.341,-22.36816 -4.1175,-9.47266 -6.1748,-20.27148 -6.1748,-32.38672 0,-14.13281 2.5632,-25.86328 7.6896,-35.18359 5.1264,-9.31934 11.7676,-16.30957 19.923,-20.96973 8.156,-4.66016 16.7372,-6.99023 25.7487,-6.99023 10.0966,0 18.8346,2.1377 26.2146,6.4082 7.3766,4.27344 13.0855,10.79785 17.1269,19.57129 4.0379,8.77734 6.0586,19.92188 6.0586,33.43555 0,1.08887 -0.04,2.37012 -0.1167,3.84473 -0.08,1.47852 -0.1963,2.83594 -0.3492,4.07715 h -84.1202 c 0.6192,13.6709 4.3109,24.27246 11.0688,31.80469 6.7574,7.53613 17.2797,11.30078 31.5739,11.30078 7.9225,0 14.4069,-0.73535 19.4572,-2.21387 5.0463,-1.47461 8.6579,-2.75586 10.8353,-3.84473 l 3.0291,14.67969 c -2.177,1.24512 -6.4078,2.71973 -12.6993,4.42676 -6.2915,1.70703 -13.4787,2.56348 -21.5545,2.56348 z m -41.2441,-72.92969 h 66.4102 c -0.1567,-7.92188 -1.4781,-14.71484 -3.9612,-20.3877 -2.4866,-5.66797 -6.022,-10.01855 -10.6025,-13.04785 -4.5838,-3.02832 -10.2161,-4.54297 -16.8939,-4.54297 -6.8375,0 -12.816,1.78711 -17.9424,5.3584 -5.1264,3.5752 -9.1277,8.23535 -12.0005,13.98047 -2.8762,5.74805 -4.5439,11.96289 -5.0097,18.63965 z"
           id="path11"
           style="fill:#000000" />
      </g>
    </g>
  </g>
</svg>
