<?xml version="1.0" encoding="UTF-8" standalone="no"?>
<svg
   id="Logos_-_Light_Theme"
   data-name="Logos - Light Theme"
   width="1359"
   height="400"
   viewBox="0 0 1359 400"
   version="1.1"
   sodipodi:docname="landscape-dark.svg"
   inkscape:version="1.3.1 (9b9bdc1480, 2023-11-25, custom)"
   xmlns:inkscape="http://www.inkscape.org/namespaces/inkscape"
   xmlns:sodipodi="http://sodipodi.sourceforge.net/DTD/sodipodi-0.dtd"
   xmlns="http://www.w3.org/2000/svg"
   xmlns:svg="http://www.w3.org/2000/svg">
  <defs
     id="defs11" />
  <sodipodi:namedview
     id="namedview11"
     pagecolor="#ffffff"
     bordercolor="#000000"
     borderopacity="0.25"
     inkscape:showpageshadow="2"
     inkscape:pageopacity="0.0"
     inkscape:pagecheckerboard="0"
     inkscape:deskcolor="#d1d1d1"
     showgrid="false"
     inkscape:zoom="0.71155261"
     inkscape:cx="874.84747"
     inkscape:cy="244.53568"
     inkscape:window-width="1868"
     inkscape:window-height="1014"
     inkscape:window-x="1920"
     inkscape:window-y="29"
     inkscape:window-maximized="1"
     inkscape:current-layer="Logos_-_Light_Theme" />
  <g
     id="Tags-3"
     data-name="Tags">
    <g
       id="g3">
      <rect
         stroke-width="0"
         fill="#e95420"
         width="233"
         height="400"
         id="rect1" />
      <g
         id="g2">
        <path
           stroke-width="0"
           fill="#fff"
           d="M176.36833,317.25558h-69.99462c-.20079,0-.39378.08075-.53512.22279-.14133.14301-.2198.33564-.21785.53702l.11355,11.38738c.0039.41152.34017.74424.75297.74424h56.5353v11.78139h-68.88053v-143.16576c0-.41493-.33725-.75154-.75297-.75154h-36.7574c-.41572,0-.75297.33661-.75297.75154v155.25166c0,.41541.33725.75202.75297.75202h11.92415c.19982,0,.39135-.07977.53268-.22084.14133-.14107.22077-.33272.22029-.53216l-.15011-143.62544,12.15418-.13426-.43667,143.12928c-.00049.19944.07846.39109.2198.53216.14133.14204.33286.22181.53317.22181h94.73917c.41572,0,.75297-.33661.75297-.75202v-35.37724c0-.41541-.33725-.75202-.75297-.75202Z"
           id="path1" />
        <rect
           fill="none"
           stroke-width="0"
           x="27.74504"
           y="188.84427"
           width="177.56823"
           height="177.23149"
           id="rect2" />
      </g>
    </g>
  </g>
  <g
     id="Wordmark_Curves-3"
     data-name="Wordmark Curves"
     style="fill:#000000">
    <g
       id="g11"
       style="fill:#000000">
      <path
         stroke-width="0"
         fill="#fff"
         d="M291.55209,354.41043v-161.46875h18.17582v145.625h75.49793v15.84375h-93.67374Z"
         id="path3"
         style="fill:#000000" />
      <path
         stroke-width="0"
         fill="#fff"
         d="M445.80603,356.97391c-8.7014,0-16.46767-1.24512-23.30173-3.72852-6.83748-2.48242-12.1973-6.52441-16.07847-12.11621-3.8846-5.5918-5.82519-12.96777-5.82519-22.13477,0-8.85352,2.17352-16.03711,6.52446-21.55273,4.34704-5.51172,10.36902-9.5127,18.05911-11.99902,7.6896-2.4834,16.34754-3.72852,25.98164-3.72852,4.34704,0,8.93091.38965,13.74772,1.16504,4.81339.7793,7.84293,1.47852,9.08815,2.09766v-6.99023c0-5.2793-.66265-10.36914-1.98063-15.26172-1.32189-4.89258-4.00179-8.89062-8.03924-11.99902-4.04135-3.10547-10.17662-4.66016-18.40874-4.66016-8.54514,0-15.0696.62207-19.57339,1.86328-4.5077,1.24512-7.84635,2.25391-10.01987,3.0293l-2.33027-14.91211c2.79613-1.24121,7.06699-2.40625,12.816-3.49512,5.74559-1.08496,12.50298-1.63086,20.27267-1.63086,11.02825,0,19.76677,1.94434,26.21456,5.8252,6.44438,3.88477,11.10492,9.20312,13.98113,15.96094,2.8728,6.75684,4.3109,14.48535,4.3109,23.18262v75.72559c-3.26199.7793-9.08766,1.86426-17.47654,3.26172-8.38839,1.39844-17.70947,2.09766-27.96227,2.09766ZM448.36923,342.0618c5.436,0,10.32947-.19336,14.68041-.58301,4.34704-.38574,7.99919-.8916,10.95208-1.51465v-40.54199c-1.55482-.77539-4.19468-1.55078-7.92302-2.33008-3.72833-.77539-8.54514-1.16504-14.44699-1.16504-4.97355,0-10.01987.54688-15.14627,1.63184-5.1264,1.08789-9.4373,3.26172-12.93271,6.52344-3.49492,3.26172-5.24262,8.15527-5.24262,14.67871,0,8.70117,2.71604,14.75977,8.15546,18.1748,5.436,3.41797,12.73591,5.12598,21.90366,5.12598Z"
         id="path4"
         style="fill:#000000" />
      <path
         stroke-width="0"
         fill="#fff"
         d="M528.99209,354.41043v-116.5c4.81339-1.24121,11.10492-2.63965,18.8746-4.19434,7.76627-1.55078,17.08686-2.33008,27.96227-2.33008,12.58307,0,22.37001,2.33008,29.36082,6.99023,6.99032,4.66016,11.92042,11.14746,14.79663,19.45605,2.8728,8.31152,4.3109,17.98047,4.3109,29.00781v67.57031h-17.47654v-62.67676c0-11.02734-1.01229-19.80566-3.02906-26.3291-2.02116-6.52441-5.4399-11.26074-10.25329-14.21289-4.8168-2.94922-11.49802-4.42773-20.03925-4.42773-6.52495,0-12.27396.38965-17.24361,1.16504-4.97355.7793-8.23554,1.39844-9.78694,1.86426v104.61719h-17.47654Z"
         id="path5"
         style="fill:#000000" />
      <path
         stroke-width="0"
         fill="#fff"
         d="M714.70809,357.20633c-11.80761,0-22.21668-2.52637-31.22474-7.57227-9.011-5.0459-16.00181-12.26855-20.97146-21.66895-4.97355-9.39648-7.45667-20.62109-7.45667-33.66895,0-12.4248,2.13348-23.37598,6.40776-32.85254,4.27086-9.47266,10.48622-16.89258,18.64167-22.25195,8.15595-5.3584,17.97902-8.03809,29.47704-8.03809,7.45667,0,14.01776,1.04785,19.6901,3.14551,5.66892,2.09668,9.90316,4.15723,12.69978,6.1748v-63.84277l17.24312-3.02832v177.08008c-2.95288.93164-6.60455,1.90332-10.95159,2.91211-4.35094,1.00879-9.28446,1.86426-14.79712,2.5625-5.51559.69922-11.76708,1.04883-18.75789,1.04883ZM714.94102,341.595c6.83406,0,12.46685-.34863,16.89397-1.04785,4.42761-.69922,7.80631-1.3584,10.13658-1.98047v-81.7832c-2.64328-2.17383-6.68122-4.38672-12.11721-6.64062-5.43941-2.25-11.57469-3.37891-18.40874-3.37891-6.99032,0-12.93222,1.20508-17.82569,3.6123-4.89347,2.41016-8.85473,5.78809-11.88379,10.13477-3.02955,4.35059-5.20697,9.40039-6.52495,15.14551-1.3214,5.74805-1.98063,11.88281-1.98063,18.40723,0,10.09863,1.7477,18.67969,5.24311,25.74609,3.49541,7.07031,8.38888,12.46582,14.68041,16.19336,6.29105,3.72852,13.55141,5.5918,21.78695,5.5918Z"
         id="path6"
         style="fill:#000000" />
      <path
         stroke-width="0"
         fill="#fff"
         d="M824.22542,357.20633c-10.40955,0-18.52497-.89551-24.35064-2.67969-5.82519-1.7832-9.75032-3.14551-11.76757-4.07715l4.19468-15.37793c1.70766.62207,5.20258,1.94434,10.48573,3.96094,5.27924,2.02051,12.42632,3.0293,21.4378,3.0293,8.54172,0,15.45586-1.31836,20.73853-3.96094,5.27924-2.63965,7.92302-7.22363,7.92302-13.74707,0-4.19434-.93221-7.57324-2.79662-10.13574-1.86392-2.56348-4.85685-4.92969-8.97095-7.10645-4.11802-2.17383-9.75032-4.66016-16.89397-7.45605-6.05861-2.4834-11.65086-5.12598-16.77726-7.92188s-9.28446-6.36816-12.46685-10.71777c-3.18581-4.34766-4.77676-9.93945-4.77676-16.77637,0-6.67676,1.70766-12.50195,5.1264-17.47559,3.41532-4.96875,8.27217-8.85352,14.5637-11.64941s13.78434-4.19434,22.48623-4.19434c8.07586,0,14.91334.69922,20.50609,2.09766,5.59226,1.39746,9.55352,2.64258,11.88379,3.72754l-3.96126,15.14551c-2.02067-1.08496-5.28315-2.36719-9.78694-3.84473-4.50721-1.47461-10.87541-2.21387-19.10753-2.21387-6.52446,0-12.1973,1.36133-17.01019,4.07715-4.81729,2.71973-7.22374,7.03027-7.22374,12.93164,0,4.19434,1.00838,7.57324,3.02906,10.13574,2.01726,2.56348,5.04631,4.85645,9.08766,6.87402,4.03793,2.02051,9.00807,4.19336,14.91334,6.52344,6.67731,2.64355,12.69978,5.39941,18.05911,8.27148,5.35933,2.87598,9.67023,6.56445,12.93271,11.06738,3.26199,4.50781,4.89298,10.48535,4.89298,17.94141,0,7.30273-1.86392,13.47754-5.59226,18.52344-3.72833,5.0498-9.05153,8.81738-15.96177,11.30078-6.91414,2.48242-15.18631,3.72754-24.8165,3.72754Z"
         id="path7"
         style="fill:#000000" />
      <path
         stroke-width="0"
         fill="#fff"
         d="M950.2866,356.97391c-12.73982,0-23.3823-2.59961-31.92402-7.80566-8.54514-5.20312-14.99294-12.54199-19.34046-22.01855-4.35094-9.47363-6.52446-20.42383-6.52446-32.85352,0-12.58203,2.25019-23.60938,6.75739-33.08594,4.50379-9.47266,10.98821-16.89258,19.45717-22.25098,8.46505-5.35938,18.52497-8.03906,30.17583-8.03906,6.3682,0,12.42681.5459,18.17582,1.63086,5.7451,1.08887,10.2528,2.4873,13.51479,4.19434l-4.42712,14.67871c-3.10914-1.39746-6.60455-2.5625-10.48573-3.49512-3.88509-.93164-9.01149-1.39746-15.3792-1.39746-12.89657,0-22.71965,4.19434-29.47704,12.58203-6.75788,8.3877-10.13658,20.11816-10.13658,35.18262,0,9.32031,1.39806,17.51562,4.19468,24.58203,2.79613,7.06934,7.29992,12.58203,13.51479,16.54297,6.21145,3.96094,14.44748,5.94141,24.70028,5.94141,6.05861,0,11.37789-.69922,15.96177-2.09668,4.58046-1.39844,7.95915-2.63965,10.13609-3.72852l3.49541,14.91211c-2.95288,1.55469-7.45667,3.0293-13.51527,4.42676-6.05812,1.39844-12.34965,2.09766-18.87412,2.09766Z"
         id="path8"
         style="fill:#000000" />
      <path
         stroke-width="0"
         fill="#fff"
         d="M1043.72839,356.97391c-8.7014,0-16.46767-1.24512-23.30173-3.72852-6.83748-2.48242-12.1973-6.52441-16.07847-12.11621-3.8846-5.5918-5.82519-12.96777-5.82519-22.13477,0-8.85352,2.17352-16.03711,6.52446-21.55273,4.34704-5.51172,10.36902-9.5127,18.05911-11.99902,7.6896-2.4834,16.34754-3.72852,25.98164-3.72852,4.34704,0,8.93091.38965,13.74772,1.16504,4.81339.7793,7.84293,1.47852,9.08815,2.09766v-6.99023c0-5.2793-.66265-10.36914-1.98063-15.26172-1.32189-4.89258-4.00179-8.89062-8.03924-11.99902-4.04135-3.10547-10.17662-4.66016-18.40874-4.66016-8.54514,0-15.0696.62207-19.57339,1.86328-4.5077,1.24512-7.84635,2.25391-10.01987,3.0293l-2.33027-14.91211c2.79613-1.24121,7.06699-2.40625,12.816-3.49512,5.74559-1.08496,12.50298-1.63086,20.27267-1.63086,11.02825,0,19.76677,1.94434,26.21456,5.8252,6.44438,3.88477,11.10492,9.20312,13.98113,15.96094,2.8728,6.75684,4.3109,14.48535,4.3109,23.18262v75.72559c-3.26199.7793-9.08766,1.86426-17.47654,3.26172-8.38839,1.39844-17.70947,2.09766-27.96227,2.09766ZM1046.29159,342.0618c5.436,0,10.32947-.19336,14.68041-.58301,4.34704-.38574,7.99919-.8916,10.95208-1.51465v-40.54199c-1.55482-.77539-4.19468-1.55078-7.92302-2.33008-3.72833-.77539-8.54514-1.16504-14.44699-1.16504-4.97355,0-10.01987.54688-15.14627,1.63184-5.1264,1.08789-9.4373,3.26172-12.93271,6.52344-3.49492,3.26172-5.24262,8.15527-5.24262,14.67871,0,8.70117,2.71604,14.75977,8.15546,18.1748,5.436,3.41797,12.73591,5.12598,21.90366,5.12598Z"
         id="path9"
         style="fill:#000000" />
      <path
         stroke-width="0"
         fill="#fff"
         d="M1126.91445,397.5159v-159.60547c3.10572-1.08496,6.79402-2.09668,11.06878-3.0293,4.27086-.93164,9.20388-1.74707,14.79663-2.44629,5.59226-.69922,11.80371-1.04883,18.64167-1.04883,11.96046,0,22.44619,2.52734,31.45718,7.57324,9.00807,5.04883,15.99839,12.27246,20.97194,21.66895,4.96965,9.39941,7.45667,20.62012,7.45667,33.66797,0,12.27246-2.13738,23.14746-6.40824,32.62012-4.27428,9.47656-10.4491,16.89258-18.52497,22.25195-8.07928,5.3584-17.9424,8.03809-29.59326,8.03809-7.45667,0-14.02118-1.04883-19.6901-3.14551-5.67283-2.09668-9.90365-4.1543-12.69978-6.1748v49.62988h-17.47654ZM1174.68353,341.595c6.99081,0,12.93271-1.20117,17.82618-3.61133,4.89347-2.40625,8.85473-5.78516,11.88379-10.13477,3.02955-4.34766,5.20307-9.35645,6.52446-15.0293,1.31798-5.66797,1.98063-11.7666,1.98063-18.29004,0-10.0957-1.71108-18.7168-5.1264-25.86328-3.41874-7.14258-8.27217-12.58203-14.5637-16.30957-6.29153-3.72852-13.6315-5.59277-22.02037-5.59277-6.83748,0-12.46636.34961-16.89348,1.04883-4.42761.69922-7.73013,1.36133-9.90365,1.98047v81.7832c2.63987,2.02051,6.6778,4.19434,12.11721,6.52441,5.436,2.3291,11.49411,3.49414,18.17533,3.49414Z"
         id="path10"
         style="fill:#000000" />
      <path
         stroke-width="0"
         fill="#fff"
         d="M1316.12439,356.97391c-14.1374,0-25.59537-2.7168-34.37002-8.15527-8.77856-5.43555-15.22635-12.8916-19.34095-22.36816-4.11753-9.47266-6.17483-20.27148-6.17483-32.38672,0-14.13281,2.5632-25.86328,7.6896-35.18359,5.1264-9.31934,11.76757-16.30957,19.92303-20.96973,8.15595-4.66016,16.73722-6.99023,25.74871-6.99023,10.09654,0,18.83456,2.1377,26.21456,6.4082,7.37658,4.27344,13.08555,10.79785,17.1269,19.57129,4.03793,8.77734,6.05861,19.92188,6.05861,33.43555,0,1.08887-.04004,2.37012-.11671,3.84473-.08008,1.47852-.19631,2.83594-.34915,4.07715h-84.12022c.61919,13.6709,4.3109,24.27246,11.06878,31.80469,6.75739,7.53613,17.27975,11.30078,31.57389,11.30078,7.92253,0,14.40695-.73535,19.45717-2.21387,5.04631-1.47461,8.65794-2.75586,10.83537-3.84473l3.02906,14.67969c-2.17694,1.24512-6.40776,2.71973-12.69929,4.42676s-13.47865,2.56348-21.55451,2.56348ZM1274.88027,284.04422h66.41026c-.15675-7.92188-1.47815-14.71484-3.96126-20.3877-2.48653-5.66797-6.02198-10.01855-10.60244-13.04785-4.58387-3.02832-10.21617-4.54297-16.89397-4.54297-6.83748,0-12.816,1.78711-17.9424,5.3584-5.1264,3.5752-9.12771,8.23535-12.0005,13.98047-2.87621,5.74805-4.54383,11.96289-5.00969,18.63965Z"
         id="path11"
         style="fill:#000000" />
    </g>
  </g>
</svg>
