<?xml version="1.0" encoding="UTF-8"?><svg id="a" xmlns="http://www.w3.org/2000/svg" viewBox="0 0 280 280"><polygon points="135.45 229.06 47.68 178.38 79.65 144.97 167.42 195.65 135.45 229.06" style="fill:#fff; stroke:#606060; stroke-linecap:round; stroke-linejoin:round; stroke-width:2px;"/><polygon points="167.42 195.65 79.65 144.97 111.61 141.47 199.39 192.15 167.42 195.65" style="fill:#fff; stroke:#606060; stroke-linecap:round; stroke-linejoin:round; stroke-width:2px;"/><polygon points="199.39 192.15 111.61 141.47 143.58 108.06 231.36 158.73 199.39 192.15" style="fill:#fff; stroke:#606060; stroke-linecap:round; stroke-linejoin:round; stroke-width:2px;"/><polygon points="231.36 158.73 143.58 108.06 175.55 104.55 263.33 155.23 231.36 158.73" style="fill:#fff; stroke:#606060; stroke-linecap:round; stroke-linejoin:round; stroke-width:2px;"/><path d="M48.51,117.33h0s-4.38-2.52-4.38-2.52h0c-2.05-1.13-4.86-.94-7.96.85-6.29,3.63-11.39,12.46-11.39,19.73s11.39,19.91,11.39,19.91l4.34,2.49h0s11.39-25.8,11.39-33.06c0-3.66-1.3-6.22-3.39-7.4Z" style="fill:#fff; stroke:#606060; stroke-linecap:round; stroke-linejoin:round; stroke-width:2px;"/><path d="M145.92,100.75l-17.21-10.1c-1.41-.81-3.55-.9-4.77-.2l-17.45,10.13c-.69.4-.94.97-.77,1.53.13.44.5.87,1.11,1.22l17.21,10.1c1.41.81,3.55.9,4.77.2l17.45-10.13c.48-.28.74-.64.8-1.02.09-.59-.3-1.24-1.15-1.73Z" style="fill:#dfe4ea; stroke-width:0px;"/><path d="M140.74,95.73c-.06.37-.31.71-.76.97l-14.18,8.25c-1.16.67-3.2.58-4.53-.19l-13.31-7.73c-.58-.33-.94-.75-1.06-1.16h-.05v5.4h0c.04.49.41,1,1.1,1.4l13.31,7.73c1.34.77,3.38.86,4.53.19l14.18-8.25c.56-.32.81-.76.77-1.21h0v-5.4h-.02Z" style="fill:#fff; stroke:#606060; stroke-linecap:round; stroke-linejoin:round; stroke-width:2px;"/><path d="M139.65,94.09l-13.31-7.73c-1.34-.77-3.38-.86-4.53-.19l-14.18,8.25c-.65.38-.89.92-.73,1.46.12.41.48.82,1.06,1.16l13.31,7.73c1.34.77,3.38.86,4.53.19l14.18-8.25c.46-.26.71-.61.76-.97.09-.56-.28-1.18-1.09-1.65Z" style="fill:#fff; stroke:#606060; stroke-linecap:round; stroke-linejoin:round; stroke-width:2px;"/><path d="M140.74,95.73c-.06.37-.31.71-.76.97l-14.18,8.25c-1.16.67-3.2.58-4.53-.19l-13.31-7.73c-.58-.33-.94-.75-1.06-1.16h-.05v5.4h0c.04.49.41,1,1.1,1.4l13.31,7.73c1.34.77,3.38.86,4.53.19l14.18-8.25c.56-.32.81-.76.77-1.21h0v-5.4h-.02Z" style="fill:#fff; stroke:#606060; stroke-linecap:round; stroke-linejoin:round; stroke-width:.5px;"/><path d="M139.65,94.09l-13.31-7.73c-1.34-.77-3.38-.86-4.53-.19l-14.18,8.25c-.65.38-.89.92-.73,1.46.12.41.48.82,1.06,1.16l13.31,7.73c1.34.77,3.38.86,4.53.19l14.18-8.25c.46-.26.71-.61.76-.97.09-.56-.28-1.18-1.09-1.65Z" style="fill:#fff; stroke:#606060; stroke-linecap:round; stroke-linejoin:round; stroke-width:.5px;"/><path d="M121.26,104.77l-13.31-7.73c-.58-.33-.94-.75-1.06-1.16h-.05v5.4h0c.04.49.41,1,1.1,1.4l13.31,7.73c.69.4,1.58.61,2.43.64v-5.65c-.85-.02-1.74-.23-2.43-.64Z" style="fill:#fff; stroke:#606060; stroke-linecap:round; stroke-linejoin:round; stroke-width:.5px;"/><path d="M125.79,110.6l14.18-8.25c.56-.32.81-.76.77-1.21h0v-5.4h-.02c-.06.37-.31.71-.76.97l-14.18,8.25c-.56.32-1.32.47-2.1.45v5.65c.79.02,1.55-.13,2.1-.45Z" style="fill:#e95420; stroke:#606060; stroke-linecap:round; stroke-linejoin:round; stroke-width:.5px;"/><path d="M148.61,72.76l-12.43-15.6c-1.1-1.35-1.75-.87-1.79-.65l-.29,1.24c-.08.46-1.26.66-1.96.34l-8.24-6.27v-1.41c.73-.2,1.27-.87,1.27-1.67,0-.96-.78-1.73-1.73-1.73s-1.73.78-1.73,1.73c0,.71.43,1.32,1.04,1.59v46.18c0,.41,1.19.45,1.17.02v-24.72s8.17,2.72,8.17,2.72c.69.33,1.88.12,1.96-.34l.71-2.14c.04-.22.26-.86,1.1-.7l1.33.16,11.44,1.43v-.18Z" style="fill:#fff; stroke:#606060; stroke-linecap:round; stroke-linejoin:round; stroke-width:2px;"/><path d="M122.75,96.51c0,.41,1.19.45,1.17.02l-.02-46.58h-1.15v46.57Z" style="fill:#fff; stroke:#606060; stroke-linecap:round; stroke-linejoin:round; stroke-width:2px;"/><circle cx="123.44" cy="48.74" r="1.73" style="fill:#fff; stroke:#606060; stroke-linecap:round; stroke-linejoin:round; stroke-width:2px;"/><g style="isolation:isolate;"><path d="M132.14,58.09l-8.68-6.6-.06,20.15,8.68,2.89c.69.33,1.88.12,1.96-.34l.06-16.44c-.08.46-1.26.66-1.96.34Z" style="fill:#fff; stroke:#606060; stroke-linecap:round; stroke-linejoin:round; stroke-width:2px;"/><path d="M148.62,72.94v-.18s-12.44-15.6-12.44-15.6c-1.1-1.35-1.75-.87-1.79-.65l-.29,1.24-.06,16.44.71-2.14c.04-.22.26-.86,1.1-.7l1.33.16,11.44,1.43Z" style="fill:#fff; stroke:#606060; stroke-linecap:round; stroke-linejoin:round; stroke-width:2px;"/></g><path d="M148.61,72.76l-12.43-15.6c-1.1-1.35-1.75-.87-1.79-.65l-.29,1.24c-.08.46-1.26.66-1.96.34l-8.24-6.27v-1.41c.73-.2,1.27-.87,1.27-1.67,0-.96-.78-1.73-1.73-1.73s-1.73.78-1.73,1.73c0,.71.43,1.32,1.04,1.59v46.18c0,.41,1.19.45,1.17.02v-24.72s8.17,2.72,8.17,2.72c.69.33,1.88.12,1.96-.34l.71-2.14c.04-.22.26-.86,1.1-.7l1.33.16,11.44,1.43v-.18Z" style="fill:#fff; stroke:#606060; stroke-linecap:round; stroke-linejoin:round; stroke-width:.5px;"/><path d="M122.75,96.51c0,.41,1.19.45,1.17.02l-.02-46.58h-1.15v46.57Z" style="fill:#fff; stroke:#606060; stroke-linecap:round; stroke-linejoin:round; stroke-width:.5px;"/><circle cx="123.44" cy="48.74" r="1.73" style="fill:#fff; stroke:#606060; stroke-linecap:round; stroke-linejoin:round; stroke-width:.5px;"/><g style="isolation:isolate;"><path d="M132.14,58.09l-8.68-6.6-.06,20.15,8.68,2.89c.69.33,1.88.12,1.96-.34l.06-16.44c-.08.46-1.26.66-1.96.34Z" style="fill:#e95420; stroke:#606060; stroke-linecap:round; stroke-linejoin:round; stroke-width:.5px;"/><path d="M148.62,72.94v-.18s-12.44-15.6-12.44-15.6c-1.1-1.35-1.75-.87-1.79-.65l-.29,1.24-.06,16.44.71-2.14c.04-.22.26-.86,1.1-.7l1.33.16,11.44,1.43Z" style="fill:#e95420; stroke:#606060; stroke-linecap:round; stroke-linejoin:round; stroke-width:.5px;"/></g><path d="M41.55,196.85s-1.63-1.09-1.65-1.11l-2.34.44s-.2,1.43-.2,1.46l-3.81-.18s.17-1.44.18-1.46l-2.19-.65s-1.89.93-1.93.95l-2.48-1.68s1.88-.94,1.91-.95l-.76-1.36s-2.48-.12-2.52-.12l.29-2.2s2.48.1,2.52.11l1.11-1.27c-.08-.04-1.61-1.1-1.64-1.12l2.9-1.43s1.63,1.09,1.65,1.11l2.34-.44s.2-1.43.2-1.46l3.81.18s-.17,1.44-.18,1.46l2.19.65s1.89-.93,1.93-.95l2.48,1.68s-1.88.94-1.91.95l.76,1.36s2.48.12,2.52.12l-.29,2.2s-2.48-.1-2.52-.11l-1.11,1.27c.08.04,1.61,1.1,1.64,1.12l-2.9,1.43ZM35.99,193.52c1.87.09,3.51-.72,3.65-1.81.08-.6-.31-1.16-.99-1.55-.55-.32-1.3-.53-2.14-.57-1.87-.09-3.51.72-3.65,1.81-.08.6.31,1.16.99,1.55.55.32,1.3.53,2.14.57h0Z" style="fill:#666; opacity:.2; stroke-width:0px;"/><polygon points="206.35 215.43 203.92 214.03 203.4 214.33 205.82 215.73 203.4 217.13 203.92 217.44 206.35 216.04 208.78 217.44 209.3 217.13 206.88 215.73 209.3 214.33 208.78 214.03 206.35 215.43" style="fill:#e95420; fill-rule:evenodd; stroke-width:0px;"/><polygon points="188.39 95.02 185.97 93.62 185.44 93.93 187.87 95.33 185.44 96.73 185.97 97.03 188.39 95.63 190.82 97.03 191.35 96.73 188.92 95.33 191.35 93.93 190.82 93.62 188.39 95.02" style="fill:#e95420; fill-rule:evenodd; stroke-width:0px;"/><polygon points="34.3 172.69 31.87 171.29 31.35 171.59 33.77 172.99 31.35 174.39 31.87 174.7 34.3 173.3 36.72 174.7 37.25 174.39 34.83 172.99 37.25 171.59 36.72 171.29 34.3 172.69" style="fill:#e95420; fill-rule:evenodd; stroke-width:0px;"/><polygon points="19.63 168.57 17.2 167.17 16.67 167.47 19.1 168.87 16.67 170.27 17.2 170.58 19.63 169.18 22.05 170.58 22.58 170.27 20.15 168.87 22.58 167.47 22.05 167.17 19.63 168.57" style="fill:#e95420; fill-rule:evenodd; stroke-width:0px;"/><polygon points="199.17 225.93 196.75 224.53 196.22 224.83 198.65 226.23 196.22 227.63 196.75 227.93 199.17 226.53 201.6 227.93 202.13 227.63 199.7 226.23 202.13 224.83 201.6 224.53 199.17 225.93" style="fill:#e95420; fill-rule:evenodd; stroke-width:0px;"/><g style="opacity:.35;"><polygon points="242.81 197.27 242.81 198.71 241.77 199.31 241.77 196.66 242.81 197.27" style="fill:#e95420; stroke-width:0px;"/><polygon points="240.19 195.75 240.19 200.22 239.14 200.83 239.14 195.15 240.19 195.75" style="fill:#e95420; stroke-width:0px;"/><polygon points="237.56 194.24 237.56 201.74 236.51 202.34 236.51 193.63 237.56 194.24" style="fill:#e95420; stroke-width:0px;"/><polygon points="234.94 192.72 234.94 203.25 233.89 203.86 233.89 192.12 234.94 192.72" style="fill:#e95420; stroke-width:0px;"/><polygon points="232.31 192.38 232.31 204.77 231.26 205.38 231.26 192.98 232.31 192.38" style="fill:#e95420; stroke-width:0px;"/><polygon points="229.68 193.89 229.68 206.29 228.64 206.89 228.64 194.5 229.68 193.89" style="fill:#e95420; stroke-width:0px;"/><polygon points="227.06 195.41 227.06 207.8 226.01 208.41 226.01 196.01 227.06 195.41" style="fill:#e95420; stroke-width:0px;"/><polygon points="224.43 196.93 224.43 209.32 223.39 209.92 223.39 197.53 224.43 196.93" style="fill:#e95420; stroke-width:0px;"/><polygon points="221.81 198.44 221.81 209.93 220.76 209.32 220.76 199.05 221.81 198.44" style="fill:#e95420; stroke-width:0px;"/><polygon points="219.18 199.96 219.18 208.41 218.13 207.81 218.13 200.56 219.18 199.96" style="fill:#e95420; stroke-width:0px;"/><polygon points="216.55 206.9 215.51 206.29 215.51 202.08 216.55 201.47 216.55 206.9" style="fill:#e95420; stroke-width:0px;"/><polygon points="212.88 204.78 212.88 203.6 213.93 202.99 213.93 205.38 212.88 204.78" style="fill:#e95420; stroke-width:0px;"/><path d="M209.43,204.19l13.16,7.59,23.89-13.8-13.16-7.59-23.89,13.8ZM210.97,204.19l22.35-12.91,11.62,6.7-22.35,12.91-11.62-6.7Z" style="fill:#e95420; stroke-width:0px;"/></g><path d="M109.15,71.21c0-.08,0-.15,0-.22,0-.02,0-.04,0-.07,0-.05-.01-.1-.02-.15,0-.02,0-.04-.01-.07,0-.04-.02-.09-.03-.13,0-.02-.01-.04-.02-.06-.01-.04-.03-.08-.04-.12,0-.02-.01-.03-.02-.05-.02-.04-.04-.08-.06-.11,0-.01-.01-.02-.02-.03-.02-.04-.05-.07-.08-.1,0,0-.01-.02-.02-.02-.03-.03-.06-.07-.1-.1,0,0,0,0-.01-.01-.04-.03-.08-.06-.12-.08h0s-1.97-1.15-1.97-1.15h0c-.29-.17-.67-.16-1.08.08l-47.68,27.59c-.9.52-1.64,1.93-1.64,3.13v43.97c0,.66.23,1.13.58,1.33h0s1.73,1.01,1.73,1.01c0,0,0,0,0,0l.24.14h0s0,0,0,0c.03.02.07.04.1.05,0,0,0,0,.01,0,.03.01.07.02.1.03,0,0,.02,0,.03,0,.03,0,.06.01.1.01.01,0,.03,0,.04,0,.03,0,.06,0,.09,0,.02,0,.04,0,.05,0,.03,0,.06,0,.09-.01.02,0,.05-.01.07-.02.03,0,.05-.01.08-.02.03,0,.06-.02.09-.03.02,0,.04-.01.06-.02.05-.02.11-.05.16-.08l47.68-27.59c.17-.1.33-.23.49-.38.67-.66,1.15-1.78,1.15-2.75v-43.97s0,0,0,0Z" style="fill:#fff; stroke:#606060; stroke-linecap:round; stroke-linejoin:round; stroke-width:2px;"/><polygon points="58.96 149.35 113.8 118.06 106.03 113.58 51.19 144.86 58.96 149.35" style="fill:#666; opacity:.2; stroke-width:0px;"/><path d="M108.58,69.9h0s-1.97-1.15-1.97-1.15h0c-.29-.17-.67-.16-1.08.08l-47.68,27.59c-.9.52-1.64,1.93-1.64,3.13v43.97c0,.66.23,1.13.58,1.33h0s1.97,1.15,1.97,1.15h0c.29.17.66.15,1.07-.08l47.69-27.59c.9-.52,1.64-1.93,1.64-3.13v-43.97c0-.66-.22-1.13-.57-1.32Z" style="fill:#fff; stroke:#606060; stroke-linecap:round; stroke-linejoin:round; stroke-width:.5px;"/><path d="M107.87,70.31c.32-.18.32-.64,0-.83l-1.26-.74h0c-.29-.17-.67-.16-1.08.08l-47.68,27.59c-.9.52-1.64,1.93-1.64,3.13v43.97c0,.66.23,1.13.58,1.33h0s1.73,1.01,1.73,1.01c.15.09.33.09.48,0l2.06-1.19c.32-.18.32-.64,0-.82l-.11-.06c-.32-.18-.32-.64,0-.82l44.58-25.79c.9-.52,1.64-1.93,1.64-3.13v-43.05c0-.17.09-.33.24-.41l.47-.27Z" style="fill:#fff; stroke:#606060; stroke-linecap:round; stroke-linejoin:round; stroke-width:.5px;"/><path d="M107.51,118.33l-47.69,27.59c-.9.52-1.64-.04-1.64-1.24v-43.97c0-1.2.74-2.61,1.64-3.13l47.69-27.59c.9-.52,1.64.04,1.64,1.24v43.97c0,1.2-.74,2.61-1.64,3.13Z" style="fill:#fff; stroke:#606060; stroke-linecap:round; stroke-linejoin:round; stroke-width:.5px;"/><path d="M107.3,116.25l-46.41,26.71c-.32.18-.71-.05-.71-.41v-42.58c0-.17.09-.33.24-.41l46.41-26.71c.32-.18.71.05.71.41v42.58c0,.17-.09.33-.24.41Z" style="fill:#fff; stroke:#606060; stroke-linecap:round; stroke-linejoin:round; stroke-width:.5px;"/><polygon points="136.81 232.99 44.51 180.05 174.97 105.36 263.33 155.23 261.19 175.56 202.03 195.65 194.68 213.65 136.81 232.99" style="fill:#666; opacity:.2; stroke-width:0px;"/><polygon points="135.45 229.06 47.68 178.38 79.65 144.97 167.42 195.65 135.45 229.06" style="fill:#fff; stroke:#606060; stroke-linecap:round; stroke-linejoin:round; stroke-width:.5px;"/><polygon points="167.42 195.65 79.65 144.97 111.61 141.47 199.39 192.15 167.42 195.65" style="fill:#fff; stroke:#606060; stroke-linecap:round; stroke-linejoin:round; stroke-width:.5px;"/><polygon points="199.39 192.15 111.61 141.47 143.58 108.06 231.36 158.73 199.39 192.15" style="fill:#fff; stroke:#606060; stroke-linecap:round; stroke-linejoin:round; stroke-width:.5px;"/><polygon points="231.36 158.73 143.58 108.06 175.55 104.55 263.33 155.23 231.36 158.73" style="fill:#fff; stroke:#606060; stroke-linecap:round; stroke-linejoin:round; stroke-width:.5px;"/><polygon points="135.45 229.06 47.68 178.38 79.65 144.97 167.42 195.65 135.45 229.06" style="fill:#fff; stroke:#606060; stroke-linecap:round; stroke-linejoin:round; stroke-width:.5px;"/><polygon points="167.42 195.65 79.65 144.97 111.61 141.47 199.39 192.15 167.42 195.65" style="fill:#fff; stroke:#606060; stroke-linecap:round; stroke-linejoin:round; stroke-width:.5px;"/><polygon points="199.39 192.15 111.61 141.47 143.58 108.06 231.36 158.73 199.39 192.15" style="fill:#fff; stroke:#606060; stroke-linecap:round; stroke-linejoin:round; stroke-width:.5px;"/><polygon points="231.36 158.73 143.58 108.06 175.55 104.55 263.33 155.23 231.36 158.73" style="fill:#fff; stroke:#606060; stroke-linecap:round; stroke-linejoin:round; stroke-width:.5px;"/><path d="M247.96,156.87l-63.78-39.12,11.71-1.72-1.35-.73-11.58,1.71-4.08-2.5,11.05-1.63-2.94-1.7-30.72,4.52-24.19,24.85-12.73-7.65-.87.8,12.79,7.68-7.05,7.24-30.72,4.52-32.06,32.93,2.94,1.7,18.29-18.79,36.86,22.58-17.47,17.95,2.94,1.7,32.06-32.93-2.94-1.7-12.24,12.57-18.49-11.33,11.93-12.27,6.08-1.19,19.94,10.94-7.22,1.06,2.94,1.7,12.73-1.87,29.71,17.99,5.34-.58-29.97-18.15,12.92-1.9,14.6-14.82-15.37-9.42h23.85l32.59,17.91.95-.69-31.34-17.22h21.99l28.93,8.01,1.49-.13-.14-.04,2.64-.28ZM159.21,117.39h0l16.15-2.38,4.08,2.5-15.33,2.26-.05-.03-.04.04-.2.03.11.06-16.77,17.27-4.49-2.75,16.55-17ZM140.31,136.81l15.05,9.23-5.18,5.39-15.21-9.13,5.33-5.48ZM177.13,159.38l-12.3,12.48-22.06,3.2-20-10.98,21.09-4.1-1.28-.62-28.47,5.51-11.9,12.24-17.19-10.53,11.42-11.73,30.72-4.52,7.01-7.2,15.21,9.14-6.78,7.05,1.28.62,12.68-13.18,20.58,12.62ZM212.9,147.99h-48.05l-16.51-10.12,16.83-17.33,15.49-2.28,62.32,38.22-30.07-8.49Z" style="fill:#e95420; opacity:.3; stroke-width:0px;"/><ellipse cx="164.87" cy="110.1" rx="4.62" ry="1.6" style="fill:#666; opacity:.2; stroke-width:0px;"/><path d="M164.87,80.56c-5.44,0-9.85,4.41-9.85,9.85s9.85,19.7,9.85,19.7c0,0,9.85-14.26,9.85-19.7s-4.41-9.85-9.85-9.85ZM164.87,94.48c-2.25,0-4.08-1.83-4.08-4.08s1.83-4.08,4.08-4.08,4.08,1.83,4.08,4.08-1.83,4.08-4.08,4.08Z" style="fill:#e95420; stroke-width:0px;"/><path d="M66.12,101.35c-1.16.67-2.09,2.29-2.09,3.62s2.09,3.62,2.09,3.62c0,0,2.09-4.71,2.09-6.04s-.94-1.88-2.09-1.21ZM66.12,104.77c-.48.28-.87.05-.87-.5,0-.55.39-1.22.87-1.5s.87-.05.87.5-.39,1.22-.87,1.5Z" style="fill:#e95420; stroke-width:0px;"/><path d="M66.12,114.7c-1.16.67-2.09,2.29-2.09,3.62s2.09,3.62,2.09,3.62c0,0,2.09-4.71,2.09-6.04s-.94-1.88-2.09-1.21ZM66.12,118.12c-.48.28-.87.05-.87-.5,0-.55.39-1.22.87-1.5s.87-.05.87.5-.39,1.22-.87,1.5Z" style="fill:#e95420; stroke-width:0px;"/><path d="M66.12,128.04c-1.16.67-2.09,2.29-2.09,3.62s2.09,3.62,2.09,3.62c0,0,2.09-4.71,2.09-6.04s-.94-1.88-2.09-1.21ZM66.12,131.46c-.48.28-.87.05-.87-.5,0-.55.39-1.22.87-1.5s.87-.05.87.5-.39,1.22-.87,1.5Z" style="fill:#e95420; stroke-width:0px;"/><ellipse cx="142.66" cy="167.93" rx="4.62" ry="1.6" style="fill:#666; opacity:.2; stroke-width:0px;"/><path d="M142.66,138.39c-5.44,0-9.85,4.41-9.85,9.85s9.85,19.7,9.85,19.7c0,0,9.85-14.26,9.85-19.7s-4.41-9.85-9.85-9.85ZM142.66,152.31c-2.25,0-4.08-1.83-4.08-4.08s1.83-4.08,4.08-4.08,4.08,1.83,4.08,4.08-1.83,4.08-4.08,4.08Z" style="fill:#e95420; stroke-width:0px;"/><ellipse cx="194.51" cy="156.73" rx="4.4" ry="3.74" style="fill:#666; opacity:.2; stroke-width:0px;"/><path d="M194.51,127.18c-5.44,0-9.85,4.41-9.85,9.85s9.85,19.7,9.85,19.7c0,0,9.85-14.26,9.85-19.7s-4.41-9.85-9.85-9.85ZM194.51,141.11c-2.25,0-4.08-1.83-4.08-4.08s1.83-4.08,4.08-4.08,4.08,1.83,4.08,4.08-1.83,4.08-4.08,4.08Z" style="fill:#e95420; stroke-width:0px;"/><ellipse cx="134.29" cy="218.07" rx="4.4" ry="3.74" style="fill:#666; opacity:.2; stroke-width:0px;"/><path d="M134.29,188.53c-5.44,0-9.85,4.41-9.85,9.85s9.85,19.7,9.85,19.7c0,0,9.85-14.26,9.85-19.7s-4.41-9.85-9.85-9.85ZM134.29,202.45c-2.25,0-4.08-1.83-4.08-4.08s1.83-4.08,4.08-4.08,4.08,1.83,4.08,4.08-1.83,4.08-4.08,4.08Z" style="fill:#e95420; stroke-width:0px;"/><ellipse cx="100.27" cy="166.89" rx="4.4" ry="3.74" style="fill:#666; opacity:.2; stroke-width:0px;"/><path d="M100.27,137.35c-5.44,0-9.85,4.41-9.85,9.85s9.85,19.7,9.85,19.7c0,0,9.85-14.26,9.85-19.7s-4.41-9.85-9.85-9.85ZM100.27,151.27c-2.25,0-4.08-1.83-4.08-4.08s1.83-4.08,4.08-4.08,4.08,1.83,4.08,4.08-1.83,4.08-4.08,4.08Z" style="fill:#e95420; stroke-width:0px;"/><ellipse cx="38.33" cy="159.06" rx="9.22" ry="5.32" style="fill:#666; opacity:.2; stroke-width:0px;"/><path d="M40.5,125.96c.09-.05.18-.09.27-.14,0,.11.01.21.01.32,0,2.95-2.07,6.54-4.63,8.01-.09.05-.18.09-.27.14,0-.11-.01-.21-.01-.32,0-2.95,2.07-6.54,4.63-8.01Z" style="fill:none; stroke-width:0px;"/><path d="M40.79,126.14c0-.11,0-.21-.01-.32,2.43-1.24,4.36-.03,4.36,2.81,0,2.95-2.07,6.54-4.63,8.01-2.46,1.42-4.47.36-4.61-2.35.09-.05.18-.09.27-.14,2.56-1.48,4.63-5.06,4.63-8.01Z" style="fill:#fff; stroke:#606060; stroke-linecap:round; stroke-linejoin:round; stroke-width:.5px;"/><path d="M24.77,135.39c0-7.26,5.1-16.09,11.39-19.73,3.1-1.79,5.91-1.98,7.96-.84h0s4.38,2.51,4.38,2.51h0c-2.06-1.16-4.88-.97-8,.83-6.29,3.63-11.39,12.46-11.39,19.73s11.39,19.91,11.39,19.91l-4.34-2.49s-11.39-12.64-11.39-19.91Z" style="fill:#fff; stroke:#606060; stroke-linecap:round; stroke-linejoin:round; stroke-width:.5px;"/><polygon points="40.5 157.79 40.5 157.79 40.5 157.79 40.5 157.79" style="fill:#fff; stroke:#606060; stroke-linecap:round; stroke-linejoin:round; stroke-width:.5px;"/><polygon points="40.5 157.79 40.5 157.79 40.5 157.79 40.5 157.79" style="fill:#fff; stroke:#606060; stroke-linecap:round; stroke-linejoin:round; stroke-width:.5px;"/><path d="M29.12,137.88c0,7.26,11.39,19.91,11.39,19.91h0s11.39-25.8,11.39-33.06c0-3.66-1.3-6.22-3.39-7.4-2.06-1.16-4.88-.98-8,.82-6.29,3.63-11.39,12.46-11.39,19.73ZM35.89,134.29c0-.11-.01-.21-.01-.32,0-2.95,2.07-6.54,4.63-8.01.09-.05.18-.09.27-.14,2.43-1.24,4.36-.03,4.36,2.81,0,2.95-2.07,6.54-4.63,8.01-2.46,1.42-4.47.36-4.61-2.35Z" style="fill:#fff; stroke:#606060; stroke-linecap:round; stroke-linejoin:round; stroke-width:.5px;"/><path d="M40.5,125.96c.09-.05.18-.09.27-.14,0,.11.01.21.01.32,0,2.95-2.07,6.54-4.63,8.01-.09.05-.18.09-.27.14,0-.11-.01-.21-.01-.32,0-2.95,2.07-6.54,4.63-8.01Z" style="fill:none; stroke-width:0px;"/><path d="M40.79,126.14c0-.11,0-.21-.01-.32,2.43-1.24,4.36-.03,4.36,2.81,0,2.95-2.07,6.54-4.63,8.01-2.46,1.42-4.47.36-4.61-2.35.09-.05.18-.09.27-.14,2.56-1.48,4.63-5.06,4.63-8.01Z" style="fill:#e95420; stroke-width:0px;"/><path d="M24.77,135.39c0-7.26,5.1-16.09,11.39-19.73,3.1-1.79,5.91-1.98,7.96-.84h0s4.38,2.51,4.38,2.51h0c-2.06-1.16-4.88-.97-8,.83-6.29,3.63-11.39,12.46-11.39,19.73s11.39,19.91,11.39,19.91l-4.34-2.49s-11.39-12.64-11.39-19.91Z" style="fill:#fff; stroke:#606060; stroke-linecap:round; stroke-linejoin:round; stroke-width:.5px;"/><polygon points="40.5 157.79 40.5 157.79 40.5 157.79 40.5 157.79" style="fill:#fff; stroke:#606060; stroke-linecap:round; stroke-linejoin:round; stroke-width:.5px;"/><polygon points="40.5 157.79 40.5 157.79 40.5 157.79 40.5 157.79" style="fill:#fff; stroke:#606060; stroke-linecap:round; stroke-linejoin:round; stroke-width:.5px;"/><path d="M29.12,137.88c0,7.26,11.39,19.91,11.39,19.91h0s11.39-25.8,11.39-33.06c0-3.66-1.3-6.22-3.39-7.4-2.06-1.16-4.88-.98-8,.82-6.29,3.63-11.39,12.46-11.39,19.73ZM35.89,134.29c0-.11-.01-.21-.01-.32,0-2.95,2.07-6.54,4.63-8.01.09-.05.18-.09.27-.14,2.43-1.24,4.36-.03,4.36,2.81,0,2.95-2.07,6.54-4.63,8.01-2.46,1.42-4.47.36-4.61-2.35Z" style="fill:#fff; stroke:#606060; stroke-linecap:round; stroke-linejoin:round; stroke-width:.5px;"/><polygon points="100.89 83.83 71.46 100.82 71.46 99.27 100.89 82.28 100.89 83.83" style="fill:#666; opacity:.2; stroke-width:0px;"/><polygon points="93.09 91.28 71.46 103.77 71.46 102.22 93.09 89.73 93.09 91.28" style="fill:#666; opacity:.2; stroke-width:0px;"/><polygon points="100.89 98.15 71.46 115.14 71.46 113.59 100.89 96.6 100.89 98.15" style="fill:#666; opacity:.2; stroke-width:0px;"/><polygon points="93.09 105.6 71.46 118.09 71.46 116.54 93.09 104.04 93.09 105.6" style="fill:#666; opacity:.2; stroke-width:0px;"/><polygon points="100.89 112.46 71.46 129.46 71.46 127.9 100.89 110.91 100.89 112.46" style="fill:#666; opacity:.2; stroke-width:0px;"/><polygon points="93.09 119.91 71.46 132.4 71.46 130.85 93.09 118.36 93.09 119.91" style="fill:#666; opacity:.2; stroke-width:0px;"/></svg>