<?xml version="1.0" encoding="UTF-8"?><svg id="Layer_1" xmlns="http://www.w3.org/2000/svg" viewBox="0 0 190 66"><rect y=".07692" width="18.16728" height="31.18846" fill="#e95420"/><circle cx="4.15483" cy="20.97962" r="1.88131" fill="#fff"/><circle cx="11.9898" cy="16.86222" r="1.88131" fill="#fff"/><path d="M8.39784,25.81218c-1.35511-.28982-2.48776-1.15381-3.12447-2.37843-.50144.22774-1.06553.29721-1.60854.19734.77052,1.88806,2.40417,3.25961,4.40942,3.68851.44015.09419.88869.1399,1.33591.13721-.34552-.45332-.53796-.99994-.55084-1.56994-.15495-.01718-.30971-.04228-.46148-.07469Z" fill="#fff"/><circle cx="11.56595" cy="25.82254" r="1.88131" fill="#fff"/><path d="M14.18389,25.13283c.58515-.73582.99683-1.60616,1.19541-2.53104.3462-1.61266.0229-3.3045-.88697-4.67702-.21654.50942-.58463.94048-1.05793,1.23665.50766.9549.66212,2.05732.43454,3.11732-.11136.51883-.3081,1.00778-.5853,1.45513.44244.36242.75544.84995.90025,1.39896Z" fill="#fff"/><path d="M4.00967,18.28675c.04775-.00261.09553-.00388.14331-.00388.18994,0,.37983.02017.56786.06035.30672.06558.5951.18158.85886.34517.847-1.21596,2.2136-1.9455,3.69454-1.97217.00782-.14177.02683-.2835.05673-.4227.08632-.40216.2626-.77843.51402-1.10014-2.36578-.187-4.66458,1.0315-5.83533,3.09338Z" fill="#fff"/><rect x="2.16331" y="14.80132" width="13.8452" height="13.81894" fill="none"/><path d="M27.29625,27.98232c-1.12639,0-2.02877-.218-2.70691-.654-.67844-.43607-1.17185-1.02931-1.48069-1.78039-.30884-.75085-.46326-1.59255-.46326-2.52531v-7.90273h1.41703v7.73925c0,1.34439.29978,2.32254.89933,2.93405.59948.61166,1.37759.91738,2.33449.91738.96885,0,1.75313-.30884,2.35269-.92652.59948-.61768.89926-1.59247.89926-2.92491v-7.73925h1.41703v7.90273c0,.93276-.15442,1.77445-.46326,2.52531-.30884.75108-.80248,1.34432-1.48061,1.78039-.67844.436-1.58683.654-2.72511.654Z" fill="#fff"/><path d="M38.50544,27.9278c-.53308,0-1.01736-.02726-1.45343-.08178-.436-.05444-.8206-.12114-1.15358-.1998-.33328-.07866-.6208-.15442-.86294-.22706v-13.57102l1.36252-.23612v5.21402c.218-.15731.54785-.31798.9901-.48146.44201-.16356.95378-.24526,1.53513-.24526.90839,0,1.67737.20894,2.30731.62674.62956.41788,1.11101.99642,1.44429,1.73501.33298.7389.49958,1.58676.49958,2.54343,0,1.01736-.19386,1.89248-.58136,2.62513-.38772.73296-.93276,1.29901-1.63503,1.69869-.70258.39968-1.52013.59948-2.45259.59948ZM38.48724,26.71057c.65407,0,1.22629-.14528,1.71681-.436.49052-.29064.86895-.71133,1.13545-1.26261.26627-.55098.39968-1.22005.39968-2.00745,0-.50872-.05163-.98705-.15442-1.43523-.10302-.44795-.27252-.84169-.50864-1.18091-.2362-.33892-.54504-.6023-.92659-.79022-.38148-.18769-.84474-.28166-1.38977-.28166-.5209,0-.99322.08802-1.41703.26346-.42412.17574-.7389.34828-.94471.51778v6.37673c.1695.0485.42694.0999.7721.15442.34524.05452.78405.0817,1.31713.0817Z" fill="#fff"/><path d="M49.33292,27.89148c-.94464,0-1.69267-.17886-2.24365-.53598-.55128-.35704-.94471-.86294-1.18084-1.51693-.2362-.654-.3543-1.41079-.3543-2.27091v-5.26853h1.36259v4.90518c0,.84794.0846,1.52607.25432,2.03471.16942.50872.44506.8752.82662,1.09913.38148.22424.88707.3361,1.51693.3361.50872,0,.95979-.02726,1.35345-.0817.39343-.05452.65095-.09998.7721-.1363v-8.15712h1.34439v9.08364c-.36336.09708-.85098.20612-1.46242.32704-.61174.12092-1.34158.18168-2.18921.18168Z" fill="#fff"/><path d="M56.03669,27.7098v-9.08364c.37524-.09678.86575-.20582,1.47155-.32704.60549-.12092,1.33213-.18168,2.18007-.18168.98104,0,1.74407.18168,2.28903.54504.54504.36336.92941.86918,1.15365,1.51701.22394.64806.3361,1.40196.3361,2.26177v5.26853h-1.36259v-4.88698c0-.85981-.07888-1.54427-.23612-2.05291-.15754-.50872-.42412-.87801-.79936-1.1082-.37554-.22995-.89644-.34524-1.56239-.34524-.50872,0-.9569.03038-1.34439.09084-.38772.06076-.64212.10904-.76304.14536v8.15712h-1.36252Z" fill="#fff"/><path d="M69.48047,27.90968c-.79936,0-1.42929-.13942-1.88943-.41788-.46044-.27846-.78428-.69633-.9719-1.25355-.18792-.55692-.28166-1.25355-.28166-2.08923v-8.57492l1.36259-.2362v2.96123h3.68794v1.14459h-3.68794v4.81434c0,.66618.07546,1.1749.22706,1.526.1513.35148.3693.59042.654.71765.28447.12716.62057.19074,1.00829.19074.46014,0,.84481-.05452,1.15365-.16348.30884-.10904.5541-.20582.73578-.29072l.29064,1.1082c-.18168.10904-.48138.23026-.89926.36336s-.88113.19988-1.38977.19988Z" fill="#fff"/><path d="M77.21948,27.89148c-.94464,0-1.69267-.17886-2.24365-.53598-.55128-.35704-.94471-.86294-1.18084-1.51693-.2362-.654-.3543-1.41079-.3543-2.27091v-5.26853h1.36259v4.90518c0,.84794.0846,1.52607.25432,2.03471.16942.50872.44506.8752.82662,1.09913.38148.22424.88707.3361,1.51693.3361.50872,0,.95979-.02726,1.35345-.0817.39343-.05452.65095-.09998.7721-.1363v-8.15712h1.34439v9.08364c-.36336.09708-.85098.20612-1.46242.32704-.61174.12092-1.34158.18168-2.18921.18168Z" fill="#fff"/><path d="M96.29455,27.7098c0-.03632-.00312-.09678-.00906-.18168-.00624-.0846-.00906-.18762-.00906-.30884,0-.76304.17254-1.45625.5177-2.08017.34524-.62362.77217-1.19903,1.28081-1.72587.50872-.52684,1.00517-1.02017,1.48975-1.48061.41156-.3875.78398-.75991,1.11726-1.11733.33298-.35704.60237-.73578.80842-1.13545.20582-.39968.30891-.84756.30891-1.34432,0-.81131-.21808-1.39267-.65407-1.74407-.436-.35117-.98728-.52684-1.65323-.52684-.49676,0-.92964.07576-1.29894.22706-.3696.1516-.6722.32102-.90839.50872-.23612.18785-.40874.33602-.5177.44506l-.70859-.92652c.13318-.14536.3543-.3361.66314-.5723s.69946-.44506,1.17178-.62674c.4724-.18168,1.00517-.27252,1.59871-.27252,1.24731,0,2.18609.3029,2.81595.90832.62963.6058.94471,1.44148.94471,2.50711,0,.62994-.14536,1.21442-.436,1.75313-.29072.5391-.66938,1.05375-1.13545,1.54427-.46638.49052-.95378.97814-1.46249,1.46242-.38772.37554-.76928.76616-1.14452,1.17178-.37554.40592-.68126.80568-.91746,1.19911-.2362.39366-.3543.7721-.3543,1.13545h5.86809v1.18084h-7.37596Z" fill="#fff"/><path d="M110.24697,27.98232c-.86012,0-1.5959-.25432-2.20733-.76304-.61174-.50872-1.08094-1.25043-1.40797-2.22553-.32704-.97472-.49052-2.16469-.49052-3.56984,0-1.41703.16036-2.61295.48146-3.58804.32072-.97479.7903-1.71681,1.40797-2.22545.61768-.50872,1.35627-.76304,2.21639-.76304,1.29581,0,2.30411.56628,3.02488,1.69861.7204,1.13264,1.08094,2.75861,1.08094,4.87792,0,2.10743-.36054,3.72746-1.08094,4.8598-.72078,1.13256-1.72907,1.69861-3.02488,1.69861ZM110.24697,26.76509c.67814,0,1.2081-.24808,1.58965-.74484.38148-.49646.654-1.15053.81748-1.96207.16356-.81131.24526-1.68955.24526-2.63427,0-.95659-.0817-1.84085-.24526-2.65239-.16348-.81131-.436-1.46531-.81748-1.96207-.38156-.49646-.91152-.74484-1.58965-.74484-.66626,0-1.1931.24838-1.58059.74484-.38772.49676-.66306,1.15076-.82654,1.96207-.16356.81154-.24526,1.6958-.24526,2.65239,0,.94471.0817,1.82296.24526,2.63427.16348.81154.43882,1.46561.82654,1.96207.3875.49676.91433.74484,1.58059.74484Z" fill="#fff"/><path d="M124.09012,27.7098v-5.12318c-.42412-.654-.83286-1.29894-1.22629-1.93481-.39374-.63588-.77217-1.26543-1.13545-1.88943-.36336-.62362-.71476-1.23817-1.05375-1.84397-.33922-.60542-.66618-1.20497-.98104-1.79851h1.65323c.49646,1.02954,1.04149,2.08329,1.63503,3.16111.59331,1.07812,1.21099,2.10141,1.85311,3.07027.42382-.65407.83849-1.32909,1.24442-2.02565.40569-.69633.79936-1.39891,1.18091-2.10743.38148-.70852.74172-1.40797,1.08094-2.09829h1.54419c-.32696.58136-.66024,1.17802-.99916,1.78945-.33922.61174-.6875,1.22629-1.04462,1.84397-.35742.61768-.72984,1.24449-1.11733,1.88029-.38772.63588-.79334,1.27487-1.21716,1.91669v5.1595h-1.41703Z" fill="#fff"/><path d="M131.66581,27.7098v-12.5899h7.41221v1.21716h-5.99517v4.16034h5.34118v1.19903h-5.34118v4.79614h6.44937v1.21723h-7.86641Z" fill="#fff"/><path d="M140.6947,27.7098c.654-1.75595,1.25355-3.35474,1.79859-4.79614.54496-1.44117,1.08094-2.79463,1.60777-4.06044.52684-1.26543,1.08688-2.50992,1.68049-3.73333h1.27168c.436.92058.85669,1.85022,1.26261,2.78869.40569.9387.80849,1.91067,1.20817,2.91585.39968,1.0054.81436,2.07415,1.24442,3.20649.42976,1.13264.88707,2.35893,1.37165,3.67888h-1.54419c-.21808-.60549-.43006-1.18373-.63588-1.73501-.20612-.55098-.39968-1.09281-.58136-1.62597h-5.99517c-.19394.53316-.39374,1.075-.59956,1.62597-.20612.55128-.41186,1.12952-.61768,1.73501h-1.47155ZM143.80128,23.14978h5.1595c-.23018-.60542-.4542-1.19279-.6722-1.76219-.218-.56917-.43318-1.12015-.64494-1.65323-.21198-.53278-.42404-1.05055-.6358-1.55333-.21206-.5024-.42694-.99604-.64494-1.48061-.20612.48458-.41506.97822-.62681,1.48061-.21206.50278-.42404,1.02055-.63588,1.55333-.21198.53308-.42686,1.08406-.64494,1.65323-.218.5694-.436,1.15678-.654,1.76219Z" fill="#fff"/><path d="M153.93852,27.7098v-12.35378c.46014-.12092.98697-.20886,1.58051-.26338.59331-.05452,1.13827-.08178,1.63503-.08178,1.73189,0,3.04902.33016,3.9514.9901.90215.66032,1.35345,1.63222,1.35345,2.91585,0,.93284-.24237,1.67767-.72664,2.23459-.48458.55722-1.13264.9569-1.94395,1.19903.20582.2544.45701.58448.75397.99017.29666.40592.60862.8538.93558,1.34432.32704.49052.64494.99642.95378,1.51701.30891.5209.5723,1.0236.7903,1.50787h-1.54419c-.32704-.62963-.69352-1.26261-1.09913-1.89849-.40592-.63588-.80248-1.23223-1.18997-1.78945-.38772-.55699-.73288-1.02337-1.03548-1.39891-.1698.01226-.34234.02444-.51778.03632-.17574.01226-.34836.0182-.51778.0182h-1.96207v5.03234h-1.41703ZM155.35556,21.49663h1.59871c.76304,0,1.44711-.05741,2.05291-.17262.60549-.11498,1.08688-.36024,1.44429-.73578.35711-.37524.5359-.93847.5359-1.68955,0-.71446-.17254-1.26261-.5177-1.64417-.34524-.38148-.79943-.64775-1.36259-.79936-.56316-.1513-1.16584-.22706-1.80765-.22706-.42404,0-.79936.0153-1.12632.04538-.32704.03038-.59956.05764-.81755.08178v5.14137Z" fill="#fff"/><path d="M168.05435,27.98232c-.98104,0-1.7957-.10904-2.44345-.32704-.64806-.218-1.0932-.39968-1.33533-.54504l.4542-1.19903c.25432.14536.66314.3211,1.22629.52691.56316.20604,1.26261.30884,2.09829.30884.95667,0,1.69557-.17262,2.21639-.51778.52067-.34516.78123-.89309.78123-1.64417,0-.58136-.14254-1.03837-.42694-1.37165-.2847-.3329-.66024-.60542-1.12639-.81748-.46638-.21176-.97814-.42694-1.53513-.64494-.67844-.26627-1.26886-.54785-1.77125-.84481-.50278-.29658-.8902-.65994-1.16271-1.09-.27252-.42976-.40882-.97197-.40882-1.62597,0-.72672.16356-1.33815.49052-1.83491.32704-.49646.79936-.872,1.41711-1.12639.61768-.25432,1.35033-.38148,2.19819-.38148.70227,0,1.35345.08802,1.95301.26338.59948.17574,1.06274.36648,1.38977.5723l-.47232,1.18091c-.35148-.24214-.77834-.43607-1.28081-.58136-.5027-.14536-1.03868-.218-1.60777-.218-.7753,0-1.4111.15754-1.90763.47232-.49676.31508-.74484.82974-.74484,1.54419,0,.48458.12092.87832.36336,1.18091.24214.30282.57511.55722.99923.76304.42374.20604.90207.4178,1.43516.6358.69039.26658,1.31089.54816,1.86217.84481.55098.29688.9901.67844,1.31713,1.14452.32704.46638.49052,1.0932.49052,1.88029,0,.76304-.18168,1.39891-.54504,1.90763-.36336.50864-.87824.89332-1.54419,1.15358-.66626.26034-1.45967.39062-2.37995.39062Z" fill="#fff"/><path d="M88.99433,31.26538V13.4909" fill="none" stroke="#fff" stroke-miterlimit="10" stroke-width=".46783"/></svg>