<?xml version="1.0" encoding="UTF-8"?><svg id="Layer_1" xmlns="http://www.w3.org/2000/svg" viewBox="0 0 190 66"><rect width="38.445" height="66" fill="#e95420"/><ellipse cx="8.79231" cy="44.23361" rx="3.98118" ry="3.97363" fill="#fff"/><ellipse cx="25.37243" cy="35.5205" rx="3.98118" ry="3.97363" fill="#fff"/><path d="M17.77124,54.46013c-2.86763-.6133-5.26452-2.44166-6.61191-5.03317-1.06114.48195-2.25483.62895-3.40394.41761,1.63055,3.99546,5.08763,6.89788,9.33108,7.8055.93144.19932,1.88061.29606,2.82701.29037-.73118-.95931-1.13842-2.11604-1.16566-3.32225-.3279-.03636-.6554-.08947-.97657-.15807Z" fill="#fff"/><ellipse cx="24.47549" cy="54.48205" rx="3.98118" ry="3.97363" fill="#fff"/><path d="M30.01548,53.02251c1.23827-1.55712,2.10945-3.39891,2.52968-5.3561.73261-3.41266.04846-6.99288-1.87697-9.89736-.45824,1.07802-1.23716,1.99022-2.23876,2.61696,1.07428,2.02073,1.40115,4.35364.91956,6.59676-.23565,1.09793-.652,2.13264-1.23859,3.0793.93627.76694,1.59864,1.79864,1.90508,2.96043Z" fill="#fff"/><path d="M8.48514,38.53505c.10104-.00553.20216-.00822.30327-.00822.40194,0,.80379.04268,1.20169.12772.64907.13878,1.25934.38426,1.8175.73043,1.7924-2.57317,4.68434-4.11701,7.81827-4.17344.01655-.30001.05677-.59994.12004-.8945.18268-.85103.55571-1.64729,1.08775-2.32809-5.00638-.39572-9.87103,2.18282-12.34852,6.5461Z" fill="#fff"/><rect x="4.57793" y="31.1593" width="29.29876" height="29.2432" fill="none"/><path d="M47.27804,23.3672c0-.02868-.00242-.07638-.00725-.14341s-.00709-.14824-.00709-.24396c0-.60296.13632-1.15081.40912-1.64388.27264-.49274.61005-.94746,1.01191-1.36351.40203-.41637.79438-.80631,1.17724-1.17015.32517-.30615.61939-.60038.88285-.88269.26297-.2823.47583-.58137.63873-.89719.16258-.31582.24412-.66967.24412-1.06219,0-.64131-.17241-1.10054-.51691-1.37833-.3445-.27747-.78004-.41604-1.3063-.41604-.39252,0-.73444.05962-1.02625.17918-.29213.11988-.53125.25395-.71785.40219s-.32291.26555-.40912.35159l-.55978-.73219c.10522-.11473.27989-.26555.52384-.45214.24412-.18659.55269-.35159.92603-.49532.37318-.14341.79422-.21527,1.26312-.21527.98565,0,1.72734.23944,2.22508.71769.49742.47889.74653,1.13921.74653,1.98097,0,.4979-.11489.95971-.34466,1.38542-.22961.42604-.52884.83241-.89719,1.2201-.36851.38769-.75362.77312-1.15548,1.15564-.30647.29681-.60779.60521-.90444.92587s-.53818.63647-.72494.94746c-.18659.31099-.27989.61005-.27989.89719h4.63676v.93296h-5.82817Z" fill="#1d1d1b"/><path d="M58.30258,23.58247c-.67966,0-1.26103-.20077-1.7441-.60264-.4834-.40219-.85417-.98807-1.11262-1.7586-.2583-.77021-.38752-1.71059-.38752-2.82079,0-1.11955.12665-2.06476.38043-2.83497.25346-.77021.62439-1.35674,1.11246-1.7586s1.07169-.60296,1.75135-.60296c1.02384,0,1.82064.44763,2.39008,1.34224.56928.89493.85417,2.1798.85417,3.8543,0,1.66515-.28488,2.94519-.85417,3.84012-.56944.89493-1.36625,1.34191-2.39008,1.34191ZM58.30258,22.62083c.53577,0,.95455-.19594,1.25603-.58846s.51675-.90911.64598-1.55042c.12923-.64099.19384-1.33515.19384-2.08151,0-.75571-.06461-1.45471-.19384-2.09569-.12923-.64131-.3445-1.1579-.64598-1.55042-.30148-.3922-.72026-.58846-1.25603-.58846-.52642,0-.94279.19626-1.24894.58846-.30631.39252-.524.90911-.65307,1.55042-.12923.64099-.19384,1.33998-.19384,2.09569,0,.74637.06461,1.44053.19384,2.08151.12907.64131.34676,1.1579.65307,1.55042.30615.39252.72252.58846,1.24894.58846Z" fill="#1d1d1b"/><path d="M69.24092,23.3672v-4.04798c-.33516-.51691-.65807-1.02642-.96889-1.52883-.31115-.50241-.61021-.99999-.89719-1.49306-.28714-.49274-.56477-.9784-.83257-1.45696-.26813-.47824-.52642-.95197-.77521-1.42119h1.3063c.3922.81372.82291,1.64613,1.29196,2.49788.46874.85175.95681,1.66031,1.46421,2.42602.33483-.51691.66258-1.05026.98323-1.60069.32049-.55011.63164-1.10537.93312-1.66515s.58604-1.11246.85417-1.65806h1.2201c-.2583.45955-.52175.93103-.78955,1.4141-.26796.4834-.54318.96905-.82532,1.45696-.28247.48823-.57669.98323-.88285,1.48564-.30647.50241-.62697,1.0074-.9618,1.51465v4.07666h-1.11971Z" fill="#1d1d1b"/><path d="M75.22685,23.3672v-9.94802h5.85686v.96196h-4.73714v3.28711h4.22039v.94746h-4.22039v3.78984h5.09599v.96164h-6.2157Z" fill="#1d1d1b"/><path d="M82.36116,23.3672c.51675-1.38735.99048-2.65063,1.42119-3.78952.43055-1.13889.854-2.20816,1.27037-3.20848.41621-.99999.85884-1.98322,1.3279-2.95002h1.00482c.3445.72735.67692,1.46212.99757,2.20365.32049.74153.63889,1.50981.95471,2.30388.31582.79438.6434,1.63904.98323,2.53365.33967.89493.70093,1.86398,1.08378,2.90684h-1.2201c-.17225-.47824-.33983-.93521-.50241-1.37092-.16291-.43538-.31582-.86335-.45939-1.28455h-4.73714c-.15324.4212-.31115.84917-.47373,1.28455-.16291.4357-.32549.89268-.48807,1.37092h-1.16273ZM84.81586,19.76427h4.07682c-.18192-.47856-.35884-.94263-.53109-1.39251s-.34241-.88494-.50966-1.30646c-.16758-.42088-.33516-.82983-.50241-1.22719-.16758-.39703-.33741-.78697-.50966-1.16982-.16274.38285-.32791.77279-.49516,1.16982-.16758.39735-.33516.80631-.50241,1.22719-.16758.42152-.33741.85658-.50966,1.30646s-.3445.91395-.51675,1.39251Z" fill="#1d1d1b"/><path d="M92.82577,23.3672v-9.76143c.36352-.09539.77988-.165,1.24878-.20818.4689-.04286.89944-.06445,1.29196-.06445,1.3685,0,2.40926.26071,3.12227.78246.71285.52175,1.06944,1.28971,1.06944,2.30388,0,.73702-.19159,1.32548-.57412,1.76569-.38301.44021-.89493.75604-1.53608.94746.16258.20077.3611.46181.59571.78214.23445.32098.48098.67482.73928,1.06251.25846.38736.50966.78729.75362,1.19851.24412.41153.4523.80889.62455,1.19142h-1.22026c-.2583-.49726-.54785-.99773-.86851-1.50015s-.63406-.97356-.94021-1.41378c-.30631-.44021-.57911-.80856-.81823-1.10537-.13406.00967-.27054.01934-.40912.02868-.13874.00967-.27521.0145-.40912.0145h-1.55026v3.97611h-1.11971ZM93.94548,18.45781h1.26312c.60296,0,1.14356-.04512,1.62212-.13632.47856-.09088.85884-.28456,1.1413-.58137.28214-.29648.42346-.74153.42346-1.33515,0-.56429-.13632-.99741-.40912-1.29905-.2728-.30132-.63164-.51176-1.07669-.63164-.44489-.11956-.9212-.1795-1.42828-.1795-.33516,0-.63164.01225-.88994.03609-.25846.02385-.47373.04544-.64598.06445v4.06248Z" fill="#1d1d1b"/><path d="M103.97955,23.58247c-.77505,0-1.41877-.08604-1.93069-.25813-.51208-.17241-.86383-.31582-1.0551-.43087l.35884-.94746c.20093.11505.524.25395.96905.41637.44489.16274.99757.24396,1.6579.24396.75587,0,1.33982-.13632,1.75135-.40896.41137-.27264.6173-.70576.6173-1.29905,0-.45955-.11263-.82049-.33741-1.08378-.22494-.26329-.52175-.47856-.88994-.64614-.36851-.16726-.77295-.33741-1.21301-.5095-.53609-.21044-1.00257-.4328-1.3996-.66741-.39719-.23461-.70351-.52175-.91878-.86142s-.32291-.76796-.32291-1.28487c0-.57428.12907-1.05735.38752-1.44987.25846-.3922.63164-.689,1.11971-.88978.48807-.20109,1.06702-.30164,1.73701-.30164.55478,0,1.06944.06961,1.54317.20818.47357.1389.83966.28972,1.09812.45214l-.37334.93296c-.27763-.1911-.61488-.3445-1.01191-.45923-.39719-.11473-.82081-.17209-1.27053-.17209-.61247,0-1.11488.12439-1.50724.37318-.39252.24879-.58846.65549-.58846,1.2201,0,.38285.09555.69384.28698.93296.19143.23944.45456.44054.78955.60296.33483.16274.71285.33032,1.13405.50241.5456.21076,1.03576.43312,1.47146.66741.43538.23461.7823.53625,1.04076.9046.2583.36835.38752.86367.38752,1.48564,0,.60296-.14357,1.10537-.43071,1.50724-.28698.40187-.694.70576-1.2201.91169-.52642.20561-1.15339.30841-1.88058.30841Z" fill="#1d1d1b"/><path d="M57.76085,59.05586c-2.38364,0-4.29322-.46116-5.72827-1.38381-1.43569-.92297-2.47983-2.17819-3.13339-3.76761-.65355-1.58909-.98033-3.37025-.98033-5.34413v-16.72333h2.99868v16.37754c0,2.84496.63438,4.91487,1.90314,6.20877,1.2686,1.29454,2.91521,1.94133,4.94017,1.94133,2.05025,0,3.70992-.65355,4.97868-1.96066,1.2686-1.30711,1.90298-3.36993,1.90298-6.18943v-16.37754h2.99868v16.72333c0,1.97388-.32678,3.75504-.98033,5.34413-.65355,1.58941-1.69818,2.84464-3.13323,3.76761-1.43569.92265-3.35801,1.38381-5.76678,1.38381Z" fill="#1d1d1b"/><path d="M81.48138,58.94049c-1.12809,0-2.1529-.05769-3.0757-.17306-.92265-.11505-1.73653-.2562-2.44116-.42281-.70528-.16629-1.31372-.32678-1.82612-.4805v-28.71838l2.88331-.49983v11.03373c.46132-.3329,1.15935-.67289,2.09521-1.01868.93538-.34611,2.01835-.51917,3.2486-.51917,1.92231,0,3.54959.44215,4.88265,1.32645,1.33225.8843,2.35109,2.10858,3.05637,3.67157.70463,1.56363,1.05719,3.35769,1.05719,5.38216,0,2.15306-.41024,4.00479-1.23025,5.55521-.82049,1.55106-1.97388,2.74893-3.46,3.59487-1.48677.84563-3.21686,1.26844-5.19009,1.26844ZM81.44287,56.36462c1.38413,0,2.59504-.30744,3.63306-.92265,1.03802-.61488,1.83885-1.5053,2.40281-2.6719.56348-1.16596.84579-2.58167.84579-4.24811,0-1.07637-.10925-2.0886-.32678-3.03703-.21801-.94811-.57669-1.78116-1.07637-2.49917-.49983-.71704-1.15339-1.27456-1.96083-1.67224-.80728-.39703-1.78761-.59587-2.941-.59587-1.10231,0-2.10182.18627-2.99868.55752-.89751.37189-1.56363.73702-1.99917,1.0957v13.49423c.35868.10248.90347.21141,1.63389.32678.73058.11537,1.65918.17273,2.78728.17273Z" fill="#1d1d1b"/><path d="M104.39414,58.86379c-1.99901,0-3.58198-.37866-4.74794-1.13437-1.1666-.75539-1.99917-1.82596-2.49885-3.21009-.49983-1.38381-.74975-2.98547-.74975-4.80562v-11.1491h2.88347v10.38018c0,1.79437.17902,3.22942.53818,4.30579.35852,1.07669.94182,1.85206,1.74926,2.32611.80728.47438,1.8772.71124,3.21009.71124,1.07653,0,2.03108-.05769,2.86414-.17306.83257-.11537,1.37752-.21141,1.63389-.28843v-17.26184h2.84496v19.2225c-.76893.20561-1.80082.43635-3.09472.69223-1.29454.25588-2.839.38446-4.63273.38446Z" fill="#1d1d1b"/><path d="M118.58043,58.47933v-19.2225c.79406-.20496,1.83208-.4357,3.11405-.69223,1.28133-.25588,2.81902-.38446,4.61339-.38446,2.07604,0,3.69075.38446,4.84397,1.15339,1.15339.76893,1.96679,1.83949,2.44132,3.21041.47389,1.37124.71124,2.96678.71124,4.78629v11.1491h-2.88347v-10.34183c0-1.81951-.16693-3.26777-.49967-4.34414-.33338-1.07669-.89751-1.85818-1.69157-2.34513-.79471-.48662-1.89702-.73058-3.30628-.73058-1.07653,0-2.02496.06413-2.84496.19207-.82049.12858-1.35883.23074-1.61471.30776v17.26184h-2.88331Z" fill="#1d1d1b"/><path d="M147.02972,58.90214c-1.69157,0-3.02462-.29487-3.99835-.8843-.97437-.5891-1.65967-1.4734-2.0567-2.65257-.39768-1.17853-.59603-2.65289-.59603-4.42116v-18.14613l2.88347-.49983v6.26646h7.80431v2.42215h-7.80431v10.18811c0,1.40959.15968,2.48628.4805,3.2291.32017.74379.78149,1.24942,1.38397,1.51884.60199.26909,1.31323.40348,2.13372.40348.97373,0,1.78777-.11537,2.44132-.34579.65355-.23074,1.17256-.4357,1.55703-.61521l.61504,2.34513c-.38446.23074-1.01868.48727-1.90298.76893s-1.86463.42281-2.941.42281Z" fill="#1d1d1b"/><path d="M163.40678,58.86379c-1.99901,0-3.58198-.37866-4.74794-1.13437-1.1666-.75539-1.99917-1.82596-2.49885-3.21009-.49983-1.38381-.74975-2.98547-.74975-4.80562v-11.1491h2.88347v10.38018c0,1.79437.17902,3.22942.53818,4.30579.35852,1.07669.94182,1.85206,1.74926,2.32611.80728.47438,1.8772.71124,3.21009.71124,1.07653,0,2.03108-.05769,2.86414-.17306.83257-.11537,1.37752-.21141,1.63389-.28843v-17.26184h2.84496v19.2225c-.76893.20561-1.80082.43635-3.09472.69223-1.29454.25588-2.839.38446-4.63273.38446Z" fill="#1d1d1b"/></svg>