<?xml version="1.0" encoding="UTF-8"?>
<svg id="rr_black_aw" data-name="rr black aw" xmlns="http://www.w3.org/2000/svg" viewBox="0 0 900 900">
  <path d="M434.397,477.508c-1.278.3-1.972,1.705-1.444,2.914,3.688,8.44,9.014,15.992,15.571,22.251.826.789,2.125.789,2.951,0,6.558-6.259,11.883-13.811,15.571-22.251.528-1.209-.166-2.614-1.444-2.914-5.012-1.177-10.234-1.803-15.603-1.803s-10.591.626-15.603,1.803Z"/>
  <path d="M767.963,454.24c.022-1.411.037-2.824.037-4.24s-.015-2.829-.037-4.24h-159.02c-.053-2.024-.155-4.036-.283-6.041l52.87-5.557c-.083-1.414-.182-2.825-.288-4.233l105.248-11.062c-.137-1.408-.282-2.814-.438-4.217l-105.16,11.053c-.128-1.409-.263-2.817-.413-4.22l-53.131,5.584c-.188-1.299-.391-2.592-.61-3.881l52.557-11.171c-.201-1.403-.418-2.802-.641-4.198l102.893-21.871c-.284-1.386-.577-2.769-.879-4.148l-102.718,21.833c-.246-1.394-.498-2.786-.766-4.172l-53.073,11.281c-.323-1.272-.661-2.538-1.015-3.797l52.087-16.924c-.32-1.383-.655-2.76-.996-4.134l98.974-32.159c-.428-1.348-.864-2.692-1.309-4.033l-98.722,32.077c-.364-1.369-.734-2.735-1.119-4.094l-52.841,17.169c-.455-1.23-.925-2.453-1.41-3.669l51.404-22.887c-.438-1.352-.89-2.698-1.349-4.04l93.624-41.684c-.567-1.295-1.145-2.585-1.729-3.872l-93.304,41.542c-.48-1.334-.967-2.664-1.468-3.988l-52.363,23.314c-.582-1.175-1.177-2.341-1.787-3.5l50.429-29.115c-.554-1.312-1.122-2.616-1.697-3.916l86.975-50.215c-.7-1.228-1.407-2.452-2.122-3.67l-86.606,50.002c-.594-1.289-1.195-2.574-1.809-3.851l-51.537,29.755c-.701-1.107-1.415-2.205-2.142-3.293l49.045-35.633c-.668-1.261-1.349-2.513-2.037-3.761l79.238-57.57c-.824-1.149-1.656-2.291-2.496-3.428l-78.832,57.275c-.706-1.234-1.417-2.464-2.142-3.685l-50.26,36.516c-.812-1.027-1.637-2.043-2.474-3.05l47.151-42.455c-.778-1.199-1.569-2.389-2.366-3.575l70.63-63.595c-.939-1.056-1.887-2.105-2.84-3.149l-70.205,63.213c-.813-1.169-1.632-2.333-2.463-3.488l-48.426,43.603c-.914-.937-1.839-1.862-2.776-2.776l44.635-49.572c-.884-1.127-1.789-2.236-2.691-3.348l61.383-68.173c-1.044-.953-2.092-1.9-3.149-2.839l-60.961,67.704c-.916-1.094-1.828-2.192-2.761-3.271l-45.904,50.982c-1.006-.837-2.022-1.662-3.05-2.474l41.353-56.918c-.984-1.044-1.989-2.069-2.99-3.097l51.743-71.219c-1.137-.839-2.28-1.671-3.428-2.495l-51.337,70.659c-1.013-1.008-2.023-2.02-3.052-3.012l-42.575,58.599c-1.088-.727-2.186-1.441-3.293-2.142l37.205-64.441c-1.079-.951-2.177-1.88-3.272-2.814l41.972-72.697c-1.218-.716-2.442-1.423-3.67-2.122l-41.599,72.052c-1.104-.912-2.205-1.828-3.325-2.722l-38.323,66.377c-1.471-.774-2.952-1.53-4.449-2.259l32.138-72.184c-.877-.631-1.765-1.247-2.65-1.868l32.329-72.612c-1.286-.584-2.576-1.161-3.872-1.729l-32.008,71.891c-.891-.604-1.778-1.213-2.677-1.807l-32.945,73.995c-1.866-.758-3.747-1.487-5.647-2.175l25.893-79.69c-.935-.544-1.88-1.072-2.822-1.605l23.077-71.023c-1.34-.445-2.685-.882-4.033-1.31l-22.821,70.236c-.946-.515-1.889-1.037-2.843-1.541l-26.533,81.659c-1.934-.557-3.884-1.072-5.848-1.557l18.478-86.93c-.985-.449-1.979-.88-2.971-1.317l14.466-68.058c-1.38-.301-2.762-.595-4.148-.879l-14.289,67.226c-.994-.419-1.985-.844-2.985-1.25l-18.919,89.007c-1.979-.35-3.974-.654-5.978-.93l9.845-93.67c-1.026-.346-2.06-.673-3.092-1.006l6.714-63.881c-1.403-.155-2.809-.301-4.218-.438l-6.624,63.023c-1.032-.315-2.062-.636-3.099-.939l-10.07,95.812c-2.003-.141-4.017-.243-6.04-.31v-99.658c-1.056-.237-2.119-.456-3.18-.68v-58.745c-.707-.005-1.412-.013-2.12-.013s-1.413.009-2.12.013v57.884c-1.059-.206-2.116-.419-3.18-.612v101.812c-2.023.066-4.036.168-6.04.31l-10.999-104.651c-1.074-.124-2.155-.228-3.233-.339l-5.561-52.907c-1.408.137-2.814.282-4.217.438l5.472,52.062c-1.075-.093-2.148-.192-3.226-.272l11.222,106.767c-2.004.276-3.998.581-5.978.93l-23.046-108.423c-.698-.005-1.395-.013-2.094-.013-.387,0-.772.008-1.158.01l-9.896-46.556c-1.386.283-2.768.577-4.148.879l9.721,45.733c-1.079.023-2.158.046-3.234.08l23.486,110.492c-1.963.485-3.914,1-5.848,1.557l-36.01-110.827c-1.079.11-2.151.239-3.226.362l-12.961-39.889c-1.348.428-2.692.864-4.033,1.309l12.706,39.105c-1.069.14-2.14.274-3.205.426l36.647,112.788c-1.901.688-3.781,1.417-5.647,2.175l-49.691-111.607c-1.057.23-2.107.479-3.16.721l-14.779-33.193c-1.295.567-2.585,1.145-3.872,1.729l14.455,32.467c-1.045.259-2.092.512-3.132.783l50.495,113.413c-1.816.884-3.611,1.804-5.388,2.754l-63.822-110.542c-1.021.349-2.034.716-3.05,1.077l-15.437-26.737c-1.228.7-2.452,1.407-3.67,2.122l15.063,26.09c-1.006.377-2.016.747-3.017,1.135l64.759,112.165c-2.013,1.256-3.995,2.554-5.946,3.896l-78.2-107.633c-.646.312-1.286.635-1.929.952l-15.082-20.758c-1.149.824-2.291,1.656-3.428,2.495l14.673,20.196c-.636.327-1.275.649-1.908.981l79.017,108.758c-2.16,1.661-4.276,3.375-6.346,5.143l-92.302-102.511c-.603.385-1.199.781-1.799,1.171l-13.906-15.444c-1.056.939-2.105,1.887-3.149,2.839l13.481,14.972c-.592.399-1.187.793-1.775,1.197l93.145,103.448c-1.974,1.876-3.9,3.802-5.776,5.776l-105.868-95.324c-.552.453-1.095.916-1.643,1.373l-12.105-10.899c-.953,1.044-1.9,2.092-2.839,3.149l11.684,10.52c-.539.466-1.082.927-1.617,1.397l106.717,96.089c-1.768,2.07-3.481,4.186-5.143,6.346l-118.572-86.147c-.492.515-.975,1.038-1.463,1.558l-9.9-7.193c-.839,1.137-1.671,2.279-2.495,3.428l9.498,6.9c-.478.526-.961,1.048-1.435,1.578l119.377,86.732c-1.542,2.242-3.03,4.523-4.458,6.846l-130.048-75.083c-.425.57-.841,1.147-1.261,1.72l-7.52-4.342c-.716,1.218-1.423,2.442-2.122,3.67l7.151,4.129c-.41.579-.825,1.155-1.231,1.737l130.778,75.505c-1.299,2.39-2.534,4.818-3.712,7.28l-139.978-62.322c-.351.617-.692,1.239-1.039,1.858l-5.184-2.308c-.584,1.286-1.161,2.576-1.729,3.872l4.866,2.167c-.336.624-.677,1.245-1.007,1.872l140.622,62.609c-1.04,2.511-2.016,5.055-2.929,7.629l-148.072-48.112c-1.082,2.613-2.123,5.247-3.123,7.902l148.577,48.275c-.769,2.604-1.474,5.236-2.111,7.894l-154.055-32.745c-.743,2.724-1.442,5.465-2.1,8.223l154.398,32.818c-.49,2.668-.915,5.358-1.27,8.071l-157.737-16.579c-.394,2.791-.742,5.598-1.049,8.416l157.905,16.597c-.208,2.701-.349,5.421-.421,8.158h-159.02c-.022,1.411-.037,2.824-.037,4.24s.015,2.829.037,4.24h159.02c.053,2.024.155,4.036.283,6.041l-52.87,5.557c.083,1.414.182,2.825.288,4.233l-105.247,11.062c.137,1.409.282,2.815.438,4.218l105.16-11.053c.128,1.409.263,2.817.413,4.22l53.131-5.584c.188,1.299.391,2.592.61,3.881l-52.557,11.171c.201,1.403.418,2.802.641,4.198l-102.893,21.87c.284,1.386.577,2.769.879,4.148l102.718-21.833c.246,1.394.498,2.785.766,4.171l53.073-11.281c.323,1.272.661,2.538,1.015,3.797l-52.087,16.924c.32,1.383.655,2.76.996,4.134l-98.974,32.159c.428,1.348.864,2.693,1.31,4.033l98.722-32.077c.364,1.369.734,2.735,1.119,4.095l52.841-17.169c.455,1.23.925,2.453,1.41,3.669l-51.404,22.887c.438,1.352.89,2.698,1.349,4.041l-93.624,41.684c.567,1.295,1.145,2.585,1.729,3.872l93.304-41.542c.48,1.334.967,2.664,1.468,3.988l52.363-23.314c.582,1.175,1.177,2.341,1.787,3.499l-50.429,29.115c.554,1.312,1.122,2.616,1.697,3.916l-86.975,50.215c.7,1.228,1.407,2.452,2.122,3.67l86.606-50.002c.594,1.289,1.195,2.574,1.81,3.851l51.537-29.755c.701,1.107,1.415,2.205,2.142,3.293l-49.045,35.633c.668,1.261,1.349,2.513,2.036,3.761l-79.238,57.57c.824,1.149,1.656,2.291,2.495,3.428l78.832-57.275c.705,1.234,1.417,2.463,2.142,3.685l50.26-36.516c.812,1.027,1.637,2.043,2.474,3.05l-47.151,42.455c.778,1.199,1.569,2.39,2.366,3.575l-70.63,63.595c.939,1.056,1.887,2.105,2.839,3.149l70.205-63.213c.813,1.169,1.632,2.333,2.463,3.488l48.426-43.603c.914.937,1.839,1.862,2.776,2.776l-44.635,49.572c.884,1.127,1.789,2.236,2.691,3.348l-61.384,68.173c1.044.953,2.093,1.9,3.149,2.84l60.961-67.704c.916,1.094,1.828,2.192,2.761,3.27l45.904-50.981c1.006.837,2.023,1.662,3.05,2.474l-41.353,56.918c.984,1.044,1.989,2.069,2.99,3.097l-51.743,71.219c1.137.839,2.28,1.671,3.428,2.496l51.337-70.659c1.013,1.008,2.023,2.02,3.052,3.012l42.575-58.599c1.088.727,2.186,1.441,3.293,2.142l-37.205,64.441c1.079.951,2.177,1.88,3.271,2.814l-41.972,72.697c1.218.716,2.442,1.423,3.67,2.122l41.599-72.052c1.104.912,2.205,1.828,3.324,2.722l38.323-66.377c1.471.774,2.952,1.53,4.45,2.259l-32.138,72.184c.877.631,1.765,1.247,2.649,1.867l-32.329,72.611c1.286.584,2.576,1.161,3.872,1.729l32.008-71.891c.891.604,1.778,1.213,2.677,1.806l32.945-73.995c1.866.758,3.747,1.487,5.647,2.175l-25.893,79.69c.935.544,1.88,1.072,2.822,1.605l-23.077,71.023c1.34.445,2.685.882,4.033,1.309l22.821-70.236c.946.516,1.889,1.037,2.843,1.541l26.533-81.659c1.934.557,3.885,1.072,5.848,1.557l-18.478,86.93c.985.449,1.98.88,2.971,1.317l-14.466,68.058c1.379.301,2.762.595,4.148.879l14.289-67.226c.994.419,1.985.844,2.985,1.25l18.919-89.007c1.979.35,3.974.654,5.978.93l-9.845,93.67c1.026.346,2.06.673,3.092,1.006l-6.714,63.881c1.403.155,2.809.301,4.217.438l6.624-63.023c1.032.315,2.062.636,3.099.939l10.07-95.812c2.003.141,4.017.243,6.04.31v99.658c1.056.237,2.119.456,3.18.68v58.745c.707.005,1.412.013,2.12.013s1.413-.009,2.12-.013v-57.884c1.059.206,2.116.419,3.18.612v-101.812c2.023-.066,4.036-.168,6.04-.31l10.999,104.651c1.074.124,2.155.228,3.233.339l5.561,52.907c1.409-.137,2.815-.282,4.218-.438l-5.472-52.062c1.075.093,2.148.192,3.226.272l-11.222-106.767c2.004-.276,3.999-.581,5.978-.93l23.046,108.423c.698.005,1.395.013,2.094.013.387,0,.772-.008,1.158-.01l9.896,46.556c1.386-.284,2.769-.577,4.148-.879l-9.721-45.733c1.079-.023,2.158-.046,3.234-.08l-23.486-110.492c1.963-.485,3.914-1,5.848-1.557l36.01,110.828c1.079-.11,2.151-.239,3.226-.362l12.961,39.889c1.348-.428,2.693-.864,4.033-1.309l-12.706-39.105c1.069-.14,2.14-.274,3.205-.426l-36.647-112.788c1.9-.688,3.781-1.417,5.647-2.175l49.691,111.607c1.057-.23,2.108-.479,3.16-.721l14.779,33.193c1.295-.567,2.585-1.145,3.872-1.729l-14.455-32.467c1.045-.259,2.092-.512,3.133-.783l-50.495-113.413c1.816-.884,3.611-1.804,5.388-2.754l63.821,110.542c1.021-.349,2.034-.716,3.05-1.077l15.437,26.738c1.228-.7,2.452-1.407,3.67-2.122l-15.063-26.09c1.006-.377,2.016-.747,3.017-1.135l-64.758-112.165c2.013-1.256,3.995-2.554,5.946-3.897l78.2,107.633c.646-.312,1.285-.635,1.928-.952l15.082,20.758c1.149-.824,2.291-1.656,3.428-2.496l-14.673-20.196c.636-.327,1.275-.649,1.907-.981l-79.017-108.758c2.16-1.661,4.276-3.375,6.346-5.143l92.302,102.511c.603-.385,1.199-.78,1.799-1.171l13.906,15.444c1.056-.939,2.105-1.887,3.149-2.84l-13.481-14.972c.592-.399,1.187-.793,1.775-1.197l-93.145-103.448c1.974-1.876,3.9-3.802,5.776-5.776l105.868,95.324c.552-.453,1.095-.916,1.643-1.373l12.105,10.899c.953-1.044,1.9-2.093,2.84-3.149l-11.684-10.52c.539-.465,1.082-.927,1.617-1.396l-106.717-96.089c1.768-2.07,3.481-4.186,5.143-6.346l118.572,86.147c.492-.515.975-1.038,1.463-1.557l9.9,7.193c.839-1.137,1.671-2.28,2.496-3.428l-9.497-6.9c.478-.526.96-1.048,1.435-1.578l-119.377-86.732c1.542-2.242,3.03-4.524,4.458-6.847l130.048,75.083c.425-.57.84-1.147,1.261-1.72l7.52,4.342c.716-1.218,1.423-2.442,2.122-3.67l-7.151-4.129c.41-.579.825-1.155,1.231-1.737l-130.778-75.505c1.299-2.39,2.534-4.818,3.712-7.28l139.978,62.322c.351-.617.692-1.239,1.039-1.858l5.184,2.308c.584-1.286,1.161-2.576,1.729-3.872l-4.866-2.167c.336-.624.677-1.245,1.007-1.872l-140.622-62.609c1.04-2.511,2.016-5.055,2.929-7.629l148.072,48.112c1.082-2.613,2.123-5.247,3.123-7.902l-148.577-48.275c.769-2.604,1.474-5.236,2.111-7.894l154.055,32.745c.743-2.724,1.442-5.465,2.1-8.223l-154.398-32.818c.49-2.668.915-5.358,1.27-8.071l157.737,16.579c.394-2.791.742-5.598,1.049-8.416l-157.905-16.597c.208-2.701.349-5.421.421-8.158h159.02ZM550.406,482.356c-8.584-35.132-35.127-63.218-69.348-73.985-5.117-1.61-10.502,1.568-11.554,6.827l-6.224,31.12c-.468,2.339,1.052,4.688,3.367,5.262,30.012,7.446,52.258,34.563,52.257,66.878-19.194,14.419-43.049,22.967-68.904,22.967s-49.71-8.548-68.904-22.967c0,0,0,0,0-.001,0-32.314,22.245-59.431,52.257-66.877,2.315-.574,3.835-2.923,3.367-5.262l-6.224-31.12c-1.052-5.26-6.437-8.437-11.554-6.827-34.221,10.767-60.764,38.853-69.348,73.985-6.985-12.549-11.69-26.541-13.544-41.419,6.499-9.535,14.166-18.21,22.791-25.824,2.052-20.65,9.572-39.691,21.095-55.652.71-.984,2.09-1.177,3.046-.43,10.011,7.822,18.69,17.269,25.644,27.944,13.061-4.106,26.959-6.324,41.375-6.324s28.305,2.216,41.362,6.32c6.953-10.673,15.631-20.118,25.641-27.939.956-.747,2.336-.553,3.046.43,11.52,15.957,19.039,34.993,21.093,55.636,8.632,7.618,16.305,16.299,22.809,25.84-1.855,14.878-6.56,28.87-13.544,41.419ZM500.88,439.665c0,4.683-3.797,8.48-8.48,8.48s-8.48-3.797-8.48-8.48,3.797-8.48,8.48-8.48,8.48,3.797,8.48,8.48ZM399.12,439.665c0-4.683,3.797-8.48,8.48-8.48s8.48,3.797,8.48,8.48-3.797,8.48-8.48,8.48-8.48-3.797-8.48-8.48Z"/>
</svg>