<?xml version="1.0" encoding="UTF-8"?><svg id="a" xmlns="http://www.w3.org/2000/svg" viewBox="0 0 900 900"><path d="M671.3275,606.6321c31.5126-44.3276,50.0422-98.529,50.0422-157.0582,0-103.2483-57.6682-193.017-142.5448-238.8854l6.6884,51.2778c3.5274,27.0451-4.7701,54.3105-22.7654,74.8056-17.9946,20.4947-43.958,32.2492-71.2325,32.2492h-38.5694v15.5969c14.8914,3.6838,28.9242,10.5589,40.7139,19.9654l-3.6749,4.6054c-11.7006-9.336-25.7499-16.032-40.6284-19.3642-1.3455-.3013-2.302-1.4955-2.302-2.8744v-17.9291h-149.1995l48.5771-62.4567-27.6344-34.5433c-1.978-2.4735-2.3545-5.7827-.9827-8.6366,1.3721-2.8543,4.1919-4.6274,7.3587-4.6274h58.4428l61.8671-80.5116c-147.7898,2.412-266.8536,122.9637-266.8536,271.3284,0,17.2989,1.6222,34.2185,4.7163,50.6181,14.8628.4167,27.0356,5.1201,37.8266,9.3022,9.9548,3.8575,19.3574,7.5015,29.6477,7.5015,9.4597,0,17.8881-1.718,25.0516-5.1074,12.1763-5.7618,21.0524-18.6734,21.5846-31.3981.3639-8.6794-3.2365-16.4009-9.8779-21.184-6.733-4.8485-15.3416-5.8201-23.6162-2.6623-7.5151,2.8694-13.3679,9.5251-14.9101,16.9547-1.9813,9.546,3.2128,17.0345,7.9189,21.6356l-4.1186,4.2128c-8.139-7.9574-11.537-17.5624-9.5686-27.0458,1.9701-9.4906,9.0886-17.6379,18.5778-21.2609,10.1612-3.8777,20.7888-2.6422,29.1594,3.3858,8.2789,5.9625,12.7699,15.5157,12.3216,26.2108-.6199,14.8181-10.88,29.8181-24.9513,36.4767-7.957,3.7647-17.2333,5.6734-27.5711,5.6734-11.3917,0-21.2933-3.8374-31.7763-7.8999-10.4842-4.0629-21.3035-8.2453-34.5076-8.8596,1.7594,8.2989,3.8947,16.4588,6.3936,24.4585,3.0509.0075,5.7929.0125,7.8983.0125,32.037,0,53.4454,6.2825,67.3728,19.7716,1.0532,1.0176,2.0927,2.0589,3.1326,3.1017,3.5091,3.5166,6.8237,6.8377,10.7542,9.3806,12.6103,8.1573,21.3548,5.5669,24.5288,4.0754,3.3343-1.5656,5.9053-4.225,6.8783-7.1138.7749-2.2998.5552-4.6371-.6526-6.9455-1.2258-2.3351-3.3387-4.0646-5.947-4.8665-2.7572-.8472-5.7874-.5602-8.3144.7903l-2.7759-5.1966c3.9021-2.0848,8.5748-2.5307,12.8217-1.2247,4.12,1.2664,7.4702,4.0236,9.4338,7.7625,1.9554,3.7381,2.3067,7.7345,1.0176,11.5611-1.4976,4.4465-5.1265,8.2975-9.9563,10.5657-3.1028,1.4577-6.5241,2.1776-10.1278,2.1776-6.3731.0007-13.3197-2.2488-20.106-6.6392-4.4576-2.8831-8.1519-6.5853-11.7243-10.1659-1.0151-1.0169-2.0291-2.0338-3.0589-3.0291-12.7606-12.3586-32.8666-18.1139-63.2765-18.1139-1.6537,0-3.7035-.0031-5.9829-.008,1.268,3.7533,2.6197,7.4679,4.0455,11.1457,21.9401,2.7619,29.6874,7.8972,38.8391,13.9657,4.8751,3.2326,9.9164,6.5759,17.9298,9.9581,33.6774,14.2126,70.6414,19.248,106.8969,14.5613,39.4637-5.0988,68.8489-18.9028,87.3397-41.0304,9.5604-11.433,14.2507-25.7765,12.5463-38.3674-1.3074-9.6611-6.3918-17.8083-14.7052-23.5615l3.3527-4.8442c9.7107,6.7205,15.6552,16.2693,17.1906,27.6153,1.9223,14.2039-3.2606,30.2553-13.8645,42.9361-19.471,23.3004-50.1233,37.7999-91.1044,43.0943-9.0491,1.1701-18.1409,1.7504-27.2169,1.7504-28.3241,0-56.4942-5.6561-82.7259-16.726-8.5201-3.5965-14.032-7.2519-18.8949-10.4766-8.0303-5.3248-14.906-9.8826-33.049-12.5746,1.8168,4.3575,3.7416,8.6586,5.7756,12.8975,13.3458,4.9602,24.6624,13.7305,41.7376,27.7253,28.3866,23.2803,49.3394,31.9353,77.3086,31.9353v5.8913c-33.704,0-55.9977-12.7304-81.0439-33.2707-13.9562-11.4387-23.7555-19.1581-33.9113-24.1172,11.7966,22.5946,26.6783,43.3227,44.0909,61.6215,18.0645,4.3188,38.5946,6.9451,57.1562,3.8411,40.4123-6.7578,61.4664-14.1874,76.8397-19.6127,15.4768-5.4619,26.6592-9.4079,46.9605-9.4079,15.8342,0,28.643,4.9636,39.9437,9.3425,9.9545,3.8575,19.3574,7.5015,29.6477,7.5015,9.4597,0,17.8881-1.718,25.0516-5.1074,12.1766-5.7611,21.0524-18.6727,21.5846-31.3974.3632-8.6794-3.2369-16.4009-9.8782-21.184-6.7327-4.8485-15.3409-5.8179-23.6154-2.663-7.5151,2.8694-13.3683,9.5251-14.9101,16.9547-1.0938,5.2692-.6077,13.3,7.9186,21.6356l-4.1179,4.2128c-8.1393-7.9567-11.5373-17.5624-9.569-27.0458,1.9698-9.4913,9.0886-17.6379,18.5778-21.2617,10.1616-3.8748,20.7899-2.6414,29.1586,3.3872,8.2789,5.9618,12.7699,15.5157,12.3212,26.2108-.6192,14.8181-10.8793,29.8181-24.9502,36.476-7.9574,3.7647-17.2337,5.6734-27.5715,5.6734-11.3921,0-21.2933-3.8374-31.7763-7.8991-11.3482-4.3976-23.0818-8.9448-37.815-8.9448-19.2923,0-29.5193,3.6087-45.0001,9.0721-15.5771,5.4972-36.9107,13.0252-77.8282,19.8679-5.9589.9967-12.0907,1.4275-18.2362,1.4275-11.0047.0004-22.0514-1.386-32.2592-3.3738,11.8025,11.4556,24.6431,21.8465,38.3669,31.0205,13.6552,1.2952,27.1352,1.1979,40.3588-.3297,15.018-1.7346,32.0374-3.7007,52.9183-12.2867,6.1527-2.5285,10.9746-4.9578,15.2287-7.1009,7.979-4.0193,14.2809-7.1937,23.8301-8.281,15.2521-1.7339,31.1877,2.7392,47.3578,13.3014l-3.2218,4.9319c-14.9907-9.7912-29.616-13.958-43.4701-12.3794-8.5039.968-14.1,3.787-21.8456,7.6884-4.3487,2.1905-9.2781,4.6738-15.6393,7.2886-21.6342,8.8952-39.8463,10.9994-54.4799,12.6901-7.3713.8515-14.8206,1.2765-22.3282,1.2765-2.7585,0-5.5259-.0614-8.3002-.1761,6.712,4.0583,13.6147,7.8325,20.6902,11.3092,4.737.3196,8.9172.5024,11.9141.4618,10.414-.1323,21.0596-1.1643,30.7864-2.9852,14.9159-2.7961,26.5097-7.0268,31.4606-8.8333,5.2742-1.9237,8.0282-3.1549,10.2411-4.1445,2.6418-1.1808,4.5501-2.0338,8.7089-3.1434,4.3936-1.1686,16.0586-4.2739,30.9184-2.1898,10.5442,1.4735,20.5209,5.1858,29.6541,11.0325l-3.1765,4.9621c-8.4133-5.3864-17.5962-8.8045-27.2939-10.1601-13.6782-1.918-24.509.9644-28.5862,2.0481-3.7007.9874-5.2512,1.6807-7.8204,2.8291-2.2973,1.0269-5.157,2.3056-10.6265,4.3005-5.0869,1.8561-17.0007,6.2034-32.3952,9.0893-9.4912,1.7765-19.8176,2.8163-29.9846,3.0434,10.7866,4.5669,21.9315,8.452,33.3781,11.6101,11.6563-2.5048,23.4385-4.5526,35.2457-6.0899,29.3604-3.8259,52.0495-3.6835,65.6048-3.6029,23.2502.1525,43.6677,1.4657,61.9823,3.9902,26.725-9.4503,51.5263-22.97,73.6633-39.8118-1.1237-.2463-2.0596-.434-2.613-.5092-20.2376-2.7738-32.7537,2.0258-41.8941,5.5295-2.2028.8443-4.2833,1.6418-6.207,2.2243-13.0605,3.9575-25.1422,5.9121-37.2131,5.9121-8.2673,0-16.5282-.9162-25.1012-2.7328l1.2211-5.7633c20.0679,4.2538,38.3817,3.311,59.3852-3.0542,1.7209-.5214,3.6144-1.247,5.8064-2.087,9.1871-3.521,23.0682-8.8419,44.8001-5.8661,1.4307.1949,4.388.8677,7.7775,1.6836,6.7357-5.4263,13.2066-11.168,19.3906-17.2024-14.9821-3.4374-35.7257-3.9208-44.9821-2.2262-7.5302,1.3808-15.0266,3.8244-22.2757,6.1883-5.2512,1.7116-10.6815,3.4821-16.1694,4.8722-15.4962,3.9251-32.077,4.8902-47.9543,2.7845-12.2723-1.6267-21.7449-5.8661-30.9055-9.966-11.5891-5.1872-22.5346-10.0861-38.9517-10.0861-19.5371,0-27.9681,4.5817-37.7302,9.8862-12.6114,6.8535-26.9055,14.621-66.9575,14.621v-5.8913c38.5547,0,52.1499-7.3878,64.1446-13.9062,10.0325-5.4519,19.5087-10.601,40.5431-10.601,17.6749,0,29.7149,5.3886,41.3587,10.5995,9.1792,4.1092,17.85,7.9898,29.2723,9.5043,15.1395,2.0057,30.9544,1.0888,45.7336-2.6565,5.2965-1.3412,10.6312-3.0801,15.7904-4.7622,7.4339-2.4235,15.1208-4.9298,23.0401-6.3817,10.7346-1.9622,34.7936-1.2746,50.8869,3.1736,8.372-8.59,16.1786-17.7334,23.3612-27.3694-30.354-10.5313-76.2424-.4117-97.4313,12.3398l-3.0377-5.0477c12.4787-7.5094,31.4793-13.5445,50.8273-16.1442,20.4906-2.7542,39.2161-1.3612,53.2559,3.8908ZM273.0476,472.1729c3.4532,0,6.2622,2.8094,6.2622,6.2625s-2.809,6.2625-6.2622,6.2625-6.2625-2.8094-6.2625-6.2625,2.8094-6.2625,6.2625-6.2625ZM464.3426,599.4698c-7.8632-2.2495-15.9097-3.5023-23.9168-3.723-18.4998-.5214-32.3833,4.5026-40.6729,7.5029-.6796.2459-1.3182.4768-1.9144.6889-18.0665,6.4148-38.6065,9.6481-61.2086,9.6481-4.3081,0-8.6913-.1179-13.1464-.3531l.3107-5.8826c27.0508,1.4261,51.2984-1.5872,72.0728-8.9642.5857-.2078,1.2132-.4351,1.8809-.6767,8.1138-2.937,23.2285-8.4148,42.8419-7.8517,8.4982.2337,17.0359,1.562,25.3738,3.9474l-1.621,5.664ZM521.0065,580.1506c3.9474-1.9532,10.1824-2.8637,14.7498,1.0126l-3.8129,4.4918c-2.233-1.8957-5.7906-1.4764-8.3285-.2215-.0482.0237-4.2531,2.238-2.5638,6.5155l-5.4799,2.1632c-2.7177-6.8823,1.8914-12.2155,5.4353-13.9616ZM482.5769,608.2096c-3.4586,0-6.2624-2.8037-6.2624-6.2624s2.8038-6.2624,6.2624-6.2624,6.2624,2.8037,6.2624,6.2624-2.8037,6.2624-6.2624,6.2624ZM518.7684,473.8057c3.1652,17.639.8866,36.4784-7.3704,53.4658-8.0437,16.5268-21.1279,32.164-38.8895,46.4779l-3.6964-4.5867c17.082-13.7667,29.6268-28.7279,37.2879-44.4679,15.0518-30.9659,8.8736-68.5048-15.0252-91.2867-24.6-23.4428-61.0529-33.1801-92.8714-24.8099-28.6196,7.523-60.4201,29.0299-63.8432,66.832-1.3646,15.0511,4.3113,31.5426,14.813,43.0397,6.9883,7.651,19.4508,16.7706,39.1361,16.7706,22.2401,0,38.0027-14.8281,42.0792-29.4751,3.2854-11.8063-.9424-22.2649-11.5992-28.6941-4.5533-2.7493-11.3741-2.435-16.2175.745-2.1506,1.4117-5.6457,4.6162-4.8899,10.2206l-5.8388.7867c-.8669-6.4292,1.8651-12.2363,7.4957-15.9328,6.7489-4.4292,15.9989-4.7838,22.4946-.8637,12.899,7.7826,18.2189,20.9855,14.2305,35.3174-4.6727,16.79-22.5763,33.7871-47.7548,33.7871-21.8323,0-35.6982-10.163-43.4859-18.6885-11.5823-12.68-17.8399-30.8975-16.3308-47.5444,3.0938-34.1632,29.2313-61.7519,68.2124-71.9977,33.7497-8.8808,72.3867,1.4203,98.4343,26.2425,7.0839,6.7529,12.7153,14.7091,16.833,23.3817l.1835-.1014c10.5931,19.1783,23.166,34.1172,37.3692,44.4003,27.9404,20.2074,66.0827,20.7115,92.7531,1.2254,27.4428-20.0585,43.4338-54.1498,40.7398-86.8517-2.4192-29.4222-18.0852-64.415-54.7999-74.3899-14.6757-3.9888-31.9978-1.2715-45.2057,7.0923-8.7254,5.5256-19.8471,16.1553-23.2803,35.4167-3.8791,21.7762,7.9509,39.8427,21.6414,46.4351,11.1145,5.3534,22.2174,3.0463,30.4596-6.3285,3.4936-3.969,4.3861-10.6959,2.1229-15.9953-1.014-2.3761-3.5663-6.3983-9.2598-6.6378l.2474-5.8859c6.5169.274,11.7768,3.9952,14.4305,10.2101,3.1585,7.3972,1.8763,16.5261-3.1175,22.2002-9.9689,11.3374-23.9657,14.2327-37.4389,7.7452-15.6926-7.5561-29.2795-28.1108-24.8855-52.7766,3.8093-21.3735,16.2024-33.2017,25.9282-39.3605,14.5599-9.2202,33.6821-12.2104,49.9025-7.7999,33.1751,9.0131,55.8312,39.5108,59.1263,79.5915,2.8593,34.7011-14.0723,70.8492-43.1353,92.0914-14.0658,10.2774-31.0824,15.3992-48.3074,15.3992-17.9284,0-36.0826-5.5482-51.3746-16.608-9.9206-7.1826-19.0539-16.4968-27.3034-27.7914ZM403.0859,499.8921c0-3.4586,2.8037-6.2624,6.2624-6.2624s6.2624,2.8037,6.2624,6.2624-2.8037,6.2624-6.2624,6.2624-6.2624-2.8037-6.2624-6.2624ZM689.6414,480.6289c-6.0071,13.9184-14.6246,26.1655-25.6147,36.4005-4.8665,4.5386-17.7961,16.5973-38.6262,23.0818-9.2109,2.8665-18.9359,4.3221-28.6466,4.3221-4.1373,0-8.2709-.2639-12.3622-.7961l.7594-5.8424c12.8555,1.6742,26.1691.5286,38.4982-3.3088,19.5465-6.0847,31.329-17.0741,36.3602-21.7665,10.3917-9.6776,18.5411-21.2595,24.2224-34.425l5.4094,2.3344ZM551.171,557.3324c-3.4586,0-6.2624-2.8037-6.2624-6.2624s2.8038-6.2624,6.2624-6.2624,6.2624,2.8037,6.2624,6.2624-2.8037,6.2624-6.2624,6.2624ZM555.1235,633.069c-3.4586,0-6.2624-2.8037-6.2624-6.2624s2.8037-6.2624,6.2624-6.2624,6.2624,2.8037,6.2624,6.2624-2.8038,6.2624-6.2624,6.2624ZM565.9764,571.7754l2.9773-5.0829c11.5093,6.7413,23.8643,10.9548,36.7219,12.524,13.3338,1.6253,41.08,5.0067,62.2395-15.402,15.461-14.9152,18.2571-34.704,18.5483-45.1727l5.8884.164c-.3157,11.3669-3.3786,32.8795-20.3462,49.2488-15.6228,15.0683-34.1783,18.3405-48.9727,18.3405-7.1555,0-13.4294-.7645-18.0708-1.3304-13.6617-1.6677-26.7783-6.1387-38.9858-13.2892Z" fill="#e95420"/><path d="M413.667,710.9423c-7.5687.9852-15.1284,2.177-22.6499,3.5686,18.9899,4.209,38.7264,6.4326,58.9829,6.4326,26.7997,0,52.6912-3.8867,77.1438-11.124-14.7516-1.5117-30.8627-2.3147-48.6707-2.4312-13.4078-.0813-35.8439-.2215-64.8062,3.554Z" fill="#e95420"/><path d="M617.783,119.2348c.5985,3.395.9855,6.9459,1.1984,10.97l34.8405-7.3907c-16.0083-36.6402-47.3111-63.914-84.6583-75.3471-2.3972.0591-4.7667.1594-7.1197.2823,29.1699,13.0497,50.1037,39.5262,55.7391,71.4856Z" fill="#e95420"/><path d="M528.2797,120.7989c11.5287,0,20.8746-9.3458,20.8746-20.8746s-9.3459-20.8746-20.8746-20.8746-20.8746,9.3458-20.8746,20.8746,9.3459,20.8746,20.8746,20.8746ZM525.9436,109.3666c-3.1605-.677-5.7364-2.8437-6.9513-5.8264.8559.1573,1.7449.0479,2.5359-.3123,1.003,1.9342,2.789,3.2996,4.9249,3.7566l.0012.0011c.2393.0513.4832.0912.7272.1186.0205.8993.3237,1.7632.8685,2.479-.7044.0045-1.4133-.0684-2.1063-.2166ZM531.4476,109.9663c-1.6378,0-2.9656-1.3278-2.9656-2.9656s1.3278-2.9656,2.9656-2.9656,2.9656,1.3278,2.9656,2.9656-1.3278,2.9656-2.9656,2.9656ZM537.4592,101.9127c-.3134,1.4619-.9628,2.8349-1.8844,3.9972,0,.0004.0003.0007.0004.0011h-.0011s.0005-.0007.0008-.0011c-.2293-.8669-.7214-1.637-1.4198-2.2089.4376-.7055.7477-1.4783.9232-2.2978.359-1.6754.114-3.4158-.6862-4.9237.7477-.4673,1.3267-1.1489,1.6686-1.9535,1.435,2.1678,1.9444,4.8406,1.3985,7.3867ZM532.1161,89.8824c1.6379,0,2.9657,1.3278,2.9657,2.9656s-1.3278,2.9656-2.9657,2.9656-2.9656-1.3278-2.9656-2.9656,1.3278-2.9656,2.9656-2.9656ZM528.734,90.2131c-.3955.5083-.6736,1.101-.8103,1.737-.0479.2188-.0775.4434-.0889.6667-2.3353.0422-4.4883,1.1956-5.8242,3.1161-.416-.2576-.8708-.4422-1.354-.5448-.2963-.0638-.5961-.0957-.8958-.0957-.0752,0-.1504.0011-.2257.0057,1.8452-3.2563,5.4697-5.1802,9.199-4.885ZM519.7643,96.3861c1.6378,0,2.9656,1.3278,2.9656,2.9656s-1.3278,2.9657-2.9656,2.9657-2.9656-1.3278-2.9656-2.9657,1.3278-2.9656,2.9656-2.9656Z" fill="#e95420"/><path d="M325.1739,264.6483c-1.2902,0-1.8626.9011-2.0489,1.2884s-.5322,1.3969.2733,2.4041l30.5376,38.1725-44.035,56.6165h181.6144c25.5794,0,49.9291-11.0238,66.8054-30.2453,16.877-19.2211,24.6589-44.7919,21.3501-70.1559l-14.1428-108.4327.8881-1.0036c3.4368-3.8859,6.4515-8.2896,8.9599-13.0896l.6422-1.2294,37.1132-7.8725c-.1927-4.0301-.5653-7.5237-1.1506-10.8426-5.9128-33.5357-29.7577-60.6581-62.3007-70.929-.2193.0255-.438.0485-.6573.0716-.4869.0511-.9464.0996-1.3714.1744-.8594.1517-1.7094.343-2.6091.5455-.3797.0856-.7594.1708-1.1406.2535l-.8881.1924-.8421-.3409c-7.7985-3.1589-15.9838-4.7608-24.3281-4.7608-35.7849,0-64.8975,29.1126-64.8975,64.8968v67.8612l-66.4476,86.4256h-61.3244ZM517.8424,58.1752c28.8218,0,52.1865,23.3647,52.1865,52.1865s-23.3647,52.1865-52.1865,52.1865-52.1865-23.3647-52.1865-52.1865,23.3647-52.1865,52.1865-52.1865ZM469.2451,230.3903v-51.4303l-.0015.0005.0014-.0018c31.6592,2.2208,61.8127,9.8461,89.5508,22.0024l8.2711,63.4115c2.8352,21.7376-3.834,43.6528-18.2979,60.1259-14.4639,16.473-35.3323,25.9209-57.2542,25.9209h-155.6271l28.4127-36.5306h21.4464c46.1148,0,83.4984-37.3835,83.4984-83.4984Z" fill="#e95420"/></svg>