<svg width="635" height="686" viewBox="0 0 635 686" fill="none" xmlns="http://www.w3.org/2000/svg">
<path d="M80.5823 438.434L133.642 417.881M123.97 387.254L67.6867 398.001M98.7166 475.105L148.015 446.225M122.761 508.285L166.553 471.882M149.896 535.688L188.045 493.374M183.209 560.673L213.568 511.911M62.7166 356.762L119.538 355.15M63.7912 315.792L120.209 323.448M71.3136 275.09L126.12 291.478M86.7614 234.254L138.075 259.911M107.985 197.448L154.329 231.568M175.687 205.911L135.388 165.344M201.075 184.15L168.299 137.403M207.12 114.299L224.986 152.985L231.165 166.284M128.269 403.105L96.433 412.508M109.732 446.628L140.09 432.523M128.941 479.135L156.209 458.986M152.314 506.404L176.493 482.493M180.12 530.583L200.135 502.911M119.135 339.568L86.3584 337.956M89.9853 302.359L122.358 308.135M99.9256 263.269L130.821 276.568M87.9703 376.508L121.149 372.478M140.358 197.314L164.403 217.866M116.985 227.941L145.329 245.269M166.821 168.836L188.314 193.821M199.329 145.06L216.12 174.209M553.419 436.822L498.479 416.269M565.24 395.986L507.882 385.643M484.374 444.747L535.553 473.628M465.971 470.538L511.374 507.479M444.747 492.165L483.837 535.822M419.359 510.971L450.926 560.135M512.046 353.404L570.479 354.747M569.135 313.777L511.105 321.836M504.792 289.732L560.807 272.001M492.837 258.299L544.822 231.702M476.18 230.09L522.658 195.299M454.687 204.702L495.523 163.597M462.613 135.523L429.031 183.075M398.807 165.478L404.852 152.045L423.12 113.09M503.717 401.493L537.703 411.031M492.165 431.046L524.27 446.493M476.18 457.643L505.329 477.255M456.165 481.285L481.419 505.464M453.747 529.106L432.523 501.837M391.419 526.822L416.807 579.479M405.658 519.434L423.389 549.12M512.314 337.822L547.106 336.478M543.613 300.075L508.822 306.389M532.598 261.12L500.091 274.956M545.359 375.031L510.434 370.732M465.971 216.657L491.09 194.627M514.732 226.06L485.18 243.926M441.926 192.747L464.628 166.956M413.986 173.269L430.508 143.179M228.075 521.449L211.015 551.001M219.075 578.538L243.926 526.822M119.135 344.672C119.135 337.553 119.403 330.433 120.209 323.583C121.284 312.568 123.433 301.956 126.254 291.478C129.209 280.463 133.239 269.986 137.941 259.911C142.642 249.971 148.15 240.433 154.463 231.568C160.776 222.433 167.896 213.971 175.687 206.045C183.478 198.12 192.075 190.732 201.075 184.284C210.478 177.433 220.553 171.523 231.165 166.418C256.553 154.329 284.896 147.478 314.986 147.344C423.523 146.941 511.911 234.523 512.449 343.195C512.986 451.867 425.269 540.12 316.598 540.658C233.986 541.061 162.926 490.285 133.642 418.15C124.373 395.314 119.269 370.598 119.135 344.672Z" stroke="#E95420" stroke-width="2.66548" stroke-miterlimit="10" stroke-linecap="round"/>
<path d="M511.643 118.06C472.285 84.4778 419.896 60.8359 366.836 51.1643M268.777 49.9553C207.12 58.821 157.821 85.0151 114.299 125.582M21.0747 301.956C18.9254 316.195 17.8508 330.836 17.8508 345.613C17.8508 398.807 31.6866 448.777 56.0001 492.031M94.6867 145.597C66.2091 177.299 44.3135 215.18 31.418 256.956M363.21 643.15C413.046 633.882 468.255 608.897 506.135 578.27M79.6419 526.419C126.12 587.27 186.165 629.046 265.553 640.598M543.21 542.538C586.598 492.971 614.001 428.896 617.091 358.642M615.882 324.12C611.315 260.717 586.195 201.612 548.314 155.269M91.3285 135.388C91.3285 128 97.239 122.09 104.627 122.09C112.015 122.09 117.926 128 117.926 135.388C117.926 142.776 112.015 148.687 104.627 148.687C97.239 148.553 91.3285 142.642 91.3285 135.388ZM25.2389 301.956C38.0001 301.956 48.4777 291.612 48.4777 278.717C48.4777 265.956 38.1344 255.478 25.2389 255.478C12.3433 255.478 2 265.821 2 278.717C2 291.478 12.4776 301.956 25.2389 301.956ZM532.195 160.911C546.568 160.911 558.12 149.224 558.12 134.985C558.12 120.746 546.434 109.06 532.195 109.06C517.822 109.06 506.27 120.746 506.27 134.985C506.27 149.224 517.822 160.911 532.195 160.911ZM616.285 324.12C606.882 324.12 599.225 331.777 599.225 341.18C599.225 350.583 606.882 358.24 616.285 358.24C625.688 358.24 633.344 350.583 633.344 341.18C633.344 331.777 625.688 324.12 616.285 324.12ZM67.418 530.314C78.836 530.314 88.239 521.046 88.239 509.494C88.239 497.941 78.9703 488.673 67.418 488.673C63.2538 488.673 59.3583 489.882 56.1344 492.031C50.4926 495.792 46.5971 502.105 46.5971 509.494C46.5971 521.046 55.8658 530.314 67.418 530.314ZM554.225 564.703C554.225 555.568 549.523 547.643 542.404 542.941C538.374 540.255 533.404 538.777 528.165 538.777C513.792 538.777 502.24 550.464 502.24 564.703C502.24 569.673 503.583 574.24 506.001 578.27C510.568 585.658 518.762 590.628 528.165 590.628C542.538 590.628 554.225 578.941 554.225 564.703ZM319.553 100.329C346.687 100.329 368.717 78.2987 368.717 51.1643C368.717 24.0299 346.687 2 319.553 2C292.418 2 270.389 24.0299 270.389 51.1643C270.389 78.2987 292.418 100.329 319.553 100.329ZM367.374 51.4329C367.374 51.4329 353.941 75.7464 317.941 75.7464C317.941 75.7464 288.792 75.0748 270.523 49.9553C270.523 49.9553 290.001 29.5374 317.941 29.1344C317.941 29.2687 345.613 28.4627 367.374 51.4329ZM341.717 55.5971C343.598 40.9553 331.239 28.5971 316.598 30.3433C306.523 31.5523 298.463 39.7463 297.12 49.6867C295.239 64.3285 307.598 76.6867 322.374 74.9404C332.448 73.7315 340.508 65.5374 341.717 55.5971Z" stroke="#E95420" stroke-width="2.66548" stroke-miterlimit="10" stroke-linecap="round"/>
<path d="M333.792 638.718L329.896 620.986L315.792 618.837L331.508 615.882L334.06 598.822L336.881 615.882L351.523 618.837L338.627 620.986L333.792 638.718Z" fill="#E95420" stroke="#E95420" stroke-width="1.34329" stroke-miterlimit="10"/>
<path d="M314.18 684.524C340.24 684.524 361.463 664.24 363.075 638.583C363.075 637.643 363.21 636.568 363.21 635.628C363.21 608.628 341.314 586.732 314.314 586.732C287.314 586.732 265.418 608.628 265.418 635.628C265.418 637.374 265.553 638.986 265.687 640.598C268.105 665.315 288.926 684.524 314.18 684.524Z" stroke="#E95420" stroke-width="2.66548" stroke-miterlimit="10" stroke-linecap="round"/>
<path d="M297.12 648.792C297.926 650.27 298.732 651.345 300.344 653.091C302.493 655.374 304.374 656.315 304.911 656.718C307.195 657.927 307.463 657.927 308.806 658.464" stroke="#E95420" stroke-width="2.4523" stroke-miterlimit="10" stroke-linecap="round"/>
<path d="M315.926 659.673C316.866 659.673 317.806 659.807 319.553 659.539C320.896 659.27 321.971 659.136 322.642 658.733" stroke="#E95420" stroke-width="2.4523" stroke-miterlimit="10" stroke-linecap="round"/>
<path d="M314.448 666.792C330.03 666.792 342.523 654.165 342.523 638.718C342.523 635.762 342.12 632.942 341.314 630.389C341.314 630.389 338.359 620.852 330.03 615.344C329.359 614.941 328.687 614.538 328.687 614.538C327.612 614.001 325.597 612.792 322.777 611.986C320.09 611.18 317.269 610.777 314.448 610.777C298.866 610.777 286.374 623.404 286.374 638.852C286.374 654.3 299 666.792 314.448 666.792Z" stroke="#E95420" stroke-width="2.4523" stroke-miterlimit="10" stroke-linecap="round"/>
<path d="M304.105 621.524C302.762 622.195 301.956 622.733 299.941 625.016C296.18 629.18 295.239 633.479 294.836 635.628C294.433 637.643 294.299 639.658 294.702 642.479" stroke="#E95420" stroke-width="2.4523" stroke-miterlimit="10" stroke-linecap="round"/>
<path d="M25.2388 301.284C37.7024 301.284 47.8061 291.181 47.8061 278.717C47.8061 266.253 37.7024 256.15 25.2388 256.15C12.7753 256.15 2.67163 266.253 2.67163 278.717C2.67163 291.181 12.7753 301.284 25.2388 301.284Z" fill="#E85420" stroke="#E95420" stroke-width="1.34329" stroke-miterlimit="10"/>
<path d="M557.852 134.985C557.852 149.224 546.3 160.642 532.195 160.642C518.091 160.642 506.538 149.09 506.538 134.985" fill="#E85420"/>
<path d="M557.852 134.985C557.852 149.224 546.3 160.642 532.195 160.642C518.091 160.642 506.538 149.09 506.538 134.985" stroke="#E95420" stroke-width="1.34329" stroke-miterlimit="10"/>
<path d="M527.896 538.24C542.538 538.24 554.359 550.061 554.359 564.703C554.359 579.344 542.538 591.165 527.896 591.165" fill="#E85420"/>
<path d="M527.896 538.24C542.538 538.24 554.359 550.061 554.359 564.703C554.359 579.344 542.538 591.165 527.896 591.165" stroke="#E95420" stroke-width="1.34329" stroke-miterlimit="10"/>
<path d="M451.195 271.06L484.911 279.254L450.389 287.583L451.195 271.06Z" fill="#E85420" stroke="#E95420" stroke-width="1.34329" stroke-miterlimit="10"/>
<path d="M443.269 304.642L449.449 331.239L448.911 352.329L444.344 380.001L436.553 401.359L424.06 422.18L405.523 442.329L389.135 454.956L352.195 471.747L317.269 476.852L286.911 473.762L265.15 466.105L248.896 457.911L231.836 446.359L264.209 408.881L268.105 411.568L273.881 415.329L284.896 421.105L292.15 424.195L301.015 426.478L310.956 427.956L319.956 428.225L329.224 427.553L338.224 425.941L346.015 423.657L356.224 419.493L365.359 413.986L373.687 407.538L380.672 400.553L386.583 393.568L392.09 384.299L397.732 372.613L400.284 363.881L401.896 355.687L402.031 348.165L402.165 338.359L401.09 329.224L400.687 322.642L410.225 322.374L424.329 318.881L436.284 311.627L443.269 304.642Z" fill="#E85420" stroke="#E95420" stroke-width="1.34329" stroke-miterlimit="10"/>
<path d="M407.001 285.568C411.304 285.568 414.792 282.08 414.792 277.777C414.792 273.474 411.304 269.986 407.001 269.986C402.698 269.986 399.21 273.474 399.21 277.777C399.21 282.08 402.698 285.568 407.001 285.568Z" fill="#E85420" stroke="#E95420" stroke-width="1.34329" stroke-miterlimit="10"/>
<path d="M312.568 54.9255C313.977 54.9255 315.12 53.7829 315.12 52.3733C315.12 50.9637 313.977 49.821 312.568 49.821C311.158 49.821 310.016 50.9637 310.016 52.3733C310.016 53.7829 311.158 54.9255 312.568 54.9255Z" fill="#E95420"/>
<path d="M323.18 49.2837C324.589 49.2837 325.732 48.141 325.732 46.7315C325.732 45.3219 324.589 44.1792 323.18 44.1792C321.77 44.1792 320.628 45.3219 320.628 46.7315C320.628 48.141 321.77 49.2837 323.18 49.2837Z" fill="#E95420"/>
<path d="M318.21 59.0897C316.329 58.6867 314.851 57.4778 314.046 55.8658C313.374 56.1345 312.568 56.2688 311.896 56.1345C312.971 58.6867 315.12 60.5673 317.807 61.239C318.344 61.3733 319.016 61.3733 319.553 61.3733C319.15 60.7016 318.881 60.03 318.747 59.224C318.747 59.0897 318.478 59.0897 318.21 59.0897Z" fill="#E95420"/>
<path d="M322.508 61.642C323.918 61.642 325.061 60.4993 325.061 59.0897C325.061 57.6802 323.918 56.5375 322.508 56.5375C321.099 56.5375 319.956 57.6802 319.956 59.0897C319.956 60.4993 321.099 61.642 322.508 61.642Z" fill="#E95420"/>
<path d="M326.135 58.1494C326.941 57.0748 327.478 56.0001 327.747 54.6569C328.15 52.5076 327.747 50.0897 326.538 48.2091C326.269 48.8807 325.732 49.5524 325.06 49.9554C325.732 51.2986 326.001 52.7762 325.598 54.2539C325.463 54.9255 325.195 55.5971 324.792 56.2688C325.463 56.6718 325.866 57.3434 326.135 58.1494Z" fill="#E95420"/>
<path d="M312.299 48.7464H312.434C312.702 48.7464 312.971 48.7464 313.24 48.8807C313.643 49.0151 314.046 49.1494 314.449 49.418C315.657 47.8061 317.404 46.7315 319.419 46.7315C319.419 46.5971 319.419 46.3285 319.553 46.1942C319.687 45.6568 319.956 45.1195 320.225 44.7165C317.001 44.1792 313.911 45.7912 312.299 48.7464Z" fill="#E95420"/>
<path d="M264.612 409.687L190.732 492.568L167.09 468.926L245.403 390.21L356.493 275.627L360.389 271.597M374.225 531.523L345.075 473.225L326.269 475.643L356.225 535.553M405.657 322.508C421.105 322.508 434.807 314.851 443.001 303.03C443.269 302.762 443.404 302.359 443.672 302.09C448.508 294.836 451.195 286.239 451.195 276.971C451.195 251.851 430.777 231.433 405.657 231.433C380.538 231.433 360.12 251.851 360.12 276.971C360.12 302.09 380.538 322.508 405.657 322.508ZM450.792 287.314L483.031 278.717L451.867 271.463L450.792 287.314Z" stroke="#E95420" stroke-width="5.71165" stroke-miterlimit="10"/>
<path d="M211.418 423.523C194.627 401.359 184.687 373.822 184.687 343.866C184.687 271.06 243.791 211.956 316.597 211.956C343.732 211.956 368.986 220.15 389.941 234.254" stroke="#E95420" stroke-width="3.73165" stroke-miterlimit="10"/>
<path d="M442.061 303.433C446.225 316.195 448.374 329.896 448.374 344.001C448.374 416.807 389.269 475.911 316.463 475.911C284.627 475.911 255.478 464.628 232.777 445.956" stroke="#E95420" stroke-width="5.71165" stroke-miterlimit="10"/>
<path d="M246.747 389.807C238.15 376.642 233.314 360.926 233.314 344.135C233.314 297.657 270.926 260.045 317.403 260.045C333.12 260.045 347.896 264.344 360.523 271.866" stroke="#E95420" stroke-width="2.66548" stroke-miterlimit="10"/>
<path d="M398.538 321.836C400.419 328.956 401.493 336.344 401.493 344.135C401.493 390.613 363.881 428.225 317.404 428.225C296.583 428.225 277.105 420.434 262.463 407.941" stroke="#E95420" stroke-width="1.34839" stroke-miterlimit="10"/>
</svg>
