<svg width="900" height="901" viewBox="0 0 900 901" fill="none" xmlns="http://www.w3.org/2000/svg">
<g clip-path="url(#clip0_1_2)">
<path d="M450.004 900.15C698.532 900.15 900.004 698.678 900.004 450.15C900.004 201.622 698.532 0.149994 450.004 0.149994C201.476 0.149994 0.0039978 201.622 0.0039978 450.15C0.0039978 698.678 201.476 900.15 450.004 900.15Z" fill="url(#paint0_linear_1_2)"/>
<g style="mix-blend-mode:multiply">
<path d="M450.004 900.15C698.532 900.15 900.004 698.678 900.004 450.15C900.004 201.622 698.532 0.149994 450.004 0.149994C201.476 0.149994 0.0039978 201.622 0.0039978 450.15C0.0039978 698.678 201.476 900.15 450.004 900.15Z" fill="url(#paint1_radial_1_2)" fill-opacity="0.5"/>
</g>
<path d="M212.582 545.434L265.642 524.881M255.97 494.254L199.687 505.001M230.717 582.105L280.015 553.225M254.761 615.285L298.553 578.882M281.896 642.688L320.045 600.374M315.209 667.673L345.568 618.911M194.717 463.762L251.538 462.15M195.791 422.792L252.209 430.448M203.314 382.09L258.12 398.478M218.761 341.254L270.075 366.911M239.985 304.448L286.329 338.568M307.687 312.911L267.388 272.344M333.075 291.15L300.299 244.403M339.12 221.299L356.986 259.985L363.165 273.284M260.269 510.105L228.433 519.508M241.732 553.628L272.09 539.523M260.941 586.135L288.209 565.986M284.314 613.404L308.493 589.493M312.12 637.583L332.135 609.911M251.135 446.568L218.358 444.956M221.985 409.359L254.358 415.135M231.926 370.269L262.821 383.568M219.97 483.508L253.149 479.478M272.358 304.314L296.403 324.866M248.985 334.941L277.329 352.269M298.821 275.836L320.314 300.821M331.329 252.06L348.12 281.209M685.419 543.822L630.479 523.269M697.24 502.986L639.882 492.643M616.374 551.747L667.553 580.628M597.971 577.538L643.374 614.479M576.747 599.165L615.837 642.822M551.359 617.971L582.926 667.135M644.046 460.404L702.479 461.747M701.135 420.777L643.105 428.836M636.792 396.732L692.807 379.001M624.837 365.299L676.822 338.702M608.18 337.09L654.658 302.299M586.687 311.702L627.523 270.597M594.613 242.523L561.031 290.075M530.807 272.478L536.852 259.045L555.12 220.09M635.717 508.493L669.703 518.031M624.165 538.046L656.27 553.493M608.18 564.643L637.329 584.255M588.165 588.285L613.419 612.464M585.747 636.106L564.523 608.837M523.419 633.822L548.807 686.479M537.658 626.434L555.389 656.12M644.314 444.822L679.106 443.478M675.613 407.075L640.822 413.389M664.598 368.12L632.091 381.956M677.359 482.031L642.434 477.732M597.971 323.657L623.09 301.627M646.732 333.06L617.18 350.926M573.926 299.747L596.628 273.956M545.986 280.269L562.508 250.179M360.075 628.449L343.015 658.001M351.075 685.538L375.926 633.822M251.135 451.672C251.135 444.553 251.403 437.433 252.209 430.583C253.284 419.568 255.433 408.956 258.254 398.478C261.209 387.463 265.239 376.986 269.941 366.911C274.642 356.971 280.15 347.433 286.463 338.568C292.776 329.433 299.896 320.971 307.687 313.045C315.478 305.12 324.075 297.732 333.075 291.284C342.478 284.433 352.553 278.523 363.165 273.418C388.553 261.329 416.896 254.478 446.986 254.344C555.523 253.941 643.911 341.523 644.449 450.195C644.986 558.867 557.269 647.12 448.598 647.658C365.986 648.061 294.926 597.285 265.642 525.15C256.373 502.314 251.269 477.598 251.135 451.672Z" stroke="#E95420" stroke-width="2.66548" stroke-miterlimit="10" stroke-linecap="round"/>
<path d="M643.643 225.06C604.285 191.478 551.896 167.836 498.836 158.164M400.777 156.955C339.12 165.821 289.821 192.015 246.299 232.582M153.075 408.956C150.925 423.195 149.851 437.836 149.851 452.613C149.851 505.807 163.687 555.777 188 599.031M226.687 252.597C198.209 284.299 176.314 322.18 163.418 363.956M495.21 750.15C545.046 740.882 600.255 715.897 638.135 685.27M211.642 633.419C258.12 694.27 318.165 736.046 397.553 747.598M675.21 649.538C718.598 599.971 746.001 535.896 749.091 465.642M747.882 431.12C743.315 367.717 718.195 308.612 680.314 262.269M223.329 242.388C223.329 235 229.239 229.09 236.627 229.09C244.015 229.09 249.926 235 249.926 242.388C249.926 249.776 244.015 255.687 236.627 255.687C229.239 255.553 223.329 249.642 223.329 242.388ZM157.239 408.956C170 408.956 180.478 398.612 180.478 385.717C180.478 372.956 170.134 362.478 157.239 362.478C144.343 362.478 134 372.821 134 385.717C134 398.478 144.478 408.956 157.239 408.956ZM664.195 267.911C678.568 267.911 690.12 256.224 690.12 241.985C690.12 227.746 678.434 216.06 664.195 216.06C649.822 216.06 638.27 227.746 638.27 241.985C638.27 256.224 649.822 267.911 664.195 267.911ZM748.285 431.12C738.882 431.12 731.225 438.777 731.225 448.18C731.225 457.583 738.882 465.24 748.285 465.24C757.688 465.24 765.344 457.583 765.344 448.18C765.344 438.777 757.688 431.12 748.285 431.12ZM199.418 637.314C210.836 637.314 220.239 628.046 220.239 616.494C220.239 604.941 210.97 595.673 199.418 595.673C195.254 595.673 191.358 596.882 188.134 599.031C182.493 602.792 178.597 609.105 178.597 616.494C178.597 628.046 187.866 637.314 199.418 637.314ZM686.225 671.703C686.225 662.568 681.523 654.643 674.404 649.941C670.374 647.255 665.404 645.777 660.165 645.777C645.792 645.777 634.24 657.464 634.24 671.703C634.24 676.673 635.583 681.24 638.001 685.27C642.568 692.658 650.762 697.628 660.165 697.628C674.538 697.628 686.225 685.941 686.225 671.703ZM451.553 207.329C478.687 207.329 500.717 185.299 500.717 158.164C500.717 131.03 478.687 109 451.553 109C424.418 109 402.389 131.03 402.389 158.164C402.389 185.299 424.418 207.329 451.553 207.329ZM499.374 158.433C499.374 158.433 485.941 182.746 449.941 182.746C449.941 182.746 420.792 182.075 402.523 156.955C402.523 156.955 422.001 136.537 449.941 136.134C449.941 136.269 477.613 135.463 499.374 158.433ZM473.717 162.597C475.598 147.955 463.239 135.597 448.598 137.343C438.523 138.552 430.463 146.746 429.12 156.687C427.239 171.328 439.598 183.687 454.374 181.94C464.448 180.731 472.508 172.537 473.717 162.597Z" stroke="#E95420" stroke-width="2.66548" stroke-miterlimit="10" stroke-linecap="round"/>
<path d="M465.792 745.718L461.896 727.986L447.792 725.837L463.508 722.882L466.06 705.822L468.881 722.882L483.523 725.837L470.627 727.986L465.792 745.718Z" fill="#E95420" stroke="#E95420" stroke-width="1.34329" stroke-miterlimit="10"/>
<path d="M446.18 791.524C472.239 791.524 493.463 771.24 495.075 745.583C495.075 744.643 495.21 743.568 495.21 742.628C495.21 715.628 473.314 693.732 446.314 693.732C419.314 693.732 397.418 715.628 397.418 742.628C397.418 744.374 397.553 745.986 397.687 747.598C400.105 772.315 420.926 791.524 446.18 791.524Z" stroke="#E95420" stroke-width="2.66548" stroke-miterlimit="10" stroke-linecap="round"/>
<path d="M429.12 755.792C429.926 757.27 430.732 758.345 432.344 760.091C434.493 762.374 436.374 763.315 436.911 763.718C439.195 764.927 439.463 764.927 440.807 765.464" stroke="#E95420" stroke-width="2.4523" stroke-miterlimit="10" stroke-linecap="round"/>
<path d="M447.926 766.673C448.866 766.673 449.807 766.807 451.553 766.539C452.896 766.27 453.971 766.136 454.642 765.733" stroke="#E95420" stroke-width="2.4523" stroke-miterlimit="10" stroke-linecap="round"/>
<path d="M446.448 773.792C462.03 773.792 474.523 761.165 474.523 745.718C474.523 742.762 474.12 739.942 473.314 737.389C473.314 737.389 470.359 727.852 462.03 722.344C461.359 721.941 460.687 721.538 460.687 721.538C459.613 721.001 457.598 719.792 454.777 718.986C452.09 718.18 449.269 717.777 446.448 717.777C430.866 717.777 418.374 730.404 418.374 745.852C418.374 761.3 431.001 773.792 446.448 773.792Z" stroke="#E95420" stroke-width="2.4523" stroke-miterlimit="10" stroke-linecap="round"/>
<path d="M436.105 728.524C434.762 729.195 433.956 729.733 431.941 732.016C428.18 736.18 427.239 740.479 426.836 742.628C426.433 744.643 426.299 746.658 426.702 749.479" stroke="#E95420" stroke-width="2.4523" stroke-miterlimit="10" stroke-linecap="round"/>
<path d="M157.239 408.284C169.702 408.284 179.806 398.181 179.806 385.717C179.806 373.253 169.702 363.15 157.239 363.15C144.775 363.15 134.672 373.253 134.672 385.717C134.672 398.181 144.775 408.284 157.239 408.284Z" fill="#E85420" stroke="#E95420" stroke-width="1.34329" stroke-miterlimit="10"/>
<path d="M689.852 241.985C689.852 256.224 678.3 267.642 664.195 267.642C650.091 267.642 638.538 256.09 638.538 241.985" fill="#E85420"/>
<path d="M689.852 241.985C689.852 256.224 678.3 267.642 664.195 267.642C650.091 267.642 638.538 256.09 638.538 241.985" stroke="#E95420" stroke-width="1.34329" stroke-miterlimit="10"/>
<path d="M659.897 645.24C674.538 645.24 686.359 657.061 686.359 671.703C686.359 686.344 674.538 698.165 659.897 698.165" fill="#E85420"/>
<path d="M659.897 645.24C674.538 645.24 686.359 657.061 686.359 671.703C686.359 686.344 674.538 698.165 659.897 698.165" stroke="#E95420" stroke-width="1.34329" stroke-miterlimit="10"/>
<path d="M583.195 378.06L616.911 386.254L582.389 394.583L583.195 378.06Z" fill="#E85420" stroke="#E95420" stroke-width="1.34329" stroke-miterlimit="10"/>
<path d="M575.27 411.642L581.449 438.239L580.911 459.329L576.344 487.001L568.553 508.359L556.06 529.18L537.523 549.329L521.135 561.956L484.195 578.747L449.269 583.852L418.911 580.762L397.15 573.105L380.896 564.911L363.836 553.359L396.209 515.881L400.105 518.568L405.881 522.329L416.896 528.105L424.15 531.195L433.015 533.478L442.956 534.956L451.956 535.225L461.224 534.553L470.225 532.941L478.016 530.657L488.225 526.493L497.359 520.986L505.687 514.538L512.672 507.553L518.583 500.568L524.09 491.299L529.732 479.613L532.284 470.881L533.896 462.687L534.031 455.165L534.165 445.359L533.09 436.224L532.687 429.642L542.225 429.374L556.329 425.881L568.284 418.627L575.27 411.642Z" fill="#E85420" stroke="#E95420" stroke-width="1.34329" stroke-miterlimit="10"/>
<path d="M539.001 392.568C543.304 392.568 546.792 389.08 546.792 384.777C546.792 380.474 543.304 376.986 539.001 376.986C534.698 376.986 531.21 380.474 531.21 384.777C531.21 389.08 534.698 392.568 539.001 392.568Z" fill="#E85420" stroke="#E95420" stroke-width="1.34329" stroke-miterlimit="10"/>
<path d="M444.568 161.926C445.977 161.926 447.12 160.783 447.12 159.373C447.12 157.964 445.977 156.821 444.568 156.821C443.158 156.821 442.016 157.964 442.016 159.373C442.016 160.783 443.158 161.926 444.568 161.926Z" fill="#E95420"/>
<path d="M455.18 156.284C456.589 156.284 457.732 155.141 457.732 153.731C457.732 152.322 456.589 151.179 455.18 151.179C453.77 151.179 452.627 152.322 452.627 153.731C452.627 155.141 453.77 156.284 455.18 156.284Z" fill="#E95420"/>
<path d="M450.21 166.09C448.329 165.687 446.851 164.478 446.045 162.866C445.374 163.134 444.568 163.269 443.896 163.134C444.971 165.687 447.12 167.567 449.807 168.239C450.344 168.373 451.016 168.373 451.553 168.373C451.15 167.702 450.881 167.03 450.747 166.224C450.747 166.09 450.478 166.09 450.21 166.09Z" fill="#E95420"/>
<path d="M454.508 168.642C455.918 168.642 457.06 167.499 457.06 166.09C457.06 164.68 455.918 163.537 454.508 163.537C453.098 163.537 451.956 164.68 451.956 166.09C451.956 167.499 453.098 168.642 454.508 168.642Z" fill="#E95420"/>
<path d="M458.135 165.149C458.941 164.075 459.478 163 459.747 161.657C460.15 159.508 459.747 157.09 458.538 155.209C458.269 155.881 457.732 156.552 457.06 156.955C457.732 158.299 458.001 159.776 457.598 161.254C457.463 161.926 457.195 162.597 456.792 163.269C457.463 163.672 457.866 164.343 458.135 165.149Z" fill="#E95420"/>
<path d="M444.299 155.746H444.433C444.702 155.746 444.971 155.746 445.239 155.881C445.642 156.015 446.045 156.149 446.448 156.418C447.657 154.806 449.404 153.731 451.419 153.731C451.419 153.597 451.419 153.328 451.553 153.194C451.687 152.657 451.956 152.12 452.224 151.717C449.001 151.179 445.911 152.791 444.299 155.746Z" fill="#E95420"/>
<path d="M396.612 516.687L322.732 599.568L299.09 575.926L377.403 497.21L488.493 382.627L492.389 378.597M506.225 638.523L477.075 580.225L458.269 582.643L488.225 642.553M537.657 429.508C553.105 429.508 566.807 421.851 575.001 410.03C575.269 409.762 575.404 409.359 575.672 409.09C580.508 401.836 583.195 393.239 583.195 383.971C583.195 358.851 562.777 338.433 537.657 338.433C512.538 338.433 492.12 358.851 492.12 383.971C492.12 409.09 512.538 429.508 537.657 429.508ZM582.792 394.314L615.031 385.717L583.867 378.463L582.792 394.314Z" stroke="#E95420" stroke-width="5.71165" stroke-miterlimit="10"/>
<path d="M343.418 530.523C326.627 508.359 316.687 480.822 316.687 450.866C316.687 378.06 375.791 318.956 448.598 318.956C475.732 318.956 500.986 327.15 521.941 341.254" stroke="#E95420" stroke-width="3.73165" stroke-miterlimit="10"/>
<path d="M574.061 410.433C578.225 423.195 580.374 436.896 580.374 451.001C580.374 523.807 521.269 582.911 448.463 582.911C416.627 582.911 387.478 571.628 364.777 552.956" stroke="#E95420" stroke-width="5.71165" stroke-miterlimit="10"/>
<path d="M378.747 496.807C370.15 483.642 365.314 467.926 365.314 451.135C365.314 404.657 402.926 367.045 449.404 367.045C465.12 367.045 479.896 371.344 492.523 378.866" stroke="#E95420" stroke-width="2.66548" stroke-miterlimit="10"/>
<path d="M530.538 428.836C532.419 435.956 533.493 443.344 533.493 451.135C533.493 497.613 495.881 535.225 449.404 535.225C428.583 535.225 409.105 527.434 394.463 514.941" stroke="#E95420" stroke-width="1.34839" stroke-miterlimit="10"/>
</g>
<defs>
<linearGradient id="paint0_linear_1_2" x1="147.918" y1="127.611" x2="739.574" y2="795.223" gradientUnits="userSpaceOnUse">
<stop stop-color="#501737"/>
<stop offset="0.358002" stop-color="#581D3D"/>
<stop offset="0.68346" stop-color="#571D3D"/>
<stop offset="1" stop-color="#76293D"/>
</linearGradient>
<radialGradient id="paint1_radial_1_2" cx="0" cy="0" r="1" gradientUnits="userSpaceOnUse" gradientTransform="translate(771.128 135) rotate(137.417) scale(489.183 1834.65)">
<stop/>
<stop offset="0.591391" stop-color="white"/>
</radialGradient>
<clipPath id="clip0_1_2">
<rect width="900" height="901" fill="white"/>
</clipPath>
</defs>
</svg>
