<?xml version="1.0" encoding="UTF-8"?>
<svg id="rr_black_aw" xmlns="http://www.w3.org/2000/svg" version="1.1" viewBox="0 0 900 900">
  <!-- Generator: Adobe Illustrator 30.2.1, SVG Export Plug-In . SVG Version: 2.1.1 Build 1)  -->
  <path d="M431.8,482c-1.5.3-2.3,2-1.7,3.4,4.3,9.8,10.5,18.6,18.1,25.9,1,.9,2.5.9,3.4,0,7.6-7.3,13.8-16.1,18.1-25.9.6-1.4-.2-3-1.7-3.4-5.8-1.4-11.9-2.1-18.2-2.1s-12.3.7-18.2,2.1h0Z"/>
  <path d="M820,454.9c0-1.6,0-3.3,0-4.9s0-3.3,0-4.9h-185c0-2.4-.2-4.7-.3-7l61.5-6.5c0-1.6-.2-3.3-.3-4.9l122.5-12.9c-.2-1.6-.3-3.3-.5-4.9l-122.4,12.9c-.1-1.6-.3-3.3-.5-4.9l-61.8,6.5c-.2-1.5-.5-3-.7-4.5l61.2-13c-.2-1.6-.5-3.3-.7-4.9l119.7-25.4c-.3-1.6-.7-3.2-1-4.8l-119.5,25.4c-.3-1.6-.6-3.2-.9-4.9l-61.8,13.1c-.4-1.5-.8-3-1.2-4.4l60.6-19.7c-.4-1.6-.8-3.2-1.2-4.8l115.2-37.4c-.5-1.6-1-3.1-1.5-4.7l-114.9,37.3c-.4-1.6-.9-3.2-1.3-4.8l-61.5,20c-.5-1.4-1.1-2.9-1.6-4.3l59.8-26.6c-.5-1.6-1-3.1-1.6-4.7l108.9-48.5c-.7-1.5-1.3-3-2-4.5l-108.6,48.3c-.6-1.6-1.1-3.1-1.7-4.6l-60.9,27.1c-.7-1.4-1.4-2.7-2.1-4.1l58.7-33.9c-.6-1.5-1.3-3-2-4.6l101.2-58.4c-.8-1.4-1.6-2.9-2.5-4.3l-100.8,58.2c-.7-1.5-1.4-3-2.1-4.5l-60,34.6c-.8-1.3-1.6-2.6-2.5-3.8l57.1-41.5c-.8-1.5-1.6-2.9-2.4-4.4l92.2-67c-1-1.3-1.9-2.7-2.9-4l-91.7,66.6c-.8-1.4-1.6-2.9-2.5-4.3l-58.5,42.5c-.9-1.2-1.9-2.4-2.9-3.5l54.9-49.4c-.9-1.4-1.8-2.8-2.8-4.2l82.2-74c-1.1-1.2-2.2-2.4-3.3-3.7l-81.7,73.5c-.9-1.4-1.9-2.7-2.9-4.1l-56.3,50.7c-1.1-1.1-2.1-2.2-3.2-3.2l51.9-57.7c-1-1.3-2.1-2.6-3.1-3.9l71.4-79.3c-1.2-1.1-2.4-2.2-3.7-3.3l-70.9,78.8c-1.1-1.3-2.1-2.6-3.2-3.8l-53.4,59.3c-1.2-1-2.4-1.9-3.5-2.9l48.1-66.2c-1.1-1.2-2.3-2.4-3.5-3.6l60.2-82.9c-1.3-1-2.7-1.9-4-2.9l-59.7,82.2c-1.2-1.2-2.4-2.4-3.6-3.5l-49.5,68.2c-1.3-.8-2.5-1.7-3.8-2.5l43.3-75c-1.3-1.1-2.5-2.2-3.8-3.3l48.8-84.6c-1.4-.8-2.8-1.7-4.3-2.5l-48.4,83.8c-1.3-1.1-2.6-2.1-3.9-3.2l-44.6,77.2c-1.7-.9-3.4-1.8-5.2-2.6l37.4-84c-1-.7-2.1-1.5-3.1-2.2l37.6-84.5c-1.5-.7-3-1.4-4.5-2l-37.2,83.6c-1-.7-2.1-1.4-3.1-2.1l-38.3,86.1c-2.2-.9-4.4-1.7-6.6-2.5l30.1-92.7c-1.1-.6-2.2-1.2-3.3-1.9l26.9-82.6c-1.6-.5-3.1-1-4.7-1.5l-26.6,81.7c-1.1-.6-2.2-1.2-3.3-1.8l-30.9,95c-2.3-.6-4.5-1.2-6.8-1.8l21.5-101.1c-1.1-.5-2.3-1-3.5-1.5l16.8-79.2c-1.6-.4-3.2-.7-4.8-1l-16.6,78.2c-1.2-.5-2.3-1-3.5-1.5l-22,103.6c-2.3-.4-4.6-.8-7-1.1l11.5-109c-1.2-.4-2.4-.8-3.6-1.2l7.8-74.3c-1.6-.2-3.3-.4-4.9-.5l-7.7,73.3c-1.2-.4-2.4-.7-3.6-1.1l-11.7,111.5c-2.3-.2-4.7-.3-7-.4v-116c-1.2-.3-2.5-.5-3.7-.8v-68.4c-.8,0-1.6,0-2.5,0s-1.6,0-2.5,0v67.3c-1.2-.2-2.5-.5-3.7-.7v118.5c-2.4,0-4.7.2-7,.4l-12.8-121.8c-1.2-.1-2.5-.3-3.8-.4l-6.5-61.6c-1.6.2-3.3.3-4.9.5l6.4,60.6c-1.3-.1-2.5-.2-3.8-.3l13.1,124.2c-2.3.3-4.7.7-7,1.1l-26.8-126.2c-.8,0-1.6,0-2.4,0s-.9,0-1.3,0l-11.5-54.2c-1.6.3-3.2.7-4.8,1l11.3,53.2c-1.3,0-2.5,0-3.8,0l27.3,128.6c-2.3.6-4.6,1.2-6.8,1.8l-41.9-128.9c-1.3.1-2.5.3-3.8.4l-15.1-46.4c-1.6.5-3.1,1-4.7,1.5l14.8,45.5c-1.2.2-2.5.3-3.7.5l42.6,131.2c-2.2.8-4.4,1.6-6.6,2.5l-57.8-129.9c-1.2.3-2.5.6-3.7.8l-17.2-38.6c-1.5.7-3,1.3-4.5,2l16.8,37.8c-1.2.3-2.4.6-3.6.9l58.8,132c-2.1,1-4.2,2.1-6.3,3.2l-74.3-128.6c-1.2.4-2.4.8-3.5,1.3l-18-31.1c-1.4.8-2.9,1.6-4.3,2.5l17.5,30.4c-1.2.4-2.3.9-3.5,1.3l75.3,130.5c-2.3,1.5-4.6,3-6.9,4.5l-91-125.2c-.8.4-1.5.7-2.2,1.1l-17.5-24.2c-1.3,1-2.7,1.9-4,2.9l17.1,23.5c-.7.4-1.5.8-2.2,1.1l91.9,126.5c-2.5,1.9-5,3.9-7.4,6l-107.4-119.3c-.7.4-1.4.9-2.1,1.4l-16.2-18c-1.2,1.1-2.4,2.2-3.7,3.3l15.7,17.4c-.7.5-1.4.9-2.1,1.4l108.4,120.4c-2.3,2.2-4.5,4.4-6.7,6.7l-123.2-110.9c-.6.5-1.3,1.1-1.9,1.6l-14.1-12.7c-1.1,1.2-2.2,2.4-3.3,3.7l13.6,12.2c-.6.5-1.3,1.1-1.9,1.6l124.2,111.8c-2.1,2.4-4.1,4.9-6,7.4l-138-100.2c-.6.6-1.1,1.2-1.7,1.8l-11.5-8.4c-1,1.3-1.9,2.7-2.9,4l11.1,8c-.6.6-1.1,1.2-1.7,1.8l138.9,100.9c-1.8,2.6-3.5,5.3-5.2,8l-151.3-87.4c-.5.7-1,1.3-1.5,2l-8.7-5.1c-.8,1.4-1.7,2.8-2.5,4.3l8.3,4.8c-.5.7-1,1.3-1.4,2l152.2,87.9c-1.5,2.8-2.9,5.6-4.3,8.5l-162.9-72.5c-.4.7-.8,1.4-1.2,2.2l-6-2.7c-.7,1.5-1.4,3-2,4.5l5.7,2.5c-.4.7-.8,1.4-1.2,2.2l163.6,72.8c-1.2,2.9-2.3,5.9-3.4,8.9l-172.3-56c-1.3,3-2.5,6.1-3.6,9.2l172.9,56.2c-.9,3-1.7,6.1-2.5,9.2l-179.2-38.1c-.9,3.2-1.7,6.4-2.4,9.6l179.6,38.2c-.6,3.1-1.1,6.2-1.5,9.4l-183.5-19.3c-.5,3.2-.9,6.5-1.2,9.8l183.7,19.3c-.2,3.1-.4,6.3-.5,9.5H80c0,1.6,0,3.3,0,4.9s0,3.3,0,4.9h185c0,2.4.2,4.7.3,7l-61.5,6.5c0,1.6.2,3.3.3,4.9l-122.5,12.9c.2,1.6.3,3.3.5,4.9l122.4-12.9c.1,1.6.3,3.3.5,4.9l61.8-6.5c.2,1.5.5,3,.7,4.5l-61.2,13c.2,1.6.5,3.3.7,4.9l-119.7,25.4c.3,1.6.7,3.2,1,4.8l119.5-25.4c.3,1.6.6,3.2.9,4.9l61.8-13.1c.4,1.5.8,3,1.2,4.4l-60.6,19.7c.4,1.6.8,3.2,1.2,4.8l-115.2,37.4c.5,1.6,1,3.1,1.5,4.7l114.9-37.3c.4,1.6.9,3.2,1.3,4.8l61.5-20c.5,1.4,1.1,2.9,1.6,4.3l-59.8,26.6c.5,1.6,1,3.1,1.6,4.7l-108.9,48.5c.7,1.5,1.3,3,2,4.5l108.6-48.3c.6,1.6,1.1,3.1,1.7,4.6l60.9-27.1c.7,1.4,1.4,2.7,2.1,4.1l-58.7,33.9c.6,1.5,1.3,3,2,4.6l-101.2,58.4c.8,1.4,1.6,2.9,2.5,4.3l100.8-58.2c.7,1.5,1.4,3,2.1,4.5l60-34.6c.8,1.3,1.6,2.6,2.5,3.8l-57.1,41.5c.8,1.5,1.6,2.9,2.4,4.4l-92.2,67c1,1.3,1.9,2.7,2.9,4l91.7-66.6c.8,1.4,1.6,2.9,2.5,4.3l58.5-42.5c.9,1.2,1.9,2.4,2.9,3.5l-54.9,49.4c.9,1.4,1.8,2.8,2.8,4.2l-82.2,74c1.1,1.2,2.2,2.4,3.3,3.7l81.7-73.5c.9,1.4,1.9,2.7,2.9,4.1l56.3-50.7c1.1,1.1,2.1,2.2,3.2,3.2l-51.9,57.7c1,1.3,2.1,2.6,3.1,3.9l-71.4,79.3c1.2,1.1,2.4,2.2,3.7,3.3l70.9-78.8c1.1,1.3,2.1,2.6,3.2,3.8l53.4-59.3c1.2,1,2.4,1.9,3.5,2.9l-48.1,66.2c1.1,1.2,2.3,2.4,3.5,3.6l-60.2,82.9c1.3,1,2.7,1.9,4,2.9l59.7-82.2c1.2,1.2,2.4,2.4,3.6,3.5l49.5-68.2c1.3.8,2.5,1.7,3.8,2.5l-43.3,75c1.3,1.1,2.5,2.2,3.8,3.3l-48.8,84.6c1.4.8,2.8,1.7,4.3,2.5l48.4-83.8c1.3,1.1,2.6,2.1,3.9,3.2l44.6-77.2c1.7.9,3.4,1.8,5.2,2.6l-37.4,84c1,.7,2.1,1.5,3.1,2.2l-37.6,84.5c1.5.7,3,1.4,4.5,2l37.2-83.6c1,.7,2.1,1.4,3.1,2.1l38.3-86.1c2.2.9,4.4,1.7,6.6,2.5l-30.1,92.7c1.1.6,2.2,1.2,3.3,1.9l-26.9,82.6c1.6.5,3.1,1,4.7,1.5l26.6-81.7c1.1.6,2.2,1.2,3.3,1.8l30.9-95c2.3.6,4.5,1.2,6.8,1.8l-21.5,101.1c1.1.5,2.3,1,3.5,1.5l-16.8,79.2c1.6.4,3.2.7,4.8,1l16.6-78.2c1.2.5,2.3,1,3.5,1.5l22-103.6c2.3.4,4.6.8,7,1.1l-11.5,109c1.2.4,2.4.8,3.6,1.2l-7.8,74.3c1.6.2,3.3.4,4.9.5l7.7-73.3c1.2.4,2.4.7,3.6,1.1l11.7-111.5c2.3.2,4.7.3,7,.4v116c1.2.3,2.5.5,3.7.8v68.4c.8,0,1.6,0,2.5,0s1.6,0,2.5,0v-67.3c1.2.2,2.5.5,3.7.7v-118.5c2.4,0,4.7-.2,7-.4l12.8,121.8c1.2.1,2.5.3,3.8.4l6.5,61.6c1.6-.2,3.3-.3,4.9-.5l-6.4-60.6c1.3.1,2.5.2,3.8.3l-13.1-124.2c2.3-.3,4.7-.7,7-1.1l26.8,126.2c.8,0,1.6,0,2.4,0s.9,0,1.3,0l11.5,54.2c1.6-.3,3.2-.7,4.8-1l-11.3-53.2c1.3,0,2.5,0,3.8,0l-27.3-128.6c2.3-.6,4.6-1.2,6.8-1.8l41.9,128.9c1.3-.1,2.5-.3,3.8-.4l15.1,46.4c1.6-.5,3.1-1,4.7-1.5l-14.8-45.5c1.2-.2,2.5-.3,3.7-.5l-42.6-131.2c2.2-.8,4.4-1.6,6.6-2.5l57.8,129.9c1.2-.3,2.5-.6,3.7-.8l17.2,38.6c1.5-.7,3-1.3,4.5-2l-16.8-37.8c1.2-.3,2.4-.6,3.6-.9l-58.8-132c2.1-1,4.2-2.1,6.3-3.2l74.3,128.6c1.2-.4,2.4-.8,3.5-1.3l18,31.1c1.4-.8,2.9-1.6,4.3-2.5l-17.5-30.4c1.2-.4,2.3-.9,3.5-1.3l-75.3-130.5c2.3-1.5,4.6-3,6.9-4.5l91,125.2c.8-.4,1.5-.7,2.2-1.1l17.5,24.2c1.3-1,2.7-1.9,4-2.9l-17.1-23.5c.7-.4,1.5-.8,2.2-1.1l-91.9-126.5c2.5-1.9,5-3.9,7.4-6l107.4,119.3c.7-.4,1.4-.9,2.1-1.4l16.2,18c1.2-1.1,2.4-2.2,3.7-3.3l-15.7-17.4c.7-.5,1.4-.9,2.1-1.4l-108.4-120.4c2.3-2.2,4.5-4.4,6.7-6.7l123.2,110.9c.6-.5,1.3-1.1,1.9-1.6l14.1,12.7c1.1-1.2,2.2-2.4,3.3-3.7l-13.6-12.2c.6-.5,1.3-1.1,1.9-1.6l-124.2-111.8c2.1-2.4,4.1-4.9,6-7.4l138,100.2c.6-.6,1.1-1.2,1.7-1.8l11.5,8.4c1-1.3,1.9-2.7,2.9-4l-11-8c.6-.6,1.1-1.2,1.7-1.8l-138.9-100.9c1.8-2.6,3.5-5.3,5.2-8l151.3,87.4c.5-.7,1-1.3,1.5-2l8.7,5.1c.8-1.4,1.7-2.8,2.5-4.3l-8.3-4.8c.5-.7,1-1.3,1.4-2l-152.2-87.9c1.5-2.8,2.9-5.6,4.3-8.5l162.9,72.5c.4-.7.8-1.4,1.2-2.2l6,2.7c.7-1.5,1.4-3,2-4.5l-5.7-2.5c.4-.7.8-1.4,1.2-2.2l-163.6-72.8c1.2-2.9,2.3-5.9,3.4-8.9l172.3,56c1.3-3,2.5-6.1,3.6-9.2l-172.9-56.2c.9-3,1.7-6.1,2.5-9.2l179.2,38.1c.9-3.2,1.7-6.4,2.4-9.6l-179.6-38.2c.6-3.1,1.1-6.2,1.5-9.4l183.5,19.3c.5-3.2.9-6.5,1.2-9.8l-183.7-19.3c.2-3.1.4-6.3.5-9.5h185ZM566.8,487.6c-10-40.9-40.9-73.6-80.7-86.1-6-1.9-12.2,1.8-13.4,7.9l-7.2,36.2c-.5,2.7,1.2,5.5,3.9,6.1,34.9,8.7,60.8,40.2,60.8,77.8-22.3,16.8-50.1,26.7-80.2,26.7s-57.8-9.9-80.2-26.7h0c0-37.6,25.9-69.1,60.8-77.8,2.7-.7,4.5-3.4,3.9-6.1l-7.2-36.2c-1.2-6.1-7.5-9.8-13.4-7.9-39.8,12.5-70.7,45.2-80.7,86.1-8.1-14.6-13.6-30.9-15.8-48.2,7.6-11.1,16.5-21.2,26.5-30,2.4-24,11.1-46.2,24.5-64.8.8-1.1,2.4-1.4,3.5-.5,11.6,9.1,21.7,20.1,29.8,32.5,15.2-4.8,31.4-7.4,48.1-7.4s32.9,2.6,48.1,7.4c8.1-12.4,18.2-23.4,29.8-32.5,1.1-.9,2.7-.6,3.5.5,13.4,18.6,22.2,40.7,24.5,64.7,10,8.9,19,19,26.5,30.1-2.2,17.3-7.6,33.6-15.8,48.2h0ZM509.2,438c0,5.4-4.4,9.9-9.9,9.9s-9.9-4.4-9.9-9.9,4.4-9.9,9.9-9.9,9.9,4.4,9.9,9.9ZM390.8,438c0-5.4,4.4-9.9,9.9-9.9s9.9,4.4,9.9,9.9-4.4,9.9-9.9,9.9-9.9-4.4-9.9-9.9Z"/>
</svg>