<?xml version="1.0" encoding="UTF-8"?><svg xmlns="http://www.w3.org/2000/svg" viewBox="0 0 280 280"><g style="isolation:isolate;"><g id="a"><path d="M238.21,73.41l-9.76-5.63-5.94,3.43-5.82-3.36-14.62,8.44v8.18l1.2.69-.81.47-1.12.65c-.2.12-.4.25-.59.41-.29.23-.55.5-.8.79-.16.2-.32.41-.46.62-.14.22-.27.44-.39.68-.41.81-.65,1.7-.65,2.52,0,1.3-.74,2.84-1.75,3.79-.16.15-.32.28-.48.4-.08.06-.17.11-.25.16l-31.3,18.31,4.39,2.54,1.18.68h0l30.91-18.08c.4-.23.79-.55,1.13-.91.35-.37.66-.79.91-1.24.19-.34.36-.7.49-1.06.04-.12.08-.24.12-.36.07-.24.13-.49.17-.73.04-.24.06-.49.06-.72,0-.12,0-.24.02-.36.04-.37.13-.77.28-1.17.12-.32.27-.64.45-.95.12-.2.25-.4.38-.58.07-.09.14-.18.21-.26.36-.42.75-.77,1.16-1l2.32-1.35,7.86,4.54,14.62-8.44v-5.07l6.9-3.98v-2.01Z" style="fill:#fff; stroke:#606060; stroke-linecap:round; stroke-linejoin:round; stroke-width:2px;"/><polygon points="228.45 79.05 238.21 73.41 228.45 67.78 218.69 73.41 228.45 79.05" style="fill:#fff; stroke:#606060; stroke-linecap:round; stroke-linejoin:round; stroke-width:.5px;"/><polygon points="228.45 81.06 238.21 75.42 238.21 73.41 228.45 79.05 228.45 81.06" style="fill:#e95420; stroke:#606060; stroke-linecap:round; stroke-linejoin:round; stroke-width:.5px;"/><polygon points="228.45 81.06 218.69 75.42 218.69 73.41 228.45 79.05 228.45 81.06" style="fill:#fff; stroke:#606060; stroke-linecap:round; stroke-linejoin:round; stroke-width:.5px;"/><path d="M195.95,95.66c1.37-.8,2.49-2.75,2.49-4.36,0-1.88,1.27-4.08,2.9-5.02l1.93-1.12-1.2-.69v-8.18s14.62-8.44,14.62-8.44l14.62,8.44v8.18s-14.62,8.44-14.62,8.44l-7.86-4.54-2.32,1.35c-.65.38-1.27,1.03-1.75,1.84-.18.31-.33.63-.45.95-.2.53-.3,1.07-.3,1.54,0,1.89-1.26,4.11-2.88,5.04l-30.91,18.08-5.57-3.21,31.3-18.31Z" style="fill:#fff; stroke:#606060; stroke-linecap:round; stroke-linejoin:round; stroke-width:.5px;"/><polygon points="216.69 84.73 231.31 76.29 216.69 67.85 202.07 76.29 216.69 84.73" style="fill:#fff; stroke:#606060; stroke-linecap:round; stroke-linejoin:round; stroke-width:.5px;"/><polygon points="216.69 92.91 231.31 84.47 231.31 76.29 216.69 84.73 216.69 92.91" style="fill:#e95420; stroke:#606060; stroke-linecap:round; stroke-linejoin:round; stroke-width:.5px;"/><polygon points="216.69 92.91 202.07 84.47 202.07 76.29 216.69 84.73 216.69 92.91" style="fill:#fff; stroke:#606060; stroke-linecap:round; stroke-linejoin:round; stroke-width:.5px;"/><polygon points="228.8 84.58 230.09 83.83 230.09 78.64 228.8 79.38 228.8 84.58" style="fill:#fff; stroke-width:0px;"/><polygon points="226.2 86.07 227.49 85.32 227.49 80.13 226.2 80.87 226.2 86.07" style="fill:#fff; stroke-width:0px;"/><polygon points="223.6 87.56 224.89 86.81 224.89 81.62 223.6 82.36 223.6 87.56" style="fill:#fff; stroke-width:0px;"/><polygon points="221 89.05 222.3 88.3 222.3 83.11 221 83.85 221 89.05" style="fill:#fff; stroke-width:0px;"/><polygon points="218.41 90.54 219.7 89.79 219.7 84.6 218.41 85.35 218.41 90.54" style="fill:#fff; stroke-width:0px;"/><path d="M201.13,99.1c1.61-.93,2.88-3.15,2.88-5.04,0-.47.1-1.01.3-1.54.12-.32.27-.64.45-.95.47-.81,1.1-1.47,1.75-1.84l6-3.48-5.57-3.21-5.61,3.25c-1.62.94-2.9,3.14-2.9,5.02,0,1.6-1.12,3.55-2.49,4.36l-31.3,18.31,5.57,3.21,30.91-18.08Z" style="fill:#fff; stroke:#606060; stroke-linecap:round; stroke-linejoin:round; stroke-width:.5px;"/><path d="M70.9,113.79s-1.84-1.23-1.86-1.25l-2.64.49s-.22,1.62-.23,1.65l-4.29-.2s.19-1.62.21-1.65l-2.48-.73s-2.13,1.05-2.17,1.07l-2.8-1.9s2.12-1.06,2.16-1.08l-.86-1.53s-2.79-.14-2.84-.14l.33-2.49c.05,0,2.8.12,2.85.13l1.26-1.43c-.09-.05-1.82-1.24-1.85-1.26l3.27-1.62s1.84,1.23,1.87,1.25l2.64-.49s.22-1.62.23-1.65l4.29.2s-.19,1.62-.21,1.65l2.48.73s2.13-1.05,2.17-1.07l2.8,1.9s-2.12,1.06-2.16,1.08l.86,1.53s2.79.14,2.84.14l-.33,2.49s-2.8-.12-2.85-.13l-1.26,1.43c.09.05,1.82,1.24,1.85,1.26l-3.27,1.62ZM64.63,110.04c2.11.1,3.96-.81,4.12-2.04.09-.68-.35-1.3-1.12-1.75-.62-.36-1.46-.6-2.41-.64-2.11-.1-3.95.81-4.12,2.04-.09.68.35,1.3,1.12,1.75.62.36,1.46.6,2.41.64h0Z" style="fill:#e95420; stroke-width:0px;"/><polygon points="237.18 109.29 234.44 107.71 233.85 108.06 236.58 109.64 233.85 111.22 234.44 111.56 237.18 109.98 239.92 111.56 240.51 111.22 237.77 109.64 240.51 108.06 239.92 107.71 237.18 109.29" style="fill:#e95420; fill-rule:evenodd; stroke-width:0px;"/><polygon points="37.44 118.7 34.71 117.12 34.11 117.46 36.85 119.04 34.11 120.62 34.71 120.96 37.44 119.38 40.18 120.96 40.78 120.62 38.04 119.04 40.78 117.46 40.18 117.12 37.44 118.7" style="fill:#e95420; fill-rule:evenodd; stroke-width:0px;"/><polygon points="23.6 138.96 20.86 137.38 20.27 137.72 23.01 139.3 20.27 140.88 20.86 141.23 23.6 139.65 26.34 141.23 26.93 140.88 24.2 139.3 26.93 137.72 26.34 137.38 23.6 138.96" style="fill:#e95420; fill-rule:evenodd; stroke-width:0px;"/><polygon points="207.6 193.72 204.86 192.14 204.27 192.49 207.01 194.07 204.27 195.65 204.86 195.99 207.6 194.41 210.34 195.99 210.93 195.65 208.19 194.07 210.93 192.49 210.34 192.14 207.6 193.72" style="fill:#e95420; fill-rule:evenodd; stroke-width:0px;"/><polygon points="255.22 132.58 252.48 131 251.89 131.35 254.62 132.93 251.89 134.51 252.48 134.85 255.22 133.27 257.96 134.85 258.55 134.51 255.81 132.93 258.55 131.35 257.96 131 255.22 132.58" style="fill:#e95420; fill-rule:evenodd; stroke-width:0px;"/><polygon points="127.95 219.41 30.92 163.39 152.59 93.15 249.61 149.16 127.95 219.41" style="fill:#666; opacity:.2; stroke-width:0px;"/><path d="M224.67,117.52c-.27-.54-.66-1.01-1.08-1.26l-71.91-41.52c-.6-.34-1.5-.48-2.14-.09l-108.59,62.7c-.18.03-.33.12-.45.26h0s0,0,0,0c-.19.22-.31.57-.31,1.03v21.19c0,1.1.67,2.37,1.49,2.85l72.7,41.97c.41.24.79.23,1.06.02l.02.02,109.06-63.17s.06-.03.09-.05h0s0,0,0,0c.29-.2.47-.6.47-1.17v-21.19c0-.53-.16-1.09-.41-1.59Z" style="fill:#fff; stroke:#606060; stroke-linecap:round; stroke-linejoin:round; stroke-width:2px;"/><path d="M223.59,116.26l-71.91-41.52c-.6-.34-1.43-.49-2.14-.09l-109.05,62.97,58.2,52.08,125.98-72.18c-.27-.54-.66-1.01-1.08-1.26Z" style="fill:#fff; stroke:#606060; stroke-linecap:round; stroke-linejoin:round; stroke-width:.5px;"/><path d="M224.51,141.53s.06-.03.09-.05h0s0,0,0,0c.29-.2.47-.6.47-1.17v-21.19c0-.53-.16-1.09-.41-1.59l-125.98,72.18,16.76,15,109.06-63.17Z" style="fill:#e95420; stroke:#606060; stroke-miterlimit:10; stroke-width:.5px;"/><path d="M114.37,204.66l-72.7-41.97c-.82-.48-1.49-1.75-1.49-2.85v-21.19c0-1.1.67-1.6,1.49-1.13l72.7,41.97c.82.48,1.49,1.75,1.49,2.85v21.19c0,1.1-.67,1.6-1.49,1.13Z" style="fill:#fff; stroke:#606060; stroke-linecap:round; stroke-linejoin:round; stroke-width:.5px;"/><polygon points="113.04 200.38 43.49 159.54 43.49 142.02 113.04 182.86 113.04 200.38" style="fill:#666; opacity:.2; stroke-width:0px;"/><ellipse cx="57.58" cy="136.49" rx="4.43" ry="2.56" style="fill:#fff; stroke:#606060; stroke-linecap:round; stroke-linejoin:round; stroke-width:.5px;"/><ellipse cx="150.26" cy="82.25" rx="4.43" ry="2.56" style="fill:#fff; stroke:#606060; stroke-linecap:round; stroke-linejoin:round; stroke-width:.5px;"/><ellipse cx="116.6" cy="171.09" rx="4.43" ry="2.56" style="fill:#fff; stroke:#606060; stroke-linecap:round; stroke-linejoin:round; stroke-width:.5px;"/><ellipse cx="209.28" cy="116.85" rx="4.43" ry="2.56" style="fill:#fff; stroke:#606060; stroke-linecap:round; stroke-linejoin:round; stroke-width:.5px;"/><path d="M100.49,163.16l-32.26-18.62c-.9-.52-.78-1.42.25-2.02h0c1.04-.6,2.6-.66,3.5-.15l32.26,18.62c.9.52.78,1.42-.25,2.02h0c-1.04.6-2.6.66-3.5.15Z" style="fill:#666; opacity:.2; stroke-width:0px;"/><g style="opacity:.2;"><path d="M151.75,115.13c-15.18-8.77-39.8-8.77-54.99,0-15.18,8.77-15.18,22.98,0,31.75,15.18,8.77,39.8,8.77,54.99,0,15.18-8.77,15.18-22.98,0-31.75ZM118.78,134.16c-3.02-1.75-3.02-4.58,0-6.32,3.02-1.75,7.93-1.75,10.95,0,3.02,1.75,3.02,4.58,0,6.32-3.02,1.75-7.93,1.75-10.95,0Z" style="fill:#666; stroke-width:0px;"/></g><path d="M61.48,160.01l-12.01-6.94c-.83-.48-1.5-1.77-1.5-2.87h0c0-1.11.67-1.62,1.5-1.14l12.01,6.94c.83.48,1.5,1.77,1.5,2.87h0c0,1.11-.67,1.62-1.5,1.14Z" style="fill:#bfbfbf; stroke-width:0px;"/><path d="M61.48,166.82l-12.01-6.94c-.83-.48-1.5-1.77-1.5-2.87h0c0-1.11.67-1.62,1.5-1.14l12.01,6.94c.83.48,1.5,1.77,1.5,2.87h0c0,1.11-.67,1.62-1.5,1.14Z" style="fill:#bfbfbf; stroke-width:0px;"/><ellipse cx="96.64" cy="182.76" rx="1.89" ry="3.27" transform="translate(-78.43 72.81) rotate(-30)" style="fill:#bfbfbf; stroke-width:0px;"/><ellipse cx="103.76" cy="186.87" rx="1.24" ry="2.15" transform="translate(-79.54 76.92) rotate(-30)" style="fill:#bfbfbf; stroke-width:0px;"/><g style="opacity:.35;"><polygon points="58.01 187.12 78.59 199 77.23 199.79 56.65 187.91 58.01 187.12" style="fill:#e95420; mix-blend-mode:multiply; stroke-width:0px;"/><polygon points="55.29 188.69 75.87 200.57 74.5 201.36 53.93 189.48 55.29 188.69" style="fill:#e95420; mix-blend-mode:multiply; stroke-width:0px;"/><polygon points="52.56 190.27 73.14 202.15 71.78 202.93 51.2 191.05 52.56 190.27" style="fill:#e95420; mix-blend-mode:multiply; stroke-width:0px;"/><polygon points="49.84 191.84 70.42 203.72 69.06 204.51 48.48 192.63 49.84 191.84" style="fill:#e95420; mix-blend-mode:multiply; stroke-width:0px;"/><polygon points="47.12 193.41 67.69 205.29 66.33 206.08 45.75 194.2 47.12 193.41" style="fill:#e95420; mix-blend-mode:multiply; stroke-width:0px;"/><polygon points="44.39 194.98 64.97 206.86 63.61 207.65 43.03 195.77 44.39 194.98" style="fill:#e95420; mix-blend-mode:multiply; stroke-width:0px;"/><polygon points="41.67 196.56 62.25 208.44 60.88 209.22 40.31 197.34 41.67 196.56" style="fill:#e95420; mix-blend-mode:multiply; stroke-width:0px;"/></g><g style="opacity:.35;"><polygon points="255.59 173.37 255.59 175 254.41 175.68 254.41 172.69 255.59 173.37" style="fill:#e95420; stroke-width:0px;"/><polygon points="252.62 171.66 252.62 176.71 251.44 177.39 251.44 170.98 252.62 171.66" style="fill:#e95420; stroke-width:0px;"/><polygon points="249.66 169.95 249.66 178.42 248.48 179.1 248.48 169.27 249.66 169.95" style="fill:#e95420; stroke-width:0px;"/><polygon points="246.7 168.24 246.7 180.13 245.52 180.81 245.52 167.56 246.7 168.24" style="fill:#e95420; stroke-width:0px;"/><polygon points="243.74 167.86 243.74 181.84 242.56 182.52 242.56 168.54 243.74 167.86" style="fill:#e95420; stroke-width:0px;"/><polygon points="240.77 169.57 240.77 183.55 239.59 184.23 239.59 170.25 240.77 169.57" style="fill:#e95420; stroke-width:0px;"/><polygon points="237.81 171.28 237.81 185.26 236.63 185.94 236.63 171.96 237.81 171.28" style="fill:#e95420; stroke-width:0px;"/><polygon points="234.85 172.99 234.85 186.97 233.67 187.65 233.67 173.67 234.85 172.99" style="fill:#e95420; stroke-width:0px;"/><polygon points="231.89 174.7 231.89 187.66 230.71 186.97 230.71 175.38 231.89 174.7" style="fill:#e95420; stroke-width:0px;"/><polygon points="228.92 176.41 228.92 185.95 227.74 185.27 227.74 177.09 228.92 176.41" style="fill:#e95420; stroke-width:0px;"/><polygon points="225.96 184.24 224.78 183.56 224.78 178.8 225.96 178.12 225.96 184.24" style="fill:#e95420; stroke-width:0px;"/><polygon points="221.82 181.85 221.82 180.51 223 179.83 223 182.53 221.82 181.85" style="fill:#e95420; stroke-width:0px;"/><path d="M217.93,181.18l14.85,8.57,26.96-15.56-14.85-8.57-26.96,15.56ZM219.67,181.18l25.21-14.56,13.11,7.56-25.21,14.56-13.11-7.56Z" style="fill:#e95420; stroke-width:0px;"/></g><polygon points="168.04 141.34 110.2 107.94 117.23 103.88 175.07 137.28 168.04 141.34" style="fill:#666; opacity:.2; stroke-width:0px;"/><path d="M173.34,124.97l-24.37-59.09c-1.59-3.84-5.06-6.15-7.04-4.98h0s-6.02,3.45-6.02,3.45c1.98-1.16,5.44,1.15,7.02,4.98l24.37,59.09c1.21,2.94.74,5.34-.7,6.12h0s5.96-3.41,5.96-3.41c.08-.04.16-.08.23-.13h0s0,0,0,0c1.31-.87,1.71-3.2.54-6.03Z" style="fill:#fff; stroke:#606060; stroke-linecap:round; stroke-linejoin:round; stroke-width:2px;"/><path d="M167.31,128.43l-24.37-59.09c-1.58-3.83-5.04-6.14-7.02-4.98h0s0,0,0,0c-.23.14-.45.32-.64.56l-24.37,30.95c-1.88,2.39.28,8.15,3.83,10.19l48.75,28.14c1.26.73,2.34.78,3.13.35,1.44-.78,1.91-3.18.7-6.12ZM159.23,125.52l-43.2-24.7c-.89-.51-1.11-1.69-.48-2.49l1.05-1.32,20.51-25.72c.22-.27.64-.21.77.11.25.6.65,1.56,1.17,2.8,3.46,8.34,12.24,29.59,17.45,42.22,1.56,3.77,2.8,6.77,3.48,8.43.06.14.05.27,0,.39-.11.28-.45.45-.76.27Z" style="fill:#fff; stroke:#606060; stroke-linecap:round; stroke-linejoin:round; stroke-width:2px;"/><path d="M159.99,124.86c-.69-1.66-1.93-4.66-3.48-8.43l-33.42-19.11c-.89-.51-1.11-1.69-.48-2.49l16.44-20.62c-.52-1.25-.92-2.21-1.17-2.8-.13-.32-.56-.38-.77-.11l-20.51,25.72-1.05,1.32c-.64.8-.41,1.98.48,2.49l43.2,24.7c.31.18.65,0,.76-.27.05-.12.05-.25,0-.39Z" style="fill:#fff; stroke:#606060; stroke-linecap:round; stroke-linejoin:round; stroke-width:2px;"/><path d="M173.34,124.97l-24.37-59.09c-1.59-3.84-5.06-6.15-7.04-4.98h0s-6.02,3.45-6.02,3.45c1.98-1.16,5.44,1.15,7.02,4.98l24.37,59.09c1.21,2.94.74,5.34-.7,6.12h0s5.96-3.41,5.96-3.41c.08-.04.16-.08.23-.13h0s0,0,0,0c1.31-.87,1.71-3.2.54-6.03Z" style="fill:#e95420; stroke:#606060; stroke-miterlimit:10; stroke-width:.5px;"/><path d="M167.31,128.43l-24.37-59.09c-1.58-3.83-5.04-6.14-7.02-4.98h0s0,0,0,0c-.23.14-.45.32-.64.56l-24.37,30.95c-1.88,2.39.28,8.15,3.83,10.19l48.75,28.14c1.26.73,2.34.78,3.13.35,1.44-.78,1.91-3.18.7-6.12ZM159.23,125.52l-43.2-24.7c-.89-.51-1.11-1.69-.48-2.49l1.05-1.32,20.51-25.72c.22-.27.64-.21.77.11.25.6.65,1.56,1.17,2.8,3.46,8.34,12.24,29.59,17.45,42.22,1.56,3.77,2.8,6.77,3.48,8.43.06.14.05.27,0,.39-.11.28-.45.45-.76.27Z" style="fill:#fff; stroke:#606060; stroke-linecap:round; stroke-linejoin:round; stroke-width:.5px;"/><path d="M159.99,124.86c-.69-1.66-1.93-4.66-3.48-8.43l-33.42-19.11c-.89-.51-1.11-1.69-.48-2.49l16.44-20.62c-.52-1.25-.92-2.21-1.17-2.8-.13-.32-.56-.38-.77-.11l-20.51,25.72-1.05,1.32c-.64.8-.41,1.98.48,2.49l43.2,24.7c.31.18.65,0,.76-.27.05-.12.05-.25,0-.39Z" style="fill:#fff; stroke:#606060; stroke-linecap:round; stroke-linejoin:round; stroke-width:.5px;"/><path d="M159.99,124.86c-.69-1.66-1.93-4.66-3.48-8.43l-33.42-19.11c-.89-.51-1.11-1.69-.48-2.49l16.44-20.62c-.52-1.25-.92-2.21-1.17-2.8-.13-.32-.56-.38-.77-.11l-20.51,25.72-1.05,1.32c-.64.8-.41,1.98.48,2.49l43.2,24.7c.31.18.65,0,.76-.27.05-.12.05-.25,0-.39Z" style="fill:#666; opacity:.2; stroke-width:0px;"/><path d="M140.77,102.51c0,.52-.15.88-.45,1.09-.3.21-.7.17-1.22-.13s-.92-.72-1.22-1.28c-.3-.55-.45-1.09-.45-1.61s.15-.88.45-1.09c.3-.21.7-.17,1.22.13s.92.72,1.22,1.28c.3.55.45,1.09.45,1.61ZM140.34,89.33c0,1.61-.05,3.04-.15,4.29-.1,1.25-.22,2.49-.37,3.7l-1.44-.83c-.15-1.39-.27-2.76-.37-4.13-.1-1.37-.15-2.85-.15-4.46v-5.39s2.48,1.43,2.48,1.43v5.39Z" style="fill:#e95420; stroke-width:0px;"/></g></g></svg>