<?xml version="1.0" encoding="UTF-8"?><svg id="a" xmlns="http://www.w3.org/2000/svg" viewBox="0 0 280 280"><path d="M210.66,211.92l-153.69-37.13,119.22-75.3,34.47,112.44ZM73.6,172.05l127.4,30.78-28.58-93.21-98.83,62.43Z" style="fill:#e95420; opacity:.35; stroke-width:0px;"/><polygon points="91.59 133.44 88.57 131.7 87.91 132.07 90.93 133.82 87.91 135.56 88.57 135.94 91.59 134.19 94.6 135.94 95.26 135.56 92.24 133.82 95.26 132.07 94.6 131.7 91.59 133.44" style="fill:#e95420; fill-rule:evenodd; stroke-width:0px;"/><path d="M98.64,122.53l-2.69-1.55c-.1-.06-.23-.06-.33,0h0c-.22.13-.22.44,0,.57l2.03,1.17c.22.13.22.44,0,.57l-2.03,1.17c-.22.13-.22.44,0,.57h0c.1.06.23.06.33,0l2.69-1.55c.1-.06.23-.06.33,0l2.69,1.55c.1.06.23.06.33,0h0c.22-.13.22-.44,0-.57l-2.03-1.17c-.22-.13-.22-.44,0-.57l2.03-1.17c.22-.13.22-.44,0-.57h0c-.1-.06-.23-.06-.33,0l-2.69,1.55c-.1.06-.23.06-.33,0Z" style="fill:#e95420; fill-rule:evenodd; stroke-width:0px;"/><path d="M161,216.61l-2.69-1.55c-.1-.06-.23-.06-.33,0h0c-.22.13-.22.44,0,.57l2.03,1.17c.22.13.22.44,0,.57l-2.03,1.17c-.22.13-.22.44,0,.57h0c.1.06.23.06.33,0l2.69-1.55c.1-.06.23-.06.33,0l2.69,1.55c.1.06.23.06.33,0h0c.22-.13.22-.44,0-.57l-2.03-1.17c-.22-.13-.22-.44,0-.57l2.03-1.17c.22-.13.22-.44,0-.57h0c-.1-.06-.23-.06-.33,0l-2.69,1.55c-.1.06-.23.06-.33,0Z" style="fill:#e95420; fill-rule:evenodd; stroke-width:0px;"/><path d="M216.17,132.65l-2.69-1.55c-.1-.06-.23-.06-.33,0h0c-.22.13-.22.44,0,.57l2.03,1.17c.22.13.22.44,0,.57l-2.03,1.17c-.22.13-.22.44,0,.57h0c.1.06.23.06.33,0l2.69-1.55c.1-.06.23-.06.33,0l2.69,1.55c.1.06.23.06.33,0h0c.22-.13.22-.44,0-.57l-2.03-1.17c-.22-.13-.22-.44,0-.57l2.03-1.17c.22-.13.22-.44,0-.57h0c-.1-.06-.23-.06-.33,0l-2.69,1.55c-.1.06-.23.06-.33,0Z" style="fill:#e95420; fill-rule:evenodd; stroke-width:0px;"/><path d="M240.89,139.02c-4.66-2.59-12.2-2.6-16.83-.03-4.63,2.57-4.61,6.75.05,9.34,4.66,2.59,12.2,2.6,16.83.03,4.63-2.57,4.61-6.75-.05-9.34ZM225.79,147.4c-3.73-2.07-3.75-5.42-.04-7.47,3.71-2.06,9.74-2.05,13.47.02,3.73,2.07,3.75,5.42.04,7.47-3.71,2.06-9.74,2.05-13.47-.02ZM237.54,140.88c-2.8-1.55-7.32-1.56-10.1-.02-2.78,1.54-2.77,4.05.03,5.61,2.8,1.55,7.32,1.56,10.1.02,2.78-1.54,2.77-4.05-.03-5.61ZM229.15,145.54c-1.87-1.04-1.87-2.71-.02-3.74,1.85-1.03,4.87-1.02,6.73.01,1.87,1.04,1.87,2.71.02,3.74-1.85,1.03-4.87,1.02-6.73-.01ZM234.18,142.74c-.93-.52-2.44-.52-3.37,0-.93.51-.92,1.35.01,1.87.93.52,2.44.52,3.37,0,.93-.51.92-1.35-.01-1.87Z" style="fill:#666; opacity:.2; stroke-width:0px;"/><ellipse cx="151.17" cy="163.97" rx="33.16" ry="19.15" style="fill:#666; opacity:.2; stroke-width:0px;"/><path d="M171.29,153.17c1.43-.72,2.95-1.48,3-1.5v-5.18s-7.16-4.86-7.16-4.86c-.1.05-5.49,2.68-5.56,2.73l-5.81-1.72v-4.37s-10.98-.51-10.98-.51c-.01.07-.6,4.15-.59,4.22h0s0,0,0,0l-6.75,1.27c-.06-.06-4.69-3.15-4.77-3.21l-8.37,4.14v5.18s.9.63,1.88,1.3l-.36.41c-.12-.02-7.16-.32-7.28-.32l-.84,6.36v5.18c.1,0,5.6.28,6.96.34-1.43.72-2.95,1.48-3,1.5v5.18s7.16,4.86,7.16,4.86c.1-.05,5.49-2.68,5.56-2.73l5.81,1.72v4.37s10.98.51,10.98.51c.01-.07.59-4.02.59-4.21h0s6.75-1.27,6.75-1.27c.06.06,4.69,3.15,4.77,3.21l8.37-4.14v-5.18s-.9-.63-1.88-1.3l.36-.41c.12.02,7.16.32,7.28.32l.84-6.36v-5.18c-.1,0-5.6-.28-6.96-.34ZM151.77,168.65s0,.02,0,.03c0-.02,0-.04,0-.04h0ZM147.23,160.97c-2.42-.11-4.57-.72-6.17-1.65-.76-.44-1.39-.95-1.88-1.51,2.85-3.29,10.91-4.12,15.69-1.36.74.43,1.36.92,1.83,1.46-1.75,1.97-5.42,3.24-9.48,3.05ZM157.79,155.08s0,.09,0,.14c0-.05,0-.09,0-.14ZM156.54,152.54s-.07-.07-.11-.11c.04.04.07.07.11.11ZM157.77,154.9s0-.09-.02-.13c0,.04.01.09.02.13ZM157.71,154.59s-.01-.07-.02-.11c0,.04.02.07.02.11ZM157.61,154.22s0-.03-.01-.04c0,.01,0,.03.01.04ZM157.49,153.9s-.03-.07-.05-.1c.02.03.03.07.05.1ZM157.34,153.61s-.04-.08-.07-.11c.02.04.05.08.07.11ZM157.18,153.33s-.05-.08-.08-.12c.03.04.05.08.08.12ZM156.99,153.06s-.06-.08-.09-.12c.03.04.06.08.09.12ZM156.78,152.8s-.07-.08-.1-.11c.03.04.07.08.1.11ZM156.28,152.29s-.08-.07-.12-.11c.04.04.08.07.12.11ZM156,152.04s-.08-.07-.13-.1c.04.03.08.07.13.1ZM155.7,151.81s-.08-.06-.13-.09c.04.03.08.06.13.09ZM155.36,151.57s-.08-.05-.11-.08c.04.03.08.05.11.08ZM147.75,149.62s-.03,0-.04,0c.01,0,.03,0,.04,0ZM147.14,149.65c-3.33.19-6.42,1.36-7.96,3.14,1.49-1.76,4.49-2.97,7.96-3.14ZM138.2,154.85s0,0,0,0c-.02.13-.03.26-.03.4,0-.13,0-.26.03-.39ZM139.16,152.81c-.14.16-.26.33-.37.5.11-.17.23-.34.37-.5ZM138.58,153.66s-.05.1-.07.15c.02-.05.05-.1.07-.15ZM138.35,154.2s-.03.08-.04.11c.01-.04.03-.08.04-.11ZM151.75,168.84c-.1.83-.56,3.95-.56,4.01,0-.06.46-3.18.56-4.01ZM151.77,168.71s0,.07-.01.11c0-.05,0-.08.01-.11Z" style="fill:#fff; stroke:#606060; stroke-linecap:round; stroke-linejoin:round; stroke-width:2px;"/><polygon points="144.19 141.98 144.18 147.15 144.18 147.15 144.19 141.97 144.19 141.97 144.19 141.98" style="fill:#fff; stroke:#606060; stroke-linecap:round; stroke-linejoin:round; stroke-width:.5px;"/><path d="M155.77,138.27v5.18c-.03.07-.51,4.15-.55,4.22v-5.18c.05-.07.54-4.14.55-4.22h0Z" style="fill:#fff; stroke:#606060; stroke-linecap:round; stroke-linejoin:round; stroke-width:.5px;"/><path d="M129.04,147.4v5.18c-.24-.13-4.67-3.17-4.75-3.23v-5.18c.1.06,4.53,3.1,4.75,3.23h0Z" style="fill:#fff; stroke:#606060; stroke-linecap:round; stroke-linejoin:round; stroke-width:.5px;"/><path d="M174.31,146.49l-.02,5.18c-.1.05-5.42,2.72-5.53,2.75v-5.18c.12-.03,5.44-2.71,5.54-2.75h0Z" style="fill:#fff; stroke:#606060; stroke-linecap:round; stroke-linejoin:round; stroke-width:.5px;"/><path d="M154.9,151.29c-6.29-3.63-16.72-.9-16.73,4v5.18c0-5.36,10.83-7.4,16.72-4,1.8,1.04,2.9,2.48,2.9,4.04v-5.18c.02-1.56-1.08-3-2.89-4.04Z" style="fill:#fff; stroke:#606060; stroke-linecap:round; stroke-linejoin:round; stroke-width:.5px;"/><path d="M124.98,157.46v5.18c-.13.01-7.17-.35-7.29-.35v-5.18c.14,0,7.17.36,7.29.35h0Z" style="fill:#fff; stroke:#606060; stroke-linecap:round; stroke-linejoin:round; stroke-width:.5px;"/><polygon points="178.27 153.51 178.25 158.68 177.41 165.05 177.42 159.87 178.27 153.51" style="fill:#fff; stroke:#606060; stroke-linecap:round; stroke-linejoin:round; stroke-width:.5px;"/><path d="M177.42,159.87v5.18c-.14,0-7.18-.3-7.3-.32v-5.18c.13.02,7.17.32,7.3.32h0Z" style="fill:#fff; stroke:#606060; stroke-linecap:round; stroke-linejoin:round; stroke-width:.5px;"/><polygon points="127.19 161.37 127.17 166.55 124.96 162.63 124.98 157.46 127.19 161.37" style="fill:#fff; stroke:#606060; stroke-linecap:round; stroke-linejoin:round; stroke-width:.5px;"/><polygon points="170.14 159.55 170.13 164.73 166.91 168.39 166.93 163.21 170.14 159.55" style="fill:#fff; stroke:#606060; stroke-linecap:round; stroke-linejoin:round; stroke-width:.5px;"/><polygon points="140.73 168.13 140.72 173.3 134.38 171.43 134.4 166.26 140.73 168.13" style="fill:#fff; stroke:#606060; stroke-linecap:round; stroke-linejoin:round; stroke-width:.5px;"/><polygon points="158.52 167.37 158.51 172.55 151.76 173.82 151.77 168.64 158.52 167.37" style="fill:#fff; stroke:#606060; stroke-linecap:round; stroke-linejoin:round; stroke-width:.5px;"/><path d="M134.4,166.26v5.18c-.09.06-5.48,2.68-5.57,2.73l.02-5.18c.1-.05,5.49-2.68,5.56-2.73h0Z" style="fill:#fff; stroke:#606060; stroke-linecap:round; stroke-linejoin:round; stroke-width:.5px;"/><polygon points="128.84 168.99 128.82 174.16 121.65 169.3 121.66 164.13 128.84 168.99" style="fill:#fff; stroke:#606060; stroke-linecap:round; stroke-linejoin:round; stroke-width:.5px;"/><polygon points="171.66 166.44 171.65 171.62 163.28 175.76 163.3 170.58 171.66 166.44" style="fill:#fff; stroke:#606060; stroke-linecap:round; stroke-linejoin:round; stroke-width:.5px;"/><path d="M163.3,170.58v5.18c-.1-.06-4.73-3.15-4.79-3.21l.02-5.18c.06.06,4.69,3.15,4.77,3.21h0Z" style="fill:#fff; stroke:#606060; stroke-linecap:round; stroke-linejoin:round; stroke-width:.5px;"/><polygon points="151.19 172.85 151.17 178.03 140.18 177.52 140.2 172.35 151.19 172.85" style="fill:#fff; stroke:#606060; stroke-linecap:round; stroke-linejoin:round; stroke-width:.5px;"/><path d="M163.3,170.58c-.08-.06-4.72-3.15-4.77-3.21l-6.75,1.27c.02.07-.57,4.14-.59,4.22l-10.99-.51c0-.07.5-4.15.53-4.22l-6.34-1.87c-.07.06-5.46,2.68-5.56,2.73l-7.18-4.86c.1-.05,5.42-2.72,5.53-2.75l-2.21-3.91c-.12.01-7.15-.35-7.28-.35l.84-6.36c.13,0,7.17.3,7.28.32l3.21-3.66c-.22-.13-4.65-3.17-4.73-3.23l8.37-4.14c.08.06,4.72,3.15,4.77,3.21l6.75-1.27c-.02-.07.57-4.14.59-4.22l10.99.51c-.01.07-.5,4.15-.53,4.22l6.34,1.87c.07-.06,5.46-2.68,5.56-2.73l7.18,4.86c-.1.05-5.42,2.72-5.53,2.75l2.21,3.91c.12,0,7.15.35,7.28.35l-.84,6.36c-.13,0-7.17-.3-7.28-.32l-3.21,3.66c.22.13,4.65,3.17,4.73,3.23l-8.37,4.14ZM147.23,160.97c5.4.25,10.12-2.08,10.54-5.21.23-1.73-.9-3.34-2.87-4.47-1.6-.92-3.75-1.53-6.17-1.65-5.4-.25-10.12,2.08-10.54,5.21-.23,1.73.9,3.34,2.87,4.47,1.6.92,3.75,1.53,6.17,1.65h0Z" style="fill:#fff; stroke:#606060; stroke-linecap:round; stroke-linejoin:round; stroke-width:.5px;"/><path d="M151.77,168.64v5.18c-.02.19-.59,4.14-.6,4.21v-5.18c.03-.07.6-4.02.6-4.21h0Z" style="fill:#fff; stroke:#606060; stroke-linecap:round; stroke-linejoin:round; stroke-width:.5px;"/><path d="M102.53,179.7c0-5.24-3.46-10.48-10.39-14.48-13.85-8-36.31-8-50.17,0-6.93,4-10.39,9.24-10.39,14.48h0s0,0,0,0c0,5.24,3.46,10.48,10.39,14.48,13.85,8,36.31,8,50.17,0,6.93-4,10.39-9.24,10.39-14.48,0,0,0,0,0,0Z" style="fill:#666; opacity:.2; stroke-width:0px;"/><path d="M95.94,171.07c-.07.33-.15.65-.24.97.09-.32.18-.65.24-.97.17-.81.25-1.63.25-2.45,0,0,0,0,0,0,0-5.24-3.46-10.48-10.39-14.48-13.85-8-36.31-8-50.17,0-6.93,4-10.39,9.24-10.39,14.48h0s0,0,0,0h0v7.53c0,5.24,3.46,10.48,10.39,14.48,6.77,3.91,15.6,5.9,24.48,5.99,9.28.09,18.61-1.9,25.69-5.99,6.93-4,10.39-9.24,10.39-14.48v-7.54c0,.82-.08,1.64-.25,2.45ZM80.15,185.76c-.14.05-.28.1-.42.15.14-.05.28-.1.42-.15ZM78.62,186.3c-.13.04-.25.08-.38.12.13-.04.25-.08.38-.12ZM77.06,186.8c-.11.03-.22.06-.34.1.11-.03.22-.06.34-.1ZM75.46,187.25c-.09.02-.19.05-.28.07.09-.02.19-.05.28-.07ZM73.82,187.65c-.08.02-.15.03-.23.05.08-.02.15-.03.23-.05ZM72.16,188.01c-.06.01-.12.02-.17.03.06-.01.12-.02.17-.03ZM70.48,188.31s-.08.01-.12.02c.04,0,.08-.01.12-.02ZM68.77,188.56s-.05,0-.08,0c.03,0,.05,0,.08,0ZM67.05,188.77s-.02,0-.04,0c.01,0,.02,0,.04,0ZM65.32,188.92s0,0,0,0c0,0,0,0,0,0ZM84.46,183.84c-.12.06-.25.12-.37.18.12-.06.25-.12.37-.18ZM83.07,184.52c-.14.07-.29.13-.44.2.15-.07.29-.13.44-.2ZM81.63,185.16c-.15.06-.3.12-.44.18.15-.06.3-.12.44-.18ZM25.26,169.17c.17,3.58,1.95,7.15,5.35,10.29.89.82,1.88,1.61,2.99,2.36-1.1-.75-2.1-1.54-2.99-2.36-3.4-3.14-5.19-6.71-5.35-10.29ZM34.75,182.57c.29.18.58.36.88.53.43.25.86.49,1.31.72-.44-.23-.88-.47-1.31-.72-.3-.17-.59-.35-.88-.53ZM41.11,185.69c-.2-.08-.4-.16-.59-.24.2.08.39.16.59.24ZM39.68,185.11c-.23-.1-.46-.2-.69-.31.23.1.45.21.69.31ZM38.29,184.49c-.28-.13-.55-.27-.82-.41.27.14.54.28.82.41ZM60.11,189.09h0s0,0,0,0h0ZM42.06,186.04c.17.06.34.12.51.18-.17-.06-.34-.12-.51-.18ZM43.63,186.57c.14.05.29.09.43.14-.14-.04-.29-.09-.43-.14ZM45.23,187.05c.12.03.23.07.35.1-.12-.03-.23-.07-.35-.1ZM46.85,187.47c.09.02.18.05.28.07-.09-.02-.18-.05-.28-.07ZM48.49,187.84c.07.01.14.03.21.05-.07-.01-.14-.03-.21-.05ZM50.13,188.17s.1.02.15.03c-.05,0-.1-.02-.15-.03ZM51.79,188.44s.06,0,.09.01c-.03,0-.06,0-.09-.01ZM53.46,188.66s.03,0,.05,0c-.02,0-.03,0-.05,0ZM55.13,188.84s0,0,.01,0c0,0,0,0-.01,0Z" style="fill:#fff; stroke:#606060; stroke-linecap:round; stroke-linejoin:round; stroke-width:2px;"/><path d="M96.19,168.62c0-5.24-3.46-10.48-10.39-14.48-13.85-8-36.31-8-50.17,0-6.93,4-10.39,9.24-10.39,14.48h0s0,0,0,0c0,5.24,3.46,10.48,10.39,14.48,13.85,8,36.31,8,50.17,0,6.93-4,10.39-9.24,10.39-14.48,0,0,0,0,0,0Z" style="fill:#fff; stroke:#606060; stroke-linecap:round; stroke-linejoin:round; stroke-width:.5px;"/><path d="M35.63,183.1c-6.93-4-10.39-9.24-10.39-14.48v7.53c0,5.24,3.46,10.48,10.39,14.48,6.77,3.91,15.6,5.9,24.48,5.99v-7.54c-8.88-.09-17.71-2.08-24.48-5.99Z" style="fill:#fff; stroke:#606060; stroke-linecap:round; stroke-linejoin:round; stroke-width:.5px;"/><path d="M85.8,190.64c6.93-4,10.39-9.24,10.39-14.48v-7.54c0,5.24-3.46,10.48-10.39,14.48-7.08,4.09-16.41,6.08-25.69,5.99v7.54c9.28.09,18.61-1.9,25.69-5.99Z" style="fill:#e95420; stroke:#606060; stroke-linecap:round; stroke-linejoin:round; stroke-width:.5px;"/><path d="M80.42,157.03c-10.94-6.32-28.57-6.34-39.41-.03-6,3.46-8.69,8.12-8.07,12.65.5,3.69,3.18,7.31,8.07,10.13,10.89,6.29,28.52,6.31,39.41.03,4.89-2.82,7.58-6.44,8.07-10.13.61-4.53-2.08-9.19-8.07-12.65Z" style="fill:#fff; stroke:#606060; stroke-linecap:round; stroke-linejoin:round; stroke-width:.5px;"/><path d="M212.95,111.88c0-5.24-3.46-10.48-10.39-14.48-13.85-8-36.31-8-50.17,0-6.93,4-10.39,9.24-10.39,14.48h0s0,0,0,0c0,5.24,3.46,10.48,10.39,14.48,13.85,8,36.31,8,50.17,0,6.93-4,10.39-9.24,10.39-14.48,0,0,0,0,0,0Z" style="fill:#666; opacity:.2; stroke-width:0px;"/><path d="M206.36,103.24c-.07.33-.15.65-.24.97.09-.32.18-.65.24-.97.17-.81.25-1.63.25-2.45,0,0,0,0,0,0,0-5.24-3.46-10.48-10.39-14.48-13.85-8-36.31-8-50.17,0-6.93,4-10.39,9.24-10.39,14.48h0s0,0,0,0h0v7.53c0,5.24,3.46,10.48,10.39,14.48,6.77,3.91,15.6,5.9,24.48,5.99,9.28.09,18.61-1.9,25.69-5.99,6.93-4,10.39-9.24,10.39-14.48v-7.54c0,.82-.08,1.64-.25,2.45ZM190.57,117.93c-.14.05-.28.1-.42.15.14-.05.28-.1.42-.15ZM189.04,118.47c-.13.04-.25.08-.38.12.13-.04.25-.08.38-.12ZM187.48,118.97c-.11.03-.22.06-.34.1.11-.03.22-.06.34-.1ZM185.88,119.42c-.09.02-.19.05-.28.07.09-.02.19-.05.28-.07ZM184.24,119.82c-.08.02-.15.03-.23.05.08-.02.15-.03.23-.05ZM182.58,120.18c-.06.01-.12.02-.17.03.06-.01.12-.02.17-.03ZM180.9,120.48s-.08.01-.12.02c.04,0,.08-.01.12-.02ZM179.19,120.73s-.05,0-.08,0c.03,0,.05,0,.08,0ZM177.47,120.94s-.02,0-.04,0c.01,0,.02,0,.04,0ZM175.74,121.09s0,0,0,0c0,0,0,0,0,0ZM194.88,116.01c-.12.06-.25.12-.37.18.12-.06.25-.12.37-.18ZM193.49,116.7c-.14.07-.29.13-.44.2.15-.07.29-.13.44-.2ZM192.05,117.34c-.15.06-.3.12-.44.18.15-.06.3-.12.44-.18ZM135.68,101.34c.17,3.58,1.95,7.15,5.35,10.29.89.82,1.88,1.61,2.99,2.36-1.1-.75-2.1-1.54-2.99-2.36-3.4-3.14-5.19-6.71-5.35-10.29ZM145.17,114.74c.29.18.58.36.88.53.43.25.86.49,1.31.72-.44-.23-.88-.47-1.31-.72-.3-.17-.59-.35-.88-.53ZM151.53,117.86c-.2-.08-.4-.16-.59-.24.2.08.39.16.59.24ZM150.1,117.29c-.23-.1-.46-.2-.69-.31.23.1.45.21.69.31ZM148.71,116.66c-.28-.13-.55-.27-.82-.41.27.14.54.28.82.41ZM170.53,121.26h0s0,0,0,0h0ZM152.48,118.21c.17.06.34.12.51.18-.17-.06-.34-.12-.51-.18ZM154.05,118.74c.14.05.29.09.43.14-.14-.04-.29-.09-.43-.14ZM155.65,119.22c.12.03.23.07.35.1-.12-.03-.23-.07-.35-.1ZM157.27,119.64c.09.02.18.05.28.07-.09-.02-.18-.05-.28-.07ZM158.91,120.02c.07.01.14.03.21.05-.07-.01-.14-.03-.21-.05ZM160.55,120.34s.1.02.15.03c-.05,0-.1-.02-.15-.03ZM162.22,120.61s.06,0,.09.01c-.03,0-.06,0-.09-.01ZM163.88,120.84s.03,0,.05,0c-.02,0-.03,0-.05,0ZM165.55,121.01s0,0,.01,0c0,0,0,0-.01,0Z" style="fill:#fff; stroke:#606060; stroke-linecap:round; stroke-linejoin:round; stroke-width:2px;"/><path d="M206.61,100.79c0-5.24-3.46-10.48-10.39-14.48-13.85-8-36.31-8-50.17,0-6.93,4-10.39,9.24-10.39,14.48h0s0,0,0,0c0,5.24,3.46,10.48,10.39,14.48,13.85,8,36.31,8,50.17,0,6.93-4,10.39-9.24,10.39-14.48,0,0,0,0,0,0Z" style="fill:#fff; stroke:#606060; stroke-linecap:round; stroke-linejoin:round; stroke-width:.5px;"/><path d="M146.05,115.27c-6.93-4-10.39-9.24-10.39-14.48v7.53c0,5.24,3.46,10.48,10.39,14.48,6.77,3.91,15.6,5.9,24.48,5.99v-7.54c-8.88-.09-17.71-2.08-24.48-5.99Z" style="fill:#fff; stroke:#606060; stroke-linecap:round; stroke-linejoin:round; stroke-width:.5px;"/><path d="M196.22,122.81c6.93-4,10.39-9.24,10.39-14.48v-7.54c0,5.24-3.46,10.48-10.39,14.48-7.08,4.09-16.41,6.08-25.69,5.99v7.54c9.28.09,18.61-1.9,25.69-5.99Z" style="fill:#e95420; stroke:#606060; stroke-linecap:round; stroke-linejoin:round; stroke-width:.5px;"/><path d="M190.84,89.2c-10.94-6.32-28.57-6.34-39.41-.03-6,3.46-8.69,8.12-8.07,12.65.5,3.69,3.18,7.31,8.07,10.13,10.89,6.29,28.52,6.31,39.41.03,4.89-2.82,7.58-6.44,8.07-10.13.61-4.53-2.08-9.19-8.07-12.65Z" style="fill:#fff; stroke:#606060; stroke-linecap:round; stroke-linejoin:round; stroke-width:.5px;"/><path d="M254.76,214.91c0-5.24-3.46-10.48-10.39-14.48-13.85-8-36.31-8-50.17,0-6.93,4-10.39,9.24-10.39,14.48h0s0,0,0,0c0,5.24,3.46,10.48,10.39,14.48,13.85,8,36.31,8,50.17,0,6.93-4,10.39-9.24,10.39-14.48,0,0,0,0,0,0Z" style="fill:#666; opacity:.2; stroke-width:0px;"/><path d="M248.17,206.27c-.07.33-.15.65-.24.97.09-.32.18-.65.24-.97.17-.81.25-1.63.25-2.45,0,0,0,0,0,0,0-5.24-3.46-10.48-10.39-14.48-13.85-8-36.31-8-50.17,0-6.93,4-10.39,9.24-10.39,14.48h0s0,0,0,0h0v7.53c0,5.24,3.46,10.48,10.39,14.48,6.77,3.91,15.6,5.9,24.48,5.99,9.28.09,18.61-1.9,25.69-5.99,6.93-4,10.39-9.24,10.39-14.48v-7.54c0,.82-.08,1.64-.25,2.45ZM232.38,220.96c-.14.05-.28.1-.42.15.14-.05.28-.1.42-.15ZM230.85,221.5c-.13.04-.25.08-.38.12.13-.04.25-.08.38-.12ZM229.29,222c-.11.03-.22.06-.34.1.11-.03.22-.06.34-.1ZM227.69,222.45c-.09.02-.19.05-.28.07.09-.02.19-.05.28-.07ZM226.05,222.85c-.08.02-.15.03-.23.05.08-.02.15-.03.23-.05ZM224.39,223.21c-.06.01-.12.02-.17.03.06-.01.12-.02.17-.03ZM222.71,223.51s-.08.01-.12.02c.04,0,.08-.01.12-.02ZM221,223.76s-.05,0-.08,0c.03,0,.05,0,.08,0ZM219.28,223.97s-.02,0-.04,0c.01,0,.02,0,.04,0ZM217.55,224.12s0,0,0,0c0,0,0,0,0,0ZM236.69,219.04c-.12.06-.25.12-.37.18.12-.06.25-.12.37-.18ZM235.3,219.72c-.14.07-.29.13-.44.2.15-.07.29-.13.44-.2ZM233.86,220.37c-.15.06-.3.12-.44.18.15-.06.3-.12.44-.18ZM177.49,204.37c.17,3.58,1.95,7.15,5.35,10.29.89.82,1.88,1.61,2.99,2.36-1.1-.75-2.1-1.54-2.99-2.36-3.4-3.14-5.19-6.71-5.35-10.29ZM186.98,217.77c.29.18.58.36.88.53.43.25.86.49,1.31.72-.44-.23-.88-.47-1.31-.72-.3-.17-.59-.35-.88-.53ZM193.34,220.89c-.2-.08-.4-.16-.59-.24.2.08.39.16.59.24ZM191.91,220.32c-.23-.1-.46-.2-.69-.31.23.1.45.21.69.31ZM190.52,219.69c-.28-.13-.55-.27-.82-.41.27.14.54.28.82.41ZM212.34,224.29h0s0,0,0,0h0ZM194.29,221.24c.17.06.34.12.51.18-.17-.06-.34-.12-.51-.18ZM195.87,221.77c.14.05.29.09.43.14-.14-.04-.29-.09-.43-.14ZM197.46,222.25c.12.03.23.07.35.1-.12-.03-.23-.07-.35-.1ZM199.08,222.67c.09.02.18.05.28.07-.09-.02-.18-.05-.28-.07ZM200.72,223.05c.07.01.14.03.21.05-.07-.01-.14-.03-.21-.05ZM202.36,223.37s.1.02.15.03c-.05,0-.1-.02-.15-.03ZM204.03,223.64s.06,0,.09.01c-.03,0-.06,0-.09-.01ZM205.69,223.87s.03,0,.05,0c-.02,0-.03,0-.05,0ZM207.36,224.04s0,0,.01,0c0,0,0,0-.01,0Z" style="fill:#fff; stroke:#606060; stroke-linecap:round; stroke-linejoin:round; stroke-width:2px;"/><path d="M248.42,203.82c0-5.24-3.46-10.48-10.39-14.48-13.85-8-36.31-8-50.17,0-6.93,4-10.39,9.24-10.39,14.48h0s0,0,0,0c0,5.24,3.46,10.48,10.39,14.48,13.85,8,36.31,8,50.17,0,6.93-4,10.39-9.24,10.39-14.48,0,0,0,0,0,0Z" style="fill:#fff; stroke:#606060; stroke-linecap:round; stroke-linejoin:round; stroke-width:.5px;"/><path d="M187.86,218.3c-6.93-4-10.39-9.24-10.39-14.48v7.53c0,5.24,3.46,10.48,10.39,14.48,6.77,3.91,15.6,5.9,24.48,5.99v-7.54c-8.88-.09-17.71-2.08-24.48-5.99Z" style="fill:#fff; stroke:#606060; stroke-linecap:round; stroke-linejoin:round; stroke-width:.5px;"/><path d="M238.03,225.84c6.93-4,10.39-9.24,10.39-14.48v-7.54c0,5.24-3.46,10.48-10.39,14.48-7.08,4.09-16.41,6.08-25.69,5.99v7.54c9.28.09,18.61-1.9,25.69-5.99Z" style="fill:#e95420; stroke:#606060; stroke-linecap:round; stroke-linejoin:round; stroke-width:.5px;"/><path d="M232.65,192.23c-10.94-6.32-28.57-6.34-39.41-.03-6,3.46-8.69,8.12-8.07,12.65.5,3.69,3.18,7.31,8.07,10.13,10.89,6.29,28.52,6.31,39.41.03,4.89-2.82,7.58-6.44,8.07-10.13.61-4.53-2.08-9.19-8.07-12.65Z" style="fill:#fff; stroke:#606060; stroke-linecap:round; stroke-linejoin:round; stroke-width:.5px;"/><path d="M125.85,115.69c-3.33-1.92-8.72-1.92-12.05,0-3.33,1.92-3.33,5.04,0,6.96,3.33,1.92,8.72,1.92,12.05,0,3.33-1.92,3.33-5.04,0-6.96ZM116.64,121c-1.76-1.01-1.76-2.66,0-3.67,1.76-1.01,4.61-1.01,6.36,0,1.76,1.01,1.76,2.66,0,3.67-1.76,1.01-4.61,1.01-6.36,0Z" style="fill:#666; opacity:.2; stroke-width:0px;"/><path d="M116.98,197.86c-3.33-1.92-8.72-1.92-12.05,0-3.33,1.92-3.33,5.04,0,6.96,3.33,1.92,8.72,1.92,12.05,0,3.33-1.92,3.33-5.04,0-6.96ZM107.77,203.18c-1.76-1.01-1.76-2.66,0-3.67,1.76-1.01,4.61-1.01,6.36,0,1.76,1.01,1.76,2.66,0,3.67-1.76,1.01-4.61,1.01-6.36,0Z" style="fill:#666; opacity:.2; stroke-width:0px;"/><path d="M79.06,116.17l-5.08-2.95h0c-.51-.29-1.17-.33-1.76,0l-26.3,15.37c-2.02,1.17-3.26,3.33-3.26,5.66v39.53c0,.7.39,1.26.92,1.55l5.07,2.94,3.37-6.89,19.59-11.45c2.02-1.17,3.26-3.33,3.26-5.66v-29.56l4.19-8.56Z" style="fill:#fff; stroke:#606060; stroke-linecap:round; stroke-linejoin:round; stroke-width:2px;"/><path d="M76.75,162.93l-26.3,15.37c-1.18.68-2.65-.17-2.65-1.53v-39.53c0-2.34,1.24-4.49,3.26-5.66l26.3-15.37c1.18-.68,2.65.17,2.65,1.53v39.53c0,2.34-1.24,4.49-3.26,5.66Z" style="fill:#fff; stroke:#606060; stroke-linecap:round; stroke-linejoin:round; stroke-width:2px;"/><path d="M72.24,139.76c-.45.17-1.54.58-2.75,1.04,0,0,0,0,0,0-.16.06-.32.12-.49.19-.77.29-1.36.45-1.75.1.22-.84.37-1.63.47-2.36.17-.18.36-.35.52-.46.45-.31.63-1.72.52-2.54-.07-.53-.54-.41-.87-.25,0,0,.89-3.59.54-4s-.77-.21-.77-.21c0,0-.04-1.25-1.81-.22-1.78,1.03-4.33,2.5-4.62,4.78-.18,1.44.41,3.15.41,3.15h0s0,.07,0,.11c-.33.22-.8.64-.87,1.25-.1.95.07,2.15.52,1.94.16-.08.35-.12.52-.15.1.61.26,1.22.47,1.81-.39.81-.98,1.32-1.75,1.92-.16.13-.33.25-.49.38,0,0,0,0,0,0-1.21.93-2.3,1.78-2.75,2.13-1.1.86-2.2,3.38-3.11,5.82-.9-1.4-1.41-3.3-1.41-5.63,0-7.5,5.26-16.61,11.75-20.36s11.75-.71,11.75,6.79c0,2.14-.43,4.41-1.19,6.65-.86-1.25-1.87-2.27-2.88-1.89Z" style="fill:#fff; stroke:#606060; stroke-linecap:round; stroke-linejoin:round; stroke-width:2px;"/><polygon points="75.76 148.81 53.49 161.81 53.49 160.55 75.76 147.55 75.76 148.81" style="fill:#fff; stroke:#606060; stroke-linecap:round; stroke-linejoin:round; stroke-width:2px;"/><polygon points="72.54 158.08 53.49 169.22 53.49 167.96 72.54 156.81 72.54 158.08" style="fill:#fff; stroke:#606060; stroke-linecap:round; stroke-linejoin:round; stroke-width:2px;"/><polygon points="69.9 155.83 53.49 165.41 53.49 164.14 69.9 154.57 69.9 155.83" style="fill:#fff; stroke:#606060; stroke-linecap:round; stroke-linejoin:round; stroke-width:2px;"/><path d="M79.06,116.17l-5.08-2.95h0c-.51-.29-1.17-.33-1.76,0l-26.3,15.37c-2.02,1.17-3.26,3.33-3.26,5.66v39.53c0,.7.39,1.26.92,1.55l5.07,2.94,3.37-6.89,19.59-11.45c2.02-1.17,3.26-3.33,3.26-5.66v-29.56l4.19-8.56Z" style="fill:#fff; stroke:#606060; stroke-linecap:round; stroke-linejoin:round; stroke-width:.5px;"/><path d="M76.75,162.93l-26.3,15.37c-1.18.68-2.65-.17-2.65-1.53v-39.53c0-2.34,1.24-4.49,3.26-5.66l26.3-15.37c1.18-.68,2.65.17,2.65,1.53v39.53c0,2.34-1.24,4.49-3.26,5.66Z" style="fill:#e95420; stroke-width:0px;"/><path d="M72.24,139.76c-.45.17-1.54.58-2.75,1.04,0,0,0,0,0,0-.16.06-.32.12-.49.19-.77.29-1.36.45-1.75.1.22-.84.37-1.63.47-2.36.17-.18.36-.35.52-.46.45-.31.63-1.72.52-2.54-.07-.53-.54-.41-.87-.25,0,0,.89-3.59.54-4s-.77-.21-.77-.21c0,0-.04-1.25-1.81-.22-1.78,1.03-4.33,2.5-4.62,4.78-.18,1.44.41,3.15.41,3.15h0s0,.07,0,.11c-.33.22-.8.64-.87,1.25-.1.95.07,2.15.52,1.94.16-.08.35-.12.52-.15.1.61.26,1.22.47,1.81-.39.81-.98,1.32-1.75,1.92-.16.13-.33.25-.49.38,0,0,0,0,0,0-1.21.93-2.3,1.78-2.75,2.13-1.1.86-2.2,3.38-3.11,5.82-.9-1.4-1.41-3.3-1.41-5.63,0-7.5,5.26-16.61,11.75-20.36s11.75-.71,11.75,6.79c0,2.14-.43,4.41-1.19,6.65-.86-1.25-1.87-2.27-2.88-1.89Z" style="fill:#fff; stroke-width:0px;"/><polygon points="75.76 148.81 53.49 161.81 53.49 160.55 75.76 147.55 75.76 148.81" style="fill:#fff; stroke-width:0px;"/><polygon points="72.54 158.08 53.49 169.22 53.49 167.96 72.54 156.81 72.54 158.08" style="fill:#fff; stroke-width:0px;"/><polygon points="69.9 155.83 53.49 165.41 53.49 164.14 69.9 154.57 69.9 155.83" style="fill:#fff; stroke-width:0px;"/><path d="M76.75,162.93l-26.3,15.37c-1.18.68-2.65-.17-2.65-1.53v-39.53c0-2.34,1.24-4.49,3.26-5.66l26.3-15.37c1.18-.68,2.65.17,2.65,1.53v39.53c0,2.34-1.24,4.49-3.26,5.66Z" style="fill:none; stroke:#606060; stroke-linecap:round; stroke-linejoin:round; stroke-width:.5px;"/><polygon points="83.92 166.05 55.69 182.34 49.27 178.64 77.5 162.34 83.92 166.05" style="fill:#666; opacity:.2; stroke-width:0px;"/><path d="M187.9,47.79l-5.08-2.95h0c-.51-.29-1.17-.33-1.76,0l-26.3,15.37c-2.02,1.17-3.26,3.33-3.26,5.66v39.53c0,.7.39,1.26.92,1.55l5.07,2.94,3.37-6.89,19.59-11.45c2.02-1.17,3.26-3.33,3.26-5.66v-29.56l4.19-8.56Z" style="fill:#fff; stroke:#606060; stroke-linecap:round; stroke-linejoin:round; stroke-width:2px;"/><path d="M185.59,94.56l-26.3,15.37c-1.18.68-2.65-.17-2.65-1.53v-39.53c0-2.34,1.24-4.49,3.26-5.66l26.3-15.37c1.18-.68,2.65.17,2.65,1.53v39.53c0,2.34-1.24,4.49-3.26,5.66Z" style="fill:#fff; stroke:#606060; stroke-linecap:round; stroke-linejoin:round; stroke-width:2px;"/><path d="M181.08,71.39c-.45.17-1.54.58-2.75,1.04,0,0,0,0,0,0-.16.06-.32.12-.49.19-.77.29-1.36.45-1.75.1.22-.84.37-1.63.47-2.36.17-.18.36-.35.52-.46.45-.31.63-1.72.52-2.54-.07-.53-.54-.41-.87-.25,0,0,.89-3.59.54-4s-.77-.21-.77-.21c0,0-.04-1.25-1.81-.22-1.78,1.03-4.33,2.5-4.62,4.78-.18,1.44.41,3.15.41,3.15h0s0,.07,0,.11c-.33.22-.8.64-.87,1.25-.1.95.07,2.15.52,1.94.16-.08.35-.12.52-.15.1.61.26,1.22.47,1.81-.39.81-.98,1.32-1.75,1.92-.16.13-.33.25-.49.38,0,0,0,0,0,0-1.21.93-2.3,1.78-2.75,2.13-1.1.86-2.2,3.38-3.11,5.82-.9-1.4-1.41-3.3-1.41-5.63,0-7.5,5.26-16.61,11.75-20.36,6.49-3.75,11.75-.71,11.75,6.79,0,2.14-.43,4.41-1.19,6.65-.86-1.25-1.87-2.27-2.88-1.89Z" style="fill:#fff; stroke:#606060; stroke-linecap:round; stroke-linejoin:round; stroke-width:2px;"/><polygon points="184.6 80.44 162.33 93.44 162.33 92.18 184.6 79.17 184.6 80.44" style="fill:#fff; stroke:#606060; stroke-linecap:round; stroke-linejoin:round; stroke-width:2px;"/><polygon points="181.38 89.7 162.33 100.85 162.33 99.59 181.38 88.44 181.38 89.7" style="fill:#fff; stroke:#606060; stroke-linecap:round; stroke-linejoin:round; stroke-width:2px;"/><polygon points="178.74 87.46 162.33 97.03 162.33 95.77 178.74 86.2 178.74 87.46" style="fill:#fff; stroke:#606060; stroke-linecap:round; stroke-linejoin:round; stroke-width:2px;"/><path d="M187.9,47.79l-5.08-2.95h0c-.51-.29-1.17-.33-1.76,0l-26.3,15.37c-2.02,1.17-3.26,3.33-3.26,5.66v39.53c0,.7.39,1.26.92,1.55l5.07,2.94,3.37-6.89,19.59-11.45c2.02-1.17,3.26-3.33,3.26-5.66v-29.56l4.19-8.56Z" style="fill:#fff; stroke:#606060; stroke-linecap:round; stroke-linejoin:round; stroke-width:.5px;"/><path d="M185.59,94.56l-26.3,15.37c-1.18.68-2.65-.17-2.65-1.53v-39.53c0-2.34,1.24-4.49,3.26-5.66l26.3-15.37c1.18-.68,2.65.17,2.65,1.53v39.53c0,2.34-1.24,4.49-3.26,5.66Z" style="fill:#e95420; stroke-width:0px;"/><path d="M181.08,71.39c-.45.17-1.54.58-2.75,1.04,0,0,0,0,0,0-.16.06-.32.12-.49.19-.77.29-1.36.45-1.75.1.22-.84.37-1.63.47-2.36.17-.18.36-.35.52-.46.45-.31.63-1.72.52-2.54-.07-.53-.54-.41-.87-.25,0,0,.89-3.59.54-4s-.77-.21-.77-.21c0,0-.04-1.25-1.81-.22-1.78,1.03-4.33,2.5-4.62,4.78-.18,1.44.41,3.15.41,3.15h0s0,.07,0,.11c-.33.22-.8.64-.87,1.25-.1.95.07,2.15.52,1.94.16-.08.35-.12.52-.15.1.61.26,1.22.47,1.81-.39.81-.98,1.32-1.75,1.92-.16.13-.33.25-.49.38,0,0,0,0,0,0-1.21.93-2.3,1.78-2.75,2.13-1.1.86-2.2,3.38-3.11,5.82-.9-1.4-1.41-3.3-1.41-5.63,0-7.5,5.26-16.61,11.75-20.36,6.49-3.75,11.75-.71,11.75,6.79,0,2.14-.43,4.41-1.19,6.65-.86-1.25-1.87-2.27-2.88-1.89Z" style="fill:#fff; stroke-width:0px;"/><polygon points="184.6 80.44 162.33 93.44 162.33 92.18 184.6 79.17 184.6 80.44" style="fill:#fff; stroke-width:0px;"/><polygon points="181.38 89.7 162.33 100.85 162.33 99.59 181.38 88.44 181.38 89.7" style="fill:#fff; stroke-width:0px;"/><polygon points="178.74 87.46 162.33 97.03 162.33 95.77 178.74 86.2 178.74 87.46" style="fill:#fff; stroke-width:0px;"/><path d="M185.59,94.56l-26.3,15.37c-1.18.68-2.65-.17-2.65-1.53v-39.53c0-2.34,1.24-4.49,3.26-5.66l26.3-15.37c1.18-.68,2.65.17,2.65,1.53v39.53c0,2.34-1.24,4.49-3.26,5.66Z" style="fill:none; stroke:#606060; stroke-linecap:round; stroke-linejoin:round; stroke-width:.5px;"/><polygon points="192.76 97.67 164.53 113.97 158.1 110.26 186.34 93.96 192.76 97.67" style="fill:#666; opacity:.2; stroke-width:0px;"/><path d="M229.63,149.75l-5.08-2.95h0c-.51-.29-1.17-.33-1.76,0l-26.3,15.37c-2.02,1.17-3.26,3.33-3.26,5.66v39.53c0,.7.39,1.26.92,1.55l5.07,2.94,3.37-6.89,19.59-11.45c2.02-1.17,3.26-3.33,3.26-5.66v-29.56l4.19-8.56Z" style="fill:#fff; stroke:#606060; stroke-linecap:round; stroke-linejoin:round; stroke-width:2px;"/><path d="M227.31,196.52l-26.3,15.37c-1.18.68-2.65-.17-2.65-1.53v-39.53c0-2.34,1.24-4.49,3.26-5.66l26.3-15.37c1.18-.68,2.65.17,2.65,1.53v39.53c0,2.34-1.24,4.49-3.26,5.66Z" style="fill:#fff; stroke:#606060; stroke-linecap:round; stroke-linejoin:round; stroke-width:2px;"/><path d="M222.81,173.35c-.45.17-1.54.58-2.75,1.04,0,0,0,0,0,0-.16.06-.32.12-.49.19-.77.29-1.36.45-1.75.1.22-.84.37-1.63.47-2.36.17-.18.36-.35.52-.46.45-.31.63-1.72.52-2.54-.07-.53-.54-.41-.87-.25,0,0,.89-3.59.54-4s-.77-.21-.77-.21c0,0-.04-1.25-1.81-.22-1.78,1.03-4.33,2.5-4.62,4.78-.18,1.44.41,3.15.41,3.15h0s0,.07,0,.11c-.33.22-.8.64-.87,1.25-.1.95.07,2.15.52,1.94.16-.08.35-.12.52-.15.1.61.26,1.22.47,1.81-.39.81-.98,1.32-1.75,1.92-.16.13-.33.25-.49.38,0,0,0,0,0,0-1.21.93-2.3,1.78-2.75,2.13-1.1.86-2.2,3.38-3.11,5.82-.9-1.4-1.41-3.3-1.41-5.63,0-7.5,5.26-16.61,11.75-20.36,6.49-3.75,11.75-.71,11.75,6.79,0,2.14-.43,4.41-1.19,6.65-.86-1.25-1.87-2.27-2.88-1.89Z" style="fill:#fff; stroke:#606060; stroke-linecap:round; stroke-linejoin:round; stroke-width:2px;"/><polygon points="226.33 182.4 204.05 195.4 204.05 194.14 226.33 181.13 226.33 182.4" style="fill:#fff; stroke:#606060; stroke-linecap:round; stroke-linejoin:round; stroke-width:2px;"/><polygon points="223.1 191.66 204.05 202.81 204.05 201.55 223.1 190.4 223.1 191.66" style="fill:#fff; stroke:#606060; stroke-linecap:round; stroke-linejoin:round; stroke-width:2px;"/><polygon points="220.47 189.42 204.05 198.99 204.05 197.73 220.47 188.15 220.47 189.42" style="fill:#fff; stroke:#606060; stroke-linecap:round; stroke-linejoin:round; stroke-width:2px;"/><path d="M229.63,149.75l-5.08-2.95h0c-.51-.29-1.17-.33-1.76,0l-26.3,15.37c-2.02,1.17-3.26,3.33-3.26,5.66v39.53c0,.7.39,1.26.92,1.55l5.07,2.94,3.37-6.89,19.59-11.45c2.02-1.17,3.26-3.33,3.26-5.66v-29.56l4.19-8.56Z" style="fill:#fff; stroke:#606060; stroke-linecap:round; stroke-linejoin:round; stroke-width:.5px;"/><path d="M227.31,196.52l-26.3,15.37c-1.18.68-2.65-.17-2.65-1.53v-39.53c0-2.34,1.24-4.49,3.26-5.66l26.3-15.37c1.18-.68,2.65.17,2.65,1.53v39.53c0,2.34-1.24,4.49-3.26,5.66Z" style="fill:#e95420; stroke-width:0px;"/><path d="M222.81,173.35c-.45.17-1.54.58-2.75,1.04,0,0,0,0,0,0-.16.06-.32.12-.49.19-.77.29-1.36.45-1.75.1.22-.84.37-1.63.47-2.36.17-.18.36-.35.52-.46.45-.31.63-1.72.52-2.54-.07-.53-.54-.41-.87-.25,0,0,.89-3.59.54-4s-.77-.21-.77-.21c0,0-.04-1.25-1.81-.22-1.78,1.03-4.33,2.5-4.62,4.78-.18,1.44.41,3.15.41,3.15h0s0,.07,0,.11c-.33.22-.8.64-.87,1.25-.1.95.07,2.15.52,1.94.16-.08.35-.12.52-.15.1.61.26,1.22.47,1.81-.39.81-.98,1.32-1.75,1.92-.16.13-.33.25-.49.38,0,0,0,0,0,0-1.21.93-2.3,1.78-2.75,2.13-1.1.86-2.2,3.38-3.11,5.82-.9-1.4-1.41-3.3-1.41-5.63,0-7.5,5.26-16.61,11.75-20.36,6.49-3.75,11.75-.71,11.75,6.79,0,2.14-.43,4.41-1.19,6.65-.86-1.25-1.87-2.27-2.88-1.89Z" style="fill:#fff; stroke-width:0px;"/><polygon points="226.33 182.4 204.05 195.4 204.05 194.14 226.33 181.13 226.33 182.4" style="fill:#fff; stroke-width:0px;"/><polygon points="223.1 191.66 204.05 202.81 204.05 201.55 223.1 190.4 223.1 191.66" style="fill:#fff; stroke-width:0px;"/><polygon points="220.47 189.42 204.05 198.99 204.05 197.73 220.47 188.15 220.47 189.42" style="fill:#fff; stroke-width:0px;"/><path d="M227.31,196.52l-26.3,15.37c-1.18.68-2.65-.17-2.65-1.53v-39.53c0-2.34,1.24-4.49,3.26-5.66l26.3-15.37c1.18-.68,2.65.17,2.65,1.53v39.53c0,2.34-1.24,4.49-3.26,5.66Z" style="fill:none; stroke:#606060; stroke-linecap:round; stroke-linejoin:round; stroke-width:.5px;"/><polygon points="234.49 199.63 206.25 215.93 199.83 212.22 228.06 195.92 234.49 199.63" style="fill:#666; opacity:.2; stroke-width:0px;"/></svg>