<?xml version="1.0" encoding="UTF-8"?><svg id="a" xmlns="http://www.w3.org/2000/svg" xmlns:xlink="http://www.w3.org/1999/xlink" viewBox="0 0 280 280"><defs><clipPath id="b"><path d="M195.16,144.14l.3-22.63-11.97-6.98s-9.56,5.63-9.01,21.54l16,9.55,4.69-1.48Z" style="fill:none; stroke-width:0px;"/></clipPath><clipPath id="c"><path d="M207.96,151.52l.25-22.59-11.93-7.02s-9.56,5.63-9.01,21.54l16,9.55,4.69-1.48Z" style="fill:none; stroke-width:0px;"/></clipPath><clipPath id="d"><path d="M220.45,158.79l.27-22.56-11.95-7.04s-9.56,5.63-9.01,21.54l16,9.55,4.69-1.48Z" style="fill:none; stroke-width:0px;"/></clipPath></defs><g style="opacity:.35;"><path d="M145.65,197.8c0,1.65-1.11,3.21-3.14,4.37-4.18,2.41-10.97,2.41-15.15,0l-6.13,3.54c7.56,4.36,19.85,4.36,27.41,0,3.66-2.11,5.68-4.92,5.68-7.91s-2.02-5.8-5.68-7.91l-6.13,3.54c2.02,1.17,3.14,2.72,3.14,4.37Z" style="fill:#e95420; stroke-width:0px;"/><path d="M203.71,173.94l-6.13-3.54-12.52,7.2h0c-4.18,2.41-10.97,2.41-15.15,0l-6.13,3.54c7.56,4.36,19.85,4.36,27.4,0h0s12.52-7.2,12.52-7.2Z" style="fill:#e95420; stroke-width:0px;"/><polygon points="32.14 138.18 32.14 138.18 44.66 130.98 38.53 127.44 26.01 134.64 26.01 134.64 32.14 138.18" style="fill:#e95420; stroke-width:0px;"/><path d="M138.55,159.5c-7.56-4.36-19.85-4.36-27.41,0l2.6,1.5-2.6-1.5c-7.56,4.36-7.56,11.46,0,15.82l6.13-3.54c-4.18-2.41-4.18-6.33,0-8.75h0c4.18-2.41,10.97-2.41,15.15,0h0s31.36,18.1,31.36,18.1l6.13-3.54-31.36-18.11h0Z" style="fill:#e95420; stroke-width:0px;"/><path d="M26.01,134.64c-7.56,4.36-7.56,11.46,0,15.82l6.13-3.54c-4.18-2.41-4.18-6.33,0-8.75h0" style="fill:#e95420; stroke-width:0px;"/><polygon points="142.51 193.43 148.64 189.89 117.28 171.78 111.15 175.32 142.51 193.43" style="fill:#e95420; stroke-width:0px;"/><polygon points="26.01 150.47 121.23 205.71 127.36 202.17 32.14 146.93 26.01 150.47" style="fill:#e95420; stroke-width:0px;"/></g><polygon points="121.9 232 118.65 230.13 117.94 230.53 121.19 232.41 117.94 234.29 118.65 234.7 121.9 232.82 125.15 234.7 125.85 234.29 122.6 232.41 125.85 230.53 125.15 230.13 121.9 232" style="fill:#e95420; fill-rule:evenodd; stroke-width:0px;"/><polygon points="196.67 195.61 193.42 193.73 192.72 194.14 195.97 196.02 192.72 197.89 193.42 198.3 196.67 196.43 199.92 198.3 200.63 197.89 197.38 196.02 200.63 194.14 199.92 193.73 196.67 195.61" style="fill:#e95420; fill-rule:evenodd; stroke-width:0px;"/><polygon points="174.76 198.25 171.51 196.37 170.8 196.78 174.05 198.66 170.8 200.53 171.51 200.94 174.76 199.07 178.01 200.94 178.71 200.53 175.46 198.66 178.71 196.78 178.01 196.37 174.76 198.25" style="fill:#e95420; fill-rule:evenodd; stroke-width:0px;"/><polygon points="85.83 165.63 82.58 163.75 81.87 164.16 85.12 166.03 81.87 167.91 82.58 168.32 85.83 166.44 89.08 168.32 89.79 167.91 86.54 166.03 89.79 164.16 89.08 163.75 85.83 165.63" style="fill:#e95420; fill-rule:evenodd; stroke-width:0px;"/><polygon points="108.48 142.67 105.23 140.79 104.52 141.2 107.77 143.08 104.52 144.95 105.23 145.36 108.48 143.48 111.73 145.36 112.43 144.95 109.18 143.08 112.43 141.2 111.73 140.79 108.48 142.67" style="fill:#e95420; fill-rule:evenodd; stroke-width:0px;"/><path d="M103.5,156.96l-15.86-9.14c-.24-.14-.24-.48,0-.62l.31-.18c.5-.29,1.12-.29,1.62,0l15.86,9.14c.24.14.24.48,0,.62l-.31.18c-.5.29-1.12.29-1.62,0Z" style="fill:#bfbfbf; stroke-width:0px;"/><path d="M97.99,160.54l-32.14-18.44c-.24-.14-.24-.48,0-.62l.31-.18c.5-.29,1.12-.29,1.62,0l32.14,18.44c.24.14.24.48,0,.62l-.31.18c-.5.29-1.12.29-1.62,0Z" style="fill:#bfbfbf; stroke-width:0px;"/><path d="M57.87,203.6l-7.94-4.56c-.75-.43-.41-1.17.61-1.33h.02c.48-.08.98,0,1.33.2l7.94,4.56c.75.43.41,1.17-.61,1.33h-.02c-.47.08-.98,0-1.33-.2Z" style="fill:#e95420; stroke-width:0px;"/><path d="M77.08,214.63l-13.35-7.67c-.75-.43-.41-1.17.61-1.33h.02c.48-.08.98,0,1.33.2l13.35,7.67c.75.43.41,1.17-.61,1.33h-.02c-.48.08-.98,0-1.33-.2Z" style="fill:#e95420; stroke-width:0px;"/><path d="M41.22,202.25l-4.96-2.85c-.75-.43-.41-1.17.61-1.33h.03c.48-.08.98,0,1.33.2l4.96,2.85c.75.43.41,1.17-.61,1.33h-.03c-.48.08-.98,0-1.33-.2Z" style="fill:#e95420; stroke-width:0px;"/><path d="M53.87,209.53l-2.98-1.71c-.75-.43-.41-1.17.61-1.33h.03c.48-.08.98,0,1.33.2l2.98,1.71c.75.43.41,1.17-.61,1.33h-.03c-.48.08-.98,0-1.33-.2Z" style="fill:#bfbfbf; stroke-width:0px;"/><path d="M61.54,213.94l-2.98-1.71c-.75-.43-.41-1.17.61-1.33h.03c.48-.08.98,0,1.33.2l2.98,1.71c.75.43.41,1.17-.61,1.33h-.03c-.48.08-.98,0-1.33-.2Z" style="fill:#bfbfbf; stroke-width:0px;"/><path d="M75.54,221.99l-8.97-5.15c-.75-.43-.41-1.17.61-1.33h.03c.48-.08.98,0,1.33.2l8.97,5.15c.75.43.41,1.17-.61,1.33h-.03c-.48.08-.98,0-1.33-.2Z" style="fill:#bfbfbf; stroke-width:0px;"/><path d="M140.99,148.27l-18.29-10.56c-2.08-1.2-1.82-3.3.58-4.69l15.89-9.21c2.41-1.39,6.05-1.54,8.13-.34l18.29,10.56c2.08,1.2,1.82,3.3-.58,4.69l-15.89,9.21c-2.41,1.39-6.05,1.54-8.13.34Z" style="fill:#666; opacity:.2; stroke-width:0px;"/><path d="M135.86,121.16l-16.95,8.5c-1.41.81-1.02,2.58-.92,3.56.07.69.53,1.34,1.4,1.84l18.29,10.56c1.01.59,2.4.85,3.83.81v-26.35c-1.88-.21-4.04.16-5.65,1.09Z" style="fill:#fff; stroke:#606060; stroke-linecap:round; stroke-linejoin:round; stroke-width:2px;"/><path d="M161.7,136.07c1.23-.71,1.9-1.61,1.98-2.48.08-.83.37-2.58-.64-3.16l-19.04-9.61c-.69-.4-1.55-.65-2.48-.75v26.35c1.51-.05,3.07-.43,4.3-1.14l15.89-9.21Z" style="fill:#e95420; stroke:#606060; stroke-linecap:round; stroke-linejoin:round; stroke-width:2px;"/><path d="M137.68,143.18l-18.29-10.56c-2.08-1.2-1.82-3.3.58-4.69l15.89-9.21c2.41-1.39,6.05-1.54,8.13-.34l18.29,10.56c2.08,1.2,1.82,3.3-.58,4.69l-15.89,9.21c-2.41,1.39-6.05,1.54-8.13.34Z" style="fill:#fff; stroke:#606060; stroke-linecap:round; stroke-linejoin:round; stroke-width:2px;"/><path d="M141.78,137.34c.09.05.23.07.35.04.16-.04.24-.15.17-.24-1.45-1.95-2.61-4.76-1.54-6.81.05-.1-.04-.2-.21-.23-.17-.03-.35.03-.4.12-1.12,2.14.07,5.05,1.56,7.06.02.02.04.04.07.06Z" style="fill:#e95420; stroke-width:0px;"/><path d="M138.7,137.25c.07.04.17.06.28.05.17-.02.29-.11.26-.21-.04-.15-.1-.34-.16-.55-.39-1.26-1.03-3.36-.75-4.84.3-1.57.99-2.7,1.84-3.03.26-.1.54-.13.84-.08,1.52.25,1.45,1.59,1.19,3.45-.22,1.54,1.89,3.87,2.8,4.87.08.09.27.12.43.08.16-.05.22-.16.13-.25-.8-.89-2.93-3.24-2.73-4.67.24-1.71.49-3.48-1.64-3.83-.49-.08-.95-.04-1.37.12-1.4.54-1.93,2.3-2.12,3.3-.29,1.53.36,3.67.76,4.94.06.21.12.39.16.54.01.04.04.07.09.1Z" style="fill:#e95420; stroke-width:0px;"/><path d="M135.39,136.29c.07.04.17.06.28.05.17-.02.29-.11.26-.21-.79-2.79-1.27-5.5,1.57-8.09.09-.09.05-.2-.1-.25-.15-.05-.34-.03-.44.06-2.96,2.7-2.47,5.49-1.66,8.35.01.04.04.07.09.1Z" style="fill:#e95420; stroke-width:0px;"/><path d="M144.52,131.78c.07.04.16.06.26.05.17-.01.3-.1.28-.2-.05-.26-.08-.52-.11-.79-.13-1.01-.25-2.06-1.09-2.96-.62-.67-1.91-1.38-3.38-1.46-.94-.05-1.79.18-2.44.66-.11.08-.08.2.05.26.14.06.34.05.45-.03.52-.38,1.16-.56,1.89-.52,1.05.05,2.23.57,2.87,1.27.78.84.9,1.84,1.02,2.82.03.27.07.54.11.8,0,.04.04.08.09.11Z" style="fill:#e95420; stroke-width:0px;"/><path d="M147.12,135.48c.23.13.48.25.74.35.15.06.34.03.44-.05.1-.08.06-.2-.09-.25-1.46-.56-2.52-1.88-2.89-2.87-.04-.1-.21-.16-.38-.14-.17.02-.28.12-.24.22.34.92,1.2,2.04,2.42,2.75Z" style="fill:#e95420; stroke-width:0px;"/><path d="M132.49,134.62c.06.04.15.06.25.05.17,0,.3-.1.29-.2-.19-1.36-.18-2.54.04-3.61.02-.1-.1-.19-.28-.2-.17-.01-.33.06-.35.16-.22,1.09-.24,2.3-.04,3.68,0,.04.04.08.09.11Z" style="fill:#e95420; stroke-width:0px;"/><path d="M132.88,129.81s.09.04.15.05c.17.02.34-.04.38-.14.43-1.09,1.6-3.07,4.58-4.05,2.36-.77,4.89-.58,6.44.47.11.08.31.09.45.02.13-.07.15-.18.04-.26-1.74-1.18-4.65-1.4-7.24-.55-2.37.78-4.1,2.3-4.89,4.29-.03.06.01.13.09.17Z" style="fill:#e95420; stroke-width:0px;"/><path d="M148.76,133.45c.24.14.5.26.8.38.15.06.34.03.44-.05.1-.08.06-.2-.09-.25-2.09-.8-2.46-2.38-2.81-3.91-.22-.97-.45-1.97-1.12-2.76-.08-.09-.27-.13-.43-.08-.16.04-.22.15-.15.25.63.74.84,1.67,1.07,2.65.32,1.4.65,2.85,2.28,3.79Z" style="fill:#e95420; stroke-width:0px;"/><path d="M129.98,132.24c.07.04.18.06.29.05.17-.02.28-.12.25-.22-.65-1.87.94-5.18,4.33-7.14,1.48-.86,3.94-1.8,7.23-1.42,6.73.78,7.6,4.36,7.88,7.66,0,.1.16.18.33.17.17,0,.31-.09.3-.19-.32-3.69-1.56-7.21-8.39-8-2.82-.33-5.52.2-7.81,1.52-3.54,2.04-5.18,5.51-4.5,7.47.01.04.04.07.09.09Z" style="fill:#e95420; stroke-width:0px;"/><path d="M135.86,121.16l-16.95,8.5c-1.41.81-1.02,2.58-.92,3.56.07.69.53,1.34,1.4,1.84l18.29,10.56c1.01.59,2.4.85,3.83.81v-26.35c-1.88-.21-4.04.16-5.65,1.09Z" style="fill:#fff; stroke:#606060; stroke-linecap:round; stroke-linejoin:round; stroke-width:.5px;"/><path d="M161.7,136.07c1.23-.71,1.9-1.61,1.98-2.48.08-.83.37-2.58-.64-3.16l-19.04-9.61c-.69-.4-1.55-.65-2.48-.75v26.35c1.51-.05,3.07-.43,4.3-1.14l15.89-9.21Z" style="fill:#e95420; stroke:#606060; stroke-linecap:round; stroke-linejoin:round; stroke-width:.5px;"/><path d="M137.68,143.18l-18.29-10.56c-2.08-1.2-1.82-3.3.58-4.69l15.89-9.21c2.41-1.39,6.05-1.54,8.13-.34l18.29,10.56c2.08,1.2,1.82,3.3-.58,4.69l-15.89,9.21c-2.41,1.39-6.05,1.54-8.13.34Z" style="fill:#fff; stroke:#606060; stroke-linecap:round; stroke-linejoin:round; stroke-width:.5px;"/><path d="M226.74,197.32l-65.69-37.93c-2.55-1.47-2.55-5.15,0-6.62l17.68-10.2c2.95-1.71,6.59-1.71,9.55,0l69.48,40.12c2.55,1.47,2.55,5.15,0,6.62l-13.89,8.02c-5.3,3.06-11.82,3.06-17.12,0Z" style="fill:#666; opacity:.2; stroke-width:0px;"/><path d="M246.7,177.52l.03-56.55h-.04c.08-3.25-1.48-6.53-4.69-8.39l-9.01-5.3v-17.93c0-15.15-10.28-32.95-23.39-40.52-7.16-4.14-14.15-4.66-19.67-1.47-5.52,3.19-8.56,9.5-8.56,17.77v14.63c-3.1,0-6.21.81-8.99,2.42-2.93,1.7-4.49,4.6-4.67,7.56h-.01s0,.39,0,.39c0,.12,0,.24,0,.36l-.04,59.52h.03c-.17,3.34,1.37,6.75,4.67,8.66l51.69,30.42c2.74,1.59,5.8,2.38,8.86,2.4,3.13.02,6.27-.79,9.08-2.42,4.04-2.35,5.07-6.69,4.72-11.56ZM194.76,55.75c2.37-1.37,6.01-.83,9.99,1.47,10.06,5.81,18.55,20.52,18.55,32.13v12.23l-32.26-18.99v-17.46c0-4.6,1.36-8.02,3.72-9.38Z" style="fill:#fff; stroke:#606060; stroke-linecap:round; stroke-linejoin:round; stroke-width:2px;"/><path d="M167.69,89.75l-.04,60.27h.03c-.17,3.34,1.37,6.75,4.67,8.66l51.69,30.42c2.74,1.59,5.8,2.38,8.86,2.4v-73.71l-65.21-28.04Z" style="fill:#fff; stroke:#606060; stroke-linecap:round; stroke-linejoin:round; stroke-width:.5px;"/><path d="M241.98,189.08c4.04-2.35,5.07-6.69,4.72-11.56l.03-56.54-13.83-3.19v73.71c3.13.02,6.27-.79,9.08-2.42Z" style="fill:#e95420; stroke:#606060; stroke-linecap:round; stroke-linejoin:round; stroke-width:.5px;"/><path d="M224.08,128.89l-51.69-30.42c-6.26-3.62-6.27-12.65-.02-16.28h0c5.54-3.22,12.39-3.23,17.94-.02l51.69,30.42c6.26,3.62,6.27,12.65.02,16.28h0c-5.54,3.22-12.39,3.23-17.94.02Z" style="fill:#fff; stroke:#606060; stroke-linecap:round; stroke-linejoin:round; stroke-width:.5px;"/><polygon points="222.84 159.66 222.84 167.3 175.19 139.75 175.19 139.75 181.88 135.98 222.84 159.66" style="fill:#fff; stroke:#606060; stroke-linecap:round; stroke-linejoin:round; stroke-width:.5px;"/><polygon points="181.88 135.98 222.84 159.66 222.73 137.28 181.89 113.48 181.88 135.98" style="fill:#fff; stroke:#606060; stroke-linecap:round; stroke-linejoin:round; stroke-width:.5px;"/><polygon points="181.88 135.98 222.84 159.66 222.73 137.28 181.89 113.48 181.88 135.98" style="fill:#666; opacity:.2; stroke-width:0px;"/><polygon points="175.2 109.62 175.19 139.75 175.22 139.77 181.88 135.98 181.89 113.48 175.2 109.62" style="fill:#fff; stroke:#606060; stroke-linecap:round; stroke-linejoin:round; stroke-width:.5px;"/><polygon points="222.84 159.66 222.84 167.3 175.19 139.75 175.19 139.75 181.88 135.98 222.84 159.66" style="fill:#666; opacity:.2; stroke-width:0px;"/><polygon points="175.2 109.62 175.19 139.75 175.22 139.77 181.88 135.98 181.89 113.48 175.2 109.62" style="fill:#666; opacity:.2; stroke-width:0px;"/><path d="M202.3,134.07l.33.19s-.11-.09-.33-.19Z" style="fill:#fff; stroke:#606060; stroke-linecap:round; stroke-linejoin:round; stroke-width:.5px;"/><g style="clip-path:url(#b);"><path d="M192.74,116.35h0c-1.63-1.12-3.97-1.05-6.57.45-4.92,2.84-8.9,9.74-8.9,15.42,0,2.84,1,4.84,2.62,5.77h0s8.87,5.12,8.87,5.12l12.64-21.77-8.65-4.98Z" style="fill:#fff; stroke:#606060; stroke-linecap:round; stroke-linejoin:round; stroke-width:.5px;"/><ellipse cx="194.96" cy="132.16" rx="12.59" ry="7.27" transform="translate(-16.97 234.91) rotate(-60)" style="fill:#e95420; stroke:#606060; stroke-linecap:round; stroke-linejoin:round; stroke-width:.5px;"/><path d="M181.79,138.96c.17-.37.38-.75.58-1.05.25-.38.49-.66.73-.85l-3.19-1.84v-.89s4.18,2.41,4.18,2.41v.84c-.21.16-.44.4-.69.74-.23.31-.5.74-.71,1.16l-.9-.53Z" style="opacity:.3; stroke-width:0px;"/><g style="opacity:.3;"><path d="M189.95,121.6c-.27.15-.56.27-.87.34-.32.08-.65.11-.99.1-.35,0-.7-.06-1.07-.17-.36-.1-.72-.26-1.08-.46-.41-.24-.69-.47-.85-.69s-.23-.44-.22-.63c.01-.2.09-.38.23-.54.14-.16.31-.3.5-.41s.39-.19.62-.25c.23-.06.46-.11.71-.13.24-.03.49-.04.73-.03.25,0,.49.03.72.06-.27-.56-.05-1.04.63-1.44.24-.14.52-.24.83-.31.31-.07.64-.1.98-.1.34,0,.68.05,1.02.14.34.09.67.22.97.39.35.2.6.41.75.62.15.21.21.41.21.6,0,.19-.07.36-.2.52-.13.16-.29.29-.48.4s-.38.19-.6.25-.44.11-.67.13c-.23.03-.46.04-.68.03-.22,0-.44-.02-.65-.05.39.63.21,1.18-.54,1.62ZM186.49,119.66c-.11.07-.21.15-.29.24s-.12.2-.13.32.04.24.13.37c.09.13.25.27.49.4.21.12.43.21.66.27.22.06.44.09.63.09.2,0,.39-.02.56-.06.18-.04.33-.1.46-.18.2-.12.34-.24.42-.37s.1-.27.07-.42c-.03-.15-.1-.3-.22-.46-.12-.16-.28-.33-.47-.51-.44-.07-.86-.09-1.25-.04-.39.05-.74.16-1.07.35ZM192.22,119.09c.09-.05.18-.13.25-.22.07-.09.11-.19.12-.3,0-.11-.02-.22-.09-.34-.07-.12-.21-.24-.41-.35s-.41-.2-.61-.24c-.21-.05-.4-.07-.59-.06-.19,0-.36.03-.52.07-.16.04-.29.1-.41.16-.14.08-.25.18-.34.28-.09.11-.14.23-.15.36-.01.13.02.27.1.43.08.15.21.32.39.49.42.06.82.08,1.19.05.37-.03.72-.14,1.07-.34Z" style="stroke-width:0px;"/></g><path d="M182.5,126.98c1.16.69,1.93,1.4,2.31,2.13.38.73.42,1.46.13,2.19-.13.33-.31.59-.55.8-.23.21-.51.35-.84.41-.33.06-.7.05-1.12-.05s-.89-.28-1.4-.57c-.2-.11-.4-.24-.6-.38-.2-.14-.38-.29-.54-.43s-.31-.27-.43-.39c-.12-.12-.21-.21-.26-.27l.56-.75c.11.13.3.32.56.58.26.26.61.51,1.05.75.35.19.66.32.93.38.27.06.5.07.69.03.2-.04.36-.12.49-.24.13-.12.23-.27.3-.45.11-.27.15-.54.14-.8-.02-.26-.13-.54-.33-.82-.2-.28-.5-.58-.9-.89-.4-.31-.93-.65-1.58-1.01.19-.32.36-.63.51-.92.15-.29.3-.57.44-.85.14-.28.28-.56.41-.83.13-.28.27-.57.41-.88l3.91,2.16-.34.84-2.96-1.63c-.05.1-.12.24-.21.41s-.18.35-.27.54c-.09.19-.19.37-.28.54-.09.18-.16.31-.22.41Z" style="opacity:.3; stroke-width:0px;"/></g><g style="clip-path:url(#c);"><path d="M205.53,123.73h0c-1.63-1.12-3.97-1.05-6.57.45-4.92,2.84-8.9,9.74-8.9,15.42,0,2.84,1,4.84,2.62,5.77h0s8.87,5.12,8.87,5.12l12.64-21.77-8.65-4.98Z" style="fill:#fff; stroke:#606060; stroke-linecap:round; stroke-linejoin:round; stroke-width:.5px;"/><ellipse cx="207.76" cy="139.54" rx="12.59" ry="7.27" transform="translate(-16.97 249.68) rotate(-60)" style="fill:#e95420; stroke:#606060; stroke-linecap:round; stroke-linejoin:round; stroke-width:.5px;"/><g style="opacity:.3;"><path d="M200.8,125.86c1.1-.63,2.14-1.01,3.12-1.13.98-.12,1.82.02,2.51.42s.93.88.72,1.45c-.21.57-.86,1.17-1.96,1.8s-2.14,1.01-3.12,1.13c-.98.12-1.82-.02-2.51-.42s-.93-.88-.72-1.45c.21-.57.86-1.17,1.96-1.8ZM204.27,127.86c.36-.21.68-.42.96-.63.28-.21.49-.41.63-.61.14-.2.2-.38.18-.56-.02-.18-.15-.33-.39-.47s-.51-.21-.82-.23c-.31-.01-.63.02-.97.1-.34.08-.69.2-1.05.37s-.72.35-1.08.56-.68.42-.96.63c-.28.21-.49.41-.63.61-.14.2-.2.38-.18.56.02.18.15.33.39.47s.51.21.82.23c.31.01.63-.02.97-.1.34-.08.69-.2,1.05-.37.36-.16.72-.35,1.08-.55Z" style="stroke-width:0px;"/></g><g style="opacity:.3;"><path d="M197.62,138.7c-.17.35-.38.64-.63.88-.25.24-.53.41-.84.52-.31.11-.65.14-1.02.1-.37-.04-.75-.17-1.15-.38-.46-.25-.81-.53-1.04-.85s-.39-.64-.46-.97c-.07-.33-.08-.65-.02-.97.06-.32.15-.6.27-.85s.27-.45.44-.63c.18-.18.37-.34.57-.47.2-.13.42-.23.64-.31.22-.07.44-.13.66-.15-.47-.83-.48-1.7-.03-2.6.16-.31.36-.58.61-.81.25-.23.52-.4.83-.51.3-.11.62-.16.96-.14.34.02.68.12,1.02.3.4.21.71.47.92.76.21.29.36.6.43.91.07.32.08.63.04.94-.05.31-.14.59-.26.83s-.26.45-.43.63-.34.33-.54.46c-.19.13-.39.23-.59.3-.2.07-.4.12-.6.15.61.91.67,1.87.19,2.88ZM193.74,136.73c-.07.15-.13.32-.16.5s-.03.38.02.57.14.39.27.57c.13.19.33.35.6.49.24.13.47.2.7.21.22.01.42-.01.6-.08.18-.07.34-.17.47-.3.14-.13.25-.29.34-.46.13-.26.2-.52.22-.76s-.02-.48-.11-.72c-.09-.23-.22-.46-.39-.69-.17-.22-.38-.45-.63-.67-.42.04-.8.16-1.12.37-.33.21-.59.53-.8.95ZM198.59,133.75c.06-.12.11-.27.13-.45.03-.17.02-.35-.01-.53-.04-.18-.11-.36-.22-.53-.11-.17-.28-.32-.51-.44s-.44-.18-.64-.19c-.2,0-.38.03-.55.11-.16.07-.31.18-.43.3-.12.13-.22.27-.29.42-.09.18-.15.38-.19.59-.03.21-.03.43.01.65.04.22.13.45.27.67.13.23.32.45.55.67.4-.05.76-.16,1.08-.34.32-.18.58-.5.81-.94Z" style="stroke-width:0px;"/></g><path d="M194.92,146.52c.08-.05.22-.13.3-.18.14-.09.27-.19.38-.3.11-.11.2-.23.27-.38.07-.14.1-.32.1-.52,0-.22-.03-.42-.09-.61-.06-.19-.14-.36-.24-.52-.1-.16-.22-.3-.36-.43-.14-.13-.28-.23-.43-.32-.18-.11-.35-.17-.5-.2-.15-.03-.29-.04-.41-.03s-.22.03-.3.07c-.08.04-.15.06-.19.08l-.44-.97c.06-.04.14-.08.26-.12.11-.04.25-.06.41-.07.16,0,.33.02.53.07s.41.14.63.27c.69.4,1.2.88,1.55,1.45.34.57.52,1.19.52,1.86,0,.26-.05.49-.14.68-.09.19-.21.36-.36.51-.1.1-.28.21-.4.3l-1.08-.62Z" style="opacity:.3; stroke-width:0px;"/></g><g style="clip-path:url(#d);"><path d="M218.02,131h0c-1.63-1.12-3.97-1.05-6.57.45-4.92,2.84-8.9,9.74-8.9,15.42,0,2.84,1,4.84,2.62,5.77h0s8.87,5.12,8.87,5.12l12.64-21.77-8.65-4.98Z" style="fill:#fff; stroke:#606060; stroke-linecap:round; stroke-linejoin:round; stroke-width:.5px;"/><ellipse cx="220.25" cy="146.81" rx="12.59" ry="7.27" transform="translate(-17.02 264.14) rotate(-60)" style="fill:#e95420; stroke:#606060; stroke-linecap:round; stroke-linejoin:round; stroke-width:.5px;"/><path d="M207.16,145.71c.74.34,1.32.46,1.73.37.42-.09.71-.34.87-.74.11-.26.13-.51.07-.74-.06-.24-.18-.46-.35-.66-.17-.2-.39-.39-.66-.57-.27-.17-.55-.33-.85-.47l-.3-.14.32-.77.41.19c.21.09.43.18.66.24.23.07.46.1.68.09.22,0,.42-.06.6-.16.18-.1.32-.27.41-.5.08-.19.1-.37.08-.55-.03-.17-.09-.34-.19-.49-.1-.15-.23-.29-.4-.4-.16-.12-.34-.22-.54-.31-.4-.18-.76-.29-1.07-.32-.32-.03-.59-.04-.82-.03l-.15-.93c.12,0,.27-.01.45,0,.18,0,.38.02.59.06.21.03.44.08.67.14.24.06.47.15.71.26.46.21.83.43,1.13.68.29.24.52.5.66.76.15.27.23.54.24.81.01.28-.03.55-.14.81-.15.37-.41.62-.77.77-.36.14-.76.2-1.18.17.2.16.39.33.55.53.17.2.29.41.38.63.09.23.14.46.15.71.01.25-.03.5-.14.75-.13.31-.31.56-.54.76-.24.2-.53.34-.88.4-.35.07-.75.06-1.2-.01-.45-.08-.96-.24-1.51-.5-.22-.1-.43-.21-.65-.34-.22-.13-.42-.26-.6-.39-.18-.13-.34-.25-.47-.36-.13-.11-.23-.19-.28-.25l.56-.72c.12.12.32.3.62.53.29.24.67.46,1.15.68Z" style="opacity:.3; stroke-width:0px;"/><path d="M218.95,134.72c-.23.13-.49.23-.8.3-.3.07-.63.12-.99.15-.36.03-.73.05-1.12.05-.39,0-.77,0-1.15,0-.21,0-.47,0-.75,0-.29,0-.57.01-.86.03-.28.02-.54.04-.77.08-.23.03-.4.08-.51.14l3.02,1.74-.75.43-3.98-2.3s.07-.05.1-.07l.1-.06c.3-.17.62-.3.98-.39.35-.09.72-.16,1.11-.2s.78-.06,1.17-.07c.4,0,.79,0,1.17,0,.31,0,.61,0,.9,0,.29,0,.57-.02.82-.04.26-.02.5-.06.72-.11.22-.05.42-.13.6-.23.19-.11.32-.22.39-.33.07-.11.1-.22.09-.33-.01-.11-.07-.22-.16-.32-.09-.1-.22-.2-.37-.28-.18-.11-.38-.19-.58-.25-.2-.06-.4-.1-.58-.13s-.36-.05-.51-.05c-.15,0-.27-.01-.36-.01l.19-.61c.12,0,.28,0,.49.01.2.01.43.04.67.08.24.04.49.11.74.19s.49.19.72.32c.69.4,1.05.79,1.07,1.17.03.38-.25.74-.83,1.08Z" style="opacity:.3; stroke-width:0px;"/><path d="M208.55,151.81c-.05-.18-.12-.36-.22-.54-.1-.19-.23-.37-.39-.55-.16-.18-.35-.33-.58-.46-.23-.13-.42-.2-.59-.21-.16-.01-.29.02-.39.09-.1.07-.17.17-.22.29-.05.13-.07.26-.07.41,0,.18.03.38.09.6.06.22.15.44.27.66s.28.46.48.7c.2.24.43.47.7.7.3-.03.54-.14.72-.31.18-.17.27-.48.27-.93,0-.12-.02-.27-.07-.45Z" style="fill:none; stroke-width:0px;"/><path d="M208.51,154.25c.14-.02.28-.07.41-.13.13-.06.25-.16.35-.28.1-.12.19-.27.25-.45.06-.18.09-.38.09-.62s-.04-.53-.12-.84c-.08-.31-.21-.63-.4-.95-.18-.32-.42-.64-.7-.95-.29-.31-.63-.57-1.03-.81-.34-.2-.66-.31-.93-.35-.28-.03-.52,0-.71.1-.2.1-.35.26-.46.49-.11.22-.16.49-.16.81,0,.9.35,1.79,1.05,2.65-.08.01-.16.03-.24.05l2.95,1.71c-.11-.15-.22-.29-.35-.43ZM207.63,153.42c-.27-.23-.51-.47-.7-.7-.2-.24-.36-.47-.48-.7s-.21-.45-.27-.66c-.06-.21-.09-.41-.09-.6,0-.15.02-.29.07-.41.05-.13.12-.22.22-.29.1-.07.23-.1.39-.09.16.01.36.08.59.21.23.13.42.29.58.46.16.18.29.36.39.55.1.19.17.37.22.54.05.18.07.33.07.45,0,.45-.09.76-.27.93-.18.17-.42.28-.72.31Z" style="opacity:.3; stroke-width:0px;"/></g><line x1="220.47" y1="156.96" x2="220.72" y2="136.28" style="fill:#fff; stroke:#606060; stroke-linecap:round; stroke-linejoin:round; stroke-width:.5px;"/><line x1="208.2" y1="134.03" x2="208.26" y2="128.97" style="fill:#fff; stroke:#606060; stroke-linecap:round; stroke-linejoin:round; stroke-width:.5px;"/><line x1="195.39" y1="127.02" x2="195.45" y2="121.61" style="fill:#fff; stroke:#606060; stroke-linecap:round; stroke-linejoin:round; stroke-width:.5px;"/><path d="M198.63,96.25h.01s-8.19-4.84-8.19-4.84l-7.74,4.47,7.83,4.62c.11.07.22.15.34.22,2.14,1.24,5.61,1.24,7.75,0,2.14-1.23,2.14-3.23.01-4.47Z" style="fill:#666; opacity:.2; stroke-width:0px;"/><path d="M239.86,120.02h.01s-8.19-4.84-8.19-4.84l-7.74,4.47,7.83,4.62c.11.07.22.15.34.22,2.14,1.24,5.61,1.24,7.75,0,2.14-1.23,2.14-3.23.01-4.47Z" style="fill:#666; opacity:.2; stroke-width:0px;"/><path d="M232.99,118.11h0v-28.75c0-15.15-10.28-32.95-23.39-40.52-7.16-4.14-14.15-4.66-19.67-1.47-5.52,3.19-8.56,9.5-8.56,17.77v28.46c-.17.82.29,1.68,1.39,2.31,1.9,1.1,4.98,1.1,6.87,0,.95-.55,1.42-1.27,1.42-1.98h0v-28.78c0-4.6,1.36-8.02,3.72-9.38,2.37-1.37,6.01-.83,9.99,1.47,10.06,5.81,18.55,20.52,18.55,32.13v28.74h0v.04h0c.01.71.48,1.41,1.42,1.95,1.89,1.1,4.96,1.1,6.85,0,.93-.54,1.4-1.24,1.42-1.95h0v-.03Z" style="fill:#fff; stroke:#606060; stroke-linecap:round; stroke-linejoin:round; stroke-width:.5px;"/><g style="opacity:.2;"><path d="M114.37,209.57l3.04,1.76-.27.16c-.95.55-1.94,1.02-2.97,1.42-1.04.4-2.11.82-3.21,1.25,1.26.21,2.5.42,3.72.62,1.22.21,2.44.49,3.68.84l.27.08-1.89,2.19-.37-.1c-1.24-.32-2.36-.72-3.36-1.18-1-.46-2.01-.95-3.02-1.45.11.79.2,1.55.25,2.27.06.72-.03,1.47-.25,2.25l-.07.23-4.19-.43.07-.2c.27-.78.61-1.52,1.01-2.2.41-.69.83-1.4,1.28-2.13-1.26.26-2.49.51-3.68.74-1.19.23-2.47.43-3.82.59l-.34.04-.74-2.42.41-.04c1.35-.13,2.65-.18,3.9-.15,1.25.03,2.56.08,3.94.15-.88-.59-1.72-1.17-2.52-1.75-.8-.58-1.48-1.23-2.04-1.94l-.17-.21,3.79-1.09.14.16c.61.72,1.09,1.42,1.45,2.13.36.7.72,1.42,1.08,2.15.74-.64,1.46-1.26,2.16-1.85.7-.6,1.52-1.17,2.47-1.72l.27-.16Z" style="fill:#666; stroke-width:0px;"/></g><g style="opacity:.2;"><path d="M99.15,200.74l3.04,1.76-.27.16c-.95.55-1.94,1.02-2.97,1.42-1.04.4-2.11.82-3.21,1.25,1.26.21,2.5.42,3.72.62,1.22.21,2.44.49,3.68.84l.27.08-1.89,2.19-.37-.1c-1.24-.32-2.36-.72-3.36-1.18-1-.46-2.01-.95-3.02-1.45.11.79.2,1.55.25,2.27.06.72-.03,1.47-.25,2.25l-.07.23-4.19-.43.07-.2c.27-.78.61-1.52,1.01-2.2.41-.69.83-1.4,1.28-2.13-1.26.26-2.49.51-3.68.74-1.19.23-2.47.43-3.82.59l-.34.04-.74-2.42.41-.04c1.35-.13,2.65-.18,3.9-.15,1.25.03,2.56.08,3.94.15-.88-.59-1.72-1.17-2.52-1.75-.8-.58-1.48-1.23-2.04-1.94l-.17-.21,3.79-1.09.14.16c.61.72,1.09,1.42,1.45,2.13.36.7.72,1.42,1.08,2.15.74-.64,1.46-1.26,2.16-1.85.7-.6,1.52-1.17,2.47-1.72l.27-.16Z" style="fill:#666; stroke-width:0px;"/></g><g style="opacity:.2;"><path d="M83.94,191.92l3.04,1.76-.27.16c-.95.55-1.94,1.02-2.97,1.42-1.04.4-2.11.82-3.21,1.25,1.26.21,2.5.42,3.72.62,1.22.21,2.44.49,3.68.84l.27.08-1.89,2.19-.37-.1c-1.24-.32-2.36-.72-3.36-1.18-1-.46-2.01-.95-3.02-1.45.11.79.2,1.55.25,2.27.06.72-.03,1.47-.25,2.25l-.07.23-4.19-.43.07-.2c.27-.78.61-1.52,1.01-2.2.41-.69.83-1.4,1.28-2.13-1.26.26-2.49.51-3.68.74-1.19.23-2.47.43-3.82.59l-.34.04-.74-2.42.41-.04c1.35-.13,2.65-.18,3.9-.15,1.25.03,2.56.08,3.94.15-.88-.59-1.72-1.17-2.52-1.75-.8-.58-1.48-1.23-2.04-1.94l-.17-.21,3.79-1.09.14.16c.61.72,1.09,1.42,1.45,2.13.36.7.72,1.42,1.08,2.15.74-.64,1.46-1.26,2.16-1.85.7-.6,1.52-1.17,2.47-1.72l.27-.16Z" style="fill:#666; stroke-width:0px;"/></g><g style="opacity:.2;"><path d="M68.72,183.1l3.04,1.76-.27.16c-.95.55-1.94,1.02-2.97,1.42-1.04.4-2.11.82-3.21,1.25,1.26.21,2.5.42,3.72.62,1.22.21,2.44.49,3.68.84l.27.08-1.89,2.19-.37-.1c-1.24-.32-2.36-.72-3.36-1.18-1-.46-2.01-.95-3.02-1.45.11.79.2,1.55.25,2.27.06.72-.03,1.47-.25,2.25l-.07.23-4.19-.43.07-.2c.27-.78.61-1.52,1.01-2.2.41-.69.83-1.4,1.28-2.13-1.26.26-2.49.51-3.68.74-1.19.23-2.47.43-3.82.59l-.34.04-.74-2.42.41-.04c1.35-.13,2.65-.18,3.9-.15,1.25.03,2.56.08,3.94.15-.88-.59-1.72-1.17-2.52-1.75-.8-.58-1.48-1.23-2.04-1.94l-.17-.21,3.79-1.09.14.16c.61.72,1.09,1.42,1.45,2.13.36.7.72,1.42,1.08,2.15.74-.64,1.46-1.26,2.16-1.85.7-.6,1.52-1.17,2.47-1.72l.27-.16Z" style="fill:#666; stroke-width:0px;"/></g><g style="opacity:.2;"><path d="M53.51,174.27l3.04,1.76-.27.16c-.95.55-1.94,1.02-2.97,1.42-1.04.4-2.11.82-3.21,1.25,1.26.21,2.5.42,3.72.62,1.22.21,2.44.49,3.68.84l.27.08-1.89,2.19-.37-.1c-1.24-.32-2.36-.72-3.36-1.18-1-.46-2.01-.95-3.02-1.45.11.79.2,1.55.25,2.27.06.72-.03,1.47-.25,2.25l-.07.23-4.19-.43.07-.2c.27-.78.61-1.52,1.01-2.2.41-.69.83-1.4,1.28-2.13-1.26.26-2.49.51-3.68.74-1.19.23-2.47.43-3.82.59l-.34.04-.74-2.42.41-.04c1.35-.13,2.65-.18,3.9-.15,1.25.03,2.56.08,3.94.15-.88-.59-1.72-1.17-2.52-1.75-.8-.58-1.48-1.23-2.04-1.94l-.17-.21,3.79-1.09.14.16c.61.72,1.09,1.42,1.45,2.13.36.7.72,1.42,1.08,2.15.74-.64,1.46-1.26,2.16-1.85.7-.6,1.52-1.17,2.47-1.72l.27-.16Z" style="fill:#666; stroke-width:0px;"/></g><path d="M150.57,84.57c-10.03-10.1-29.65-12.66-43.85-5.73-.09.04-.17.09-.26.13-8.77,4.37-13.32,11.39-13.02,18.5-2.19,2.75-5.97,6.65-11.36,9.33-.08.04-.16.08-.24.12-9.28,4.53-43.94,21.46-45.77,22.35-.04.23-.9,4.65-.98,7.2l-.42.21c-.32.16.92,1.68,1.23,1.97.4.27,1.22.26,3.2,1.12.45.19.95.43,1.52.73l.79-.39c2.86.37,5.63.56,5.77.57l5.11.48.86-3.39,7.62.59.5-4.55,5.54.38,1.11-3.61,10.02.34.03-5.18,8.1,1.42c1.03.17,2.26.14,3.12-.28l7.31-3.58c.82-.41,1.15-1.24,1.33-1.95.25-1.15.59-3.11,1.54-3.75.06-.04.14-.09.22-.13,1.61-.8,6.78-1.03,12.48-.24-1.06-.34-2.11-.73-3.12-1.16-3.04-1.28-5.81-2.94-8.18-4.96-.37-.32-.72-.66-1.08-1,.35.34.7.68,1.08,1,2.36,2.01,5.14,3.67,8.18,4.96,1.01.43,2.05.81,3.12,1.16,9.79,3.16,21.56,2.73,30.96-1.85.09-.04.17-.09.26-.13,13.96-6.96,17.23-20.65,7.28-30.68ZM94.31,102.03c.52,1.51,1.26,2.99,2.24,4.43-.98-1.44-1.73-2.93-2.24-4.43ZM140.48,97.74s-.05.03-.08.04c-4.32,2.11-10.3,1.32-13.34-1.74-3.04-3.04-2.04-7.22,2.22-9.34.03-.01.05-.03.08-.04,4.32-2.11,10.3-1.32,13.34,1.74,3.02,3.04,2.03,7.21-2.22,9.33Z" style="fill:#666; opacity:.2; stroke-width:0px;"/><path d="M150.96,84.89c.1-4.26-1.65-8.59-5.41-12.37-9.42-9.49-27.85-11.89-41.18-5.39-.08.04-.16.08-.24.12-8.22,4.1-12.49,10.67-12.23,17.33h0c-.01-.28-.02-.56-.01-.83l-.02.92c-2.06,2.58-5.6,6.22-10.64,8.73-.08.04-.15.08-.23.11-8.71,4.26-41.28,20.16-42.99,21-.04.22-.84,4.37-.92,6.76l-.39.19s-.05.06-.05.11c0,0,0,0,0-.01l-.18,7.09c0,.36.95,1.52,1.21,1.76.04.03.09.05.15.08v.1c.08.08.53.29.6.32.13.05.24.1.39.14,0,0,9.32,1.25,9.46,1.26l4.8.45.81-3.19,7.15.56.47-4.27,5.2.35,1.04-3.39,9.41.32.09-4.85,7.54,1.32c.23.04.47.06.71.08,0,0,.02,0,.02,0,.04,0,.09,0,.13,0,.16,0,.32.01.48,0,.04,0,.07,0,.1,0,.06,0,.12-.01.19-.02.09,0,.18-.01.26-.02.09-.01.17-.03.25-.05.06-.01.11-.02.17-.03.03,0,.06-.01.09-.02.18-.05.36-.11.52-.19l6.87-3.36s.03-.02.05-.03c.16-.09.3-.19.43-.31,0,0,0,0,0-.01.16-.16.29-.34.4-.53,0-.01.02-.02.02-.03.02-.04.03-.07.04-.11.1-.2.18-.41.24-.62,0-.02.02-.05.03-.07.01-.04.02-.09.04-.13.03-.15.07-.34.11-.51.02-.08.04-.17.06-.25.05-.23.11-.48.18-.72.01-.05.03-.1.05-.16.04-.14.09-.29.14-.43.02-.06.05-.13.07-.19.05-.14.11-.26.17-.39.02-.05.05-.1.07-.15.11-.2.24-.37.38-.51.07-.07.14-.15.23-.2.06-.04.13-.08.2-.12.19-.09.42-.18.7-.25.02,0,.05-.01.07-.02.26-.07.55-.12.87-.18.04,0,.07-.01.11-.02.35-.05.74-.1,1.15-.13.1,0,.22-.01.32-.02.31-.02.63-.04.97-.05.37-.01.76-.01,1.16-.01.19,0,.38,0,.58,0,.6,0,5.02,1.42,5.69,1.51h.01s.06.02.09.03c.24.07.48.14.72.21,1.6.45,3.25.81,4.93,1.07,1.43.22,2.87.37,4.33.45,1.38.08,2.77.09,4.16.04,1.42-.05,2.84-.18,4.24-.37,1.59-.22,3.17-.53,4.71-.93,2.07-.54,4.08-1.24,5.99-2.12.08-.04.16-.08.24-.11.26-.12.52-.25.78-.38,2.25-1.13,4.18-2.45,5.79-3.89,1.57-1.41,2.82-2.94,3.74-4.55.59-1.03,1.05-2.09,1.38-3.17.28-.94.46-1.89.53-2.85.02-.24.03-.47.03-.71l.18-9.31s0,.08,0,.12ZM125.38,84.4s.05-.02.08-.04c.58-.28,1.19-.51,1.82-.68.47-.13.95-.23,1.44-.3.43-.06.86-.1,1.29-.12.42-.02.85-.01,1.27.01.45.03.89.08,1.32.15.51.08,1.01.2,1.5.35.81.24,1.56.57,2.25.98-.09.05-.17.1-.26.14-.03.01-.05.02-.08.04-3.39,1.65-7.85,1.41-10.89-.38,0,0,.02-.01.03-.02.08-.04.16-.08.24-.12ZM124.5,75.15c.21-.15.44-.29.67-.42-.24.13-.46.27-.67.42ZM126.76,74.02c.2-.07.39-.13.59-.19-.2.06-.4.12-.59.19ZM127.59,73.77c.42-.11.85-.2,1.28-.27-.43.06-.86.16-1.28.27ZM128.89,73.5c.38-.05.76-.09,1.15-.11-.38.02-.77.05-1.15.11ZM137.43,75.48c.26.2.51.41.73.64-.23-.23-.47-.44-.73-.64ZM131.47,73.39c.39.02.78.07,1.16.13-.38-.06-.77-.11-1.16-.13ZM132.88,73.57c.44.08.88.18,1.3.3-.42-.12-.86-.22-1.3-.3ZM134.42,73.94c.27.09.53.18.79.28-.26-.1-.52-.2-.79-.28ZM135.45,74.32c.31.14.62.28.91.45-.29-.16-.6-.31-.91-.45ZM136.52,74.87c.24.14.47.29.69.45-.22-.16-.45-.31-.69-.45ZM121.84,79.27c.02-.27.07-.54.14-.8-.07.26-.12.53-.14.8ZM122.08,78.15c.02-.07.04-.14.07-.21-.03.07-.05.14-.07.21ZM122.33,77.54s.04-.1.07-.15c-.03.05-.05.1-.07.15ZM122.47,77.29c.11-.2.24-.39.38-.59-.14.19-.27.39-.38.59ZM123,76.51c.14-.18.3-.35.47-.51-.17.17-.32.34-.47.51ZM139.8,79.72c0-.06,0-.13,0-.19,0,.07,0,.13,0,.19ZM138.61,76.62c.04.05.08.11.12.16-.04-.05-.08-.11-.12-.16ZM138.99,77.15c.04.06.08.12.11.18-.04-.06-.07-.12-.11-.18ZM139.31,77.7c.03.06.06.11.08.16-.02-.06-.05-.11-.08-.16ZM139.6,78.41s0,.01,0,.02c0,0,0-.01,0-.02ZM139.73,78.96c.01.06.02.12.03.18,0-.06-.01-.12-.03-.18ZM131.36,73.39c-.34-.02-.69-.02-1.03,0,.34,0,.69,0,1.03,0ZM126.47,74.12c-.29.11-.57.23-.84.36.27-.13.56-.25.84-.36ZM124.3,75.28c-.26.19-.5.38-.71.59.22-.2.46-.4.71-.59ZM96.12,106.55c-.03.14-.06.28-.09.41.03-.13.06-.26.09-.41ZM39.8,123.94c-.24-.09-.46-.16-.64-.21.19.06.41.13.64.21ZM38.04,123.4s-.02,0-.02,0c0,0,.02,0,.02,0ZM36.7,121.75s-.03-.09-.04-.13c0,.04.02.08.04.13ZM37.01,122.28c-.04-.06-.08-.11-.11-.17.04.05.07.11.11.17ZM36.83,122c-.03-.05-.06-.1-.08-.15.03.05.05.1.08.15ZM37.1,122.41c.04.06.08.11.12.17-.04-.06-.08-.11-.12-.17ZM37.31,122.69c.04.05.09.11.13.16-.04-.05-.08-.1-.13-.16ZM37.53,122.95c.04.05.08.1.12.14-.04-.04-.08-.09-.12-.14ZM37.71,123.17s.08.09.11.12c-.03-.03-.07-.07-.11-.12ZM38.66,123.59c.11.03.23.06.37.1-.14-.04-.26-.07-.37-.1ZM39.98,124.01c.11.04.23.09.35.13-.12-.05-.24-.09-.35-.13ZM46.37,125.04s.08,0,.12.01c-.04,0-.08,0-.12-.01ZM46.8,125.08c.05,0,.1,0,.15.01-.05,0-.1,0-.15-.01ZM47.21,125.11s.1,0,.14.01c-.04,0-.09,0-.14-.01ZM47.95,125.17s.06,0,.09,0c-.03,0-.06,0-.09,0ZM48.18,125.19s.05,0,.07,0c-.02,0-.04,0-.07,0ZM48.33,125.2c.06,0,.1,0,.12,0-.01,0-.06,0-.12,0ZM61.2,123.03l.47-4.27h0l-.47,4.27ZM67.93,115.72l9.35.32h0s-9.35-.32-9.35-.32ZM86.41,112.58h0,0ZM87.04,112.5s.05,0,.08-.01h0s-.05,0-.08.01ZM87.28,112.46s.09-.03.14-.05c-.05.01-.09.04-.14.05h0ZM94.76,108.88l-2.26,1.1,2.26-1.1c.19-.09.35-.21.49-.35h0c-.14.13-.3.25-.49.35ZM95.65,108.01s.01-.03.02-.04c0,.01-.01.03-.02.04h0ZM95.95,107.25s0,0,0,0c.02-.07.04-.13.06-.2-.02.06-.04.13-.06.2ZM96.18,106.28c.05-.23.11-.48.18-.72-.07.24-.12.49-.18.72ZM96.41,105.4c.04-.14.09-.29.14-.42-.05.14-.09.28-.14.42ZM96.62,104.78c.05-.14.11-.26.17-.39,0,0,0,0,0,0-.06.12-.12.25-.17.39ZM150.93,85.5s0-.06,0-.08c0,.02,0,.04,0,.06,0,0,0,.01,0,.02Z" style="fill:#fff; stroke:#606060; stroke-linecap:round; stroke-linejoin:round; stroke-width:2px;"/><path d="M138.17,76.12c-1.02-1.02-2.38-1.78-3.9-2.23-.48-.15-.99-.26-1.5-.35-.44-.07-.88-.12-1.32-.15-.42-.02-.84-.03-1.27-.01-.43.02-.86.06-1.29.12-.49.07-.97.17-1.44.3-.63.17-1.24.4-1.82.68-.03.01-.05.02-.08.04-.08.04-.16.08-.24.12-.68.37-1.27.79-1.76,1.26-.48.46-.86.95-1.14,1.47-.18.33-.32.68-.42,1.03-.09.3-.14.61-.16.92,0,.08,0,.15-.01.23l-.18,9.88c0-.08,0-.15.01-.23.02-.31.08-.62.16-.92.1-.35.24-.69.42-1.03.28-.52.66-1.02,1.14-1.47.49-.47,1.08-.89,1.76-1.26.08-.04.16-.08.24-.12.02-.01.05-.02.08-.04.58-.28,1.19-.51,1.82-.68.47-.13.95-.23,1.44-.3.43-.06.86-.1,1.29-.12.42-.02.85-.01,1.27.01.45.03.89.08,1.32.15.51.08,1.01.2,1.5.35,1.52.46,2.89,1.21,3.9,2.23,1.13,1.14,1.66,2.45,1.64,3.74l.18-9.88c.02-1.29-.51-2.6-1.64-3.74Z" style="fill:#fff; stroke:#606060; stroke-linecap:round; stroke-linejoin:round; stroke-width:.5px;"/><path d="M138.17,76.12c-1.02-1.02-2.38-1.78-3.9-2.23-.48-.15-.99-.26-1.5-.35-.44-.07-.88-.12-1.32-.15-.42-.02-.84-.03-1.27-.01-.43.02-.86.06-1.29.12-.49.07-.97.17-1.44.3-.63.17-1.24.4-1.82.68-.03.01-.05.02-.08.04-.08.04-.16.08-.24.12-.68.37-1.27.79-1.76,1.26-.48.46-.86.95-1.14,1.47-.18.33-.32.68-.42,1.03-.09.3-.14.61-.16.92,0,.08,0,.15-.01.23l-.18,9.88c0-.08,0-.15.01-.23.02-.31.08-.62.16-.92.1-.35.24-.69.42-1.03.28-.52.66-1.02,1.14-1.47.49-.47,1.08-.89,1.76-1.26.08-.04.16-.08.24-.12.02-.01.05-.02.08-.04.58-.28,1.19-.51,1.82-.68.47-.13.95-.23,1.44-.3.43-.06.86-.1,1.29-.12.42-.02.85-.01,1.27.01.45.03.89.08,1.32.15.51.08,1.01.2,1.5.35,1.52.46,2.89,1.21,3.9,2.23,1.13,1.14,1.66,2.45,1.64,3.74l.18-9.88c.02-1.29-.51-2.6-1.64-3.74Z" style="fill:#666; opacity:.2; stroke-width:0px;"/><path d="M150.93,85.48c-.07.96-.25,1.91-.53,2.85-.32,1.08-.78,2.14-1.38,3.17-.93,1.61-2.18,3.14-3.74,4.55-1.6,1.44-3.54,2.76-5.79,3.89-.26.13-.52.26-.78.38-.08.04-.16.08-.24.11-1.91.88-3.91,1.58-5.99,2.12-1.54.4-3.11.71-4.71.93-1.4.19-2.82.32-4.24.37-1.39.05-2.78.04-4.16-.04-1.46-.08-2.9-.23-4.33-.45-1.68-.26-3.33-.62-4.93-1.07-.24-.07-.48-.14-.72-.21-4-1.22-7.65-3.03-10.61-5.41-.51-.41-1.01-.84-1.48-1.29-.96-.91-1.79-1.86-2.49-2.83-1.84-2.55-2.8-5.26-2.92-7.96-.01-.28-.02-.56-.01-.83l-.18,9.31c0,.28,0,.55.01.83.12,2.7,1.08,5.41,2.92,7.96.7.97,1.53,1.91,2.49,2.83.47.45.96.88,1.48,1.29,2.96,2.38,6.61,4.19,10.61,5.41.24.07.48.14.72.21,1.6.45,3.25.81,4.93,1.07,1.43.22,2.87.37,4.33.45,1.38.08,2.77.09,4.16.04,1.42-.05,2.84-.18,4.24-.37,1.59-.22,3.17-.53,4.71-.93,2.07-.54,4.08-1.24,5.99-2.12.08-.04.16-.08.24-.11.26-.12.52-.25.78-.38,2.25-1.13,4.18-2.45,5.79-3.89,1.57-1.41,2.82-2.94,3.74-4.55.59-1.03,1.05-2.09,1.38-3.17.28-.94.46-1.89.53-2.85.02-.24.03-.47.03-.71l.18-9.31c0,.24-.02.47-.03.71Z" style="fill:#e95420; stroke:#606060; stroke-linecap:round; stroke-linejoin:round; stroke-width:.5px;"/><path d="M99.13,110.07s.07-.01.11-.02c.35-.05.74-.1,1.15-.13.1,0,.22-.01.32-.02.31-.02.63-.04.97-.05.37-.01.76-.01,1.16-.01.19,0,.38,0,.58,0,.6,0,5.02,1.42,5.69,1.51l.29-8.15c-.67-.09-1.33-.17-1.98-.23-.19-.02-.36-.03-.55-.04-.46-.04-.91-.08-1.35-.11,0,0,0,0,0,0-.01,0-.02,0-.04,0-.65-.04-1.27-.06-1.87-.07-.21,0-.39,0-.59,0-.39,0-.78,0-1.15.01-.06,0-.14,0-.2,0-.27.01-.52.03-.77.05-.1,0-.22.01-.32.02-.39.03-.76.07-1.09.12-.02,0-.04,0-.06.01-.04,0-.07.01-.11.02-.32.05-.62.11-.87.18-.02,0-.05.01-.07.02-.01,0-.02,0-.03,0-.27.07-.49.15-.67.24-.01,0-.03.01-.04.02-.06.03-.11.06-.16.1-.06.04-.13.09-.19.15-.02.01-.02.04-.04.05-.14.14-.27.31-.38.51,0,0-.01.02-.02.03-.02.04-.03.08-.05.12-.06.12-.12.25-.17.39-.02.06-.05.13-.07.19-.05.14-.1.28-.14.43-.01.04-.02.07-.03.11,0,.02,0,.03-.01.05-.07.25-.13.49-.18.72-.02.09-.04.17-.06.25-.04.18-.07.34-.11.49,0,0,0,.01,0,.02-.02.06-.04.13-.06.2-.06.2-.14.41-.24.61-.02.05-.04.1-.07.14-.11.19-.23.37-.4.53-.14.13-.3.25-.49.35l-6.87,3.36c-.19.09-.4.16-.61.21-.05.01-.11.02-.16.03-.17.03-.34.06-.52.08-.06,0-.12.01-.18.02-.19.01-.39.01-.59,0-.04,0-.09,0-.13,0-.25-.01-.5-.04-.73-.08l-7.6-1.33-.09,4.86-9.35-.32-1.04,3.39-5.2-.35-.47,4.27-7.15-.56-.81,3.19-4.8-.45c-.09,0-1.13-.08-2.56-.21-.86-.08-1.85-.19-2.86-.32h0c-.54-.28-1.75-.14-2.17-.32-.33-.14-.61-.25-.88-.35-.06-.02-.12-.04-.18-.06-.24-.09-.46-.16-.65-.22,0,0-.01,0-.02,0-.04-.01-.06-.02-.1-.03-.14-.04-.27-.08-.39-.11-.12-.03-.22-.06-.31-.09-.03,0-.06-.02-.09-.03-.17-.05-.29-.1-.39-.16-.26-.24-1.22-1.4-1.21-1.76l-.18,7.09c0,.36.95,1.52,1.21,1.76.04.03.09.05.15.08v.1c.08.08.53.29.6.32.13.05.24.1.39.14,0,0,9.32,1.25,9.46,1.26l4.8.45.81-3.19,7.15.56.47-4.27,5.2.35,1.04-3.39,9.41.32.09-4.85,7.54,1.32c.23.04.47.06.71.08,0,0,.02,0,.02,0,.04,0,.09,0,.13,0,.16,0,.32.01.48,0,.04,0,.07,0,.1,0,.06,0,.12-.01.19-.02.09,0,.18-.01.26-.02.09-.01.17-.03.25-.05.06-.01.11-.02.17-.03.03,0,.06-.01.09-.02.18-.05.36-.11.52-.19l6.87-3.36s.03-.02.05-.03c.16-.09.3-.19.43-.31,0,0,0,0,0-.01.16-.16.29-.34.4-.53,0-.01.02-.02.02-.03.02-.04.02-.07.04-.11.1-.2.18-.41.24-.62,0-.02.02-.04.03-.07.01-.04.02-.09.04-.13.03-.15.07-.34.11-.51.02-.08.04-.17.06-.25.05-.23.11-.48.18-.72.01-.05.03-.1.05-.16.04-.14.09-.29.14-.43.02-.06.05-.13.07-.19.05-.14.11-.26.17-.39.02-.05.05-.1.07-.15.11-.2.24-.37.38-.51.07-.07.14-.15.23-.2.06-.04.13-.08.2-.12.19-.09.42-.18.7-.25.02,0,.05-.01.07-.02.26-.07.55-.12.87-.18Z" style="fill:#e95420; stroke:#606060; stroke-linecap:round; stroke-linejoin:round; stroke-width:.5px;"/><path d="M36.69,121.46l.39-.19,57.73-28.19c.7,1.03,1.53,2.03,2.49,3,.47.47.96.93,1.48,1.37l-55.76,27.23h0c-.54-.28-1.75-.14-2.17-.32-1.85-.81-2.62-.8-3-1.05-.29-.27-1.46-1.7-1.16-1.85Z" style="fill:#fff; stroke:#606060; stroke-linecap:round; stroke-linejoin:round; stroke-width:.5px;"/><path d="M36.69,121.46l.39-.19,57.73-28.19c.7,1.03,1.53,2.03,2.49,3,.47.47.96.93,1.48,1.37l-55.76,27.23h0c-.54-.28-1.75-.14-2.17-.32-1.85-.81-2.62-.8-3-1.05-.29-.27-1.46-1.7-1.16-1.85Z" style="fill:#666; opacity:.2; stroke-width:0px;"/><path d="M145.55,72.51c-9.42-9.49-27.85-11.89-41.18-5.39-.08.04-.16.08-.24.12-8.24,4.11-12.51,10.7-12.23,17.38.12,2.87,1.08,5.75,2.92,8.45.7,1.03,1.53,2.03,2.49,3,.47.47.97.93,1.48,1.37,2.96,2.52,6.61,4.45,10.61,5.74,9.2,2.97,20.26,2.56,29.08-1.74.08-.04.16-.08.24-.12,13.12-6.54,16.19-19.39,6.83-28.81ZM136.08,84.88s-.05.02-.08.04c-4.06,1.98-9.67,1.24-12.53-1.63-2.85-2.86-1.92-6.78,2.08-8.77.02-.01.05-.02.08-.04,4.06-1.98,9.67-1.24,12.53,1.64,2.83,2.86,1.91,6.77-2.09,8.76Z" style="fill:#fff; stroke:#606060; stroke-linecap:round; stroke-linejoin:round; stroke-width:.5px;"/><path d="M91.89,84.63c.12,2.87,1.08,5.75,2.92,8.45l-57.73,28.19c.08-2.39.88-6.54.92-6.76,1.71-.84,34.28-16.74,42.99-21,.08-.04.15-.07.23-.11,5.06-2.52,8.61-6.19,10.67-8.77Z" style="fill:#fff; stroke:#606060; stroke-linecap:round; stroke-linejoin:round; stroke-width:.5px;"/><path d="M43.03,124.68l55.76-27.23c2.96,2.52,6.61,4.45,10.61,5.74-5.36-.74-10.21-.53-11.73.23-.08.04-.14.08-.2.12-.89.6-1.21,2.44-1.45,3.52-.17.67-.47,1.44-1.25,1.83l-6.87,3.36c-.81.39-1.96.42-2.93.26l-7.6-1.33-.03,4.86-9.41-.32-1.04,3.39-5.2-.35-.47,4.27-7.15-.56-.81,3.19-4.8-.45c-.14,0-2.74-.19-5.42-.53Z" style="fill:#fff; stroke:#606060; stroke-linecap:round; stroke-linejoin:round; stroke-width:.5px;"/><path d="M146.82,135.91s-1.84-1.23-1.86-1.25l-2.64.49s-.22,1.62-.23,1.65l-4.29-.2s.19-1.62.21-1.65l-2.48-.73s-2.13,1.05-2.17,1.07l-2.8-1.9s2.12-1.06,2.16-1.08l-.86-1.53s-2.79-.14-2.84-.14l.33-2.49c.05,0,2.8.12,2.85.13l1.26-1.43c-.09-.05-1.82-1.24-1.85-1.26l3.27-1.62s1.84,1.23,1.87,1.25l2.64-.49s.22-1.62.23-1.65l4.29.2s-.19,1.62-.21,1.65l2.48.73s2.13-1.05,2.17-1.07l2.8,1.9s-2.12,1.06-2.16,1.08l.86,1.53s2.79.14,2.84.14l-.33,2.49s-2.8-.12-2.85-.13l-1.26,1.43c.09.05,1.82,1.24,1.85,1.26l-3.27,1.62ZM140.54,132.16c2.11.1,3.96-.81,4.12-2.04.09-.68-.35-1.3-1.12-1.75-.62-.36-1.46-.6-2.41-.64-2.11-.1-3.95.81-4.12,2.04-.09.68.35,1.3,1.12,1.75.62.36,1.46.6,2.41.64h0Z" style="fill:#e95420; stroke-width:0px;"/></svg>