<svg width="231" height="229" viewBox="0 0 231 229" fill="none" xmlns="http://www.w3.org/2000/svg">
<path d="M155.92 0.625H142.132C125.373 0.625 111.799 14.1992 111.799 30.9585V197.792C111.799 210.305 101.561 220.543 89.0486 220.543H66.2985C53.786 220.543 43.5485 210.305 43.5485 197.792V159.876H35.9651V197.792C35.9651 214.552 49.5393 228.126 66.2985 228.126H89.0486C105.808 228.126 119.382 214.552 119.382 197.792V30.9585C119.382 18.4459 129.62 8.20836 142.132 8.20836H155.92C168.433 8.20836 178.67 18.4459 178.67 30.9585V75H186.254V30.9585C186.254 14.1992 172.679 0.625 155.92 0.625Z" fill="url(#paint0_linear_613_11455)"/>
<path d="M214.555 134.282V118.541C214.555 101.147 200.467 87.0581 183.073 87.0581C165.679 87.0581 151.59 101.147 151.59 118.541V134.282H135.928V179.459C135.928 205.353 155.84 227.863 181.735 228.65C182.207 228.65 182.679 228.65 183.151 228.65C209.203 228.65 230.375 207.478 230.375 181.427V134.203H214.634L214.555 134.282ZM159.461 118.541C159.461 105.554 170.086 94.9287 183.073 94.9287C196.059 94.9287 206.685 105.554 206.685 118.541V134.282H159.461V118.541ZM222.426 181.505C222.426 203.228 204.796 220.859 183.073 220.859H181.892C160.878 220.229 143.72 201.654 143.72 179.538V142.152H222.426V181.505Z" fill="url(#paint1_linear_613_11455)"/>
<path d="M190.943 165.764H175.202V181.506H190.943V165.764Z" fill="url(#paint2_linear_613_11455)"/>
<path d="M89.2985 27.012C89.2985 19.5468 89.5705 13.621 87.0554 8.55296C85.7978 6.01892 83.629 3.84979 80.847 2.60406C78.065 1.35833 74.7881 0.883544 70.7746 0.883544L18.9075 0.883542C14.894 0.883542 11.6171 1.35833 8.8351 2.60406C6.05312 3.84979 3.88425 6.01892 2.62668 8.55295C0.111556 13.621 0.383544 19.5468 0.383544 27.012L0.383543 49.4079C0.383542 56.8732 0.111539 62.7989 2.62668 67.867C3.88424 70.401 6.05312 72.5701 8.8351 73.8159C11.6171 75.0616 14.894 75.5364 18.9075 75.5364L30.0219 75.5364L30.0219 92.0125L35.8974 97.9322L28.4879 105.398L35.8974 112.863L20.7744 128.1L45.116 147.725L59.6602 133.072L59.6602 75.5364L70.7746 75.5364C74.7881 75.5364 78.065 75.0616 80.847 73.8159C83.6289 72.5701 85.7978 70.401 87.0554 67.867C89.5705 62.7989 89.2985 56.8732 89.2985 49.4079L89.2985 27.012ZM81.8889 27.012L81.8889 49.4079C81.8889 56.8732 81.617 62.1454 80.4273 64.5426C79.8325 65.7412 79.2227 66.3715 77.8368 66.9921C76.4509 67.6127 74.1706 68.0711 70.7746 68.0711L52.2506 68.0711L52.2506 129.98L44.5661 137.723L31.8598 127.487L46.375 112.863L38.9655 105.398L46.375 97.9322L37.4315 88.9214L37.4315 68.0711L18.9075 68.0711C15.5114 68.0711 13.2311 67.6127 11.8452 66.9921C10.4593 66.3715 9.84961 65.7412 9.25478 64.5426C8.06511 62.1454 7.79313 56.8732 7.79313 49.4079L7.79313 27.012C7.79313 19.5468 8.06512 14.2745 9.25478 11.8773C9.84962 10.6787 10.4593 10.0484 11.8452 9.42779C13.2311 8.8072 15.5114 8.34882 18.9075 8.34882L70.7746 8.34883C74.1706 8.34883 76.4509 8.8072 77.8368 9.42779C79.2227 10.0484 79.8325 10.6787 80.4273 11.8773C81.617 14.2745 81.8889 19.5468 81.8889 27.012Z" fill="url(#paint3_linear_613_11455)"/>
<path fill-rule="evenodd" clip-rule="evenodd" d="M44.8424 38.21C42.8773 38.21 40.9926 37.4235 39.603 36.0235C38.2135 34.6234 37.4328 32.7246 37.4328 30.7447C37.4328 28.7648 38.2135 26.866 39.603 25.466C40.9926 24.066 42.8773 23.2794 44.8424 23.2794C46.8076 23.2794 48.6922 24.066 50.0818 25.466C51.4714 26.866 52.252 28.7648 52.252 30.7447C52.252 32.7246 51.4714 34.6234 50.0818 36.0235C48.6922 37.4235 46.8076 38.21 44.8424 38.21Z" fill="url(#paint4_linear_613_11455)"/>
<defs>
<linearGradient id="paint0_linear_613_11455" x1="111.109" y1="0.625" x2="111.109" y2="228.126" gradientUnits="userSpaceOnUse">
<stop stop-color="#414141"/>
<stop offset="1" stop-color="#838383"/>
</linearGradient>
<linearGradient id="paint1_linear_613_11455" x1="153.011" y1="220.28" x2="227.507" y2="92.829" gradientUnits="userSpaceOnUse">
<stop offset="0.00022" stop-color="#E95420"/>
<stop offset="1" stop-color="#BB53AA"/>
</linearGradient>
<linearGradient id="paint2_linear_613_11455" x1="178.049" y1="180.575" x2="184.483" y2="164.073" gradientUnits="userSpaceOnUse">
<stop offset="0.00022" stop-color="#E95420"/>
<stop offset="1" stop-color="#BB53AA"/>
</linearGradient>
<linearGradient id="paint3_linear_613_11455" x1="5.63203" y1="27.4436" x2="107.36" y2="51.4644" gradientUnits="userSpaceOnUse">
<stop offset="0.00022" stop-color="#E95420"/>
<stop offset="1" stop-color="#BB53AA"/>
</linearGradient>
<linearGradient id="paint4_linear_613_11455" x1="5.63203" y1="27.4436" x2="107.36" y2="51.4644" gradientUnits="userSpaceOnUse">
<stop offset="0.00022" stop-color="#E95420"/>
<stop offset="1" stop-color="#BB53AA"/>
</linearGradient>
</defs>
</svg>
