<?xml version="1.0" encoding="UTF-8"?><svg xmlns="http://www.w3.org/2000/svg" viewBox="0 0 280 280"><g style="isolation:isolate;"><g id="a"><path d="M240.47,154.85s-2.06-1.37-2.08-1.4l-2.95.55s-.25,1.81-.26,1.84l-4.8-.22s.22-1.81.23-1.84l-2.77-.82s-2.39,1.17-2.43,1.19l-3.13-2.12s2.37-1.19,2.41-1.2l-.96-1.71c-.05,0-3.12-.15-3.18-.15l.37-2.78c.06,0,3.13.13,3.18.14l1.4-1.6c-.1-.06-2.03-1.39-2.07-1.41l3.65-1.81s2.06,1.37,2.08,1.4l2.95-.55s.25-1.81.26-1.84l4.8.22s-.22,1.81-.23,1.84l2.77.82s2.39-1.17,2.43-1.19l3.13,2.12s-2.37,1.19-2.41,1.2l.96,1.71c.05,0,3.12.15,3.18.15l-.37,2.78c-.06,0-3.13-.13-3.18-.14l-1.4,1.6c.1.06,2.03,1.39,2.07,1.41l-3.65,1.81ZM233.46,150.65c2.36.11,4.42-.91,4.6-2.28.1-.75-.39-1.46-1.25-1.95-.7-.4-1.64-.67-2.69-.72-2.36-.11-4.42.91-4.6,2.28-.1.75.39,1.46,1.25,1.95.7.4,1.64.67,2.69.72h0Z" style="fill:#e95420; stroke-width:0px;"/><g style="opacity:.35;"><polygon points="205.03 120.1 228.04 133.38 226.51 134.26 203.51 120.98 205.03 120.1" style="fill:#e95420; mix-blend-mode:multiply; stroke-width:0px;"/><polygon points="201.99 121.86 224.99 135.14 223.47 136.02 200.47 122.74 201.99 121.86" style="fill:#e95420; mix-blend-mode:multiply; stroke-width:0px;"/><polygon points="198.95 123.62 221.95 136.9 220.42 137.78 197.42 124.5 198.95 123.62" style="fill:#e95420; mix-blend-mode:multiply; stroke-width:0px;"/><polygon points="195.9 125.38 218.9 138.66 217.38 139.54 194.38 126.26 195.9 125.38" style="fill:#e95420; mix-blend-mode:multiply; stroke-width:0px;"/><polygon points="192.86 127.14 215.86 140.42 214.34 141.3 191.33 128.02 192.86 127.14" style="fill:#e95420; mix-blend-mode:multiply; stroke-width:0px;"/><polygon points="189.81 128.89 212.81 142.17 211.29 143.05 188.29 129.77 189.81 128.89" style="fill:#e95420; mix-blend-mode:multiply; stroke-width:0px;"/><polygon points="186.77 130.65 209.77 143.93 208.25 144.81 185.24 131.53 186.77 130.65" style="fill:#e95420; mix-blend-mode:multiply; stroke-width:0px;"/></g><polygon points="43.44 219.94 40.38 218.17 39.72 218.56 42.78 220.32 39.72 222.09 40.38 222.47 43.44 220.71 46.5 222.47 47.17 222.09 44.11 220.32 47.17 218.56 46.5 218.17 43.44 219.94" style="fill:#e95420; fill-rule:evenodd; stroke-width:0px;"/><polygon points="27.08 204.09 24.02 202.32 23.36 202.7 26.42 204.47 23.36 206.24 24.02 206.62 27.08 204.85 30.14 206.62 30.81 206.24 27.75 204.47 30.81 202.7 30.14 202.32 27.08 204.09" style="fill:#e95420; fill-rule:evenodd; stroke-width:0px;"/><polygon points="259.75 208.21 256.69 206.44 256.03 206.83 259.09 208.59 256.03 210.36 256.69 210.74 259.75 208.98 262.81 210.74 263.48 210.36 260.42 208.59 263.48 206.83 262.81 206.44 259.75 208.21" style="fill:#e95420; fill-rule:evenodd; stroke-width:0px;"/><polygon points="35.81 174 32.75 172.23 32.09 172.62 35.15 174.38 32.09 176.15 32.75 176.53 35.81 174.77 38.87 176.53 39.53 176.15 36.48 174.38 39.53 172.62 38.87 172.23 35.81 174" style="fill:#e95420; fill-rule:evenodd; stroke-width:0px;"/><g style="opacity:.2;"><polygon points="167.03 139.36 167.03 172.28 167.88 171.8 167.88 138.87 167.03 139.36" style="fill:#666; stroke-width:0px;"/><polygon points="161.66 142.46 161.66 175.39 162.5 174.9 162.5 141.97 161.66 142.46" style="fill:#666; stroke-width:0px;"/><polygon points="156.28 145.56 156.28 178.49 157.13 178 157.13 145.08 156.28 145.56" style="fill:#666; stroke-width:0px;"/><polygon points="150.91 148.67 150.91 181.59 151.75 181.11 151.75 148.18 150.91 148.67" style="fill:#666; stroke-width:0px;"/><polygon points="145.54 151.77 145.54 184.69 146.38 184.21 146.38 151.28 145.54 151.77" style="fill:#666; stroke-width:0px;"/><polygon points="140.49 154.68 140.49 187.6 141.34 187.12 141.34 154.19 140.49 154.68" style="fill:#666; stroke-width:0px;"/><polygon points="135.12 157.78 135.12 190.71 135.96 190.22 135.96 157.29 135.12 157.78" style="fill:#666; stroke-width:0px;"/><polygon points="129.74 160.89 129.74 193.81 130.59 193.32 130.59 160.4 129.74 160.89" style="fill:#666; stroke-width:0px;"/><polygon points="124.37 163.99 124.37 196.91 125.21 196.42 125.21 163.5 124.37 163.99" style="fill:#666; stroke-width:0px;"/><path d="M249.07,244.48c-.87.8-.71,1.86.49,2.55,1.39.81,3.65.81,5.05,0,1.39-.8,1.39-2.11,0-2.92-1.3-.75-3.33-.79-4.73-.15l-103.5-59.75-.84.49,103.53,59.77ZM250.23,244.51c1.03-.59,2.69-.59,3.71,0,1.02.59,1.02,1.55,0,2.15-1.02.59-2.69.59-3.71,0-1.02-.59-1.02-1.55,0-2.15Z" style="fill:#666; stroke-width:0px;"/><path d="M212.94,210.24l-55.81-32.23-.84.49,55.81,32.22.84.49.84-.49,29.86-17.24c1.39.55,3.3.47,4.53-.24,1.39-.8,1.39-2.11,0-2.91-1.39-.8-3.65-.8-5.05,0-1.27.73-1.37,1.87-.33,2.68l-29.85,17.24ZM243.79,192.86c-1.02-.59-1.02-1.55,0-2.14,1.03-.59,2.69-.59,3.71,0,1.03.59,1.03,1.55,0,2.14-1.03.59-2.69.59-3.71,0Z" style="fill:#666; stroke-width:0px;"/><path d="M193.56,235.9l-.84.49.84.49,17.06,9.85c-.89.8-.73,1.87.48,2.57,1.39.81,3.65.81,5.05,0,1.39-.8,1.39-2.11,0-2.91-1.29-.74-3.31-.79-4.71-.16l-17.03-9.83,15.28-8.82.84-.49-.84-.49-68.35-39.47-.85.49,68.35,39.46-15.28,8.82ZM211.77,246.76c1.02-.59,2.69-.59,3.71,0,1.03.59,1.03,1.55,0,2.14-1.03.59-2.69.59-3.71,0-1.03-.59-1.03-1.55,0-2.14Z" style="fill:#666; stroke-width:0px;"/><path d="M155.96,214.19l-30.75-17.76-.84.49,30.75,17.76-15.49,8.94c-1.4-.6-3.38-.54-4.65.19-1.39.8-1.39,2.11,0,2.91,1.39.8,3.65.8,5.05,0,1.23-.71,1.37-1.81.43-2.61l16.34-9.44-.69-.39-.16-.09ZM139.36,224.2c1.03.59,1.03,1.55,0,2.14-1.03.59-2.69.59-3.71,0-1.02-.59-1.02-1.55,0-2.14,1.03-.59,2.69-.59,3.71,0Z" style="fill:#666; stroke-width:0px;"/><path d="M120.76,249.41c1.39.8,3.65.8,5.05,0,1.23-.71,1.37-1.81.43-2.61l47.63-27.5.84-.49-.84-.49-43.28-24.99-.84.49,43.28,24.99-47.62,27.49c-1.4-.6-3.38-.54-4.65.19-1.39.8-1.39,2.11,0,2.92ZM121.42,246.88c1.03-.59,2.69-.59,3.71,0,1.02.59,1.02,1.55,0,2.14-1.03.59-2.69.59-3.71,0-1.02-.59-1.02-1.55,0-2.14Z" style="fill:#666; stroke-width:0px;"/><path d="M156.56,243.38c1.39.81,3.65.81,5.05,0,1.28-.74,1.37-1.89.3-2.7l29.86-17.25.84-.49-.84-.49-55.81-32.23-.84.49,55.81,32.23-29.89,17.26c-1.39-.52-3.26-.44-4.48.27-1.39.8-1.39,2.11,0,2.91ZM157.23,240.85c1.03-.59,2.69-.59,3.71,0,1.03.59,1.03,1.55,0,2.14-1.03.59-2.69.59-3.71,0-1.02-.59-1.02-1.55,0-2.14Z" style="fill:#666; stroke-width:0px;"/><path d="M253.62,224.89c1.39.81,3.65.81,5.05,0,1.39-.8,1.39-2.11,0-2.91-1.2-.69-3.03-.78-4.41-.29l-17.2-9.93-.85-.49-.84.49-15.28,8.82-68.35-39.46-.84.49,68.35,39.46.84.49.84-.49,15.28-8.82,17.16,9.9c-1.12.81-1.05,1.99.25,2.74ZM254.29,222.36c1.03-.59,2.69-.59,3.71,0,1.03.59,1.03,1.55,0,2.14-1.02.59-2.69.59-3.71,0-1.02-.59-1.02-1.55,0-2.14Z" style="fill:#666; stroke-width:0px;"/><path d="M258.69,169.86c-1.39-.8-3.65-.8-5.05,0-1.24.72-1.37,1.83-.39,2.64l-47.46,27.4-43.29-24.99-.84.49,43.29,24.99.84.49.84-.49,47.46-27.4c1.39.58,3.35.51,4.6-.21,1.39-.8,1.39-2.11,0-2.91ZM258.02,172.39c-1.02.59-2.69.59-3.71,0-1.02-.59-1.02-1.55,0-2.14,1.02-.59,2.69-.59,3.71,0,1.03.59,1.03,1.55,0,2.14Z" style="fill:#666; stroke-width:0px;"/><path d="M219.51,177.83c-1.39-.8-3.65-.8-5.05,0-1.3.75-1.37,1.93-.25,2.73l-15.59,9-30.75-17.76-.85.49,30.75,17.76.16.09.68.4,16.47-9.51c1.38.5,3.22.41,4.42-.28,1.39-.8,1.39-2.11,0-2.91ZM218.85,180.36c-1.02.59-2.69.59-3.71,0-1.02-.59-1.02-1.55,0-2.14,1.02-.59,2.69-.59,3.71,0,1.03.59,1.03,1.55,0,2.14Z" style="fill:#666; stroke-width:0px;"/></g><ellipse cx="72.67" cy="240.01" rx="18.94" ry="10.94" style="fill:#666; opacity:.2; stroke-width:0px;"/><path d="M86.23,234.46c.82-.41,1.68-.84,1.71-.86v-2.96s-4.09-2.78-4.09-2.78c-.06.03-3.14,1.53-3.18,1.56l-3.32-.98v-2.5s-6.27-.29-6.27-.29c0,.04-.34,2.37-.33,2.41h0s0,0,0,0l-3.86.72s-2.68-1.8-2.73-1.83l-4.78,2.37v2.96s.51.36,1.08.74l-.21.24c-.07-.01-4.09-.18-4.16-.18l-.48,3.63v2.96c.06,0,3.2.16,3.98.2-.82.41-1.68.84-1.71.86v2.96s4.09,2.78,4.09,2.78c.06-.03,3.14-1.53,3.18-1.56l3.32.98v2.5s6.27.29,6.27.29c0-.04.33-2.3.33-2.4h0s3.86-.73,3.86-.73c.03.04,2.68,1.8,2.73,1.83l4.78-2.37v-2.96s-.51-.36-1.08-.74l.21-.24c.07.01,4.09.18,4.16.18l.48-3.64v-2.96c-.06,0-3.2-.16-3.98-.2ZM75.08,243.31s0,.01,0,.02c0-.01,0-.02,0-.02h0ZM72.49,238.92c-1.38-.06-2.61-.41-3.52-.94-.43-.25-.8-.54-1.07-.86,1.63-1.88,6.23-2.35,8.96-.78.42.24.77.53,1.05.83-1,1.13-3.1,1.85-5.42,1.74ZM78.52,235.55s0,.05,0,.08c0-.03,0-.05,0-.08ZM77.8,234.1s-.04-.04-.06-.06c.02.02.04.04.06.06ZM78.5,235.45s0-.05,0-.07c0,.02,0,.05,0,.07ZM78.47,235.27s0-.04-.01-.06c0,.02,0,.04.01.06ZM78.42,235.07s0-.02,0-.02c0,0,0,.02,0,.02ZM78.34,234.88s-.02-.04-.03-.06c0,.02.02.04.03.06ZM78.26,234.72s-.03-.04-.04-.06c.01.02.03.04.04.06ZM78.17,234.56s-.03-.04-.05-.07c.02.02.03.04.05.07ZM78.06,234.4s-.03-.04-.05-.07c.02.02.03.04.05.07ZM77.94,234.25s-.04-.04-.06-.07c.02.02.04.04.06.07ZM77.66,233.96s-.04-.04-.07-.06c.02.02.05.04.07.06ZM77.49,233.82s-.05-.04-.07-.06c.02.02.05.04.07.06ZM77.32,233.69s-.05-.04-.07-.05c.02.02.05.04.07.05ZM77.13,233.55s-.04-.03-.07-.04c.02.01.04.03.07.04ZM72.78,232.44s-.02,0-.02,0c0,0,.02,0,.02,0ZM72.43,232.45c-1.9.11-3.67.78-4.55,1.79.85-1,2.57-1.7,4.55-1.79ZM67.32,235.43s0,0,0,0c0,.07-.01.15-.02.23,0-.07,0-.15.02-.22ZM67.87,234.26c-.08.09-.15.19-.21.28.06-.1.13-.19.21-.28ZM67.55,234.74s-.03.06-.04.08c.01-.03.03-.06.04-.08ZM67.41,235.05s-.02.04-.02.07c0-.02.02-.04.02-.07ZM75.07,243.42c-.06.47-.32,2.25-.32,2.29,0-.04.26-1.81.32-2.29ZM75.08,243.34s0,.04,0,.06c0-.03,0-.05,0-.06Z" style="fill:#fff; stroke:#606060; stroke-linecap:round; stroke-linejoin:round; stroke-width:2px;"/><polygon points="70.75 228.07 70.74 231.03 70.74 231.02 70.75 228.07 70.75 228.07 70.75 228.07" style="fill:#fff; stroke:#606060; stroke-linecap:round; stroke-linejoin:round; stroke-width:.5px;"/><path d="M77.36,225.95v2.96s-.29,2.37-.31,2.41v-2.96s.31-2.37.31-2.41h0Z" style="fill:#fff; stroke:#606060; stroke-linecap:round; stroke-linejoin:round; stroke-width:.5px;"/><path d="M62.09,231.17v2.96c-.14-.07-2.67-1.81-2.71-1.84v-2.96c.05.03,2.59,1.77,2.71,1.84h0Z" style="fill:#fff; stroke:#606060; stroke-linecap:round; stroke-linejoin:round; stroke-width:.5px;"/><path d="M87.95,230.65v2.96c-.06.03-3.1,1.55-3.17,1.57v-2.96c.07-.02,3.11-1.55,3.17-1.57h0Z" style="fill:#fff; stroke:#606060; stroke-linecap:round; stroke-linejoin:round; stroke-width:.5px;"/><path d="M76.86,233.39c-3.59-2.07-9.55-.52-9.56,2.29v2.96c0-3.06,6.19-4.23,9.55-2.29,1.03.6,1.66,1.42,1.66,2.31v-2.96c.01-.89-.62-1.71-1.65-2.31Z" style="fill:#fff; stroke:#606060; stroke-linecap:round; stroke-linejoin:round; stroke-width:.5px;"/><path d="M59.77,236.91v2.96c-.08,0-4.09-.2-4.17-.2v-2.96c.08,0,4.1.21,4.17.2h0Z" style="fill:#fff; stroke:#606060; stroke-linecap:round; stroke-linejoin:round; stroke-width:.5px;"/><polygon points="90.21 234.66 90.21 237.61 89.73 241.25 89.73 238.29 90.21 234.66" style="fill:#fff; stroke:#606060; stroke-linecap:round; stroke-linejoin:round; stroke-width:.5px;"/><path d="M89.73,238.29v2.96c-.08,0-4.1-.17-4.17-.18v-2.96c.07.01,4.1.18,4.17.18h0Z" style="fill:#fff; stroke:#606060; stroke-linecap:round; stroke-linejoin:round; stroke-width:.5px;"/><polygon points="61.03 239.15 61.03 242.11 59.76 239.87 59.77 236.91 61.03 239.15" style="fill:#fff; stroke:#606060; stroke-linecap:round; stroke-linejoin:round; stroke-width:.5px;"/><polygon points="85.57 238.11 85.56 241.07 83.73 243.16 83.74 240.2 85.57 238.11" style="fill:#fff; stroke:#606060; stroke-linecap:round; stroke-linejoin:round; stroke-width:.5px;"/><polygon points="68.77 243.01 68.76 245.97 65.14 244.9 65.15 241.94 68.77 243.01" style="fill:#fff; stroke:#606060; stroke-linecap:round; stroke-linejoin:round; stroke-width:.5px;"/><polygon points="78.94 242.58 78.93 245.53 75.07 246.26 75.08 243.3 78.94 242.58" style="fill:#fff; stroke:#606060; stroke-linecap:round; stroke-linejoin:round; stroke-width:.5px;"/><path d="M65.15,241.94v2.96s-3.13,1.53-3.18,1.56v-2.96c.06-.03,3.14-1.53,3.18-1.56h0Z" style="fill:#fff; stroke:#606060; stroke-linecap:round; stroke-linejoin:round; stroke-width:.5px;"/><polygon points="61.98 243.5 61.97 246.46 57.87 243.68 57.88 240.72 61.98 243.5" style="fill:#fff; stroke:#606060; stroke-linecap:round; stroke-linejoin:round; stroke-width:.5px;"/><polygon points="86.44 242.05 86.43 245 81.65 247.37 81.66 244.41 86.44 242.05" style="fill:#fff; stroke:#606060; stroke-linecap:round; stroke-linejoin:round; stroke-width:.5px;"/><path d="M81.66,244.41v2.96c-.06-.03-2.7-1.8-2.74-1.83v-2.96s2.69,1.8,2.74,1.83h0Z" style="fill:#fff; stroke:#606060; stroke-linecap:round; stroke-linejoin:round; stroke-width:.5px;"/><polygon points="74.74 245.71 74.74 248.67 68.46 248.38 68.47 245.42 74.74 245.71" style="fill:#fff; stroke:#606060; stroke-linecap:round; stroke-linejoin:round; stroke-width:.5px;"/><path d="M81.66,244.41s-2.69-1.8-2.73-1.83l-3.86.72s-.33,2.37-.33,2.41l-6.28-.29s.28-2.37.31-2.41l-3.62-1.07s-3.12,1.53-3.18,1.56l-4.1-2.78c.06-.03,3.1-1.55,3.16-1.57l-1.26-2.24c-.07,0-4.09-.2-4.16-.2l.48-3.64c.07,0,4.09.17,4.16.18l1.84-2.09c-.13-.07-2.66-1.81-2.7-1.84l4.78-2.37s2.69,1.8,2.73,1.83l3.86-.72s.33-2.37.33-2.41l6.28.29s-.28,2.37-.31,2.41l3.62,1.07s3.12-1.53,3.18-1.56l4.1,2.78c-.06.03-3.1,1.55-3.16,1.57l1.26,2.24c.07,0,4.09.2,4.16.2l-.48,3.64c-.07,0-4.09-.17-4.16-.18l-1.84,2.09c.13.07,2.66,1.81,2.7,1.84l-4.78,2.37ZM72.49,238.92c3.09.14,5.78-1.19,6.02-2.98.13-.99-.51-1.91-1.64-2.56-.91-.53-2.14-.88-3.52-.94-3.09-.14-5.78,1.19-6.02,2.98-.13.99.52,1.91,1.64,2.56.91.53,2.14.88,3.52.94h0Z" style="fill:#fff; stroke:#606060; stroke-linecap:round; stroke-linejoin:round; stroke-width:.5px;"/><path d="M75.08,243.3v2.96c0,.11-.34,2.36-.34,2.4v-2.96s.34-2.3.34-2.4h0Z" style="fill:#fff; stroke:#606060; stroke-linecap:round; stroke-linejoin:round; stroke-width:.5px;"/><path d="M148.7,253c1.19,0,2.28-.25,3.07-.71l110.35-63.65c.62-.36.97-.8.97-1.22,0-.47-.42-.98-1.14-1.4l-75.38-43.56c-.89-.51-2.12-.81-3.38-.81-1.19,0-2.28.25-3.07.71l-110.36,63.65c-.62.36-.97.8-.97,1.22,0,.47.42.98,1.14,1.4l75.38,43.56c.89.51,2.12.81,3.38.81Z" style="fill:#666; opacity:.2; stroke-width:0px;"/><path d="M252.27,176.18c0-.47-.42-.98-1.14-1.4l-75.38-43.56c-.89-.51-2.12-.81-3.38-.81-1.19,0-2.28.25-3.07.71l-101.75,58.69,98.72-57c2.02-1.17,3.73-4.06,3.73-6.32V39.1c0-1.5-.56-2.47-1.45-2.6l.04-.02-3.39-1.45c-.7-.24-1.56-.13-2.49.4l-104.91,59.91c-2.35,1.36-4.28,4.92-4.28,7.91l.03,87.4c0,1.37.52,2.3,1.35,2.69l2.83,1.32h0c.2.08.42.12.68.1.37-.03.79-.17,1.23-.41l-.69.4c-.51.3-.83.65-.93,1l-.05-.07v.29s0,0,0,0,0,0,0,0v3.6c-.08.86.45,1.75,1.62,2.42l74.43,43.56c2.09,1.21,5.4,1.25,7.41.1l109.41-63.8c1.45-.72,1.45-1.92,1.45-1.92v-3.78ZM59,197.31s.06.05.1.07l-.04.02-.06-.09Z" style="fill:#fff; stroke:#606060; stroke-linecap:round; stroke-linejoin:round; stroke-width:2px;"/><path d="M59.06,197.4l-1.09-1.71v3.9c-.08.86.45,1.75,1.62,2.42l74.43,43.56c.85.49,1.9.78,2.98.88v-94.01s-77.94,44.95-77.94,44.95Z" style="fill:#fff; stroke:#606060; stroke-linecap:round; stroke-linejoin:round; stroke-width:.5px;"/><path d="M141.42,245.68l109.41-63.8c1.45-.72,1.45-1.92,1.45-1.92v-3.78s-76.05-41.98-76.05-41.98c-2.09-1.21-5.4-1.25-7.4-.1l-31.83,18.36v94.01c1.58.15,3.24-.1,4.42-.78Z" style="fill:#e95420; stroke:#606060; stroke-miterlimit:10; stroke-width:.5px;"/><g id="b"><path d="M137.87,241.76c1.19,0,2.28-.25,3.07-.71l110.35-63.65c.62-.36.97-.8.97-1.22,0-.47-.42-.98-1.14-1.4l-75.38-43.56c-.89-.51-2.12-.81-3.38-.81-1.19,0-2.28.25-3.07.71l-110.36,63.65c-.62.36-.97.8-.97,1.22,0,.47.42.98,1.14,1.4l75.38,43.56c.89.51,2.12.81,3.38.81Z" style="fill:#fff; stroke:#606060; stroke-linecap:round; stroke-linejoin:round; stroke-width:.5px;"/><polygon points="78.28 191.92 166.29 141.16 162.71 139.09 74.71 189.85 78.28 191.92" style="fill:#e95420; stroke-width:0px;"/><polygon points="111.6 220.7 214.67 161.26 176.39 139.14 73.32 198.58 111.6 220.7" style="fill:#fff; stroke:#606060; stroke-linecap:round; stroke-linejoin:round; stroke-width:.5px;"/><path d="M135.34,195.53l48.02-27.68c.34-.2.98-.15,1.42.11l4,2.31c.44.25.52.62.18.82l-48.02,27.68c-.34.2-.97.15-1.41-.11l-4-2.31c-.44-.25-.52-.62-.18-.82Z" style="fill:#666; opacity:.2; stroke-width:0px;"/><path d="M116.81,205.9l3.7-2.13c.34-.19.98-.15,1.42.11l4,2.31c.44.25.52.62.18.82l-3.69,2.13c-.34.2-.98.15-1.42-.11l-4-2.31c-.44-.25-.52-.62-.19-.82Z" style="fill:#666; opacity:.2; stroke-width:0px;"/><path d="M110.66,209.44l3.69-2.13c.34-.19.98-.15,1.42.11l4,2.31c.44.25.52.62.18.82l-3.69,2.13c-.34.19-.98.15-1.42-.11l-4-2.31c-.44-.25-.52-.62-.18-.82Z" style="fill:#666; opacity:.2; stroke-width:0px;"/><path d="M104.5,213l3.69-2.13c.34-.2.98-.15,1.41.11l4,2.31c.44.25.52.62.18.82l-3.7,2.13c-.34.19-.97.14-1.41-.11l-4-2.31c-.44-.25-.52-.62-.18-.82Z" style="fill:#666; opacity:.2; stroke-width:0px;"/><path d="M185.21,157.54l3.69-2.13c.34-.19.89-.51,1.23-.71l3.69-2.13c.34-.19.98-.15,1.42.11l4,2.31c.44.25.52.62.18.82l-3.69,2.13c-.34.19-.9.51-1.23.71l-3.69,2.13c-.34.2-.98.15-1.41-.11l-4-2.31c-.44-.25-.52-.62-.18-.82Z" style="fill:#666; opacity:.2; stroke-width:0px;"/><path d="M179.05,161.09l3.69-2.13c.34-.2.98-.15,1.42.11l4,2.31c.44.25.52.62.18.82l-3.69,2.13c-.34.19-.98.15-1.41-.11l-4-2.31c-.44-.25-.52-.62-.18-.82Z" style="fill:#666; opacity:.2; stroke-width:0px;"/><path d="M179.68,151.5l1.23-.71c.34-.2.89-.51,1.23-.71l3.69-2.13c.34-.19.97-.15,1.41.11l4,2.31c.44.25.52.62.18.82l-3.69,2.13c-.34.19-.89.51-1.23.71l-1.23.71c-.34.2-.97.15-1.42-.11l-4-2.31c-.44-.25-.52-.62-.18-.82Z" style="fill:#666; opacity:.2; stroke-width:0px;"/><path d="M173.52,155.05l3.69-2.13c.34-.19.98-.15,1.42.11l4,2.31c.44.25.52.62.18.82l-3.69,2.13c-.34.19-.97.15-1.41-.11l-4-2.31c-.44-.25-.52-.62-.19-.82Z" style="fill:#666; opacity:.2; stroke-width:0px;"/><path d="M174.14,145.46l3.69-2.13c.34-.2.98-.15,1.42.11l4,2.31c.44.25.52.62.18.82l-3.7,2.13c-.34.19-.98.15-1.41-.11l-4-2.31c-.44-.25-.52-.62-.18-.82Z" style="fill:#666; opacity:.2; stroke-width:0px;"/><path d="M167.99,149.01l3.69-2.13c.34-.2.98-.15,1.42.11l4,2.31c.44.25.52.62.18.82l-3.69,2.13c-.34.2-.98.15-1.42-.11l-4-2.31c-.44-.25-.52-.62-.18-.82Z" style="fill:#666; opacity:.2; stroke-width:0px;"/><path d="M161.83,152.56l3.69-2.13c.34-.19.98-.15,1.42.11l4,2.31c.44.25.52.62.18.82l-3.69,2.13c-.34.2-.98.15-1.41-.11l-4-2.31c-.44-.25-.52-.62-.19-.82Z" style="fill:#666; opacity:.2; stroke-width:0px;"/><path d="M172.9,164.64l3.69-2.13c.34-.2.98-.15,1.42.11l4,2.31c.44.25.52.62.18.82l-3.69,2.13c-.34.2-.97.15-1.42-.11l-4-2.31c-.44-.25-.52-.62-.18-.82Z" style="fill:#666; opacity:.2; stroke-width:0px;"/><path d="M166.74,168.19l3.69-2.13c.34-.2.98-.15,1.42.11l4,2.31c.44.25.52.62.18.82l-3.7,2.13c-.34.2-.98.15-1.42-.11l-4-2.31c-.44-.25-.52-.62-.18-.82Z" style="fill:#666; opacity:.2; stroke-width:0px;"/><path d="M160.59,171.74l3.69-2.13c.34-.19.98-.15,1.41.11l4,2.31c.44.25.52.62.18.82l-3.69,2.13c-.34.2-.98.15-1.42-.11l-4-2.31c-.44-.25-.52-.62-.18-.82Z" style="fill:#666; opacity:.2; stroke-width:0px;"/><path d="M167.36,158.6l3.7-2.13c.34-.19.98-.15,1.42.11l4,2.31c.44.25.52.62.18.82l-3.69,2.13c-.34.2-.98.15-1.42-.11l-4-2.31c-.44-.25-.52-.62-.18-.82Z" style="fill:#666; opacity:.2; stroke-width:0px;"/><path d="M161.21,162.15l3.69-2.13c.34-.2.98-.15,1.42.11l4,2.31c.44.25.52.62.19.82l-3.7,2.13c-.34.2-.98.15-1.41-.11l-4-2.31c-.44-.25-.53-.62-.19-.82Z" style="fill:#666; opacity:.2; stroke-width:0px;"/><path d="M155.05,165.7l3.7-2.13c.34-.2.98-.15,1.41.11l4,2.31c.44.25.52.62.19.82l-3.69,2.13c-.34.2-.97.15-1.42-.11l-4-2.31c-.44-.25-.52-.62-.18-.82Z" style="fill:#666; opacity:.2; stroke-width:0px;"/><path d="M155.67,156.1l3.69-2.13c.34-.2.98-.15,1.42.11l4,2.31c.44.25.52.62.18.82l-3.69,2.13c-.34.19-.98.15-1.42-.11l-4-2.31c-.44-.25-.52-.62-.18-.82Z" style="fill:#666; opacity:.2; stroke-width:0px;"/><path d="M149.52,159.66l3.69-2.13c.34-.2.98-.15,1.42.11l4,2.31c.44.25.52.62.18.82l-3.69,2.13c-.34.19-.98.15-1.42-.11l-4-2.31c-.44-.25-.52-.62-.19-.82Z" style="fill:#666; opacity:.2; stroke-width:0px;"/><path d="M143.36,163.2l3.7-2.13c.34-.2.98-.15,1.42.11l4,2.31c.44.26.52.62.19.82l-3.69,2.13c-.34.2-.97.15-1.41-.11l-4-2.31c-.44-.25-.52-.62-.19-.82Z" style="fill:#666; opacity:.2; stroke-width:0px;"/><path d="M154.43,175.29l3.7-2.13c.34-.19.97-.15,1.41.11l4,2.31c.44.25.52.62.18.82l-3.69,2.13c-.34.19-.98.15-1.41-.11l-4-2.31c-.44-.25-.52-.62-.18-.82Z" style="fill:#666; opacity:.2; stroke-width:0px;"/><path d="M148.27,178.84l3.69-2.13c.34-.19.98-.14,1.42.11l4,2.31c.44.25.52.62.18.82l-3.69,2.13c-.34.2-.97.15-1.41-.11l-4-2.31c-.44-.25-.52-.62-.18-.82Z" style="fill:#666; opacity:.2; stroke-width:0px;"/><path d="M142.12,182.39l3.69-2.13c.34-.19.98-.15,1.42.11l4,2.31c.44.25.52.62.18.82l-3.69,2.13c-.34.19-.97.15-1.41-.11l-4-2.31c-.44-.25-.52-.62-.18-.82Z" style="fill:#666; opacity:.2; stroke-width:0px;"/><path d="M148.9,169.25l3.69-2.13c.34-.2.98-.15,1.42.11l4,2.31c.44.25.52.62.19.82l-3.7,2.13c-.34.19-.97.15-1.41-.11l-4-2.31c-.44-.25-.52-.62-.18-.82Z" style="fill:#666; opacity:.2; stroke-width:0px;"/><path d="M142.74,172.8l3.69-2.13c.34-.2.98-.15,1.42.11l4,2.31c.44.25.52.62.18.82l-3.69,2.13c-.34.2-.98.15-1.42-.11l-4-2.31c-.44-.25-.52-.62-.18-.82Z" style="fill:#666; opacity:.2; stroke-width:0px;"/><path d="M136.58,176.34l3.7-2.13c.34-.2.97-.15,1.41.11l4,2.31c.44.25.52.62.18.82l-3.7,2.13c-.34.2-.98.15-1.42-.11l-4-2.31c-.44-.25-.52-.62-.18-.82Z" style="fill:#666; opacity:.2; stroke-width:0px;"/><path d="M137.21,166.75l3.69-2.13c.34-.19.98-.15,1.42.11l4,2.31c.44.25.52.62.18.82l-3.69,2.13c-.34.19-.97.15-1.41-.11l-4-2.31c-.44-.25-.53-.62-.18-.82Z" style="fill:#666; opacity:.2; stroke-width:0px;"/><path d="M131.05,170.3l3.69-2.13c.34-.19.98-.15,1.42.11l4,2.31c.44.25.52.62.19.82l-3.69,2.13c-.34.19-.98.15-1.42-.11l-4-2.31c-.44-.25-.52-.62-.18-.82Z" style="fill:#666; opacity:.2; stroke-width:0px;"/><path d="M124.89,173.85l3.69-2.13c.34-.19.97-.15,1.41.11l4,2.31c.44.25.52.62.19.82l-3.69,2.13c-.34.2-.98.15-1.42-.11l-4-2.31c-.44-.25-.52-.62-.18-.82Z" style="fill:#666; opacity:.2; stroke-width:0px;"/><path d="M135.96,185.93l3.69-2.13c.34-.19.97-.15,1.42.11l4,2.31c.44.26.52.62.18.82l-3.69,2.13c-.34.2-.98.15-1.42-.11l-4-2.31c-.44-.25-.52-.62-.19-.82Z" style="fill:#666; opacity:.2; stroke-width:0px;"/><path d="M129.81,189.48l3.69-2.13c.34-.19.97-.15,1.41.11l4,2.31c.44.25.52.62.18.82l-3.69,2.13c-.34.2-.98.15-1.42-.11l-4-2.31c-.44-.25-.52-.62-.18-.82Z" style="fill:#666; opacity:.2; stroke-width:0px;"/><path d="M123.65,193.03l3.69-2.13c.34-.2.98-.15,1.42.11l4,2.31c.44.25.52.62.18.82l-3.69,2.13c-.34.2-.98.15-1.42-.11l-4-2.31c-.44-.26-.52-.62-.18-.82Z" style="fill:#666; opacity:.2; stroke-width:0px;"/><path d="M130.43,179.89l3.69-2.13c.34-.19.97-.15,1.41.11l4,2.31c.44.25.52.62.18.82l-3.7,2.13c-.34.2-.97.15-1.42-.11l-4-2.31c-.44-.26-.52-.62-.18-.82Z" style="fill:#666; opacity:.2; stroke-width:0px;"/><path d="M124.27,183.44l3.69-2.13c.34-.19.98-.15,1.42.11l4,2.31c.44.25.52.62.18.82l-3.69,2.13c-.34.2-.98.15-1.42-.11l-4-2.31c-.44-.26-.52-.62-.19-.82Z" style="fill:#666; opacity:.2; stroke-width:0px;"/><path d="M118.12,186.99l3.69-2.13c.34-.19.98-.15,1.42.11l4,2.31c.44.25.52.62.18.82l-3.69,2.13c-.34.2-.98.15-1.42-.11l-4-2.31c-.44-.25-.52-.62-.18-.82Z" style="fill:#666; opacity:.2; stroke-width:0px;"/><path d="M118.74,177.4l3.7-2.13c.34-.19.97-.15,1.41.11l4,2.31c.44.25.52.62.19.82l-3.7,2.13c-.34.19-.98.14-1.41-.11l-4-2.31c-.44-.25-.52-.62-.19-.82Z" style="fill:#666; opacity:.2; stroke-width:0px;"/><path d="M112.58,180.95l3.7-2.13c.34-.19.97-.15,1.41.11l4,2.31c.44.25.52.62.18.82l-3.69,2.13c-.34.2-.98.15-1.42-.11l-4-2.31c-.44-.26-.52-.62-.18-.82Z" style="fill:#666; opacity:.2; stroke-width:0px;"/><path d="M106.42,184.5l3.7-2.13c.34-.2.97-.15,1.41.11l4,2.31c.44.25.52.62.19.82l-3.7,2.13c-.34.2-.98.15-1.42-.11l-4-2.31c-.44-.25-.52-.62-.18-.82Z" style="fill:#666; opacity:.2; stroke-width:0px;"/><path d="M117.5,196.58l3.69-2.13c.34-.2.97-.15,1.41.11l4,2.31c.44.26.52.62.18.82l-3.69,2.13c-.34.2-.98.15-1.42-.11l-4-2.31c-.44-.25-.52-.62-.18-.82Z" style="fill:#666; opacity:.2; stroke-width:0px;"/><path d="M106.41,202.97l3.69-2.13c.34-.2.9-.52,1.23-.71l3.7-2.13c.34-.19.98-.15,1.41.11l4,2.31c.44.26.52.62.18.82l-3.69,2.13c-.34.19-.89.51-1.23.71l-3.69,2.13c-.34.2-.97.15-1.41-.11l-4-2.31c-.44-.25-.52-.62-.18-.82Z" style="fill:#666; opacity:.2; stroke-width:0px;"/><path d="M111.96,190.54l3.69-2.13c.34-.19.97-.15,1.41.11l4,2.31c.44.25.52.62.18.82l-3.69,2.13c-.34.2-.98.15-1.42-.11l-4-2.31c-.44-.26-.52-.62-.18-.82Z" style="fill:#666; opacity:.2; stroke-width:0px;"/><path d="M105.8,194.09l3.7-2.13c.34-.19.97-.15,1.41.11l4,2.31c.44.26.52.62.18.82l-3.69,2.13c-.34.19-.98.15-1.42-.11l-4-2.31c-.44-.25-.52-.62-.18-.82Z" style="fill:#666; opacity:.2; stroke-width:0px;"/><path d="M99.65,197.64l3.69-2.13c.34-.19.98-.15,1.42.11l4,2.31c.44.25.52.62.19.82l-3.7,2.13c-.34.2-.97.15-1.42-.11l-4-2.31c-.44-.25-.52-.62-.18-.82Z" style="fill:#666; opacity:.2; stroke-width:0px;"/><path d="M100.27,188.04l3.69-2.13c.34-.2.98-.15,1.42.11l4,2.31c.44.25.52.62.19.82l-3.69,2.13c-.34.19-.98.15-1.42-.11l-4-2.31c-.44-.25-.52-.62-.18-.82Z" style="fill:#666; opacity:.2; stroke-width:0px;"/><path d="M94.11,191.59l3.7-2.13c.34-.2.97-.15,1.42.11l4,2.31c.44.26.52.62.18.82l-3.69,2.13c-.34.2-.98.15-1.42-.11l-4-2.31c-.44-.25-.52-.62-.18-.82Z" style="fill:#666; opacity:.2; stroke-width:0px;"/><path d="M87.96,195.14l3.69-2.13c.34-.19.97-.15,1.42.11l4,2.31c.44.26.52.62.18.82l-3.69,2.13c-.34.2-.98.15-1.42-.11l-4-2.31c-.44-.25-.52-.62-.18-.82Z" style="fill:#666; opacity:.2; stroke-width:0px;"/><path d="M80.57,199.4l4.92-2.84c.34-.19.98-.15,1.42.11l4,2.31c.44.26.52.62.19.82l-4.93,2.84c-.34.2-.98.15-1.41-.11l-4-2.31c-.44-.26-.52-.62-.18-.82Z" style="fill:#666; opacity:.2; stroke-width:0px;"/><path d="M129.19,199.08l3.69-2.13c.34-.2.98-.15,1.42.11l4,2.31c.44.25.53.62.19.82l-3.69,2.13c-.34.2-.98.15-1.42-.11l-4-2.31c-.44-.26-.52-.62-.18-.82Z" style="fill:#666; opacity:.2; stroke-width:0px;"/><path d="M123.03,202.62l3.7-2.13c.34-.2.97-.15,1.41.11l4,2.31c.44.25.52.62.18.82l-3.69,2.13c-.34.19-.98.15-1.42-.11l-4-2.31c-.44-.25-.52-.62-.18-.82Z" style="fill:#666; opacity:.2; stroke-width:0px;"/><path d="M96.56,208.65l7.39-4.26c.34-.19.98-.15,1.42.11l4,2.31c.44.25.52.62.18.82l-7.39,4.26c-.34.2-.98.15-1.42-.11l-4-2.31c-.44-.25-.52-.62-.18-.82Z" style="fill:#666; opacity:.2; stroke-width:0px;"/><path d="M88.57,204.02l8.62-4.97c.34-.19.97-.15,1.42.11l4,2.31c.44.25.52.62.18.82l-8.62,4.97c-.34.2-.98.15-1.42-.11l-4-2.31c-.44-.25-.52-.62-.18-.82Z" style="fill:#666; opacity:.2; stroke-width:0px;"/><path d="M202.48,162.96c.23.14.61.14.84.01l4.37-2.5c.22-.13.22-.35-.02-.48l-1.66-.96c-.24-.14-.61-.14-.84-.01l-4.37,2.5c-.23.13-.22.35.02.48l1.65.96Z" style="fill:#666; opacity:.2; stroke-width:0px;"/><path d="M196.43,166.41c.23.14.61.14.84.02l4.37-2.5c.23-.13.22-.35-.02-.48l-1.65-.96c-.24-.14-.61-.14-.84-.01l-4.37,2.5c-.23.13-.22.35.02.48l1.65.96Z" style="fill:#666; opacity:.2; stroke-width:0px;"/><path d="M190.39,169.88c.24.14.62.14.84.01l4.37-2.5c.23-.13.22-.35-.02-.48l-1.65-.96c-.23-.14-.61-.15-.83-.01l-4.37,2.5c-.23.13-.22.35.02.48l1.65.96Z" style="fill:#666; opacity:.2; stroke-width:0px;"/><path d="M193.29,164.59c.24.14.61.14.84.01l4.37-2.5c.23-.13.22-.35-.02-.48l-1.65-.96c-.23-.14-.61-.14-.84-.01l-4.37,2.5c-.23.13-.22.35.01.48l1.65.96Z" style="fill:#666; opacity:.2; stroke-width:0px;"/><path d="M155.59,204.73c-1.67-.96-1.73-2.5-.13-3.42l25.59-14.76c1.6-.92,4.25-.89,5.92.08l16.76,9.69c1.67.97,1.73,2.49.13,3.42l-25.6,14.76c-1.6.92-4.24.89-5.92-.08l-16.76-9.69Z" style="fill:#666; opacity:.2; stroke-width:0px;"/></g><g id="c"><path d="M168.59,36.48l-3.39-1.45c-.7-.24-1.56-.13-2.49.4l-104.91,59.91c-2.35,1.36-4.28,4.92-4.28,7.91l.03,87.4c0,1.37.52,2.3,1.35,2.69l2.83,1.32-.15-.44c.06-.03.13-.06.19-.1l105.38-60.82c2.35-1.36,4.25-4.58,4.25-7.21V37.53c0-.14,0-.27-.02-.4l1.2-.65Z" style="fill:#fff; stroke:#606060; stroke-linecap:round; stroke-linejoin:round; stroke-width:.5px;"/><path d="M58.41,194.78c.39-.03.85-.19,1.31-.46l106.55-61.51c2.02-1.17,3.73-4.06,3.73-6.32V39.1c0-1.67-.7-2.7-1.77-2.62-.35.03-.72.16-1.13.39l-106.5,61.49c-2.03,1.17-3.75,4.39-3.75,7.02v87.38c0,.71.17,1.27.48,1.62.26.3.63.43,1.09.39h0Z" style="fill:#fff; stroke:#606060; stroke-linecap:round; stroke-linejoin:round; stroke-width:.5px;"/><path d="M113.42,69.69c-.63.36-1.13,1.3-1.13,2.1s.51,1.15,1.13.79c.62-.36,1.13-1.3,1.13-2.1s-.51-1.15-1.13-.79Z" style="fill:#fff; stroke:#606060; stroke-linecap:round; stroke-linejoin:round; stroke-width:.5px;"/><polyline points="61.82 104.4 61.82 188.29 165.01 128.71 165.01 44.83 61.82 104.4" style="fill:#fff; stroke:#606060; stroke-linecap:round; stroke-linejoin:round; stroke-width:.5px;"/></g><polygon points="106.89 85.18 68.5 107.6 68.5 105.42 106.89 83 106.89 85.18" style="fill:#e95420; stroke-width:0px;"/><polygon points="161.44 53.74 149.31 60.64 149.31 58.47 161.44 51.56 161.44 53.74" style="fill:#e95420; stroke-width:0px;"/><polygon points="90.84 100.71 68.79 113.58 68.79 111.4 90.84 98.53 90.84 100.71" style="fill:#666; opacity:.2; stroke-width:0px;"/><path d="M110.48,156.02l-39.81,23.07c-1.01.59-2.28-.14-2.28-1.31v-55.69c0-2,1.07-3.86,2.8-4.86l39.81-23.07c1.01-.59,2.28.14,2.28,1.31v55.69c0,2-1.07,3.86-2.8,4.86Z" style="fill:#e95420; stroke-width:0px;"/><path d="M158.71,127.84l-39.81,23.07c-1.01.59-2.28-.14-2.28-1.31v-55.69c0-2,1.07-3.86,2.8-4.86l39.81-23.07c1.01-.59,2.28.14,2.28,1.31v55.69c0,2-1.07,3.86-2.8,4.86Z" style="fill:#666; opacity:.2; stroke-width:0px;"/><polygon points="103.65 152.72 84.27 164.51 84.27 162.33 103.65 150.55 103.65 152.72" style="fill:#fff; stroke-width:0px;"/><path d="M104.29,135.75l-22.52,13c-1.69.97-3.05-.06-3.05-2.31h0c0-2.25,1.37-4.86,3.05-5.83l22.52-13c1.69-.97,3.05.06,3.05,2.31h0c0,2.25-1.37,4.86-3.05,5.83Z" style="fill:#fff; stroke-width:0px;"/><path d="M104.29,146.65l-22.52,13c-1.69.97-3.05-.06-3.05-2.31h0c0-2.25,1.37-4.86,3.05-5.83l22.52-13c1.69-.97,3.05.06,3.05,2.31h0c0,2.25-1.37,4.86-3.05,5.83Z" style="fill:#fff; stroke-width:0px;"/><polygon points="104.36 132.42 83.19 144.43 83.19 143.3 104.36 131.29 104.36 132.42" style="fill:#e95420; stroke-width:0px;"/><path d="M85.57,152.51l-.59,1.23h0s.93-.67.93-.67v.48l-.93.41h0s.59.53.59.53l-.39.48-.37-.78h-.01s-.4,1.24-.4,1.24l-.35-.05.59-1.21h0s-.91.65-.91.65v-.48l.91-.39h0s-.58-.55-.58-.55l.38-.47.38.77h.01s.38-1.22.38-1.22l.37.03Z" style="fill:#e95420; stroke-width:0px;"/><path d="M88.13,151.03l-.59,1.23h0s.93-.67.93-.67v.48l-.93.41h0s.59.53.59.53l-.39.48-.37-.78h-.01s-.4,1.24-.4,1.24l-.35-.05.59-1.21h0s-.91.65-.91.65v-.48l.91-.39h0s-.58-.55-.58-.55l.38-.47.38.77h.01s.38-1.22.38-1.22l.37.03Z" style="fill:#e95420; stroke-width:0px;"/><path d="M90.69,149.56l-.59,1.23h0s.93-.67.93-.67v.48l-.93.41h0s.59.53.59.53l-.39.48-.37-.78h-.01s-.4,1.24-.4,1.24l-.35-.05.59-1.21h0s-.91.65-.91.65v-.48l.91-.39h0s-.58-.55-.58-.55l.38-.47.38.77h.01s.38-1.22.38-1.22l.37.03Z" style="fill:#e95420; stroke-width:0px;"/><path d="M93.24,148.08l-.59,1.23h0s.93-.67.93-.67v.48l-.93.41h0s.59.53.59.53l-.39.48-.37-.78h-.01s-.4,1.24-.4,1.24l-.35-.05.59-1.21h0s-.91.65-.91.65v-.48l.91-.39h0s-.58-.55-.58-.55l.38-.47.38.77h.01s.38-1.22.38-1.22l.37.03Z" style="fill:#e95420; stroke-width:0px;"/><path d="M95.8,146.6l-.59,1.23h0s.93-.67.93-.67v.48l-.93.41h0s.59.53.59.53l-.39.48-.37-.78h-.01s-.4,1.24-.4,1.24l-.35-.05.59-1.21h0s-.91.65-.91.65v-.48l.91-.39h0s-.58-.55-.58-.55l.38-.47.38.77h.01s.38-1.22.38-1.22l.37.03Z" style="fill:#e95420; stroke-width:0px;"/><path d="M98.36,145.13l-.59,1.23h0s.93-.67.93-.67v.48l-.93.41h0s.59.53.59.53l-.39.48-.37-.78h-.01s-.4,1.24-.4,1.24l-.35-.05.59-1.21h0s-.91.65-.91.65v-.48l.91-.39h0s-.58-.55-.58-.55l.38-.47.38.77h.01s.38-1.22.38-1.22l.37.03Z" style="fill:#e95420; stroke-width:0px;"/><path d="M100.91,143.65l-.59,1.23h0s.93-.67.93-.67v.48l-.93.41h0s.59.53.59.53l-.39.48-.37-.78h-.01s-.4,1.24-.4,1.24l-.35-.05.59-1.21h0s-.91.65-.91.65v-.48l.91-.39h0s-.58-.55-.58-.55l.38-.47.38.77h.01s.38-1.22.38-1.22l.37.03Z" style="fill:#e95420; stroke-width:0px;"/><path d="M103.47,142.18l-.59,1.23h0s.93-.67.93-.67v.48l-.93.41h0s.59.53.59.53l-.39.48-.37-.78h-.01s-.4,1.24-.4,1.24l-.35-.05.59-1.21h0s-.91.65-.91.65v-.48l.91-.39h0s-.58-.55-.58-.55l.38-.47.38.77h.01s.38-1.22.38-1.22l.37.03Z" style="fill:#e95420; stroke-width:0px;"/><path d="M96.71,120.79c-.38.14-1.32.5-2.36.89,0,0,0,0,0,0-.14.05-.28.11-.42.16-.66.25-1.17.39-1.5.09.19-.72.32-1.4.41-2.02.15-.15.31-.3.45-.39.39-.26.54-1.47.45-2.18-.06-.46-.46-.35-.74-.21,0,0,.76-3.08.46-3.43s-.66-.18-.66-.18c0,0-.03-1.07-1.56-.19-1.53.88-3.71,2.14-3.96,4.1-.16,1.23.36,2.7.36,2.7h0s0,.06,0,.1c-.28.19-.69.55-.74,1.07-.09.81.06,1.85.45,1.66.14-.07.3-.1.45-.12.09.52.22,1.05.41,1.55-.34.69-.84,1.13-1.5,1.65-.14.11-.28.22-.42.32,0,0,0,0,0,0-1.04.8-1.97,1.53-2.36,1.83-.94.74-1.89,2.9-2.67,5-.77-1.2-1.21-2.83-1.21-4.83,0-6.43,4.52-14.25,10.09-17.47s10.09-.61,10.09,5.82c0,1.84-.37,3.79-1.03,5.71-.74-1.07-1.6-1.95-2.47-1.62Z" style="fill:#fff; stroke-width:0px;"/><polygon points="151.57 125.16 132.19 136.94 132.19 134.77 151.57 122.98 151.57 125.16" style="fill:#fff; stroke-width:0px;"/><path d="M152.21,108.19l-22.52,13c-1.69.97-3.05-.06-3.05-2.31h0c0-2.25,1.37-4.86,3.05-5.83l22.52-13c1.69-.97,3.05.06,3.05,2.31h0c0,2.25-1.37,4.86-3.05,5.83Z" style="fill:#fff; stroke-width:0px;"/><path d="M152.21,119.09l-22.52,13c-1.69.97-3.05-.06-3.05-2.31h0c0-2.25,1.37-4.86,3.05-5.83l22.52-13c1.69-.97,3.05.06,3.05,2.31h0c0,2.25-1.37,4.86-3.05,5.83Z" style="fill:#fff; stroke-width:0px;"/><ellipse cx="108.67" cy="101.1" rx="4.31" ry="2.49" transform="translate(-33.22 144.66) rotate(-60)" style="fill:#fff; stroke-width:0px;"/><ellipse cx="108.67" cy="101.1" rx="2.13" ry="1.23" transform="translate(-33.22 144.66) rotate(-60)" style="fill:#e95420; stroke-width:0px;"/><ellipse cx="157.14" cy="72.72" rx="4.31" ry="2.49" transform="translate(15.59 172.44) rotate(-60)" style="fill:#fff; stroke-width:0px;"/><ellipse cx="157.14" cy="72.72" rx="2.13" ry="1.23" transform="translate(15.59 172.44) rotate(-60)" style="fill:#e95420; stroke-width:0px;"/><polygon points="150.61 105.93 129.44 117.95 129.44 116.81 150.61 104.8 150.61 105.93" style="fill:#e95420; stroke-width:0px;"/><path d="M131.82,126.02l-.59,1.23h0s.93-.67.93-.67v.48l-.93.41h0s.59.53.59.53l-.39.48-.37-.78h-.01s-.4,1.24-.4,1.24l-.35-.05.59-1.21h0s-.91.65-.91.65v-.48l.91-.39h0s-.58-.55-.58-.55l.38-.47.38.77h.01s.38-1.22.38-1.22l.37.03Z" style="fill:#e95420; stroke-width:0px;"/><path d="M134.38,124.55l-.59,1.23h0s.93-.67.93-.67v.48l-.93.41h0s.59.53.59.53l-.39.48-.37-.78h-.01s-.4,1.24-.4,1.24l-.35-.05.59-1.21h0s-.91.65-.91.65v-.48l.91-.39h0s-.58-.55-.58-.55l.38-.47.38.77h.01s.38-1.22.38-1.22l.37.03Z" style="fill:#e95420; stroke-width:0px;"/><path d="M136.94,123.07l-.59,1.23h0s.93-.67.93-.67v.48l-.93.41h0s.59.53.59.53l-.39.48-.37-.78h-.01s-.4,1.24-.4,1.24l-.35-.05.59-1.21h0s-.91.65-.91.65v-.48l.91-.39h0s-.58-.55-.58-.55l.38-.47.38.77h.01s.38-1.22.38-1.22l.37.03Z" style="fill:#e95420; stroke-width:0px;"/><path d="M139.49,121.59l-.59,1.23h0s.93-.67.93-.67v.48l-.93.41h0s.59.53.59.53l-.39.48-.37-.78h-.01s-.4,1.24-.4,1.24l-.35-.05.59-1.21h0s-.91.65-.91.65v-.48l.91-.39h0s-.58-.55-.58-.55l.38-.47.38.77h.01s.38-1.22.38-1.22l.37.03Z" style="fill:#e95420; stroke-width:0px;"/><path d="M142.05,120.12l-.59,1.23h0s.93-.67.93-.67v.48l-.93.41h0s.59.53.59.53l-.39.48-.37-.78h-.01s-.4,1.24-.4,1.24l-.35-.05.59-1.21h0s-.91.65-.91.65v-.48l.91-.39h0s-.58-.55-.58-.55l.38-.47.38.77h.01s.38-1.22.38-1.22l.37.03Z" style="fill:#e95420; stroke-width:0px;"/><path d="M144.61,118.64l-.59,1.23h0s.93-.67.93-.67v.48l-.93.41h0s.59.53.59.53l-.39.48-.37-.78h-.01s-.4,1.24-.4,1.24l-.35-.05.59-1.21h0s-.91.65-.91.65v-.48l.91-.39h0s-.58-.55-.58-.55l.38-.47.38.77h.01s.38-1.22.38-1.22l.37.03Z" style="fill:#e95420; stroke-width:0px;"/><path d="M147.16,117.17l-.59,1.23h0s.93-.67.93-.67v.48l-.93.41h0s.59.53.59.53l-.39.48-.37-.78h-.01s-.4,1.24-.4,1.24l-.35-.05.59-1.21h0s-.91.65-.91.65v-.48l.91-.39h0s-.58-.55-.58-.55l.38-.47.38.77h.01s.38-1.22.38-1.22l.37.03Z" style="fill:#e95420; stroke-width:0px;"/><path d="M149.72,115.69l-.59,1.23h0s.93-.67.93-.67v.48l-.93.41h0s.59.53.59.53l-.39.48-.37-.78h-.01s-.4,1.24-.4,1.24l-.35-.05.59-1.21h0s-.91.65-.91.65v-.48l.91-.39h0s-.58-.55-.58-.55l.38-.47.38.77h.01s.38-1.22.38-1.22l.37.03Z" style="fill:#e95420; stroke-width:0px;"/><path d="M147.85,80.34l-1.07.62v-.77s-1.69.98-1.69.98v.77s-2.44,1.41-2.44,1.41v-.94c0-.95-.67-1.34-1.49-.86l-4.19,2.42c-.82.47-1.49,1.63-1.49,2.58v.94s-2.44,1.41-2.44,1.41v-.77s-1.69.98-1.69.98v.77l-1.07.62c-.74.43-1.34,1.47-1.34,2.32v13.99c0,.86.6,1.2,1.34.77l17.56-10.14c.74-.43,1.34-1.47,1.34-2.32v-13.99c0-.86-.6-1.2-1.34-.77ZM136.35,86.03c0-.4.28-.88.62-1.08l4.19-2.42c.34-.2.62-.04.62.36v.94s-5.44,3.14-5.44,3.14v-.94Z" style="fill:#e95420; stroke-width:0px;"/></g></g></svg>