<?xml version="1.0" encoding="UTF-8"?><svg xmlns="http://www.w3.org/2000/svg" viewBox="0 0 280 280"><g style="isolation:isolate;"><g id="a"><polygon points="218.98 106.79 217.53 104.27 187.5 121.32 184.59 123 187.5 124.67 216.61 141.48 218.06 138.96 190.41 123 218.98 106.79" style="fill:#e95420; opacity:.35; stroke-width:0px;"/><path d="M115.41,202.46l-60.08-35.04c-4.05-2.34-3.54-6.47,1.14-9.17l90.82-52.92c4.68-2.7,11.83-3,15.88-.66l60.08,35.36c4.05,2.34,3.54,6.47-1.14,9.17l-90.82,52.59c-4.68,2.7-11.83,3-15.88.66Z" style="fill:#666; opacity:.2; stroke-width:0px;"/><g style="opacity:.2;"><g style="opacity:.5;"><line x1="23.84" y1="152.61" x2="141.66" y2="84.59" style="fill:#666; stroke-width:0px;"/><path d="M23.84,152.87c-.09,0-.18-.05-.22-.13-.07-.12-.03-.28.09-.35l117.82-68.02c.12-.07.28-.03.35.09.07.12.03.28-.09.35L23.97,152.84s-.09.03-.13.03Z" style="fill:#666; stroke-width:0px;"/><line x1="34.55" y1="158.8" x2="152.37" y2="90.77" style="fill:#666; stroke-width:0px;"/><path d="M34.55,159.06c-.09,0-.18-.05-.22-.13-.07-.12-.03-.28.09-.35l117.82-68.02c.12-.07.28-.03.35.09.07.12.03.28-.09.35l-117.82,68.02s-.09.03-.13.03Z" style="fill:#666; stroke-width:0px;"/><line x1="45.26" y1="164.98" x2="163.08" y2="96.96" style="fill:#666; stroke-width:0px;"/><path d="M45.26,165.24c-.09,0-.18-.05-.22-.13-.07-.12-.03-.28.09-.35l117.82-68.02c.12-.07.28-.03.35.09.07.12.03.28-.09.35l-117.82,68.02s-.09.03-.13.03Z" style="fill:#666; stroke-width:0px;"/><line x1="55.97" y1="171.16" x2="173.79" y2="103.14" style="fill:#666; stroke-width:0px;"/><path d="M55.97,171.42c-.09,0-.18-.05-.22-.13-.07-.12-.03-.28.09-.35l117.82-68.02c.12-.07.28-.03.35.09.07.12.03.28-.09.35l-117.82,68.02s-.09.03-.13.03Z" style="fill:#666; stroke-width:0px;"/><line x1="66.68" y1="177.35" x2="184.5" y2="109.32" style="fill:#666; stroke-width:0px;"/><path d="M66.68,177.61c-.09,0-.18-.05-.22-.13-.07-.12-.03-.28.09-.35l117.82-68.02c.12-.07.28-.03.35.09.07.12.03.28-.09.35l-117.82,68.02s-.09.03-.13.03Z" style="fill:#666; stroke-width:0px;"/><line x1="77.39" y1="183.53" x2="195.21" y2="115.51" style="fill:#666; stroke-width:0px;"/><path d="M77.39,183.79c-.09,0-.18-.05-.22-.13-.07-.12-.03-.28.09-.35l117.82-68.02c.12-.07.28-.03.35.09.07.12.03.28-.09.35l-117.82,68.02s-.09.03-.13.03Z" style="fill:#666; stroke-width:0px;"/><line x1="88.1" y1="189.72" x2="205.92" y2="121.69" style="fill:#666; stroke-width:0px;"/><path d="M88.1,189.97c-.09,0-.18-.05-.22-.13-.07-.12-.03-.28.09-.35l117.82-68.02c.12-.07.28-.03.35.09.07.12.03.28-.09.35l-117.82,68.02s-.09.03-.13.03Z" style="fill:#666; stroke-width:0px;"/><line x1="98.81" y1="195.9" x2="216.63" y2="127.88" style="fill:#666; stroke-width:0px;"/><path d="M98.81,196.16c-.09,0-.18-.05-.22-.13-.07-.12-.03-.28.09-.35l117.82-68.02c.12-.07.28-.03.35.09.07.12.03.28-.09.35l-117.82,68.02s-.09.03-.13.03Z" style="fill:#666; stroke-width:0px;"/><line x1="109.52" y1="202.08" x2="227.34" y2="134.06" style="fill:#666; stroke-width:0px;"/><path d="M109.52,202.34c-.09,0-.18-.05-.22-.13-.07-.12-.03-.28.09-.35l117.82-68.02c.12-.07.28-.03.35.09.07.12.03.28-.09.35l-117.82,68.02s-.09.03-.13.03Z" style="fill:#666; stroke-width:0px;"/><line x1="120.23" y1="208.27" x2="238.05" y2="140.24" style="fill:#666; stroke-width:0px;"/><path d="M120.23,208.53c-.09,0-.18-.05-.22-.13-.07-.12-.03-.28.09-.35l117.82-68.02c.12-.07.28-.03.35.09.07.12.03.28-.09.35l-117.82,68.02s-.09.03-.13.03Z" style="fill:#666; stroke-width:0px;"/><line x1="130.94" y1="214.45" x2="248.76" y2="146.43" style="fill:#666; stroke-width:0px;"/><path d="M130.94,214.71c-.09,0-.18-.05-.22-.13-.07-.12-.03-.28.09-.35l117.82-68.02c.12-.07.28-.03.35.09.07.12.03.28-.09.35l-117.82,68.02s-.09.03-.13.03Z" style="fill:#666; stroke-width:0px;"/><line x1="141.65" y1="220.63" x2="259.48" y2="152.61" style="fill:#666; stroke-width:0px;"/><path d="M141.65,220.89c-.09,0-.18-.05-.22-.13-.07-.12-.03-.28.09-.35l117.82-68.02c.12-.07.28-.03.35.09.07.12.03.28-.09.35l-117.82,68.02s-.09.03-.13.03Z" style="fill:#666; stroke-width:0px;"/></g><g style="opacity:.5;"><line x1="141.66" y1="84.59" x2="259.48" y2="152.61" style="fill:#666; stroke-width:0px;"/><path d="M259.47,152.87s-.09-.01-.13-.03l-117.82-68.02c-.12-.07-.17-.23-.09-.35.07-.12.23-.17.35-.09l117.82,68.02c.12.07.17.23.09.35-.05.08-.14.13-.22.13Z" style="fill:#666; stroke-width:0px;"/><line x1="130.95" y1="90.77" x2="248.76" y2="158.79" style="fill:#666; stroke-width:0px;"/><path d="M248.76,159.05s-.09-.01-.13-.03l-117.82-68.02c-.12-.07-.17-.23-.09-.35.07-.12.23-.17.35-.09l117.82,68.02c.12.07.17.23.09.35-.05.08-.14.13-.22.13Z" style="fill:#666; stroke-width:0px;"/><line x1="120.24" y1="96.96" x2="238.05" y2="164.98" style="fill:#666; stroke-width:0px;"/><path d="M238.05,165.24s-.09-.01-.13-.03l-117.82-68.02c-.12-.07-.17-.23-.09-.35.07-.12.23-.17.35-.09l117.82,68.02c.12.07.17.23.09.35-.05.08-.14.13-.22.13Z" style="fill:#666; stroke-width:0px;"/><line x1="109.53" y1="103.14" x2="227.34" y2="171.16" style="fill:#666; stroke-width:0px;"/><path d="M227.34,171.42s-.09-.01-.13-.03l-117.82-68.02c-.12-.07-.17-.23-.09-.35.07-.12.23-.17.35-.09l117.82,68.02c.12.07.17.23.09.35-.05.08-.14.13-.22.13Z" style="fill:#666; stroke-width:0px;"/><line x1="98.81" y1="109.33" x2="216.63" y2="177.35" style="fill:#666; stroke-width:0px;"/><path d="M216.63,177.61s-.09-.01-.13-.03l-117.82-68.02c-.12-.07-.17-.23-.09-.35.07-.12.23-.17.35-.09l117.82,68.02c.12.07.17.23.09.35-.05.08-.14.13-.22.13Z" style="fill:#666; stroke-width:0px;"/><line x1="88.1" y1="115.51" x2="205.92" y2="183.53" style="fill:#666; stroke-width:0px;"/><path d="M205.92,183.79s-.09-.01-.13-.03l-117.82-68.02c-.12-.07-.17-.23-.09-.35.07-.12.23-.17.35-.09l117.82,68.02c.12.07.17.23.09.35-.05.08-.14.13-.22.13Z" style="fill:#666; stroke-width:0px;"/><line x1="77.39" y1="121.69" x2="195.21" y2="189.71" style="fill:#666; stroke-width:0px;"/><path d="M195.21,189.97s-.09-.01-.13-.03l-117.82-68.02c-.12-.07-.17-.23-.09-.35.07-.12.23-.17.35-.09l117.82,68.02c.12.07.17.23.09.35-.05.08-.14.13-.22.13Z" style="fill:#666; stroke-width:0px;"/><line x1="66.68" y1="127.88" x2="184.5" y2="195.9" style="fill:#666; stroke-width:0px;"/><path d="M184.5,196.16s-.09-.01-.13-.03l-117.82-68.02c-.12-.07-.17-.23-.09-.35.07-.12.23-.17.35-.09l117.82,68.02c.12.07.17.23.09.35-.05.08-.14.13-.22.13Z" style="fill:#666; stroke-width:0px;"/><line x1="55.97" y1="134.06" x2="173.79" y2="202.08" style="fill:#666; stroke-width:0px;"/><path d="M173.79,202.34s-.09-.01-.13-.03l-117.82-68.02c-.12-.07-.17-.23-.09-.35.07-.12.23-.17.35-.09l117.82,68.02c.12.07.17.23.09.35-.05.08-.14.13-.22.13Z" style="fill:#666; stroke-width:0px;"/><line x1="45.26" y1="140.24" x2="163.08" y2="208.27" style="fill:#666; stroke-width:0px;"/><path d="M163.08,208.53s-.09-.01-.13-.03l-117.82-68.02c-.12-.07-.17-.23-.09-.35.07-.12.23-.17.35-.09l117.82,68.02c.12.07.17.23.09.35-.05.08-.14.13-.22.13Z" style="fill:#666; stroke-width:0px;"/><line x1="34.55" y1="146.43" x2="152.37" y2="214.45" style="fill:#666; stroke-width:0px;"/><path d="M152.37,214.71s-.09-.01-.13-.03l-117.82-68.02c-.12-.07-.17-.23-.09-.35.07-.12.23-.17.35-.09l117.82,68.02c.12.07.17.23.09.35-.05.08-.14.13-.22.13Z" style="fill:#666; stroke-width:0px;"/><line x1="23.84" y1="152.61" x2="141.65" y2="220.63" style="fill:#666; stroke-width:0px;"/><path d="M141.65,220.89s-.09-.01-.13-.03L23.71,152.84c-.12-.07-.17-.23-.09-.35s.23-.17.35-.09l117.82,68.02c.12.07.17.23.09.35-.05.08-.14.13-.22.13Z" style="fill:#666; stroke-width:0px;"/></g></g><rect x="97.95" y="94.83" width="2.91" height="45.29" transform="translate(-52.03 144.82) rotate(-60)" style="fill:#e95420; opacity:.35; stroke-width:0px;"/><rect x="64.15" y="119.37" width="2.91" height="45.29" transform="translate(-90.19 127.82) rotate(-60)" style="fill:#e95420; opacity:.35; stroke-width:0px;"/><rect x="178" y="152.64" width="2.91" height="45.29" transform="translate(-62.07 243.05) rotate(-60)" style="fill:#e95420; opacity:.35; stroke-width:0px;"/><rect x="46.67" y="185.13" width="45.29" height="2.91" transform="translate(-84 59.65) rotate(-30)" style="fill:#e95420; opacity:.35; stroke-width:0px;"/><polygon points="102.93 90.07 99.94 88.35 99.29 88.72 102.28 90.45 99.29 92.17 99.94 92.55 102.93 90.82 105.92 92.55 106.57 92.17 103.58 90.45 106.57 88.72 105.92 88.35 102.93 90.07" style="fill:#e95420; fill-rule:evenodd; stroke-width:0px;"/><polygon points="215.52 158.45 212.53 156.72 211.88 157.1 214.87 158.82 211.88 160.55 212.53 160.92 215.52 159.2 218.51 160.92 219.16 160.55 216.17 158.82 219.16 157.1 218.51 156.72 215.52 158.45" style="fill:#e95420; fill-rule:evenodd; stroke-width:0px;"/><polygon points="173.26 195.38 170.27 193.65 169.62 194.02 172.61 195.75 169.62 197.48 170.27 197.85 173.26 196.12 176.25 197.85 176.9 197.48 173.91 195.75 176.9 194.02 176.25 193.65 173.26 195.38" style="fill:#e95420; fill-rule:evenodd; stroke-width:0px;"/><polygon points="86.46 201.64 83.47 199.91 82.82 200.28 85.81 202.01 82.82 203.74 83.47 204.11 86.46 202.39 89.45 204.11 90.1 203.74 87.11 202.01 90.1 200.28 89.45 199.91 86.46 201.64" style="fill:#e95420; fill-rule:evenodd; stroke-width:0px;"/><polygon points="116.91 89.29 113.92 87.56 113.27 87.94 116.26 89.66 113.27 91.39 113.92 91.76 116.91 90.04 119.9 91.76 120.54 91.39 117.56 89.66 120.54 87.94 119.9 87.56 116.91 89.29" style="fill:#e95420; fill-rule:evenodd; stroke-width:0px;"/><path d="M226,134.11h-7.28v.97l-55.53-35.65c-4.05-2.34-11.2-2.04-15.88.66l-87.42,53.86v-.39h-7.28v4.64h0c0,1.49.9,2.92,2.73,3.97l60.08,35.04c4.05,2.34,11.2,2.04,15.88-.66l90.82-52.59c2.57-1.49,3.88-3.4,3.87-5.22h0v-4.64Z" style="fill:#fff; stroke:#606060; stroke-linecap:round; stroke-linejoin:round; stroke-width:2px;"/><path d="M115.41,192.39l-60.08-35.04c-4.05-2.34-3.54-6.47,1.14-9.17l90.82-52.59c4.68-2.7,11.83-3,15.88-.66l60.08,35.04c4.05,2.34,3.54,6.47-1.14,9.17l-90.82,52.59c-4.68,2.7-11.83,3-15.88.66Z" style="fill:#fff; stroke:#606060; stroke-linecap:round; stroke-linejoin:round; stroke-width:2px;"/><path d="M226,134.11h-7.28v.97l-55.53-35.65c-4.05-2.34-11.2-2.04-15.88.66l-87.42,53.86v-.39h-7.28v4.64h0c0,1.49.9,2.92,2.73,3.97l60.08,35.04c4.05,2.34,11.2,2.04,15.88-.66l90.82-52.59c2.57-1.49,3.88-3.4,3.87-5.22h0v-4.64Z" style="fill:#fff; stroke:#606060; stroke-linecap:round; stroke-linejoin:round; stroke-width:.5px;"/><path d="M115.41,192.39l-60.08-35.04c-4.05-2.34-3.54-6.47,1.14-9.17l90.82-52.59c4.68-2.7,11.83-3,15.88-.66l60.08,35.04c4.05,2.34,3.54,6.47-1.14,9.17l-90.82,52.59c-4.68,2.7-11.83,3-15.88.66Z" style="fill:#fff; stroke:#606060; stroke-linecap:round; stroke-linejoin:round; stroke-width:.5px;"/><path d="M226,134.11h-7.28v.97l-55.53-35.65c-4.05-2.34-11.2-2.04-15.88.66l-87.42,53.86v-.39h-7.28v4.64h0c0,1.49.9,2.92,2.73,3.97l60.08,35.04c4.05,2.34,11.2,2.04,15.88-.66l90.82-52.59c2.57-1.49,3.88-3.4,3.87-5.22h0v-4.64Z" style="fill:#fff; stroke:#606060; stroke-linecap:round; stroke-linejoin:round; stroke-width:.5px;"/><path d="M115.41,192.39l-60.08-35.04c-4.05-2.34-3.54-6.47,1.14-9.17l90.82-52.59c4.68-2.7,11.83-3,15.88-.66l60.08,35.04c4.05,2.34,3.54,6.47-1.14,9.17l-90.82,52.59c-4.68,2.7-11.83,3-15.88.66Z" style="fill:#fff; stroke:#606060; stroke-linecap:round; stroke-linejoin:round; stroke-width:.5px;"/><polygon points="122.9 188.1 60.36 152 142.5 104.57 205.03 140.68 122.9 188.1" style="fill:#fff; fill-rule:evenodd; stroke:#606060; stroke-linecap:round; stroke-linejoin:round; stroke-width:.5px;"/><ellipse cx="182.26" cy="117.72" rx="7.84" ry="4.53" style="fill:#fff; stroke:#606060; stroke-linecap:round; stroke-linejoin:round; stroke-width:.5px;"/><ellipse cx="182.26" cy="117.72" rx="3.39" ry="1.95" style="fill:#fff; stroke:#606060; stroke-linecap:round; stroke-linejoin:round; stroke-width:.5px;"/><path d="M187.92,136.47c0-3.44,2.37-7.62,5.29-9.34,1.37-.8,2.62-.93,3.56-.48h0s-37.63-22.14-37.63-22.14h0c-.97-.82-2.44-.84-4.09.13-2.92,1.72-5.29,5.9-5.29,9.34l38.16,22.48h0s0,0,0,0Z" style="fill:#fff; stroke:#606060; stroke-linecap:round; stroke-linejoin:round; stroke-width:2px;"/><path d="M196.77,126.66c-.94-.45-2.19-.33-3.56.48-2.92,1.72-5.29,5.9-5.29,9.34h0s10.59-6.22,10.59-6.22c0-1.83-.67-3.08-1.74-3.59Z" style="fill:#fff; stroke:#606060; stroke-linecap:round; stroke-linejoin:round; stroke-width:2px;"/><path d="M187.92,136.47c0-3.44,2.37-7.62,5.29-9.34,1.37-.8,2.62-.93,3.56-.48h0s-37.63-22.14-37.63-22.14h0c-.97-.82-2.44-.84-4.09.13-2.92,1.72-5.29,5.9-5.29,9.34l38.16,22.48h0s0,0,0,0Z" style="fill:#fff; stroke:#606060; stroke-linecap:round; stroke-linejoin:round; stroke-width:.5px;"/><path d="M196.77,126.66c-.94-.45-2.19-.33-3.56.48-2.92,1.72-5.29,5.9-5.29,9.34h0s10.59-6.22,10.59-6.22c0-1.83-.67-3.08-1.74-3.59Z" style="fill:#fff; stroke:#606060; stroke-linecap:round; stroke-linejoin:round; stroke-width:.5px;"/><path d="M198.47,130.36c2.93,1.69,2.93,4.44,0,6.13-2.93,1.69-7.68,1.69-10.61,0l10.61-6.13Z" style="fill:#666; opacity:.2; stroke-width:0px;"/><text transform="translate(138.07 120.34) rotate(30) scale(1 .87) skewX(-26.57)" style="fill:#e95420; font-family:GothamBold, GothamBold; font-size:8px;"><tspan x="0" y="0">COMPLIANCE</tspan></text><path d="M127.55,121.51l-8.93,5.16,10.31,5.95,8.93-5.16-10.31-5.95ZM128.74,131.09l-7.48-4.32,6.48-3.74,7.48,4.32-6.48,3.74Z" style="fill:#e95420; stroke-width:0px;"/><polygon points="132.46 127.38 126.64 127.14 126.43 125.47 124.99 125.41 125.3 127.91 132.57 128.21 132.46 127.38" style="fill:#e95420; fill-rule:evenodd; stroke-width:0px;"/><polygon points="172.81 151.46 137.24 130.93 138.89 129.97 174.47 150.51 172.81 151.46" style="fill:#e95420; stroke-width:0px;"/><polygon points="159.11 147.61 133.72 132.95 135.38 132 160.77 146.66 159.11 147.61" style="fill:#e95420; stroke-width:0px;"/><path d="M113.36,129.64l-8.93,5.16,10.31,5.95,8.93-5.16-10.31-5.95ZM114.55,139.23l-7.48-4.32,6.48-3.74,7.48,4.32-6.48,3.74Z" style="fill:#e95420; stroke-width:0px;"/><polygon points="118.27 135.51 112.45 135.27 112.24 133.6 110.8 133.54 111.11 136.04 118.37 136.34 118.27 135.51" style="fill:#e95420; fill-rule:evenodd; stroke-width:0px;"/><polygon points="158.61 159.6 123.04 139.06 124.7 138.1 160.27 158.64 158.61 159.6" style="fill:#e95420; stroke-width:0px;"/><polygon points="144.92 155.75 119.53 141.09 121.19 140.13 146.58 154.79 144.92 155.75" style="fill:#e95420; stroke-width:0px;"/><path d="M99.16,137.78l-8.93,5.16,10.31,5.95,8.93-5.16-10.31-5.95ZM100.35,147.36l-7.48-4.32,6.48-3.74,7.48,4.32-6.48,3.74Z" style="fill:#e95420; stroke-width:0px;"/><polygon points="104.07 143.65 98.25 143.41 98.04 141.74 96.61 141.68 96.92 144.18 104.18 144.48 104.07 143.65" style="fill:#e95420; fill-rule:evenodd; stroke-width:0px;"/><polygon points="144.42 167.73 108.85 147.19 110.51 146.24 146.08 166.78 144.42 167.73" style="fill:#e95420; stroke-width:0px;"/><polygon points="130.73 163.88 105.33 149.22 106.99 148.27 132.38 162.93 130.73 163.88" style="fill:#e95420; stroke-width:0px;"/><path d="M84.97,145.91l-8.93,5.16,10.31,5.95,8.93-5.16-10.31-5.95ZM86.16,155.5l-7.48-4.32,6.48-3.74,7.48,4.32-6.48,3.74Z" style="fill:#e95420; stroke-width:0px;"/><polygon points="89.88 151.78 84.06 151.54 83.85 149.87 82.41 149.81 82.72 152.31 89.98 152.61 89.88 151.78" style="fill:#e95420; fill-rule:evenodd; stroke-width:0px;"/><polygon points="130.23 175.87 94.65 155.33 96.31 154.37 131.88 174.91 130.23 175.87" style="fill:#e95420; stroke-width:0px;"/><polygon points="116.53 172.02 91.14 157.36 92.8 156.4 118.19 171.06 116.53 172.02" style="fill:#e95420; stroke-width:0px;"/><path d="M201.02,128.23l-18.87-11.11,1.52-.88,18.35,10.8c.23.14.23.47,0,.6l-1,.58Z" style="fill:#666; opacity:.2; stroke-width:0px;"/><path d="M212.4,89.05l-14.45-18.13c-1.28-1.57-2.03-1.01-2.08-.76l-.33,1.44c-.09.53-1.47.77-2.27.39l-9.59-7.29v-1.64c.85-.23,1.48-1.01,1.48-1.94,0-1.11-.9-2.01-2.01-2.01s-2.01.9-2.01,2.01c0,.83.5,1.54,1.21,1.85v53.7c0,.48,1.39.52,1.36.02v-28.74s9.5,3.16,9.5,3.16c.81.38,2.18.14,2.27-.39l.82-2.49c.05-.25.3-1,1.28-.82l1.54.19,13.3,1.67v-.21Z" style="fill:#fff; stroke:#606060; stroke-linecap:round; stroke-linejoin:round; stroke-width:2px;"/><path d="M182.33,116.67c0,.48,1.39.52,1.36.02l-.03-54.17h-1.34v54.15Z" style="fill:#fff; stroke:#606060; stroke-linecap:round; stroke-linejoin:round; stroke-width:2px;"/><circle cx="183.14" cy="61.12" r="2.01" style="fill:#fff; stroke:#606060; stroke-linecap:round; stroke-linejoin:round; stroke-width:2px;"/><g style="isolation:isolate;"><path d="M193.26,71.99l-10.09-7.67-.07,23.43,10.09,3.36c.81.38,2.18.14,2.27-.39l.07-19.11c-.09.53-1.47.77-2.27.39Z" style="fill:#fff; stroke:#606060; stroke-linecap:round; stroke-linejoin:round; stroke-width:2px;"/><path d="M212.41,89.26v-.21s-14.47-18.13-14.47-18.13c-1.28-1.57-2.03-1.01-2.08-.76l-.33,1.44-.07,19.11.82-2.49c.05-.25.3-1,1.28-.82l1.54.19,13.3,1.67Z" style="fill:#fff; stroke:#606060; stroke-linecap:round; stroke-linejoin:round; stroke-width:2px;"/></g><path d="M212.4,89.05l-14.45-18.13c-1.28-1.57-2.03-1.01-2.08-.76l-.33,1.44c-.09.53-1.47.77-2.27.39l-9.59-7.29v-1.64c.85-.23,1.48-1.01,1.48-1.94,0-1.11-.9-2.01-2.01-2.01s-2.01.9-2.01,2.01c0,.83.5,1.54,1.21,1.85v53.7c0,.48,1.39.52,1.36.02v-28.74s9.5,3.16,9.5,3.16c.81.38,2.18.14,2.27-.39l.82-2.49c.05-.25.3-1,1.28-.82l1.54.19,13.3,1.67v-.21Z" style="fill:#fff; stroke:#606060; stroke-linecap:round; stroke-linejoin:round; stroke-width:2px;"/><path d="M182.33,116.67c0,.48,1.39.52,1.36.02l-.03-54.17h-1.34v54.15Z" style="fill:#fff; stroke:#606060; stroke-linecap:round; stroke-linejoin:round; stroke-width:2px;"/><circle cx="183.14" cy="61.12" r="2.01" style="fill:#fff; stroke:#606060; stroke-linecap:round; stroke-linejoin:round; stroke-width:2px;"/><g style="isolation:isolate;"><path d="M193.26,71.99l-10.09-7.67-.07,23.43,10.09,3.36c.81.38,2.18.14,2.27-.39l.07-19.11c-.09.53-1.47.77-2.27.39Z" style="fill:#fff; stroke:#606060; stroke-linecap:round; stroke-linejoin:round; stroke-width:2px;"/><path d="M212.41,89.26v-.21s-14.47-18.13-14.47-18.13c-1.28-1.57-2.03-1.01-2.08-.76l-.33,1.44-.07,19.11.82-2.49c.05-.25.3-1,1.28-.82l1.54.19,13.3,1.67Z" style="fill:#fff; stroke:#606060; stroke-linecap:round; stroke-linejoin:round; stroke-width:2px;"/></g><path d="M212.4,89.05l-14.45-18.13c-1.28-1.57-2.03-1.01-2.08-.76l-.33,1.44c-.09.53-1.47.77-2.27.39l-9.59-7.29v-1.64c.85-.23,1.48-1.01,1.48-1.94,0-1.11-.9-2.01-2.01-2.01s-2.01.9-2.01,2.01c0,.83.5,1.54,1.21,1.85v53.7c0,.48,1.39.52,1.36.02v-28.74s9.5,3.16,9.5,3.16c.81.38,2.18.14,2.27-.39l.82-2.49c.05-.25.3-1,1.28-.82l1.54.19,13.3,1.67v-.21Z" style="fill:#fff; stroke:#606060; stroke-linecap:round; stroke-linejoin:round; stroke-width:.5px;"/><path d="M182.33,116.67c0,.48,1.39.52,1.36.02l-.03-54.17h-1.34v54.15Z" style="fill:#fff; stroke:#606060; stroke-linecap:round; stroke-linejoin:round; stroke-width:.5px;"/><circle cx="183.14" cy="61.12" r="2.01" style="fill:#fff; stroke:#606060; stroke-linecap:round; stroke-linejoin:round; stroke-width:.5px;"/><g style="isolation:isolate;"><path d="M193.26,71.99l-10.09-7.67-.07,23.43,10.09,3.36c.81.38,2.18.14,2.27-.39l.07-19.11c-.09.53-1.47.77-2.27.39Z" style="fill:#fff; stroke:#606060; stroke-linecap:round; stroke-linejoin:round; stroke-width:.5px;"/><path d="M212.41,89.26v-.21s-14.47-18.13-14.47-18.13c-1.28-1.57-2.03-1.01-2.08-.76l-.33,1.44-.07,19.11.82-2.49c.05-.25.3-1,1.28-.82l1.54.19,13.3,1.67Z" style="fill:#fff; stroke:#606060; stroke-linecap:round; stroke-linejoin:round; stroke-width:.5px;"/></g><path d="M212.4,89.05l-14.45-18.13c-1.28-1.57-2.03-1.01-2.08-.76l-.33,1.44c-.09.53-1.47.77-2.27.39l-9.59-7.29v-1.64c.85-.23,1.48-1.01,1.48-1.94,0-1.11-.9-2.01-2.01-2.01s-2.01.9-2.01,2.01c0,.83.5,1.54,1.21,1.85v53.7c0,.48,1.39.52,1.36.02v-28.74s9.5,3.16,9.5,3.16c.81.38,2.18.14,2.27-.39l.82-2.49c.05-.25.3-1,1.28-.82l1.54.19,13.3,1.67v-.21Z" style="fill:#fff; stroke:#606060; stroke-linecap:round; stroke-linejoin:round; stroke-width:.5px;"/><path d="M182.33,116.67c0,.48,1.39.52,1.36.02l-.03-54.17h-1.34v54.15Z" style="fill:#fff; stroke:#606060; stroke-linecap:round; stroke-linejoin:round; stroke-width:.5px;"/><circle cx="183.14" cy="61.12" r="2.01" style="fill:#fff; stroke:#606060; stroke-linecap:round; stroke-linejoin:round; stroke-width:.5px;"/><g style="isolation:isolate;"><path d="M193.26,71.99l-10.09-7.67-.07,23.43,10.09,3.36c.81.38,2.18.14,2.27-.39l.07-19.11c-.09.53-1.47.77-2.27.39Z" style="fill:#fff; stroke:#606060; stroke-linecap:round; stroke-linejoin:round; stroke-width:.5px;"/><path d="M212.41,89.26v-.21s-14.47-18.13-14.47-18.13c-1.28-1.57-2.03-1.01-2.08-.76l-.33,1.44-.07,19.11.82-2.49c.05-.25.3-1,1.28-.82l1.54.19,13.3,1.67Z" style="fill:#fff; stroke:#606060; stroke-linecap:round; stroke-linejoin:round; stroke-width:.5px;"/></g><path d="M248.54,102.81l-19.83-11.64c-1.62-.94-4.09-1.04-5.5-.23l-20.1,11.67c-.79.46-1.08,1.11-.89,1.77.15.5.58,1,1.28,1.41l19.83,11.64c1.62.94,4.09,1.04,5.5.23l20.1-11.67c.55-.32.86-.74.93-1.18.11-.68-.34-1.43-1.32-2Z" style="fill:#666; opacity:.2; stroke-width:0px;"/><path d="M242.57,97.03c-.07.42-.36.82-.88,1.12l-16.34,9.51c-1.33.77-3.68.67-5.22-.22l-15.34-8.91c-.67-.39-1.08-.86-1.22-1.34h-.06v6.22h0c.04.57.47,1.15,1.27,1.62l15.34,8.91c1.54.89,3.89.99,5.22.22l16.34-9.51c.64-.37.93-.88.89-1.4h0v-6.22h-.02Z" style="fill:#fff; stroke:#606060; stroke-linecap:round; stroke-linejoin:round; stroke-width:2px;"/><path d="M241.31,95.13l-15.34-8.91c-1.54-.89-3.89-.99-5.22-.22l-16.34,9.51c-.75.44-1.03,1.06-.84,1.68.14.48.55.95,1.22,1.34l15.34,8.91c1.54.89,3.89.99,5.22.22l16.34-9.51c.53-.3.81-.7.88-1.12.1-.65-.32-1.36-1.26-1.9Z" style="fill:#fff; stroke:#606060; stroke-linecap:round; stroke-linejoin:round; stroke-width:2px;"/><path d="M242.57,97.03c-.07.42-.36.82-.88,1.12l-16.34,9.51c-1.33.77-3.68.67-5.22-.22l-15.34-8.91c-.67-.39-1.08-.86-1.22-1.34h-.06v6.22h0c.04.57.47,1.15,1.27,1.62l15.34,8.91c1.54.89,3.89.99,5.22.22l16.34-9.51c.64-.37.93-.88.89-1.4h0v-6.22h-.02Z" style="fill:#fff; stroke:#606060; stroke-linecap:round; stroke-linejoin:round; stroke-width:.5px;"/><path d="M241.31,95.13l-15.34-8.91c-1.54-.89-3.89-.99-5.22-.22l-16.34,9.51c-.75.44-1.03,1.06-.84,1.68.14.48.55.95,1.22,1.34l15.34,8.91c1.54.89,3.89.99,5.22.22l16.34-9.51c.53-.3.81-.7.88-1.12.1-.65-.32-1.36-1.26-1.9Z" style="fill:#fff; stroke:#606060; stroke-linecap:round; stroke-linejoin:round; stroke-width:.5px;"/><path d="M220.13,107.44l-15.34-8.91c-.67-.39-1.08-.86-1.22-1.34h-.06v6.22h0c.04.57.47,1.15,1.27,1.62l15.34,8.91c.8.46,1.82.71,2.8.73v-6.5c-.98-.02-2-.27-2.8-.73Z" style="fill:#fff; stroke:#606060; stroke-linecap:round; stroke-linejoin:round; stroke-width:.5px;"/><path d="M225.35,114.16l16.34-9.51c.64-.37.93-.88.89-1.4h0v-6.22h-.02c-.07.42-.36.82-.88,1.12l-16.34,9.51c-.64.37-1.52.54-2.42.52v6.5c.91.02,1.78-.15,2.42-.52Z" style="fill:#bfbfbf; stroke:#606060; stroke-miterlimit:10; stroke-width:.5px;"/><polygon points="215.5 101.89 220.62 104.85 223.61 103.13 218.48 100.17 215.5 101.89" style="fill:#e95420; stroke-width:0px;"/><polygon points="217.77 98.5 219.57 99.54 219.57 99.54 224.7 102.5 227.68 100.78 220.76 96.78 217.77 98.5" style="fill:#e95420; stroke-width:0px;"/><polygon points="226.63 95.47 219.46 91.33 216.47 93.05 228.77 100.15 231.75 98.43 226.63 95.47 226.63 95.47" style="fill:#e95420; stroke-width:0px;"/><polygon points="225.83 90.31 222.85 92.03 232.84 97.8 235.83 96.08 225.83 90.31" style="fill:#e95420; stroke-width:0px;"/><path d="M103.74,104.88l-19.83-11.64c-1.62-.94-4.09-1.04-5.5-.23l-20.1,11.67c-.79.46-1.08,1.11-.89,1.77.15.5.58,1,1.28,1.41l19.83,11.64c1.62.94,4.09,1.04,5.5.23l20.1-11.67c.55-.32.86-.74.93-1.18.11-.68-.34-1.43-1.32-2Z" style="fill:#666; opacity:.2; stroke-width:0px;"/><path d="M97.77,99.1c-.07.42-.36.82-.88,1.12l-16.34,9.51c-1.33.77-3.68.67-5.22-.22l-15.34-8.91c-.67-.39-1.08-.86-1.22-1.34h-.06v6.22h0c.04.57.47,1.15,1.27,1.62l15.34,8.91c1.54.89,3.89.99,5.22.22l16.34-9.51c.64-.37.93-.88.89-1.4h0v-6.22h-.02Z" style="fill:#fff; stroke:#606060; stroke-linecap:round; stroke-linejoin:round; stroke-width:2px;"/><path d="M96.51,97.2l-15.34-8.91c-1.54-.89-3.89-.99-5.22-.22l-16.34,9.51c-.75.44-1.03,1.06-.84,1.68.14.48.55.95,1.22,1.34l15.34,8.91c1.54.89,3.89.99,5.22.22l16.34-9.51c.53-.3.81-.7.88-1.12.1-.65-.32-1.36-1.26-1.9Z" style="fill:#fff; stroke:#606060; stroke-linecap:round; stroke-linejoin:round; stroke-width:2px;"/><path d="M97.77,99.1c-.07.42-.36.82-.88,1.12l-16.34,9.51c-1.33.77-3.68.67-5.22-.22l-15.34-8.91c-.67-.39-1.08-.86-1.22-1.34h-.06v6.22h0c.04.57.47,1.15,1.27,1.62l15.34,8.91c1.54.89,3.89.99,5.22.22l16.34-9.51c.64-.37.93-.88.89-1.4h0v-6.22h-.02Z" style="fill:#fff; stroke:#606060; stroke-linecap:round; stroke-linejoin:round; stroke-width:.5px;"/><path d="M96.51,97.2l-15.34-8.91c-1.54-.89-3.89-.99-5.22-.22l-16.34,9.51c-.75.44-1.03,1.06-.84,1.68.14.48.55.95,1.22,1.34l15.34,8.91c1.54.89,3.89.99,5.22.22l16.34-9.51c.53-.3.81-.7.88-1.12.1-.65-.32-1.36-1.26-1.9Z" style="fill:#fff; stroke:#606060; stroke-linecap:round; stroke-linejoin:round; stroke-width:.5px;"/><path d="M75.32,109.51l-15.34-8.91c-.67-.39-1.08-.86-1.22-1.34h-.06v6.22h0c.04.57.47,1.15,1.27,1.62l15.34,8.91c.8.46,1.82.71,2.8.73v-6.5c-.98-.02-2-.27-2.8-.73Z" style="fill:#fff; stroke:#606060; stroke-linecap:round; stroke-linejoin:round; stroke-width:.5px;"/><path d="M80.55,116.23l16.34-9.51c.64-.37.93-.88.89-1.4h0v-6.22h-.02c-.07.42-.36.82-.88,1.12l-16.34,9.51c-.64.37-1.52.54-2.42.52v6.5c.91.02,1.78-.15,2.42-.52Z" style="fill:#bfbfbf; stroke:#606060; stroke-miterlimit:10; stroke-width:.5px;"/><path d="M85.52,95.13l-7.9,4-.99-6.04c-2.35.13-4.64.71-6.44,1.75-4.1,2.37-4.1,6.21,0,8.58s10.76,2.37,14.86,0c3.94-2.28,4.1-5.91.47-8.29Z" style="fill:#e95420; stroke-width:0px;"/><path d="M86.46,93.43c-.15-.1-.3-.2-.47-.29-2.31-1.33-5.41-1.91-8.43-1.75l.99,6.04,7.9-4Z" style="fill:#e95420; stroke-width:0px;"/><path d="M231.98,192.7l-19.83-11.64c-1.62-.94-4.09-1.04-5.5-.23l-20.1,11.67c-.79.46-1.08,1.11-.89,1.77.15.5.58,1,1.28,1.41l19.83,11.64c1.62.94,4.09,1.04,5.5.23l20.1-11.67c.55-.32.86-.74.93-1.18.11-.68-.34-1.43-1.32-2Z" style="fill:#666; opacity:.2; stroke-width:0px;"/><path d="M226.01,186.93c-.07.42-.36.82-.88,1.12l-16.34,9.51c-1.33.77-3.68.67-5.22-.22l-15.34-8.91c-.67-.39-1.08-.86-1.22-1.34h-.06v6.22h0c.04.57.47,1.15,1.27,1.62l15.34,8.91c1.54.89,3.89.99,5.22.22l16.34-9.51c.64-.37.93-.88.89-1.4h0v-6.22h-.02Z" style="fill:#fff; stroke:#606060; stroke-linecap:round; stroke-linejoin:round; stroke-width:2px;"/><path d="M224.75,185.03l-15.34-8.91c-1.54-.89-3.89-.99-5.22-.22l-16.34,9.51c-.75.44-1.03,1.06-.84,1.68.14.48.55.95,1.22,1.34l15.34,8.91c1.54.89,3.89.99,5.22.22l16.34-9.51c.53-.3.81-.7.88-1.12.1-.65-.32-1.36-1.26-1.9Z" style="fill:#fff; stroke:#606060; stroke-linecap:round; stroke-linejoin:round; stroke-width:2px;"/><path d="M226.01,186.93c-.07.42-.36.82-.88,1.12l-16.34,9.51c-1.33.77-3.68.67-5.22-.22l-15.34-8.91c-.67-.39-1.08-.86-1.22-1.34h-.06v6.22h0c.04.57.47,1.15,1.27,1.62l15.34,8.91c1.54.89,3.89.99,5.22.22l16.34-9.51c.64-.37.93-.88.89-1.4h0v-6.22h-.02Z" style="fill:#fff; stroke:#606060; stroke-linecap:round; stroke-linejoin:round; stroke-width:.5px;"/><path d="M224.75,185.03l-15.34-8.91c-1.54-.89-3.89-.99-5.22-.22l-16.34,9.51c-.75.44-1.03,1.06-.84,1.68.14.48.55.95,1.22,1.34l15.34,8.91c1.54.89,3.89.99,5.22.22l16.34-9.51c.53-.3.81-.7.88-1.12.1-.65-.32-1.36-1.26-1.9Z" style="fill:#fff; stroke:#606060; stroke-linecap:round; stroke-linejoin:round; stroke-width:.5px;"/><path d="M203.57,197.34l-15.34-8.91c-.67-.39-1.08-.86-1.22-1.34h-.06v6.22h0c.04.57.47,1.15,1.27,1.62l15.34,8.91c.8.46,1.82.71,2.8.73v-6.5c-.98-.02-2-.27-2.8-.73Z" style="fill:#fff; stroke:#606060; stroke-linecap:round; stroke-linejoin:round; stroke-width:.5px;"/><path d="M208.79,204.06l16.34-9.51c.64-.37.93-.88.89-1.4h0v-6.22h-.02c-.07.42-.36.82-.88,1.12l-16.34,9.51c-.64.37-1.52.54-2.42.52v6.5c.91.02,1.78-.15,2.42-.52Z" style="fill:#bfbfbf; stroke:#606060; stroke-miterlimit:10; stroke-width:.5px;"/><path d="M211.94,191.84s-1.68-1.12-1.7-1.14l-2.4.45s-.2,1.47-.21,1.5l-3.91-.18s.18-1.48.19-1.5l-2.25-.67s-1.94.96-1.98.97l-2.55-1.73s1.93-.97,1.97-.98l-.79-1.39s-2.55-.12-2.59-.13l.3-2.26s2.55.11,2.59.11l1.14-1.3c-.08-.05-1.66-1.13-1.68-1.15l2.98-1.47s1.68,1.12,1.7,1.14l2.4-.45s.2-1.47.21-1.5l3.91.18s-.18,1.48-.19,1.5l2.25.67s1.94-.96,1.98-.97l2.55,1.73s-1.93.97-1.97.98l.79,1.39s2.55.12,2.59.13l-.3,2.26s-2.55-.11-2.59-.11l-1.14,1.3c.08.05,1.66,1.13,1.68,1.15l-2.98,1.47ZM206.22,188.42c1.92.09,3.6-.74,3.75-1.86.08-.61-.32-1.19-1.02-1.59-.57-.33-1.33-.55-2.19-.59-1.92-.09-3.6.74-3.75,1.86-.08.62.32,1.19,1.02,1.59.57.33,1.33.55,2.19.59h0Z" style="fill:#e95420; stroke-width:0px;"/><path d="M66.64,126.94l-19.83-11.64c-1.62-.94-4.09-1.04-5.5-.23l-20.1,11.67c-.79.46-1.08,1.11-.89,1.77.15.5.58,1,1.28,1.41l19.83,11.64c1.62.94,4.09,1.04,5.5.23l20.1-11.67c.55-.32.86-.74.93-1.18.11-.68-.34-1.43-1.32-2Z" style="fill:#666; opacity:.2; stroke-width:0px;"/><path d="M60.67,121.16c-.07.42-.36.82-.88,1.12l-16.34,9.51c-1.33.77-3.68.67-5.22-.22l-15.34-8.91c-.67-.39-1.08-.86-1.22-1.34h-.06v6.22h0c.04.57.47,1.15,1.27,1.62l15.34,8.91c1.54.89,3.89.99,5.22.22l16.34-9.51c.64-.37.93-.88.89-1.4h0v-6.22h-.02Z" style="fill:#fff; stroke:#606060; stroke-linecap:round; stroke-linejoin:round; stroke-width:2px;"/><path d="M59.41,119.27l-15.34-8.91c-1.54-.89-3.89-.99-5.22-.22l-16.34,9.51c-.75.44-1.03,1.06-.84,1.68.14.48.55.95,1.22,1.34l15.34,8.91c1.54.89,3.89.99,5.22.22l16.34-9.51c.53-.3.81-.7.88-1.12.1-.65-.32-1.36-1.26-1.9Z" style="fill:#fff; stroke:#606060; stroke-linecap:round; stroke-linejoin:round; stroke-width:2px;"/><path d="M60.67,121.16c-.07.42-.36.82-.88,1.12l-16.34,9.51c-1.33.77-3.68.67-5.22-.22l-15.34-8.91c-.67-.39-1.08-.86-1.22-1.34h-.06v6.22h0c.04.57.47,1.15,1.27,1.62l15.34,8.91c1.54.89,3.89.99,5.22.22l16.34-9.51c.64-.37.93-.88.89-1.4h0v-6.22h-.02Z" style="fill:#fff; stroke:#606060; stroke-linecap:round; stroke-linejoin:round; stroke-width:.5px;"/><path d="M59.41,119.27l-15.34-8.91c-1.54-.89-3.89-.99-5.22-.22l-16.34,9.51c-.75.44-1.03,1.06-.84,1.68.14.48.55.95,1.22,1.34l15.34,8.91c1.54.89,3.89.99,5.22.22l16.34-9.51c.53-.3.81-.7.88-1.12.1-.65-.32-1.36-1.26-1.9Z" style="fill:#fff; stroke:#606060; stroke-linecap:round; stroke-linejoin:round; stroke-width:.5px;"/><path d="M38.23,131.57l-15.34-8.91c-.67-.39-1.08-.86-1.22-1.34h-.06v6.22h0c.04.57.47,1.15,1.27,1.62l15.34,8.91c.8.46,1.82.71,2.8.73v-6.5c-.98-.02-2-.27-2.8-.73Z" style="fill:#fff; stroke:#606060; stroke-linecap:round; stroke-linejoin:round; stroke-width:.5px;"/><path d="M43.45,138.29l16.34-9.51c.64-.37.93-.88.89-1.4h0v-6.22h-.02c-.07.42-.36.82-.88,1.12l-16.34,9.51c-.64.37-1.52.54-2.42.52v6.5c.91.02,1.78-.15,2.42-.52Z" style="fill:#bfbfbf; stroke:#606060; stroke-miterlimit:10; stroke-width:.5px;"/><path d="M48.36,116.54c-3.98-2.21-10.41-2.22-14.36-.02-3.95,2.19-3.93,5.76.05,7.97,3.98,2.21,10.41,2.22,14.36.02,3.95-2.19,3.93-5.76-.05-7.97ZM35.48,123.69c-3.18-1.77-3.2-4.62-.04-6.38,3.16-1.76,8.31-1.75,11.49.02,3.18,1.77,3.2,4.62.04,6.38-3.16,1.76-8.31,1.75-11.49-.02ZM45.5,118.13c-2.39-1.32-6.25-1.33-8.62-.01-2.37,1.32-2.36,3.46.03,4.78,2.39,1.32,6.25,1.33,8.62.01,2.37-1.32,2.36-3.46-.03-4.78ZM38.34,122.1c-1.59-.88-1.6-2.31-.02-3.19,1.58-.88,4.15-.87,5.74,0,1.59.88,1.6,2.31.02,3.19-1.58.88-4.15.87-5.75,0ZM42.64,119.72c-.8-.44-2.08-.44-2.87,0s-.79,1.15,0,1.59c.8.44,2.08.44,2.87,0,.79-.44.79-1.15,0-1.59Z" style="fill:#e95420; stroke-width:0px;"/><path d="M73.37,200.52l-19.83-11.64c-1.62-.94-4.09-1.04-5.5-.23l-20.1,11.67c-.79.46-1.08,1.11-.89,1.77.15.5.58,1,1.28,1.41l19.83,11.64c1.62.94,4.09,1.04,5.5.23l20.1-11.67c.55-.32.86-.74.93-1.18.11-.68-.34-1.43-1.32-2Z" style="fill:#666; opacity:.2; stroke-width:0px;"/><path d="M67.4,194.74c-.07.42-.36.82-.88,1.12l-16.34,9.51c-1.33.77-3.68.67-5.22-.22l-15.34-8.91c-.67-.39-1.08-.86-1.22-1.34h-.06v6.22h0c.04.57.47,1.15,1.27,1.62l15.34,8.91c1.54.89,3.89.99,5.22.22l16.34-9.51c.64-.37.93-.88.89-1.4h0v-6.22h-.02Z" style="fill:#fff; stroke:#606060; stroke-linecap:round; stroke-linejoin:round; stroke-width:2px;"/><path d="M66.14,192.85l-15.34-8.91c-1.54-.89-3.89-.99-5.22-.22l-16.34,9.51c-.75.44-1.03,1.06-.84,1.68.14.48.55.95,1.22,1.34l15.34,8.91c1.54.89,3.89.99,5.22.22l16.34-9.51c.53-.3.81-.7.88-1.12.1-.65-.32-1.36-1.26-1.9Z" style="fill:#fff; stroke:#606060; stroke-linecap:round; stroke-linejoin:round; stroke-width:2px;"/><path d="M67.4,194.74c-.07.42-.36.82-.88,1.12l-16.34,9.51c-1.33.77-3.68.67-5.22-.22l-15.34-8.91c-.67-.39-1.08-.86-1.22-1.34h-.06v6.22h0c.04.57.47,1.15,1.27,1.62l15.34,8.91c1.54.89,3.89.99,5.22.22l16.34-9.51c.64-.37.93-.88.89-1.4h0v-6.22h-.02Z" style="fill:#fff; stroke:#606060; stroke-linecap:round; stroke-linejoin:round; stroke-width:.5px;"/><path d="M66.14,192.85l-15.34-8.91c-1.54-.89-3.89-.99-5.22-.22l-16.34,9.51c-.75.44-1.03,1.06-.84,1.68.14.48.55.95,1.22,1.34l15.34,8.91c1.54.89,3.89.99,5.22.22l16.34-9.51c.53-.3.81-.7.88-1.12.1-.65-.32-1.36-1.26-1.9Z" style="fill:#fff; stroke:#606060; stroke-linecap:round; stroke-linejoin:round; stroke-width:.5px;"/><path d="M44.96,205.15l-15.34-8.91c-.67-.39-1.08-.86-1.22-1.34h-.06v6.22h0c.04.57.47,1.15,1.27,1.62l15.34,8.91c.8.46,1.82.71,2.8.73v-6.5c-.98-.02-2-.27-2.8-.73Z" style="fill:#fff; stroke:#606060; stroke-linecap:round; stroke-linejoin:round; stroke-width:.5px;"/><path d="M50.18,211.87l16.34-9.51c.64-.37.93-.88.89-1.4h0v-6.22h-.02c-.07.42-.36.82-.88,1.12l-16.34,9.51c-.64.37-1.52.54-2.42.52v6.5c.91.02,1.78-.15,2.42-.52Z" style="fill:#bfbfbf; stroke:#606060; stroke-miterlimit:10; stroke-width:.5px;"/><polygon points="47.25 186.63 60.99 194.56 60.08 195.09 46.34 187.16 47.25 186.63" style="fill:#e95420; mix-blend-mode:multiply; stroke-width:0px;"/><polygon points="45.43 187.68 59.17 195.61 58.26 196.14 44.52 188.21 45.43 187.68" style="fill:#e95420; mix-blend-mode:multiply; stroke-width:0px;"/><polygon points="43.61 188.73 57.35 196.66 56.44 197.19 42.7 189.26 43.61 188.73" style="fill:#e95420; mix-blend-mode:multiply; stroke-width:0px;"/><polygon points="41.79 189.78 55.53 197.71 54.62 198.24 40.88 190.31 41.79 189.78" style="fill:#e95420; mix-blend-mode:multiply; stroke-width:0px;"/><polygon points="39.98 190.83 53.71 198.76 52.81 199.29 39.07 191.36 39.98 190.83" style="fill:#e95420; mix-blend-mode:multiply; stroke-width:0px;"/><polygon points="38.16 191.88 51.9 199.81 50.99 200.34 37.25 192.41 38.16 191.88" style="fill:#e95420; mix-blend-mode:multiply; stroke-width:0px;"/><polygon points="36.34 192.93 50.08 200.86 49.17 201.39 35.43 193.46 36.34 192.93" style="fill:#e95420; mix-blend-mode:multiply; stroke-width:0px;"/></g></g></svg>