<?xml version="1.0" encoding="UTF-8" standalone="no"?>
<svg
   width="280"
   height="280"
   viewBox="0 0 280 280"
   fill="none"
   version="1.1"
   id="svg102"
   sodipodi:docname="try-or-install.svg"
   inkscape:version="1.2.2 (b0a8486541, 2022-12-01)"
   xmlns:inkscape="http://www.inkscape.org/namespaces/inkscape"
   xmlns:sodipodi="http://sodipodi.sourceforge.net/DTD/sodipodi-0.dtd"
   xmlns="http://www.w3.org/2000/svg"
   xmlns:svg="http://www.w3.org/2000/svg">
  <sodipodi:namedview
     id="namedview104"
     pagecolor="#ffffff"
     bordercolor="#666666"
     borderopacity="1.0"
     inkscape:showpageshadow="2"
     inkscape:pageopacity="0.0"
     inkscape:pagecheckerboard="0"
     inkscape:deskcolor="#d1d1d1"
     showgrid="false"
     inkscape:zoom="0.8745838"
     inkscape:cx="451.0717"
     inkscape:cy="450.5"
     inkscape:window-width="2514"
     inkscape:window-height="1371"
     inkscape:window-x="0"
     inkscape:window-y="0"
     inkscape:window-maximized="1"
     inkscape:current-layer="svg102" />
  <circle
     cx="140"
     cy="140"
     fill="url(#paint0_linear_3356_10970)"
     id="circle2"
     style="fill:url(#paint0_linear_3356_10970);stroke-width:0.288889"
     r="130" />
  <g
     style="mix-blend-mode:multiply"
     id="g6"
     transform="matrix(0.28888889,0,0,0.28888889,9.9988451,9.9566684)">
    <circle
       cx="450.004"
       cy="450.14999"
       r="450"
       fill="url(#paint1_radial_3356_10970)"
       fill-opacity="0.5"
       id="circle4"
       style="fill:url(#paint1_radial_3356_10970)" />
  </g>
  <path
     d="M 98.021266,98.751003 101.44836,98.455759 C 101.44836,98.455759 98.772955,95.722003 96.171222,97.140159 96.171222,97.140159 97.521489,98.146936 98.021266,98.751003 Z"
     fill="#e95420"
     id="path8"
     style="stroke-width:0.288889" />
  <path
     d="M 111.50834,93.81158 C 111.673,93.919048 111.89545,93.871959 112.0032,93.706714 113.22,91.833559 115.73449,91.29998 117.60794,92.51678 119.48138,93.733869 120.01495,96.248069 118.79786,98.121514 118.20825,99.029203 117.30055,99.652625 116.24178,99.87738 115.81422,99.968092 115.38291,99.986003 114.96055,99.940359 L 114.34234,100.55945 C 114.46482,100.58718 114.58702,100.61549 114.71125,100.63369 115.26245,100.71371 115.82954,100.69638 116.39055,100.57707 117.63595,100.31274 118.70398,99.578959 119.39789,98.511514 120.82991,96.307292 120.20186,93.349069 117.99794,91.916759 115.79314,90.483869 112.83491,91.11278 111.40318,93.316714 111.29542,93.482536 111.34251,93.704114 111.50834,93.81158 Z"
     fill="#e95420"
     id="path10"
     style="stroke-width:0.288889" />
  <path
     d="M 163.61031,100.57707 C 164.17134,100.69638 164.73842,100.71371 165.28962,100.63369 165.41385,100.61549 165.53605,100.58718 165.65854,100.55945 L 165.04031,99.940359 C 164.61795,99.986003 164.18665,99.968092 163.75909,99.87738 162.70031,99.652625 161.79262,99.029203 161.203,98.121514 159.98591,96.248069 160.51949,93.733869 162.39294,92.51678 164.26638,91.29998 166.78086,91.833559 167.99766,93.706714 168.10542,93.871959 168.32786,93.919048 168.49254,93.81158 168.65835,93.704114 168.70515,93.482536 168.59769,93.316714 167.16566,91.11278 164.20774,90.483869 162.00294,91.916759 159.799,93.349069 159.17095,96.307292 160.60298,98.511514 161.29689,99.578959 162.36491,100.31274 163.61031,100.57707 Z"
     fill="#e95420"
     id="path12"
     style="stroke-width:0.288889" />
  <path
     d="M 211.55778,152.54529 C 213.1484,151.18202 214.50271,149.50589 215.38006,147.44871 215.57102,146.73198 215.71835,146.03402 215.83362,145.35022 L 209.20275,147.33056 C 209.17935,147.33749 209.15625,147.33836 209.13314,147.34067 208.87862,147.95369 208.56402,148.54274 208.18355,149.09538 208.07955,149.2612 205.57114,153.18691 199.54462,155.92009 197.6108,156.79687 195.61314,157.40758 193.59149,157.81 201.84706,157.54047 212.62782,155.97498 219.90551,150.36187 224.49942,146.81807 227.204,142.03754 227.94355,136.15316 229.57462,123.17974 221.24365,116.3478 219.18185,114.87129 L 218.19038,119.83411 C 221.32194,123.53391 223.21618,128.313 223.21618,133.5286 223.21618,141.63309 219.22286,148.0704 211.55778,152.54529 Z"
     fill="#e95420"
     id="path14"
     style="stroke-width:0.288889" />
  <path
     d="M 102.95086,107.2348 C 103.08954,107.52629 103.31285,108.0174 103.57718,108.67809 104.70095,107.47516 105.79815,106.45394 106.78846,105.6176 105.61182,106.2026 104.31645,106.76536 102.95086,107.2348 Z"
     fill="#e95420"
     id="path16"
     style="stroke-width:0.288889" />
  <path
     d="M 93.067689,107.07765 C 94.849845,105.74934 96.987911,104.61111 99.229978,103.64854 99.115289,102.92371 99.480155,102.18242 100.17898,101.85974 100.94193,101.50758 101.82738,101.77914 102.27862,102.45745 108.81618,100.13276 115.21189,99.173359 115.30982,99.159203 L 115.56635,99.121648 C 115.56635,99.06618 115.56434,99.009269 115.55306,98.945425 115.40891,98.140869 114.89642,98.121803 114.24614,98.186514 111.14606,98.493892 108.04426,98.788559 104.94362,99.090448 102.83647,99.295559 99.907711,99.334848 97.623755,99.83318 97.386,99.509625 97.124266,99.188669 96.836534,98.87638 94.645889,96.495648 89.839066,95.154625 90.652866,96.606003 91.011089,97.245314 92.894355,101.94814 93.067689,107.07765 Z M 96.460111,100.116 C 96.056534,100.15269 94.418245,100.46527 93.405689,102.25869 93.014534,100.45025 92.294334,98.265959 91.940445,97.325625 93.169666,97.583314 95.558489,98.621292 96.460111,100.116 Z"
     fill="#e95420"
     id="path18"
     style="stroke-width:0.288889" />
  <path
     d="M 96.5722,142.00171 C 99.756045,138.74767 102.48287,134.75436 104.01254,129.92471 106.16822,122.52338 104.64751,115.57502 103.81725,111.51614 103.65114,110.97476 103.48386,110.47296 103.32266,110.02345 99.005222,114.949 94.579155,122.65974 94.783111,133.48931 94.780511,133.565 94.688066,137.3454 96.5722,142.00171 Z"
     fill="#e95420"
     id="path20"
     style="stroke-width:0.288889" />
  <path
     d="M 85.107355,150.80618 C 85.218289,150.72327 85.326911,150.63805 85.4338,150.55051 87.510045,148.84607 88.700845,146.32985 88.700845,143.64636 88.700845,138.72398 84.696266,134.7194 79.773889,134.7194 74.851222,134.7194 70.846645,138.72398 70.846645,143.64636 70.846645,145.46347 71.389178,147.21211 72.415311,148.7022 72.447955,148.75449 74.946845,152.64987 80.795978,155.28858 86.288622,157.76551 92.320045,158.08849 97.957711,157.39718 95.592866,155.28049 93.093978,151.7832 87.076134,154.46785 L 84.777155,151.0318 C 84.777155,151.0318 84.885489,150.96391 85.073266,150.84402 85.0854,150.83189 85.0932,150.81687 85.107355,150.80618 Z"
     fill="#e95420"
     id="path22"
     style="stroke-width:0.288889" />
  <path
     d="M 183.82965,97.140159 C 181.22791,95.722003 178.55251,98.455759 178.55251,98.455759 L 181.9796,98.751003 C 182.47938,98.146936 183.82965,97.140159 183.82965,97.140159 Z"
     fill="#e95420"
     id="path24"
     style="stroke-width:0.288889" />
  <path
     d="M 207.94955,137.89631 214.97475,135.79869 C 214.52466,134.62811 213.96046,133.53294 213.30758,132.51229 L 204.66286,135.0938 C 205.96026,135.76922 207.08058,136.73238 207.94955,137.89631 Z"
     fill="#e95420"
     id="path26"
     style="stroke-width:0.288889" />
  <path
     d="M 165.90582,100.09058 C 168.95995,102.49876 178.24745,109.11229 186.30166,107.4948 184.61398,106.26962 182.60995,105.21489 180.51349,104.31269 180.06282,104.99302 179.17594,105.26631 178.41211,104.91358 177.71185,104.59031 177.34698,103.84671 177.4634,103.12074 172.75422,101.44865 168.10745,100.49069 165.90582,100.09058 Z"
     fill="#e95420"
     id="path28"
     style="stroke-width:0.288889" />
  <path
     d="M 209.70369,141.9032 216.00754,140.02109 C 215.86598,138.76991 215.59442,137.58807 215.218,136.47296 L 208.37682,138.51569 C 209.01989,139.53345 209.47865,140.67687 209.70369,141.9032 Z"
     fill="#e95420"
     id="path30"
     style="stroke-width:0.288889" />
  <path
     d="M 183.69675,108.4594 C 181.67106,108.4594 179.64422,108.05987 177.73554,107.46014 177.59138,107.75711 177.3048,108.37707 176.96189,109.26165 179.30275,111.87609 181.69706,115.29336 183.42462,119.5588 187.2082,119.08502 190.59311,119.16909 193.60854,119.62265 188.49346,117.23527 186.97709,112.58791 186.9222,108.08298 185.85966,108.33894 184.77922,108.4594 183.69675,108.4594 Z"
     fill="#e95420"
     id="path32"
     style="stroke-width:0.288889" />
  <path
     d="M 183.69011,120.24954 C 185.12069,124.01549 186.02866,128.41094 185.93305,133.48267 185.93565,133.55027 186.04195,137.61118 183.97554,142.55176 186.53625,145.06307 189.35175,147.11534 192.05229,148.76229 191.10271,147.24765 190.58445,145.48369 190.58445,143.64636 190.58445,138.32936 194.90998,134.00382 200.22698,134.00382 201.43742,134.00382 202.59154,134.23754 203.65985,134.6466 L 212.74482,131.93365 C 212.3632,131.35847 211.52369,130.19078 210.18642,128.80065 L 205.34985,130.08014 C 205.31922,130.08851 205.28831,130.09227 205.25826,130.09227 205.09966,130.09227 204.95494,129.98625 204.91246,129.82591 204.86191,129.63496 204.97574,129.43909 205.16698,129.38854 L 209.6046,128.21449 C 209.1132,127.73378 208.56315,127.23371 207.95794,126.72874 205.64335,124.89111 203.2008,123.50676 201.15489,122.52194 196.72911,120.57829 190.96434,119.36987 183.69011,120.24954 Z"
     fill="#e95420"
     id="path34"
     style="stroke-width:0.288889" />
  <path
     d="M 183.42866,142.00171 C 185.3128,137.3454 185.22035,133.565 185.21805,133.48931 185.42171,122.65974 180.99565,114.949 176.6782,110.02345 176.51729,110.47296 176.34974,110.97476 176.18362,111.51614 175.35365,115.57502 173.83265,122.52338 175.98834,129.92471 177.518,134.75436 180.24482,138.74767 183.42866,142.00171 Z"
     fill="#e95420"
     id="path36"
     style="stroke-width:0.288889" />
  <path
     d="M 164.44809,98.945425 C 164.43654,99.009269 164.43451,99.06618 164.4348,99.121648 L 164.69105,99.159203 C 164.78898,99.173359 171.18469,100.13276 177.72225,102.45745 178.17349,101.77914 179.05922,101.50758 179.82189,101.85974 180.521,102.18242 180.88558,102.92371 180.77089,103.64854 183.01295,104.61111 185.15102,105.74934 186.93318,107.07765 187.10651,101.94814 188.98978,97.245314 189.348,96.606003 190.1618,95.154625 185.35498,96.495648 183.16434,98.87638 182.8766,99.188669 182.61486,99.509625 182.37711,99.83318 180.09315,99.334848 177.1644,99.295559 175.05725,99.090448 171.9566,98.788559 168.8548,98.493892 165.75474,98.186514 165.10445,98.121803 164.59195,98.140869 164.44809,98.945425 Z M 188.06042,97.325625 C 187.70654,98.265959 186.98634,100.45025 186.59518,102.25869 185.58262,100.46527 183.94462,100.15269 183.54105,100.116 184.44238,98.621292 186.8312,97.583314 188.06042,97.325625 Z"
     fill="#e95420"
     id="path38"
     style="stroke-width:0.288889" />
  <path
     d="M 182.04315,157.39718 C 187.68082,158.08849 193.71225,157.76551 199.20489,155.28858 205.05402,152.64987 207.55291,148.75449 207.58555,148.7022 208.61198,147.21211 209.15422,145.46347 209.15422,143.64636 209.15422,138.72398 205.14965,134.7194 200.22698,134.7194 195.3046,134.7194 191.30002,138.72398 191.30002,143.64636 191.30002,146.32985 192.49082,148.84607 194.56706,150.55051 194.67395,150.63805 194.78258,150.72327 194.89351,150.80618 194.90766,150.81687 194.91546,150.83189 194.9276,150.84402 195.11538,150.96391 195.22371,151.0318 195.22371,151.0318 L 192.92474,154.46785 C 186.90689,151.7832 184.408,155.28049 182.04315,157.39718 Z"
     fill="#e95420"
     id="path40"
     style="stroke-width:0.288889" />
  <path
     d="M 209.8698,143.64636 C 209.8698,144.63002 209.72246,145.59462 209.43734,146.51358 L 215.95178,144.5682 C 216.12655,143.23094 216.1618,141.9578 216.07514,140.74765 L 209.81289,142.61734 C 209.849,142.95562 209.8698,143.29854 209.8698,143.64636 Z"
     fill="#e95420"
     id="path42"
     style="stroke-width:0.288889" />
  <path
     d="M 176.42369,108.67809 C 176.68802,108.0174 176.91134,107.52629 177.05,107.2348 175.68442,106.76536 174.38905,106.2026 173.2124,105.6176 174.20271,106.45394 175.29991,107.47516 176.42369,108.67809 Z"
     fill="#e95420"
     id="path44"
     style="stroke-width:0.288889" />
  <path
     d="M 136.69482,106.64662 C 137.36534,106.64662 137.90874,106.10322 137.90874,105.43271 137.90874,104.76249 137.36534,104.2188 136.69482,104.2188 136.02431,104.2188 135.48091,104.76249 135.48091,105.43271 135.48091,106.10322 136.02431,106.64662 136.69482,106.64662 Z"
     fill="#e95420"
     id="path46"
     style="stroke-width:0.288889" />
  <path
     d="M 137.05998,103.72856 C 137.25786,103.77102 137.44391,103.84585 137.61435,103.95158 138.16065,103.16551 139.04291,102.69376 139.99826,102.67642 140.00346,102.58456 140.01589,102.49298 140.03466,102.40314 140.09071,102.14314 140.20425,101.89989 140.3666,101.6916 138.83982,101.57085 137.35609,102.35865 136.60094,103.69187 136.63214,103.68985 136.66305,103.68956 136.69338,103.68956 136.81615,103.68956 136.93835,103.70227 137.05998,103.72856 Z"
     fill="#e95420"
     id="path48"
     style="stroke-width:0.288889" />
  <path
     d="M 210.84826,173.37534 C 210.85058,173.3762 210.85289,173.37707 210.8552,173.37765 L 210.85318,173.37678 Z"
     fill="#e95420"
     id="path50"
     style="stroke-width:0.288889" />
  <path
     d="M 139.73105,108.60529 C 139.6308,108.59431 139.53114,108.57814 139.4332,108.55676 H 139.43291 V 108.55734 C 138.55815,108.36985 137.82755,107.81142 137.41675,107.01929 137.0932,107.16662 136.72891,107.2114 136.37849,107.14669 136.87566,108.36754 137.93011,109.25414 139.22434,109.53176 139.50802,109.59271 139.79749,109.62219 140.08638,109.62016 139.86335,109.32722 139.73942,108.97362 139.73105,108.60529 Z"
     fill="#e95420"
     id="path52"
     style="stroke-width:0.288889" />
  <path
     d="M 188.04829,167.88587 C 188.05782,167.8876 188.06706,167.88934 188.0766,167.89107 L 188.06042,167.88702 Z"
     fill="#e95420"
     id="path54"
     style="stroke-width:0.288889" />
  <path
     d="M 141.75095,103.98451 C 142.42146,103.98451 142.96486,103.44082 142.96486,102.77031 142.96486,102.10009 142.42146,101.5564 141.75095,101.5564 141.08045,101.5564 140.53705,102.10009 140.53705,102.77031 140.53705,103.44082 141.08045,103.98451 141.75095,103.98451 Z"
     fill="#e95420"
     id="path56"
     style="stroke-width:0.288889" />
  <path
     d="M 141.47766,109.77818 C 142.14818,109.77818 142.69158,109.23449 142.69158,108.56427 142.69158,107.89376 142.14818,107.35036 141.47766,107.35036 140.80715,107.35036 140.26375,107.89376 140.26375,108.56427 140.26375,109.23449 140.80715,109.77818 141.47766,109.77818 Z"
     fill="#e95420"
     id="path58"
     style="stroke-width:0.288889" />
  <path
     d="M 233.83342,133.5286 C 233.83342,122.91858 228.61291,113.51005 220.61069,107.71956 L 219.33525,114.10342 C 220.07335,114.59511 222.40902,116.28742 224.60834,119.34647 227.0038,122.67851 229.65002,128.31474 228.65335,136.24242 227.88925,142.32354 225.09222,147.26469 220.34115,150.92925 212.03531,157.33478 199.30514,158.56862 190.7286,158.56862 185.42431,158.56862 181.70805,158.09687 181.61185,158.08358 181.57314,158.07867 181.53875,158.06336 181.50554,158.04718 177.19474,157.47634 173.13065,156.33782 169.7206,155.12507 169.53455,155.05834 169.4372,154.8538 169.50335,154.66805 169.5698,154.48114 169.77462,154.38522 169.96038,154.45051 173.18726,155.59856 177.00666,156.68218 181.0618,157.26689 L 174.95151,152.53287 C 178.52102,149.4926 180.58109,147.08067 181.77015,145.34705 182.29738,144.45785 182.74718,143.57558 183.12562,142.71758 180.88211,140.46165 178.85122,137.84807 177.27129,134.84882 177.26955,134.89794 177.26869,134.94329 177.26638,134.99414 177.57866,136.16067 177.74766,137.38585 177.74766,138.65089 177.74766,146.44222 171.4314,152.75849 163.64006,152.75849 155.84845,152.75849 149.53246,146.44222 149.53246,138.65089 149.53246,132.36669 153.6422,127.04478 159.32002,125.21987 151.44578,103.65749 140.04391,61.006514 140.04391,61.006514 140.00202,60.872469 139.95695,61.006514 139.95695,61.006514 139.95695,61.006514 128.55509,103.65749 120.68085,125.21987 126.35866,127.04478 130.4684,132.36669 130.4684,138.65089 130.4684,146.44222 124.15242,152.75849 116.3608,152.75849 108.56946,152.75849 102.2532,146.44222 102.2532,138.65089 102.2532,137.38585 102.4222,136.16067 102.73449,134.99414 102.73218,134.94329 102.73131,134.89794 102.72958,134.84882 101.14965,137.84807 99.118755,140.46165 96.875245,142.71758 97.253689,143.57558 97.703489,144.45785 98.230711,145.34705 99.419778,147.08067 101.47984,149.4926 105.04935,152.53287 L 98.939066,157.26689 C 102.9942,156.68218 106.8136,155.59856 110.04049,154.45051 110.22625,154.38522 110.43106,154.48114 110.49751,154.66805 110.56366,154.8538 110.46631,155.05834 110.28026,155.12507 106.87022,156.33782 102.80613,157.47634 98.495334,158.04718 98.462111,158.06336 98.427734,158.07867 98.389022,158.08358 98.293111,158.09687 94.576555,158.56862 89.272266,158.56862 80.695734,158.56862 67.965555,157.33478 59.659711,150.92925 54.908645,147.26469 52.111622,142.32354 51.347511,136.24242 50.350845,128.31474 52.997066,122.67851 55.392534,119.34647 57.591555,116.28742 59.927511,114.59511 60.665622,114.10342 L 59.390178,107.71956 C 51.387955,113.51005 46.167445,122.91858 46.167445,133.5286 46.167445,138.85369 47.482755,143.87689 49.8034,148.29285 L 49.8008,148.29198 63.458889,174.45347 C 69.424445,167.75442 101.18027,162.44956 139.95695,162.4458 H 140.04391 C 178.8206,162.44956 210.57642,167.75442 216.54198,174.45347 L 230.20006,148.29198 230.19746,148.29285 C 232.51811,143.87689 233.83342,138.85369 233.83342,133.5286 Z M 140.35794,111.86829 V 150.46009 C 141.95838,150.63718 143.20926,151.999 143.20926,153.65607 143.20926,155.42205 141.77031,156.73967 140.00434,156.73967 138.23229,156.73967 136.7916,155.42205 136.7916,153.65607 136.7916,152.00131 138.04075,150.64151 139.64265,150.46125 V 111.86829 C 136.34786,111.68196 133.73169,108.95889 133.73169,105.6176 133.73169,102.15556 136.53825,99.348714 140.00058,99.348714 143.46262,99.348714 146.26918,102.15556 146.26918,105.6176 146.26918,108.95919 143.653,111.68196 140.35794,111.86829 Z"
     fill="#e95420"
     id="path60"
     style="stroke-width:0.288889" />
  <path
     d="M 142.6832,104.2578 C 143.01109,104.87516 143.11075,105.58785 142.964,106.27339 142.89178,106.60878 142.76495,106.92511 142.58642,107.214 142.87185,107.44829 143.07349,107.76347 143.16709,108.11794 143.54466,107.64214 143.81045,107.07967 143.93842,106.48196 144.16174,105.43936 143.95315,104.34534 143.36585,103.45816 143.22602,103.78779 142.98885,104.06598 142.6832,104.2578 Z"
     fill="#e95420"
     id="path62"
     style="stroke-width:0.288889" />
  <path
     d="M 102.53747,103.12074 C 102.65418,103.84671 102.28902,104.59031 101.58876,104.91358 100.82493,105.26631 99.938045,104.99302 99.487378,104.31269 97.390911,105.21489 95.387178,106.26962 93.6992,107.4948 101.75371,109.11229 111.04091,102.49876 114.09505,100.09058 111.89342,100.49069 107.24665,101.44865 102.53747,103.12074 Z"
     fill="#e95420"
     id="path64"
     style="stroke-width:0.288889" />
  <path
     d="M 143.16709,108.1188 H 143.16738 L 143.16709,108.11794 V 108.11822 Z"
     fill="#e95420"
     id="path66"
     style="stroke-width:0.288889" />
  <path
     d="M 79.773889,134.00382 C 85.090889,134.00382 89.416422,138.32936 89.416422,143.64636 89.416422,145.48369 88.898155,147.24765 87.948578,148.76229 90.649111,147.11534 93.464911,145.06307 96.025334,142.55176 93.958911,137.61118 94.065222,133.55027 94.067822,133.48267 93.9722,128.41094 94.880178,124.01549 96.310755,120.24954 89.036534,119.36987 83.271755,120.57829 78.845978,122.52194 76.800066,123.50676 74.357511,124.89111 72.042934,126.72874 71.437711,127.23371 70.887666,127.73378 70.396266,128.21449 L 74.834178,129.38854 C 75.025134,129.43909 75.138955,129.63496 75.0884,129.82591 75.045934,129.98625 74.9012,130.09227 74.7426,130.09227 74.712555,130.09227 74.681645,130.08851 74.651022,130.08014 L 69.814445,128.80065 C 68.477178,130.19078 67.637666,131.35847 67.256045,131.93365 L 76.341311,134.6466 C 77.409334,134.23754 78.563445,134.00382 79.773889,134.00382 Z"
     fill="#e95420"
     id="path68"
     style="stroke-width:0.288889" />
  <path
     d="M 71.624045,138.51569 64.782866,136.47296 C 64.406445,137.58807 64.134889,138.76991 63.993334,140.02109 L 70.297178,141.9032 C 70.522222,140.67687 70.980978,139.53345 71.624045,138.51569 Z"
     fill="#e95420"
     id="path70"
     style="stroke-width:0.288889" />
  <path
     d="M 75.338,135.0938 66.693289,132.51229 C 66.0404,133.53294 65.4762,134.62811 65.026111,135.79869 L 72.051311,137.89631 C 72.920578,136.73238 74.0406,135.76922 75.338,135.0938 Z"
     fill="#e95420"
     id="path72"
     style="stroke-width:0.288889" />
  <path
     d="M 96.576245,119.5588 C 98.3038,115.29336 100.69811,111.87609 103.03898,109.26165 102.69607,108.37707 102.40949,107.75711 102.26533,107.46014 100.35665,108.05987 98.3298,108.4594 96.3044,108.4594 95.221645,108.4594 94.1412,108.33894 93.078666,108.08298 93.023778,112.58791 91.5074,117.23527 86.392334,119.62265 89.407755,119.16909 92.792666,119.08502 96.576245,119.5588 Z"
     fill="#e95420"
     id="path74"
     style="stroke-width:0.288889" />
  <path
     d="M 140.04391,165.58862 H 139.95695 C 98.755045,165.58862 64.436778,171.85289 64.436778,179.58962 V 182.38491 C 64.439666,182.37971 64.443711,182.37509 64.4466,182.36989 V 188.40102 C 64.457,188.38514 64.468555,188.36925 64.478955,188.35307 64.471734,188.41691 64.4466,188.47989 64.4466,188.54402 64.4466,194.6416 98.798666,199.58536 140.00058,199.58536 181.2022,199.58536 215.55426,194.6416 215.55426,188.54402 215.55426,188.47989 215.52914,188.41691 215.52162,188.35307 215.53231,188.36925 215.54386,188.38514 215.55426,188.40102 V 182.36989 C 215.55715,182.37509 215.5612,182.37971 215.56409,182.38491 V 179.58962 C 215.56409,171.85289 181.24582,165.58862 140.04391,165.58862 Z M 199.78354,175.06245 C 201.55529,175.06245 202.99598,176.5014 202.99598,178.27894 202.99598,180.0452 201.55529,181.48387 199.78354,181.48387 198.01726,181.48387 196.5786,180.0452 196.5786,178.27894 196.5786,176.5014 198.01726,175.06245 199.78354,175.06245 Z M 140.00434,170.22587 C 141.77031,170.22587 143.20926,171.66482 143.20926,173.44236 143.20926,175.20862 141.77031,176.52625 140.00434,176.52625 138.23229,176.52625 136.7916,175.20862 136.7916,173.44236 136.7916,171.66482 138.23229,170.22587 140.00434,170.22587 Z M 80.3612,175.06245 C 82.127178,175.06245 83.566134,176.5014 83.566134,178.27894 83.566134,180.0452 82.127178,181.48387 80.3612,181.48387 78.589155,181.48387 77.148466,180.0452 77.148466,178.27894 77.148466,176.5014 78.589155,175.06245 80.3612,175.06245 Z M 140.07222,196.0794 C 102.01833,196.0794 75.166978,191.88965 68.961934,188.54142 75.163511,185.18598 102.01342,180.98438 140.07222,180.98438 178.13102,180.98438 204.98094,185.18598 211.18251,188.54142 204.97746,191.88965 178.1264,196.0794 140.07222,196.0794 Z"
     fill="#e95420"
     id="path76"
     style="stroke-width:0.288889" />
  <path
     d="M 69.145666,173.37765 C 69.147978,173.37707 69.150289,173.3762 69.1526,173.37534 L 69.147689,173.37678 Z"
     fill="#e95420"
     id="path78"
     style="stroke-width:0.288889" />
  <path
     d="M 91.924266,167.89107 C 91.9338,167.88934 91.943045,167.8876 91.952578,167.88587 L 91.940445,167.88702 Z"
     fill="#e95420"
     id="path80"
     style="stroke-width:0.288889" />
  <path
     d="M 70.563822,146.51358 C 70.2784,145.59462 70.131066,144.63002 70.131066,143.64636 70.131066,143.29854 70.151866,142.95562 70.187978,142.61734 L 63.925734,140.74765 C 63.839355,141.9578 63.8746,143.23094 64.049089,144.5682 Z"
     fill="#e95420"
     id="path82"
     style="stroke-width:0.288889" />
  <path
     d="M 52.057311,136.15316 C 52.796866,142.03754 55.501445,146.81807 60.095355,150.36187 67.373045,155.97498 78.1538,157.54047 86.409378,157.81 84.387734,157.40758 82.390066,156.79687 80.456534,155.92009 74.429734,153.18691 71.921311,149.2612 71.817311,149.09538 71.436845,148.54274 71.122534,147.95369 70.868022,147.34067 70.844622,147.33836 70.821511,147.33749 70.798111,147.33056 L 64.167245,145.35022 C 64.282511,146.03402 64.429845,146.73198 64.6208,147.44871 65.498155,149.50589 66.852466,151.18202 68.443089,152.54529 60.778,148.0704 56.784689,141.6328 56.784689,133.5286 56.784689,128.313 58.678934,123.53391 61.810778,119.83411 L 60.819022,114.87129 C 58.757222,116.3478 50.426245,123.17974 52.057311,136.15316 Z"
     fill="#e95420"
     id="path84"
     style="stroke-width:0.288889" />
  <defs
     id="defs100">
    <linearGradient
       id="paint0_linear_3356_10970"
       x1="147.918"
       y1="127.611"
       x2="739.57397"
       y2="795.22302"
       gradientUnits="userSpaceOnUse"
       gradientTransform="matrix(0.28888889,0,0,0.28888889,9.9988451,9.9566684)">
      <stop
         stop-color="#501737"
         id="stop86" />
      <stop
         offset="0.358002"
         stop-color="#581D3D"
         id="stop88" />
      <stop
         offset="0.68346"
         stop-color="#571D3D"
         id="stop90" />
      <stop
         offset="1"
         stop-color="#76293D"
         id="stop92" />
    </linearGradient>
    <radialGradient
       id="paint1_radial_3356_10970"
       cx="0"
       cy="0"
       r="1"
       gradientUnits="userSpaceOnUse"
       gradientTransform="matrix(-360.18441,331.00936,-1241.4297,-1350.8489,771.128,135)">
      <stop
         id="stop95" />
      <stop
         offset="0.591391"
         stop-color="white"
         id="stop97" />
    </radialGradient>
  </defs>
</svg>
