<svg width="280" height="280" fill="none" version="1.1" viewBox="0 0 280 280" xmlns="http://www.w3.org/2000/svg">
 <g transform="matrix(.2889 0 0 .2889 9.999 9.957)" clip-path="url(#c)">
  <path d="m450 900.2c248.5 0 450-201.5 450-450s-201.5-450-450-450-450 201.5-450 450 201.5 450 450 450z" fill="url(#b)"/>
  <g style="mix-blend-mode:multiply">
   <path d="m450 900.2c248.5 0 450-201.5 450-450s-201.5-450-450-450-450 201.5-450 450 201.5 450 450 450z" fill="url(#a)" fill-opacity=".5"/>
  </g>
  <g stroke="#e95420" stroke-miterlimit="10">
   <path d="m212.6 545.4 53.06-20.55m-9.672-30.63-56.28 10.75m31.03 77.1 49.3-28.88m-25.25 62.06 43.79-36.4m-16.66 63.81 38.15-42.31m-4.836 67.3 30.36-48.76m-150.9-155.1 56.82-1.612m-55.75-39.36 56.42 7.656m-48.9-48.36 54.81 16.39m-39.36-57.22 51.31 25.66m-30.09-62.46 46.34 34.12m21.36-25.66-40.3-40.57m65.69 18.81-32.78-46.75m38.82-23.1 17.87 38.69 6.179 13.3m-102.9 236.8-31.84 9.403m13.3 34.12 30.36-14.1m-11.15 46.61 27.27-20.15m-3.895 47.42 24.18-23.91m3.627 48.09 20.02-27.67m-81-163.3-32.78-1.612m3.627-35.6 32.37 5.776m-22.43-44.87 30.9 13.3m-42.85 99.94 33.18-4.03m19.21-175.2 24.04 20.55m-47.42 10.08 28.34 17.33m21.49-76.43 21.49 24.98m11.02-48.76 16.79 29.15m337.3 262.6-54.94-20.55m66.76-20.28-57.36-10.34m-23.51 59.1 51.18 28.88m-69.58-3.09 45.4 36.94m-66.63-15.31 39.09 43.66m-64.48-24.85 31.57 49.16m61.12-206.7 58.43 1.343m-1.344-40.97-58.03 8.059m-6.313-32.1 56.02-17.73m-67.97-13.7 51.98-26.6m-68.64-1.612 46.48-34.79m-67.97 9.403 40.84-41.1m-32.91-28.07-33.58 47.55m-30.22-17.6 6.045-13.43 18.27-38.96m80.6 288.4 33.99 9.538m-45.54 20.02 32.1 15.45m-48.09 11.15 29.15 19.61m-49.16 4.03 25.25 24.18m-27.67 23.64-21.22-27.27m-41.1 24.98 25.39 52.66m-11.15-60.04 17.73 29.69m88.92-211.3 34.79-1.344m-3.493-36.4-34.79 6.314m23.78-45.27-32.51 13.84m45.27 100.1-34.92-4.299m-44.46-154.1 25.12-22.03m23.64 31.43-29.55 17.87m-43.25-51.18 22.7-25.79m-50.64 6.313 16.52-30.09m-202.4 378.3-17.06 29.55m8.06 27.54 24.85-51.72m-124.8-182.2c0-7.119 0.268-14.24 1.074-21.09 1.075-11.02 3.224-21.63 6.045-32.1 2.955-11.02 6.985-21.49 11.69-31.57 4.701-9.94 10.21-19.48 16.52-28.34 6.313-9.135 13.43-17.6 21.22-25.52 7.791-7.925 16.39-15.31 25.39-21.76 9.403-6.851 19.48-12.76 30.09-17.87 25.39-12.09 53.73-18.94 83.82-19.07 108.5-0.403 196.9 87.18 197.5 195.9 0.537 108.7-87.18 196.9-195.9 197.5-82.61 0.403-153.7-50.37-183-122.5-9.269-22.84-14.37-47.55-14.51-73.48z" stroke-linecap="round" stroke-width="2.665"/>
   <path d="m643.6 225.1c-39.36-33.58-91.75-57.22-144.8-66.9m-98.06-1.209c-61.66 8.866-111 35.06-154.5 75.63m-93.22 176.4c-2.15 14.24-3.224 28.88-3.224 43.66 0 53.19 13.84 103.2 38.15 146.4m38.69-346.4c-28.48 31.7-50.37 69.58-63.27 111.4m331.8 386.2c49.84-9.268 105-34.25 142.9-64.88m-426.5-51.85c46.48 60.85 106.5 102.6 185.9 114.2m277.7-98.06c43.39-49.57 70.79-113.6 73.88-183.9m-1.209-34.52c-4.567-63.4-29.69-122.5-67.57-168.9m-457-19.88c0-7.388 5.91-13.3 13.3-13.3s13.3 5.91 13.3 13.3-5.911 13.3-13.3 13.3c-7.388-0.134-13.3-6.045-13.3-13.3zm-66.09 166.6c12.76 0 23.24-10.34 23.24-23.24 0-12.76-10.34-23.24-23.24-23.24-12.9 0-23.24 10.34-23.24 23.24 0 12.76 10.48 23.24 23.24 23.24zm507-141c14.37 0 25.92-11.69 25.92-25.93s-11.69-25.92-25.92-25.92c-14.37 0-25.92 11.69-25.92 25.92s11.55 25.93 25.92 25.93zm84.09 163.2c-9.403 0-17.06 7.657-17.06 17.06s7.657 17.06 17.06 17.06 17.06-7.657 17.06-17.06-7.656-17.06-17.06-17.06zm-548.9 206.2c11.42 0 20.82-9.268 20.82-20.82 0-11.55-9.269-20.82-20.82-20.82-4.164 0-8.06 1.209-11.28 3.358-5.641 3.761-9.537 10.07-9.537 17.46 0 11.55 9.269 20.82 20.82 20.82zm486.8 34.39c0-9.135-4.702-17.06-11.82-21.76-4.03-2.686-9-4.164-14.24-4.164-14.37 0-25.92 11.69-25.92 25.93 0 4.97 1.343 9.537 3.761 13.57 4.567 7.388 12.76 12.36 22.16 12.36 14.37 0 26.06-11.69 26.06-25.92zm-234.7-464.4c27.13 0 49.16-22.03 49.16-49.16 0-27.13-22.03-49.16-49.16-49.16-27.14 0-49.16 22.03-49.16 49.16 0 27.14 22.03 49.16 49.16 49.16zm47.82-48.9s-13.43 24.31-49.43 24.31c0 0-29.15-0.671-47.42-25.79 0 0 19.48-20.42 47.42-20.82 0 0.135 27.67-0.671 49.43 22.3zm-25.66 4.164c1.881-14.64-10.48-27-25.12-25.25-10.08 1.209-18.14 9.403-19.48 19.34-1.881 14.64 10.48 27 25.25 25.25 10.07-1.209 18.13-9.403 19.34-19.34z" stroke-linecap="round" stroke-width="2.665"/>
   <path d="m465.8 745.7-3.896-17.73-14.1-2.149 15.72-2.955 2.552-17.06 2.821 17.06 14.64 2.955-12.9 2.149z" fill="#e95420" stroke-width="1.343"/>
   <g stroke-linecap="round">
    <path d="m446.2 791.5c26.06 0 47.28-20.28 48.9-45.94 0-0.94 0.135-2.015 0.135-2.955 0-27-21.9-48.9-48.9-48.9s-48.9 21.9-48.9 48.9c0 1.746 0.135 3.358 0.269 4.97 2.418 24.72 23.24 43.93 48.49 43.93z" stroke-width="2.665"/>
    <g stroke-width="2.452">
     <path d="m429.1 755.8c0.806 1.478 1.612 2.553 3.224 4.299 2.149 2.283 4.03 3.224 4.567 3.627 2.284 1.209 2.552 1.209 3.896 1.746"/>
     <path d="m447.9 766.7c0.94 0 1.881 0.134 3.627-0.134 1.343-0.269 2.418-0.403 3.089-0.806"/>
     <path d="m446.4 773.8c15.58 0 28.08-12.63 28.08-28.07 0-2.956-0.403-5.776-1.209-8.329 0 0-2.955-9.537-11.28-15.04-0.671-0.403-1.343-0.806-1.343-0.806-1.074-0.537-3.089-1.746-5.91-2.552-2.687-0.806-5.508-1.209-8.329-1.209-15.58 0-28.07 12.63-28.07 28.08s12.63 27.94 28.07 27.94z"/>
     <path d="m436.1 728.5c-1.343 0.671-2.149 1.209-4.164 3.492-3.761 4.164-4.702 8.463-5.105 10.61-0.403 2.015-0.537 4.03-0.134 6.851"/>
    </g>
   </g>
   <path d="m157.2 408.3c12.46 0 22.57-10.1 22.57-22.57s-10.1-22.57-22.57-22.57c-12.46 0-22.57 10.1-22.57 22.57s10.1 22.57 22.57 22.57z" fill="#e85420" stroke-width="1.343"/>
  </g>
  <path d="m689.9 242c0 14.24-11.55 25.66-25.66 25.66-14.1 0-25.66-11.55-25.66-25.66" fill="#e85420"/>
  <path d="m689.9 242c0 14.24-11.55 25.66-25.66 25.66-14.1 0-25.66-11.55-25.66-25.66" stroke="#e95420" stroke-miterlimit="10" stroke-width="1.343"/>
  <path d="m659.9 645.2c14.64 0 26.46 11.82 26.46 26.46 0 14.64-11.82 26.46-26.46 26.46" fill="#e85420"/>
  <path d="m659.9 645.2c14.64 0 26.46 11.82 26.46 26.46 0 14.64-11.82 26.46-26.46 26.46" stroke="#e95420" stroke-miterlimit="10" stroke-width="1.343"/>
  <g fill="#e85420" stroke="#e95420" stroke-miterlimit="10" stroke-width="1.343">
   <path d="m583.2 378.1 33.72 8.194-34.52 8.329z"/>
   <path d="m575.3 411.6 6.179 26.6-0.538 21.09-4.567 27.67-7.791 21.36-12.49 20.82-18.54 20.15-16.39 12.63-36.94 16.79-34.93 5.105-30.36-3.09-21.76-7.657-16.25-8.194-17.06-11.55 32.37-37.48 3.896 2.687 5.776 3.761 11.02 5.776 7.254 3.09 8.865 2.283 9.941 1.478 9 0.269 9.268-0.672 9.001-1.612 7.791-2.284 10.21-4.164 9.134-5.507 8.328-6.448 6.985-6.985 5.911-6.985 5.507-9.269 5.642-11.69 2.552-8.732 1.612-8.194 0.135-7.522 0.134-9.806-1.075-9.135-0.403-6.582 9.538-0.268 14.1-3.493 11.96-7.254z"/>
   <path d="m539 392.6c4.303 0 7.791-3.488 7.791-7.791s-3.488-7.791-7.791-7.791-7.791 3.488-7.791 7.791 3.488 7.791 7.791 7.791z"/>
  </g>
  <g fill="#e95420">
   <path d="m444.6 161.9c1.409 0 2.552-1.143 2.552-2.553 0-1.409-1.143-2.552-2.552-2.552-1.41 0-2.552 1.143-2.552 2.552 0 1.41 1.142 2.553 2.552 2.553z"/>
   <path d="m455.2 156.3c1.409 0 2.552-1.143 2.552-2.553 0-1.409-1.143-2.552-2.552-2.552-1.41 0-2.553 1.143-2.553 2.552 0 1.41 1.143 2.553 2.553 2.553z"/>
   <path d="m450.2 166.1c-1.881-0.403-3.359-1.612-4.165-3.224-0.671 0.268-1.477 0.403-2.149 0.268 1.075 2.553 3.224 4.433 5.911 5.105 0.537 0.134 1.209 0.134 1.746 0.134-0.403-0.671-0.672-1.343-0.806-2.149 0-0.134-0.269-0.134-0.537-0.134z"/>
   <path d="m454.5 168.6c1.41 0 2.552-1.143 2.552-2.552 0-1.41-1.142-2.553-2.552-2.553s-2.552 1.143-2.552 2.553c0 1.409 1.142 2.552 2.552 2.552z"/>
   <path d="m458.1 165.1c0.806-1.074 1.343-2.149 1.612-3.492 0.403-2.149 0-4.567-1.209-6.448-0.269 0.672-0.806 1.343-1.478 1.746 0.672 1.344 0.941 2.821 0.538 4.299-0.135 0.672-0.403 1.343-0.806 2.015 0.671 0.403 1.074 1.074 1.343 1.88z"/>
   <path d="m444.3 155.7h0.134c0.269 0 0.538 0 0.806 0.135 0.403 0.134 0.806 0.268 1.209 0.537 1.209-1.612 2.956-2.687 4.971-2.687 0-0.134 0-0.403 0.134-0.537 0.134-0.537 0.403-1.074 0.671-1.477-3.223-0.538-6.313 1.074-7.925 4.029z"/>
  </g>
  <g stroke="#e95420" stroke-miterlimit="10">
   <path d="m396.6 516.7-73.88 82.88-23.64-23.64 78.31-78.72 111.1-114.6 3.896-4.03m13.84 259.9-29.15-58.3-18.81 2.418 29.96 59.91m49.43-213c15.45 0 29.15-7.657 37.34-19.48 0.268-0.268 0.403-0.671 0.671-0.94 4.836-7.254 7.523-15.85 7.523-25.12 0-25.12-20.42-45.54-45.54-45.54-25.12 0-45.54 20.42-45.54 45.54 0 25.12 20.42 45.54 45.54 45.54zm45.14-35.19 32.24-8.597-31.16-7.254z" stroke-width="5.712"/>
   <path d="m343.4 530.5c-16.79-22.16-26.73-49.7-26.73-79.66 0-72.81 59.1-131.9 131.9-131.9 27.13 0 52.39 8.194 73.34 22.3" stroke-width="3.732"/>
   <path d="m574.1 410.4c4.164 12.76 6.313 26.46 6.313 40.57 0 72.81-59.1 131.9-131.9 131.9-31.84 0-60.98-11.28-83.69-29.96" stroke-width="5.712"/>
   <path d="m378.7 496.8c-8.597-13.16-13.43-28.88-13.43-45.67 0-46.48 37.61-84.09 84.09-84.09 15.72 0 30.49 4.299 43.12 11.82" stroke-width="2.665"/>
   <path d="m530.5 428.8c1.881 7.12 2.955 14.51 2.955 22.3 0 46.48-37.61 84.09-84.09 84.09-20.82 0-40.3-7.791-54.94-20.28" stroke-width="1.348"/>
  </g>
 </g>
 <defs>
  <linearGradient id="b" x1="147.9" x2="739.6" y1="127.6" y2="795.2" gradientUnits="userSpaceOnUse">
   <stop stop-color="#501737" offset="0"/>
   <stop stop-color="#581D3D" offset=".358"/>
   <stop stop-color="#571D3D" offset=".6835"/>
   <stop stop-color="#76293D" offset="1"/>
  </linearGradient>
  <radialGradient id="a" cx="0" cy="0" r="1" gradientTransform="matrix(-360.2 331 -1241 -1351 771.1 135)" gradientUnits="userSpaceOnUse">
   <stop offset="0"/>
   <stop stop-color="#fff" offset=".5914"/>
  </radialGradient>
  <clipPath id="c">
   <rect width="900" height="901" fill="#fff"/>
  </clipPath>
 </defs>
</svg>
