<?xml version="1.0" encoding="UTF-8"?><svg id="a" xmlns="http://www.w3.org/2000/svg" viewBox="0 0 900 900"><path d="M838.0978,219.5449c-4.1262,7.6933-24.8553,38.4971-36.3619,49.7051-15.3534,14.9551-31.9898,23.2702-44.6502,29.4829-16.454,8.0742-25.4481,10.1102-43.1366,21.3751-11.1234,7.0839-16.8591,12.1966-18.9196,19.9009-2.9458,11.0149,3.246,21.2508,3.7839,22.1121,4.2039,6.7316,7.884,6.1863,13.6221,13.2673,5.4545,6.7309,7.0939,13.3502,9.0814,21.3751,3.0247,12.2126,5.6177,22.6817,0,32.4312-1.032,1.791-5.8658,10.1802-14.3789,11.7931-9.0414,1.7131-14.1393-5.7507-19.6764-2.9483-4.4859,2.2705-2.5159,7.866-7.5678,18.4268-2.502,5.2303-7.4135,15.4976-14.3789,16.2156-8.6185.8883-11.7467-13.7334-21.9467-14.0044-8.3409-.2216-15.9394,9.2983-18.9196,16.9527-3.4187,8.7805.1471,12.776,0,23.5863-.3067,22.5462-16.1026,26.1492-15.8924,46.4355.1433,13.8263,7.6062,24.2509,11.3517,29.4829,8.382,11.7083,21.0796,26.8749,33.0318,33.1516,24.1182,12.6656,45.6818,19.8933,50.6384,21.3577,12.1552,3.5912,19.6622,6.5325,27.9028,8.4861,4.5126,1.0698,11.9568,2.2909,16.5086,10.5614,4.317,7.8439-.7846,13.541,2.1313,19.0324,6.3336,11.9276,26.2103,4.9323,43.0904,4.7043,8.9901-.1214,57.4065,3.693,59.7794,21.6592" fill="none" opacity=".5" stroke="gray" stroke-miterlimit="10" stroke-width="1.7493"/><path d="M877.739,261.9077c-20.1132-22.3731-54.9158,8.3617-66.6463,20.7233-9.4855,9.9958-18.4534,16.1968-32.3046,23.8447-14.8041,8.174-31.3752,14.8595-33.4793,15.7026-4.6217,1.8518-14.1147,5.5289-25.2563,12.7947-10.1342,6.6088-11.977,9.8901-12.3345,12.7947-.5449,4.427,2.4754,7.045,9.3977,16.8657,4.3974,6.2387,8.7017,12.3453,11.7471,18.6105,6.093,12.5349,6.3871,24.1417,6.4609,29.0789.1063,7.1123.2387,15.9647-4.6989,25.5894-2.9288,5.709-6.026,11.7464-12.3345,13.9578-8.1544,2.8586-14.8997-3.05-20.5575,1.1632-1.7756,1.3222-2.0938,2.6359-4.1115,7.5605-5.5097,13.4478-8.2645,20.1716-12.9219,23.8447-4.4294,3.4933-11.0121,5.6252-17.0333,4.6526-5.0103-.8093-5.9904-3.18-15.2713-6.9789-7.2242-2.9571-11.3639-4.6515-13.5092-2.9079-2.7702,2.2516.7311,7.8418,1.1747,18.6105.3984,9.6729-1.9332,17.1409-2.9368,20.3552-4.1898,13.4193-9.6903,13.6628-11.1598,23.2631-1.6501,10.7804,3.8436,19.8952,5.8736,23.2631,5.2744,8.7508,11.205,19.5552,22.4052,26.3312,7.0234,4.2491,12.7095,6.7099,24.0816,11.6315,10.2103,4.4188,12.8762,7.6839,20.4677,9.7794,11.946,3.2974,18.352-1.8596,25.8793-.3127,3.8447.7901,11.6392,2.2411,19.9387,10.7283,9.4331,9.6464,12.9376,20.7918,13.5092,22.6815,2.5646,8.478,1.1647,11.7279,4.6989,15.121,3.9781,3.8193,9.6324,3.4275,20.5575,2.9079,6.6467-.3161,67.2585-1.2219,93.4765-16.9348" fill="none" opacity=".5" stroke="gray" stroke-miterlimit="10" stroke-width="1.7493"/><path d="M339.8582,627.9171c-.9879,9.5883-8.2736,10.3576-13.0888,22.0444-5.908,14.339.7187,23.7172-4.8222,27.5554-7.6493,5.2987-25.3373-9.0705-26.8665-10.3333-3.8034-3.1407-22.0057-18.1718-17.911-32.3776,1.8488-6.4141,7.8918-9.7871,19.9777-16.5333,15.0903-8.4231,26.1408-14.5913,34.4443-9.6444,6.191,3.6883,8.9728,12.4342,8.2666,19.2888Z" fill="none" opacity=".5" stroke="gray" stroke-miterlimit="10" stroke-width="3.4986"/><path d="M310.2362,623.7838c-10.1551-2.2668-21.2975,10.605-19.5034,16.26.9853,3.1056-1.598,7.6132,3.072,12.3133,6.088,6.1272,10.9382,7.6634,13.8068,8.3488,4.5852,1.0955,17.4514-15.3176,12.2689-27.9666-.2778-.6779-3.1993-7.5168-9.6444-8.9555Z" fill="none" opacity=".5" stroke="gray" stroke-miterlimit="10" stroke-width="1.7493"/><path d="M224.1289,747.9708c-11.7106,2.9652-17.8685,14.9123-13.9903,24.4647,3.0244,7.4495,11.6255,12.1443,19.9861,11.7793,11.5187-.5029,22.1548-10.5917,19.9861-21.7464-2.0297-10.4393-14.4214-17.4248-25.9819-14.4976Z" fill="none" opacity=".5" stroke="gray" stroke-miterlimit="10" stroke-width="1.4994"/><path d="M129.8809,496.514c-7.56,1.3798-11.4167,10.4477-13.3708,15.0422-6.1318,14.4169-4.2376,28.6863-2.7856,35.6555.3737,1.7938,4.3398,11.4341,12.2566,30.6414,15.6038,37.8571,8.4634,19.0989,9.471,21.7276,4.3672,11.394,5.1151,15.7756,9.471,17.8277,5.243,2.4701,13.226.3932,16.7135-4.4569,3.4568-4.8074,1.295-10.6677-3.3427-26.7416-4.9544-17.1716-7.4316-25.7575-8.9139-33.427-4.4132-22.8351-5.5712-36.7697-5.5712-36.7697-.5431-6.5358-1.0078-15.1028-6.6854-18.3849-3.0505-1.7634-6.3526-1.2767-7.2425-1.1142Z" fill="none" opacity=".5" stroke="gray" stroke-miterlimit="10" stroke-width="1.7493"/><path d="M847.6673,341.2722c-26.2495-3.1623-47.1576,26.0557-49.6034,29.5713-7.5769,10.8908-10.5599,22.9892-16.2165,46.7417-8.8913,37.3347-4.437,41.3173-12.4009,54.3731-13.3433,21.8746-38.1612,30.8809-47.6956,34.3409-29.2453,10.6129-46.6104,3.2227-51.5113,13.3547-4.8718,10.072,6.2313,29.8964,21.94,37.2025,19.7756,9.1976,32.6032-8.0703,52.4652.9539,14.6649,6.6629,10.5701,17.3932,32.433,32.4331,8.2248,5.6579,18.8835,12.7789,33.3869,12.4008,1.5292-.0399,15.1539-.5719,26.7096-9.5392,10.7247-8.3224,14.724-20.0747,20.9861-64.866,6.8288-48.8454,10.2432-73.2681,7.6313-86.806-4.8162-24.9631-14.3012-36.6875-7.6313-55.3269,5.0774-14.1891,15.4168-20.9288,12.4008-30.5252-2.7788-8.8417-14.7648-13.3294-22.8939-14.3087Z" fill="none" opacity=".5" stroke="gray" stroke-miterlimit="10" stroke-width="3.4986"/><path d="M810.4647,459.5574c-6.7171,2.1737-10.6633,8.0075-22.8939,44.8338-10.5338,31.7175-10.7332,36.8041-7.6313,40.0643,5.8578,6.1568,21.1735,3.3661,30.5252-3.8157,3.8091-2.9253,7.3249-7.1138,15.2626-35.2948,9.2016-32.668,7.515-37.8244,4.7696-41.0182-4.4817-5.2136-13.2919-6.9507-20.0322-4.7695Z" fill="none" opacity=".5" stroke="gray" stroke-miterlimit="10" stroke-width="1.7493"/><path d="M331.0017,368.1992c-.4566-5.3235-3.8552-8.1344-18.566-20.4226-28.7878-24.0471-29.2761-24.5623-37.132-30.6339-16.2593-12.5662-23.8425-17.8364-35.2754-21.3509-9.1657-2.8176-13.5782-2.2851-15.7811-1.8566-11.6462,2.2653-13.1373,11.6607-24.1358,17.6377-8.4429,4.5882-10.5803,3.0355-34.6963,2.8777-6.1567-.0403-18.6852,5.498-34.5766,7.4577-25.6544,3.1635-31.8824,1.8885-56.9759,5.4457-27.6288,3.9165-33.4704-1.6846-41.7735,5.5698-4.9679,4.3404-6.3186,9.3526-12.9962,46.4151-3.533,19.609-5.2995,29.4134-5.5698,31.5622-1.7757,14.1142-3.3218,35.571,0,69.6225,6.7778,69.4791,27.1077,122.5719,33.4188,138.3167,4.6434,11.5843,15.3084,36.9063,36.2037,64.0527,15.3752,19.9749,24.1939,25.2235,29.7056,27.8491,15.9494,7.5975,26.6963,3.9416,55.6981,3.7131,28.1163-.2215,47.1066-.3711,66.8376,6.4982,3.349,1.1659,53.9899,19.4355,57.5546,51.9848,3.0011,27.4026-29.8836,41.9159-23.2075,63.1245,3.3766,10.7268,16.5309,15.9612,42.7018,25.9924,38.9402,14.9255,39.5464,6.1755,97.4715,20.4226,13.0108,3.2001,26.3035,6.9185,38.0604,0,9.2302-5.4317,13.0928-14.8181,15.7811-21.3509,1.434-3.4847,12.2799-29.841,0-47.3434-6.9692-9.933-14.1591-6.7127-38.0603-20.4226-17.6686-10.1349-27.0518-15.5172-30.634-25.9924-6.4754-18.9355,9.8982-41.474,13.9245-44.5584,32.4933-24.8917,55.4283-26.7111,49.8629-34.907-2.1544-3.1727-12.209-6.2196-29.8887-8.4307-49.6702-6.2121-71.0982-1.9947-85.8835,3.4208-14.5124,5.3155-12.6395,10.8123-24.1358,12.9962-21.7678,4.1352-46.1261-12.2198-58.4829-31.5623-9.4156-14.7386-21.7616-45.5767-7.4264-58.4829,43.6354-39.2857,91.7957,5.3297,119.9638-3.1221,5.1841-1.5555,11.6237-.6369-3.4759-25.6671-14.0012-23.2094-13.8812-39.9255-13.0262-54.1654,1.389-23.1327,17.9107-44.2945,10.5641-53.2421-4.2396-5.1635-9.5728.8431-14.9911,7.2037-2.1288,2.4991-7.4562,10.3413-10.5528,19.4769-2.9491,8.7004-11.6396,7.6254-15.6957,7.4805-17.2334-.6155-24.9679-3.6866-32.9301-7.4805-14.4629-6.8913-17.65-27.2933-17.5769-41.7969.0698-13.8514,7.3937-24.0055,14.8528-34.3471,5.5454-7.6883,7.0372-7.3862,21.3509-23.2075,18.7911-20.7704,19.7972-25.2451,19.4943-28.7773Z" fill="none" opacity=".5" stroke="gray" stroke-miterlimit="10" stroke-width="1.7493"/><path d="M58.3456,353.2637c19.7075-6.3757,33.7061-3.6942,51.5611-3.5316,36.9918.3368,32.9109-10.6634,66.3938-9.1822,12.9032.5708,27.5074,2.8236,37.4348-6.3568,4.4831-4.1458,5.4644-8.2669,10.5948-9.8885,6.6069-2.0883,12.0998,2.4956,25.4274,10.5948,24.7273,15.0268,29.7664,13.8005,36.0222,23.3085,2.1195,3.2213,8.1792,12.4311,5.6505,21.8958-2.2204,8.3109-9.3518,10.4137-16.9516,17.658-11.5838,11.042-14.6932,24.914-17.658,38.1411-3.3393,14.898-8.1632,36.4193,4.2379,55.0927,1.7171,2.5855,12.7837,18.6978,31.078,21.8958,14.7424,2.5772,25.4432-4.7592,31.078,1.4126,2.6686,2.9229.5483,4.8749,2.119,16.9516,1.6258,12.5001,5.7157,24.3885,7.0632,28.2527,3.1588,9.0584,4.7762,10.9783,3.5315,12.7137-3.2137,4.481-16.7173-4.5251-35.3159-6.3569-3.8699-.3811-29.4559-2.517-51.5611,14.1264-4.5071,3.3934-20.6401,15.9201-25.4274,38.1411-5.5228,25.6349,7.9128,46.2605,14.1263,55.7991,3.3062,5.0755,21.4501,30.0443,52.7911,35.6822,16.3375,2.939,22.2485.3854,60.2196-4.6043,24.0318-3.158,39.2932-8.9651,42.379-3.5316,1.3509,2.3785-.517,5.1449-4.9442,14.1263-4.9623,10.067-11.2313,22.7848-13.42,31.7843-3.016,12.4012-.6111,27.3092,6.3568,38.1411,6.7083,10.4282,16.9504,15.8989,37.4348,26.84,13.5454,7.2349,18.541,8.1904,22.6022,14.8327,5.9323,9.7024,5.9879,25.1874-1.4126,31.078-6.9411,5.5249-14.7274-1.9383-40.2601-5.6506-21.9732-3.1948-25.0946,1.0402-48.0295-3.5316-2.464-.4911-13.8878-2.8422-27.5464-9.1822-11.5154-5.3451-19.0247-8.9514-20.4832-15.539-1.4427-6.5161,4.4922-9.3673,10.5948-21.8958,1.7599-3.6132,10.4553-21.4645,6.3568-38.8474-1.4044-5.9566-3.5856-15.4269-15.5389-24.0149-26.757-19.224-60.5992-30.1861-79.1075-32.4906-56.4541-7.0291-69.4175,10.5982-98.8844-4.2378-19.5436-9.8398-29.6781-25.5674-40.9664-43.0853-12.1818-18.9047-14.7632-31.0512-33.9032-98.8844-15.6164-55.3454-15.3311-52.3389-16.9516-60.7433-2.0117-10.4335-1.8005-11.6918-2.8253-101.7097-.1123-9.8624-.2995-26.0706,10.5948-36.7284,3.7603-3.6786,8.2494-6.1175,15.539-8.4758Z" fill="none" opacity=".5" stroke="gray" stroke-miterlimit="10" stroke-width="1.7493"/><path d="M229.6688,740.6038c14.4752,2.8537,29.4994,13.5581,28.4459,26.9355-1.0536,13.3774-26.8655,54.2325-50.746,31.9972s-53.0319-52.4476-25.9908-56.0631c27.0411-3.6155,31.7853-6.1235,48.2909-2.8695Z" fill="none" opacity=".5" stroke="gray" stroke-miterlimit="10" stroke-width="1.4994"/><path d="M273.1006,711.2464c12.2582,5.7185,16.833,6.9986,18.7521,7.5009,7.6577,2.0043,13.6317,2.2518,20.6274,2.5003,11.47.4074,13.7772-.8296,28.1282-.9376,19.718-.1484,22.1331,2.136,23.1277,3.4378,3.2602,4.2672.0081,9.4288-1.8752,22.1901,0,0-2.0676,14.0099,0,30.316,1.8865,14.878,3.6101,28.4711,13.439,35.629,10.3432,7.5324,22.7435,2.9001,25.9404,10.3138,1.5531,3.6016.1481,8.2235-2.1877,10.9387-5.3635,6.2345-16.8824,3.8662-33.1287.3126-19.9169-4.3565-29.8754-6.5346-32.5037-13.4391-2.8312-7.4372,5.4833-10.8857,8.751-29.0658.6312-3.5114,2.4961-15.4841-1.2502-29.6908-1.6757-6.3548-3.4536-13.0969-9.0635-19.3773-5.1492-5.7646-10.7049-7.981-21.2524-12.1888-12.456-4.9692-15.9224-4.0104-28.5241-9.5939-5.9635-2.6423-5.0302-2.7874-12.9765-6.6465-2.5654-1.2459-14.5204-6.9894-32.125-12.66-5.2288-1.6843-10.6484-3.263-28.5705-7.6145-38.7582-9.4106-35.8347-7.4714-41.727-9.8182-14.5165-5.7815-23.9957-14.8997-42.9543-33.1361-9.5456-9.182-19.4042-18.6652-29.8634-33.5452-10.5769-15.0475-15.9283-27.3061-24.5453-47.0453-6.2976-14.4262-12.408-28.4233-17.9999-48.2724-8.026-28.4889-9.9137-51.0352-11.0454-65.4542-1.2706-16.1885-.847-26.7468,0-47.8633.7762-19.3507,2.0282-26.7737,7.2189-33.861,7.8092-10.6626,19.7951-14.0962,24.9173-15.4891,17.7613-4.83,23.3414,2.9698,49.8346,4.7141,27.4712,1.8087,51.6312-4.5917,54.5487-5.3875,8.0826-2.2047,15.7614-5.0275,29.6314-7.4079,9.7179-1.6678,16.8189-2.8367,26.2642-2.0203,8.4671.7318,20.621,1.7822,30.3048,10.775,3.4377,3.1924,10.3508,9.6123,9.4281,16.8361-1.245,9.7468-15.3541,9.9861-26.9376,22.2235-9.9777,10.5411-11.668,23.2089-14.1423,41.7533-1.6409,12.2979-3.9718,31.5381,4.714,53.2018,4.5603,11.3741,9.4196,23.4941,21.5501,30.9782,14.6687,9.05,30.2869,5.3474,32.9985,13.4689,1.4398,4.3123-1.5053,9.7241-4.714,12.7954-11.5106,11.0175-29.738-4.9008-50.508.6734-24.6444,6.6141-43.1975,40.8915-39.733,69.3643,1.1934,9.8076,5.2852,17.089,13.4688,31.6518,5.2979,9.4277,19.194,34.1557,43.2963,48.4603,6.5316,3.8765,16.0624,8.3226,20.6864,10.4798Z" fill="none" opacity=".5" stroke="gray" stroke-miterlimit="10" stroke-width="1.7493"/><path d="M34.8803,307.0681c-4.2756-5.821.929-15.8882,21.2394-49.0142,31.945-52.1016,47.9174-78.1524,62.9014-95.5774,10.5211-12.2349,31.1342-34.8552,61.2676-58.8169,9.646-7.6704,38.4702-29.9527,80.8732-51.4648,22.0425-11.1827,51.5437-25.9234,93.1268-35.9437,48.3599-11.6534,86.9703-10.6354,111.9155-9.8028,53.4913,1.7854,92.9163,12.1966,102.1127,14.7042,11.0093,3.0019,56.7325,15.9549,109.4648,47.3803,36.3766,21.6784,59.9258,42.5151,65.3521,47.3803,28.1817,25.2675,17.503,23.1694,47.3804,50.6478,10.672,9.8152,20.6139,17.9734,22.8732,31.8591.3554,2.1847,1.8765,12.8441-5.7183,27.7747-15.5688,30.6067-51.4066,43.7011-73.5211,51.4648-35.0203,12.2945-64.4665.4318-76.0164,15.3798-9.3564,12.1091-6.7424,41.0108-3.0041,56.3274,4.9866,20.4312,29.9889,19.7016,30.0064,35.3069.0349,31.1086-22.337,45.0749-37.5167,50.9384-17.1496,6.6243-19.4779,3.9852-28.2127-10.2149-6.1292-9.9643-7.8366-25.5416-18.8102-44.3062-4.2378-7.2465-4.2389-16.6439-40.69-56.4088-29.0698-31.7125-47.9808-37.2689-51.6387-39.2175-31.5477-16.8054-64.9816-12.8627-80.9832-19.3196-11.5645-4.6664-19.4708-9.6089-21.681-21.1019-11.8645-61.6956-26.8546-61.8567-37.119-68.9838-9.7513-6.7708-23.1101-17.2168-32.6393-14.6304-3.1107.8443-9.8915,2.2157-11.7795,10.8504-6.6837,30.5678-11.1749,35.1305-13.0704,36.7605-5.6641,4.8706-12.7332,4.6917-17.9719,4.9014-20.7818.8319-49.477,5.8264-63.7183,21.2395-11.8881,12.8662-3.4897,23.1474-15.5211,33.4929-11.7842,10.133-29.2988,8.4025-48.1972,6.5353-30.1509-2.979-37.3639-12.3809-50.6479-6.5353-12.9336,5.6915-10.194,16.4073-25.324,28.5916-18.5444,14.9339-47.8739,19.1406-54.7324,9.8029Z" fill="none" opacity=".5" stroke="gray" stroke-miterlimit="10" stroke-width="3.4986"/><path d="M672.9895,95.732c17.5957,9.8724,25.6671,16.456,30.0413,20.2778,17.6122,15.3879,16.3743,21.8992,36.0496,39.8047,11.4526,10.4224,16.5465,12.4704,27.7882,24.7841,10.5274,11.5313,15.7907,17.4468,15.7717,24.7841-.0409,15.8203-22.2666,27.42-33.0455,33.0455-17.987,9.3875-34.4359,11.7665-47.315,13.5185-31.921,4.3421-38.7664-2.1419-54.8253,6.0082-3.6717,1.8635-21.4559,11.4098-27.0372,30.0414-3.8677,12.9111-.2508,24.7617,5.2572,42.8088,5.3447,17.5119,10.8274,24.3491,10.5144,39.8047-.0539,2.6614-.3647,18.0037-6.0082,19.5268-3.9127,1.056-8.6756-4.9928-16.5227-15.7716-14.462-19.8652-21.5888-31.332-27.0372-39.0537-8.9913-12.7431-17.51-20.7623-34.5475-36.8006-17.7353-16.6952-26.603-25.0429-38.3026-31.5434-15.4959-8.6098-30.9071-13.9447-53.3233-18.7757-23.3911-5.0411-30.7832-6.1635-35.2985-13.5186-6.1282-9.9827-7.2567-17.5871-10.0561-38.7829-4.7458-35.9326-26.6105-17.9663-39.153-31.8647-5.1311-5.6858-13.5232-14.6525-24.3921-21.7293-11.0316-7.1827-25.8825-1.9515-29.2903-.7511-2.1156.7453-15.6588,5.7325-22.5309,18.7758-4.5187,8.5764-1.8495,12.4676-7.5103,21.0288-.8698,1.3155-5.613,8.3018-14.2696,12.7676-9.4019,4.8503-14.9517,2.3586-26.2861,3.7551-2.0418.2516-29.0401,3.9229-42.8088,22.5309-7.2437,9.7896-4.2962,14.8887-12.7675,22.5309-8.8629,7.9955-11.7807,10.6246-15.6458,12.149-14.2476,5.6191-22.4116-6.701-38.4285-9.1448-6.6568-1.0156-34.6205,18.6522-43.2003,27.9488-13.1259,14.2226-17.8106-.8563-16.8822-6.169.3682-2.1074,3.709-13.4802,13.5186-30.0413,16.6218-28.0619,33.0464-47.0944,34.5475-48.817,40.5627-46.5501,86.8711-78.6473,89.3728-80.3605,19.0847-13.0701,51.6155-35.0169,99.8873-51.8212,14.9237-5.1952,53.137-17.4827,104.3934-21.0289,16.0355-1.1094,64.63-3.5276,125.4224,10.5144,0,0,60.4679,13.967,123.9203,49.5682Z" fill="none" opacity=".5" stroke="gray" stroke-miterlimit="10" stroke-width="1.7493"/><path d="M669.7604,133.109c10.1032,9.8076,19.9459,19.8871,30.236,29.4985,20.6618,19.299,26.0061,22.0949,25.8112,28.761-.3968,13.5694-23.1511,22.8387-25.0738,23.5989-21.4325,8.473-30.4742-3.1459-51.6224,4.4247-18.852,6.7486-30.0948,22.5782-33.1858,27.2861-12.0534,18.3587-7.7158,31.4367-16.2241,34.6608-9.2312,3.498-16.8847-10.9311-44.2478-27.2861-8.0301-4.7997-25.0984-14.8413-47.9351-20.649-26.9573-6.8556-38.1563-1.7594-46.4601-11.7994-5.1593-6.2381-4.9847-16.043-4.4248-35.3982,1.002-34.6405,7.7289-36.6704,4.4248-53.0972-4.4623-22.1849-18.4333-26.9424-15.4867-42.7728,2.4038-12.9141,13.7619-20.8186,16.9616-22.8613,9.7195-6.2052,19.9486-6.7087,70.0589,2.9498,45.5935,8.788,60.2668,13.6652,69.3213,16.9616,26.4647,9.6348,37.4821,17.6159,40.5605,19.9115,4.4451,3.3148,5.1798,4.3517,27.2861,25.8112Z" fill="none" opacity=".5" stroke="gray" stroke-miterlimit="10" stroke-width="3.4986"/><path d="M509.7311,85.9114c-9.2656,2.1666-19.1425,4.476-22.1239,11.7994-3.1765,7.8025,5.072,12.4595,8.8496,29.4985,3.6112,16.2887.3935,31.5196-.7375,36.8731-3.1212,14.7742-7.5005,17.8965-5.1622,24.3363,3.0174,8.31,13.3368,11.4489,27.2861,15.4867,27.7812,8.0416,36.1219,1.4056,53.8348,11.062,9.601,5.2341,11.0778,9.3248,16.9616,8.8495,12.3693-.9993,12.1473-19.5877,28.0236-27.2861,14.5611-7.0605,23.3164,4.4208,41.2979-3.6873,2.2981-1.0363,17.2361-8.024,17.6991-18.4366.2601-5.8504-4.1985-9.4257-18.4366-22.1239-26.0941-23.2722-22.0433-21.0069-36.1356-32.4483-13.8266-11.2257-20.74-16.8385-28.0236-20.649-13.74-7.1883-25.3366-9.4284-37.6106-11.7994-14.9135-2.8809-28.8365-5.4233-45.7227-1.4749Z" fill="none" opacity=".5" stroke="gray" stroke-miterlimit="10" stroke-width="1.7493"/><path d="M583.1464,131.4851c-4.4207-2.2164-30.318-15.2008-40.5604-5.8997-3.821,3.4698-1.1555,6.1295-4.4248,25.8112-2.4903,14.9923-5.2025,20.4661-4.4248,32.4483.5047,7.7772.7572,11.6657,3.6873,14.7493,5.6096,5.9034,13.1836,1.2156,30.236,4.4248,14.3935,2.7088,15.2221,7.2202,22.8613,5.8997,11.2884-1.9514,11.3385-12.1239,23.5988-17.6991,16.5527-7.5271,32.432,3.7528,35.3982-1.475,3.4419-6.0662-16.6114-23.5974-19.174-25.8111-4.8268-4.1696-6.6319-4.9901-22.1239-15.4868-21.7736-14.7528-20.4054-14.621-25.0737-16.9616Z" fill="none" opacity=".5" stroke="gray" stroke-miterlimit="10" stroke-width="1.7493"/><path d="M118.2832,218.7694c16.2069-20.9108,30.7983-33.9868,36.7288-38.4629,76.0847-57.4247,70.2543-59.3767,103.9822-78.1709,13.1763-7.3423,2.9431-.8462,64.8966-30.236,9.6703-4.5874,27.8949-13.2729,53.0972-16.9616,22.4096-3.28,29.233.4795,32.4484,4.4248,6.0094,7.3737,2.6103,19.3165,2.2124,20.6489-4.5419,15.2082-19.0411,16.7644-19.174,26.5486-.1409,10.3765,16.1006,13.4977,15.4867,22.8614-.5626,8.5806-14.9798,17.8359-27.2861,16.2242-11.7982-1.5452-12.9178-11.9343-28.7611-19.1741-3.9522-1.806-16.163-6.7712-29.4985-4.4247-5.0085.8813-13.6175,3.3997-42.7728,33.1858-20.9535,21.4069-20.0711,23.7476-28.0236,27.2861-18.0756,8.0429-19.6845-.2473-35.1146,9.4914-6.8067,4.296-27.3455-2.4482-29.0446,21.482-1.4923,21.0177-7.7472,22.2761-11.2515,22.277-9.3078.0021-25.1451.3343-33.7636.9444-12.7582.9033-25.6663,9.5628-28.8842,8.0601-2.016-.9415-2.506-16.6783,4.7222-26.0044Z" fill="none" opacity=".5" stroke="gray" stroke-miterlimit="10" stroke-width="1.7493"/><path d="M354.8641,82.2241c-14.5276,9.3635-22.8198,5.9436-41.2979,11.0619-15.1036,4.1836-14.2604,7.7695-51.6223,30.9735-29.2632,18.1742-31.8534,17.2618-59.7344,35.3982-27.8311,18.1039-14.2017,11.8261-37.6106,27.2861-14.3713,9.4913-22.7201,13.9786-22.1238,19.9115.5855,5.8259,9.648,11.5671,16.9616,10.3244,8.3185-1.4134,8.58-10.8767,19.174-22.1238,13.124-13.933,30.5298-18.3147,36.8731-19.9115,17.1901-4.3273,21.172.8294,33.1858-5.1623,4.1521-2.0708,5.6691-3.6806,21.3864-19.9115,22.1426-22.8662,23.8936-24.5888,28.0236-27.2861,5.6442-3.6862,17.4161-11.3746,33.1858-11.7994,11.401-.3072,20.0325,8.4993,33.8312,13.3404,11.4176,4.0057,25.8147,12.5925,22.9534,1.4089-.4803-1.8773-7.1224-5.6916-10.3245-15.4867-.4524-1.3839-3.2358-10.3148.7375-18.4366,5.3917-11.0209,18.8365-11.5824,18.4365-16.2242-.3132-3.635-8.8801-7.0269-16.9616-6.6371-10.6562.5139-15.9354,7.3844-25.0737,13.2743Z" fill="none" opacity=".5" stroke="gray" stroke-miterlimit="10" stroke-width="1.7493"/><path d="M429.6809,56.0173c-5.5379,7.1215-.1488,13.188-6.5361,26.1446-5.2635,10.6769-11.5066,11.7982-11.4383,18.7916.0823,8.4269,9.1733,9.4733,10.6213,18.7915,1.6677,10.7319-9.6121,14.3569-8.9872,26.1446.4995,9.4242,7.8153,9.104,13.0722,22.8766,5.6567,14.82,1.0152,25.2232,7.3532,28.5958,3.357,1.7863,8.0417.6678,10.6212-1.6341,4.9925-4.4551,2.7701-13.9421,1.6341-18.7915-3.2726-13.9702-9.7702-14.2689-12.2553-26.9617-.6634-3.3885-2.2517-11.5011.817-20.4255,2.5766-7.4931,6.1707-8.9699,5.7192-13.8893-.6613-7.2054-8.7613-8.2821-10.6213-15.5235-.7706-2.9999-.6666-7.822,8.1702-19.6085,14.9508-19.9411,28.3177-24.3629,26.9617-28.5958-1.7237-5.3806-26.2414-7.3476-35.1319,4.0851Z" fill="none" opacity=".5" stroke="gray" stroke-miterlimit="10" stroke-width="1.7493"/><path d="M184.4732,393.4511c-7.4297,1.3123-16.4765-.1494-34.5702-3.073-28.6923-4.6361-33.0225-8.4489-43.7888-5.3775-12.3247,3.5159-19.8451,12.2764-23.815,16.9009-13.1339,15.2997-15.1657,32.8176-16.1328,42.2524-2.0626,20.1211,2.9502,35.9664,13.0599,66.8357,8.326,25.4231,16.259,42.1032,27.6561,66.0674.9322,1.96,9.9063,20.6238,25.3514,43.0206,15.1233,21.9301,20.6803,24.5708,24.5832,23.815,1.9435-.3765,5.6445-2.0149,13.0598-23.815,7.1025-20.8804,5.4665-24.5497,10.7552-39.1795,3.9748-10.9954,8.6979-24.0608,19.9739-36.1065,12.4355-13.2844,21.9978-13.7454,23.0468-22.2785,1.1568-9.41-10.1103-11.7913-17.6692-26.8879-8.8664-17.7081-6.6171-40.9006.7682-56.8486,6.5595-14.1647,14.1258-16.0396,16.901-30.729.1747-.9247,3.838-21.3252-4.6094-26.1197-7.231-4.1041-14.8544,8.041-34.5702,11.5235Z" fill="none" opacity=".5" stroke="gray" stroke-miterlimit="10" stroke-width="3.4986"/><path d="M809.1819,474.2467c-4.1785,5.7972-4.9994,8.8372-7.5768,15.5391-2.4554,6.385-1.3974,10.0706-2.2366,14.1596-.7495,3.6517-1.5575,9.6166,1.4735,11.8354,3.6385,2.6636,11.6359-.7144,15.7557-6.0021,3.8065-4.8856,1.3216-7.5758,4.5018-18.7568,2.8883-10.1544,6.2015-12.3778,5.2519-18.7568-.5476-3.6786-5.1078-4.9864-8.5852-4.7573-4.474.2949-7.2653,4.9091-8.5842,6.7389Z" fill="none" opacity=".5" stroke="gray" stroke-miterlimit="10" stroke-width="1.7493"/><path d="M528.5018,668.919c-1.0144,1.8856-2.3467,5.7931,2.3578,18.1885,3.8383,10.1132,5.4972,9.5458,7.747,16.5043,2.0211,6.2512,4.9413,15.2837,1.0105,22.904-2.8012,5.4305-7.392,6.868-8.4206,13.4729-.0963.6188-.4866,3.3707.3367,6.7365,1.3645,5.5784,4.8546,7.904,7.4101,11.452,3.3539,4.6563,3.5832,9.3916,4.042,18.8621.741,15.2994-3.996,21.3514,0,25.9354,1.9716,2.2617,5.27,3.2492,12.1257,3.0314,15.998-.5083,27.1695-6.8111,48.1658-17.178,22.3803-11.0502,19.3092-8.6397,28.6298-13.8098,3.9684-2.2012,14.6006-8.7953,35.7034-21.8935,16.8221-10.4414,18.1309-11.2891,21.8936-12.4625,9.0866-2.8336,17.4207-2.8686,19.1989-7.7469.8439-2.3152.1271-5.2385-1.3473-7.0733-2.1476-2.6728-5.8371-2.9451-8.0837-3.0314-9.9033-.3805-14.8548-.5708-23.9147,2.6946-12.1059,4.3633-26.9327,2.6843-56.5862-.6737-14.6046-1.6538-23.5035-2.7312-34.6929-7.4101-8.6508-3.6174-15.4632-8.0464-21.2197-11.7888-6.9945-4.5473-10.5446-6.8933-13.1362-10.4415-3.2723-4.48-4.8973-9.4514-8.0837-19.1989-2.5899-7.9227-3.176-11.5201-5.7259-12.1256-2.6003-.6175-5.8762,2.2005-7.4103,5.0523Z" fill="none" opacity=".5" stroke="gray" stroke-miterlimit="10" stroke-width="1.7493"/><path d="M509.0894,647.9753c1.3538,6.092,3.1072,8.164,6.9945,22.3373,2.7564,10.0498,4.8027,9.793,7.2156,16.9655,5.2053,15.4727,7.3802,16.4012,8.1598,24.4793.5635,5.8408,1.4962,15.5058-4.8959,22.0314-4.2683,4.3573-11.4378,1.4595-13.4637,5.7118-1.2391,2.6011.1667,5.6239.408,6.1198,1.8084,3.7157,5.5322,3.8215,8.9758,6.1198,4.4672,2.9815,5.8341,8.6514,8.5678,19.9914,1.1358,4.7112,2.5881,10.9169,2.4479,19.1755-.1199,7.0647-.2053,12.0903-2.4479,18.3595-1.5676,4.3822-3.2806,6.8321-2.0399,8.9757,1.8126,3.1319,8.1938,2.6115,10.1997,2.4479,5.1633-.421,7.6321-2.2615,13.4637-4.4878,4.8236-1.8417,7.0752-2.0869,13.4637-3.6719,11.6917-2.9009,24.7818-7.198,31.823-9.7918,13.6285-5.0203,22.7678-10.3534,39.983-20.3994,12.1905-7.1137,10.4918-6.8799,26.5193-16.3196,16.2782-9.5875,24.4172-14.3811,28.1513-16.3194,1.938-1.0061,7.8796-4.0647,15.0954-8.9757.6206-.4227,5.2164-3.5773,10.6077-8.5679,6.1382-5.6817,6.986-7.8911,7.3438-9.3838.7606-3.1732.445-7.8549-2.4479-10.1996-2.3631-1.9153-5.4723-1.4823-9.7917-.816-10.4415,1.6105-15.6621,2.4155-19.5833,3.2639-3.3987.7352-10.8799.6361-25.7033.408-11.6244-.1791-18.6531-.2871-28.9673-.816-3.2705-.1677-15.0227-.7969-29.7832-2.8559-9.0528-1.2629-12.299-2.0958-15.9116-4.08-5.7045-3.1331-6.3725-5.8687-12.6475-8.5677-5.2312-2.2499-6.4416-1.069-12.6477-3.2639-4.5357-1.6042-9.7959-3.054-13.0557-7.3437-5.5142-7.2567-1.4363-13.6372-8.5678-22.0314-2.3546-2.7716-4.7738-4.4811-9.7917-7.7519-9.6171-6.2684-13.1512-5.139-16.7276-10.1996-2.6721-3.7812-2.4294-6.8604-6.1198-8.9757-2.438-1.3976-5.8072-1.9243-6.5278-.816-.6927,1.0653,1.4061,7.9184,1.7015,9.2478Z" fill="none" opacity=".5" stroke="gray" stroke-miterlimit="10" stroke-width="1.7493"/><path d="M789.949,722.1531c.3506,10.8849-8.9117,18.5309-31.6173,35.9571-39.9497,30.661-59.9245,45.9914-74.3936,54.5553-29.4486,17.4299-54.2941,28.2598-66.9542,33.477-85.3627,35.1776-99.3919,38.4691-109.7305,31.6173-9.13-6.0507-13.2659-16.5785-16.7386-25.4178-7.6331-19.4296-5.5542-39.2538-4.3396-50.8356,1.6069-15.3228,3.9367-15.089,2.4798-21.0783-4.2902-17.6371-24.1743-18.3551-29.1375-35.9568-2.4621-8.7318,10.5687-16.4008,14.0858-26.5998,7.0112-20.331,10.0784-18.6611,13.2487-34.5129,1.2169-6.0846,8.1637-8.921.4621-25.1525-5.9029-12.4405-12.6291-56.6658-7.6321-55.7775,16.3287,2.9029,35.4674,1.0326,45.6275-4.9277,3.9732-2.3308,16.391,28.8279,25.5486,39.9606,11.1366,13.5386,23.6685,21.611,32.9679,26.3193,14.0263,7.1015,27.0801,16.4706,43.0908,16.7579,13.0129.2335,9.2433-.6662,43.7985,3.6591,47.5303,5.9494,46.2289-4.2874,61.499-4.6536,27.9808-.6711,29.6427,6.0138,34.2502,8.2862,10.6062,5.2309,23.0354,20.3804,23.4845,34.3228Z" fill="none" opacity=".5" stroke="gray" stroke-miterlimit="10" stroke-width="3.4986"/><path d="M507.3496,622.1331c3.7203-.2794,6.5946,2.4498,11.9579,7.5425,2.2526,2.1388,1.7498,2.0038,7.1535,7.8689,3.482,3.7792,5.8597,6.3492,9.0611,9.2995,2.4611,2.2681,3.8145,3.2915,7.392,6.1998,8.8559,7.1993,9.5007,8.1942,13.3532,11.2072,5.4084,4.2298,10.1233,6.794,19.553,11.9225,9.2539,5.0328,16.7824,8.4014,20.5068,10.0149,6.2724,2.7174,13.3379,5.7518,22.8913,8.5843,2.4815.7358,9.9527,2.8875,20.9837,4.769,12.245,2.0885,31.9634,5.4518,55.9208,2.7871,5.5865-.6214,14.0019-1.8595,26.4019-1.9801,11.8768-.1155,16.3919.9014,20.4614,3.6302.9576.6422,8.6475,5.9762,9.9007,15.5111,1.0709,8.1477-3.2142,14.3719-6.2704,18.8113-1.2782,1.8566-4.8297,6.6861-19.4714,16.5011-5.9884,4.0144-8.2963,5.1518-16.1711,9.9007-29.1926,17.6045-31.5109,22.4971-42.243,23.4317-4.0583.3534-8.0168.0274-13.531,2.3101-6.9873,2.8926-10.7991,7.6256-13.201,10.2307-6.626,7.1869-9.6212,5.8815-40.2628,20.7915-19.3824,9.4314-16.8973,9.3276-26.4019,13.201-12.7249,5.1858-21.1888,7.0057-34.6525,9.9007-19.9608,4.292-24.1642,3.0171-26.7319.66-2.9994-2.7534-3.4297-7.006-4.2903-15.5111-.2774-2.7408-.573-7.1156.66-23.1016.4524-5.8643.988-11.7038,1.3201-20.4614.3157-8.3246.1224-10.7132-.99-13.531-1.2222-3.0956-2.4166-3.8291-9.5707-11.8809-8.7608-9.8602-9.4832-11.5895-9.9007-12.8709-2.4328-7.467.6819-14.4803,1.3201-15.8411,2.3955-5.1081,5.0621-5.5581,8.2506-9.9007,4.1895-5.7061,4.5064-11.6313,4.9503-22.7716.1454-3.6484.4259-14.8051-2.3101-30.0321-4.0241-22.3957-4.6203-24.7516-4.6203-24.7518-1.2799-5.0575-2.5967-9.394-.66-14.191,1.4017-3.472,4.8033-7.9173,9.2407-8.2506Z" fill="none" opacity=".5" stroke="gray" stroke-miterlimit="10" stroke-width="1.7493"/><path d="M787.6778,656.5852c-5.4024.5616-10.8644.2245-16.2842.5816-2.6409.174-5.0566.3745-6.9789-1.1631-2.1827-1.7459-2.209-4.5167-2.9079-8.7237,0,0-.7471-4.4978-3.4895-12.7947-2.3315-7.0539-6.5572-11.5455-10.4684-15.7026-2.8272-3.005-9.5417-9.9883-20.3552-13.9578-7.213-2.6478-8.0501-.9447-18.6105-3.4895-6.7131-1.6177-12.3211-4.0084-23.2631-8.7236-12.1125-5.2197-20.7462-9.6474-25.5894-12.2131-17.5103-9.2765-20.4198-12.7298-22.0999-15.121-1.3911-1.9798-6.1409-8.935-5.8158-18.0289.1581-4.4238,1.3904-5.8061,4.6526-14.5394,4.1163-11.0197,6.6609-17.832,7.5605-26.171,1.2409-11.503-1.4223-18.7384,1.1632-19.7736,2.2255-.8911,4.1904,4.4731,11.6315,8.1421,8.2484,4.0671,16.4536,2.7122,18.6105,2.3263,3.3405-.5977,7.7238-1.3819,11.6315-4.6526,5.5446-4.6408,4.1466-9.2778,10.4684-22.0999,3.3754-6.8461,5.1247-10.2965,8.1421-11.6315,6.7956-3.0068,12.2571,4.1416,19.7736,1.7447,3.7008-1.1801,6.2008-5.2616,11.05-13.3763,10.1637-17.0084,15.2547-25.549,15.7026-27.3341,3.2516-12.9596.0576-24.3794-1.7447-30.8236-2.7354-9.7804-8.0674-20.7228-9.3052-23.2631-5.4382-11.1603-8.6289-14.7358-6.9789-18.6105,1.9465-4.5711,8.5384-4.6463,18.6105-6.9789,14.2594-3.3024,24.4003-7.8032,35.4762-14.5394,21.2303-12.912,22.0395-23.6953,47.2193-33.9292,0,0,16.7706-7.0267,27.3449,4.1243,9.3221,9.8306,15.0349,26.3844,18.7245,40.0104,1.4137,5.221,2.5278,10.5341,3.8696,15.8105,7.0108,27.5698-2.9054,32.2457-1.3509,48.1349,1.657,16.9374,8.7082,12.0157,9.7176,32.2037.678,13.5595,1.1019,30.265,1.0294,33.5718-1.0213,46.5795-9.1074,88.1833-23.3397,128.5926-4.6696,13.2583-13.9271,29.8189-24.0462,40.0977-18.1696,18.4564-54.6098,21.7663-59.7502,22.3007Z" fill="none" opacity=".5" stroke="gray" stroke-miterlimit="10" stroke-width="1.7493"/><path d="M815.1985,478.2314c-.757.294-2.2889,1.056-3.927,3.7004-.6803,1.0982-1.5794,2.8447-2.7187,9.6664-.9267,5.5486-.6669,6.3999-.0755,6.9477,1.2748,1.1807,4.0497.9131,5.3618-.4531.9506-.9898.4576-1.8528,1.1328-4.9842.2727-1.2648.7865-3.6475,2.19-6.0415,1.4382-2.4532,2.3859-2.4881,2.7942-4.3046.3076-1.3686.29-3.6637-1.1328-4.6066-1.2676-.84-2.992-.1703-3.6249.0755Z" fill="none" opacity=".5" stroke="gray" stroke-miterlimit="10" stroke-width="1.7493"/><path d="M151.2906,295.2414c.63.0478,10.0811.4298,10.7602.4736,10.4232.6727,17.037.2129,19.6175,0,7.0598-.5825,12.2898-1.6565,13.7322-1.9618,6.1927-1.3104,11.5585-3.3633,20.2714-6.5392,6.1809-2.2529,7.7896-3.021,11.1166-3.2696,1.1137-.0832,5.6575-.3501,12.4244,1.9618,4.9476,1.6903,7.5691,3.5585,17.6557,10.4627,12.1425,8.3113,7.9543,5.3376,14.3862,9.8087,7.9837,5.5499,9.0545,6.3902,17.6557,12.4244q16.0803,11.2811,20.2714,14.3861c6.6204,4.9049,5.0276,5.0161,15.0401,13.7322,12.8472,11.1837,15.0399,13.0782,15.0401,13.0783,8.9493,7.732,10.9682,9.4118,11.1166,12.4244.124,2.5193-1.1569,4.0035-7.847,12.4244-9.6753,12.1785-7.2434,9.3855-9.8087,12.4244-8.2395,9.7605-8.8929,9.628-15.0401,17.0018-4.0302,4.8344-8.3759,10.0867-13.0783,17.6558-3.1384,5.0517-5.2776,8.495-7.1931,13.7322-1.7487,4.7814-3.9856,10.8977-3.2696,18.9635.2883,3.2479,1.0402,10.5969,6.5392,17.6558,5.404,6.9368,12.2592,9.5713,15.0401,10.4626,3.3659,1.0788,13.0558,4.1846,18.9636-.6539,2.0642-1.6907,5.0624-4.5458,7.1457-11.2427,3.9015-12.5417,4.4127-14.0383,6.4075-17.905,3.7038-7.1796,12.9609-7.4638,14.3119-7.5125,2.7714-.0999,8.5491.9502,12.0366,4.5183,2.8515,2.9174,2.0985,6.2807,1.7366,14.3719-.547,12.2308-2.7617,21.0677-3.0573,23.6552-1.2574,11.0088-2.066,18.0869-1.3078,26.8106.6852,7.885,2.8545,14.8475,7.1931,28.7723,3.5565,11.4147,5.3347,17.1221,8.5009,24.1949,7.3265,16.3664,13.8536,22.7201,11.1166,26.8105-1.8851,2.8172-5.5459.6474-15.0401,3.2696-3.1799.8783-11.3896,3.2408-18.3097,9.8087-5.6483,5.3609-7.9024,11.1175-10.4627,17.6558-3.1021,7.9221-.4268,5.7166-4.5774,22.2331-.6309,2.5106-1.2739,4.874,0,6.5392,1.9473,2.5455,6.9114,1.547,13.0783.6539,6.7186-.9729,13.5496-1.0111,20.2714-1.9617,6.6292-.9375,18.7403-2.6503,32.0418-2.6157,6.4843.0169,13.0418.6652,26.1566,1.9618,20.7877,2.0551,16.7952,2.2208,20.9253,2.6156,2.8907.2764,6.8544,2.1626,9.4789,2.9954,3.6835,1.1689,2.0204,6.73.4125,14.2529s-2.2994,8.6478-5.3139,15.4475c-1.3794,3.1115-4.6748,9.7582-11.1166,16.3479-3.3515,3.4284-3.9178,3.1211-18.9635,14.3861-7.8989,5.914-10.3201,7.9285-11.7705,11.7705-2.0787,5.506-.6427,10.7371,0,13.0783,2.1775,7.9323,7.5875,12.8198,13.0783,17.6557,5.6728,4.9962,6.7067,4.243,15.0401,11.1166,4.7653,3.9306,7.4032,6.1064,10.4626,9.8087,2.1404,2.5902,6.61,8.1045,9.1549,16.3479.5124,1.66,1.2688,4.4736,1.9617,13.7322.5678,7.5869.6231,13.2236.6539,21.5792.0422,11.4454-.0169,12.9947,0,28.1184.0061,5.4383.0185,9.5198,0,16.3479-.0144,5.3176-.0406,9.6994-.0612,12.653" fill="none" stroke="#e95420" stroke-dasharray="12 8" stroke-linecap="round" stroke-miterlimit="10" stroke-width="2.499"/><path d="M18.0883,322.3988c3.6016.6537,7.789,1.2193,13.8333,1.4346,7.7635.2765,13.5232-.4027,20.9253-1.3078,6.4357-.7869,13.5489-1.6567,22.8871-3.9235,13.1934-3.2026,26.0259-12.343,32.3924-16.6939" fill="none" stroke="#e95420" stroke-dasharray="12 8" stroke-linecap="round" stroke-miterlimit="10" stroke-width="2.499"/><path d="M118.656,291.6448c2.1098,0,3.8203,1.7481,3.8203,3.9043s-1.7105,3.9043-3.8203,3.9043-3.8203-1.7481-3.8203-3.9043,1.7105-3.9043,3.8203-3.9043" fill="#f15d22"/><path d="M134.5672,283.0824c2.1098,0,3.8203,1.7481,3.8203,3.9043s-1.7105,3.9043-3.8203,3.9043-3.8203-1.7481-3.8203-3.9043,1.7105-3.9043,3.8203-3.9043" fill="#f15d22"/><path d="M127.2723,305.5978c-2.7514-.6017-5.0521-2.3993-6.3441-4.9457-1.0189.4742-2.1641.6182-3.2668.4111,1.5651,3.9268,4.8833,6.7793,8.9546,7.6706.8927.1951,1.8059.2911,2.7132.2851-.7018-.9423-1.0923-2.0797-1.1188-3.2636-.3142-.036-.6284-.0885-.9367-.1561l-.0015-.0015Z" fill="#f15d22"/><path d="M133.7061,301.7147c2.1098,0,3.8203,1.7481,3.8203,3.9043s-1.7105,3.9043-3.8203,3.9043-3.8203-1.7481-3.8203-3.9043,1.7105-3.9043,3.8203-3.9043" fill="#f15d22"/><path d="M139.0216,304.1844c1.1878-1.5305,2.0247-3.3386,2.4284-5.2638.7033-3.3522.047-6.8709-1.8015-9.7248-.4405,1.0594-1.1863,1.9567-2.1495,2.5719,1.0307,1.9852,1.3463,4.2765.8839,6.4822-.2261,1.0789-.6255,2.0962-1.1892,3.025.9.7533,1.5343,1.7676,1.8294,2.9095h-.0015Z" fill="#f15d22"/><path d="M118.3606,289.949c.0969-.006.1938-.0075.2907-.0075.3861,0,.7723.042,1.154.126.6225.135,1.2083.3781,1.7442.7172,1.7207-2.5284,4.4942-4.0469,7.5025-4.1024.0147-.2941.0529-.5897.1145-.8778.1762-.8373.5344-1.6176,1.0439-2.2868-4.804-.3886-9.4729,2.1442-11.8499,6.4312" fill="#f15d22"/><circle cx="330.5863" cy="259.9868" r="4.8023" fill="none" stroke="#e95420" stroke-linecap="round" stroke-linejoin="round" stroke-width="2.499"/><path d="M736.1936,652.1265c-20.1709,9.3159-43.4903,14.6348-68.335,14.6348-65.5177,0-120.4039-35.7232-135.7755-84.1611l-.1599-.0792c-10.5971,4.5211-21.9923,7.5275-33.9115,8.7735-4.0832.4269-8.2248.658-12.4211.658-8.0141,0-15.8402-.802-23.4067-2.3221l13.3391,59.3714c-37.5706-6.8909-66.4815-8.8557-111.8832,0,1.4007-12.7747,9.7508-25.6339,21.998-32.1063,5.378-2.8421,11.5041-4.4585,18.0103-4.4585,7.8201,0,15.0921,2.332,21.1726,6.3283,0,0-77.8719-129.98-14.9167-199.3395,17.857-18.8302,43.8752-28.9546,71.2097-23.3931" fill="none" stroke="#e95420" stroke-linecap="round" stroke-linejoin="round" stroke-width="2.499"/><path d="M735.9629,651.627c-175.39-24.7088-135.5378-138.1688-135.5378-138.1688,32.5874-105.2024-57.8527-219.8671-171.213-231.088,0,0-20.2352-1.3098-35.4896-17.9202-11.4537-12.4718-14.8507-22.5242-16.1632-41.5362-1.5771-22.843-18.6175-28.603-20.1363-29.4094-.7915-.4202-1.7742-.1107-2.1667.6949-.7472,1.5338-20.271,41.6574-20.271,41.6574l-66.5308,24.5c-3.3864,1.247-5.4926,4.6351-5.1123,8.2236l1.7634,16.6385c.1367,1.2901.9032,2.4248,2.0441,3.0425,40.4761,21.9172,76.2044,51.4791,105.251,86.7525l.3555.2913.0031.0026-.0561.0694-26.2223,32.4596-22.408,27.7381c-4.346,5.2505-6.8108,9.4498-7.854,15.366-1.8432,10.4524,3.3737,20.5111,12.221,25.3017,1.6249.8799,3.3717,1.5815,5.2204,2.0752.8901.2377,1.7944-.3484,1.9544-1.2556l4.977-28.2241,73.429-33.4562" fill="none" stroke="#e95420" stroke-linecap="round" stroke-linejoin="round" stroke-width="2.499"/><circle cx="450" cy="449.9821" r="449.8204" fill="none"/></svg>