<?xml version="1.0" encoding="UTF-8"?><svg id="a" xmlns="http://www.w3.org/2000/svg" viewBox="0 0 280 280"><path d="M227.2122,218.8834c12.2542-17.2375,19.4597-38.3145,19.4597-61.0745,0-40.1497-22.4251-75.0576-55.4307-92.8942l2.6009,19.9402c1.3717,10.5169-1.8549,21.1195-8.8527,29.0893-6.9975,7.9697-17.0938,12.5406-27.6998,12.5406h-14.9983v6.0651c5.7908,1.4325,11.2476,4.106,15.8322,7.7638l-1.429,1.7909c-4.5499-3.6304-10.0132-6.2343-15.799-7.5301-.5232-.1172-.8952-.5815-.8952-1.1178v-6.972h-58.0185l18.89-24.2872-10.7461-13.4327c-.7692-.9619-.9156-2.2487-.3821-3.3585.5336-1.1099,1.6301-1.7994,2.8615-1.7994h22.7264l24.058-31.3082c-57.4703.938-103.7701,47.8163-103.7701,105.5102,0,6.727.6308,13.3064,1.834,19.6836,5.7796.162,10.5132,1.991,14.7095,3.6173,3.8711,1.5001,7.5274,2.9171,11.5289,2.9171,3.6785,0,6.9561-.6681,9.7417-1.9861,4.7349-2.2406,8.1865-7.2615,8.3935-12.2096.1415-3.3751-1.2586-6.3778-3.8412-8.2377-2.6182-1.8854-5.9658-2.2632-9.1835-1.0353-2.9224,1.1158-5.1983,3.704-5.798,6.5931-.7704,3.7121,1.2493,6.6241,3.0794,8.4133l-1.6016,1.6382c-3.165-3.0944-4.4863-6.8294-3.7209-10.5172.7661-3.6906,3.5342-6.8588,7.2243-8.2676,3.9513-1.5079,8.0841-1.0274,11.3391,1.3166,3.2194,2.3186,4.9658,6.0335,4.7914,10.1925-.2411,5.7622-4.2309,11.5952-9.7027,14.1845-3.0942,1.464-6.7014,2.2062-10.7215,2.2062-4.4298,0-8.2802-1.4922-12.3567-3.072-4.0769-1.5799-8.2842-3.2063-13.4188-3.4452.6842,3.2272,1.5145,6.4002,2.4863,9.511,1.1864.0029,2.2527.0048,3.0714.0048,12.4581,0,20.7831,2.443,26.199,7.6885.4096.3957.8138.8006,1.2182,1.2061,1.3646,1.3675,2.6535,2.6589,4.1819,3.6478,4.9037,3.1721,8.3041,2.1648,9.5384,1.5848,1.2966-.6088,2.2964-1.643,2.6747-2.7663.3013-.8943.2159-1.8032-.2538-2.7009-.4767-.908-1.2983-1.5806-2.3126-1.8924-1.0722-.3294-2.2505-.2178-3.2332.3073l-1.0795-2.0208c1.5174-.8107,3.3344-.9841,4.9859-.4762,1.6021.4925,2.9049,1.5647,3.6685,3.0186.7604,1.4536.897,3.0077.3957,4.4957-.5824,1.7291-1.9935,3.2266-3.8716,4.1087-1.2066.5669-2.537.8468-3.9383.8468-2.4783.0003-5.1796-.8745-7.8185-2.5818-1.7334-1.1211-3.17-2.5608-4.5592-3.9532-.3947-.3954-.789-.7909-1.1895-1.1779-4.9622-4.8058-12.7807-7.0439-24.6061-7.0439-.6431,0-1.4402-.0012-2.3265-.0031.4931,1.4595,1.0187,2.904,1.5731,4.3342,8.5318,1.074,11.5444,3.0709,15.1032,5.4308,1.8958,1.257,3.8561,2.5571,6.9723,3.8723,13.096,5.5268,27.47,7.4849,41.5685,5.6624,15.3461-1.9827,26.7729-7.3507,33.9634-15.9553,3.7177-4.4459,5.5416-10.0236,4.8788-14.9197-.5084-3.7568-2.4856-6.925-5.7183-9.1623l1.3037-1.8837c3.7761,2.6134,6.0878,6.3266,6.6848,10.7387.7475,5.5234-1.2679,11.7653-5.3914,16.6964-7.5716,9.0607-19.4912,14.6991-35.4273,16.7579-3.5189.455-7.0544.6807-10.5837.6807-11.0142,0-21.9687-2.1995-32.1692-6.5042-3.3132-1.3985-5.4566-2.82-7.3476-4.074-3.1227-2.0706-5.7964-3.843-12.8516-4.8898.7065,1.6945,1.455,3.367,2.2459,5.0154,5.1897,1.9288,9.5904,5.3393,16.2303,10.7814,11.0386,9.0529,19.1864,12.4185,30.0626,12.4185v2.2909c-13.1063,0-21.7756-4.9504-31.5151-12.9378-5.4271-4.4481-9.2377-7.4499-13.1869-9.3783,4.5873,8.7863,10.3743,16.8467,17.1454,23.9624,7.0247,1.6794,15.0081,2.7007,22.2261,1.4937,15.7149-2.6279,23.9022-5.517,29.8803-7.6267,6.0184-2.124,10.3669-3.6584,18.2613-3.6584,6.1574,0,11.1383,1.9302,15.5327,3.633,3.8709,1.5001,7.5274,2.9171,11.5289,2.9171,3.6785,0,6.9561-.6681,9.7417-1.9861,4.7351-2.2403,8.1865-7.2612,8.3935-12.2093.1412-3.3751-1.2587-6.3778-3.8413-8.2377-2.6181-1.8854-5.9655-2.2624-9.1832-1.0356-2.9224,1.1158-5.1985,3.704-5.798,6.5931-.4254,2.049-.2363,5.1719,3.0793,8.4133l-1.6013,1.6382c-3.1651-3.0941-4.4865-6.8294-3.7211-10.5172.766-3.6909,3.5342-6.8588,7.2243-8.2679,3.9515-1.5068,8.0845-1.0272,11.3388,1.3172,3.2194,2.3183,4.9658,6.0335,4.7913,10.1925-.2408,5.7622-4.2306,11.5952-9.7023,14.1842-3.0944,1.464-6.7016,2.2062-10.7216,2.2062-4.43,0-8.2802-1.4922-12.3567-3.0717-4.4129-1.7101-8.9757-3.4783-14.705-3.4783-7.5021,0-11.479,1.4033-17.499,3.5278-6.0574,2.1377-14.3533,5.0651-30.2647,7.726-2.3172.3876-4.7017.5551-7.0914.5551-4.2794.0002-8.575-.539-12.5445-1.312,4.5896,4.4547,9.5828,8.4953,14.9195,12.0628,5.31.5037,10.5519.4658,15.6941-.1282,5.84-.6745,12.4582-1.4391,20.5781-4.7779,2.3926-.9833,4.2676-1.9279,5.9219-2.7613,3.1027-1.563,5.5533-2.7974,9.2667-3.2202,5.931-.6742,12.1278,1.0652,18.4158,5.1724l-1.2528,1.9179c-5.8294-3.8075-11.5166-5.4278-16.904-4.8139-3.3069.3764-5.483,1.4726-8.495,2.9898-1.6911.8518-3.6079,1.8175-6.0816,2.8343-8.4128,3.459-15.4948,4.2773-21.1853,4.9347-2.8664.3311-5.7632.4964-8.6826.4964-1.0727,0-2.1488-.0239-3.2277-.0685,2.6101,1.5781,5.2943,3.0458,8.0457,4.3977,1.8421.1243,3.4676.1954,4.633.1796,4.0496-.0515,8.1893-.4528,11.9718-1.1608,5.8003-1.0873,10.3087-2.7325,12.234-3.435,2.051-.7481,3.1219-1.2268,3.9824-1.6116,1.0273-.4592,1.7694-.7909,3.3866-1.2224,1.7085-.4544,6.2446-1.662,12.0231-.8515,4.1003.573,7.9799,2.0166,11.5315,4.2901l-1.2352,1.9296c-3.2717-2.0946-6.8425-3.4238-10.6136-3.9509-5.319-.7458-9.5307.375-11.1162.7964-1.4391.384-2.042.6535-3.0411,1.1002-.8933.3993-2.0054.8966-4.1323,1.6723-1.9781.7218-6.611,2.4123-12.5974,3.5345-3.6908.6908-7.7064,1.0952-11.66,1.1835,4.1945,1.7759,8.5284,3.2867,12.9796,4.5148,4.5327-.974,9.1144-1.7703,13.7058-2.3682,11.4172-1.4878,20.2403-1.4324,25.5114-1.4011,9.0412.0593,16.9808.5699,24.1028,1.5517,10.3924-3.6749,20.0368-8.9322,28.6451-15.4814-.437-.0958-.8009-.1688-1.0161-.198-7.8697-1.0786-12.7368.7878-16.2911,2.1502-.8566.3283-1.6656.6384-2.4137.865-5.0788,1.5389-9.7769,2.299-14.4709,2.299-3.2149,0-6.4273-.3563-9.761-1.0627l.4748-2.2411c7.8037,1.6541,14.9253,1.2875,23.0929-1.1877.6692-.2027,1.4055-.4849,2.2579-.8116,3.5726-1.3692,8.9704-3.4383,17.4212-2.2811.5564.0758,1.7064.3374,3.0244.6547,2.6193-2.1101,5.1356-4.3429,7.5403-6.6894-5.826-1.3367-13.8925-1.5246-17.492-.8657-2.9282.5369-5.8433,1.4872-8.6622,2.4064-2.042.6656-4.1537,1.3541-6.2877,1.8946-6.0259,1.5263-12.4736,1.9016-18.6478,1.0828-4.7723-.6326-8.4558-2.2811-12.0181-3.8754-4.5066-2.0171-8.7629-3.9221-15.147-3.9221-7.5973,0-10.8758,1.7817-14.672,3.8444-4.9041,2.6651-10.4626,5.6856-26.0375,5.6856v-2.2909c14.9926,0,20.2793-2.8729,24.9436-5.4076,3.9013-2.12,7.5863-4.1224,15.7658-4.1224,6.8732,0,11.5551,2.0954,16.0829,4.1218,3.5695,1.5979,6.9413,3.1069,11.383,3.6959,5.8872.78,12.0371.4234,17.7842-1.033,2.0596-.5216,4.1341-1.1978,6.1403-1.8519,2.8908-.9424,5.88-1.917,8.9595-2.4816,4.1743-.763,13.53-.4956,19.7881,1.2341,3.2556-3.3403,6.2913-6.8959,9.0844-10.643-11.8036-4.0952-29.648-.1601-37.8877,4.7985l-1.1813-1.9629c4.8525-2.9201,12.2412-5.267,19.765-6.2779,7.9681-1.071,15.2498-.5293,20.7094,1.513ZM72.3349,166.5969c1.3428,0,2.4352,1.0925,2.4352,2.4353s-1.0923,2.4353-2.4352,2.4353-2.4353-1.0925-2.4353-2.4353,1.0925-2.4353,2.4353-2.4353ZM146.7229,216.0982c-3.0577-.8748-6.1867-1.3619-9.3004-1.4478-7.1939-.2027-12.5927,1.7509-15.8163,2.9176-.2643.0956-.5126.1854-.7444.2679-7.0254,2.4945-15.0127,3.7518-23.8019,3.7518-1.6753,0-3.3797-.0459-5.1122-.1373l.1208-2.2876c10.5191.5546,19.9482-.6172,28.0266-3.4859.2278-.0808.4718-.1692.7314-.2632,3.1552-1.1421,9.0328-3.2722,16.6597-3.0532,3.3047.0909,6.6247.6074,9.867,1.535l-.6303,2.2025ZM168.7576,208.5856c1.535-.7595,3.9596-1.1136,5.7357.3938l-1.4827,1.7467c-.8683-.7372-2.2518-.5741-3.2387-.0861-.0187.0092-1.6539.8703-.997,2.5337l-2.131.8412c-1.0568-2.6763.7355-4.7502,2.1136-5.4292ZM153.8136,219.4968c-1.3449,0-2.4352-1.0903-2.4352-2.4352s1.0903-2.4352,2.4352-2.4352,2.4352,1.0903,2.4352,2.4352-1.0903,2.4352-2.4352,2.4352ZM167.8872,167.2318c1.2308,6.8592.3448,14.1852-2.8661,20.791-3.1279,6.4267-8.2159,12.5075-15.1228,18.0737l-1.4374-1.7836c6.6426-5.3534,11.5208-11.1713,14.5-17.292,5.8531-12.0416,3.4506-26.6391-5.8428-35.4982-9.5661-9.1161-23.7414-12.9026-36.1144-9.6477-11.1292,2.9254-23.4953,11.2887-24.8264,25.9887-.5306,5.8528,1.6765,12.2658,5.7603,16.7366,2.7175,2.9752,7.5638,6.5215,15.2187,6.5215,8.6484,0,14.7779-5.7662,16.3632-11.4618,1.2776-4.5911-.3665-8.658-4.5105-11.1581-1.7706-1.0691-4.423-.9469-6.3064.2897-.8363.549-2.1954,1.7951-1.9015,3.9744l-2.2705.3059c-.3371-2.5001.7253-4.7583,2.9148-6.1957,2.6244-1.7224,6.2214-1.8602,8.7474-.3359,5.016,3.0264,7.0847,8.1605,5.5338,13.7337-1.817,6.529-8.7791,13.1386-18.5702,13.1386-8.4898,0-13.8818-3.952-16.9102-7.2673-4.5039-4.9308-6.9373-12.015-6.3505-18.4884,1.2031-13.2849,11.367-24.0132,26.5254-27.9974,13.1241-3.4534,28.1487.5523,38.2777,10.2048,2.7547,2.626,4.9445,5.7199,6.5458,9.0923l.0713-.0394c4.1193,7.4578,9.0084,13.267,14.5316,17.2657,10.8651,7.858,25.6973,8.054,36.0684.4765,10.6715-7.8001,16.8899-21.057,15.8423-33.7736-.9408-11.4413-7.0327-25.0487-21.3098-28.9277-5.7069-1.5511-12.4429-.4944-17.5789,2.7579-3.393,2.1487-7.7178,6.2823-9.0529,13.7723-1.5084,8.468,3.0918,15.4934,8.4156,18.057,4.322,2.0817,8.6396,1.1846,11.8447-2.4609,1.3586-1.5434,1.7056-4.1593.8255-6.22-.3943-.924-1.3868-2.4881-3.6008-2.5812l.0962-2.2888c2.5342.1065,4.5796,1.5536,5.6115,3.9704,1.2282,2.8765.7296,6.4264-1.2123,8.6329-3.8765,4.4087-9.3194,5.5346-14.5587,3.0119-6.1023-2.9383-11.3858-10.9313-9.6771-20.523,1.4813-8.3114,6.3006-12.911,10.0826-15.3059,5.6618-3.5854,13.0978-4.7482,19.4054-3.0331,12.9006,3.5049,21.7108,15.3644,22.9922,30.9504,1.1119,13.4941-5.4722,27.5508-16.7738,35.8112-5.4697,3.9965-12.0869,5.9882-18.7851,5.9882-6.9717,0-14.0313-2.1575-19.9778-6.4583-3.8578-2.7931-7.4094-6.415-10.6173-10.8071ZM122.9023,177.3759c0-1.3449,1.0903-2.4352,2.4352-2.4352s2.4352,1.0903,2.4352,2.4352-1.0903,2.4352-2.4352,2.4352-2.4352-1.0903-2.4352-2.4352ZM234.3338,169.8851c-2.3359,5.4124-5.687,10.1749-9.9607,14.1549-1.8924,1.7649-6.9203,6.4541-15.0204,8.9757-3.5818,1.1147-7.3635,1.6807-11.1397,1.6807-1.6088,0-3.2163-.1026-4.8072-.3096l.2953-2.2719c4.9991.651,10.1763.2055,14.9706-1.2867,7.601-2.3661,12.1828-6.6395,14.1392-8.4642,4.041-3.7633,7.21-8.2671,9.4193-13.3867l2.1035.9078ZM180.4875,199.7124c-1.3449,0-2.4352-1.0903-2.4352-2.4352s1.0903-2.4352,2.4352-2.4352,2.4352,1.0903,2.4352,2.4352-1.0903,2.4352-2.4352,2.4352ZM182.0245,229.1638c-1.3449,0-2.4352-1.0903-2.4352-2.4352s1.0903-2.4352,2.4352-2.4352,2.4352,1.0903,2.4352,2.4352-1.0903,2.4352-2.4352,2.4352ZM186.2448,205.3288l1.1578-1.9766c4.4756,2.6215,9.28,4.2599,14.2799,4.8701,5.185.632,15.9746,1.9469,24.2028-5.9893,6.0122-5.8,7.0995-13.4952,7.2128-17.5661l2.2898.0638c-.1228,4.4202-1.3138,12.7857-7.9119,19.1512-6.0752,5.8596-13.2908,7.132-19.0438,7.132-2.7825,0-5.2222-.2973-7.0271-.5174-5.3126-.6485-10.4131-2.3871-15.1602-5.1677Z" fill="#e95420"/><path d="M127.0169,259.446c-2.9432.3831-5.8829.8466-8.8078,1.3877,7.3845,1.6367,15.0594,2.5014,22.9364,2.5014,10.4215,0,20.4898-1.5114,29.9986-4.3258-5.7364-.5879-12.0014-.9001-18.9263-.9454-5.2138-.0316-13.9384-.0861-25.2009,1.382Z" fill="#e95420"/><path d="M206.3906,29.3515c.2327,1.3202.3832,2.701.466,4.2658l13.5483-2.874c-6.2251-14.2481-18.3976-24.8539-32.9207-29.2999-.9322.023-1.8536.062-2.7686.1098,11.3432,5.0746,19.4836,15.3704,21.675,27.7983Z" fill="#e95420"/><path d="M171.5858,29.9597c4.4831,0,8.1174-3.6343,8.1174-8.1174s-3.6343-8.1174-8.1174-8.1174-8.1174,3.6343-8.1174,8.1174,3.6343,8.1174,8.1174,8.1174ZM170.6774,25.5141c-1.229-.2633-2.2307-1.1058-2.7031-2.2657.3328.0612.6785.0186.9861-.1214.39.7521,1.0845,1.2831,1.9151,1.4608l.0005.0004c.0931.02.1879.0355.2828.0461.008.3497.1259.6856.3377.964-.2739.0018-.5496-.0266-.8191-.0842ZM172.8177,25.7473c-.6369,0-1.1532-.5163-1.1532-1.1532s.5163-1.1532,1.1532-1.1532,1.1532.5163,1.1532,1.1532-.5163,1.1532-1.1532,1.1532ZM175.1554,22.6155c-.1219.5685-.3744,1.1024-.7328,1.5544,0,.0001.0001.0003.0001.0004h-.0004s.0002-.0003.0003-.0004c-.0892-.3371-.2805-.6366-.5521-.859.1702-.2744.2908-.5749.359-.8935.1396-.6515.0443-1.3283-.2668-1.9147.2908-.1817.5159-.4468.6489-.7597.558.843.7561,1.8823.5438,2.8724ZM173.0777,17.9373c.6369,0,1.1533.5163,1.1533,1.1532s-.5163,1.1532-1.1533,1.1532-1.1532-.5163-1.1532-1.1532.5163-1.1532,1.1532-1.1532ZM171.7625,18.066c-.1538.1977-.2619.4281-.3151.6755-.0186.0851-.0301.1724-.0346.2593-.9081.0164-1.7454.4649-2.2648,1.2118-.1618-.1002-.3386-.172-.5265-.2119-.1152-.0248-.2318-.0372-.3484-.0372-.0293,0-.0585.0004-.0878.0022.7176-1.2662,2.127-2.0144,3.5772-1.8996ZM168.2745,20.4664c.6369,0,1.1532.5163,1.1532,1.1532s-.5163,1.1533-1.1532,1.1533-1.1532-.5163-1.1532-1.1533.5163-1.1532,1.1532-1.1532Z" fill="#e95420"/><path d="M92.6051,85.8977c-.5017,0-.7243.3504-.7967.501s-.2069.5432.1063.9349l11.875,14.8439-17.1237,22.0162h70.6235c9.947,0,19.4157-4.2868,25.9783-11.7613,6.5629-7.4744,9.589-17.418,8.3023-27.2812l-5.4996-42.1657.3454-.3903c1.3365-1.5111,2.5088-3.2236,3.4842-5.0901l.2497-.4781,14.432-3.0614c-.0749-1.5672-.2198-2.9257-.4474-4.2163-2.2993-13.0409-11.5717-23.5878-24.2266-27.5818-.0853.0099-.1703.0189-.2556.0278-.1893.0199-.368.0387-.5333.0678-.3342.059-.6647.1334-1.0146.2121-.1477.0333-.2953.0664-.4435.0986l-.3454.0748-.3275-.1326c-3.0326-1.2284-6.2156-1.8513-9.4604-1.8513-13.9155,0-25.2364,11.3209-25.2364,25.2361v26.3889l-25.8392,33.6079h-23.8469ZM167.5271,5.6075c11.2078,0,20.2935,9.0857,20.2935,20.2935s-9.0857,20.2935-20.2935,20.2935-20.2935-9.0857-20.2935-20.2935,9.0857-20.2935,20.2935-20.2935ZM148.6294,72.576v-19.9994l-.0006.0002.0006-.0007c12.3112.8636,24.0368,3.8288,34.8232,8.556l3.2164,24.6585c1.1025,8.453-1.4909,16.9751-7.1154,23.3809-5.6245,6.4058-13.7395,10.0797-22.2642,10.0797h-60.518l11.0487-14.2055h8.3398c17.9325,0,32.4696-14.5372,32.4696-32.4696Z" fill="#e95420"/></svg>