<svg width="313" height="81" viewBox="0 0 313 81" fill="none" xmlns="http://www.w3.org/2000/svg">

<path d="M76.5569 71.7495C73.4069 71.7495 70.8829 71.1395 68.9849 69.9195C67.0869 68.6995 65.7069 67.0415 64.8429 64.9395C63.9789 62.8395 63.5469 60.4855 63.5469 57.8755V35.7715H67.5109V57.4175C67.5109 61.1775 68.3489 63.9135 70.0269 65.6235C71.7029 67.3335 73.8809 68.1895 76.5569 68.1895C79.2329 68.1895 81.4609 67.3255 83.1369 65.5975C84.8129 63.8695 85.6529 61.1435 85.6529 57.4175V35.7715H89.6169V57.8755C89.6169 60.4835 89.1849 62.8395 88.3209 64.9395C87.4569 67.0395 86.0769 68.6995 84.1789 69.9195C82.2809 71.1395 79.7409 71.7495 76.5569 71.7495Z" fill="black"/>
<path d="M106.765 71.5966C105.273 71.5966 103.919 71.5206 102.699 71.3686C101.479 71.2166 100.403 71.0286 99.4726 70.8106C98.5406 70.5906 97.7366 70.3786 97.0586 70.1746V32.2166L100.869 31.5566V46.1406C101.479 45.7006 102.401 45.2506 103.639 44.7946C104.875 44.3366 106.307 44.1086 107.933 44.1086C110.473 44.1086 112.625 44.6926 114.387 45.8606C116.149 47.0286 117.495 48.6466 118.427 50.7126C119.359 52.7786 119.825 55.1506 119.825 57.8266C119.825 60.6726 119.283 63.1206 118.199 65.1686C117.115 67.2186 115.591 68.8026 113.625 69.9186C111.659 71.0366 109.373 71.5946 106.765 71.5946V71.5966ZM106.715 68.1926C108.545 68.1926 110.145 67.7866 111.517 66.9726C112.889 66.1606 113.947 64.9826 114.693 63.4406C115.437 61.8986 115.811 60.0286 115.811 57.8266C115.811 56.4046 115.667 55.0666 115.379 53.8126C115.091 52.5606 114.617 51.4586 113.957 50.5106C113.297 49.5626 112.433 48.8266 111.365 48.3006C110.297 47.7766 109.003 47.5126 107.477 47.5126C105.951 47.5126 104.699 47.7586 103.513 48.2486C102.327 48.7406 101.447 49.2226 100.871 49.6966V67.5326C101.345 67.6686 102.065 67.8126 103.031 67.9646C103.997 68.1166 105.223 68.1926 106.715 68.1926Z" fill="black"/>
<path d="M135.896 71.496C133.254 71.496 131.162 70.996 129.62 69.996C128.078 68.998 126.978 67.582 126.318 65.754C125.658 63.924 125.328 61.808 125.328 59.402V44.666H129.138V58.386C129.138 60.758 129.374 62.654 129.85 64.078C130.324 65.5 131.094 66.526 132.162 67.152C133.228 67.78 134.644 68.092 136.404 68.092C137.826 68.092 139.088 68.016 140.19 67.864C141.29 67.712 142.01 67.584 142.35 67.482V44.666H146.11V70.072C145.094 70.344 143.73 70.648 142.02 70.986C140.31 71.324 138.268 71.494 135.896 71.494V71.496Z" fill="black"/>
<path d="M153.295 70.9882V45.5822C154.345 45.3122 155.717 45.0062 157.411 44.6682C159.105 44.3302 161.137 44.1602 163.509 44.1602C166.253 44.1602 168.387 44.6682 169.911 45.6842C171.435 46.7002 172.511 48.1162 173.137 49.9262C173.763 51.7382 174.077 53.8482 174.077 56.2522V70.9882H170.265V57.3202C170.265 54.9162 170.045 53.0002 169.605 51.5782C169.165 50.1562 168.419 49.1222 167.369 48.4782C166.319 47.8342 164.861 47.5122 162.999 47.5122C161.577 47.5122 160.323 47.5962 159.239 47.7662C158.155 47.9362 157.443 48.0702 157.105 48.1722V70.9862H153.295V70.9882Z" fill="black"/>
<path d="M189.544 71.5468C187.308 71.5468 185.546 71.1568 184.26 70.3788C182.972 69.6008 182.066 68.4308 181.542 66.8728C181.016 65.3148 180.754 63.3668 180.754 61.0288V37.0448L184.564 36.3848V44.6668H194.88V47.8688H184.564V61.3348C184.564 63.1988 184.776 64.6208 185.2 65.6028C185.624 66.5848 186.234 67.2548 187.03 67.6108C187.826 67.9668 188.766 68.1448 189.85 68.1448C191.136 68.1448 192.212 67.9928 193.076 67.6868C193.94 67.3828 194.626 67.1108 195.134 66.8728L195.946 69.9728C195.438 70.2768 194.6 70.6168 193.43 70.9888C192.26 71.3608 190.966 71.5468 189.542 71.5468H189.544Z" fill="black"/>
<path d="M209.998 71.496C207.356 71.496 205.264 70.996 203.722 69.996C202.18 68.998 201.08 67.582 200.42 65.754C199.76 63.924 199.43 61.808 199.43 59.402V44.666H203.24V58.386C203.24 60.758 203.476 62.654 203.952 64.078C204.426 65.5 205.196 66.526 206.264 67.152C207.332 67.78 208.746 68.092 210.506 68.092C211.928 68.092 213.19 68.016 214.292 67.864C215.392 67.712 216.112 67.584 216.452 67.482V44.666H220.212V70.072C219.196 70.344 217.832 70.648 216.122 70.986C214.41 71.324 212.37 71.494 209.998 71.494V71.496Z" fill="black"/>
<path d="M240.635 70.9867V36.4347C241.923 36.0967 243.405 35.8507 245.081 35.6987C246.757 35.5467 248.307 35.4707 249.731 35.4707C254.711 35.4707 258.445 36.4287 260.935 38.3407C263.425 40.2547 264.669 42.9727 264.669 46.4967C264.669 49.1727 264.051 51.3247 262.815 52.9507C261.577 54.5767 259.799 55.7547 257.479 56.4827C255.159 57.2107 252.373 57.5747 249.121 57.5747H244.599V70.9887H240.635V70.9867ZM244.599 54.1687H248.765C251.169 54.1687 253.253 53.9567 255.015 53.5327C256.775 53.1087 258.139 52.3387 259.105 51.2207C260.071 50.1027 260.553 48.5107 260.553 46.4447C260.553 44.3787 260.045 42.9047 259.029 41.8207C258.013 40.7367 256.691 39.9747 255.065 39.5347C253.439 39.0947 251.711 38.8747 249.883 38.8747C248.697 38.8747 247.673 38.9167 246.809 39.0007C245.945 39.0847 245.209 39.1627 244.599 39.2287V54.1687Z" fill="black"/>
<path d="M269.553 70.9882V45.8862C270.433 45.5142 271.645 45.1322 273.187 44.7422C274.729 44.3522 276.583 44.1582 278.751 44.1582C279.463 44.1582 280.165 44.2002 280.859 44.2842C281.553 44.3682 282.181 44.4702 282.739 44.5882C283.297 44.7082 283.713 44.8162 283.983 44.9182L283.221 48.1702C282.917 48.0362 282.339 47.8902 281.493 47.7382C280.645 47.5862 279.563 47.5102 278.241 47.5102C276.919 47.5102 275.887 47.6042 275.039 47.7902C274.191 47.9762 273.633 48.1382 273.363 48.2722V70.9862H269.553V70.9882Z" fill="black"/>
<path d="M297.819 71.5966C295.481 71.5966 293.399 71.0286 291.569 69.8946C289.739 68.7606 288.309 67.1586 287.275 65.0926C286.241 63.0266 285.725 60.6046 285.725 57.8266C285.725 55.0486 286.241 52.6366 287.275 50.5866C288.307 48.5366 289.739 46.9366 291.569 45.7846C293.399 44.6326 295.481 44.0566 297.819 44.0566C300.157 44.0566 302.291 44.6326 304.119 45.7846C305.949 46.9366 307.379 48.5366 308.413 50.5866C309.445 52.6366 309.963 55.0506 309.963 57.8266C309.963 60.6026 309.447 63.0266 308.413 65.0926C307.379 67.1586 305.957 68.7606 304.145 69.8946C302.333 71.0286 300.223 71.5966 297.819 71.5966ZM297.819 68.1926C299.513 68.1926 300.969 67.7686 302.189 66.9226C303.409 66.0766 304.349 64.8726 305.009 63.3146C305.669 61.7566 305.999 59.9266 305.999 57.8266C305.999 55.7266 305.669 53.8966 305.009 52.3386C304.349 50.7806 303.409 49.5786 302.189 48.7306C300.969 47.8846 299.513 47.4606 297.819 47.4606C296.125 47.4606 294.719 47.8846 293.499 48.7306C292.279 49.5786 291.339 50.7806 290.679 52.3386C290.019 53.8966 289.689 55.7266 289.689 57.8266C289.689 59.9266 290.019 61.7566 290.679 63.3146C291.339 64.8726 292.279 66.0766 293.499 66.9226C294.719 67.7706 296.157 68.1926 297.819 68.1926Z" fill="black"/>
<path d="M33.6584 45.8579C36.5635 45.8579 38.9184 43.5029 38.9184 40.5979C38.9184 37.6929 36.5635 35.3379 33.6584 35.3379C30.7534 35.3379 28.3984 37.6929 28.3984 40.5979C28.3984 43.5029 30.7534 45.8579 33.6584 45.8579Z" fill="white"/>
<path d="M32.4748 70.9595C35.3799 70.9595 37.7348 68.6045 37.7348 65.6995C37.7348 62.7944 35.3799 60.4395 32.4748 60.4395C29.5698 60.4395 27.2148 62.7944 27.2148 65.6995C27.2148 68.6045 29.5698 70.9595 32.4748 70.9595Z" fill="white"/>
<path d="M39.7953 63.7682C41.4313 61.7062 42.5833 59.2682 43.1373 56.6782C44.1053 52.1602 43.2013 47.4202 40.6573 43.5762C40.0513 45.0042 39.0233 46.2102 37.6993 47.0402C39.1193 49.7162 39.5513 52.8042 38.9153 55.7742C38.6033 57.2282 38.0533 58.5982 37.2793 59.8502C38.5173 60.8662 39.3913 62.2322 39.7973 63.7702L39.7953 63.7682Z" fill="white"/>
<path d="M50.9328 0.947266H0.132812V80.9473H50.9328V0.947266Z" fill="#E95420"/>
<path d="M11.7502 57.3911C14.6553 57.3911 17.0102 55.0361 17.0102 52.1311C17.0102 49.2261 14.6553 46.8711 11.7502 46.8711C8.84522 46.8711 6.49023 49.2261 6.49023 52.1311C6.49023 55.0361 8.84522 57.3911 11.7502 57.3911Z" fill="white"/>
<path d="M33.6584 45.8559C36.5635 45.8559 38.9184 43.501 38.9184 40.5959C38.9184 37.6909 36.5635 35.3359 33.6584 35.3359C30.7534 35.3359 28.3984 37.6909 28.3984 40.5959C28.3984 43.501 30.7534 45.8559 33.6584 45.8559Z" fill="white"/>
<path d="M23.6149 65.6699C19.8249 64.8579 16.6589 62.4379 14.8789 59.0059C13.4769 59.6439 11.8989 59.8379 10.3809 59.5579C12.5349 64.8479 17.1029 68.6899 22.7109 69.8919C23.9409 70.1559 25.1949 70.2839 26.4469 70.2759C25.4809 69.0059 24.9429 67.4739 24.9069 65.8779C24.4729 65.8299 24.0409 65.7599 23.6169 65.6679L23.6149 65.6699Z" fill="white"/>
<path d="M32.4748 70.9595C35.3799 70.9595 37.7348 68.6045 37.7348 65.6995C37.7348 62.7944 35.3799 60.4395 32.4748 60.4395C29.5698 60.4395 27.2148 62.7944 27.2148 65.6995C27.2148 68.6045 29.5698 70.9595 32.4748 70.9595Z" fill="white"/>
<path d="M39.7953 63.7682C41.4313 61.7062 42.5833 59.2682 43.1373 56.6782C44.1053 52.1602 43.2013 47.4202 40.6573 43.5762C40.0513 45.0042 39.0233 46.2102 37.6993 47.0402C39.1193 49.7162 39.5513 52.8042 38.9153 55.7742C38.6033 57.2282 38.0533 58.5982 37.2793 59.8502C38.5173 60.8662 39.3913 62.2322 39.7973 63.7702L39.7953 63.7682Z" fill="white"/>
<path d="M11.3457 44.5879C11.4797 44.5799 11.6137 44.5779 11.7457 44.5779C12.2777 44.5779 12.8077 44.6339 13.3337 44.7479C14.1917 44.9319 14.9977 45.2559 15.7357 45.7139C18.1037 42.3079 21.9257 40.2639 26.0657 40.1879C26.0877 39.7899 26.1417 39.3939 26.2237 39.0039C26.4657 37.8779 26.9577 36.8239 27.6617 35.9219C21.0457 35.3979 14.6177 38.8119 11.3457 44.5879Z" fill="white"/>
</svg>
