<?xml version="1.0" encoding="UTF-8"?><svg id="a" xmlns="http://www.w3.org/2000/svg" viewBox="0 0 280 280"><polygon points="31.68 158.86 28.68 157.13 28.03 157.51 31.03 159.24 28.03 160.97 28.68 161.35 31.68 159.62 34.68 161.35 35.34 160.97 32.33 159.24 35.34 157.51 34.68 157.13 31.68 158.86" style="fill:#e95420; fill-rule:evenodd; stroke-width:0px;"/><polygon points="35.34 198.91 32.33 197.17 31.68 197.55 34.68 199.28 31.68 201.02 32.33 201.39 35.34 199.66 38.34 201.39 38.99 201.02 35.99 199.28 38.99 197.55 38.34 197.17 35.34 198.91" style="fill:#e95420; fill-rule:evenodd; stroke-width:0px;"/><polygon points="220.69 192.18 217.68 190.45 217.03 190.83 220.03 192.56 217.03 194.29 217.68 194.67 220.69 192.94 223.69 194.67 224.34 194.29 221.34 192.56 224.34 190.83 223.69 190.45 220.69 192.18" style="fill:#e95420; fill-rule:evenodd; stroke-width:0px;"/><polygon points="229.4 98.5 226.4 96.77 225.75 97.15 228.75 98.88 225.75 100.61 226.4 100.99 229.4 99.26 232.41 100.99 233.06 100.61 230.06 98.88 233.06 97.15 232.41 96.77 229.4 98.5" style="fill:#e95420; fill-rule:evenodd; stroke-width:0px;"/><path d="M251.97,139.25c0-.1,0-.19,0-.29-.15-7.32-4.67-13.91-12.75-18.58-7.05-4.07-16.28-6.31-25.99-6.31-6.76,0-13.25,1.07-18.98,3.11,0,0,0,0-.01,0-13.8-7.97-32.01-12.36-51.27-12.36s-37.47,4.39-51.28,12.36c-20.27,11.7-23.25,26.09-23.22,33.63.01,4.24.96,8.48,2.77,12.53-.89.45-1.76.92-2.6,1.4-11.11,6.42-17.18,15.36-17.08,25.19.06,5.79,2.31,11.33,6.48,16.18-.94.71-1.8,1.46-2.58,2.25-3.62,3.65-5.46,7.99-5.3,12.56.12,3.61,1.68,10.44,10.79,15.7,5.79,3.34,13.35,5.19,21.28,5.19h0c7.93,0,15.49-1.84,21.28-5.19l135.7-78.35c8.09-4.67,12.74-11.55,12.76-18.9v-.1Z" style="fill:#666; opacity:.2; stroke-width:0px;"/><path d="M242.44,126.22c-.06-4.81-3.27-9.61-9.63-13.28-11.87-6.85-30.55-7.37-43.45-1.56-.91-.59-1.86-1.18-2.85-1.75-27.21-15.71-71.34-15.71-98.55,0-13.64,7.88-20.44,18.21-20.41,28.53,0,.13,0,.27.01.4h-.01v7.36c.01,3.34.74,6.68,2.19,9.94-.69.3-1.38.6-2.05.92-1.19.56-2.34,1.17-3.45,1.81-9.46,5.46-14.15,12.63-14.08,19.79h0v7.77c.05,4.55,2.02,9.1,5.92,13.2-1.56.93-2.87,1.94-3.94,3.01-2.38,2.39-3.52,5.08-3.43,7.76v7.21c0,.18,0,.37,0,.55.13,3.75,2.66,7.47,7.61,10.33,1.74,1,3.66,1.83,5.7,2.49,9.91,3.2,22.68,2.38,31.11-2.49l139.68-80.64c6.41-3.7,9.62-8.55,9.63-13.4v-7.82s0-.08,0-.12Z" style="fill:#fff; stroke:#606060; stroke-linecap:round; stroke-linejoin:round; stroke-width:2px;"/><path d="M239.56,126.36c-1.59-2.05-3.84-3.98-6.76-5.66-11.87-6.85-30.55-7.37-43.45-1.56-.91-.59-1.86-1.18-2.85-1.75-27.21-15.71-71.34-15.71-98.55,0-3.91,2.25-7.25,4.71-10.03,7.31h2.16v38.73h-9.9c-.85.35-1.68.72-2.5,1.11-1.19.56-2.34,1.17-3.45,1.81-.77.44-1.51.9-2.22,1.37v36.53c.07.05.14.1.22.15-.07.02-.15.05-.22.08v26.23c9.91,3.2,22.68,2.38,31.11-2.49l139.68-80.64c6.41-3.7,9.62-8.55,9.63-13.4v-7.8h-2.88Z" style="fill:#e95420; stroke:#606060; stroke-miterlimit:10; stroke-width:.5px;"/><path d="M51.98,178.37h-1.83v7.77c.06,6.47,4.02,12.93,11.87,18.11v-36.53c-4.8,3.17-8.15,6.82-10.03,10.66Z" style="fill:#fff; stroke-width:0px;"/><path d="M80.08,124.7h-2.16c-4.62,4.31-7.69,9.02-9.23,13.86h-1.15v7.36c.02,5.54,2,11.08,5.96,16.23-1.14.39-2.25.82-3.33,1.27h9.9v-38.73Z" style="fill:#fff; stroke-width:0px;"/><path d="M56.32,206.95c-1.64.95-3.02,2-4.13,3.11h-3.48v7.27c0,.18,0,.37,0,.55.13,3.75,2.66,7.47,7.61,10.33,1.74,1,3.66,1.83,5.7,2.49v-26.23c-2.04.66-3.97,1.48-5.7,2.48Z" style="fill:#fff; stroke-width:0px;"/><path d="M239.56,126.36c-1.59-2.05-3.84-3.98-6.76-5.66-11.87-6.85-30.55-7.37-43.45-1.56-.91-.59-1.86-1.18-2.85-1.75-27.21-15.71-71.34-15.71-98.55,0-3.91,2.25-7.25,4.71-10.03,7.31h2.16v38.73h-9.9c-.85.35-1.68.72-2.5,1.11-1.19.56-2.34,1.17-3.45,1.81-.77.44-1.51.9-2.22,1.37v36.53c.07.05.14.1.22.15-.07.02-.15.05-.22.08-2.04.66-3.97,1.48-5.7,2.48-1.64.95-3.02,2-4.13,3.11h-3.48v7.27c0,.18,0,.37,0,.55.13,3.75,2.66,7.47,7.61,10.33,1.74,1,3.66,1.83,5.7,2.49,9.91,3.2,22.68,2.38,31.11-2.49l139.68-80.64c6.41-3.7,9.62-8.55,9.63-13.4v-7.8h-2.88Z" style="fill:none; stroke:#606060; stroke-miterlimit:10; stroke-width:.5px;"/><path d="M242.44,126.22c-.06-4.81-3.27-9.61-9.63-13.28-11.87-6.85-30.55-7.37-43.45-1.56-.91-.59-1.86-1.18-2.85-1.75-27.21-15.71-71.34-15.71-98.55,0-13.64,7.88-20.44,18.21-20.41,28.53.02,5.54,2,11.08,5.96,16.23-2.02.7-3.97,1.49-5.83,2.38-1.19.56-2.34,1.17-3.45,1.81-9.46,5.46-14.15,12.64-14.08,19.8.06,6.53,4.09,13.05,12.09,18.25-2.12.67-4.12,1.52-5.92,2.56-1.67.97-3.06,2.03-4.18,3.16-2.38,2.39-3.52,5.08-3.43,7.76.13,3.75,2.66,7.47,7.61,10.33,10.17,5.87,26.65,5.87,36.81,0l139.68-80.64c6.41-3.7,9.62-8.55,9.63-13.4v-.06s0-.08,0-.12Z" style="fill:#fff; stroke:#606060; stroke-linecap:round; stroke-linejoin:round; stroke-width:.5px;"/><path d="M58.22,138.56l-11.91-6.92c-1.2-.69-3.02-.77-4.06-.17l-12.69,7.38c-.59.34-.8.82-.66,1.3.11.37.43.74.95,1.04l11.91,6.92c1.2.69,3.02.77,4.06.17l12.69-7.38c.41-.24.63-.54.68-.87.08-.5-.25-1.05-.98-1.47Z" style="fill:#666; opacity:.2; stroke-width:0px;"/><path d="M167.49,228.73l-11.91-6.92c-1.2-.69-3.02-.77-4.06-.17l-12.69,7.38c-.59.34-.8.82-.66,1.3.11.37.43.74.95,1.04l11.91,6.92c1.2.69,3.02.77,4.06.17l12.69-7.38c.41-.24.63-.54.68-.87.08-.5-.25-1.05-.98-1.47Z" style="fill:#666; opacity:.2; stroke-width:0px;"/><ellipse cx="197.06" cy="135.54" rx="23.08" ry="13.33" style="fill:#666; opacity:.2; stroke-width:0px;"/><path d="M211.07,128.02c1-.5,2.05-1.03,2.09-1.05v-3.6s-4.98-3.38-4.98-3.38c-.07.03-3.82,1.86-3.87,1.9l-4.05-1.2v-3.04s-7.64-.35-7.64-.35c0,.05-.42,2.89-.41,2.93h0s0,0,0,0l-4.7.88s-3.26-2.2-3.32-2.23l-5.82,2.88v3.6s.62.44,1.31.91l-.25.29c-.08-.02-4.98-.22-5.07-.22l-.59,4.43v3.6c.07,0,3.9.2,4.84.24-1,.5-2.05,1.03-2.09,1.05v3.6s4.98,3.38,4.98,3.38c.07-.03,3.82-1.86,3.87-1.9l4.05,1.2v3.04s7.64.35,7.64.35c0-.05.41-2.8.41-2.93h0s4.7-.89,4.7-.89c.04.04,3.26,2.2,3.32,2.23l5.82-2.88v-3.6s-.62-.44-1.31-.91l.25-.29c.08.02,4.98.22,5.07.22l.59-4.43v-3.6c-.07,0-3.9-.2-4.84-.24ZM197.48,138.8s0,.01,0,.02c0-.01,0-.03,0-.03h0ZM194.32,133.45c-1.68-.08-3.18-.5-4.29-1.15-.53-.31-.97-.66-1.31-1.05,1.99-2.29,7.59-2.87,10.92-.95.51.3.94.64,1.27,1.02-1.22,1.37-3.77,2.26-6.6,2.12ZM201.67,129.35s0,.06,0,.09c0-.03,0-.06,0-.09ZM200.8,127.58s-.05-.05-.08-.08c.03.03.05.05.08.08ZM201.66,129.23s0-.06-.01-.09c0,.03,0,.06.01.09ZM201.62,129.01s-.01-.05-.02-.08c0,.03.01.05.02.08ZM201.55,128.75s0-.02,0-.03c0,0,0,.02,0,.03ZM201.46,128.53s-.02-.05-.03-.07c.01.02.02.05.03.07ZM201.36,128.33s-.03-.05-.05-.08c.02.03.03.05.05.08ZM201.25,128.14s-.04-.05-.06-.08c.02.03.04.05.06.08ZM201.11,127.95s-.04-.05-.06-.08c.02.03.04.05.06.08ZM200.97,127.76s-.05-.05-.07-.08c.02.03.05.05.07.08ZM200.62,127.41s-.05-.05-.08-.07c.03.02.06.05.08.07ZM200.43,127.24s-.06-.05-.09-.07c.03.02.06.05.09.07ZM200.21,127.07s-.06-.04-.09-.07c.03.02.06.04.09.07ZM199.98,126.91s-.05-.04-.08-.05c.03.02.05.04.08.05ZM194.68,125.55s-.02,0-.03,0c0,0,.02,0,.03,0ZM194.26,125.57c-2.31.13-4.47.95-5.54,2.18,1.04-1.22,3.13-2.07,5.54-2.18ZM188.03,129.19s0,0,0,0c-.01.09-.02.18-.02.28,0-.09,0-.18.02-.27ZM188.7,127.77c-.1.11-.18.23-.26.35.08-.12.16-.23.26-.35ZM188.3,128.36s-.03.07-.05.1c.02-.03.03-.07.05-.1ZM188.14,128.74s-.02.05-.03.08c0-.03.02-.05.03-.08ZM197.47,138.93c-.07.58-.39,2.75-.39,2.79,0-.04.32-2.21.39-2.79ZM197.48,138.84s0,.05,0,.08c0-.03,0-.06,0-.08Z" style="fill:#fff; stroke:#606060; stroke-linecap:round; stroke-linejoin:round; stroke-width:2px;"/><polygon points="192.21 120.23 192.2 123.83 192.2 123.83 192.21 120.22 192.21 120.23 192.21 120.23" style="fill:#fff; stroke:#606060; stroke-linecap:round; stroke-linejoin:round; stroke-width:.5px;"/><path d="M200.26,117.65v3.6c-.02.05-.36,2.89-.38,2.94v-3.6s.37-2.89.38-2.94h0Z" style="fill:#fff; stroke:#606060; stroke-linecap:round; stroke-linejoin:round; stroke-width:.5px;"/><path d="M181.66,124.01v3.6c-.16-.09-3.25-2.21-3.31-2.25v-3.6c.07.04,3.15,2.16,3.31,2.25h0Z" style="fill:#fff; stroke:#606060; stroke-linecap:round; stroke-linejoin:round; stroke-width:.5px;"/><path d="M213.17,123.37v3.6c-.08.03-3.78,1.89-3.86,1.92v-3.6c.09-.02,3.79-1.88,3.86-1.92h0Z" style="fill:#fff; stroke:#606060; stroke-linecap:round; stroke-linejoin:round; stroke-width:.5px;"/><path d="M199.66,126.71c-4.38-2.53-11.64-.63-11.65,2.79v3.6c0-3.73,7.54-5.15,11.64-2.79,1.26.73,2.02,1.73,2.02,2.81v-3.6c.01-1.09-.75-2.09-2.01-2.81Z" style="fill:#fff; stroke:#606060; stroke-linecap:round; stroke-linejoin:round; stroke-width:.5px;"/><path d="M178.83,131.01v3.6c-.09,0-4.99-.24-5.08-.25v-3.6c.1,0,4.99.25,5.08.25h0Z" style="fill:#fff; stroke:#606060; stroke-linecap:round; stroke-linejoin:round; stroke-width:.5px;"/><polygon points="215.92 128.26 215.91 131.86 215.33 136.29 215.34 132.69 215.92 128.26" style="fill:#fff; stroke:#606060; stroke-linecap:round; stroke-linejoin:round; stroke-width:.5px;"/><path d="M215.34,132.69v3.6c-.1,0-5-.21-5.08-.22v-3.6c.09.02,4.99.22,5.08.22h0Z" style="fill:#fff; stroke:#606060; stroke-linecap:round; stroke-linejoin:round; stroke-width:.5px;"/><polygon points="180.37 133.73 180.36 137.33 178.82 134.61 178.83 131.01 180.37 133.73" style="fill:#fff; stroke:#606060; stroke-linecap:round; stroke-linejoin:round; stroke-width:.5px;"/><polygon points="210.27 132.46 210.26 136.06 208.02 138.61 208.03 135.01 210.27 132.46" style="fill:#fff; stroke:#606060; stroke-linecap:round; stroke-linejoin:round; stroke-width:.5px;"/><polygon points="189.8 138.43 189.79 142.04 185.38 140.73 185.39 137.13 189.8 138.43" style="fill:#fff; stroke:#606060; stroke-linecap:round; stroke-linejoin:round; stroke-width:.5px;"/><polygon points="202.18 137.91 202.17 141.51 197.47 142.39 197.48 138.79 202.18 137.91" style="fill:#fff; stroke:#606060; stroke-linecap:round; stroke-linejoin:round; stroke-width:.5px;"/><path d="M185.39,137.13v3.6c-.06.04-3.81,1.87-3.88,1.9v-3.6c.08-.03,3.83-1.86,3.88-1.9h0Z" style="fill:#fff; stroke:#606060; stroke-linecap:round; stroke-linejoin:round; stroke-width:.5px;"/><polygon points="181.52 139.03 181.51 142.63 176.51 139.25 176.52 135.65 181.52 139.03" style="fill:#fff; stroke:#606060; stroke-linecap:round; stroke-linejoin:round; stroke-width:.5px;"/><polygon points="211.33 137.26 211.32 140.86 205.49 143.74 205.5 140.14 211.33 137.26" style="fill:#fff; stroke:#606060; stroke-linecap:round; stroke-linejoin:round; stroke-width:.5px;"/><path d="M205.5,140.14v3.6c-.07-.04-3.29-2.19-3.33-2.23v-3.6s3.27,2.2,3.33,2.23h0Z" style="fill:#fff; stroke:#606060; stroke-linecap:round; stroke-linejoin:round; stroke-width:.5px;"/><polygon points="197.08 141.72 197.06 145.33 189.42 144.97 189.43 141.37 197.08 141.72" style="fill:#fff; stroke:#606060; stroke-linecap:round; stroke-linejoin:round; stroke-width:.5px;"/><path d="M205.5,140.14c-.06-.04-3.28-2.19-3.32-2.23l-4.7.88s-.4,2.88-.41,2.93l-7.65-.35c0-.05.35-2.89.37-2.94l-4.41-1.3c-.05.04-3.8,1.87-3.87,1.9l-4.99-3.38c.07-.03,3.77-1.89,3.85-1.92l-1.54-2.73c-.08,0-4.98-.24-5.07-.25l.59-4.43c.09,0,4.99.21,5.07.22l2.24-2.55c-.15-.09-3.24-2.21-3.3-2.25l5.82-2.88c.06.04,3.28,2.19,3.32,2.23l4.7-.88s.4-2.88.41-2.93l7.65.35c0,.05-.35,2.89-.37,2.94l4.41,1.3s3.8-1.87,3.87-1.9l4.99,3.38c-.07.03-3.77,1.89-3.85,1.92l1.54,2.72c.08,0,4.98.24,5.07.25l-.59,4.43c-.09,0-4.99-.21-5.07-.22l-2.24,2.55c.15.09,3.24,2.21,3.3,2.25l-5.82,2.88ZM194.32,133.45c3.76.17,7.05-1.45,7.33-3.63.16-1.2-.63-2.32-2-3.11-1.11-.64-2.61-1.07-4.29-1.15-3.76-.17-7.05,1.45-7.33,3.63-.16,1.2.63,2.32,2,3.11,1.11.64,2.61,1.07,4.29,1.15h0Z" style="fill:#fff; stroke:#606060; stroke-linecap:round; stroke-linejoin:round; stroke-width:.5px;"/><path d="M197.48,138.79v3.6c-.01.13-.41,2.88-.42,2.93v-3.6c.02-.05.42-2.8.42-2.93h0Z" style="fill:#fff; stroke:#606060; stroke-linecap:round; stroke-linejoin:round; stroke-width:.5px;"/><ellipse cx="194.82" cy="213.96" rx="22.84" ry="13.19" style="fill:#666; opacity:.2; stroke-width:0px;"/><path d="M212.91,214.01l-.02-7.64.02-2.62c-1.02.04-2.83-.06-4.19-.43l-.02-5.5-3.19-1.85c-1.09.63-4.12,2.03-5.91,1.42-.61-.17-1.24-.33-1.88-.45-2.02-.3-2.44-2.53-2.43-3.42h-4.53c0,.74-.3,2.39-1.55,3.11-.26.15-.56.26-.91.31-.64.13-1.27.27-1.88.45-2.08.45-4.81-.79-5.9-1.42l-3.21,1.85v5.45c-1.38.37-3.29.48-4.28.48v2.62s.01,7.64.01,7.64c.96,0,2.8.1,4.19.45v-2.16s.02,7.64.02,7.64l3.19,1.85c1.09-.63,4.12-2.03,5.91-1.42.61.18,1.24.33,1.88.45,1.99.3,2.42,2.47,2.43,3.38v.04s4.52,0,4.52,0c.07-.77.33-2.4,1.56-3.11.26-.15.56-.26.91-.31.64-.12,1.26-.27,1.88-.45,1.81-.62,4.82.78,5.9,1.42l3.21-1.85v-5.45c1.38-.38,3.29-.48,4.27-.48ZM207.11,198.95s.05-.05.08-.07c-.03.02-.05.05-.08.07ZM208.45,197.97s.03-.02.04-.03c-.01,0-.03.02-.04.03ZM207.43,198.69s0,0,0,0c0,0,0,0,0,0ZM207.7,198.48s.03-.02.05-.04c-.02.01-.03.02-.05.04ZM207.95,198.3s.04-.03.07-.05c-.02.01-.04.03-.07.05ZM208.2,198.13s.04-.03.06-.04c-.02.01-.04.03-.06.04ZM206.95,199.1s-.06.06-.09.08c.03-.03.06-.06.09-.08ZM206.72,199.32s-.06.06-.08.09c.03-.03.06-.06.08-.09ZM206.24,199.91s.02-.04.03-.05c-.01.02-.02.04-.03.05ZM206.44,199.64s.04-.05.07-.08c-.02.03-.04.05-.07.08ZM205.99,200.54s0,.05,0,.08c0-.03,0-.05,0-.08ZM206.14,200.09s-.03.05-.04.08c.01-.03.02-.05.04-.08ZM206.04,200.31s-.02.06-.03.09c0-.03.02-.06.03-.09ZM188.44,208.9c2.73-1.1,6.36-1.11,9.09-.03-2.73,1.1-6.36,1.11-9.09.03ZM200.73,203.92c-.03-.06-.05-.12-.08-.18.03.06.05.12.08.18ZM200.96,204.76s0-.1-.01-.15c0,.05,0,.1.01.15ZM200.88,204.35c-.02-.06-.02-.12-.04-.18.02.06.03.12.04.18ZM200.16,203.01s-.06-.07-.09-.11c.03.04.06.07.09.11ZM200.5,203.47c-.03-.05-.06-.11-.1-.16.04.05.06.11.1.16ZM199.71,202.54s-.02-.02-.04-.04c.01.01.02.02.04.04ZM185.92,202.87s-.03.02-.04.04c.01-.01.03-.02.04-.04ZM185.64,203.2s-.06.07-.09.11c.03-.04.06-.08.09-.11ZM184.98,204.78c-.01.1-.02.2-.02.29,0-.1.01-.2.02-.29ZM185.39,203.57c-.03.06-.07.11-.1.17.03-.06.07-.11.1-.17ZM185.19,203.96c-.03.07-.07.15-.09.22.02-.07.06-.15.09-.22ZM185.05,204.37c-.02.09-.05.17-.06.26.01-.09.04-.17.06-.26ZM178.8,198.88s.07.06.11.1c-.04-.03-.07-.07-.11-.1ZM180,200.61s0-.04,0-.06c0,.02,0,.04,0,.06ZM179.71,199.86s.02.04.03.05c-.01-.02-.02-.04-.03-.05ZM179.85,200.09s.02.05.03.07c-.01-.02-.02-.05-.03-.07ZM179.94,200.32s.02.05.02.07c0-.02-.01-.05-.02-.07ZM179.55,199.63s-.04-.04-.05-.06c.02.02.04.04.05.06ZM179.36,199.41s-.06-.06-.09-.09c.03.03.06.06.09.09ZM179.14,199.19s-.07-.07-.1-.1c.04.03.07.07.1.1ZM177.6,198s-.07-.04-.1-.06c.03.02.06.04.1.06ZM178.66,198.76c-.06-.05-.12-.1-.19-.15.06.05.13.1.19.15ZM178.32,198.5s-.09-.06-.13-.1c.04.03.09.06.13.1ZM178.08,198.32s-.09-.06-.13-.09c.04.03.09.06.13.09ZM177.84,198.15s-.08-.05-.12-.08c.04.03.08.05.12.08ZM189.57,213.85s-.09-.09-.14-.13c.05.04.09.09.14.13ZM189.35,213.66c-.06-.04-.11-.09-.17-.12.06.04.12.08.17.12ZM189.1,213.49c-.07-.04-.14-.08-.21-.11.07.03.14.07.21.11ZM188.82,213.36c-.08-.03-.16-.07-.25-.09.09.03.17.06.25.09ZM189.66,213.93s.08.09.11.13c-.04-.04-.07-.09-.11-.13ZM190.63,216.5s0-.06,0-.1c0,.04,0,.07,0,.1ZM190.62,216.31s0-.07,0-.11c0,.04,0,.07,0,.11ZM190.6,216.08s0-.08-.02-.11c0,.04.01.08.02.11ZM190.56,215.84s-.01-.08-.02-.12c0,.04.01.08.02.12ZM190.51,215.58s-.02-.08-.03-.12c.01.04.02.08.03.12ZM190.44,215.32s-.02-.08-.04-.12c.01.04.02.08.04.12ZM190.34,215.05s-.03-.08-.05-.12c.02.04.03.08.05.12ZM190.23,214.79s-.04-.08-.06-.12c.02.04.04.08.06.12ZM190.1,214.53s-.05-.08-.07-.13c.03.04.05.08.07.13ZM189.95,214.29s-.06-.09-.09-.13c.03.04.06.09.09.13Z" style="fill:#fff; stroke:#606060; stroke-linecap:round; stroke-linejoin:round; stroke-width:2px;"/><path d="M180,200.64c0-1.02-1.8-2.3-2.69-2.82l.02,7.64c.9.52,2.69,1.8,2.69,2.82l-.02-7.64Z" style="fill:#fff; stroke:#606060; stroke-linecap:round; stroke-linejoin:round; stroke-width:.5px;"/><path d="M208.72,205.47l-.02-7.64c-.91.52-2.73,1.81-2.72,2.83l.02,7.64c0-1.02,1.82-2.31,2.72-2.83Z" style="fill:#fff; stroke:#606060; stroke-linecap:round; stroke-linejoin:round; stroke-width:.5px;"/><path d="M187.34,209.42c3.14-1.82,8.22-1.82,11.34,0,1.55.9,2.33,2.08,2.33,3.26l-.02-7.64c0-1.18-.78-2.36-2.33-3.26-3.12-1.81-8.19-1.81-11.34,0-1.58.91-2.37,2.11-2.36,3.3l.02,7.64c0-1.19.79-2.39,2.36-3.3Z" style="fill:#fff; stroke:#606060; stroke-linecap:round; stroke-linejoin:round; stroke-width:.5px;"/><polygon points="180.42 214.15 177.23 212.3 177.25 219.94 180.44 221.8 180.42 214.15" style="fill:#fff; stroke:#606060; stroke-linecap:round; stroke-linejoin:round; stroke-width:.5px;"/><polygon points="208.64 219.94 208.62 212.3 205.41 214.15 205.43 221.8 208.64 219.94" style="fill:#fff; stroke:#606060; stroke-linecap:round; stroke-linejoin:round; stroke-width:.5px;"/><path d="M186.35,220.38c.61.18,1.24.33,1.88.45,2,.3,2.42,2.47,2.43,3.39l-.02-7.64c0-.91-.43-3.09-2.43-3.39-.64-.12-1.27-.28-1.88-.45-1.8-.61-4.82.78-5.91,1.42l.02,7.64c1.09-.63,4.12-2.03,5.91-1.42Z" style="fill:#fff; stroke:#606060; stroke-linecap:round; stroke-linejoin:round; stroke-width:.5px;"/><path d="M196.74,221.14c.26-.15.56-.26.91-.31.64-.12,1.26-.27,1.88-.45,1.81-.61,4.82.78,5.9,1.42l-.02-7.64c-1.09-.63-4.09-2.03-5.9-1.42-.61.17-1.24.33-1.88.45-.35.05-.65.16-.91.31-1.23.71-1.49,2.34-1.56,3.11l.02,7.64c.07-.77.33-2.4,1.56-3.11Z" style="fill:#fff; stroke:#606060; stroke-linecap:round; stroke-linejoin:round; stroke-width:.5px;"/><path d="M179.7,208.88c1.05,1.04-1.37,2.79-2.47,3.42l3.19,1.85c1.09-.63,4.12-2.03,5.91-1.42.61.18,1.24.33,1.88.45,2.02.3,2.43,2.53,2.43,3.42h4.52c.07-.77.33-2.4,1.56-3.11.26-.15.56-.26.91-.31.64-.12,1.26-.28,1.88-.45,1.81-.61,4.82.78,5.9,1.42l3.21-1.85c-1.09-.63-3.49-2.38-2.43-3.42.3-.36.57-.72.79-1.09.09-.2.28-.38.54-.53,1.25-.72,4.1-.89,5.37-.89l.02-2.62c-1.65.07-5.38-.25-5.9-1.42-.21-.37-.47-.73-.77-1.09-1.05-1.04,1.37-2.79,2.47-3.42l-3.19-1.85c-1.09.63-4.12,2.03-5.91,1.42-.61-.17-1.24-.33-1.88-.45-2.02-.3-2.44-2.53-2.43-3.42h-4.53c0,.74-.3,2.39-1.55,3.11-.26.15-.56.26-.91.31-.64.13-1.27.27-1.88.45-2.08.45-4.81-.79-5.9-1.42l-3.21,1.85c1.09.63,3.49,2.38,2.43,3.42-.31.35-.57.72-.78,1.09-.09.2-.28.38-.54.53-1.25.72-4.1.89-5.37.89v2.62c1.53,0,5.37.25,5.89,1.42.21.37.47.73.77,1.09ZM187.32,201.78c3.14-1.81,8.21-1.81,11.34,0,3.12,1.81,3.11,4.75-.04,6.57-3.14,1.81-8.21,1.81-11.33,0-3.12-1.82-3.11-4.75.03-6.57Z" style="fill:#e95420; stroke:#606060; stroke-linecap:round; stroke-linejoin:round; stroke-width:.5px;"/><path d="M177.23,212.3c1.09-.63,3.52-2.38,2.47-3.42-.31-.36-.56-.72-.77-1.09-.52-1.17-4.36-1.42-5.9-1.42l.02,7.64c.96,0,2.8.1,4.19.45v-2.16Z" style="fill:#fff; stroke:#606060; stroke-linecap:round; stroke-linejoin:round; stroke-width:.5px;"/><polygon points="195.18 224.25 195.16 216.61 190.64 216.61 190.66 224.25 195.18 224.25" style="fill:#fff; stroke:#606060; stroke-linecap:round; stroke-linejoin:round; stroke-width:.5px;"/><path d="M212.91,214.01l-.02-7.64c-1.27,0-4.12.17-5.37.89-.26.15-.45.33-.54.53-.22.37-.48.73-.79,1.09-1.06,1.04,1.34,2.79,2.43,3.42v2.2c1.4-.38,3.31-.48,4.29-.48Z" style="fill:#fff; stroke:#606060; stroke-linecap:round; stroke-linejoin:round; stroke-width:.5px;"/><path d="M210.53,83.23c-6.48-3.6-16.95-3.61-23.39-.04-6.44,3.57-6.41,9.39.07,12.98,6.48,3.6,16.95,3.61,23.39.04,6.44-3.57,6.41-9.39-.07-12.98ZM189.54,94.88c-5.18-2.88-5.21-7.53-.06-10.39,5.15-2.86,13.53-2.85,18.72.03,5.18,2.88,5.21,7.53.06,10.39-5.15,2.86-13.53,2.85-18.72-.03ZM205.87,85.82c-3.89-2.16-10.17-2.17-14.04-.02-3.86,2.14-3.84,5.63.04,7.79,3.89,2.16,10.17,2.17,14.04.02,3.86-2.14,3.84-5.63-.04-7.79ZM194.21,92.29c-2.59-1.44-2.61-3.76-.03-5.19,2.58-1.43,6.77-1.42,9.36.02,2.59,1.44,2.61,3.76.03,5.19-2.58,1.43-6.77,1.42-9.36-.02ZM201.2,88.4c-1.3-.72-3.39-.72-4.68,0-1.29.71-1.28,1.88.01,2.6,1.3.72,3.39.72,4.68,0,1.29-.71,1.28-1.88-.01-2.6Z" style="fill:#666; opacity:.2; stroke-width:0px;"/><ellipse cx="129.43" cy="154.27" rx="33.2" ry="19.17" style="fill:#666; opacity:.2; stroke-width:0px;"/><path d="M79.33,179.75c-8.46,4.89-8.46,12.83,0,17.72,8.46,4.89,22.23,4.89,30.69,0,8.46-4.89,8.46-12.83,0-17.72-8.46-4.89-22.23-4.89-30.69,0ZM85.91,184.27c-1.51.83-3.11,1.59-4.81,2.26-1.92-2.32-2.42-4.41-1.07-5.66l5.88,3.39ZM87.15,184.99l6.23,3.6-5.71,3.3c-2.39-1.44-4.34-2.97-5.76-4.44,1.85-.73,3.6-1.55,5.24-2.45ZM88.4,184.27c1.57-.95,2.99-1.96,4.25-3.02,2.55.82,5.2,1.95,7.7,3.32l-5.71,3.3-6.23-3.6ZM87.15,183.55l-5.88-3.39c2.15-.78,5.77-.49,9.8.62-1.17.98-2.48,1.9-3.92,2.78ZM84.54,178.7c3.1-1.06,6.59-1.59,10.08-1.59-.74.97-1.59,1.9-2.55,2.79-2.72-.77-5.3-1.18-7.52-1.2ZM79.59,187.1c-1.55.56-3.16,1.05-4.84,1.47.01-2.02.93-4.03,2.76-5.82.04,1.28.76,2.78,2.08,4.34ZM80.41,188c1.49,1.52,3.51,3.09,6.01,4.6l-6.5,3.75c-3.01-1.91-4.71-4.27-5.09-6.69,1.94-.47,3.8-1.02,5.58-1.66ZM87.67,193.32c2.51,1.4,5.14,2.55,7.7,3.41-1.11,1.05-2.08,2.16-2.9,3.31-4.09-.26-8.07-1.25-11.3-2.97l6.5-3.75ZM88.92,192.6l5.71-3.3,6,3.47c-1.59.97-3.03,2-4.3,3.09-2.47-.82-5.02-1.92-7.42-3.26ZM101.88,193.49l6.2,3.58c-2.22.8-6.01.48-10.19-.73,1.18-1.01,2.51-1.96,3.99-2.85ZM109.33,196.35l-6.2-3.58c1.54-.86,3.19-1.63,4.92-2.32,2.1,2.42,2.68,4.62,1.28,5.9ZM101.88,192.05l-6-3.46,5.71-3.3c2.3,1.38,4.2,2.84,5.61,4.26-1.88.74-3.66,1.58-5.33,2.5ZM102.84,184.57l6.5-3.75c2.95,1.85,4.66,4.12,5.13,6.46-2.01.48-3.93,1.05-5.76,1.7-1.48-1.47-3.46-2.97-5.87-4.41ZM101.59,183.85c-2.61-1.44-5.33-2.61-7.96-3.47,1.1-1.03,2.06-2.1,2.87-3.22,4.19.22,8.28,1.2,11.59,2.94l-6.5,3.75ZM94.33,200.11c.74-1.01,1.61-1.97,2.59-2.9,2.85.83,5.57,1.29,7.9,1.31-3.22,1.1-6.86,1.62-10.49,1.59ZM111.85,194.47c-.04-1.35-.83-2.93-2.29-4.59,1.61-.58,3.29-1.09,5.04-1.52.08,2.11-.83,4.24-2.75,6.12Z" style="fill:#666; opacity:.2; stroke-width:0px;"/><path d="M193.23,49.19l-10.35-6.06c-16.07-8.19-37.72-6.41-61.54,7.35-24.8,14.32-47.25,38.88-63.5,67.03l12.37,7.23c14.05-24.34,29.68-47.85,51.13-60.23,20.6-11.89,39.31-13.42,53.21-6.33l1.96-3.54,16.73-5.44Z" style="fill:#fff; stroke:#606060; stroke-linecap:round; stroke-linejoin:round; stroke-width:2px;"/><path d="M159.93,109.28l-10.35-6.06c-7.38-3.76-17.3-2.95-28.24,3.36-11.38,6.57-21.68,17.84-29.14,30.76l12.37,7.23c5.26-9.11,8.74-19.33,16.77-23.96,7.71-4.45,14.71-5.02,19.91-2.37l2.33-4.2.51.99,15.84-5.74Z" style="fill:#fff; stroke:#606060; stroke-linecap:round; stroke-linejoin:round; stroke-width:2px;"/><path d="M176.57,79.25l-10.35-6.06c-11.72-5.98-27.51-4.69-44.88,5.34-18.09,10.44-34.46,28.36-46.32,48.9l12.37,7.23c9.66-16.72,19.21-33.59,33.95-42.09,14.15-8.17,27.01-9.22,36.56-4.35l4.06-7.33,14.62-1.63Z" style="fill:#fff; stroke:#606060; stroke-linecap:round; stroke-linejoin:round; stroke-width:2px;"/><path d="M132.92,133.27c-3.03-1.54-7.09-1.23-11.58,1.36-4.67,2.7-8.9,7.32-11.96,12.62l11.96,6.9,3.59-6.48c1.3,1.47,2.57,2.96,2.62,3.18.11.44,15.72-11.52,15.72-11.52l-10.35-6.06Z" style="fill:#fff; stroke:#606060; stroke-linecap:round; stroke-linejoin:round; stroke-width:2px;"/><path d="M131.69,70.56c20.6-11.89,39.31-13.42,53.21-6.33l8.34-15.04c-16.07-8.19-37.72-6.41-61.54,7.35-24.8,14.32-47.25,38.88-63.5,67.03l8.59,4.96c14.05-24.34,33.47-45.58,54.91-57.96Z" style="fill:#fff; stroke:#606060; stroke-linecap:round; stroke-linejoin:round; stroke-width:2px;"/><path d="M131.69,98.62c14.15-8.17,27.01-9.22,36.56-4.35l8.32-15.02c-11.72-5.98-27.51-4.69-44.88,5.34-18.09,10.44-34.46,28.36-46.32,48.9l8.59,4.96c9.66-16.72,22.99-31.32,37.73-39.83Z" style="fill:#fff; stroke:#606060; stroke-linecap:round; stroke-linejoin:round; stroke-width:2px;"/><path d="M131.69,126.67c7.71-4.45,14.71-5.02,19.91-2.37l8.32-15.02c-7.38-3.76-17.3-2.95-28.24,3.36-11.38,6.57-21.68,17.84-29.14,30.76l8.59,4.96c5.26-9.11,12.52-17.06,20.55-21.69Z" style="fill:#fff; stroke:#606060; stroke-linecap:round; stroke-linejoin:round; stroke-width:2px;"/><path d="M143.27,139.33c-3.03-1.54-7.09-1.23-11.58,1.36-4.67,2.7-8.9,7.32-11.96,12.62l11.96,6.9,11.58-20.89Z" style="fill:#fff; stroke:#606060; stroke-linecap:round; stroke-linejoin:round; stroke-width:2px;"/><path d="M193.23,49.19l-10.35-6.06c-16.07-8.19-37.72-6.41-61.54,7.35-24.8,14.32-47.25,38.88-63.5,67.03l12.37,7.23c14.05-24.34,29.68-47.85,51.13-60.23,20.6-11.89,39.31-13.42,53.21-6.33l1.96-3.54,16.73-5.44Z" style="fill:#fff; stroke:#606060; stroke-linecap:round; stroke-linejoin:round; stroke-width:.5px;"/><path d="M159.93,109.28l-10.35-6.06c-7.38-3.76-17.3-2.95-28.24,3.36-11.38,6.57-21.68,17.84-29.14,30.76l12.37,7.23c5.26-9.11,8.74-19.33,16.77-23.96,7.71-4.45,14.71-5.02,19.91-2.37l2.33-4.2.51.99,15.84-5.74Z" style="fill:#fff; stroke:#606060; stroke-linecap:round; stroke-linejoin:round; stroke-width:.5px;"/><path d="M176.57,79.25l-10.35-6.06c-11.72-5.98-27.51-4.69-44.88,5.34-18.09,10.44-34.46,28.36-46.32,48.9l12.37,7.23c9.66-16.72,19.21-33.59,33.95-42.09,14.15-8.17,27.01-9.22,36.56-4.35l4.06-7.33,14.62-1.63Z" style="fill:#fff; stroke:#606060; stroke-linecap:round; stroke-linejoin:round; stroke-width:.5px;"/><path d="M132.92,133.27c-3.03-1.54-7.09-1.23-11.58,1.36-4.67,2.7-8.9,7.32-11.96,12.62l11.96,6.9,3.59-6.48c1.3,1.47,2.57,2.96,2.62,3.18.11.44,15.72-11.52,15.72-11.52l-10.35-6.06Z" style="fill:#fff; stroke:#606060; stroke-linecap:round; stroke-linejoin:round; stroke-width:.5px;"/><path d="M131.69,70.56c20.6-11.89,39.31-13.42,53.21-6.33l8.34-15.04c-16.07-8.19-37.72-6.41-61.54,7.35-24.8,14.32-47.25,38.88-63.5,67.03l8.59,4.96c14.05-24.34,33.47-45.58,54.91-57.96Z" style="fill:#e95420; stroke:#606060; stroke-linecap:round; stroke-linejoin:round; stroke-width:.5px;"/><path d="M131.69,98.62c14.15-8.17,27.01-9.22,36.56-4.35l8.32-15.02c-11.72-5.98-27.51-4.69-44.88,5.34-18.09,10.44-34.46,28.36-46.32,48.9l8.59,4.96c9.66-16.72,22.99-31.32,37.73-39.83Z" style="fill:#e95420; stroke:#606060; stroke-linecap:round; stroke-linejoin:round; stroke-width:.5px;"/><path d="M131.69,126.67c7.71-4.45,14.71-5.02,19.91-2.37l8.32-15.02c-7.38-3.76-17.3-2.95-28.24,3.36-11.38,6.57-21.68,17.84-29.14,30.76l8.59,4.96c5.26-9.11,12.52-17.06,20.55-21.69Z" style="fill:#e95420; stroke:#606060; stroke-linecap:round; stroke-linejoin:round; stroke-width:.5px;"/><path d="M143.27,139.33c-3.03-1.54-7.09-1.23-11.58,1.36-4.67,2.7-8.9,7.32-11.96,12.62l11.96,6.9,11.58-20.89Z" style="fill:#e95420; stroke:#606060; stroke-linecap:round; stroke-linejoin:round; stroke-width:.5px;"/></svg>