<svg width="230" height="231" viewBox="0 0 230 231" fill="none" xmlns="http://www.w3.org/2000/svg">
<path d="M122.188 137.143H76.1156L74.0312 139.227L50.3844 162.874V137.071H21.5625V36.5178H164.809C164.809 36.5178 165.312 36.7334 165.312 37.0209V115.58H172.5V37.0209C172.5 32.7803 169.05 29.3303 164.809 29.3303H21.6344C17.6094 29.3303 14.375 32.5647 14.375 36.5897V137.143C14.375 141.096 17.6094 144.33 21.5625 144.33H43.125V180.268L79.0625 144.33H122.188V137.143Z" fill="url(#paint0_linear_603_5928)"/>
<path d="M147.919 134.124L205.706 153.387L195.859 159.28L187.953 164.024L194.494 170.565L215.625 191.696L205.491 201.83L184.359 180.699L177.819 174.158L173.075 182.065L167.181 191.912L147.919 134.124ZM136.562 122.768L165.312 209.018L179.256 185.802L205.491 212.037L225.831 191.696L199.597 165.462L222.812 151.518L136.562 122.768Z" fill="url(#paint1_linear_603_5928)"/>
<path d="M93.4999 44.2919C59.6886 44.2919 42.3067 64.3448 42.3067 64.3448L40.8142 66.0826L93.4999 130.474L95.6108 127.894L146.186 66.0826L144.693 64.3448C144.693 64.3448 127.311 44.2919 93.4999 44.2919ZM93.4999 49.7502C122.769 49.7502 136.604 64.1549 138.776 66.5197L130.791 76.285C123.582 71.5481 111.456 66.1252 93.4999 66.1252C75.5441 66.1252 63.4178 71.5481 56.2084 76.285L48.2235 66.5197C50.3958 64.1549 64.2309 49.7502 93.4999 49.7502Z" fill="url(#paint2_linear_603_5928)"/>
<defs>
<linearGradient id="paint0_linear_603_5928" x1="93.4375" y1="29.3303" x2="93.4375" y2="180.268" gradientUnits="userSpaceOnUse">
<stop stop-color="#414141"/>
<stop offset="1" stop-color="#838383"/>
</linearGradient>
<linearGradient id="paint1_linear_603_5928" x1="152.709" y1="206.76" x2="189.195" y2="113.179" gradientUnits="userSpaceOnUse">
<stop offset="0.00022" stop-color="#E95420"/>
<stop offset="1" stop-color="#BB53AA"/>
</linearGradient>
<linearGradient id="paint2_linear_603_5928" x1="59.8733" y1="125.379" x2="89.9989" y2="30.9076" gradientUnits="userSpaceOnUse">
<stop offset="0.00022" stop-color="#E95420"/>
<stop offset="1" stop-color="#BB53AA"/>
</linearGradient>
</defs>
</svg>
