<?xml version="1.0" encoding="UTF-8"?>
<svg id="rr_black_aw" data-name="rr black aw" xmlns="http://www.w3.org/2000/svg" viewBox="0 0 900 900">
  <path d="M566.824,487.647c8.127-14.601,13.601-30.881,15.759-48.192-7.567-11.102-16.494-21.202-26.538-30.066-2.39-24.02-11.139-46.168-24.542-64.734-.826-1.145-2.432-1.37-3.544-.501-11.647,9.1-21.744,20.09-29.834,32.508-15.192-4.775-31.357-7.353-48.125-7.353s-32.944,2.58-48.141,7.358c-8.091-12.42-18.189-23.412-29.837-32.513-1.112-.869-2.718-.644-3.544.501-13.407,18.571-22.156,40.726-24.544,64.753-10.035,8.859-18.956,18.953-26.518,30.047,2.158,17.311,7.632,33.591,15.759,48.192,9.988-40.877,40.872-73.555,80.688-86.084,5.953-1.873,12.219,1.824,13.443,7.944l7.242,36.209c.544,2.721-1.224,5.454-3.918,6.123-34.92,8.663-60.802,40.214-60.802,77.813,0,0,0,0,0,.001,22.332,16.776,50.089,26.722,80.171,26.722s57.839-9.946,80.171-26.722c0-37.599-25.882-69.151-60.802-77.814-2.693-.668-4.462-3.401-3.918-6.123l7.242-36.209c1.224-6.12,7.49-9.817,13.443-7.944,39.817,12.528,70.701,45.207,80.688,86.084ZM468.154,482.006c1.487.349,2.295,1.984,1.68,3.391-4.291,9.82-10.488,18.607-18.117,25.89-.962.918-2.472.918-3.434,0-7.63-7.283-13.827-16.069-18.117-25.89-.615-1.407.193-3.041,1.68-3.391,5.831-1.37,11.908-2.098,18.154-2.098s12.323.728,18.154,2.098Z" fill="#fff"/>
  <circle cx="400.667" cy="437.975" r="9.867" fill="#fff"/>
  <circle cx="499.333" cy="437.975" r="9.867" fill="#fff"/>
  <path d="M666.893,317.656l-59.841,34.549c2.173,3.483,4.236,7.041,6.179,10.674l58.762-33.926c-.569-1.332-1.159-2.653-1.747-3.976l101.155-58.402c-.612-1.071-1.232-2.137-1.855-3.202l-100.831,58.215c-.603-1.313-1.203-2.628-1.823-3.932Z" fill="#fff"/>
  <path d="M654.308,293.939l-58.347,42.391c2.526,3.24,4.95,6.563,7.26,9.97l57.162-41.531c-.685-1.28-1.389-2.547-2.091-3.817l92.144-66.946c-.721-1.001-1.446-1.999-2.177-2.992l-91.79,66.689c-.716-1.258-1.429-2.518-2.162-3.765Z" fill="#fff"/>
  <path d="M603.106,228.777l-49.406,68.002c3.407,2.31,6.73,4.734,9.97,7.26l48.226-66.378c-1.006-1.059-2.029-2.101-3.05-3.146l60.14-82.775c-.993-.731-1.991-1.456-2.992-2.176l-59.785,82.287c-1.03-1.029-2.058-2.059-3.103-3.074Z" fill="#fff"/>
  <path d="M622.408,249.305l-53.277,59.17c3.146,2.651,6.204,5.401,9.166,8.253l52.041-57.798c-.904-1.143-1.826-2.272-2.746-3.402l71.358-79.251c-.912-.83-1.831-1.653-2.751-2.474l-70.986,78.838c-.931-1.116-1.859-2.233-2.805-3.336Z" fill="#fff"/>
  <path d="M639.48,271.093l-56.208,50.61c2.852,2.961,5.602,6.02,8.253,9.166l54.978-49.502c-.797-1.217-1.612-2.42-2.425-3.625l82.119-73.941c-.821-.921-1.644-1.839-2.475-2.751l-81.752,73.61c-.825-1.192-1.649-2.386-2.491-3.566Z" fill="#fff"/>
  <path d="M677.244,342.074l-60.809,27.074c1.795,3.688,3.465,7.447,5.017,11.267l59.889-26.665c-.451-1.374-.924-2.739-1.394-4.104l108.894-48.483c-.497-1.129-.996-2.258-1.504-3.381l-108.619,48.361c-.486-1.359-.97-2.719-1.474-4.068Z" fill="#fff"/>
  <path d="M454.933,265.066v-116.184c-1.025-.226-2.055-.437-3.083-.652v-68.219c-.617-.003-1.232-.012-1.85-.012s-1.233.009-1.85.012v67.468c-1.027-.202-2.053-.407-3.083-.599v118.185c1.639-.043,3.284-.066,4.933-.066s3.294.024,4.933.066Z" fill="#fff"/>
  <path d="M695.028,418.046l-61.78,6.493c.557,4.049.987,8.139,1.278,12.267l61.523-6.466c-.091-1.44-.204-2.873-.315-4.308l122.45-12.87c-.121-1.229-.251-2.455-.385-3.68l-122.371,12.862c-.128-1.434-.253-2.87-.4-4.299Z" fill="#fff"/>
  <path d="M691.293,392.407l-61.689,13.112c.981,3.974,1.842,7.994,2.562,12.064l61.173-13.003c-.211-1.428-.444-2.848-.674-4.27l119.699-25.443c-.249-1.209-.503-2.416-.765-3.62l-119.548,25.411c-.247-1.419-.492-2.839-.758-4.252Z" fill="#fff"/>
  <path d="M685.372,367.039l-61.388,19.946c1.396,3.852,2.666,7.764,3.808,11.731l60.656-19.708c-.331-1.406-.685-2.804-1.035-4.203l115.133-37.409c-.375-1.176-.756-2.348-1.143-3.519l-114.914,37.338c-.367-1.394-.732-2.789-1.119-4.176Z" fill="#fff"/>
  <path d="M819.977,446.3h-185.023c.024,1.231.047,2.463.047,3.7s-.023,2.469-.047,3.7h185.023c.015-1.232.023-2.465.023-3.7s-.009-2.468-.023-3.7Z" fill="#fff"/>
  <path d="M412.733,142.621l13.029,123.959c3.246-.425,6.517-.77,9.813-1.025l-12.821-121.985c-1.042-.116-2.089-.217-3.134-.323l-6.457-61.432c-1.229.121-2.455.251-3.68.385l6.379,60.692c-1.042-.092-2.084-.189-3.129-.271Z" fill="#fff"/>
  <path d="M379.446,141.797l27.273,128.307c3.187-.764,6.404-1.449,9.652-2.045l-26.864-126.384c-.391-.001-.782-.007-1.174-.007-.66,0-1.318.011-1.977.015l-11.488-54.046c-1.209.249-2.416.503-3.62.764l11.335,53.328c-1.047.02-2.093.039-3.138.068Z" fill="#fff"/>
  <path d="M581.595,209.738l-44.474,77.031c3.633,1.943,7.191,4.006,10.674,6.179l43.39-75.154c-1.102-.964-2.219-1.91-3.334-2.859l48.775-84.482c-1.064-.623-2.13-1.242-3.201-1.855l-48.451,83.92c-1.122-.932-2.243-1.866-3.379-2.781Z" fill="#fff"/>
  <path d="M278.021,161.99l75.231,130.304c2.799-1.72,5.641-3.376,8.536-4.949l-74.354-128.785c-.988.342-1.971.698-2.954,1.049l-17.904-31.011c-1.071.613-2.137,1.232-3.202,1.855l17.576,30.443c-.977.363-1.956.722-2.928,1.094Z" fill="#fff"/>
  <path d="M311.606,151.291l58.652,131.735c2.961-1.417,5.968-2.751,9.014-4.012l-57.902-130.051c-1.024.227-2.042.467-3.062.704l-17.145-38.509c-1.129.497-2.257.996-3.381,1.504l16.864,37.878c-1.014.248-2.03.493-3.041.751Z" fill="#fff"/>
  <path d="M345.585,144.608l42.564,130.998c3.091-1.096,6.22-2.113,9.384-3.047l-41.969-129.167c-1.045.11-2.085.235-3.127.355l-15.042-46.294c-1.176.375-2.349.756-3.519,1.143l14.819,45.607c-1.038.133-2.076.261-3.111.405Z" fill="#fff"/>
  <path d="M558.958,193.147l-38.231,85.867c3.046,1.261,6.053,2.596,9.014,4.013l37.482-84.186c-.852-.608-1.714-1.204-2.573-1.803l37.566-84.375c-1.123-.508-2.251-1.007-3.38-1.504l-37.285,83.744c-.863-.587-1.724-1.177-2.594-1.756Z" fill="#fff"/>
  <path d="M511.851,275.606l30.2-92.947c-.908-.523-1.825-1.033-2.739-1.547l26.811-82.515c-1.171-.387-2.344-.768-3.52-1.143l-26.588,81.831c-.917-.501-1.832-1.005-2.755-1.498l-30.794,94.773c3.164.934,6.293,1.95,9.384,3.047Z" fill="#fff"/>
  <path d="M485.718,157.367c-.996-.331-1.998-.649-2.998-.971l7.798-74.196c-1.225-.133-2.451-.263-3.68-.385l-7.72,73.447c-1-.308-1.999-.621-3.004-.919l-11.689,111.213c3.297.254,6.567.6,9.813,1.025l11.479-109.214Z" fill="#fff"/>
  <path d="M493.282,270.104l21.548-101.375c-.957-.431-1.92-.848-2.882-1.27l16.804-79.058c-1.204-.261-2.411-.515-3.62-.764l-16.65,78.331c-.963-.408-1.925-.82-2.893-1.218l-21.959,103.31c3.248.597,6.466,1.281,9.652,2.045Z" fill="#fff"/>
  <path d="M633.576,473.015l183.541,19.291c.335-2.439.642-4.887.92-7.344l-183.703-19.308c-.207,2.467-.456,4.922-.758,7.361Z" fill="#fff"/>
  <path d="M630.189,492.083l179.277,38.107c.64-2.381,1.252-4.772,1.836-7.175l-179.592-38.173c-.463,2.43-.964,4.847-1.521,7.242Z" fill="#fff"/>
  <path d="M624.803,510.687l172.351,56c.935-2.285,1.843-4.584,2.724-6.896l-172.789-56.143c-.716,2.367-1.478,4.713-2.285,7.038Z" fill="#fff"/>
  <path d="M784.02,594.665l-163.501-72.795c-.961,2.277-1.976,4.525-3.024,6.754l162.957,72.553c.304-.539.602-1.082.902-1.624l5.984,2.664c.508-1.123,1.007-2.251,1.504-3.38l-5.703-2.539c.294-.544.591-1.087.882-1.633Z" fill="#fff"/>
  <path d="M764.107,627.077l-152.054-87.788c-1.194,2.162-2.423,4.301-3.699,6.409l151.403,87.413c.369-.499.732-1.002,1.097-1.503l8.693,5.019c.623-1.064,1.242-2.13,1.855-3.201l-8.373-4.834c.359-.505.721-1.007,1.078-1.514Z" fill="#fff"/>
  <path d="M740.588,656.551l-138.772-100.824c-1.412,2.024-2.863,4.02-4.353,5.984l138.065,100.31c.427-.451.841-.914,1.265-1.368l11.467,8.331c.731-.993,1.456-1.991,2.177-2.992l-11.114-8.075c.419-.458.849-.907,1.265-1.368Z" fill="#fff"/>
  <path d="M713.963,682.694l-124.031-111.678c-1.615,1.866-3.275,3.691-4.962,5.49l123.301,111.021c.479-.397.946-.808,1.423-1.208l14.029,12.632c.83-.912,1.653-1.831,2.475-2.751l-13.658-12.297c.472-.406.953-.8,1.423-1.208Z" fill="#fff"/>
  <path d="M684.758,705.196l-108.252-120.226c-1.799,1.687-3.625,3.347-5.49,4.962l107.504,119.395c.525-.338,1.045-.683,1.567-1.024l16.113,17.895c.921-.821,1.839-1.644,2.751-2.475l-15.744-17.486c.517-.347,1.037-.691,1.552-1.041Z" fill="#fff"/>
  <path d="M653.522,723.829l-91.811-126.367c-1.964,1.49-3.96,2.941-5.984,4.353l91.098,125.386c.562-.275,1.121-.556,1.681-.834l17.487,24.069c1.001-.721,1.999-1.446,2.992-2.177l-17.131-23.578c.556-.284,1.113-.565,1.667-.853Z" fill="#fff"/>
  <path d="M260.519,628.907l56.208-50.61c-2.852-2.961-5.602-6.02-8.253-9.166l-54.978,49.502c.797,1.217,1.612,2.42,2.425,3.625l-82.119,73.941c.821.92,1.644,1.839,2.474,2.751l81.752-73.61c.826,1.192,1.649,2.386,2.491,3.566Z" fill="#fff"/>
  <path d="M341.042,706.853l38.231-85.867c-3.046-1.261-6.053-2.596-9.014-4.013l-37.482,84.186c.852.608,1.714,1.204,2.572,1.803l-37.566,84.376c1.123.508,2.252,1.007,3.381,1.504l37.285-83.744c.863.587,1.724,1.177,2.593,1.756Z" fill="#fff"/>
  <path d="M245.692,606.061l58.347-42.391c-2.526-3.239-4.95-6.563-7.26-9.97l-57.162,41.531c.685,1.28,1.389,2.548,2.091,3.817l-92.144,66.946c.721,1.001,1.446,1.998,2.176,2.992l91.79-66.689c.716,1.258,1.429,2.518,2.162,3.765Z" fill="#fff"/>
  <path d="M296.894,671.224l49.406-68.002c-3.407-2.31-6.731-4.734-9.97-7.26l-48.226,66.378c1.006,1.059,2.029,2.101,3.05,3.146l-60.14,82.775c.994.731,1.991,1.456,2.992,2.177l59.785-82.287c1.03,1.029,2.058,2.059,3.103,3.073Z" fill="#fff"/>
  <path d="M318.405,690.263l44.474-77.031c-3.633-1.943-7.191-4.006-10.674-6.179l-43.39,75.154c1.102.963,2.219,1.91,3.334,2.858l-48.775,84.482c1.064.623,2.131,1.242,3.202,1.855l48.451-83.92c1.122.931,2.243,1.865,3.379,2.781Z" fill="#fff"/>
  <path d="M277.592,650.695l53.277-59.17c-3.146-2.651-6.204-5.401-9.166-8.253l-52.041,57.798c.904,1.143,1.826,2.271,2.746,3.401l-71.358,79.251c.912.83,1.831,1.653,2.751,2.475l70.986-78.838c.931,1.116,1.859,2.233,2.805,3.336Z" fill="#fff"/>
  <path d="M233.107,582.344l59.841-34.549c-2.173-3.483-4.236-7.041-6.179-10.674l-58.762,33.926c.569,1.332,1.159,2.653,1.747,3.976l-101.155,58.402c.612,1.071,1.232,2.137,1.855,3.201l100.831-58.215c.603,1.314,1.203,2.628,1.823,3.932Z" fill="#fff"/>
  <path d="M204.972,481.954l61.78-6.493c-.557-4.049-.987-8.138-1.278-12.267l-61.523,6.466c.091,1.44.204,2.873.315,4.308l-122.45,12.87c.121,1.229.251,2.455.385,3.68l122.371-12.862c.128,1.434.253,2.87.4,4.298Z" fill="#fff"/>
  <path d="M208.707,507.593l61.689-13.112c-.981-3.974-1.842-7.994-2.562-12.064l-61.173,13.003c.211,1.428.444,2.848.674,4.27l-119.699,25.443c.249,1.209.503,2.416.764,3.62l119.548-25.411c.247,1.419.492,2.839.759,4.252Z" fill="#fff"/>
  <path d="M214.628,532.961l61.388-19.946c-1.396-3.852-2.666-7.764-3.809-11.731l-60.656,19.708c.331,1.406.685,2.804,1.035,4.202l-115.133,37.409c.375,1.176.756,2.349,1.143,3.52l114.914-37.338c.367,1.394.732,2.789,1.118,4.175Z" fill="#fff"/>
  <path d="M222.756,557.926l60.809-27.074c-1.795-3.688-3.465-7.447-5.017-11.267l-59.889,26.664c.451,1.375.924,2.739,1.394,4.105l-108.894,48.483c.497,1.129.996,2.257,1.504,3.38l108.619-48.36c.486,1.359.97,2.719,1.475,4.069Z" fill="#fff"/>
  <path d="M265,450c0-1.237.023-2.469.047-3.7H80.023c-.014,1.232-.023,2.465-.023,3.7s.009,2.468.023,3.7h185.023c-.024-1.231-.047-2.463-.047-3.7Z" fill="#fff"/>
  <path d="M588.394,748.709l-58.652-131.735c-2.961,1.417-5.969,2.751-9.014,4.013l57.902,130.051c1.024-.227,2.042-.467,3.062-.704l17.145,38.509c1.129-.497,2.257-.996,3.38-1.504l-16.864-37.878c1.014-.248,2.031-.493,3.041-.751Z" fill="#fff"/>
  <path d="M388.149,624.394l-30.2,92.947c.908.523,1.825,1.034,2.739,1.547l-26.811,82.515c1.17.387,2.343.767,3.519,1.143l26.589-81.831c.917.501,1.833,1.005,2.755,1.498l30.794-94.773c-3.164-.934-6.293-1.95-9.384-3.047Z" fill="#fff"/>
  <path d="M445.067,634.934v116.184c1.025.226,2.055.437,3.083.652v68.218c.617.003,1.232.012,1.85.012s1.233-.009,1.85-.012v-67.468c1.027.202,2.053.407,3.083.599v-118.185c-1.639.043-3.284.066-4.933.066s-3.294-.024-4.933-.066Z" fill="#fff"/>
  <path d="M554.415,755.392l-42.564-130.998c-3.091,1.096-6.22,2.113-9.384,3.047l41.969,129.167c1.045-.11,2.085-.235,3.126-.355l15.042,46.294c1.176-.375,2.349-.756,3.519-1.143l-14.819-45.607c1.037-.133,2.076-.261,3.11-.405Z" fill="#fff"/>
  <path d="M621.979,738.01l-75.231-130.304c-2.798,1.72-5.641,3.376-8.535,4.949l74.354,128.785c.988-.342,1.971-.698,2.954-1.049l17.904,31.011c1.071-.612,2.137-1.232,3.201-1.855l-17.576-30.443c.977-.363,1.956-.722,2.928-1.094Z" fill="#fff"/>
  <path d="M406.718,629.896l-21.548,101.375c.957.431,1.92.848,2.882,1.269l-16.804,79.058c1.204.261,2.412.515,3.62.765l16.65-78.331c.963.408,1.925.819,2.893,1.218l21.959-103.31c-3.248-.597-6.466-1.281-9.652-2.045Z" fill="#fff"/>
  <path d="M414.283,742.633c.996.331,1.998.649,2.998.971l-7.798,74.196c1.225.133,2.451.263,3.68.385l7.72-73.446c1,.308,1.999.621,3.004.919l11.689-111.213c-3.297-.254-6.567-.6-9.813-1.025l-11.479,109.214Z" fill="#fff"/>
  <path d="M487.267,757.379l-13.029-123.96c-3.246.425-6.517.77-9.813,1.025l12.821,121.985c1.042.116,2.089.217,3.134.323l6.457,61.432c1.229-.121,2.455-.251,3.68-.385l-6.379-60.692c1.042.092,2.084.189,3.129.271Z" fill="#fff"/>
  <path d="M520.554,758.203l-27.272-128.307c-3.187.764-6.404,1.449-9.652,2.045l26.864,126.384c.391.001.782.007,1.174.007.66,0,1.318-.011,1.977-.015l11.488,54.046c1.209-.249,2.416-.503,3.62-.765l-11.335-53.328c1.047-.02,2.093-.039,3.138-.068Z" fill="#fff"/>
  <path d="M266.424,426.985l-183.541-19.291c-.335,2.439-.642,4.887-.92,7.344l183.703,19.308c.207-2.467.456-4.923.758-7.361Z" fill="#fff"/>
  <path d="M269.811,407.917l-179.277-38.107c-.639,2.381-1.252,4.772-1.836,7.175l179.592,38.173c.463-2.43.964-4.847,1.521-7.242Z" fill="#fff"/>
  <path d="M275.197,389.312l-172.351-56c-.935,2.285-1.843,4.584-2.724,6.896l172.789,56.143c.716-2.367,1.478-4.713,2.285-7.038Z" fill="#fff"/>
  <path d="M115.98,305.335l163.501,72.795c.961-2.277,1.976-4.525,3.024-6.754l-162.957-72.553c-.304.539-.601,1.082-.902,1.623l-5.983-2.664c-.508,1.123-1.007,2.251-1.504,3.381l5.703,2.539c-.294.544-.591,1.086-.882,1.633Z" fill="#fff"/>
  <path d="M135.894,272.923l152.054,87.788c1.194-2.162,2.423-4.301,3.699-6.409l-151.403-87.413c-.369.499-.731,1.002-1.097,1.503l-8.693-5.019c-.623,1.064-1.242,2.131-1.855,3.202l8.373,4.834c-.359.505-.721,1.007-1.078,1.514Z" fill="#fff"/>
  <path d="M159.412,243.449l138.772,100.824c1.412-2.024,2.863-4.02,4.353-5.984l-138.065-100.31c-.427.451-.841.914-1.265,1.368l-11.467-8.331c-.731.993-1.456,1.991-2.177,2.992l11.114,8.075c-.419.458-.849.907-1.265,1.368Z" fill="#fff"/>
  <path d="M186.037,217.306l124.031,111.678c1.615-1.866,3.275-3.691,4.962-5.49l-123.301-111.021c-.479.397-.946.808-1.423,1.208l-14.029-12.632c-.83.912-1.653,1.831-2.474,2.751l13.658,12.297c-.472.406-.953.8-1.423,1.208Z" fill="#fff"/>
  <path d="M215.242,194.804l108.252,120.226c1.799-1.687,3.624-3.347,5.49-4.962l-107.504-119.395c-.525.338-1.045.683-1.567,1.024l-16.113-17.895c-.92.821-1.839,1.644-2.751,2.474l15.744,17.486c-.517.347-1.037.691-1.552,1.041Z" fill="#fff"/>
  <path d="M246.478,176.171l91.811,126.366c1.964-1.49,3.96-2.941,5.984-4.353l-91.098-125.386c-.562.275-1.121.556-1.681.834l-17.487-24.069c-1.001.721-1.999,1.446-2.992,2.177l17.131,23.578c-.556.284-1.113.565-1.667.853Z" fill="#fff"/>
</svg>