<?xml version="1.0" encoding="UTF-8"?>
<svg id="rr_black_aw" xmlns="http://www.w3.org/2000/svg" version="1.1" viewBox="0 0 900 900">
  <!-- Generator: Adobe Illustrator 30.2.1, SVG Export Plug-In . SVG Version: 2.1.1 Build 1)  -->
  <path d="M566.8,487.6c8.1-14.6,13.6-30.9,15.8-48.2-7.6-11.1-16.5-21.2-26.5-30.1-2.4-24-11.1-46.2-24.5-64.7-.8-1.1-2.4-1.4-3.5-.5-11.6,9.1-21.7,20.1-29.8,32.5-15.2-4.8-31.4-7.4-48.1-7.4s-32.9,2.6-48.1,7.4c-8.1-12.4-18.2-23.4-29.8-32.5-1.1-.9-2.7-.6-3.5.5-13.4,18.6-22.2,40.7-24.5,64.8-10,8.9-19,19-26.5,30,2.2,17.3,7.6,33.6,15.8,48.2,10-40.9,40.9-73.6,80.7-86.1,6-1.9,12.2,1.8,13.4,7.9l7.2,36.2c.5,2.7-1.2,5.5-3.9,6.1-34.9,8.7-60.8,40.2-60.8,77.8h0c22.3,16.8,50.1,26.7,80.2,26.7s57.8-9.9,80.2-26.7c0-37.6-25.9-69.2-60.8-77.8-2.7-.7-4.5-3.4-3.9-6.1l7.2-36.2c1.2-6.1,7.5-9.8,13.4-7.9,39.8,12.5,70.7,45.2,80.7,86.1h-.4ZM468.2,482c1.5.3,2.3,2,1.7,3.4-4.3,9.8-10.5,18.6-18.1,25.9-1,.9-2.5.9-3.4,0-7.6-7.3-13.8-16.1-18.1-25.9-.6-1.4.2-3,1.7-3.4,5.8-1.4,11.9-2.1,18.2-2.1s12.3.7,18.2,2.1h-.2Z" fill="#fff"/>
  <circle cx="400.7" cy="438" r="9.9" fill="#fff"/>
  <circle cx="499.3" cy="438" r="9.9" fill="#fff"/>
  <path d="M666.9,317.7l-59.8,34.5c2.2,3.5,4.2,7,6.2,10.7l58.8-33.9c-.6-1.3-1.2-2.7-1.7-4l101.2-58.4c-.6-1.1-1.2-2.1-1.9-3.2l-100.8,58.2c-.6-1.3-1.2-2.6-1.8-3.9h-.2Z" fill="#fff"/>
  <path d="M654.3,293.9l-58.3,42.4c2.5,3.2,5,6.6,7.3,10l57.2-41.5c-.7-1.3-1.4-2.5-2.1-3.8l92.1-66.9c-.7-1-1.4-2-2.2-3l-91.8,66.7c-.7-1.3-1.4-2.5-2.2-3.8h0Z" fill="#fff"/>
  <path d="M603.1,228.8l-49.4,68c3.4,2.3,6.7,4.7,10,7.3l48.2-66.4c-1-1.1-2-2.1-3-3.1l60.1-82.8c-1-.7-2-1.5-3-2.2l-59.8,82.3c-1-1-2.1-2.1-3.1-3.1h0Z" fill="#fff"/>
  <path d="M622.4,249.3l-53.3,59.2c3.1,2.7,6.2,5.4,9.2,8.3l52-57.8c-.9-1.1-1.8-2.3-2.7-3.4l71.4-79.3c-.9-.8-1.8-1.7-2.8-2.5l-71,78.8c-.9-1.1-1.9-2.2-2.8-3.3h0Z" fill="#fff"/>
  <path d="M639.5,271.1l-56.2,50.6c2.9,3,5.6,6,8.3,9.2l55-49.5c-.8-1.2-1.6-2.4-2.4-3.6l82.1-73.9c-.8-.9-1.6-1.8-2.5-2.8l-81.8,73.6c-.8-1.2-1.6-2.4-2.5-3.6h0Z" fill="#fff"/>
  <path d="M677.2,342.1l-60.8,27.1c1.8,3.7,3.5,7.4,5,11.3l59.9-26.7c-.5-1.4-.9-2.7-1.4-4.1l108.9-48.5c-.5-1.1-1-2.3-1.5-3.4l-108.6,48.4c-.5-1.4-1-2.7-1.5-4.1h0Z" fill="#fff"/>
  <path d="M454.9,265.1v-116.2c-1-.2-2.1-.4-3.1-.7v-68.2h-3.8v67.5c-1-.2-2.1-.4-3.1-.6v118.2h10Z" fill="#fff"/>
  <path d="M695,418l-61.8,6.5c.6,4,1,8.1,1.3,12.3l61.5-6.5c0-1.4-.2-2.9-.3-4.3l122.5-12.9c0-1.2-.3-2.5-.4-3.7l-122.4,12.9c0-1.4-.3-2.9-.4-4.3h0Z" fill="#fff"/>
  <path d="M691.3,392.4l-61.7,13.1c1,4,1.8,8,2.6,12.1l61.2-13c-.2-1.4-.4-2.8-.7-4.3l119.7-25.4c-.2-1.2-.5-2.4-.8-3.6l-119.5,25.4c-.2-1.4-.5-2.8-.8-4.3h0Z" fill="#fff"/>
  <path d="M685.4,367l-61.4,19.9c1.4,3.9,2.7,7.8,3.8,11.7l60.7-19.7c-.3-1.4-.7-2.8-1-4.2l115.1-37.4c-.4-1.2-.8-2.3-1.1-3.5l-114.9,37.3c-.4-1.4-.7-2.8-1.1-4.2h0Z" fill="#fff"/>
  <path d="M820,446.3h-185v7.4h185v-7.4Z" fill="#fff"/>
  <path d="M412.7,142.6l13,124c3.2-.4,6.5-.8,9.8-1l-12.8-122c-1-.1-2.1-.2-3.1-.3l-6.5-61.4c-1.2,0-2.5.3-3.7.4l6.4,60.7c-1,0-2.1-.2-3.1-.3h0Z" fill="#fff"/>
  <path d="M379.4,141.8l27.3,128.3c3.2-.8,6.4-1.4,9.7-2l-26.9-126.4h-3.2l-11.5-54c-1.2.2-2.4.5-3.6.8l11.3,53.3h-3.1,0Z" fill="#fff"/>
  <path d="M581.6,209.7l-44.5,77c3.6,1.9,7.2,4,10.7,6.2l43.4-75.2c-1.1-1-2.2-1.9-3.3-2.9l48.8-84.5c-1.1-.6-2.1-1.2-3.2-1.9l-48.5,83.9c-1.1-.9-2.2-1.9-3.4-2.8h0v.2Z" fill="#fff"/>
  <path d="M278,162l75.2,130.3c2.8-1.7,5.6-3.4,8.5-4.9l-74.4-128.8c-1,.3-2,.7-3,1l-17.9-31c-1.1.6-2.1,1.2-3.2,1.9l17.6,30.4c-1,.4-2,.7-2.9,1.1h0Z" fill="#fff"/>
  <path d="M311.6,151.3l58.7,131.7c3-1.4,6-2.8,9-4l-57.9-130.1c-1,.2-2,.5-3.1.7l-17.1-38.5c-1.1.5-2.3,1-3.4,1.5l16.9,37.9c-1,.2-2,.5-3,.8h-.1Z" fill="#fff"/>
  <path d="M345.6,144.6l42.6,131c3.1-1.1,6.2-2.1,9.4-3l-42-129.2c-1,.1-2.1.2-3.1.4l-15-46.3c-1.2.4-2.3.8-3.5,1.1l14.8,45.6c-1,.1-2.1.3-3.1.4h0Z" fill="#fff"/>
  <path d="M559,193.1l-38.2,85.9c3,1.3,6.1,2.6,9,4l37.5-84.2c-.9-.6-1.7-1.2-2.6-1.8l37.6-84.4c-1.1-.5-2.3-1-3.4-1.5l-37.3,83.7c-.9-.6-1.7-1.2-2.6-1.8h0Z" fill="#fff"/>
  <path d="M511.9,275.6l30.2-92.9c-.9-.5-1.8-1-2.7-1.5l26.8-82.5c-1.2-.4-2.3-.8-3.5-1.1l-26.6,81.8c-.9-.5-1.8-1-2.8-1.5l-30.8,94.8c3.2.9,6.3,2,9.4,3h0Z" fill="#fff"/>
  <path d="M485.7,157.4c-1-.3-2-.6-3-1l7.8-74.2c-1.2,0-2.5-.3-3.7-.4l-7.7,73.4c-1-.3-2-.6-3-.9l-11.7,111.2c3.3.3,6.6.6,9.8,1l11.5-109.2h0Z" fill="#fff"/>
  <path d="M493.3,270.1l21.5-101.4c-1-.4-1.9-.8-2.9-1.3l16.8-79.1c-1.2-.3-2.4-.5-3.6-.8l-16.7,78.3c-1-.4-1.9-.8-2.9-1.2l-22,103.3c3.2.6,6.5,1.3,9.7,2h0v.2Z" fill="#fff"/>
  <path d="M633.6,473l183.5,19.3c.3-2.4.6-4.9.9-7.3l-183.7-19.3c-.2,2.5-.5,4.9-.8,7.4h0Z" fill="#fff"/>
  <path d="M630.2,492.1l179.3,38.1c.6-2.4,1.3-4.8,1.8-7.2l-179.6-38.2c-.5,2.4-1,4.8-1.5,7.2h0Z" fill="#fff"/>
  <path d="M624.8,510.7l172.4,56c.9-2.3,1.8-4.6,2.7-6.9l-172.8-56.1c-.7,2.4-1.5,4.7-2.3,7h0Z" fill="#fff"/>
  <path d="M784,594.7l-163.5-72.8c-1,2.3-2,4.5-3,6.8l163,72.6c.3-.5.6-1.1.9-1.6l6,2.7c.5-1.1,1-2.3,1.5-3.4l-5.7-2.5c.3-.5.6-1.1.9-1.6h0v-.2Z" fill="#fff"/>
  <path d="M764.1,627.1l-152.1-87.8c-1.2,2.2-2.4,4.3-3.7,6.4l151.4,87.4c.4-.5.7-1,1.1-1.5l8.7,5c.6-1.1,1.2-2.1,1.9-3.2l-8.4-4.8c.4-.5.7-1,1.1-1.5h0Z" fill="#fff"/>
  <path d="M740.6,656.6l-138.8-100.8c-1.4,2-2.9,4-4.4,6l138.1,100.3c.4-.5.8-.9,1.3-1.4l11.5,8.3c.7-1,1.5-2,2.2-3l-11.1-8.1c.4-.5.8-.9,1.3-1.4h-.1Z" fill="#fff"/>
  <path d="M714,682.7l-124-111.7c-1.6,1.9-3.3,3.7-5,5.5l123.3,111c.5-.4.9-.8,1.4-1.2l14,12.6c.8-.9,1.7-1.8,2.5-2.8l-13.7-12.3c.5-.4,1-.8,1.4-1.2h0Z" fill="#fff"/>
  <path d="M684.8,705.2l-108.3-120.2c-1.8,1.7-3.6,3.3-5.5,5l107.5,119.4c.5-.3,1-.7,1.6-1l16.1,17.9c.9-.8,1.8-1.6,2.8-2.5l-15.7-17.5c.5-.3,1-.7,1.6-1h0Z" fill="#fff"/>
  <path d="M653.5,723.8l-91.8-126.4c-2,1.5-4,2.9-6,4.4l91.1,125.4c.6-.3,1.1-.6,1.7-.8l17.5,24.1c1-.7,2-1.4,3-2.2l-17.1-23.6c.6-.3,1.1-.6,1.7-.9h-.1Z" fill="#fff"/>
  <path d="M260.5,628.9l56.2-50.6c-2.9-3-5.6-6-8.3-9.2l-55,49.5c.8,1.2,1.6,2.4,2.4,3.6l-82.1,73.9c.8.9,1.6,1.8,2.5,2.8l81.8-73.6c.8,1.2,1.6,2.4,2.5,3.6h0Z" fill="#fff"/>
  <path d="M341,706.9l38.2-85.9c-3-1.3-6.1-2.6-9-4l-37.5,84.2c.9.6,1.7,1.2,2.6,1.8l-37.6,84.4c1.1.5,2.3,1,3.4,1.5l37.3-83.7c.9.6,1.7,1.2,2.6,1.8h0Z" fill="#fff"/>
  <path d="M245.7,606.1l58.3-42.4c-2.5-3.2-5-6.6-7.3-10l-57.2,41.5c.7,1.3,1.4,2.5,2.1,3.8l-92.1,66.9c.7,1,1.4,2,2.2,3l91.8-66.7c.7,1.3,1.4,2.5,2.2,3.8h0Z" fill="#fff"/>
  <path d="M296.9,671.2l49.4-68c-3.4-2.3-6.7-4.7-10-7.3l-48.2,66.4c1,1.1,2,2.1,3,3.1l-60.1,82.8c1,.7,2,1.5,3,2.2l59.8-82.3c1,1,2.1,2.1,3.1,3.1h0Z" fill="#fff"/>
  <path d="M318.4,690.3l44.5-77c-3.6-1.9-7.2-4-10.7-6.2l-43.4,75.2c1.1,1,2.2,1.9,3.3,2.9l-48.8,84.5c1.1.6,2.1,1.2,3.2,1.9l48.5-83.9c1.1.9,2.2,1.9,3.4,2.8h0v-.2Z" fill="#fff"/>
  <path d="M277.6,650.7l53.3-59.2c-3.1-2.7-6.2-5.4-9.2-8.3l-52,57.8c.9,1.1,1.8,2.3,2.7,3.4l-71.4,79.3c.9.8,1.8,1.7,2.8,2.5l71-78.8c.9,1.1,1.9,2.2,2.8,3.3h0Z" fill="#fff"/>
  <path d="M233.1,582.3l59.8-34.5c-2.2-3.5-4.2-7-6.2-10.7l-58.8,33.9c.6,1.3,1.2,2.7,1.7,4l-101.2,58.4c.6,1.1,1.2,2.1,1.9,3.2l100.8-58.2c.6,1.3,1.2,2.6,1.8,3.9h.2Z" fill="#fff"/>
  <path d="M205,482l61.8-6.5c-.6-4-1-8.1-1.3-12.3l-61.5,6.5c0,1.4.2,2.9.3,4.3l-122.5,12.9c0,1.2.3,2.5.4,3.7l122.4-12.9c.1,1.4.3,2.9.4,4.3h0Z" fill="#fff"/>
  <path d="M208.7,507.6l61.7-13.1c-1-4-1.8-8-2.6-12.1l-61.2,13c.2,1.4.4,2.8.7,4.3l-119.7,25.4c.2,1.2.5,2.4.8,3.6l119.5-25.4c.2,1.4.5,2.8.8,4.3h0Z" fill="#fff"/>
  <path d="M214.6,533l61.4-19.9c-1.4-3.9-2.7-7.8-3.8-11.7l-60.7,19.7c.3,1.4.7,2.8,1,4.2l-115.1,37.4c.4,1.2.8,2.3,1.1,3.5l114.9-37.3c.4,1.4.7,2.8,1.1,4.2h0Z" fill="#fff"/>
  <path d="M222.8,557.9l60.8-27.1c-1.8-3.7-3.5-7.4-5-11.3l-59.9,26.7c.5,1.4.9,2.7,1.4,4.1l-108.9,48.5c.5,1.1,1,2.3,1.5,3.4l108.6-48.4c.5,1.4,1,2.7,1.5,4.1h0Z" fill="#fff"/>
  <path d="M265,450v-3.7H80v7.4h185v-3.7h0Z" fill="#fff"/>
  <path d="M588.4,748.7l-58.7-131.7c-3,1.4-6,2.8-9,4l57.9,130.1c1-.2,2-.5,3.1-.7l17.1,38.5c1.1-.5,2.3-1,3.4-1.5l-16.9-37.9c1-.2,2-.5,3-.8h.1Z" fill="#fff"/>
  <path d="M388.1,624.4l-30.2,92.9c.9.5,1.8,1,2.7,1.5l-26.8,82.5c1.2.4,2.3.8,3.5,1.1l26.6-81.8c.9.5,1.8,1,2.8,1.5l30.8-94.8c-3.2-.9-6.3-2-9.4-3h0Z" fill="#fff"/>
  <path d="M445.1,634.9v116.2c1,.2,2.1.4,3.1.7v68.2h3.8v-67.5c1,.2,2.1.4,3.1.6v-118.2h-10Z" fill="#fff"/>
  <path d="M554.4,755.4l-42.6-131c-3.1,1.1-6.2,2.1-9.4,3l42,129.2c1,0,2.1-.2,3.1-.4l15,46.3c1.2-.4,2.3-.8,3.5-1.1l-14.8-45.6c1,0,2.1-.3,3.1-.4h.1Z" fill="#fff"/>
  <path d="M622,738l-75.2-130.3c-2.8,1.7-5.6,3.4-8.5,4.9l74.4,128.8c1-.3,2-.7,3-1l17.9,31c1.1-.6,2.1-1.2,3.2-1.9l-17.6-30.4c1-.4,2-.7,2.9-1.1h-.1Z" fill="#fff"/>
  <path d="M406.7,629.9l-21.5,101.4c1,.4,1.9.8,2.9,1.3l-16.8,79.1c1.2.3,2.4.5,3.6.8l16.7-78.3c1,.4,1.9.8,2.9,1.2l22-103.3c-3.2-.6-6.5-1.3-9.7-2h0v-.2Z" fill="#fff"/>
  <path d="M414.3,742.6c1,.3,2,.6,3,1l-7.8,74.2c1.2,0,2.5.3,3.7.4l7.7-73.4c1,.3,2,.6,3,.9l11.7-111.2c-3.3-.3-6.6-.6-9.8-1l-11.5,109.2h0Z" fill="#fff"/>
  <path d="M487.3,757.4l-13-124c-3.2.4-6.5.8-9.8,1l12.8,122c1,0,2.1.2,3.1.3l6.5,61.4c1.2,0,2.5-.3,3.7-.4l-6.4-60.7c1,0,2.1.2,3.1.3h0Z" fill="#fff"/>
  <path d="M520.6,758.2l-27.3-128.3c-3.2.8-6.4,1.4-9.7,2l26.9,126.4h3.2l11.5,54c1.2-.2,2.4-.5,3.6-.8l-11.3-53.3h3.1Z" fill="#fff"/>
  <path d="M266.4,427l-183.5-19.3c-.3,2.4-.6,4.9-.9,7.3l183.7,19.3c.2-2.5.5-4.9.8-7.4h0Z" fill="#fff"/>
  <path d="M269.8,407.9l-179.3-38.1c-.6,2.4-1.3,4.8-1.8,7.2l179.6,38.2c.5-2.4,1-4.8,1.5-7.2h0Z" fill="#fff"/>
  <path d="M275.2,389.3l-172.4-56c-.9,2.3-1.8,4.6-2.7,6.9l172.8,56.1c.7-2.4,1.5-4.7,2.3-7h0Z" fill="#fff"/>
  <path d="M116,305.3l163.5,72.8c1-2.3,2-4.5,3-6.8l-163-72.6c-.3.5-.6,1.1-.9,1.6l-6-2.7c-.5,1.1-1,2.3-1.5,3.4l5.7,2.5c-.3.5-.6,1.1-.9,1.6v.2Z" fill="#fff"/>
  <path d="M135.9,272.9l152.1,87.8c1.2-2.2,2.4-4.3,3.7-6.4l-151.4-87.4c-.4.5-.7,1-1.1,1.5l-8.7-5c-.6,1.1-1.2,2.1-1.9,3.2l8.4,4.8c-.4.5-.7,1-1.1,1.5h0Z" fill="#fff"/>
  <path d="M159.4,243.4l138.8,100.8c1.4-2,2.9-4,4.4-6l-138.1-100.3c-.4.5-.8.9-1.3,1.4l-11.5-8.3c-.7,1-1.5,2-2.2,3l11.1,8.1c-.4.5-.8.9-1.3,1.4h0Z" fill="#fff"/>
  <path d="M186,217.3l124,111.7c1.6-1.9,3.3-3.7,5-5.5l-123.3-111c-.5.4-.9.8-1.4,1.2l-14-12.6c-.8.9-1.7,1.8-2.5,2.8l13.7,12.3c-.5.4-1,.8-1.4,1.2h-.1Z" fill="#fff"/>
  <path d="M215.2,194.8l108.3,120.2c1.8-1.7,3.6-3.3,5.5-5l-107.5-119.4c-.5.3-1,.7-1.6,1l-16.1-17.9c-.9.8-1.8,1.6-2.8,2.5l15.7,17.5c-.5.3-1,.7-1.6,1h.1Z" fill="#fff"/>
  <path d="M246.5,176.2l91.8,126.4c2-1.5,4-2.9,6-4.4l-91.1-125.4c-.6.3-1.1.6-1.7.8l-17.5-24.1c-1,.7-2,1.4-3,2.2l17.1,23.6c-.6.3-1.1.6-1.7.9h.1Z" fill="#fff"/>
</svg>