<?xml version="1.0" encoding="UTF-8"?><svg id="a" xmlns="http://www.w3.org/2000/svg" viewBox="0 0 560 560"><path d="M452.1332,441.0715c24.5083-34.4749,38.9194-76.629,38.9194-122.149,0-80.2994-44.8503-150.1153-110.8615-185.7885l5.2018,39.8803c2.7434,21.0338-3.7099,42.239-17.7053,58.1786-13.9949,15.9393-34.1875,25.0812-55.3997,25.0812h-29.9966v12.1302c11.5815,2.865,22.4952,8.212,31.6645,15.5277l-2.858,3.5818c-9.0999-7.2609-20.0265-12.4686-31.5979-15.0601-1.0465-.2343-1.7903-1.1631-1.7903-2.2355v-13.944h-116.037l37.7799-48.5745-21.4921-26.8654c-1.5384-1.9237-1.8312-4.4974-.7643-6.717,1.0672-2.2199,3.2602-3.5988,5.7231-3.5988h45.4527l48.116-62.6163c-114.9407,1.8759-207.5402,95.6326-207.5402,211.0204,0,13.4539,1.2617,26.6128,3.668,39.3673,11.5593.3241,21.0264,3.982,29.4189,7.2346,7.7422,3.0001,15.0548,5.8341,23.0579,5.8341,7.3571,0,13.9121-1.3362,19.4834-3.9722,9.4699-4.4811,16.3731-14.5229,16.787-24.4192.283-6.7502-2.5172-12.7555-7.6823-16.4754-5.2365-3.7708-11.9316-4.5265-18.367-2.0705-5.8447,2.2316-10.3966,7.408-11.5961,13.1862-1.5409,7.4242,2.4987,13.2483,6.1588,16.8267l-3.2031,3.2764c-6.3299-6.1887-8.9726-13.6588-7.4418-21.0343,1.5322-7.3811,7.0685-13.7175,14.4485-16.5353,7.9027-3.0158,16.1681-2.0549,22.6781,2.6332,6.4387,4.6372,9.9316,12.067,9.5828,20.385-.4821,11.5245-8.4617,23.1905-19.4054,28.3691-6.1884,2.928-13.4029,4.4124-21.4429,4.4124-8.8597,0-16.5605-2.9844-24.7134-6.144-8.1539-3.1599-16.5684-6.4126-26.8376-6.8904,1.3683,6.4543,3.029,12.8005,4.9725,19.0221,2.3728.0058,4.5053.0097,6.1427.0097,24.9162,0,41.5661,4.8861,52.3979,15.377.8191.7914,1.6276,1.6013,2.4363,2.4123,2.7291,2.735,5.307,5.3179,8.3638,7.2956,9.8074,6.3442,16.6083,4.3296,19.0768,3.1696,2.5932-1.2176,4.5927-3.2859,5.3495-5.5326.6027-1.7887.4318-3.6064-.5076-5.4018-.9533-1.8161-2.5966-3.1612-4.6252-3.7848-2.1444-.6589-4.501-.4357-6.4664.6147l-2.1589-4.0415c3.0348-1.6214,6.6689-1.9682,9.9718-.9525,3.2043.9849,5.8098,3.1293,7.337,6.0371,1.5207,2.9073,1.794,6.0153.7914,8.9914-1.1648,3.4582-3.987,6.4533-7.7433,8.2173-2.4131,1.1337-5.074,1.6936-7.8767,1.6936-4.9566.0006-10.3592-1.7489-15.637-5.1635-3.4669-2.2423-6.34-5.1216-9.1183-7.9063-.7895-.7909-1.5781-1.5817-2.379-2.3558-9.9243-9.6117-25.5613-14.0878-49.2121-14.0878-1.2862,0-2.8803-.0024-4.6531-.0062.9862,2.9191,2.0374,5.808,3.1463,8.6683,17.0635,2.148,23.0888,6.1419,30.2064,10.8615,3.7915,2.5141,7.7123,5.1143,13.9446,7.7447,26.192,11.0535,54.9399,14.9698,83.137,11.3248,30.6921-3.9655,53.5459-14.7013,67.9267-31.9106,7.4354-8.8918,11.0832-20.0472,9.7576-29.8395-1.0168-7.5137-4.9711-13.8501-11.4367-18.3245l2.6075-3.7675c7.5523,5.2267,12.1755,12.6532,13.3696,21.4773,1.495,11.0468-2.5359,23.5305-10.7828,33.3927-15.1432,18.1215-38.9824,29.3982-70.8547,33.5158-7.0377.91-14.1087,1.3613-21.1674,1.3613-22.0285,0-43.9373-4.3989-64.3385-13.0083-6.6264-2.7971-10.9132-5.64-14.6952-8.148-6.2454-4.1412-11.5929-7.686-25.7032-9.7796,1.413,3.3889,2.91,6.734,4.4919,10.0308,10.3795,3.8577,19.1807,10.6786,32.4606,21.5628,22.0772,18.1058,38.3728,24.837,60.1253,24.837v4.5818c-26.2127,0-43.5511-9.9008-63.0303-25.8757-10.8542-8.8962-18.4754-14.8999-26.3739-18.7567,9.1746,17.5725,20.7485,33.6934,34.2909,47.9249,14.0493,3.3588,30.0162,5.4014,44.4521,2.9873,31.4298-5.2558,47.8043-11.034,59.7606-15.2534,12.0368-4.2479,20.7337-7.3168,36.5226-7.3168,12.3148,0,22.2765,3.8603,31.0655,7.2659,7.7419,3.0001,15.0548,5.8341,23.0579,5.8341,7.3571,0,13.9121-1.3362,19.4834-3.9722,9.4701-4.4806,16.3731-14.5223,16.787-24.4187.2824-6.7502-2.5174-12.7555-7.6826-16.4754-5.2362-3.7708-11.9311-4.5248-18.3664-2.0711-5.8447,2.2316-10.3969,7.408-11.5961,13.1862-.8507,4.098-.4726,10.3438,6.1585,16.8267l-3.2026,3.2764c-6.3302-6.1881-8.9729-13.6588-7.4421-21.0343,1.5319-7.3817,7.0685-13.7175,14.4485-16.5358,7.903-3.0135,16.1689-2.0543,22.6776,2.6343,6.4387,4.6366,9.9316,12.067,9.5826,20.385-.4816,11.5245-8.4612,23.1905-19.4045,28.3685-6.1887,2.928-13.4032,4.4124-21.4432,4.4124-8.8599,0-16.5605-2.9844-24.7134-6.1434-8.8258-3.4201-17.9514-6.9566-29.4099-6.9566-15.0042,0-22.9581,2.8066-34.9979,7.0556-12.1148,4.2753-28.7066,10.1301-60.5294,15.4519-4.6344.7752-9.4033,1.1102-14.1828,1.1102-8.5587.0003-17.15-1.0779-25.089-2.6239,9.1791,8.9094,19.1657,16.9907,29.8391,24.1256,10.62,1.0073,21.1039.9316,31.3883-.2564,11.68-1.349,24.9165-2.8782,41.1562-9.5557,4.7851-1.9665,8.5353-3.8558,11.8438-5.5226,6.2055-3.126,11.1067-5.5947,18.5334-6.4404,11.862-1.3485,24.2556,2.1304,36.8316,10.3449l-2.5057,3.8357c-11.6587-7.6149-23.0333-10.8555-33.808-9.6279-6.6138.7528-10.966,2.9453-16.99,5.9795-3.3821,1.7036-7.2159,3.6349-12.1632,5.6686-16.8256,6.918-30.9897,8.5546-42.3707,9.8695-5.7329.6622-11.5264.9928-17.3653.9928-2.1454,0-4.2976-.0478-6.4554-.137,5.2201,3.1563,10.5886,6.0916,16.0914,8.7955,3.6841.2485,6.9352.3907,9.2659.3591,8.0993-.1029,16.3787-.9055,23.9436-2.3217,11.6005-2.1746,20.6174-5.465,24.4679-6.8699,4.1019-1.4961,6.2438-2.4537,7.9648-3.2233,2.0546-.9184,3.5387-1.5817,6.7732-2.4447,3.4171-.9089,12.4893-3.3239,24.0462-1.7031,8.2005,1.146,15.9598,4.0331,23.0629,8.5803l-2.4704,3.8592c-6.5433-4.1892-13.6851-6.8476-21.2273-7.9019-10.638-1.4917-19.0614.75-22.2324,1.5929-2.8782.7679-4.084,1.3071-6.0822,2.2003-1.7867.7987-4.0108,1.7931-8.2646,3.3446-3.9562,1.4436-13.222,4.8246-25.1947,7.0691-7.3816,1.3817-15.4128,2.1903-23.3199,2.367,8.3891,3.5518,17.0568,6.5734,25.9591,9.0296,9.0655-1.9481,18.2289-3.5407,27.4117-4.7363,22.8345-2.9755,40.4805-2.8648,51.0229-2.8021,18.0824.1186,33.9617,1.1399,48.2055,3.1033,20.7849-7.3498,40.0736-17.8645,57.2902-30.9628-.8739-.1915-1.6018-.3375-2.0322-.396-15.7394-2.1572-25.4735,1.5756-32.5823,4.3005-1.7132.6566-3.3312,1.2769-4.8274,1.7299-10.1575,3.0779-19.5539,4.598-28.9418,4.598-6.4298,0-12.8545-.7126-19.522-2.1254l.9497-4.4823c15.6074,3.3083,29.8507,2.575,46.1857-2.3754,1.3384-.4055,2.8111-.9698,4.5158-1.6231,7.1451-2.7384,17.9408-6.8767,34.8424-4.5622,1.1127.1516,3.4127.6749,6.0488,1.3094,5.2386-4.2202,10.2711-8.6857,15.0806-13.3788-11.6521-2.6733-27.785-3.0493-34.984-1.7314-5.8565,1.0739-11.6867,2.9744-17.3245,4.8128-4.084,1.3311-8.3074,2.7082-12.5754,3.7893-12.0519,3.0527-24.9472,3.8033-37.2956,2.1656-9.5445-1.2651-16.9117-4.5622-24.0361-7.7508-9.0132-4.0343-17.5258-7.8442-30.2939-7.8442-15.1946,0-21.7516,3.5633-29.3439,7.6888-9.8082,5.3302-20.9253,11.3712-52.0749,11.3712v-4.5818c29.9852,0,40.5585-5.7457,49.8872-10.8153,7.8026-4.2401,15.1725-8.2447,31.5316-8.2447,13.7463,0,23.1102,4.1909,32.1659,8.2436,7.139,3.1959,13.8825,6.2139,22.7659,7.3918,11.7745,1.5599,24.0742.8468,35.5684-2.0661,4.1193-1.0431,8.2682-2.3955,12.2807-3.7037,5.7815-1.8849,11.7599-3.834,17.919-4.9633,8.3486-1.526,27.06-.9913,39.5763,2.4682,6.5112-6.6807,12.5826-13.7918,18.1687-21.286-23.6072-8.1905-59.296-.3202-75.7753,9.5971l-2.3625-3.9258c9.7051-5.8403,24.4824-10.5339,39.53-12.5558,15.9361-2.142,30.4996-1.0586,41.4188,3.026ZM142.3787,336.4986c2.6856,0,4.8703,2.185,4.8703,4.8706s-2.1847,4.8706-4.8703,4.8706-4.8706-2.185-4.8706-4.8706,2.185-4.8706,4.8706-4.8706ZM291.1547,435.5013c-6.1154-1.7495-12.3735-2.7238-18.6008-2.8955-14.3878-.4055-25.1855,3.5018-31.6326,5.8352-.5285.1913-1.0252.3708-1.4889.5358-14.0509,4.989-30.0254,7.5036-47.6038,7.5036-3.3505,0-6.7595-.0917-10.2244-.2746l.2416-4.5751c21.0382,1.1091,39.8963-1.2344,56.0532-6.9717.4556-.1616.9435-.3384,1.4629-.5263,6.3104-2.2842,18.0655-6.5444,33.3195-6.1065,6.6093.1818,13.2494,1.2148,19.7339,3.07l-1.2607,4.4051ZM335.2239,420.4761c3.07-1.5191,7.9192-2.2272,11.4713.7875l-2.9654,3.4934c-1.7366-1.4743-4.5035-1.1483-6.4773-.1723-.0375.0185-3.3077,1.7406-1.9939,5.0673l-4.2619,1.6824c-2.1136-5.3525,1.471-9.5003,4.2272-10.8583ZM305.3361,442.2985c-2.6899,0-4.8705-2.1805-4.8705-4.8704s2.1806-4.8705,4.8705-4.8705,4.8704,2.1806,4.8704,4.8705-2.1806,4.8704-4.8704,4.8704ZM333.4833,337.7685c2.4617,13.7184.6896,28.3703-5.7322,41.582-6.2558,12.8534-16.4318,25.0149-30.2455,36.1473l-2.8748-3.5672c13.2852-10.7068,23.0417-22.3425,28.9999-34.584,11.7062-24.0831,6.9013-53.2782-11.6856-70.9965-19.1321-18.2322-47.4827-25.8052-72.2289-19.2955-22.2584,5.8509-46.9905,22.5775-49.6528,51.9773-1.0613,11.7057,3.353,24.5317,11.5206,33.4733,5.435,5.9504,15.1275,13.043,30.4374,13.043,17.2968,0,29.5559-11.5323,32.7263-22.9237,2.5552-9.1821-.733-17.3161-9.021-22.3163-3.5412-2.1382-8.846-1.8938-12.6129.5794-1.6726,1.0979-4.3908,3.5902-3.803,7.9488l-4.541.6119c-.6742-5.0002,1.4506-9.5166,5.8296-12.3914,5.2488-3.4448,12.4429-3.7205,17.4948-.6717,10.032,6.0528,14.1694,16.3211,11.0675,27.4675-3.6341,13.0581-17.5583,26.2773-37.1403,26.2773-16.9797,0-27.7636-7.9041-33.8203-14.5347-9.0079-9.8617-13.8747-24.03-12.701-36.9768,2.4061-26.5698,22.7341-48.0264,53.0509-55.9948,26.2482-6.9069,56.2974,1.1046,76.5554,20.4096,5.5094,5.2519,9.8891,11.4397,13.0916,18.1846l.1427-.0788c8.2386,14.9155,18.0169,26.534,29.0632,34.5315,21.7301,15.7159,51.3945,16.108,72.1369.9531,21.3431-15.6001,33.7798-42.114,31.6846-67.5472-1.8815-22.8826-14.0654-50.0975-42.6196-57.8553-11.4137-3.1022-24.8857-.9889-35.1579,5.5159-6.786,4.2974-15.4357,12.5645-18.1058,27.5446-3.0169,16.936,6.1837,30.9869,16.8312,36.114,8.6441,4.1635,17.2792,2.3692,23.6894-4.9219,2.7171-3.0868,3.4112-8.3185,1.6511-12.4401-.7886-1.8479-2.7736-4.9761-7.2016-5.1624l.1924-4.5776c5.0684.2131,9.1592,3.1072,11.223,7.9407,2.4565,5.753,1.4592,12.8528-2.4246,17.2657-7.7531,8.8174-18.6388,11.0692-29.1174,6.0237-12.2046-5.8766-22.7715-21.8627-19.3542-41.046,2.9626-16.6228,12.6011-25.822,20.1652-30.6119,11.3237-7.1708,26.1956-9.4964,38.8107-6.0662,25.8013,7.0098,43.4216,30.7288,45.9844,61.9008,2.2238,26.9881-10.9445,55.1016-33.5477,71.6223-10.9394,7.993-24.1737,11.9764-37.5702,11.9764-13.9435,0-28.0626-4.315-39.9556-12.9166-7.7156-5.5861-14.8188-12.83-21.2347-21.6142ZM243.5135,358.0566c0-2.6899,2.1806-4.8704,4.8704-4.8704s4.8705,2.1806,4.8705,4.8704-2.1806,4.8705-4.8705,4.8705-4.8704-2.1806-4.8704-4.8705ZM466.3764,343.075c-4.6719,10.8248-11.374,20.3497-19.9213,28.3098-3.7848,3.5298-13.8406,12.9082-30.0408,17.9514-7.1636,2.2294-14.7271,3.3614-22.2793,3.3614-3.2177,0-6.4326-.2053-9.6144-.6192l.5906-4.5438c9.9981,1.3021,20.3525.4111,29.9413-2.5734,15.2019-4.7323,24.3656-13.279,28.2784-16.9285,8.082-7.5266,14.42-16.5342,18.8385-26.7734l4.2071,1.8155ZM358.6838,402.7297c-2.6899,0-4.8705-2.1806-4.8705-4.8705s2.1806-4.8704,4.8705-4.8704,4.8704,2.1805,4.8704,4.8704-2.1806,4.8705-4.8704,4.8705ZM361.7578,461.6324c-2.6899,0-4.8704-2.1806-4.8704-4.8705s2.1806-4.8704,4.8704-4.8704,4.8705,2.1805,4.8705,4.8704-2.1806,4.8705-4.8705,4.8705ZM370.1984,413.9624l2.3155-3.9532c8.9511,5.2429,18.56,8.5199,28.5598,9.7403,10.3701,1.264,31.9492,3.8939,48.4056-11.9786,12.0245-11.6,14.1991-26.9904,14.4256-35.1322l4.5796.1275c-.2455,8.8404-2.6276,25.5714-15.8238,38.3023-12.1503,11.7191-26.5815,14.2639-38.0875,14.2639-5.5651,0-10.4445-.5945-14.0542-1.0347-10.6251-1.297-20.8263-4.7742-30.3205-10.3354Z" fill="#e95420"/><path d="M251.7427,522.1968c-5.8864.7662-11.7658,1.6931-17.6155,2.7754,14.769,3.2734,30.1187,5.0028,45.8728,5.0028,20.8429,0,40.9796-3.0228,59.9971-8.6515-11.4728-1.1757-24.0029-1.8002-37.8527-1.8908-10.4277-.0632-27.8769-.1723-50.4017,2.7641Z" fill="#e95420"/><path d="M410.49,62.0078c.4655,2.6404.7665,5.402.932,8.5317l27.0965-5.748c-12.4501-28.4962-36.7953-49.7079-65.8414-58.5998-1.8643.046-3.7072.124-5.5372.2195,22.6863,10.1492,38.9672,30.7407,43.35,55.5965Z" fill="#e95420"/><path d="M340.8805,63.2243c8.9662,0,16.2348-7.2685,16.2348-16.2348s-7.2686-16.2348-16.2348-16.2348-16.2348,7.2685-16.2348,16.2348,7.2686,16.2348,16.2348,16.2348ZM339.0637,54.333c-2.458-.5266-4.4614-2.2116-5.4063-4.5314.6657.1223,1.3571.0372,1.9723-.2429.7801,1.5043,2.1691,2.5662,3.8302,2.9216l.0009.0009c.1861.0399.3758.0709.5655.0922.0159.6994.2518,1.3713.6755,1.928-.5478.0035-1.0992-.0532-1.6381-.1684ZM343.3443,54.7994c-1.2738,0-2.3065-1.0327-2.3065-2.3065s1.0327-2.3065,2.3065-2.3065,2.3065,1.0327,2.3065,2.3065-1.0327,2.3065-2.3065,2.3065ZM348.0197,48.5359c-.2437,1.1369-.7488,2.2048-1.4656,3.1088,0,.0003.0002.0006.0003.0008h-.0009s.0004-.0006.0006-.0008c-.1783-.6742-.5611-1.2732-1.1042-1.7179.3404-.5487.5815-1.1497.718-1.787.2792-1.303.0886-2.6566-.5336-3.8293.5815-.3634,1.0318-.8935,1.2977-1.5193,1.116,1.686,1.5123,3.7646,1.0877,5.7449ZM343.8642,39.1795c1.2738,0,2.3065,1.0327,2.3065,2.3065s-1.0327,2.3065-2.3065,2.3065-2.3065-1.0327-2.3065-2.3065,1.0327-2.3065,2.3065-2.3065ZM341.2338,39.4367c-.3076.3954-.5239.8563-.6302,1.3509-.0372.1702-.0603.3448-.0691.5185-1.8163.0328-3.4907.9299-4.5296,2.4235-.3235-.2003-.6772-.3439-1.0531-.4237-.2305-.0496-.4636-.0745-.6967-.0745-.0585,0-.117.0009-.1755.0044,1.4351-2.5325,4.2539-4.0288,7.1543-3.7992ZM334.2579,44.2377c1.2738,0,2.3065,1.0327,2.3065,2.3065s-1.0327,2.3065-2.3065,2.3065-2.3065-1.0327-2.3065-2.3065,1.0327-2.3065,2.3065-2.3065Z" fill="#e95420"/><path d="M182.9189,175.1003c-1.0034,0-1.4486.7008-1.5935,1.002s-.4139,1.0864.2125,1.8698l23.75,29.6879-34.2473,44.0324h141.2471c19.8939,0,38.8314-8.5736,51.9566-23.5227,13.1258-14.9488,19.178-34.836,16.6046-54.5624l-10.9993-84.3314.6907-.7805c2.6729-3.0222,5.0175-6.4471,6.9684-10.1802l.4995-.9561,28.864-6.1227c-.1499-3.1343-.4396-5.8514-.8949-8.4326-4.5986-26.0818-23.1435-47.1757-48.4531-55.1637-.1706.0199-.3406.0378-.5112.0557-.3786.0397-.736.0775-1.0666.1356-.6684.118-1.3295.2668-2.0292.4242-.2953.0666-.5906.1328-.8871.1972l-.6907.1496-.6549-.2651c-6.0651-2.4567-12.4311-3.7026-18.9207-3.7026-27.831,0-50.4728,22.6418-50.4728,50.4722v52.7777l-51.6784,67.2158h-47.6939ZM332.7631,14.5198c22.4156,0,40.587,18.1714,40.587,40.587s-18.1714,40.587-40.587,40.587-40.587-18.1714-40.587-40.587,18.1714-40.587,40.587-40.587ZM294.9675,148.4568v-39.9989l-.0012.0004.0011-.0014c24.6223,1.7272,48.0736,7.6576,69.6464,17.1119l6.4327,49.317c2.2051,16.906-2.9818,33.9501-14.2308,46.7617-11.249,12.8116-27.479,20.1594-44.5283,20.1594h-121.036l22.0974-28.4109h16.6795c35.8649,0,64.9392-29.0743,64.9392-64.9393Z" fill="#e95420"/></svg>