<?xml version="1.0" encoding="UTF-8"?><svg id="a" xmlns="http://www.w3.org/2000/svg" viewBox="0 0 280 280"><path d="M88.54,97.96l25-14.54c.98-.57,1.42-1.34,1.37-2.14h.01v-9.52h-.03c-.1.64-.54,1.25-1.35,1.71l-25,14.54c-.98.57-2.32.82-3.71.79v9.95c1.39.03,2.73-.22,3.71-.79Z" style="fill:#bfbfbf; stroke:#606060; stroke-miterlimit:10; stroke-width:.5px;"/><path d="M138.58,246.54c1.14,0,2.19-.24,2.96-.68l106.27-61.29c.59-.34.94-.77.94-1.18,0-.45-.4-.95-1.1-1.35l-72.59-41.95c-.86-.49-2.04-.78-3.26-.78-1.14,0-2.19.24-2.95.68l-106.27,61.29c-.6.34-.94.77-.94,1.18,0,.45.4.95,1.1,1.35l72.59,41.95c.86.49,2.04.78,3.26.78Z" style="fill:#666; opacity:.2; stroke-width:0px;"/><path d="M238.32,172.56c0-.45-.4-.95-1.1-1.35l-72.59-41.95c-.86-.49-2.04-.78-3.26-.78-1.14,0-2.19.24-2.95.68l-97.98,56.51,95.06-54.88c1.95-1.12,3.59-3.91,3.59-6.08V40.57c0-1.44-.54-2.38-1.39-2.51l.04-.02-3.27-1.39c-.68-.23-1.51-.13-2.4.39l-101.02,57.69c-2.27,1.31-4.12,4.74-4.12,7.62l.03,84.16c0,1.32.5,2.22,1.3,2.59l2.73,1.27h0c.19.08.41.12.66.1.35-.03.76-.17,1.18-.4l-.67.39c-.49.28-.8.63-.9.97l-.04-.07v.28s0,0,0,0,0,0,0,0v3.47c-.08.83.44,1.68,1.56,2.33l71.67,41.95c2.01,1.16,5.2,1.21,7.13.1l105.36-61.44c1.39-.69,1.39-1.84,1.39-1.84v-3.64ZM52.21,192.92s.06.04.1.07l-.04.02-.06-.09Z" style="fill:#fff; stroke:#606060; stroke-linecap:round; stroke-linejoin:round; stroke-width:2px;"/><path d="M52.26,193.01l-1.05-1.64v3.75c-.08.83.44,1.68,1.56,2.33l71.67,41.95c.82.47,1.83.75,2.87.85v-90.53l-75.05,43.29Z" style="fill:#fff; stroke:#606060; stroke-linecap:round; stroke-linejoin:round; stroke-width:.5px;"/><path d="M131.58,239.49l105.36-61.44c1.39-.69,1.39-1.84,1.39-1.84v-3.64s-73.23-40.43-73.23-40.43c-2.01-1.16-5.2-1.21-7.13-.1l-30.65,17.68v90.53c1.53.15,3.12-.09,4.26-.75Z" style="fill:#e95420; stroke:#606060; stroke-miterlimit:10; stroke-width:.5px;"/><g id="b"><path d="M128.16,235.72c1.14,0,2.19-.24,2.96-.68l106.27-61.29c.59-.34.94-.77.94-1.18,0-.45-.4-.95-1.1-1.35l-72.59-41.95c-.86-.49-2.04-.78-3.26-.78-1.14,0-2.19.24-2.95.68l-106.27,61.29c-.6.34-.94.77-.94,1.18,0,.45.4.95,1.1,1.35l72.59,41.95c.86.49,2.04.78,3.26.78Z" style="fill:#fff; stroke:#606060; stroke-linecap:round; stroke-linejoin:round; stroke-width:.5px;"/><polygon points="70.77 187.72 155.52 138.84 152.08 136.85 67.33 185.73 70.77 187.72" style="fill:#e95420; stroke-width:0px;"/><polygon points="102.86 215.44 202.11 158.2 165.25 136.9 66 194.14 102.86 215.44" style="fill:#fff; stroke:#606060; stroke-linecap:round; stroke-linejoin:round; stroke-width:.5px;"/><path d="M125.72,191.2l46.24-26.65c.33-.19.94-.14,1.36.1l3.85,2.23c.42.25.5.6.18.79l-46.24,26.65c-.33.19-.94.14-1.36-.1l-3.85-2.23c-.42-.24-.5-.6-.18-.79Z" style="fill:#666; opacity:.2; stroke-width:0px;"/><path d="M107.88,201.47l3.56-2.05c.32-.19.94-.14,1.36.1l3.85,2.23c.42.24.5.6.18.79l-3.56,2.05c-.33.19-.94.14-1.37-.1l-3.85-2.23c-.42-.25-.5-.6-.18-.79Z" style="fill:#666; opacity:.2; stroke-width:0px;"/><path d="M101.95,204.88l3.56-2.05c.33-.19.94-.14,1.36.1l3.85,2.23c.42.24.5.6.18.79l-3.55,2.05c-.33.19-.94.14-1.36-.1l-3.85-2.23c-.42-.24-.5-.6-.18-.79Z" style="fill:#666; opacity:.2; stroke-width:0px;"/><path d="M96.03,208.3l3.56-2.05c.33-.19.94-.14,1.36.1l3.85,2.22c.42.24.5.6.18.79l-3.56,2.05c-.32.19-.94.14-1.36-.1l-3.85-2.23c-.42-.25-.5-.6-.18-.79Z" style="fill:#666; opacity:.2; stroke-width:0px;"/><path d="M173.74,154.62l3.56-2.05c.33-.19.86-.5,1.19-.68l3.56-2.05c.33-.19.94-.14,1.36.1l3.85,2.23c.42.25.5.6.18.79l-3.55,2.05c-.33.19-.86.5-1.19.68l-3.56,2.05c-.33.19-.94.14-1.36-.1l-3.85-2.23c-.42-.24-.5-.6-.18-.79Z" style="fill:#666; opacity:.2; stroke-width:0px;"/><path d="M167.82,158.04l3.56-2.05c.32-.19.94-.14,1.36.1l3.85,2.23c.42.25.5.6.18.79l-3.56,2.05c-.33.19-.94.14-1.36-.1l-3.85-2.22c-.42-.24-.51-.6-.18-.79Z" style="fill:#666; opacity:.2; stroke-width:0px;"/><path d="M168.41,148.81l1.18-.68c.33-.19.86-.49,1.18-.68l3.56-2.05c.33-.19.94-.14,1.36.1l3.85,2.22c.42.24.5.6.18.79l-3.56,2.05c-.33.19-.86.5-1.18.68l-1.19.68c-.33.19-.94.14-1.36-.1l-3.85-2.23c-.42-.24-.5-.6-.18-.79Z" style="fill:#666; opacity:.2; stroke-width:0px;"/><path d="M162.49,152.22l3.56-2.05c.33-.19.94-.14,1.36.1l3.85,2.23c.43.24.5.6.17.79l-3.55,2.05c-.33.19-.94.14-1.36-.1l-3.85-2.23c-.42-.24-.51-.6-.18-.79Z" style="fill:#666; opacity:.2; stroke-width:0px;"/><path d="M163.09,142.98l3.56-2.05c.33-.19.94-.14,1.37.1l3.85,2.23c.42.24.5.6.18.79l-3.56,2.05c-.32.19-.94.14-1.36-.1l-3.85-2.23c-.42-.24-.5-.6-.18-.79Z" style="fill:#666; opacity:.2; stroke-width:0px;"/><path d="M157.16,146.4l3.56-2.05c.33-.19.94-.14,1.36.1l3.85,2.23c.42.24.5.6.18.79l-3.55,2.05c-.33.19-.94.14-1.36-.1l-3.85-2.23c-.43-.24-.5-.6-.18-.79Z" style="fill:#666; opacity:.2; stroke-width:0px;"/><path d="M151.23,149.82l3.56-2.05c.33-.19.94-.14,1.36.1l3.85,2.22c.42.25.5.6.18.79l-3.56,2.05c-.33.19-.94.14-1.36-.1l-3.85-2.22c-.43-.24-.5-.6-.18-.79Z" style="fill:#666; opacity:.2; stroke-width:0px;"/><path d="M161.89,161.46l3.56-2.05c.33-.19.94-.14,1.36.1l3.85,2.23c.42.24.5.6.18.79l-3.56,2.05c-.32.19-.94.14-1.36-.1l-3.85-2.23c-.42-.24-.5-.6-.18-.79Z" style="fill:#666; opacity:.2; stroke-width:0px;"/><path d="M155.96,164.87l3.56-2.05c.33-.19.94-.14,1.36.1l3.85,2.23c.42.24.5.6.18.79l-3.56,2.05c-.32.19-.94.14-1.36-.1l-3.85-2.23c-.42-.25-.5-.6-.18-.79Z" style="fill:#666; opacity:.2; stroke-width:0px;"/><path d="M150.03,168.29l3.56-2.05c.32-.19.94-.14,1.36.1l3.85,2.23c.42.24.5.6.18.79l-3.56,2.05c-.33.19-.94.14-1.36-.1l-3.85-2.23c-.42-.24-.5-.6-.18-.79Z" style="fill:#666; opacity:.2; stroke-width:0px;"/><path d="M156.56,155.64l3.56-2.05c.33-.19.94-.14,1.36.1l3.85,2.23c.42.24.5.6.18.79l-3.56,2.05c-.33.19-.94.14-1.36-.1l-3.85-2.23c-.42-.24-.5-.6-.18-.79Z" style="fill:#666; opacity:.2; stroke-width:0px;"/><path d="M150.63,159.06l3.56-2.05c.33-.19.94-.14,1.36.1l3.85,2.22c.42.25.51.6.18.79l-3.56,2.05c-.33.19-.94.14-1.36-.1l-3.85-2.23c-.43-.24-.51-.6-.18-.79Z" style="fill:#666; opacity:.2; stroke-width:0px;"/><path d="M144.7,162.47l3.56-2.05c.33-.19.94-.14,1.36.1l3.85,2.22c.42.25.5.6.18.79l-3.56,2.05c-.33.19-.94.14-1.36-.1l-3.85-2.23c-.42-.24-.5-.6-.18-.79Z" style="fill:#666; opacity:.2; stroke-width:0px;"/><path d="M145.3,153.24l3.56-2.05c.33-.19.94-.14,1.36.1l3.85,2.22c.42.24.5.6.18.79l-3.56,2.05c-.33.19-.94.14-1.36-.1l-3.85-2.23c-.42-.24-.5-.6-.18-.79Z" style="fill:#666; opacity:.2; stroke-width:0px;"/><path d="M139.37,156.66l3.56-2.05c.33-.19.94-.14,1.36.1l3.85,2.23c.42.24.5.6.18.79l-3.56,2.05c-.33.19-.94.14-1.36-.1l-3.85-2.23c-.42-.24-.51-.6-.18-.79Z" style="fill:#666; opacity:.2; stroke-width:0px;"/><path d="M133.44,160.07l3.56-2.05c.33-.19.94-.14,1.36.1l3.85,2.22c.42.25.5.6.18.79l-3.56,2.05c-.33.19-.94.14-1.36-.1l-3.85-2.22c-.42-.24-.51-.6-.18-.79Z" style="fill:#666; opacity:.2; stroke-width:0px;"/><path d="M144.1,171.71l3.56-2.05c.32-.19.94-.14,1.36.1l3.85,2.23c.42.24.5.6.18.79l-3.56,2.05c-.33.19-.94.14-1.36-.11l-3.85-2.23c-.42-.24-.5-.6-.18-.79Z" style="fill:#666; opacity:.2; stroke-width:0px;"/><path d="M138.18,175.13l3.56-2.05c.32-.19.94-.14,1.36.1l3.85,2.23c.42.24.5.6.18.79l-3.56,2.05c-.32.19-.94.14-1.36-.1l-3.85-2.23c-.42-.24-.5-.6-.18-.79Z" style="fill:#666; opacity:.2; stroke-width:0px;"/><path d="M132.25,178.54l3.56-2.05c.33-.19.94-.14,1.36.1l3.85,2.23c.42.24.5.6.18.79l-3.56,2.05c-.33.19-.94.14-1.36-.1l-3.85-2.23c-.42-.24-.5-.6-.18-.79Z" style="fill:#666; opacity:.2; stroke-width:0px;"/><path d="M138.77,165.89l3.56-2.05c.33-.19.94-.14,1.36.1l3.85,2.23c.43.24.5.6.18.79l-3.56,2.05c-.33.19-.94.14-1.36-.1l-3.85-2.23c-.42-.24-.5-.6-.18-.79Z" style="fill:#666; opacity:.2; stroke-width:0px;"/><path d="M132.85,169.31l3.55-2.05c.33-.19.94-.14,1.36.1l3.85,2.23c.42.25.5.6.18.79l-3.55,2.05c-.33.19-.94.14-1.36-.1l-3.85-2.23c-.42-.24-.5-.6-.18-.79Z" style="fill:#666; opacity:.2; stroke-width:0px;"/><path d="M126.92,172.73l3.56-2.05c.32-.19.94-.14,1.36.1l3.85,2.23c.42.24.5.6.18.79l-3.56,2.05c-.33.19-.94.14-1.36-.1l-3.85-2.22c-.42-.25-.5-.6-.18-.79Z" style="fill:#666; opacity:.2; stroke-width:0px;"/><path d="M127.52,163.49l3.56-2.05c.33-.19.94-.14,1.36.1l3.85,2.22c.42.25.5.6.18.79l-3.56,2.05c-.33.19-.94.14-1.36-.1l-3.85-2.23c-.43-.24-.51-.6-.18-.79Z" style="fill:#666; opacity:.2; stroke-width:0px;"/><path d="M121.59,166.91l3.56-2.05c.33-.19.94-.14,1.36.1l3.85,2.23c.42.24.51.6.18.79l-3.56,2.05c-.33.19-.94.14-1.37-.1l-3.85-2.23c-.42-.24-.5-.6-.18-.79Z" style="fill:#666; opacity:.2; stroke-width:0px;"/><path d="M115.66,170.32l3.56-2.05c.32-.19.94-.14,1.36.1l3.85,2.23c.42.24.5.6.18.79l-3.56,2.05c-.33.19-.94.14-1.36-.1l-3.85-2.23c-.42-.25-.5-.6-.18-.79Z" style="fill:#666; opacity:.2; stroke-width:0px;"/><path d="M126.32,181.96l3.56-2.05c.33-.19.94-.14,1.36.1l3.85,2.23c.42.25.5.6.18.79l-3.56,2.05c-.33.19-.94.14-1.36-.1l-3.85-2.23c-.42-.24-.51-.6-.18-.79Z" style="fill:#666; opacity:.2; stroke-width:0px;"/><path d="M120.39,185.38l3.56-2.05c.32-.19.94-.14,1.36.1l3.85,2.23c.42.24.51.6.18.79l-3.56,2.05c-.32.19-.94.14-1.36-.1l-3.85-2.23c-.42-.24-.5-.6-.18-.78Z" style="fill:#666; opacity:.2; stroke-width:0px;"/><path d="M114.46,188.8l3.56-2.05c.33-.19.94-.14,1.36.1l3.85,2.23c.42.24.5.6.18.79l-3.56,2.05c-.33.19-.94.14-1.36-.1l-3.85-2.22c-.42-.25-.5-.6-.18-.79Z" style="fill:#666; opacity:.2; stroke-width:0px;"/><path d="M120.99,176.14l3.56-2.05c.33-.19.94-.14,1.36.1l3.85,2.23c.42.25.5.6.18.79l-3.56,2.05c-.32.19-.94.14-1.36-.1l-3.85-2.23c-.42-.25-.5-.6-.18-.79Z" style="fill:#666; opacity:.2; stroke-width:0px;"/><path d="M115.06,179.56l3.56-2.05c.33-.19.94-.14,1.36.1l3.85,2.23c.42.24.5.6.18.79l-3.56,2.05c-.33.19-.94.14-1.36-.1l-3.85-2.23c-.42-.25-.51-.6-.18-.79Z" style="fill:#666; opacity:.2; stroke-width:0px;"/><path d="M109.14,182.98l3.56-2.05c.33-.19.94-.14,1.36.1l3.85,2.23c.42.25.5.6.18.79l-3.56,2.05c-.33.19-.94.14-1.36-.1l-3.85-2.23c-.42-.24-.5-.6-.18-.79Z" style="fill:#666; opacity:.2; stroke-width:0px;"/><path d="M109.74,173.74l3.56-2.05c.32-.19.94-.14,1.36.1l3.85,2.23c.42.25.5.6.18.79l-3.56,2.05c-.33.19-.94.14-1.36-.1l-3.85-2.22c-.43-.25-.51-.6-.18-.79Z" style="fill:#666; opacity:.2; stroke-width:0px;"/><path d="M103.81,177.16l3.56-2.05c.32-.19.94-.14,1.36.11l3.85,2.23c.42.24.5.6.18.79l-3.56,2.05c-.33.19-.94.14-1.36-.1l-3.85-2.22c-.42-.25-.5-.6-.18-.79Z" style="fill:#666; opacity:.2; stroke-width:0px;"/><path d="M97.88,180.58l3.56-2.05c.33-.19.94-.14,1.36.1l3.85,2.23c.42.24.5.6.18.79l-3.56,2.05c-.33.19-.94.14-1.36-.1l-3.85-2.23c-.42-.24-.5-.6-.18-.79Z" style="fill:#666; opacity:.2; stroke-width:0px;"/><path d="M108.54,192.21l3.56-2.05c.32-.19.94-.14,1.36.1l3.85,2.23c.42.25.5.6.18.79l-3.56,2.05c-.33.19-.94.14-1.36-.1l-3.85-2.23c-.42-.24-.5-.6-.18-.79Z" style="fill:#666; opacity:.2; stroke-width:0px;"/><path d="M97.87,198.37l3.56-2.05c.33-.19.86-.5,1.19-.68l3.56-2.05c.32-.19.94-.14,1.36.1l3.85,2.23c.42.25.5.6.18.79l-3.56,2.05c-.33.19-.86.49-1.19.68l-3.56,2.05c-.32.19-.94.14-1.36-.1l-3.85-2.23c-.42-.24-.5-.6-.18-.79Z" style="fill:#666; opacity:.2; stroke-width:0px;"/><path d="M103.21,186.39l3.56-2.05c.32-.19.94-.14,1.36.1l3.85,2.23c.42.24.5.6.18.79l-3.56,2.05c-.33.19-.94.14-1.36-.1l-3.85-2.23c-.42-.25-.5-.6-.18-.79Z" style="fill:#666; opacity:.2; stroke-width:0px;"/><path d="M97.28,189.81l3.56-2.05c.32-.19.94-.14,1.36.1l3.85,2.23c.42.25.5.6.17.79l-3.56,2.05c-.33.19-.94.14-1.36-.1l-3.85-2.23c-.43-.24-.5-.6-.18-.79Z" style="fill:#666; opacity:.2; stroke-width:0px;"/><path d="M91.35,193.23l3.55-2.05c.33-.19.94-.14,1.36.1l3.85,2.23c.42.25.5.6.18.79l-3.56,2.05c-.32.19-.94.14-1.36-.1l-3.85-2.23c-.42-.25-.5-.6-.18-.79Z" style="fill:#666; opacity:.2; stroke-width:0px;"/><path d="M91.95,183.99l3.56-2.05c.33-.19.94-.14,1.36.1l3.85,2.23c.42.24.5.6.18.79l-3.56,2.05c-.33.19-.94.14-1.36-.1l-3.85-2.23c-.42-.25-.5-.6-.18-.79Z" style="fill:#666; opacity:.2; stroke-width:0px;"/><path d="M86.02,187.41l3.56-2.05c.33-.19.94-.14,1.36.1l3.85,2.23c.42.25.5.6.18.79l-3.56,2.05c-.32.19-.94.14-1.36-.1l-3.85-2.22c-.42-.24-.5-.6-.18-.79Z" style="fill:#666; opacity:.2; stroke-width:0px;"/><path d="M80.1,190.83l3.56-2.05c.33-.19.94-.14,1.36.1l3.85,2.22c.42.25.5.6.18.79l-3.55,2.05c-.33.19-.94.14-1.37-.1l-3.85-2.22c-.42-.24-.5-.6-.18-.79Z" style="fill:#666; opacity:.2; stroke-width:0px;"/><path d="M72.98,194.93l4.74-2.73c.32-.19.94-.14,1.36.1l3.85,2.22c.43.25.51.6.18.79l-4.74,2.73c-.32.19-.94.14-1.36-.1l-3.85-2.22c-.42-.25-.51-.6-.18-.79Z" style="fill:#666; opacity:.2; stroke-width:0px;"/><path d="M119.8,194.61l3.55-2.05c.33-.19.94-.14,1.36.1l3.85,2.23c.43.24.51.6.18.78l-3.56,2.05c-.33.19-.94.14-1.36-.1l-3.85-2.23c-.42-.25-.5-.6-.17-.79Z" style="fill:#666; opacity:.2; stroke-width:0px;"/><path d="M113.87,198.03l3.56-2.05c.32-.19.94-.14,1.36.1l3.85,2.23c.42.24.5.6.18.79l-3.56,2.05c-.33.19-.94.14-1.36-.1l-3.85-2.23c-.42-.24-.5-.6-.18-.79Z" style="fill:#666; opacity:.2; stroke-width:0px;"/><path d="M88.38,203.83l7.11-4.1c.33-.19.94-.14,1.36.1l3.85,2.23c.42.25.5.6.18.79l-7.11,4.1c-.33.19-.94.14-1.36-.1l-3.85-2.23c-.42-.24-.5-.6-.18-.79Z" style="fill:#666; opacity:.2; stroke-width:0px;"/><path d="M80.68,199.38l8.3-4.78c.33-.19.94-.14,1.36.1l3.85,2.23c.42.24.5.6.18.79l-8.3,4.78c-.33.19-.94.14-1.36-.1l-3.85-2.23c-.42-.25-.5-.6-.18-.79Z" style="fill:#666; opacity:.2; stroke-width:0px;"/><path d="M190.44,159.84c.22.13.59.14.81.01l4.21-2.41c.21-.12.21-.33-.02-.47l-1.59-.93c-.23-.13-.59-.14-.81-.01l-4.21,2.41c-.22.13-.21.33.02.47l1.59.93Z" style="fill:#666; opacity:.2; stroke-width:0px;"/><path d="M184.62,163.16c.23.13.59.14.81.02l4.21-2.41c.22-.12.21-.33-.02-.47l-1.59-.93c-.23-.13-.59-.14-.81-.01l-4.21,2.41c-.22.13-.21.34.02.47l1.59.93Z" style="fill:#666; opacity:.2; stroke-width:0px;"/><path d="M178.8,166.5c.23.13.59.14.81.01l4.21-2.41c.22-.13.21-.33-.02-.47l-1.59-.93c-.22-.13-.59-.14-.8-.01l-4.21,2.41c-.22.12-.21.33.02.46l1.59.93Z" style="fill:#666; opacity:.2; stroke-width:0px;"/><path d="M181.6,161.41c.23.13.59.14.81.01l4.21-2.41c.22-.12.21-.33-.02-.47l-1.59-.93c-.22-.13-.59-.14-.8-.01l-4.21,2.41c-.22.13-.21.33.01.47l1.59.93Z" style="fill:#666; opacity:.2; stroke-width:0px;"/><path d="M145.22,200.06c-1.61-.93-1.66-2.4-.13-3.29l24.65-14.22c1.54-.89,4.09-.85,5.7.08l16.14,9.33c1.61.93,1.66,2.4.13,3.29l-24.65,14.22c-1.54.89-4.09.85-5.7-.08l-16.14-9.33Z" style="fill:#666; opacity:.2; stroke-width:0px;"/></g><g id="c"><path d="M157.74,38.04l-3.27-1.39c-.68-.23-1.51-.13-2.4.39l-101.02,57.69c-2.27,1.31-4.12,4.74-4.12,7.62l.03,84.16c0,1.32.5,2.22,1.3,2.59l2.73,1.27-.14-.42c.06-.03.12-.06.18-.1l101.48-58.57c2.26-1.3,4.1-4.41,4.1-6.94V39.06c0-.13,0-.26-.02-.38l1.16-.63Z" style="fill:#fff; stroke:#606060; stroke-linecap:round; stroke-linejoin:round; stroke-width:.5px;"/><path d="M51.64,190.47c.38-.03.81-.18,1.26-.44l102.6-59.23c1.95-1.12,3.59-3.91,3.59-6.08V40.57c0-1.61-.67-2.6-1.71-2.52-.33.03-.7.15-1.08.37l-102.55,59.21c-1.96,1.13-3.61,4.23-3.61,6.76v84.15c0,.68.16,1.22.46,1.56.25.28.61.41,1.05.38h0Z" style="fill:#fff; stroke:#606060; stroke-linecap:round; stroke-linejoin:round; stroke-width:.5px;"/><path d="M104.61,70.02c-.6.35-1.09,1.26-1.09,2.02s.49,1.11,1.09.76c.6-.35,1.09-1.25,1.09-2.02s-.49-1.11-1.09-.76Z" style="fill:#fff; stroke:#606060; stroke-linecap:round; stroke-linejoin:round; stroke-width:.5px;"/><polyline points="54.93 103.45 54.93 184.22 154.29 126.86 154.29 46.08 54.93 103.45" style="fill:#fff; stroke:#606060; stroke-linecap:round; stroke-linejoin:round; stroke-width:.5px;"/></g><polygon points="131.4 72.49 85.42 99.34 85.42 96.74 131.4 69.89 131.4 72.49" style="fill:#fff; stroke-width:0px;"/><polygon points="131.4 79.91 85.42 106.76 85.42 104.15 131.4 77.3 131.4 79.91" style="fill:#fff; stroke-width:0px;"/><polygon points="131.4 93.15 102.22 110.26 102.22 107.66 131.4 90.54 131.4 93.15" style="fill:#fff; stroke-width:0px;"/><path d="M96.13,108.83c-1.97,1.14-3.57,3.91-3.57,6.19s1.6,3.2,3.57,2.06c1.97-1.14,3.57-3.91,3.57-6.19s-1.6-3.2-3.57-2.06ZM96.13,115.09c-1.02.59-1.85.11-1.85-1.07s.83-2.62,1.85-3.21c1.02-.59,1.85-.11,1.85,1.07s-.83,2.62-1.85,3.21Z" style="fill:#fff; stroke-width:0px;"/><polygon points="131.4 104.73 102.22 121.85 102.22 119.24 131.4 102.13 131.4 104.73" style="fill:#fff; stroke-width:0px;"/><path d="M96.13,120.41c-1.97,1.14-3.57,3.91-3.57,6.19s1.6,3.2,3.57,2.06c1.97-1.14,3.57-3.91,3.57-6.19s-1.6-3.2-3.57-2.06ZM96.13,126.67c-1.02.59-1.85.11-1.85-1.07s.83-2.62,1.85-3.21c1.02-.59,1.85-.11,1.85,1.07s-.83,2.62-1.85,3.21Z" style="fill:#fff; stroke-width:0px;"/><polygon points="131.4 116.32 102.22 133.44 102.22 130.83 131.4 113.71 131.4 116.32" style="fill:#fff; stroke-width:0px;"/><path d="M96.13,132c-1.97,1.14-3.57,3.91-3.57,6.19,0,2.28,1.6,3.2,3.57,2.06s3.57-3.91,3.57-6.19-1.6-3.2-3.57-2.06ZM96.13,138.26c-1.02.59-1.85.11-1.85-1.07s.83-2.62,1.85-3.21c1.02-.59,1.85-.11,1.85,1.07s-.83,2.62-1.85,3.21Z" style="fill:#fff; stroke-width:0px;"/><polygon points="131.4 127.9 102.22 145.02 102.22 142.42 131.4 125.3 131.4 127.9" style="fill:#fff; stroke-width:0px;"/><path d="M96.13,143.58c-1.97,1.14-3.57,3.91-3.57,6.19,0,2.28,1.6,3.2,3.57,2.06,1.97-1.14,3.57-3.91,3.57-6.19s-1.6-3.2-3.57-2.06ZM96.13,149.85c-1.02.59-1.85.11-1.85-1.07s.83-2.62,1.85-3.21,1.85-.11,1.85,1.07-.83,2.62-1.85,3.21Z" style="fill:#fff; stroke-width:0px;"/><polygon points="131.4 72.49 85.42 99.34 85.42 96.74 131.4 69.89 131.4 72.49" style="fill:#e95420; stroke-width:0px;"/><polygon points="131.4 79.91 85.42 106.76 85.42 104.15 131.4 77.3 131.4 79.91" style="fill:#e95420; stroke-width:0px;"/><polygon points="128.36 95.29 99.18 112.41 99.18 109.8 128.36 92.68 128.36 95.29" style="fill:#666; opacity:.2; stroke-width:0px;"/><path d="M93.08,110.97c-1.97,1.14-3.57,3.91-3.57,6.19,0,2.28,1.6,3.2,3.57,2.06,1.97-1.14,3.57-3.91,3.57-6.19s-1.6-3.2-3.57-2.06ZM93.08,117.23c-1.02.59-1.85.11-1.85-1.07s.83-2.62,1.85-3.21,1.85-.11,1.85,1.07-.83,2.62-1.85,3.21Z" style="fill:#666; stroke-width:0px;"/><polygon points="128.36 106.88 99.18 123.99 99.18 121.39 128.36 104.27 128.36 106.88" style="fill:#666; opacity:.2; stroke-width:0px;"/><path d="M93.08,122.55c-1.97,1.14-3.57,3.91-3.57,6.19s1.6,3.2,3.57,2.06,3.57-3.91,3.57-6.19-1.6-3.2-3.57-2.06ZM93.08,128.82c-1.02.59-1.85.11-1.85-1.07s.83-2.62,1.85-3.21c1.02-.59,1.85-.11,1.85,1.07s-.83,2.62-1.85,3.21Z" style="fill:#666; stroke-width:0px;"/><polygon points="128.36 118.46 99.18 135.58 99.18 132.97 128.36 115.86 128.36 118.46" style="fill:#666; opacity:.2; stroke-width:0px;"/><path d="M93.08,134.14c-1.97,1.14-3.57,3.91-3.57,6.19,0,2.28,1.6,3.2,3.57,2.06,1.97-1.14,3.57-3.91,3.57-6.19s-1.6-3.2-3.57-2.06ZM93.08,140.4c-1.02.59-1.85.11-1.85-1.07s.83-2.62,1.85-3.21,1.85-.11,1.85,1.07-.83,2.62-1.85,3.21Z" style="fill:#666; stroke-width:0px;"/><polygon points="128.36 130.05 99.18 147.17 99.18 144.56 128.36 127.44 128.36 130.05" style="fill:#666; opacity:.2; stroke-width:0px;"/><path d="M93.09,145.73c-1.97,1.14-3.57,3.91-3.57,6.19s1.6,3.2,3.57,2.06c1.97-1.14,3.57-3.91,3.57-6.19s-1.6-3.2-3.57-2.06ZM93.09,151.99c-1.02.59-1.85.11-1.85-1.07s.83-2.62,1.85-3.21c1.02-.59,1.85-.11,1.85,1.07s-.83,2.62-1.85,3.21Z" style="fill:#666; stroke-width:0px;"/><path d="M112.77,259.72s-1.95-1.3-1.98-1.33l-2.79.52s-.24,1.71-.24,1.74l-4.55-.21s.21-1.72.22-1.75l-2.62-.78s-2.26,1.11-2.3,1.13l-2.97-2.01s2.24-1.13,2.29-1.14l-.91-1.62s-2.96-.14-3.01-.15l.35-2.63c.05,0,2.97.12,3.02.13l1.33-1.52c-.09-.05-1.93-1.31-1.96-1.34l3.46-1.71s1.95,1.3,1.98,1.33l2.79-.52s.24-1.71.24-1.74l4.55.21s-.21,1.72-.22,1.75l2.62.78s2.26-1.11,2.3-1.13l2.97,2.01s-2.24,1.13-2.29,1.14l.91,1.62c.05,0,2.96.14,3.01.15l-.35,2.63c-.05,0-2.97-.12-3.01-.13l-1.33,1.52c.09.05,1.93,1.31,1.96,1.34l-3.46,1.71ZM106.12,255.74c2.24.1,4.19-.86,4.36-2.16.09-.72-.37-1.38-1.19-1.85-.66-.38-1.55-.63-2.55-.68-2.24-.1-4.19.86-4.36,2.16-.09.72.37,1.38,1.19,1.85.66.38,1.55.63,2.55.68h0Z" style="fill:#e95420; stroke-width:0px;"/><g style="opacity:.35;"><polygon points="180.8 247.6 180.8 249.32 179.55 250.04 179.55 246.87 180.8 247.6" style="fill:#e95420; stroke-width:0px;"/><polygon points="177.66 245.78 177.66 251.13 176.41 251.85 176.41 245.06 177.66 245.78" style="fill:#e95420; stroke-width:0px;"/><polygon points="174.52 243.97 174.52 252.94 173.27 253.66 173.27 243.25 174.52 243.97" style="fill:#e95420; stroke-width:0px;"/><polygon points="171.38 242.16 171.38 254.75 170.13 255.48 170.13 241.44 171.38 242.16" style="fill:#e95420; stroke-width:0px;"/><polygon points="168.25 241.75 168.25 256.57 166.99 257.29 166.99 242.48 168.25 241.75" style="fill:#e95420; stroke-width:0px;"/><polygon points="165.11 243.57 165.11 258.38 163.86 259.1 163.86 244.29 165.11 243.57" style="fill:#e95420; stroke-width:0px;"/><polygon points="161.97 245.38 161.97 260.19 160.72 260.91 160.72 246.1 161.97 245.38" style="fill:#e95420; stroke-width:0px;"/><polygon points="158.83 247.19 158.83 262 157.58 262.73 157.58 247.91 158.83 247.19" style="fill:#e95420; stroke-width:0px;"/><polygon points="155.69 249 155.69 262.73 154.44 262.01 154.44 249.72 155.69 249" style="fill:#e95420; stroke-width:0px;"/><polygon points="152.55 250.81 152.55 260.92 151.3 260.2 151.3 251.54 152.55 250.81" style="fill:#e95420; stroke-width:0px;"/><polygon points="149.41 259.11 148.16 258.39 148.16 253.35 149.41 252.63 149.41 259.11" style="fill:#e95420; stroke-width:0px;"/><polygon points="145.03 256.58 145.03 255.16 146.28 254.44 146.28 257.3 145.03 256.58" style="fill:#e95420; stroke-width:0px;"/><path d="M140.9,255.87l15.73,9.08,28.56-16.49-15.73-9.08-28.56,16.49ZM142.75,255.87l26.71-15.42,13.89,8.01-26.71,15.42-13.89-8.01Z" style="fill:#e95420; stroke-width:0px;"/></g><ellipse cx="201.94" cy="115.37" rx="27.79" ry="16.04" style="fill:#666; opacity:.2; stroke-width:0px;"/><path d="M218.79,106.31c1.2-.6,2.47-1.24,2.51-1.26v-4.34s-6-4.07-6-4.07c-.08.04-4.6,2.24-4.66,2.29l-4.87-1.44v-3.66s-9.2-.43-9.2-.43c0,.06-.51,3.47-.49,3.53h0s0,0,0,0l-5.66,1.06c-.05-.05-3.93-2.64-4-2.69l-7.01,3.47v4.34s.75.52,1.58,1.09l-.3.35c-.1-.02-6-.27-6.1-.27l-.7,5.33v4.34c.08,0,4.69.24,5.83.29-1.2.6-2.47,1.24-2.51,1.26v4.34s6,4.07,6,4.07c.08-.04,4.6-2.24,4.66-2.29l4.87,1.44v3.66s9.2.43,9.2.43c0-.06.49-3.37.49-3.53h0s5.66-1.07,5.66-1.07c.05.05,3.93,2.64,4,2.69l7.01-3.47v-4.34s-.75-.52-1.58-1.09l.3-.35c.1.02,6,.27,6.1.27l.7-5.33v-4.34c-.08,0-4.69-.24-5.83-.29ZM202.44,119.29s0,.02,0,.02c0-.01,0-.03,0-.03h0ZM198.64,112.86c-2.03-.09-3.83-.61-5.17-1.38-.64-.37-1.17-.8-1.57-1.26,2.39-2.75,9.14-3.45,13.15-1.14.62.36,1.14.77,1.53,1.22-1.47,1.65-4.54,2.71-7.94,2.56ZM207.48,107.92s0,.08,0,.11c0-.04,0-.08,0-.11ZM206.43,105.79s-.06-.06-.09-.09c.03.03.06.06.09.09ZM207.46,107.77s0-.07-.01-.11c0,.04,0,.07.01.11ZM207.42,107.51s-.01-.06-.02-.09c0,.03.01.06.02.09ZM207.33,107.2s0-.02-.01-.04c0,.01,0,.02.01.04ZM207.23,106.93s-.03-.05-.04-.08c.01.03.03.05.04.08ZM207.11,106.69s-.04-.06-.06-.1c.02.03.04.06.06.1ZM206.97,106.46s-.04-.07-.07-.1c.02.03.05.06.07.1ZM206.81,106.23s-.05-.06-.08-.1c.03.03.05.06.08.1ZM206.63,106.01s-.06-.06-.08-.1c.03.03.06.06.08.1ZM206.22,105.58s-.07-.06-.1-.09c.03.03.07.06.1.09ZM205.98,105.37s-.07-.06-.1-.09c.04.03.07.06.1.09ZM205.73,105.18s-.07-.05-.11-.08c.04.03.07.05.11.08ZM205.44,104.98s-.06-.04-.1-.06c.03.02.06.04.1.06ZM199.07,103.35s-.02,0-.03,0c.01,0,.02,0,.03,0ZM198.55,103.37c-2.79.16-5.38,1.14-6.67,2.63,1.25-1.47,3.77-2.49,6.67-2.63ZM191.06,107.73s0,0,0,0c-.01.11-.02.22-.02.33,0-.11,0-.22.02-.33ZM191.87,106.02c-.11.13-.22.27-.31.42.09-.14.19-.28.31-.42ZM191.39,106.73s-.04.08-.06.12c.02-.04.04-.08.06-.12ZM191.2,107.18s-.02.06-.03.1c0-.03.02-.06.03-.1ZM202.42,119.45c-.09.69-.47,3.31-.47,3.36,0-.05.39-2.66.47-3.36ZM202.43,119.34s0,.06-.01.09c0-.04,0-.07.01-.09Z" style="fill:#fff; stroke:#606060; stroke-linecap:round; stroke-linejoin:round; stroke-width:2px;"/><polygon points="196.09 96.94 196.08 101.28 196.08 101.27 196.09 96.93 196.09 96.94 196.09 96.94" style="fill:#fff; stroke:#606060; stroke-linecap:round; stroke-linejoin:round; stroke-width:.5px;"/><path d="M205.79,93.83v4.34c-.02.06-.43,3.48-.46,3.53v-4.34c.04-.06.45-3.47.46-3.53h0Z" style="fill:#fff; stroke:#606060; stroke-linecap:round; stroke-linejoin:round; stroke-width:.5px;"/><path d="M183.39,101.48v4.34c-.2-.11-3.91-2.66-3.98-2.71v-4.34c.08.05,3.79,2.6,3.98,2.71h0Z" style="fill:#fff; stroke:#606060; stroke-linecap:round; stroke-linejoin:round; stroke-width:.5px;"/><path d="M221.32,100.72v4.34c-.09.04-4.55,2.28-4.64,2.31v-4.34c.1-.03,4.56-2.27,4.64-2.31h0Z" style="fill:#fff; stroke:#606060; stroke-linecap:round; stroke-linejoin:round; stroke-width:.5px;"/><path d="M205.06,104.74c-5.27-3.04-14.01-.76-14.02,3.35v4.34c0-4.49,9.08-6.2,14.01-3.35,1.51.87,2.43,2.08,2.43,3.39v-4.34c.02-1.31-.91-2.51-2.42-3.39Z" style="fill:#fff; stroke:#606060; stroke-linecap:round; stroke-linejoin:round; stroke-width:.5px;"/><path d="M179.99,109.91v4.34c-.11,0-6.01-.29-6.11-.3v-4.34c.12,0,6.01.3,6.11.3h0Z" style="fill:#fff; stroke:#606060; stroke-linecap:round; stroke-linejoin:round; stroke-width:.5px;"/><polygon points="224.64 106.6 224.62 110.94 223.92 116.27 223.93 111.93 224.64 106.6" style="fill:#fff; stroke:#606060; stroke-linecap:round; stroke-linejoin:round; stroke-width:.5px;"/><path d="M223.93,111.93v4.34c-.12,0-6.02-.25-6.12-.27v-4.34c.11.02,6.01.27,6.12.27h0Z" style="fill:#fff; stroke:#606060; stroke-linecap:round; stroke-linejoin:round; stroke-width:.5px;"/><polygon points="181.84 113.19 181.83 117.53 179.98 114.25 179.99 109.91 181.84 113.19" style="fill:#fff; stroke:#606060; stroke-linecap:round; stroke-linejoin:round; stroke-width:.5px;"/><polygon points="217.83 111.66 217.82 116 215.12 119.07 215.14 114.73 217.83 111.66" style="fill:#fff; stroke:#606060; stroke-linecap:round; stroke-linejoin:round; stroke-width:.5px;"/><polygon points="193.19 118.85 193.18 123.19 187.87 121.62 187.88 117.28 193.19 118.85" style="fill:#fff; stroke:#606060; stroke-linecap:round; stroke-linejoin:round; stroke-width:.5px;"/><polygon points="208.09 118.22 208.08 122.55 202.43 123.62 202.44 119.28 208.09 118.22" style="fill:#fff; stroke:#606060; stroke-linecap:round; stroke-linejoin:round; stroke-width:.5px;"/><path d="M187.88,117.28v4.34c-.07.05-4.59,2.25-4.67,2.29v-4.34c.09-.04,4.61-2.24,4.67-2.29h0Z" style="fill:#fff; stroke:#606060; stroke-linecap:round; stroke-linejoin:round; stroke-width:.5px;"/><polygon points="183.22 119.57 183.21 123.91 177.2 119.84 177.21 115.5 183.22 119.57" style="fill:#fff; stroke:#606060; stroke-linecap:round; stroke-linejoin:round; stroke-width:.5px;"/><polygon points="219.1 117.44 219.09 121.77 212.08 125.24 212.09 120.91 219.1 117.44" style="fill:#fff; stroke:#606060; stroke-linecap:round; stroke-linejoin:round; stroke-width:.5px;"/><path d="M212.09,120.91v4.34c-.08-.05-3.96-2.64-4.01-2.69v-4.34c.06.05,3.94,2.64,4.01,2.69h0Z" style="fill:#fff; stroke:#606060; stroke-linecap:round; stroke-linejoin:round; stroke-width:.5px;"/><polygon points="201.95 122.81 201.94 127.15 192.73 126.72 192.74 122.38 201.95 122.81" style="fill:#fff; stroke:#606060; stroke-linecap:round; stroke-linejoin:round; stroke-width:.5px;"/><path d="M212.09,120.91c-.07-.05-3.95-2.64-4-2.69l-5.66,1.06c.01.06-.48,3.47-.49,3.53l-9.21-.43c0-.06.42-3.48.45-3.53l-5.31-1.57c-.06.05-4.58,2.25-4.66,2.29l-6.01-4.07c.08-.04,4.54-2.28,4.63-2.31l-1.85-3.28c-.1,0-5.99-.29-6.1-.3l.7-5.33c.11,0,6.01.25,6.1.27l2.69-3.07c-.19-.11-3.9-2.66-3.97-2.71l7.01-3.47c.07.05,3.95,2.64,4,2.69l5.66-1.06c-.02-.06.48-3.47.49-3.53l9.21.43c0,.06-.42,3.48-.45,3.53l5.31,1.57c.06-.05,4.58-2.25,4.66-2.29l6.01,4.07c-.08.04-4.54,2.28-4.63,2.31l1.85,3.28c.1,0,5.99.29,6.1.3l-.7,5.33c-.11,0-6.01-.25-6.1-.27l-2.69,3.07c.19.11,3.9,2.66,3.97,2.71l-7.01,3.47ZM198.64,112.86c4.53.21,8.48-1.75,8.83-4.37.19-1.45-.76-2.8-2.41-3.75-1.34-.77-3.14-1.28-5.17-1.38-4.53-.21-8.48,1.75-8.83,4.37-.19,1.45.76,2.8,2.41,3.75,1.34.77,3.14,1.28,5.17,1.38h0Z" style="fill:#fff; stroke:#606060; stroke-linecap:round; stroke-linejoin:round; stroke-width:.5px;"/><path d="M202.44,119.28v4.34c-.01.16-.49,3.47-.5,3.53v-4.34c.02-.06.5-3.37.5-3.53h0Z" style="fill:#fff; stroke:#606060; stroke-linecap:round; stroke-linejoin:round; stroke-width:.5px;"/><polygon points="218.95 143.59 216.05 141.92 215.42 142.28 218.32 143.95 215.42 145.63 216.05 145.99 218.95 144.32 221.85 145.99 222.48 145.63 219.58 143.95 222.48 142.28 221.85 141.92 218.95 143.59" style="fill:#e95420; fill-rule:evenodd; stroke-width:0px;"/><polygon points="93.82 231.64 90.93 229.96 90.3 230.33 93.2 232 90.3 233.68 90.93 234.04 93.82 232.36 96.72 234.04 97.35 233.68 94.45 232 97.35 230.33 96.72 229.96 93.82 231.64" style="fill:#e95420; fill-rule:evenodd; stroke-width:0px;"/><polygon points="67.14 232.74 64.24 231.07 63.61 231.43 66.51 233.11 63.61 234.78 64.24 235.14 67.14 233.47 70.04 235.14 70.67 234.78 67.77 233.11 70.67 231.43 70.04 231.07 67.14 232.74" style="fill:#e95420; fill-rule:evenodd; stroke-width:0px;"/><polygon points="51.25 218.33 48.35 216.66 47.72 217.02 50.62 218.69 47.72 220.37 48.35 220.73 51.25 219.06 54.15 220.73 54.78 220.37 51.88 218.69 54.78 217.02 54.15 216.66 51.25 218.33" style="fill:#e95420; fill-rule:evenodd; stroke-width:0px;"/><ellipse cx="205.99" cy="236.13" rx="12.9" ry="7.45" style="fill:#666; opacity:.2; stroke-width:0px;"/><ellipse cx="232.8" cy="219.26" rx="12.9" ry="7.45" style="fill:#666; opacity:.2; stroke-width:0px;"/><path d="M210.96,206.91l.02-6.09s0,.03,0,.04c.02-1.27-.59-2.54-1.82-3.65-.49-.61-1.16-1.19-2.02-1.7-1.18-.7-2.57-1.2-4.07-1.51v-18.85l1.87-2.68c.38-.54.58-1.19.51-1.69l-3.21-13.25-.93-.54-5.16,2.98-2.86,13.74c-.06.49.08.87.36,1.03l2.12,1.23v18.04c-1.35.29-2.62.74-3.72,1.35-.97.54-1.71,1.16-2.25,1.83-1.22,1.1-1.83,2.37-1.81,3.64,0-.02,0-.04,0-.06,0,0,0,0,0,0l-.02,6.09h0c0,.14,0,.29.03.43h0s0,.07.01.1h0c.02.14.04.29.08.43,0,0,0,0,0,0,0,0,0,0,0,.01.04.15.08.29.14.44,0,.02.01.04.02.06,0,0,0,0,0,0,.06.15.12.29.2.44,0,0,0,0,0,0,0,0,0,0,0,0,0,0,0,0,0,0,.08.15.16.3.26.44,0,0,0,0,0,0,0,0,.01.02.02.03h0c.3.45.68.89,1.16,1.31v1.16c-.05.05-.09.09-.13.13-.01.02-.03.03-.04.05-.02.02-.04.04-.06.06-.02.02-.05.05-.07.07,0,.01-.02.02-.03.03-.02.02-.04.04-.06.06,0,0-.02.02-.03.03h0s0,0,0,0c-.04.04-.07.08-.11.13,0,.01-.02.03-.03.04-.03.03-.05.06-.08.1-.01.02-.02.03-.04.05-.03.04-.06.07-.09.11-.01.02-.02.03-.04.05-.04.06-.09.12-.14.19,0,0-.01.02-.02.04,0,0,0,0,0,.01,0,0,0,0,0,0-.02.03-.04.06-.07.11,0,0,0,0,0,0-.03.05-.06.1-.1.16,0,0,0,0,0,0-.08.13-.16.28-.24.45,0,0,0,0,0,0,0,.02-.02.04-.03.05-.02.04-.03.08-.05.11,0,0,0,0,0,0-.07.16-.13.3-.17.43-.01.03-.02.06-.03.09,0,0,0,0,0,.01,0,.02-.01.04-.02.06-.04.11-.06.21-.08.28,0,.02,0,.04-.01.05-.01.06-.03.13-.04.19,0,0,0,.01,0,.02-.02.09-.03.18-.04.27,0,.03,0,.05-.01.08-.01.09-.03.18-.04.26,0,0,0,0,0,.01-.01.12-.01.28-.02.4h0s-.04,13.6-.04,13.6h0c0,.27.02.63.05.9.03.3.09.7.17,1,.03.12.07.25.11.39,0,.01,0,.03.01.04.06.2.12.39.19.58.03.07.05.15.08.21,0,0,0,0,0,.01.12.3.3.7.47.98.19.32.46.75.69,1.05,0,.01.02.03.03.04.05.06.1.12.15.19.04.05.08.09.12.14.02.03.05.06.07.09.06.07.12.13.18.2,0,0,.01.01.02.02.1.11.21.22.3.32.34.34.7.63,1.03.87.02.01.03.02.05.03.06.05.12.09.18.13.02.01.04.03.06.04.05.04.11.07.16.11.02.01.04.03.06.04.05.03.09.06.13.09.02.01.03.02.05.03.09.06.17.11.22.14,0,0,.79.47,1.44.73.12.05.23.09.33.13.02,0,.03.01.04.02.08.03.16.06.24.09.01,0,.02,0,.04.01.07.03.15.05.22.08,0,0,.01,0,.02,0,.13.04.26.09.41.13,0,0,.01,0,.02,0,.06.02.13.04.2.06,0,0,0,0,0,0h0c.14.04.29.08.47.13.02,0,.04.01.07.02,0,0,0,0,.01,0,.01,0,.03,0,.04.01.05.01.12.03.2.05,0,0,.01,0,.02,0,0,0,0,0,0,0,.3.07.77.15,1.35.22,0,0,0,0,0,0,0,0,0,0,0,0,.25.03.51.05.8.07h0s0,0,0,0c0,0,0,0,0,0,.26.02.54.03.83.03,1.75.02,3.12-.29,3.38-.35.22-.05.51-.12.72-.18.4-.12.92-.3,1.31-.45.42-.16.68-.3,1.38-.66.63-.36.78-.48,1.36-.9.26-.19.57-.47.8-.69.26-.25.6-.62.82-.91.24-.31.53-.75.74-1.09.21-.33.61-1.19.79-1.85.08-.29.18-.68.22-.98.04-.28.07-.63.09-.95h0c.01-.12.02-.24.02-.36l.04-13.6c0-.56-.05-1-.27-1.67-.22-.69-.59-1.26-.73-1.47-.11-.17-.41-.59-.91-1.08v-1.15c1.29-1.11,1.94-2.4,1.94-3.69ZM188.6,202.93s0-.01,0-.02c.01.02.03.05.04.07,0-.02-.02-.03-.03-.05,0,0,0,0,0,0ZM188.21,202.09s0,0,0-.01c0,.01,0,.02.01.03,0,0,0,0,0-.01,0,0,0,0,0,0ZM188.86,203.32s.02.03.04.05c-.01-.01-.02-.03-.03-.04,0,0,0,0,0,0ZM189.24,203.8c.05.05.1.1.14.16-.05-.05-.09-.1-.14-.15,0,0,0,0,0,0ZM190.47,204.91s0,0,0,0c.08.06.17.12.25.18-.06-.04-.13-.09-.19-.13-.02-.01-.04-.03-.06-.04ZM190.84,205.17c.13.08.26.17.4.25-.14-.08-.27-.17-.4-.25ZM196.05,207.14c3.89.71,8.31.2,11.44-1.56.04-.02.08-.05.13-.07-.04.02-.08.05-.13.07-3.13,1.76-7.55,2.27-11.44,1.56ZM208.46,204.96c-.05.04-.1.08-.16.12.06-.04.11-.08.16-.12ZM208.07,205.23c-.05.04-.11.07-.16.11.06-.04.11-.07.16-.11ZM208.82,204.69c-.05.04-.1.08-.15.12.05-.04.1-.08.15-.12ZM190.33,204.8c-.07-.05-.14-.1-.2-.16,0,0,0,0,0,0,.07.06.14.11.21.16ZM189.5,204.08c.05.05.11.11.16.16-.06-.05-.11-.1-.16-.16ZM189.8,204.37c.06.05.12.11.19.16-.06-.05-.13-.11-.19-.16ZM207.82,234.08c-.13.08-.26.16-.4.23.14-.08.27-.16.4-.23ZM209,204.54s.1-.09.14-.13c-.05.04-.09.09-.14.13ZM209.31,204.26s.09-.09.13-.13c-.04.04-.09.09-.13.13ZM210.96,201.19c0-.05,0-.1.01-.15,0,.05,0,.1-.01.15ZM209.6,203.98s.08-.09.12-.14c-.04.05-.08.09-.12.14ZM209.85,203.68s.07-.09.11-.14c-.04.05-.07.09-.11.14ZM210.09,203.38s.06-.09.1-.14c-.03.05-.06.1-.1.14ZM210.29,203.08s.06-.1.09-.15c-.03.05-.05.1-.09.15ZM210.47,202.77s.05-.1.07-.15c-.02.05-.05.1-.07.15ZM210.62,202.46s.04-.1.06-.15c-.02.05-.04.1-.06.15ZM210.74,202.14s.03-.1.05-.15c-.02.05-.03.1-.05.15ZM210.84,201.83c.01-.05.02-.1.04-.15-.01.05-.02.1-.04.15ZM210.91,201.51c0-.05.02-.1.02-.15,0,.05-.01.1-.02.15ZM196.81,175.76s0,0,0,0h0s.26-15.25.26-15.25l-.26,15.25ZM188.01,201.2s0-.02,0-.04c0,0,0-.01,0-.02,0,.02,0,.03,0,.05ZM188.23,231.09s.01.02.02.03c.03.08.07.16.11.24.03.07.07.13.11.19.02.04.04.07.06.11.04.07.08.14.13.2.02.03.04.06.06.1.05.08.11.16.17.24.01.02.03.04.04.06.07.08.14.17.21.25.01.01.02.03.03.04.08.09.17.19.26.28,0,0,0,0,0,0,.47.47,1.04.91,1.72,1.32h0,0c-1.48-.89-2.46-1.95-2.92-3.07ZM194.49,235.53s0,0,0,0c0,0,0,0,0,0s0,0,0,0ZM195.58,235.8s0,0,0,0h0s0,0,0,0c0,0,0,0,0,0s0,0,0,0ZM198.74,236.17c-.05,0-.11,0-.16,0,.05,0,.11,0,.16,0ZM200.78,236.13c.12,0,.24-.02.36-.03-.12,0-.24.02-.36.03ZM201.67,236.06c.17-.02.33-.04.49-.06-.16.02-.33.05-.49.06ZM202.76,235.9c.22-.04.44-.08.66-.13-.22.05-.44.09-.66.13ZM203.78,235.69c.21-.05.41-.1.61-.16-.2.06-.41.11-.61.16ZM205.73,235.09c.22-.09.44-.18.66-.27-.21.1-.43.19-.66.27ZM204.68,235.45c.29-.09.57-.18.85-.28-.28.1-.56.19-.85.28ZM207.41,234.32c-.25.14-.52.27-.79.4.27-.13.53-.26.79-.4ZM207.95,233.99c.08-.05.17-.11.25-.16-.08.06-.17.11-.25.16ZM209.03,233.18c.05-.05.11-.1.16-.14-.05.05-.11.1-.16.14ZM208.34,233.72c.07-.05.14-.1.21-.15-.07.05-.14.1-.21.15ZM208.7,233.45c.06-.05.12-.1.18-.15-.06.05-.12.1-.18.15ZM209.33,232.9s.1-.09.14-.14c-.05.05-.09.1-.14.14ZM209.6,232.62s.08-.09.12-.14c-.04.05-.08.09-.12.14ZM209.84,232.33s.07-.09.1-.14c-.03.05-.07.09-.1.14ZM210.06,232.03s.06-.09.09-.13c-.03.04-.06.09-.09.13ZM210.26,231.74s.05-.08.07-.12c-.02.04-.05.08-.07.12ZM210.42,231.43s.04-.07.05-.11c-.02.04-.03.07-.05.11ZM210.68,230.82s0-.02,0-.03c0,0,0,.02,0,.03ZM210.56,231.13s.02-.06.03-.09c-.01.03-.02.06-.03.09Z" style="fill:#666; stroke:#606060; stroke-linecap:round; stroke-linejoin:round; stroke-width:2px;"/><path d="M240.36,172.66c4.36-5.1,7.33-12.05,7.31-18.08-.01-4.33-1.56-7.35-4.05-8.73.03.02.07.03.1.05l-4.71-2.74c-.9-.52-1.93-.83-3.05-.9-.08,0-.16.02-.23.06-.09.05-.18.15-.26.25-.13.18-.23.4-.23.6l.03,9.31c0,.22-.11.48-.28.67l-5.35,6.02c-.06.07-.13.13-.2.17,0,0,0,0-.01,0-.07.04-.14.07-.21.07l-.94.03-.02-6.79c0-.16-.06-.27-.15-.32,0,0,0,0,0,0l-4.71-2.74c-.09-.05-.22-.04-.35.03-.08.05-.16.11-.23.21-3.42,4.17-5.92,9.47-6.68,14.48-.16,1.07-.25,2.12-.25,3.14.01,4.27,1.52,7.27,3.95,8.68l3.4,1.98-1.21,33.98c-.02.25-.03.5-.03.75,0,.47.04.9.11,1.32.26,1.69,1.01,2.9,2.1,3.53l4.71,2.74s-.02-.01-.03-.02c1.38.82,3.29.71,5.4-.51,4.18-2.41,7.55-8.25,7.54-13.05,0-.25-.01-.48-.03-.71l-1.44-33.49ZM243.23,145.65c-.1-.05-.19-.09-.29-.14.1.04.2.09.29.14ZM242.51,145.36c-.1-.03-.19-.07-.29-.1.1.03.19.06.29.1ZM241.72,145.15c-.09-.02-.17-.04-.26-.06.09.01.17.04.26.06ZM240.43,145.06c.08-.05.16-.07.24-.06h0c-.08,0-.16.02-.24.06-.05.03-.1.07-.15.12.05-.05.1-.09.15-.12ZM240.04,145.53s-.03.06-.04.1c.01-.03.03-.06.04-.1ZM239.97,145.71c-.02.07-.03.14-.03.21l.03,9.29-.03-9.29c0-.07.01-.14.03-.21ZM223.59,158.68c.09-.18.19-.37.28-.55-.1.18-.19.36-.28.55ZM227.98,179.81l-1.23,34.54h0l1.23-34.54h0,0ZM226.74,214.85c-.01.17-.01.33-.02.5,0-.16,0-.33.02-.5v-.37h.01v.37ZM229.57,213.73c-.08.05-.16.09-.25.13,0-.07-.01-.14-.01-.22,0-3.14,2.2-6.97,4.94-8.55.08-.05.16-.09.25-.13,0,.07.01.15.01.22,0,1.78-.7,3.78-1.82,5.47-.85,1.29-1.93,2.39-3.12,3.08ZM231.33,217.04c-.07-.02-.14-.03-.21-.06.07.02.14.04.21.06ZM230.96,216.91c-.06-.03-.13-.05-.19-.09.06.03.13.06.19.09ZM238.37,205.23s-.09-.09-.14-.13c.05.04.09.08.14.13ZM238.09,204.96s-.1-.07-.16-.11c.05.04.11.07.16.11ZM233.92,162.16c.07,0,.14-.03.21-.07,0,0,0,0,.01,0,.07-.04.13-.1.2-.17-.07.07-.14.13-.21.18s-.14.07-.21.07l-5.36.16s-.09-.01-.13-.03c.04.02.08.03.13.03l-.22-.13h0l.22.13,5.36-.16ZM224.12,157.66c.17-.31.34-.62.52-.92-.18.31-.35.61-.52.92ZM224.87,156.36c.12-.21.25-.41.38-.61-.13.2-.25.41-.38.61ZM225.5,155.36c.13-.2.26-.39.39-.59-.13.19-.26.39-.39.59ZM226.14,154.4c.15-.21.3-.42.45-.62-.15.2-.3.41-.45.62ZM226.82,153.48c.23-.3.46-.6.7-.89-.24.29-.47.59-.7.89ZM227.98,152.32s-.02,0-.04,0c.01,0,.02,0,.04,0ZM228.06,152.33s-.02,0-.03-.01c.01,0,.02,0,.03.01ZM227.85,152.34s.02,0,.03,0c-.01,0-.02,0-.03,0ZM223.32,159.23c-.07.15-.15.31-.22.46.07-.15.14-.31.22-.46ZM222.85,160.28c-.06.14-.12.27-.17.41.06-.14.11-.27.17-.41ZM222.41,161.32c-.04.1-.08.2-.11.3.04-.1.07-.2.11-.3ZM221.49,164.07c-.02.07-.04.13-.06.2.02-.07.04-.14.06-.2ZM221.24,165.03c-.02.09-.04.17-.06.26.02-.09.04-.17.06-.26ZM221.02,166.05c-.01.08-.03.15-.04.23.01-.08.03-.15.04-.23ZM220.62,169.26c-.02.32-.03.64-.03.95,0,.34.01.66.03.98-.02-.32-.03-.65-.03-.98,0-.32,0-.63.03-.95ZM220.69,168.34c-.02.18-.03.36-.05.54.01-.18.03-.36.05-.54ZM220.9,173.27c-.06-.28-.11-.57-.15-.87.04.3.09.59.15.87ZM220.72,172.22c-.03-.25-.06-.5-.08-.76.02.26.05.51.08.76ZM220.94,173.46c.05.22.11.44.17.65-.06-.21-.12-.43-.17-.65ZM221.17,174.33c.08.26.17.51.26.76-.1-.24-.18-.5-.26-.76ZM221.46,175.16c.09.22.18.43.28.63-.1-.2-.2-.41-.28-.63ZM221.84,175.97c.1.19.2.37.31.55-.11-.18-.21-.36-.31-.55ZM222.21,176.62c.13.2.27.39.41.58-.14-.18-.28-.37-.41-.58ZM222.73,177.33c.12.14.24.28.36.41-.12-.13-.25-.27-.36-.41ZM223.21,177.87s.02.02.03.03h0s-.02-.02-.03-.03ZM228.16,219.86s0,0,.01.01c0,0,0,0-.01-.01ZM228.51,220.17s.03.03.05.04c-.02-.01-.03-.03-.05-.04ZM231.51,217.09c.07.01.15.02.22.03-.07,0-.15-.01-.22-.03ZM231.92,217.14c.08,0,.16,0,.24,0-.08,0-.16,0-.24,0ZM232.61,217.09c-.09.01-.17.03-.26.04.08,0,.17-.03.26-.04ZM234.28,216.47c-.17.1-.34.19-.51.26.17-.08.34-.16.51-.26,0,0,.01,0,.02-.01,0,0-.01,0-.02.01ZM232.81,217.06c.09-.02.19-.05.29-.08-.1.03-.19.06-.29.08ZM233.28,216.93c.12-.04.25-.1.37-.15-.13.05-.25.11-.37.15ZM234.76,216.17c.06-.04.11-.08.16-.12-.05.04-.11.08-.16.12ZM235.22,215.82c.06-.05.13-.11.19-.16-.06.05-.13.11-.19.16ZM235.66,215.44c.07-.06.13-.12.2-.19-.07.06-.13.13-.2.19ZM236.09,215.03c.07-.07.13-.14.2-.21-.07.07-.13.14-.2.21ZM236.88,214.12c.18-.23.35-.47.52-.72-.16.25-.34.48-.52.72ZM236.5,214.58c.07-.08.13-.15.2-.23-.06.08-.13.15-.2.23ZM239.19,208.56c.02-.22.03-.43.03-.64,0-.05,0-.09,0-.14,0,.05,0,.09,0,.14,0,.21-.01.43-.03.64ZM237.4,213.39c.27-.41.52-.84.74-1.28-.22.44-.46.87-.74,1.28ZM238.21,211.96c.08-.16.15-.33.22-.5-.07.17-.15.33-.22.5ZM238.52,211.25c.06-.15.12-.3.17-.45-.05.15-.11.3-.17.45ZM238.77,210.56c.05-.14.09-.29.13-.43-.04.14-.08.29-.13.43ZM238.96,209.89c.04-.14.07-.28.09-.43-.03.14-.06.28-.09.43ZM239.1,209.22c.03-.15.04-.3.06-.45-.02.15-.04.3-.06.45ZM238.5,205.4c.04.05.08.1.12.16-.04-.06-.08-.1-.12-.16ZM238.73,205.76c.03.06.07.11.1.18-.03-.06-.07-.12-.1-.18ZM238.92,206.17c.02.06.05.13.08.19-.02-.07-.05-.13-.08-.19ZM239.06,206.63c.02.07.04.13.05.2-.01-.07-.04-.13-.05-.2ZM239.17,207.16c0,.07.02.13.03.19,0-.07-.02-.13-.03-.19ZM239.85,155.65c.07-.14.12-.29.12-.43h0c0,.14-.04.29-.12.43Z" style="fill:#fff; stroke:#606060; stroke-linecap:round; stroke-linejoin:round; stroke-width:2px;"/><path d="M232.69,210.65c-.85,1.29-1.93,2.39-3.12,3.08-1.38.79-2.62.87-3.52.34l4.71,2.74c.9.52,2.15.45,3.52-.34,1.18-.68,2.27-1.79,3.12-3.08l-4.71-2.74Z" style="fill:#fff; stroke:#606060; stroke-linecap:round; stroke-linejoin:round; stroke-width:.5px;"/><path d="M239.22,207.92c0-1.56-.56-2.66-1.44-3.18l-4.71-2.74c.89.52,1.44,1.62,1.44,3.18,0,1.78-.7,3.78-1.82,5.47l4.71,2.74c1.11-1.69,1.82-3.69,1.82-5.47Z" style="fill:#bfbfbf; stroke:#606060; stroke-miterlimit:10; stroke-width:.5px;"/><path d="M226.71,215.6c0-.25,0-.49.03-.75l1.25-35.04-4.71-2.74-1.25,35.04c-.02.25-.03.5-.03.75,0,.47.04.9.11,1.32l4.71,2.74c-.06-.41-.11-.85-.11-1.32Z" style="fill:#bfbfbf; stroke:#606060; stroke-miterlimit:10; stroke-width:.5px;"/><path d="M226.82,216.91l-4.71-2.74c.26,1.69,1.01,2.9,2.1,3.53l4.71,2.74c-1.09-.63-1.84-1.85-2.1-3.53Z" style="fill:#fff; stroke:#606060; stroke-linecap:round; stroke-linejoin:round; stroke-width:.5px;"/><path d="M229.63,159.18c-.06.07-.13.13-.2.17l4.71,2.74c.07-.04.13-.1.2-.17h0l5.35-6.02c.17-.19.28-.45.28-.67l-4.71-2.74c0,.22-.11.48-.28.67l-5.35,6.02Z" style="fill:#fff; stroke:#606060; stroke-linecap:round; stroke-linejoin:round; stroke-width:.5px;"/><path d="M229.43,159.35s0,0-.01,0c-.07.04-.14.07-.21.07l-5.36.16,4.71,2.74,5.36-.16c.07,0,.14-.03.21-.07,0,0,0,0,.01,0l-4.71-2.74Z" style="fill:#fff; stroke:#606060; stroke-linecap:round; stroke-linejoin:round; stroke-width:.5px;"/><path d="M228.42,162.29l-4.71-2.74s.09.03.14.03l4.71,2.74c-.05,0-.1,0-.14-.03Z" style="fill:#fff; stroke:#606060; stroke-linecap:round; stroke-linejoin:round; stroke-width:.5px;"/><path d="M215.88,167.48c.01,4.27,1.52,7.27,3.95,8.68l4.71,2.74c-2.43-1.41-3.94-4.41-3.95-8.68,0-1.03.09-2.08.25-3.14l-4.71-2.74c-.16,1.07-.25,2.12-.25,3.14Z" style="fill:#fff; stroke:#606060; stroke-linecap:round; stroke-linejoin:round; stroke-width:.5px;"/><path d="M223.39,149.61c-.09-.05-.22-.04-.35.03-.08.05-.16.11-.23.21-3.42,4.17-5.92,9.47-6.68,14.48l4.71,2.74c.76-5.01,3.26-10.31,6.68-14.48.08-.09.16-.16.23-.21.13-.08.26-.09.35-.03l-4.71-2.74Z" style="fill:#fff; stroke:#606060; stroke-linecap:round; stroke-linejoin:round; stroke-width:.5px;"/><path d="M247.67,154.58c.02,6.03-2.95,12.98-7.31,18.08l1.44,33.49c.02.23.03.47.03.71.01,4.8-3.36,10.64-7.54,13.05-4.17,2.41-7.57.47-7.58-4.32,0-.25,0-.49.03-.75l1.25-35.04c-4.37-.06-7.37-3.56-7.39-9.59-.02-5.85,2.78-12.57,6.93-17.62.08-.09.16-.16.23-.21.26-.15.49-.04.49.28l.03,9.31c0,.22.11.35.28.35l5.36-.16c.07,0,.14-.03.21-.07.07-.04.14-.1.21-.18l5.35-6.02c.17-.19.28-.45.28-.67l-.03-9.31c0-.33.23-.7.49-.85.08-.05.16-.07.23-.06,4.16.26,6.99,3.73,7,9.58ZM234.28,216.47c2.74-1.58,4.95-5.41,4.94-8.55,0-3.14-2.23-4.41-4.97-2.83-2.73,1.58-4.95,5.41-4.94,8.55,0,3.14,2.24,4.41,4.97,2.83h0Z" style="fill:#fff; stroke:#606060; stroke-linecap:round; stroke-linejoin:round; stroke-width:.5px;"/><path d="M240.43,145.06c.08-.05.16-.07.23-.06,1.13.07,2.15.38,3.05.9l-4.71-2.74c-.9-.52-1.93-.83-3.05-.9-.08,0-.16.02-.23.06-.09.05-.18.15-.26.25l4.71,2.74c.08-.1.17-.19.26-.25Z" style="fill:#fff; stroke:#606060; stroke-linecap:round; stroke-linejoin:round; stroke-width:.5px;"/><path d="M235.46,142.58c-.13.18-.23.4-.23.6l.03,9.31,4.71,2.74-.03-9.31c0-.21.1-.43.23-.6l-4.71-2.74Z" style="fill:#bfbfbf; stroke:#606060; stroke-miterlimit:10; stroke-width:.5px;"/><path d="M210.66,214.3c-.22-.69-.59-1.26-.73-1.47-.13-.2-.5-.71-1.14-1.29-.61-.56-1.19-.91-1.51-1.11-.1-.06-.62-.38-1.4-.71-.65-.28-1.22-.46-1.49-.54-1.4-.43-2.73-.57-3.17-.62-.48-.05-1.77-.16-3.28-.03-.74.06-1.89.19-3.25.57-1.46.41-2.31.87-2.87,1.17-.47.26-1.39.87-1.94,1.42-.5.5-.56.58-.94,1.11,0,0-.28.39-.48.84-.23.49-.33.86-.37,1.04-.06.24-.1.57-.13.82-.02.12-.01.29-.02.41,0,1.68,1.08,3.36,3.25,4.66,4.43,2.65,11.7,2.72,16.26.16,2.31-1.3,3.48-3.03,3.48-4.76,0-.56-.05-1-.27-1.67Z" style="fill:#fff; stroke:#606060; stroke-linecap:round; stroke-linejoin:round; stroke-width:.5px;"/><path d="M207.45,220.72c-4.55,2.55-11.83,2.48-16.26-.16-2.18-1.3-3.26-2.98-3.25-4.66l-.04,13.6c0,1.68,1.08,3.36,3.25,4.66,4.43,2.65,11.7,2.72,16.26.16,2.31-1.3,3.48-3.03,3.48-4.76l.04-13.6c0,1.73-1.17,3.46-3.48,4.76Z" style="fill:#bfbfbf; stroke:#606060; stroke-miterlimit:10; stroke-width:.5px;"/><path d="M206.13,211.74c-3.79,2.28-9.85,2.21-13.53-.15-1.81-1.16-2.71-2.66-2.71-4.15l-.02,6.33c0,1.49.9,2.99,2.71,4.15,3.68,2.36,9.74,2.42,13.53.15,1.93-1.16,2.9-2.7,2.9-4.24l.02-6.33c0,1.54-.97,3.08-2.9,4.24Z" style="fill:#bfbfbf; stroke:#606060; stroke-miterlimit:10; stroke-width:.5px;"/><path d="M207.49,205.58c-4.55,2.55-11.83,2.48-16.26-.16-2.18-1.3-3.26-2.98-3.25-4.66l-.02,6.09c0,1.68,1.08,3.36,3.25,4.66,4.43,2.65,11.7,2.72,16.26.16,2.31-1.3,3.48-3.03,3.48-4.76l.02-6.09c0,1.73-1.17,3.46-3.48,4.76Z" style="fill:#bfbfbf; stroke:#606060; stroke-miterlimit:10; stroke-width:.5px;"/><ellipse cx="199.48" cy="200.79" rx="6.66" ry="11.5" transform="translate(-1.88 399.7) rotate(-89.84)" style="fill:#fff; stroke:#606060; stroke-linecap:round; stroke-linejoin:round; stroke-width:.5px;"/><ellipse cx="199.48" cy="199.8" rx="6.18" ry="10.67" transform="translate(-.89 398.71) rotate(-89.84)" style="fill:#e95420; stroke:#606060; stroke-miterlimit:10; stroke-width:.5px;"/><polygon points="199.29 201.79 195.76 199.74 195.76 175.28 199.29 177.33 199.29 201.79" style="fill:#fff; stroke:#606060; stroke-linecap:round; stroke-linejoin:round; stroke-width:.5px;"/><path d="M202.23,157.53l3.21,13.25c.07.5-.12,1.15-.51,1.69l-1.87,2.68v24.46l-3.78,2.19v-24.46l-1.95-.48c-.39-.1-.58-.52-.52-1.1l.26-15.25,5.16-2.98Z" style="fill:#fff; stroke:#606060; stroke-linecap:round; stroke-linejoin:round; stroke-width:.5px;"/><path d="M194.37,221.13c.01-.25.03-.57.06-.82.02-.18.06-.55.16-1.04,0-.05.02-.09.03-.14h0v-5.92c-.1-.1-.19-.21-.26-.39h0s0-3.63,0-3.63c-1.26.39-2.02.79-2.54,1.07-.47.26-1.39.87-1.94,1.42-.06.06-.11.11-.15.16,0,0-.01.01-.02.02-.03.03-.05.05-.07.07-.02.02-.05.05-.07.07-.01.01-.02.02-.03.03-.03.03-.06.06-.08.09,0,0,0,0,0,0-.17.19-.28.34-.52.67,0,0-.01.02-.03.05-.07.11-.26.4-.42.74,0,.02-.02.04-.03.05-.02.04-.03.08-.05.11-.09.2-.16.37-.2.52,0,0,0,0,0,.01-.06.17-.09.3-.11.39-.01.06-.03.13-.04.19-.04.21-.07.44-.09.62-.02.12-.01.29-.02.41,0,1.68,1.08,3.36,3.25,4.66.94.56,2.02,1,3.17,1.33v-.35c0-.12,0-.29,0-.41Z" style="fill:#fff; stroke:#606060; stroke-linecap:round; stroke-linejoin:round; stroke-width:.5px;"/><path d="M195.12,234.65c-.1-.3-.22-.73-.3-1.05-.07-.28-.15-.68-.21-.98-.06-.36-.13-.86-.17-1.23-.03-.29-.06-.7-.07-1-.01-.27-.02-.63-.02-.9l.02-7.61c-1.15-.33-2.23-.77-3.17-1.33-2.18-1.3-3.26-2.98-3.25-4.66h0l-.04,13.6s0,0,0,0c0,1.68,1.08,3.36,3.25,4.66,1.28.77,2.8,1.31,4.43,1.64-.02-.05-.05-.1-.07-.15-.12-.28-.28-.68-.39-.99Z" style="fill:#fff; stroke:#606060; stroke-linecap:round; stroke-linejoin:round; stroke-width:.5px;"/><path d="M194.62,219.09v-6.34c-.73-.27-1.41-.59-2.03-.98-1.81-1.16-2.71-2.66-2.71-4.15v2.27h0s0,1.23,0,1.23h0v2.83c-.01,1.49.89,2.99,2.7,4.15.62.4,1.31.72,2.04.99h0Z" style="fill:#fff; stroke:#606060; stroke-linecap:round; stroke-linejoin:round; stroke-width:.5px;"/><path d="M194.36,206.74s0,0,0,0c-.26-.08-.52-.16-.77-.25-.05-.02-.1-.03-.15-.05-.22-.08-.43-.16-.64-.25-.11-.05-.22-.1-.34-.15-.15-.07-.31-.13-.45-.21-.27-.13-.53-.27-.78-.42-.27-.16-.53-.33-.76-.5-.24-.17-.46-.35-.66-.54-.2-.18-.39-.37-.56-.56-.25-.29-.47-.58-.65-.88-.08-.13-.15-.27-.21-.4-.27-.58-.41-1.17-.41-1.77l-.02,6.08s0,0,0,0c0,.14.01.29.03.43,0,.03,0,.07.01.1.02.14.04.29.08.43,0,0,0,.01,0,.02.04.14.08.28.13.42,0,.02.02.05.03.07.06.15.12.29.2.44,0,0,0,0,0,0,.08.15.16.3.26.44,0,0,.01.02.02.03.3.45.69.89,1.16,1.31h0c.39.34.83.66,1.34.96.94.56,2,1,3.14,1.33h0s0-6.09,0-6.09Z" style="fill:#fff; stroke:#606060; stroke-linecap:round; stroke-linejoin:round; stroke-width:.5px;"/><path d="M207.41,234.32c-3.24,1.82-7.84,2.3-11.83,1.48h0c-.37-.08-.73-.16-1.09-.26-.07-.02-.14-.04-.21-.06-.23-.06-.45-.14-.67-.21-.17-.06-.33-.11-.49-.17-.11-.04-.22-.08-.32-.13-.24-.1-.48-.2-.71-.31-.06-.03-.11-.06-.17-.09-.26-.13-.52-.27-.76-.41h0c-2.18-1.3-3.26-2.98-3.25-4.66,0,0,0,0,0,0,0,0,0,0,0,0,0,.27.02.63.05.9.03.3.09.7.17,1,.03.12.07.25.11.39,0,.01,0,.03.01.04.06.2.12.39.19.58.03.07.05.15.08.21,0,0,0,0,0,.01.12.3.3.7.47.98.19.32.46.75.69,1.05,0,.01.02.03.03.04.05.06.1.12.15.19.04.05.08.09.12.14.02.03.05.06.07.09.06.07.12.13.18.2,0,0,.01.01.02.02.1.11.21.22.3.32.34.34.7.63,1.03.87.02.01.03.02.05.03.06.05.12.09.18.13.02.01.04.03.06.04.05.04.11.07.16.11.02.01.04.03.06.04.05.03.09.06.13.09.02.01.03.02.05.03.09.06.17.11.22.14,0,0,.79.47,1.44.73.12.05.23.09.33.13.02,0,.03.01.04.02.08.03.16.06.24.09.01,0,.02,0,.04.01.07.03.15.05.22.08,0,0,.01,0,.02,0,.13.04.26.09.41.13,0,0,.01,0,.02,0,.06.02.13.04.2.06,0,0,0,0,0,0h0c.14.04.29.08.47.13.02,0,.04.01.07.02,0,0,0,0,.01,0,.01,0,.03,0,.04.01.05.01.12.03.2.05,0,0,.01,0,.02,0,0,0,0,0,0,0,.3.07.77.15,1.35.22,0,0,0,0,0,0,0,0,0,0,0,0,.25.03.51.05.8.07h0s0,0,0,0c0,0,0,0,0,0,.26.02.54.03.83.03,1.75.02,3.12-.29,3.38-.35.22-.05.51-.12.72-.18.4-.12.92-.3,1.31-.45.42-.16.68-.3,1.38-.66.63-.36.78-.48,1.36-.9.26-.19.57-.47.8-.69.26-.25.6-.62.82-.91.24-.31.53-.75.74-1.09.21-.33.61-1.19.79-1.85.08-.29.18-.68.22-.98.04-.28.07-.63.09-.95-.15,1.61-1.31,3.19-3.46,4.4Z" style="fill:#fff; stroke:#606060; stroke-linecap:round; stroke-linejoin:round; stroke-width:.5px;"/><path d="M196.81,175.76l.26-15.25-.93-.54-2.86,13.74c-.06.49.08.87.36,1.03l3.53,2.05c-.28-.16-.41-.54-.36-1.03Z" style="fill:#fff; stroke:#606060; stroke-linecap:round; stroke-linejoin:round; stroke-width:.5px;"/><polygon points="202.23 157.53 197.07 160.51 196.14 159.97 201.3 156.99 202.23 157.53" style="fill:#fff; stroke:#606060; stroke-linecap:round; stroke-linejoin:round; stroke-width:.5px;"/><g style="opacity:.4;"><path d="M208.82,202.82l-5.71-3.3-3.82,2.24,5.76,3.33c.66-.23,1.29-.51,1.87-.83.77-.43,1.4-.92,1.9-1.43Z" style="fill:#7c2108; stroke-width:0px;"/></g><line x1="45.13" y1="89.13" x2="45.13" y2="67.02" style="fill:none; stroke:#606060; stroke-linecap:round; stroke-linejoin:round;"/><line x1="20.62" y1="109.46" x2="39.77" y2="98.41" style="fill:none; stroke:#606060; stroke-linecap:round; stroke-linejoin:round;"/><line x1="48.91" y1="88.76" x2="62.45" y2="65.3" style="fill:none; stroke:#606060; stroke-linecap:round; stroke-linejoin:round;"/><line x1="27.8" y1="125.33" x2="41.34" y2="101.87" style="fill:none; stroke:#606060; stroke-linecap:round; stroke-linejoin:round;"/><line x1="27.8" y1="85.31" x2="41.34" y2="93.13" style="fill:none; stroke:#606060; stroke-linecap:round; stroke-linejoin:round;"/></svg>